<svg xmlns="http://www.w3.org/2000/svg">
<defs>
<font id="GTAmericaMono-MediumItalic" horiz-adv-x="620" >
  <font-face 
    font-family="GT America Mono Medium"
    font-weight="500"
    font-style="italic"
    font-stretch="normal"
    units-per-em="1000"
    panose-1="0 0 6 0 0 0 0 0 0 0"
    ascent="800"
    descent="-200"
    x-height="500"
    cap-height="710"
    bbox="-484 -239 1301 927"
    underline-thickness="50"
    underline-position="-200"
    slope="-10"
    unicode-range="U+000D-FB02"
  />
<missing-glyph horiz-adv-x="1240" 
d="M1293 663h-774l-8 -47h774l-9 -48h-774l-8 -47h774l-9 -48h-774l-8 -47h774l-8 -47h-774l-9 -48h774l-8 -47h-1200l75 426h1200zM141 667l14 9h-16l-2 15l-7 -15h-16l12 -9l-8 -15l14 9l11 -9zM217 676h-16l12 -9l-8 -15l14 10l11 -10l-2 15l13 9h-15l-2 15zM304 676h-16
l12 -9l-8 -15l14 10l11 -10l-2 15l13 9h-15l-2 15zM390 676h-15l12 -9l-8 -15l14 10l11 -10l-2 15l13 9h-15l-2 15zM489 667l13 9h-15l-2 15l-8 -15h-15l11 -9l-7 -15l14 10l11 -10zM165 632h-15l11 -9l-7 -14l14 9l10 -9l-1 14l13 9h-15l-2 15zM437 623l14 9h-16l-1 15
l-8 -15h-15l11 -9l-8 -14l15 9l10 -9zM293 364l17 93h94l14 80h-94l16 94h-80l-16 -94h-93l-14 -80h93l-17 -93h80zM125 580l15 9h-16l-3 14l-6 -14h-16l11 -9l-7 -15l13 9l12 -9zM202 589h-16l11 -9l-7 -15l13 9l12 -9l-3 15l14 9h-15l-3 14zM375 589h-15l11 -9l-7 -15
l13 9l12 -9l-3 15l14 9h-15l-3 14zM473 580l14 9h-15l-3 14l-7 -14h-15l10 -9l-6 -15l13 9l12 -9zM110 492l15 10h-16l-3 14l-6 -14h-16l11 -10l-8 -14l14 9l11 -9zM458 492l14 10h-15l-3 14l-7 -14h-15l10 -10l-7 -14l14 9l11 -9zM94 405l15 9h-16l-2 15l-7 -15h-16l11 -9
l-7 -14l14 9l11 -9zM181 405l14 9h-15l-2 15l-7 -15h-16l11 -9l-7 -14l14 9l11 -9zM355 405l14 9h-15l-2 15l-8 -15h-15l11 -9l-7 -14l14 9l11 -9zM442 405l14 9h-15l-2 15l-8 -15h-15l10 -9l-6 -14l14 9l11 -9zM132 347l-1 15l13 9h-15l-2 14l-8 -14h-15l11 -9l-7 -15l14 9

<glyph glyph-name="fi" unicode="fi" horiz-adv-x="1240" 
d="M571 500l-16 -88h-183l-72 -412h-118l73 412h-152l16 88h151l10 55q16 84 77.5 128.5t158.5 44.5q47 0 93 -11l-16 -93q-42 8 -75 8q-55 0 -84.5 -20.5t-37.5 -64.5l-8 -47h183zM1087 725l-24 -138h-145l24 138h145zM683 0l16 90h155l57 320h-141l16 90h258l-72 -410h163
l-15 -90h-437z" />
    <glyph glyph-name="fl" unicode="fl" horiz-adv-x="1240" 
d="M571 500l-16 -88h-183l-72 -412h-118l73 412h-152l16 88h151l10 55q16 84 77.5 128.5t158.5 44.5q47 0 93 -11l-16 -93q-42 8 -75 8q-55 0 -84.5 -20.5t-37.5 -64.5l-8 -47h183zM668 0l16 90h156l96 545h-144l16 90h261l-112 -635h164l-16 -90h-437z" />
    <glyph glyph-name=".notdef" horiz-adv-x="1240" 
d="M1293 663h-774l-8 -47h774l-9 -48h-774l-8 -47h774l-9 -48h-774l-8 -47h774l-8 -47h-774l-9 -48h774l-8 -47h-1200l75 426h1200zM141 667l14 9h-16l-2 15l-7 -15h-16l12 -9l-8 -15l14 9l11 -9zM217 676h-16l12 -9l-8 -15l14 10l11 -10l-2 15l13 9h-15l-2 15zM304 676h-16
l12 -9l-8 -15l14 10l11 -10l-2 15l13 9h-15l-2 15zM390 676h-15l12 -9l-8 -15l14 10l11 -10l-2 15l13 9h-15l-2 15zM489 667l13 9h-15l-2 15l-8 -15h-15l11 -9l-7 -15l14 10l11 -10zM165 632h-15l11 -9l-7 -14l14 9l10 -9l-1 14l13 9h-15l-2 15zM437 623l14 9h-16l-1 15
l-8 -15h-15l11 -9l-8 -14l15 9l10 -9zM293 364l17 93h94l14 80h-94l16 94h-80l-16 -94h-93l-14 -80h93l-17 -93h80zM125 580l15 9h-16l-3 14l-6 -14h-16l11 -9l-7 -15l13 9l12 -9zM202 589h-16l11 -9l-7 -15l13 9l12 -9l-3 15l14 9h-15l-3 14zM375 589h-15l11 -9l-7 -15
l13 9l12 -9l-3 15l14 9h-15l-3 14zM473 580l14 9h-15l-3 14l-7 -14h-15l10 -9l-6 -15l13 9l12 -9zM110 492l15 10h-16l-3 14l-6 -14h-16l11 -10l-8 -14l14 9l11 -9zM458 492l14 10h-15l-3 14l-7 -14h-15l10 -10l-7 -14l14 9l11 -9zM94 405l15 9h-16l-2 15l-7 -15h-16l11 -9
l-7 -14l14 9l11 -9zM181 405l14 9h-15l-2 15l-7 -15h-16l11 -9l-7 -14l14 9l11 -9zM355 405l14 9h-15l-2 15l-8 -15h-15l11 -9l-7 -14l14 9l11 -9zM442 405l14 9h-15l-2 15l-8 -15h-15l10 -9l-6 -14l14 9l11 -9zM132 347l-1 15l13 9h-15l-2 14l-8 -14h-15l11 -9l-7 -15l14 9
zM393 347l-2 15l14 9h-16l-1 14l-8 -14h-15l11 -9l-8 -15l15 9zM81 303l-2 15l15 9h-16l-3 15l-6 -15h-16l11 -9l-8 -15l14 9zM168 303l-2 15l14 9h-15l-3 15l-6 -15h-16l11 -9l-8 -15l14 9zM255 303l-2 15l14 9h-15l-3 15l-6 -15h-16l11 -9l-8 -15l14 9zM342 303l-2 15
l14 9h-15l-3 15l-7 -15h-15l11 -9l-8 -15l14 9zM429 303l-2 15l14 9h-15l-3 15l-7 -15h-15l10 -9l-7 -15l14 9zM9 189l9 48h1199l-9 -48h-1199zM-7 95l8 47h1200l-8 -47h-1200zM-24 0l8 47h1200l-8 -47h-1200z" />
    <glyph glyph-name=".null" horiz-adv-x="0" 
 />
    <glyph glyph-name=".null" horiz-adv-x="0" 
 />
    <glyph glyph-name="nonmarkingreturn" horiz-adv-x="333" 
 />
    <glyph glyph-name="CR" unicode="&#xd;" horiz-adv-x="0" 
 />
    <glyph glyph-name="space" unicode=" " 
 />
    <glyph glyph-name="exclam" unicode="!" 
d="M253 207l69 503h137l-108 -503h-98zM369 150l-26 -150h-155l26 150h155z" />
    <glyph glyph-name="quotedbl" unicode="&#x22;" 
d="M202 410l23 300h141l-83 -300h-81zM392 410l23 300h141l-83 -300h-81z" />
    <glyph glyph-name="numbersign" unicode="#" 
d="M611 417h-112l-50 -139h104l-15 -87h-121l-69 -191h-99l69 191h-101l-69 -191h-99l69 191h-92l15 87h109l50 139h-94l15 87h111l68 187h99l-68 -187h101l68 187h99l-68 -187h96zM350 278l50 139h-101l-50 -139h101z" />
    <glyph glyph-name="dollar" unicode="$" 
d="M410 387q149 -53 149 -186q0 -92 -67.5 -154t-193.5 -62h-4l-16 -92h-48l17 96q-86 13 -141.5 66t-68.5 131l112 35q10 -49 39 -86t76 -49l39 220l-41 14q-148 50 -148 182q0 95 69 151.5t183 56.5h8l16 89h48l-16 -93q76 -12 126.5 -55.5t63.5 -111.5l-110 -47
q-17 93 -97 117l-37 -206zM321 420l2 -1l35 197q-62 0 -91 -29t-29 -71q0 -35 19 -57.5t64 -38.5zM311 80q57 1 89.5 28.5t32.5 79.5q0 36 -17.5 60.5t-65.5 41.5l-2 1z" />
    <glyph glyph-name="percent" unicode="%" 
d="M17 -14l546 744h76l-545 -744h-77zM197 380q-61 0 -96 38t-35 105q0 85 41 136.5t112 51.5q58 0 94 -39.5t36 -105.5q0 -83 -42.5 -134.5t-109.5 -51.5zM202 450q33 0 50.5 31t17.5 81q0 79 -56 79q-34 0 -51.5 -30.5t-17.5 -80.5q0 -80 57 -80zM437 0q-60 0 -95 38
t-35 105q0 85 41 136.5t112 51.5q58 0 94 -39.5t36 -105.5q0 -83 -43 -134.5t-110 -51.5zM443 70q33 0 50.5 31t17.5 81q0 79 -56 79q-34 0 -51.5 -30.5t-17.5 -80.5q0 -80 57 -80z" />
    <glyph glyph-name="ampersand" unicode="&#x26;" 
d="M484 120q27 -26 61 -26q17 0 29 2l-18 -95q-20 -7 -41 -7q-69 0 -105 50q-83 -61 -187 -61q-100 0 -157 49.5t-57 136.5q0 84 46 135t142 95q-17 28 -26 44t-18.5 46.5t-9.5 61.5q0 81 54.5 128.5t134.5 47.5q76 0 124.5 -43.5t48.5 -106.5q0 -126 -164 -197l-11 -5
l103 -174q40 74 61 193l95 -18q-31 -158 -105 -256zM326 645q-38 0 -58 -24t-20 -65q0 -26 9 -50t34 -66l12 5q99 44 99 128q0 32 -20.5 52t-55.5 20zM127 179q0 -47 32.5 -76t80.5 -29q73 0 126 43l-130 216q-47 -23 -72 -50t-31 -49t-6 -55z" />
    <glyph glyph-name="quotesingle" unicode="'" 
d="M297 410l23 300h141l-83 -300h-81z" />
    <glyph glyph-name="parenleft" unicode="(" 
d="M396 -139q-75 61 -125.5 176t-50.5 229q0 173 84.5 298t254.5 217l62 -76q-101 -63 -159.5 -119t-92 -135t-33.5 -186q0 -97 38 -187.5t103 -159.5z" />
    <glyph glyph-name="parenright" unicode=")" 
d="M249 781q75 -61 125.5 -176t50.5 -229q0 -173 -84.5 -298t-254.5 -217l-62 76q101 63 159.5 119t92 135t33.5 186q0 97 -38 187.5t-103 159.5z" />
    <glyph glyph-name="asterisk" unicode="*" 
d="M345 459l-105 -153l-85 66l140 121l-148 26l58 106l123 -75l-3 160h123l-58 -160l158 79l20 -110l-167 -29l100 -118l-103 -63z" />
    <glyph glyph-name="plus" unicode="+" 
d="M567 373l-15 -87h-187l-35 -197h-99l35 197h-186l15 87h186l33 185h99l-33 -185h187z" />
    <glyph glyph-name="comma" unicode="," 
d="M194 -162l-20 55q47 19 66 41.5t27 65.5h-79l27 150h155l-27 -148q-11 -62 -46 -101.5t-103 -62.5z" />
    <glyph glyph-name="hyphen" unicode="-" 
d="M170 331h307l-18 -106h-307z" />
    <glyph glyph-name="period" unicode="." 
d="M370 150l-27 -150h-155l27 150h155z" />
    <glyph glyph-name="slash" unicode="/" 
d="M157 -117h-107l437 877h107z" />
    <glyph glyph-name="zero" unicode="0" 
d="M367 710q48 0 88.5 -14t75 -45.5t54 -90t19.5 -139.5q0 -55 -8.5 -110.5t-31 -115.5t-56.5 -105.5t-91.5 -75t-129.5 -29.5q-48 0 -88.5 14t-75 45.5t-54 90t-19.5 139.5q0 55 8.5 110.5t31 115.5t56.5 105.5t91.5 75t129.5 29.5zM363 615q-54 0 -93.5 -35t-59.5 -91
t-29 -113t-9 -115q0 -18 2 -44l292 324q-28 74 -103 74zM291 80q54 0 93.5 35t59.5 91t29 113t9 115q0 26 -3 48l-292 -324q26 -78 104 -78z" />
    <glyph glyph-name="one" unicode="1" 
d="M357 104h169l-18 -104h-468l18 104h180l73 414q-53 -46 -156 -46h-32l19 110h28q133 0 194 113h98z" />
    <glyph glyph-name="two" unicode="2" 
d="M22 0l16 94q170 102 265 175q68 52 109 106.5t41 125.5q0 108 -102 108q-61 0 -89.5 -38.5t-28.5 -95.5q0 -13 2 -33l-119 11q-2 24 -2 39q3 91 63.5 154.5t178.5 63.5q43 0 80 -9.5t71 -30t53.5 -60.5t19.5 -95q0 -90 -49.5 -158.5t-145.5 -141.5q-76 -57 -170 -112h301
l-18 -103h-476z" />
    <glyph glyph-name="three" unicode="3" 
d="M305 -15q-36 0 -69 6t-66.5 21t-58.5 39t-42 63.5t-19 89.5l119 13q12 -134 135 -134q68 0 97 34t29 84q0 62 -36.5 86.5t-88.5 24.5h-36l16 90h52q68 0 98 33.5t30 81.5q0 96 -108 96q-127 0 -137 -142l-110 20q8 101 73.5 160t179.5 59q30 0 58.5 -4t59.5 -16t54 -30.5
t38 -50t15 -71.5q0 -70 -43 -119.5t-119 -61.5q126 -28 126 -159q0 -88 -62 -150.5t-185 -62.5z" />
    <glyph glyph-name="four" unicode="4" 
d="M311 0l29 166h-316l15 83l375 446h134l-78 -437h107l-16 -92h-107l-29 -166h-114zM149 258h207l41 229q7 42 19 97h-1q-22 -42 -61 -88l-150 -180q-36 -43 -55 -58z" />
    <glyph glyph-name="five" unicode="5" 
d="M290 -15q-42 0 -80 9.5t-73 30t-58 59t-28 90.5l121 17q16 -106 121 -106q77 0 110 49t33 118q0 129 -110 129q-98 0 -133 -101l-106 11l113 404h395l-17 -101h-314l-59 -205q20 39 61.5 62.5t97.5 23.5q35 0 66.5 -9.5t62 -31t48.5 -64.5t18 -102q0 -54 -15.5 -102.5
t-46.5 -90t-84.5 -66t-122.5 -24.5z" />
    <glyph glyph-name="six" unicode="6" 
d="M361 466q83 0 142.5 -54.5t59.5 -164.5q0 -108 -64.5 -185t-183.5 -77q-50 0 -92 14.5t-78 47.5t-56.5 94t-20.5 146q0 60 9 116.5t32 113.5t57 99t88.5 68t123.5 26q87 0 147.5 -43t71.5 -134l-118 -22q-16 102 -106 102q-155 0 -179 -245q26 50 71 74t96 24zM316 82
q47 0 76.5 27t39.5 60.5t10 72.5q0 70 -34 100t-81 30q-93 0 -138 -95l-1 -12q-4 -94 32.5 -138.5t95.5 -44.5z" />
    <glyph glyph-name="seven" unicode="7" 
d="M138 0l3 20q20 154 108.5 305t234.5 263h-351l19 107h480l-18 -95q-150 -116 -234 -260.5t-103 -305.5l-4 -34h-135z" />
    <glyph glyph-name="eight" unicode="8" 
d="M451 373q107 -55 107 -174q0 -93 -67.5 -153.5t-193.5 -60.5q-110 0 -184 49t-74 145q0 69 42.5 118t125.5 66q-84 52 -84 151q0 82 58.5 139t175.5 57q98 0 165.5 -43.5t67.5 -131.5q0 -57 -33.5 -100.5t-105.5 -61.5zM355 623q-34 0 -57 -10.5t-34 -27.5t-15 -32.5
t-4 -32.5q0 -76 87 -106l38 -12q98 33 98 116q0 57 -32 81t-81 24zM303 78q67 0 97.5 33t30.5 83q0 85 -87 117l-55 18q-120 -30 -120 -134q0 -63 39 -90t95 -27z" />
    <glyph glyph-name="nine" unicode="9" 
d="M339 710q52 0 93.5 -15t77 -49t55.5 -96.5t20 -150.5q0 -33 -2.5 -65.5t-10.5 -75t-21 -79.5t-36.5 -73.5t-54 -62.5t-76 -42t-100.5 -16q-43 0 -81 9.5t-71.5 30t-55 57.5t-25.5 87l118 22q14 -109 121 -109q150 0 169 254q-26 -39 -60.5 -60t-89.5 -21q-89 0 -153 56.5
t-64 157.5q0 44 13 84.5t40.5 76.5t77.5 58t116 22zM335 349q93 0 131 92q5 93 -30.5 133.5t-94.5 40.5q-48 0 -78.5 -24t-39.5 -53t-9 -64q0 -63 33 -94t88 -31z" />
    <glyph glyph-name="colon" unicode=":" 
d="M434 500l-27 -150h-155l27 150h155zM372 150l-27 -150h-155l27 150h155z" />
    <glyph glyph-name="semicolon" unicode=";" 
d="M433 500l-27 -150h-155l27 150h155zM195 -162l-20 55q47 19 66 41.5t27 65.5h-79l27 150h155l-27 -148q-11 -62 -46 -101.5t-103 -62.5z" />
    <glyph glyph-name="less" unicode="&#x3c;" 
d="M514 79l-433 202l16 90l504 202l-18 -101l-381 -148l329 -147z" />
    <glyph glyph-name="equal" unicode="=" 
d="M96 378l16 93h474l-16 -93h-474zM62 187l16 93h474l-16 -93h-474z" />
    <glyph glyph-name="greater" unicode="&#x3e;" 
d="M132 573l433 -202l-16 -90l-504 -202l18 101l381 148l-329 147z" />
    <glyph glyph-name="question" unicode="?" 
d="M119 474q-1 10 -1 17q0 106 68 171t188 65q113 0 168.5 -49t55.5 -127q0 -70 -34 -115t-94 -84l-56 -35q-28 -19 -40.5 -38.5t-18.5 -51.5l-5 -24h-115l7 39q16 91 86 135l57 35q42 26 63 52.5t21 69.5q0 41 -25.5 68t-75.5 27q-61 0 -95.5 -39t-34.5 -113q0 -11 1 -14z
M365 150l-27 -150h-155l27 150h155z" />
    <glyph glyph-name="at" unicode="@" 
d="M271 -95q-106 0 -172.5 58t-66.5 167q0 33 6 68l37 210q23 131 98.5 192t185.5 61q103 0 172.5 -54t69.5 -164q0 -30 -6 -63l-25 -145q-13 -81 -40.5 -111t-74.5 -30q-76 0 -89 62q-35 -63 -111 -63q-44 0 -74 26.5t-30 71.5q0 108 143 124l88 11l1 9q2 18 2 21
q0 52 -50 52q-65 0 -68 -65h-80q5 61 45.5 97.5t107.5 36.5q124 0 124 -115q0 -23 -7 -64l-13 -72q-6 -30 -6 -42q0 -30 24 -30q19 0 27.5 14.5t15.5 54.5l25 148q6 34 6 62q0 89 -50 129.5t-125 40.5q-188 0 -223 -195l-36 -208q-5 -33 -5 -56q0 -91 50 -135.5t128 -44.5
q71 0 139 38l14 -55q-72 -42 -157 -42zM281 159q27 0 53.5 20.5t32.5 61.5l5 27l-59 -8q-76 -10 -76 -59q0 -20 12.5 -31t31.5 -11z" />
    <glyph glyph-name="A" unicode="A" 
d="M431 0l-20 181h-227l-82 -181h-121l331 710h142l97 -710h-120zM365 608q-47 -132 -136 -328h170q-29 283 -31 328h-3z" />
    <glyph glyph-name="B" unicode="B" 
d="M403 710q96 0 149.5 -44.5t53.5 -118.5q0 -67 -43 -117.5t-116 -66.5q55 -9 87.5 -48t32.5 -102q0 -94 -71 -153.5t-198 -59.5h-261l125 710h241zM269 616l-37 -209h105q68 0 105.5 31t37.5 85q0 45 -27.5 69t-76.5 24h-107zM216 319l-39 -225h122q73 0 109.5 32.5
t36.5 89.5q0 49 -28.5 76t-74.5 27h-126z" />
    <glyph glyph-name="C" unicode="C" 
d="M284 -17q-130 0 -191.5 83.5t-34.5 238.5l18 103q28 156 100 237.5t199 81.5q118 0 180.5 -65t55.5 -192l-127 -19q11 174 -115 174q-70 0 -109 -50.5t-59 -166.5l-16 -96q-20 -109 9.5 -168t96.5 -59q64 0 104.5 44t53.5 131l120 -23q-21 -119 -93 -186.5t-192 -67.5z
" />
    <glyph glyph-name="D" unicode="D" 
d="M22 0l125 710h194q125 0 199 -73t74 -218q0 -116 -40 -209t-125 -151.5t-203 -58.5h-224zM163 98h95q106 0 168 93t62 221q0 99 -40 149.5t-115 50.5h-80z" />
    <glyph glyph-name="E" unicode="E" 
d="M607 710l-18 -101h-304l-35 -196h288l-18 -99h-287l-38 -213h312l-18 -101h-435l125 710h428z" />
    <glyph glyph-name="F" unicode="F" 
d="M633 710l-18 -102h-321l-35 -197h297l-18 -103h-297l-54 -308h-124l126 710h444z" />
    <glyph glyph-name="G" unicode="G" 
d="M248 -17q-114 0 -162.5 89.5t-26.5 232.5l16 100q24 156 97.5 239t195.5 83q65 0 113.5 -19t74.5 -51.5t37.5 -70.5t11.5 -81l-126 -20q2 63 -25.5 103t-90.5 40q-67 0 -107 -54t-57 -184l-12 -79q-15 -114 9.5 -171t94.5 -57q73 0 111.5 49t50.5 118l6 35h-154l16 93
h264l-66 -378h-85l7 104q-21 -57 -71 -89t-122 -32z" />
    <glyph glyph-name="H" unicode="H" 
d="M629 710l-125 -710h-123l55 313h-230l-55 -313h-123l125 710h123l-52 -299h229l53 299h123z" />
    <glyph glyph-name="I" unicode="I" 
d="M601 614h-166l-91 -518h166l-17 -96h-454l17 96h165l91 518h-165l17 96h454z" />
    <glyph glyph-name="J" unicode="J" 
d="M609 710l-90 -517q-18 -101 -83 -155.5t-162 -54.5q-241 0 -227 246l127 36q-8 -94 15 -135.5t86 -41.5q102 0 124 124l88 498h122z" />
    <glyph glyph-name="K" unicode="K" 
d="M649 710l-252 -280l148 -430h-142l-113 351l-94 -108l-43 -243h-123l125 710h123l-57 -324l289 324h139z" />
    <glyph glyph-name="L" unicode="L" 
d="M186 710h123l-106 -606h322l-19 -104h-445z" />
    <glyph glyph-name="M" unicode="M" 
d="M439 425l-94 -252h-96l-8 252q-3 47 2 160h-7q-10 -86 -31 -201l-67 -384h-110l125 710h156l10 -321q0 -36 -2 -90h6q11 36 29 89l124 322h153l-125 -710h-110l68 384q16 93 40 201h-8q-22 -73 -55 -160z" />
    <glyph glyph-name="N" unicode="N" 
d="M405 275q12 -51 17 -100h4q0 32 11 96l77 439h115l-128 -710h-133l-114 456q-9 37 -15 93h-5q0 -34 -9 -81l-82 -468h-115l129 710h144z" />
    <glyph glyph-name="O" unicode="O" 
d="M283 -17q-139 0 -196 91t-29 254l15 83q26 149 96.5 232.5t204.5 83.5q139 0 196 -91t29 -254l-15 -83q-26 -149 -96.5 -232.5t-204.5 -83.5zM290 84q70 0 109 54.5t60 171.5l15 87q42 229 -107 229q-70 0 -109 -54.5t-60 -170.5l-15 -88q-40 -229 107 -229z" />
    <glyph glyph-name="P" unicode="P" 
d="M219 279l-49 -279h-123l125 710h237q113 0 165 -56.5t52 -130.5q0 -37 -8 -70.5t-29 -66t-53.5 -55.5t-84 -37.5t-117.5 -14.5h-115zM236 371h108q46 0 77.5 12.5t47 35t21.5 46.5t6 55q0 40 -27 67.5t-88 27.5h-103z" />
    <glyph glyph-name="Q" unicode="Q" 
d="M374 727q139 0 196 -91t29 -254l-15 -83q-39 -224 -170 -288q27 -47 92 -47q28 0 49 5l-19 -105q-21 -5 -59 -5q-61 0 -101 34.5t-52 91.5q-26 -2 -41 -2q-139 0 -196 91t-29 254l15 83q26 149 96.5 232.5t204.5 83.5zM474 397q42 229 -107 229q-70 0 -109 -54.5
t-60 -170.5l-15 -88q-40 -229 107 -229q70 0 109 54.5t60 171.5z" />
    <glyph glyph-name="R" unicode="R" 
d="M624 520q0 -74 -44 -132t-126 -82l101 -306h-135l-91 291h-110l-51 -291h-123l125 710h231q101 0 162 -49t61 -141zM341 379q75 0 114 39.5t39 95.5q0 50 -31 75.5t-82 25.5h-105l-41 -236h106z" />
    <glyph glyph-name="S" unicode="S" 
d="M297 -17q-111 0 -180.5 58t-84.5 147l114 38q15 -61 55.5 -101t106.5 -40q60 0 93 27.5t33 78.5q0 73 -82 103l-89 31q-151 54 -151 192q0 89 65.5 149.5t191.5 60.5q87 0 155.5 -45.5t89.5 -133.5l-109 -49q-14 64 -52.5 96t-90.5 32q-62 0 -92 -29t-30 -71
q0 -35 19 -57.5t63 -38.5l90 -34q151 -55 151 -192q0 -41 -14 -78.5t-43.5 -70.5t-83 -53t-125.5 -20z" />
    <glyph glyph-name="T" unicode="T" 
d="M120 710h541l-18 -104h-209l-107 -606h-123l107 606h-209z" />
    <glyph glyph-name="U" unicode="U" 
d="M142 710h124l-81 -465q-14 -78 15 -118.5t92 -40.5q113 0 135 122l88 502h124l-88 -503q-19 -105 -86 -164.5t-185 -59.5q-124 0 -182 70.5t-36 195.5z" />
    <glyph glyph-name="V" unicode="V" 
d="M283 183v-79h4q10 25 28 79l221 527h131l-320 -710h-154l-78 710h128z" />
    <glyph glyph-name="W" unicode="W" 
d="M50 0l71 710h113l-60 -457q-8 -63 -19 -124h9q16 57 32 100l114 304h100l4 -322q1 -52 0 -82h9q11 66 24 126l100 455h114l-176 -710h-142l-4 278q-1 49 6 143h-9q-10 -59 -39 -138l-106 -283h-141z" />
    <glyph glyph-name="X" unicode="X" 
d="M-20 0l278 375l-129 335h133l67 -207q8 -25 12 -53h3q6 12 31 52l137 208h136l-244 -340l147 -370h-138l-83 245q-7 20 -11 52h-4q-11 -25 -30 -51l-168 -246h-137z" />
    <glyph glyph-name="Y" unicode="Y" 
d="M377 277l-49 -277h-123l49 277l-145 433h132l90 -330l205 330h137z" />
    <glyph glyph-name="Z" unicode="Z" 
d="M37 103l431 505h-329l18 102h467l-18 -102l-429 -506h354l-18 -102h-494z" />
    <glyph glyph-name="bracketleft" unicode="[" 
d="M123 -114l153 871h315l-16 -89h-205l-122 -692h205l-15 -90h-315z" />
    <glyph glyph-name="backslash" unicode="\" 
d="M487 -117l-437 877h107l437 -877h-107z" />
    <glyph glyph-name="bracketright" unicode="]" 
d="M522 757l-153 -871h-315l16 89h205l122 692h-205l15 90h315z" />
    <glyph glyph-name="asciicircum" unicode="^" 
d="M346 709h89l105 -262h-98l-65 164l-125 -164h-103z" />
    <glyph glyph-name="underscore" unicode="_" 
d="M-61 -100h619l-17 -92h-619z" />
    <glyph glyph-name="grave" unicode="`" 
d="M501 572h-96l-145 151h133z" />
    <glyph glyph-name="a" unicode="a" 
d="M501 153q-16 -100 -13 -153h-117q0 46 5 89q-49 -101 -171 -101q-69 0 -112 37.5t-43 98.5q0 91 78 134q51 29 155 37l124 11l2 17q4 15 4 31q0 73 -82 73q-89 0 -106 -83h-121q12 80 74.5 124t160.5 44q190 0 190 -161q0 -23 -5 -60zM397 240l-93 -8q-128 -9 -128 -92
q0 -32 19.5 -49.5t56.5 -17.5q54 0 91 36t48 96z" />
    <glyph glyph-name="b" unicode="b" 
d="M298 725l-52 -304q57 91 158 91q82 0 125 -57.5t43 -143.5q0 -136 -66.5 -229.5t-179.5 -93.5q-46 0 -89 24t-58 69l-27 -81h-98l128 725h116zM210 230q-12 -67 13.5 -108.5t79.5 -41.5q70 0 108 66t38 156q0 51 -24.5 84.5t-72.5 33.5q-53 0 -88 -39.5t-48 -110.5z" />
    <glyph glyph-name="c" unicode="c" 
d="M296 -12q-42 0 -79.5 11t-71.5 35t-54.5 70t-20.5 109q0 53 14 102.5t44 95.5t84.5 73.5t126.5 27.5q91 0 151 -44.5t63 -135.5l-115 -19q-2 57 -30.5 81.5t-70.5 24.5q-40 0 -69.5 -19.5t-45 -51.5t-23 -65.5t-7.5 -68.5q0 -70 31 -100.5t77 -30.5q47 0 75.5 29.5
t38.5 77.5l113 -22q-20 -83 -78.5 -131.5t-152.5 -48.5z" />
    <glyph glyph-name="d" unicode="d" 
d="M365 0l15 90q-52 -102 -166 -102q-82 0 -125 57.5t-43 143.5q0 136 67 229.5t181 93.5q46 0 85.5 -20t54.5 -64l52 297h118l-128 -725h-111zM408 270q13 67 -13 108.5t-80 41.5q-70 0 -108 -66t-38 -156q0 -51 24.5 -84.5t72.5 -33.5q52 0 86.5 39.5t48.5 110.5z" />
    <glyph glyph-name="e" unicode="e" 
d="M189 223v-2q-2 -67 29.5 -103t88.5 -36q84 0 127 79l85 -46q-73 -127 -222 -127q-106 0 -163 59.5t-57 169.5q0 123 69.5 209t197.5 86q99 0 153.5 -54t54.5 -146q0 -37 -13 -89h-350zM335 430q-55 0 -90.5 -34.5t-47.5 -96.5h238q3 14 3 30q0 49 -28 75t-75 26z" />
    <glyph glyph-name="f" unicode="f" 
d="M571 500l-16 -88h-183l-72 -412h-118l73 412h-152l16 88h151l10 55q16 84 77.5 128.5t158.5 44.5q47 0 93 -11l-16 -93q-42 8 -75 8q-55 0 -84.5 -20.5t-37.5 -64.5l-8 -47h183z" />
    <glyph glyph-name="g" unicode="g" 
d="M596 582q11 0 31 -2l-16 -90q-18 4 -42 4q-55 0 -81 -32q41 -39 41 -105q0 -81 -58.5 -132t-162.5 -51q-60 0 -105 20q-34 -13 -34 -44q0 -43 67 -44l117 -1q165 -1 165 -127q0 -87 -75 -135.5t-207 -48.5q-104 0 -166.5 30.5t-62.5 92.5q0 41 29 68.5t77 38.5
q-48 24 -48 79q0 43 27.5 72t75.5 40q-52 39 -52 114q0 81 58.5 132t162.5 51q63 0 106 -20q17 39 58.5 64.5t94.5 25.5zM317 249q46 0 72.5 28.5t26.5 73.5q0 43 -24 64.5t-64 21.5q-46 0 -72.5 -28t-26.5 -73q0 -44 24 -65.5t64 -21.5zM321 6l-124 1q-11 0 -31 2
q-45 -18 -45 -61q0 -75 136 -75q143 0 143 78q0 55 -79 55z" />
    <glyph glyph-name="h" unicode="h" 
d="M236 403q54 109 167 109q71 0 109 -41q47 -49 27 -161l-54 -310h-118l54 305q19 110 -76 110q-108 0 -132 -142l-49 -273h-117l128 725h117z" />
    <glyph glyph-name="i" unicode="i" 
d="M467 725l-24 -138h-145l24 138h145zM63 0l16 90h155l57 320h-141l16 90h258l-72 -410h163l-15 -90h-437z" />
    <glyph glyph-name="j" unicode="j" 
d="M539 725l-24 -138h-145l24 138h145zM25 -182l17 95q50 -14 108 -14q61 0 93 29t44 96l69 386h-196l16 90h313l-85 -485q-39 -215 -250 -215q-82 0 -129 18z" />
    <glyph glyph-name="k" unicode="k" 
d="M597 500l-209 -191l131 -309h-136l-92 234l-91 -82l-27 -152h-117l128 725h117l-78 -442l232 217h142z" />
    <glyph glyph-name="l" unicode="l" 
d="M48 0l16 90h156l96 545h-144l16 90h261l-112 -635h164l-16 -90h-437z" />
    <glyph glyph-name="m" unicode="m" 
d="M170 425q39 87 118 87q82 0 90 -89q44 89 130 89q43 0 69 -28.5t26 -75.5q0 -22 -10 -79l-58 -329h-106l55 301q10 53 10 75q0 21 -12 33t-34 12q-57 0 -72 -85l-59 -336h-104l58 323q7 44 7 50q0 23 -13 35.5t-35 12.5q-53 0 -69 -85l-59 -336h-106l89 500h98z" />
    <glyph glyph-name="n" unicode="n" 
d="M230 403q27 51 72 80t101 29q71 0 110 -41q33 -35 33 -94q0 -27 -6 -63l-55 -314h-118l54 305q3 29 3 32q0 78 -79 78q-107 0 -133 -143l-48 -272h-117l88 500h112z" />
    <glyph glyph-name="o" unicode="o" 
d="M283 -12q-109 0 -165.5 59t-56.5 158q0 139 77.5 223t195.5 84q113 0 169 -56t56 -154q0 -144 -77 -229t-199 -85zM285 80q75 0 113 58.5t38 163.5q0 55 -26.5 86.5t-76.5 31.5q-73 0 -111 -58t-38 -157q0 -56 26.5 -90.5t74.5 -34.5z" />
    <glyph glyph-name="p" unicode="p" 
d="M255 500l-16 -87q61 99 169 99q81 0 123.5 -58t42.5 -152q0 -80 -28.5 -150.5t-86 -117t-130.5 -46.5q-50 0 -88.5 21.5t-54.5 62.5l-49 -267h-118l124 695h112zM212 235q-4 -19 -4 -45q0 -52 25 -81t70 -29q48 0 82.5 34.5t49.5 81.5t15 98q0 60 -24.5 93t-72.5 33
q-53 0 -88.5 -40t-46.5 -110z" />
    <glyph glyph-name="q" unicode="q" 
d="M326 -195l50 280q-22 -45 -62 -71t-83 -26q-90 0 -136 58t-46 147q0 132 66 225.5t180 93.5q108 0 143 -86l29 74h100l-123 -695h-118zM412 270q4 19 4 40q0 50 -25.5 80t-70.5 30q-71 0 -109 -66t-38 -152q0 -54 24 -88t72 -34q53 0 87.5 39.5t48.5 110.5z" />
    <glyph glyph-name="r" unicode="r" 
d="M256 363q37 70 99 108.5t139 38.5q65 0 94 -17l-18 -104q-32 16 -103 16q-89 0 -154.5 -56.5t-84.5 -167.5l-33 -181h-117l88 500h115z" />
    <glyph glyph-name="s" unicode="s" 
d="M293 -12q-90 0 -149 39t-80 105l94 42q35 -99 143 -99q93 0 93 67q0 26 -13.5 38t-45.5 18l-85 15q-126 23 -126 137q0 75 57.5 118.5t150.5 43.5q88 0 142.5 -34t74.5 -93l-93 -45q-28 87 -131 87q-41 0 -64.5 -17t-23.5 -46q0 -25 15 -38.5t49 -19.5l87 -16
q122 -22 122 -133q0 -77 -58.5 -123t-158.5 -46z" />
    <glyph glyph-name="t" unicode="t" 
d="M107 412l15 88h137l23 127l126 47l-31 -174h185l-15 -88h-186l-39 -219q-17 -97 84 -97q52 0 88 12l-19 -100q-46 -16 -101 -16q-99 0 -143 46t-30 131l43 243h-137z" />
    <glyph glyph-name="u" unicode="u" 
d="M382 95q-24 -48 -68.5 -77.5t-101.5 -29.5q-71 0 -110 42q-45 50 -25 155l55 315h117l-53 -306q-20 -111 71 -111q107 0 132 142l48 275h118l-88 -500h-111z" />
    <glyph glyph-name="v" unicode="v" 
d="M202 0l-107 500h126l54 -321q8 -67 8 -73h3q18 44 32 70l172 324h122l-279 -500h-131z" />
    <glyph glyph-name="w" unicode="w" 
d="M66 500h109l-15 -326q-4 -69 -4 -73h6q22 62 28 82l109 317h107l-2 -317q-2 -31 1 -83h6q5 13 21 74l97 326h112l-179 -500h-128l-1 309q0 14 5 79h-5q-6 -38 -22 -79l-109 -309h-133z" />
    <glyph glyph-name="x" unicode="x" 
d="M299 181l-148 -181h-135l224 259l-124 241h135l73 -168l128 168h137l-208 -243l135 -257h-133z" />
    <glyph glyph-name="y" unicode="y" 
d="M243 500l53 -384l186 384h124l-300 -557q-48 -88 -101 -116t-129 -28q-24 0 -58 6l16 94q21 -5 49 -5q42 0 68 18t48 61l15 30l-101 497h130z" />
    <glyph glyph-name="z" unicode="z" 
d="M63 79l333 330h-264l17 91h404l-13 -76l-329 -331h287l-17 -93h-431z" />
    <glyph glyph-name="braceleft" unicode="{" 
d="M353 -114q-90 0 -134.5 44.5t-32.5 114.5l22 129q4 29 4 51t-16 35t-51 13l17 97q51 0 69 22t28 74l24 139q12 69 69.5 110.5t144.5 41.5h97l-16 -89h-86q-42 0 -68.5 -24t-34.5 -66l-19 -111q-20 -118 -102 -146q69 -33 49 -152l-17 -98q-8 -43 12.5 -69t66.5 -26h77
l-16 -90h-87z" />
    <glyph glyph-name="bar" unicode="|" 
d="M198 -117l155 877h94l-155 -877h-94z" />
    <glyph glyph-name="braceright" unicode="}" 
d="M291 757q90 0 134.5 -44.5t32.5 -114.5l-22 -129q-4 -29 -4 -51t16 -35t51 -13l-17 -97q-51 0 -69 -22t-28 -74l-24 -139q-12 -69 -69.5 -110.5t-144.5 -41.5h-97l16 89h86q42 0 68.5 24t34.5 66l19 111q20 118 102 146q-69 33 -49 152l17 98q8 43 -12.5 69t-66.5 26h-77
l16 90h87z" />
    <glyph glyph-name="asciitilde" unicode="~" 
d="M246 384q33 0 61 -12t45 -26.5t39 -26.5t44 -12q54 0 89 74l72 -20q-31 -73 -77.5 -107t-97.5 -34q-32 0 -59.5 12t-43.5 26.5t-38 26.5t-44 12q-61 0 -86 -59l-81 13q26 68 74 100.5t103 32.5z" />
    <glyph glyph-name="uni00A0" unicode="&#xa0;" 
 />
    <glyph glyph-name="exclamdown" unicode="&#xa1;" 
d="M253 365l26 150h155l-26 -150h-155zM369 308l-69 -503h-137l108 503h98z" />
    <glyph glyph-name="cent" unicode="&#xa2;" 
d="M315 79q84 12 111 108l103 -20q-21 -76 -81.5 -126t-148.5 -53l-15 -82h-52l15 85q-85 12 -129.5 69.5t-44.5 145.5q0 126 70 213t196 93l15 82h52l-15 -84q76 -10 119.5 -58.5t45.5 -123.5l-109 -17q-3 90 -72 109zM186 220q0 -118 77 -138l61 342q-68 -7 -103 -67.5
t-35 -136.5z" />
    <glyph glyph-name="sterling" unicode="&#xa3;" 
d="M363 87q39 0 64.5 20.5t32.5 75.5l107 -19q-15 -95 -73 -137t-130 -42q-38 0 -97.5 13t-105.5 13q-74 0 -152 -19l-11 78q40 13 67 28t52 41.5t37 69t12 101.5v16h-98l12 69h84q0 12 -0.5 31.5t-0.5 24.5q-2 128 63 193.5t168 65.5q91 0 146 -42.5t59 -122.5l-118 -27
q-4 50 -28.5 74.5t-64.5 24.5q-50 0 -78.5 -35t-27.5 -129q0 -12 2 -58h156l-12 -69h-142v-8q0 -97 -35.5 -145t-105.5 -78q26 6 67 6q29 0 76.5 -7t74.5 -7z" />
    <glyph glyph-name="currency" unicode="&#xa4;" 
d="M524 444q32 -51 32 -119q0 -103 -70 -175l38 -51l-64 -51l-40 53q-58 -28 -121 -28q-81 0 -137 42l-75 -68l-45 51l74 68q-28 47 -28 105q0 109 67 182l-41 56l64 51l43 -56q57 30 125 30q75 0 130 -39l74 66l46 -51zM188 282q0 -53 34 -86t86 -33q67 0 107 43t40 114
q0 58 -35.5 90.5t-85.5 32.5q-69 0 -107.5 -43t-38.5 -118z" />
    <glyph glyph-name="yen" unicode="&#xa5;" 
d="M658 695l-266 -364h160l-11 -64h-168l-12 -67h168l-11 -64h-168l-24 -136h-122l24 136h-172l12 64h172l12 67h-172l11 64h165l-139 364h131l88 -272l186 272h136z" />
    <glyph glyph-name="brokenbar" unicode="&#xa6;" 
d="M446 760l-67 -376h-93l67 376h93zM358 263l-67 -380h-93l67 380h93z" />
    <glyph glyph-name="section" unicode="&#xa7;" 
d="M443 486q57 -24 86 -54t29 -83q0 -98 -112 -138q42 -42 42 -107q0 -73 -55.5 -122t-160.5 -49q-89 0 -148 42t-72 117l103 29q9 -44 41 -73.5t84 -29.5q44 0 69 19.5t25 55.5q0 56 -66 76l-73 25q-131 42 -131 145q0 49 31 85t89 55q-47 41 -47 103q0 72 56 118t161 46
q78 0 129.5 -36t66.5 -99l-96 -41q-9 45 -40 69.5t-69 24.5q-50 0 -73 -20.5t-23 -49.5q0 -25 16 -40.5t54 -31.5zM365 257q2 -1 7 -2.5t7 -2.5q31 4 48 25t17 53q0 48 -67 74l-73 30l-15 6q-37 -6 -55 -29t-18 -50q0 -29 16.5 -46t58.5 -33z" />
    <glyph glyph-name="dieresis" unicode="&#xa8;" 
d="M357 723l-24 -135h-134l24 135h134zM563 723l-23 -135h-135l24 135h134z" />
    <glyph glyph-name="copyright" unicode="&#xa9;" 
d="M277 -18q-121 0 -179.5 81.5t-35.5 217.5l30 167q48 277 288 277q121 0 179.5 -81.5t34.5 -217.5l-29 -167q-48 -277 -288 -277zM282 34q188 0 228 225l28 167q20 113 -24 180t-139 67q-189 0 -228 -225l-29 -167q-20 -113 24.5 -180t139.5 -67zM301 142q-71 0 -103 46.5
t-15 136.5l15 81q16 88 56.5 125t105.5 37q64 0 97 -39.5t21 -105.5l-85 -8q6 35 -4 60t-36 25q-54 0 -72 -101l-14 -82q-20 -107 43 -107q26 0 43 23.5t20 59.5l81 -12q-6 -61 -47 -100t-106 -39z" />
    <glyph glyph-name="ordfeminine" unicode="&#xaa;" 
d="M509 413q-11 -60 -9 -103h-101q0 37 4 60q-34 -69 -130 -69q-50 0 -82 28t-32 72q0 59 43.5 86t123.5 35l98 10l2 15q5 40 -9 54t-42 14q-60 0 -70 -58h-107q7 59 56.5 93t124.5 34q153 0 153 -119q0 -11 -4 -43zM417 485l-63 -6q-88 -7 -88 -64q0 -21 15 -34t40 -13
q35 0 59 22t31 60z" />
    <glyph glyph-name="guillemotleft" unicode="&#xab;" 
d="M179 67l-128 209l206 206h127l-210 -210l125 -205h-120zM389 67l-128 209l207 206h127l-210 -210l124 -205h-120z" />
    <glyph glyph-name="logicalnot" unicode="&#xac;" 
d="M98 380h469l-44 -253h-93l28 162h-376z" />
    <glyph glyph-name="registered" unicode="&#xae;" 
d="M377 725q121 0 179.5 -81.5t34.5 -217.5l-29 -167q-48 -277 -288 -277q-121 0 -179.5 81.5t-35.5 217.5l30 167q48 277 288 277zM535 426q20 113 -24 180t-139 67q-189 0 -228 -225l-29 -167q-20 -113 24.5 -180t139.5 -67q188 0 228 225zM354 562q60 0 94.5 -27.5
t34.5 -78.5q0 -44 -23.5 -76.5t-65.5 -46.5l48 -177h-88l-37 167h-44l-29 -167h-80l72 406h118zM323 383q78 0 78 66q0 50 -60 50h-37l-20 -116h39z" />
    <glyph glyph-name="macron" unicode="&#xaf;" 
d="M213 588l14 82h315l-14 -82h-315z" />
    <glyph glyph-name="degree" unicode="&#xb0;" 
d="M523 576q0 -80 -50 -128.5t-124 -48.5q-64 0 -103.5 41t-39.5 100q0 83 49 130t123 47q66 0 105.5 -40t39.5 -101zM281 545q0 -32 21.5 -54t55.5 -22q39 0 64.5 26.5t25.5 76.5q0 33 -21.5 54t-55.5 21q-38 0 -64 -26.5t-26 -75.5z" />
    <glyph glyph-name="plusminus" unicode="&#xb1;" 
d="M381 376h188l-16 -87h-188l-27 -153h-99l27 153h-186l15 87h187l28 158h99zM29 0l16 92h474l-16 -92h-474z" />
    <glyph glyph-name="acute" unicode="&#xb4;" 
d="M260 572l108 151h133l-145 -151h-96z" />
    <glyph glyph-name="uni00B5" unicode="&#xb5;" 
d="M447 500h118l-88 -500h-111l16 95q-24 -48 -68.5 -77.5t-101.5 -29.5q-28 0 -55 9l-34 -192h-113l122 695h117l-53 -306q-20 -111 71 -111q107 0 132 142z" />
    <glyph glyph-name="paragraph" unicode="&#xb6;" 
d="M289 355q-86 0 -143 40t-57 128q0 99 72 148t182 49h322l-11 -62h-90l-134 -757h-71l134 757h-80l-134 -757h-70z" />
    <glyph glyph-name="periodcentered" unicode="&#xb7;" 
d="M421 432l-27 -150h-155l27 150h155z" />
    <glyph glyph-name="cedilla" unicode="&#xb8;" 
d="M224 7h60l-44 -56q19 14 54 14q31 0 50.5 -20t19.5 -51q0 -44 -37.5 -71.5t-92.5 -27.5q-92 0 -112 63l76 19q8 -30 40 -30q18 0 31 10.5t13 31.5q0 36 -35 36q-21 0 -35 -15l-47 13z" />
    <glyph glyph-name="ordmasculine" unicode="&#xba;" 
d="M334 301q-84 0 -128.5 42t-44.5 118q0 103 59.5 163t150.5 60q85 0 129.5 -41t44.5 -115q0 -105 -59 -166t-152 -61zM337 377q100 0 100 151q0 80 -68 80q-50 0 -76 -40t-26 -106q0 -85 70 -85z" />
    <glyph glyph-name="guillemotright" unicode="&#xbb;" 
d="M240 482l128 -209l-206 -206h-128l211 210l-125 205h120zM450 482l129 -209l-207 -206h-127l210 210l-125 205h120z" />
    <glyph glyph-name="onequarter" unicode="&#xbc;" horiz-adv-x="1240" 
d="M934 727h92l-629 -744h-92zM444 324h-289l11 64h108l40 224q-16 -12 -47.5 -20.5t-56.5 -8.5h-5l12 73h2q34 0 70.5 15t53.5 39h70l-58 -322h100zM1021 149h59l-10 -62h-60l-15 -87h-79l16 87h-189l9 58l221 241h90zM942 149l30 163l-149 -163h119z" />
    <glyph glyph-name="onehalf" unicode="&#xbd;" horiz-adv-x="1240" 
d="M914 727h92l-629 -744h-92zM430 324h-289l11 64h108l40 224q-16 -12 -47.5 -20.5t-56.5 -8.5h-5l12 73h2q34 0 70.5 15t53.5 39h70l-58 -322h100zM1110 283q0 -34 -15.5 -64.5t-48 -58t-62 -47t-77.5 -46.5h173l-11 -67h-290l10 62q123 69 179 115.5t56 97.5
q0 24 -14.5 38t-40.5 14q-27 0 -43 -15.5t-16 -43.5q0 -8 2 -22l-82 8q-2 20 -2 23q0 52 40 85t106 33q64 0 100 -30t36 -82z" />
    <glyph glyph-name="threequarters" unicode="&#xbe;" horiz-adv-x="1240" 
d="M926 727h92l-629 -744h-92zM320 548h23q34 0 54 14.5t20 41.5q0 50 -54 50q-63 0 -63 -70l-83 10q2 60 43 92.5t110 32.5q62 0 98 -26.5t36 -75.5q0 -40 -27.5 -67t-66.5 -32q34 -4 54 -27.5t20 -56.5q0 -54 -42.5 -86t-111.5 -32q-144 0 -145 122l87 7q-1 -65 62 -65
q32 0 47.5 16t15.5 42q0 25 -15 39t-44 14h-27zM1060 87h-60l-15 -87h-79l16 87h-189l9 58l221 241h90l-42 -237h59zM932 149l30 163l-149 -163h119z" />
    <glyph glyph-name="questiondown" unicode="&#xbf;" 
d="M258 365l27 150h155l-27 -150h-155zM504 41q1 -10 1 -17q0 -106 -68 -171t-188 -65q-113 0 -168.5 49t-55.5 127q0 70 34 115t94 84l56 35q28 19 40.5 38.5t18.5 51.5l5 24h115l-7 -39q-16 -91 -86 -135l-57 -35q-42 -26 -63 -52.5t-21 -69.5q0 -41 25.5 -68t75.5 -27
q61 0 95.5 39t34.5 113q0 11 -1 14z" />
    <glyph glyph-name="Agrave" unicode="&#xc0;" 
d="M439 770h-99l-131 122h138zM431 0l-20 181h-227l-82 -181h-121l331 710h142l97 -710h-120zM365 608q-47 -132 -136 -328h170q-29 283 -31 328h-3z" />
    <glyph glyph-name="Aacute" unicode="&#xc1;" 
d="M573 892l-131 -122h-99l92 122h138zM312 710h142l97 -710h-120l-20 181h-227l-82 -181h-121zM365 608q-47 -132 -136 -328h170q-29 283 -31 328h-3z" />
    <glyph glyph-name="Acircumflex" unicode="&#xc2;" 
d="M401 838l-79 -68h-102l122 122h132l78 -122h-93zM312 710h142l97 -710h-120l-20 181h-227l-82 -181h-121zM365 608q-47 -132 -136 -328h170q-29 283 -31 328h-3z" />
    <glyph glyph-name="Atilde" unicode="&#xc3;" 
d="M541 893l69 -16q-43 -116 -135 -116q-43 0 -83.5 28.5t-67.5 28.5q-49 0 -60 -50l-72 16q19 59 56 86t79 27q46 0 89.5 -28.5t67.5 -28.5q41 0 57 53zM312 710h142l97 -710h-120l-20 181h-227l-82 -181h-121zM365 608q-47 -132 -136 -328h170q-29 283 -31 328h-3z" />
    <glyph glyph-name="Adieresis" unicode="&#xc4;" 
d="M367 892l-22 -124h-122l22 124h122zM457 892h123l-23 -124h-122zM312 710h142l97 -710h-120l-20 181h-227l-82 -181h-121zM365 608q-47 -132 -136 -328h170q-29 283 -31 328h-3z" />
    <glyph glyph-name="Aring" unicode="&#xc5;" 
d="M392 733q-45 0 -72.5 25t-27.5 62q0 47 33.5 77t85.5 30q45 0 72.5 -25t27.5 -62q0 -47 -33.5 -77t-85.5 -30zM406 875q-23 0 -36.5 -13.5t-13.5 -35.5q0 -18 10.5 -29.5t30.5 -11.5q22 0 36 13.5t14 35.5q0 18 -10.5 29.5t-30.5 11.5zM431 0l-20 181h-227l-82 -181h-121
l331 710h142l97 -710h-120zM365 608q-47 -132 -136 -328h170q-29 283 -31 328h-3z" />
    <glyph glyph-name="AE" unicode="&#xc6;" 
d="M650 609h-181l-34 -196h164l-18 -99h-164l-37 -213h187l-17 -101h-297l29 155h-119l-67 -155h-117l336 710h353zM204 249h96l72 384z" />
    <glyph glyph-name="Ccedilla" unicode="&#xc7;" 
d="M611 470l-127 -19q11 174 -115 174q-70 0 -109 -50.5t-59 -166.5l-16 -96q-20 -109 9.5 -168t96.5 -59q64 0 104.5 44t53.5 131l120 -23q-20 -113 -86 -179.5t-175 -73.5l-26 -33q19 14 54 14q31 0 50.5 -20t19.5 -51q0 -44 -37.5 -71.5t-92.5 -27.5q-92 0 -112 63l76 19
q8 -30 40 -30q18 0 31 10.5t13 31.5q0 36 -35 36q-21 0 -35 -15l-47 13l43 62q-113 11 -165 93.5t-27 226.5l18 103q28 156 100 237.5t199 81.5q118 0 180.5 -65t55.5 -192z" />
    <glyph glyph-name="Egrave" unicode="&#xc8;" 
d="M456 770h-99l-131 122h138zM607 710l-18 -101h-304l-35 -196h288l-18 -99h-287l-38 -213h312l-18 -101h-435l125 710h428z" />
    <glyph glyph-name="Eacute" unicode="&#xc9;" 
d="M360 770l92 122h138l-131 -122h-99zM607 710l-18 -101h-304l-35 -196h288l-18 -99h-287l-38 -213h312l-18 -101h-435l125 710h428z" />
    <glyph glyph-name="Ecircumflex" unicode="&#xca;" 
d="M569 770h-93l-58 68l-79 -68h-102l122 122h132zM607 710l-18 -101h-304l-35 -196h288l-18 -99h-287l-38 -213h312l-18 -101h-435l125 710h428z" />
    <glyph glyph-name="Edieresis" unicode="&#xcb;" 
d="M384 892l-22 -124h-122l22 124h122zM597 892l-23 -124h-122l22 124h123zM607 710l-18 -101h-304l-35 -196h288l-18 -99h-287l-38 -213h312l-18 -101h-435l125 710h428z" />
    <glyph glyph-name="Igrave" unicode="&#xcc;" 
d="M446 770h-99l-131 122h138zM601 614h-166l-91 -518h166l-17 -96h-454l17 96h165l91 518h-165l17 96h454z" />
    <glyph glyph-name="Iacute" unicode="&#xcd;" 
d="M580 892l-131 -122h-99l92 122h138zM601 614h-166l-91 -518h166l-17 -96h-454l17 96h165l91 518h-165l17 96h454z" />
    <glyph glyph-name="Icircumflex" unicode="&#xce;" 
d="M408 838l-79 -68h-102l122 122h132l78 -122h-93zM601 614h-166l-91 -518h166l-17 -96h-454l17 96h165l91 518h-165l17 96h454z" />
    <glyph glyph-name="Idieresis" unicode="&#xcf;" 
d="M374 892l-22 -124h-122l22 124h122zM587 892l-23 -124h-122l22 124h123zM601 614h-166l-91 -518h166l-17 -96h-454l17 96h165l91 518h-165l17 96h454z" />
    <glyph glyph-name="Eth" unicode="&#xd0;" 
d="M341 710q125 0 199 -73t74 -218q0 -116 -40 -209t-125 -151.5t-203 -58.5h-224l57 325h-66l15 82h66l53 303h194zM258 98q106 0 168 93t62 221q0 99 -40 149.5t-115 50.5h-80l-36 -205h134l-14 -82h-134l-40 -227h95z" />
    <glyph glyph-name="Ntilde" unicode="&#xd1;" 
d="M323 897q46 0 89.5 -28.5t67.5 -28.5q41 0 57 53l69 -16q-43 -116 -135 -116q-43 0 -83.5 28.5t-67.5 28.5q-49 0 -60 -50l-72 16q19 59 56 86t79 27zM405 275q12 -51 17 -100h4q0 32 11 96l77 439h115l-128 -710h-133l-114 456q-9 37 -15 93h-5q0 -34 -9 -81l-82 -468
h-115l129 710h144z" />
    <glyph glyph-name="Ograve" unicode="&#xd2;" 
d="M432 770h-99l-131 122h138zM283 -17q-139 0 -196 91t-29 254l15 83q26 149 96.5 232.5t204.5 83.5q139 0 196 -91t29 -254l-15 -83q-26 -149 -96.5 -232.5t-204.5 -83.5zM290 84q70 0 109 54.5t60 171.5l15 87q42 229 -107 229q-70 0 -109 -54.5t-60 -170.5l-15 -88
q-40 -229 107 -229z" />
    <glyph glyph-name="Oacute" unicode="&#xd3;" 
d="M336 770l92 122h138l-131 -122h-99zM283 -17q-139 0 -196 91t-29 254l15 83q26 149 96.5 232.5t204.5 83.5q139 0 196 -91t29 -254l-15 -83q-26 -149 -96.5 -232.5t-204.5 -83.5zM290 84q70 0 109 54.5t60 171.5l15 87q42 229 -107 229q-70 0 -109 -54.5t-60 -170.5
l-15 -88q-40 -229 107 -229z" />
    <glyph glyph-name="Ocircumflex" unicode="&#xd4;" 
d="M545 770h-93l-58 68l-79 -68h-102l122 122h132zM283 -17q-139 0 -196 91t-29 254l15 83q26 149 96.5 232.5t204.5 83.5q139 0 196 -91t29 -254l-15 -83q-26 -149 -96.5 -232.5t-204.5 -83.5zM290 84q70 0 109 54.5t60 171.5l15 87q42 229 -107 229q-70 0 -109 -54.5
t-60 -170.5l-15 -88q-40 -229 107 -229z" />
    <glyph glyph-name="Otilde" unicode="&#xd5;" 
d="M320 897q46 0 89.5 -28.5t67.5 -28.5q41 0 57 53l69 -16q-43 -116 -135 -116q-43 0 -83.5 28.5t-67.5 28.5q-49 0 -60 -50l-72 16q19 59 56 86t79 27zM283 -17q-139 0 -196 91t-29 254l15 83q26 149 96.5 232.5t204.5 83.5q139 0 196 -91t29 -254l-15 -83
q-26 -149 -96.5 -232.5t-204.5 -83.5zM290 84q70 0 109 54.5t60 171.5l15 87q42 229 -107 229q-70 0 -109 -54.5t-60 -170.5l-15 -88q-40 -229 107 -229z" />
    <glyph glyph-name="Odieresis" unicode="&#xd6;" 
d="M360 892l-22 -124h-122l22 124h122zM573 892l-23 -124h-122l22 124h123zM283 -17q-139 0 -196 91t-29 254l15 83q26 149 96.5 232.5t204.5 83.5q139 0 196 -91t29 -254l-15 -83q-26 -149 -96.5 -232.5t-204.5 -83.5zM290 84q70 0 109 54.5t60 171.5l15 87
q42 229 -107 229q-70 0 -109 -54.5t-60 -170.5l-15 -88q-40 -229 107 -229z" />
    <glyph glyph-name="multiply" unicode="&#xd7;" 
d="M607 509l-219 -186l150 -181l-75 -65l-150 182l-214 -182l-59 71l214 182l-147 179l76 63l146 -177l218 185z" />
    <glyph glyph-name="Oslash" unicode="&#xd8;" 
d="M652 716l-72 -90q50 -90 23 -244l-15 -83q-26 -149 -96.5 -232.5t-204.5 -83.5q-110 0 -171 59l-61 -76l-47 25l76 95q-48 88 -22 242l15 83q26 149 96.5 232.5t204.5 83.5q111 0 169 -58l59 74zM187 313q-11 -64 -8 -107l291 366q-27 54 -99 54q-70 0 -109 -54.5
t-60 -170.5zM478 397q11 61 8 111l-292 -367q27 -57 100 -57q70 0 109 54.5t60 171.5z" />
    <glyph glyph-name="Ugrave" unicode="&#xd9;" 
d="M446 770h-99l-131 122h138zM142 710h124l-81 -465q-14 -78 15 -118.5t92 -40.5q113 0 135 122l88 502h124l-88 -503q-19 -105 -86 -164.5t-185 -59.5q-124 0 -182 70.5t-36 195.5z" />
    <glyph glyph-name="Uacute" unicode="&#xda;" 
d="M350 770l92 122h138l-131 -122h-99zM142 710h124l-81 -465q-14 -78 15 -118.5t92 -40.5q113 0 135 122l88 502h124l-88 -503q-19 -105 -86 -164.5t-185 -59.5q-124 0 -182 70.5t-36 195.5z" />
    <glyph glyph-name="Ucircumflex" unicode="&#xdb;" 
d="M559 770h-93l-58 68l-79 -68h-102l122 122h132zM142 710h124l-81 -465q-14 -78 15 -118.5t92 -40.5q113 0 135 122l88 502h124l-88 -503q-19 -105 -86 -164.5t-185 -59.5q-124 0 -182 70.5t-36 195.5z" />
    <glyph glyph-name="Udieresis" unicode="&#xdc;" 
d="M374 892l-22 -124h-122l22 124h122zM587 892l-23 -124h-122l22 124h123zM142 710h124l-81 -465q-14 -78 15 -118.5t92 -40.5q113 0 135 122l88 502h124l-88 -503q-19 -105 -86 -164.5t-185 -59.5q-124 0 -182 70.5t-36 195.5z" />
    <glyph glyph-name="Yacute" unicode="&#xdd;" 
d="M350 770l92 122h138l-131 -122h-99zM377 277l-49 -277h-123l49 277l-145 433h132l90 -330l205 330h137z" />
    <glyph glyph-name="Thorn" unicode="&#xde;" 
d="M59 0l125 710h121l-19 -113h107q59 0 102.5 -16.5t66 -44.5t32.5 -58t10 -63q0 -40 -13.5 -77t-42.5 -71.5t-84 -55t-130 -20.5h-120l-34 -191h-121zM230 284h111q42 0 71 11.5t42.5 31.5t18.5 38.5t5 40.5q0 97 -112 97h-97z" />
    <glyph glyph-name="germandbls" unicode="&#xdf;" 
d="M225 -5l16 90h39q73 0 115 39.5t42 105.5q0 116 -136 123h-1l14 91h2q62 2 97 33.5t35 81.5q0 38 -21.5 60t-60.5 22q-86 0 -105 -111l-94 -530h-118l91 517q38 210 237 210q90 0 143.5 -44.5t53.5 -117.5q0 -64 -43 -109t-115 -59q70 -14 107.5 -59t37.5 -116
q0 -103 -77 -165t-208 -62h-51z" />
    <glyph glyph-name="agrave" unicode="&#xe0;" 
d="M403 572h-96l-145 151h133zM501 153q-16 -100 -13 -153h-117q0 46 5 89q-49 -101 -171 -101q-69 0 -112 37.5t-43 98.5q0 91 78 134q51 29 155 37l124 11l2 17q4 15 4 31q0 73 -82 73q-89 0 -106 -83h-121q12 80 74.5 124t160.5 44q190 0 190 -161q0 -23 -5 -60zM397 240
l-93 -8q-128 -9 -128 -92q0 -32 19.5 -49.5t56.5 -17.5q54 0 91 36t48 96z" />
    <glyph glyph-name="aacute" unicode="&#xe1;" 
d="M307 572l108 151h133l-145 -151h-96zM501 153q-16 -100 -13 -153h-117q0 46 5 89q-49 -101 -171 -101q-69 0 -112 37.5t-43 98.5q0 91 78 134q51 29 155 37l124 11l2 17q4 15 4 31q0 73 -82 73q-89 0 -106 -83h-121q12 80 74.5 124t160.5 44q190 0 190 -161q0 -23 -5 -60
zM397 240l-93 -8q-128 -9 -128 -92q0 -32 19.5 -49.5t56.5 -17.5q54 0 91 36t48 96z" />
    <glyph glyph-name="acircumflex" unicode="&#xe2;" 
d="M514 572h-88l-53 101l-84 -101h-100l129 151h122zM501 153q-16 -100 -13 -153h-117q0 46 5 89q-49 -101 -171 -101q-69 0 -112 37.5t-43 98.5q0 91 78 134q51 29 155 37l124 11l2 17q4 15 4 31q0 73 -82 73q-89 0 -106 -83h-121q12 80 74.5 124t160.5 44q190 0 190 -161
q0 -23 -5 -60zM397 240l-93 -8q-128 -9 -128 -92q0 -32 19.5 -49.5t56.5 -17.5q54 0 91 36t48 96z" />
    <glyph glyph-name="atilde" unicode="&#xe3;" 
d="M294 728q36 0 63.5 -15.5t48.5 -31t43 -15.5q42 0 56 59l69 -17q-42 -127 -134 -127q-43 0 -84 30.5t-69 30.5q-21 0 -36 -14t-20 -40l-70 16q19 65 55 94.5t78 29.5zM501 153q-16 -100 -13 -153h-117q0 46 5 89q-49 -101 -171 -101q-69 0 -112 37.5t-43 98.5
q0 91 78 134q51 29 155 37l124 11l2 17q4 15 4 31q0 73 -82 73q-89 0 -106 -83h-121q12 80 74.5 124t160.5 44q190 0 190 -161q0 -23 -5 -60zM397 240l-93 -8q-128 -9 -128 -92q0 -32 19.5 -49.5t56.5 -17.5q54 0 91 36t48 96z" />
    <glyph glyph-name="adieresis" unicode="&#xe4;" 
d="M342 723l-24 -135h-134l24 135h134zM548 723l-23 -135h-135l24 135h134zM501 153q-16 -100 -13 -153h-117q0 46 5 89q-49 -101 -171 -101q-69 0 -112 37.5t-43 98.5q0 91 78 134q51 29 155 37l124 11l2 17q4 15 4 31q0 73 -82 73q-89 0 -106 -83h-121q12 80 74.5 124
t160.5 44q190 0 190 -161q0 -23 -5 -60zM397 240l-93 -8q-128 -9 -128 -92q0 -32 19.5 -49.5t56.5 -17.5q54 0 91 36t48 96z" />
    <glyph glyph-name="aring" unicode="&#xe5;" 
d="M479 665q0 -50 -33.5 -83t-89.5 -33q-44 0 -73 27.5t-29 67.5q0 52 35 84t88 32q44 0 73 -27.5t29 -67.5zM318 648q0 -19 12 -32t33 -13q24 0 38 16.5t14 40.5q0 20 -11.5 33t-32.5 13q-24 0 -38.5 -15t-14.5 -43zM501 153q-16 -100 -13 -153h-117q0 46 5 89
q-49 -101 -171 -101q-69 0 -112 37.5t-43 98.5q0 91 78 134q51 29 155 37l124 11l2 17q4 15 4 31q0 73 -82 73q-89 0 -106 -83h-121q12 80 74.5 124t160.5 44q190 0 190 -161q0 -23 -5 -60zM397 240l-93 -8q-128 -9 -128 -92q0 -32 19.5 -49.5t56.5 -17.5q54 0 91 36t48 96z
" />
    <glyph glyph-name="ae" unicode="&#xe6;" 
d="M471 510q68 0 106.5 -37.5t38.5 -105.5q0 -20 -5 -50l-15 -84h-239l-11 -60q-3 -15 -3 -27q0 -34 17.5 -53t45.5 -19q69 0 85 94l3 13l92 -21l-1 -4q-13 -79 -59.5 -123.5t-122.5 -44.5q-91 0 -130 72q-50 -71 -143 -71q-58 0 -95 32t-37 96q0 138 180 168l91 15l10 49
q3 13 3 26q0 27 -15.5 42t-42.5 15q-33 0 -54.5 -24t-25.5 -69l-2 -8h-98l1 4q7 80 59 127.5t130 47.5q76 0 112 -46q51 46 125 46zM510 331q3 21 3 35q0 66 -55 66q-68 0 -84 -102l-6 -31h136zM155 67q32 0 56.5 21.5t31.5 58.5l16 90l-58 -11q-98 -19 -98 -98
q0 -61 52 -61z" />
    <glyph glyph-name="ccedilla" unicode="&#xe7;" 
d="M300 83q47 0 75.5 29.5t38.5 77.5l113 -22q-19 -78 -72 -126t-138 -53l-30 -38q19 14 54 14q31 0 50.5 -20t19.5 -51q0 -44 -37.5 -71.5t-92.5 -27.5q-92 0 -112 63l76 19q8 -30 40 -30q18 0 31 10.5t13 31.5q0 36 -35 36q-22 0 -35 -15l-47 13l47 67q-81 10 -135 62.5
t-54 160.5q0 53 14 102.5t44 95.5t84.5 73.5t126.5 27.5q91 0 151 -44.5t63 -135.5l-115 -19q-2 57 -30.5 81.5t-70.5 24.5q-40 0 -69.5 -19.5t-45 -51.5t-23 -65.5t-7.5 -68.5q0 -70 31 -100.5t77 -30.5z" />
    <glyph glyph-name="egrave" unicode="&#xe8;" 
d="M407 572h-96l-145 151h133zM189 223v-2q-2 -67 29.5 -103t88.5 -36q84 0 127 79l85 -46q-73 -127 -222 -127q-106 0 -163 59.5t-57 169.5q0 123 69.5 209t197.5 86q99 0 153.5 -54t54.5 -146q0 -37 -13 -89h-350zM335 430q-55 0 -90.5 -34.5t-47.5 -96.5h238q3 14 3 30
q0 49 -28 75t-75 26z" />
    <glyph glyph-name="eacute" unicode="&#xe9;" 
d="M552 723l-145 -151h-96l108 151h133zM344 512q99 0 153.5 -54t54.5 -146q0 -37 -13 -89h-350v-2q-2 -67 29.5 -103t88.5 -36q84 0 127 79l85 -46q-73 -127 -222 -127q-106 0 -163 59.5t-57 169.5q0 123 69.5 209t197.5 86zM435 299q3 14 3 30q0 49 -28 75t-75 26
q-55 0 -90.5 -34.5t-47.5 -96.5h238z" />
    <glyph glyph-name="ecircumflex" unicode="&#xea;" 
d="M377 673l-84 -101h-100l129 151h122l74 -151h-88zM189 223v-2q-2 -67 29.5 -103t88.5 -36q84 0 127 79l85 -46q-73 -127 -222 -127q-106 0 -163 59.5t-57 169.5q0 123 69.5 209t197.5 86q99 0 153.5 -54t54.5 -146q0 -37 -13 -89h-350zM335 430q-55 0 -90.5 -34.5
t-47.5 -96.5h238q3 14 3 30q0 49 -28 75t-75 26z" />
    <glyph glyph-name="edieresis" unicode="&#xeb;" 
d="M346 723l-24 -135h-134l24 135h134zM552 723l-23 -135h-135l24 135h134zM344 512q99 0 153.5 -54t54.5 -146q0 -37 -13 -89h-350v-2q-2 -67 29.5 -103t88.5 -36q84 0 127 79l85 -46q-73 -127 -222 -127q-106 0 -163 59.5t-57 169.5q0 123 69.5 209t197.5 86zM435 299
q3 14 3 30q0 49 -28 75t-75 26q-55 0 -90.5 -34.5t-47.5 -96.5h238z" />
    <glyph glyph-name="igrave" unicode="&#xec;" 
d="M414 572h-96l-145 151h133zM63 0l16 90h155l57 320h-141l16 90h258l-72 -410h163l-15 -90h-437z" />
    <glyph glyph-name="iacute" unicode="&#xed;" 
d="M318 572l108 151h133l-145 -151h-96zM63 0l16 90h155l57 320h-141l16 90h258l-72 -410h163l-15 -90h-437z" />
    <glyph glyph-name="icircumflex" unicode="&#xee;" 
d="M525 572h-88l-53 101l-84 -101h-100l129 151h122zM63 0l16 90h155l57 320h-141l16 90h258l-72 -410h163l-15 -90h-437z" />
    <glyph glyph-name="idieresis" unicode="&#xef;" 
d="M353 723l-24 -135h-134l24 135h134zM559 723l-23 -135h-135l24 135h134zM63 0l16 90h155l57 320h-141l16 90h258l-72 -410h163l-15 -90h-437z" />
    <glyph glyph-name="eth" unicode="&#xf0;" 
d="M566 627l-72 -21q69 -114 69 -271q0 -172 -74 -260t-197 -88q-108 0 -166 64t-58 171q0 116 60.5 201.5t169.5 85.5q58 0 95 -24.5t51 -55.5q-11 78 -59 145l-145 -43l-10 52l116 34q-27 25 -63 49l101 56q43 -28 77 -70l95 28zM301 80q35 0 61.5 17.5t41 46.5t21 61
t6.5 67q0 72 -28 110t-81 38q-39 0 -66.5 -20t-40 -52t-18 -61t-5.5 -58q0 -68 27 -108.5t82 -40.5z" />
    <glyph glyph-name="ntilde" unicode="&#xf1;" 
d="M302 728q36 0 63.5 -15.5t48.5 -31t43 -15.5q42 0 56 59l69 -17q-42 -127 -134 -127q-43 0 -84 30.5t-69 30.5q-45 0 -56 -54l-70 16q19 65 55 94.5t78 29.5zM230 403q27 51 72 80t101 29q71 0 110 -41q33 -35 33 -94q0 -27 -6 -63l-55 -314h-118l54 305q3 29 3 32
q0 78 -79 78q-107 0 -133 -143l-48 -272h-117l88 500h112z" />
    <glyph glyph-name="ograve" unicode="&#xf2;" 
d="M402 572h-96l-145 151h133zM283 -12q-109 0 -165.5 59t-56.5 158q0 139 77.5 223t195.5 84q113 0 169 -56t56 -154q0 -144 -77 -229t-199 -85zM285 80q75 0 113 58.5t38 163.5q0 55 -26.5 86.5t-76.5 31.5q-73 0 -111 -58t-38 -157q0 -56 26.5 -90.5t74.5 -34.5z" />
    <glyph glyph-name="oacute" unicode="&#xf3;" 
d="M306 572l108 151h133l-145 -151h-96zM283 -12q-109 0 -165.5 59t-56.5 158q0 139 77.5 223t195.5 84q113 0 169 -56t56 -154q0 -144 -77 -229t-199 -85zM285 80q75 0 113 58.5t38 163.5q0 55 -26.5 86.5t-76.5 31.5q-73 0 -111 -58t-38 -157q0 -56 26.5 -90.5t74.5 -34.5
z" />
    <glyph glyph-name="ocircumflex" unicode="&#xf4;" 
d="M513 572h-88l-53 101l-84 -101h-100l129 151h122zM283 -12q-109 0 -165.5 59t-56.5 158q0 139 77.5 223t195.5 84q113 0 169 -56t56 -154q0 -144 -77 -229t-199 -85zM285 80q75 0 113 58.5t38 163.5q0 55 -26.5 86.5t-76.5 31.5q-73 0 -111 -58t-38 -157
q0 -56 26.5 -90.5t74.5 -34.5z" />
    <glyph glyph-name="otilde" unicode="&#xf5;" 
d="M293 728q36 0 63.5 -15.5t48.5 -31t43 -15.5q42 0 56 59l69 -17q-42 -127 -134 -127q-43 0 -84 30.5t-69 30.5q-21 0 -36 -14t-20 -40l-70 16q19 65 55 94.5t78 29.5zM283 -12q-109 0 -165.5 59t-56.5 158q0 139 77.5 223t195.5 84q113 0 169 -56t56 -154
q0 -144 -77 -229t-199 -85zM285 80q75 0 113 58.5t38 163.5q0 55 -26.5 86.5t-76.5 31.5q-73 0 -111 -58t-38 -157q0 -56 26.5 -90.5t74.5 -34.5z" />
    <glyph glyph-name="odieresis" unicode="&#xf6;" 
d="M341 723l-24 -135h-134l24 135h134zM547 723l-23 -135h-135l24 135h134zM283 -12q-109 0 -165.5 59t-56.5 158q0 139 77.5 223t195.5 84q113 0 169 -56t56 -154q0 -144 -77 -229t-199 -85zM285 80q75 0 113 58.5t38 163.5q0 55 -26.5 86.5t-76.5 31.5q-73 0 -111 -58
t-38 -157q0 -56 26.5 -90.5t74.5 -34.5z" />
    <glyph glyph-name="divide" unicode="&#xf7;" 
d="M357 450q-26 0 -43.5 16.5t-17.5 42.5q0 27 17.5 43.5t43.5 16.5t43.5 -16.5t17.5 -43.5q0 -26 -17.5 -42.5t-43.5 -16.5zM79 282l16 90h473l-15 -90h-474zM289 83q-26 0 -43.5 17t-17.5 43q0 27 17.5 43.5t43.5 16.5t43.5 -16.5t17.5 -43.5q0 -26 -17.5 -43t-43.5 -17z
" />
    <glyph glyph-name="oslash" unicode="&#xf8;" 
d="M574 484l-50 -51q36 -53 36 -131q0 -144 -77 -229t-199 -85q-93 0 -150 45l-48 -50l-39 30l54 55q-39 56 -39 137q0 139 77.5 223t195.5 84q97 0 155 -44l45 47zM185 205q0 -22 5 -45l221 228q-27 32 -77 32q-73 0 -111 -58t-38 -157zM437 302q0 22 -4 38l-220 -227
q25 -33 73 -33q75 0 113 58.5t38 163.5z" />
    <glyph glyph-name="ugrave" unicode="&#xf9;" 
d="M404 572h-96l-145 151h133zM382 95q-24 -48 -68.5 -77.5t-101.5 -29.5q-71 0 -110 42q-45 50 -25 155l55 315h117l-53 -306q-20 -111 71 -111q107 0 132 142l48 275h118l-88 -500h-111z" />
    <glyph glyph-name="uacute" unicode="&#xfa;" 
d="M308 572l108 151h133l-145 -151h-96zM382 95q-24 -48 -68.5 -77.5t-101.5 -29.5q-71 0 -110 42q-45 50 -25 155l55 315h117l-53 -306q-20 -111 71 -111q107 0 132 142l48 275h118l-88 -500h-111z" />
    <glyph glyph-name="ucircumflex" unicode="&#xfb;" 
d="M515 572h-88l-53 101l-84 -101h-100l129 151h122zM382 95q-24 -48 -68.5 -77.5t-101.5 -29.5q-71 0 -110 42q-45 50 -25 155l55 315h117l-53 -306q-20 -111 71 -111q107 0 132 142l48 275h118l-88 -500h-111z" />
    <glyph glyph-name="udieresis" unicode="&#xfc;" 
d="M343 723l-24 -135h-134l24 135h134zM549 723l-23 -135h-135l24 135h134zM382 95q-24 -48 -68.5 -77.5t-101.5 -29.5q-71 0 -110 42q-45 50 -25 155l55 315h117l-53 -306q-20 -111 71 -111q107 0 132 142l48 275h118l-88 -500h-111z" />
    <glyph glyph-name="yacute" unicode="&#xfd;" 
d="M313 572l108 151h133l-145 -151h-96zM243 500l53 -384l186 384h124l-300 -557q-48 -88 -101 -116t-129 -28q-24 0 -58 6l16 94q21 -5 49 -5q42 0 68 18t48 61l15 30l-101 497h130z" />
    <glyph glyph-name="thorn" unicode="&#xfe;" 
d="M300 725l-55 -311q27 45 70.5 71.5t92.5 26.5q82 0 123.5 -60t41.5 -146q0 -135 -67 -226.5t-181 -91.5q-45 0 -85 21t-55 63l-47 -267h-118l163 920h117zM211 230q-12 -67 13.5 -108.5t79.5 -41.5q70 0 108 63t38 152q0 53 -23.5 89t-72.5 36q-53 0 -89 -40t-48 -110z
" />
    <glyph glyph-name="ydieresis" unicode="&#xff;" 
d="M348 723l-24 -135h-134l24 135h134zM554 723l-23 -135h-135l24 135h134zM243 500l53 -384l186 384h124l-300 -557q-48 -88 -101 -116t-129 -28q-24 0 -58 6l16 94q21 -5 49 -5q42 0 68 18t48 61l15 30l-101 497h130z" />
    <glyph glyph-name="Amacron" unicode="&#x100;" 
d="M243 849h323l-14 -81h-324zM312 710h142l97 -710h-120l-20 181h-227l-82 -181h-121zM365 608q-47 -132 -136 -328h170q-29 283 -31 328h-3z" />
    <glyph glyph-name="amacron" unicode="&#x101;" 
d="M199 588l14 82h315l-14 -82h-315zM501 153q-16 -100 -13 -153h-117q0 46 5 89q-49 -101 -171 -101q-69 0 -112 37.5t-43 98.5q0 91 78 134q51 29 155 37l124 11l2 17q4 15 4 31q0 73 -82 73q-89 0 -106 -83h-121q12 80 74.5 124t160.5 44q190 0 190 -161q0 -23 -5 -60z
M397 240l-93 -8q-128 -9 -128 -92q0 -32 19.5 -49.5t56.5 -17.5q54 0 91 36t48 96z" />
    <glyph glyph-name="Abreve" unicode="&#x102;" 
d="M389 763q-69 0 -113 30t-39 99h91q-1 -31 17.5 -44t49.5 -13q71 0 86 57h95q-21 -71 -72.5 -100t-114.5 -29zM312 710h142l97 -710h-120l-20 181h-227l-82 -181h-121zM365 608q-47 -132 -136 -328h170q-29 283 -31 328h-3z" />
    <glyph glyph-name="abreve" unicode="&#x103;" 
d="M293 723q-3 -40 14 -61.5t50 -21.5t56 21t27 62h90q-15 -83 -63.5 -119.5t-113.5 -36.5q-73 0 -115 38t-36 118h91zM501 153q-16 -100 -13 -153h-117q0 46 5 89q-49 -101 -171 -101q-69 0 -112 37.5t-43 98.5q0 91 78 134q51 29 155 37l124 11l2 17q4 15 4 31
q0 73 -82 73q-89 0 -106 -83h-121q12 80 74.5 124t160.5 44q190 0 190 -161q0 -23 -5 -60zM397 240l-93 -8q-128 -9 -128 -92q0 -32 19.5 -49.5t56.5 -17.5q54 0 91 36t48 96z" />
    <glyph glyph-name="Aogonek" unicode="&#x104;" 
d="M500 -104l65 -17q-26 -84 -124 -84q-47 0 -79 21t-32 62q0 76 112 122h-11l-20 181h-227l-82 -181h-121l331 710h142l97 -710q-75 -22 -106.5 -48.5t-31.5 -61.5q0 -17 9.5 -28t25.5 -11q35 0 52 45zM365 608q-47 -132 -136 -328h170q-29 283 -31 328h-3z" />
    <glyph glyph-name="aogonek" unicode="&#x105;" 
d="M524 291l-23 -138q-16 -100 -13 -153q-75 -22 -106.5 -48.5t-31.5 -61.5q0 -17 9.5 -28t25.5 -11q35 0 52 45l65 -17q-26 -84 -124 -84q-47 0 -79 21t-32 62q0 76 112 122h-8q0 46 5 89q-49 -101 -171 -101q-69 0 -112 37.5t-43 98.5q0 91 78 134q51 29 155 37l124 11
l2 17q4 15 4 31q0 73 -82 73q-89 0 -106 -83h-121q12 80 74.5 124t160.5 44q190 0 190 -161q0 -23 -5 -60zM252 73q54 0 91 36t48 96l6 35l-93 -8q-128 -9 -128 -92q0 -32 19.5 -49.5t56.5 -17.5z" />
    <glyph glyph-name="Cacute" unicode="&#x106;" 
d="M344 770l92 122h138l-131 -122h-99zM284 -17q-130 0 -191.5 83.5t-34.5 238.5l18 103q28 156 100 237.5t199 81.5q118 0 180.5 -65t55.5 -192l-127 -19q11 174 -115 174q-70 0 -109 -50.5t-59 -166.5l-16 -96q-20 -109 9.5 -168t96.5 -59q64 0 104.5 44t53.5 131l120 -23
q-21 -119 -93 -186.5t-192 -67.5z" />
    <glyph glyph-name="cacute" unicode="&#x107;" 
d="M313 572l108 151h133l-145 -151h-96zM296 -12q-42 0 -79.5 11t-71.5 35t-54.5 70t-20.5 109q0 53 14 102.5t44 95.5t84.5 73.5t126.5 27.5q91 0 151 -44.5t63 -135.5l-115 -19q-2 57 -30.5 81.5t-70.5 24.5q-40 0 -69.5 -19.5t-45 -51.5t-23 -65.5t-7.5 -68.5
q0 -70 31 -100.5t77 -30.5q47 0 75.5 29.5t38.5 77.5l113 -22q-20 -83 -78.5 -131.5t-152.5 -48.5z" />
    <glyph glyph-name="Ccircumflex" unicode="&#x108;" 
d="M553 770h-93l-58 68l-79 -68h-102l122 122h132zM284 -17q-130 0 -191.5 83.5t-34.5 238.5l18 103q28 156 100 237.5t199 81.5q118 0 180.5 -65t55.5 -192l-127 -19q11 174 -115 174q-70 0 -109 -50.5t-59 -166.5l-16 -96q-20 -109 9.5 -168t96.5 -59q64 0 104.5 44
t53.5 131l120 -23q-21 -119 -93 -186.5t-192 -67.5z" />
    <glyph glyph-name="ccircumflex" unicode="&#x109;" 
d="M520 572h-88l-53 101l-84 -101h-100l129 151h122zM296 -12q-42 0 -79.5 11t-71.5 35t-54.5 70t-20.5 109q0 53 14 102.5t44 95.5t84.5 73.5t126.5 27.5q91 0 151 -44.5t63 -135.5l-115 -19q-2 57 -30.5 81.5t-70.5 24.5q-40 0 -69.5 -19.5t-45 -51.5t-23 -65.5
t-7.5 -68.5q0 -70 31 -100.5t77 -30.5q47 0 75.5 29.5t38.5 77.5l113 -22q-20 -83 -78.5 -131.5t-152.5 -48.5z" />
    <glyph glyph-name="Cdotaccent" unicode="&#x10a;" 
d="M478 892l-22 -124h-130l22 124h130zM284 -17q-130 0 -191.5 83.5t-34.5 238.5l18 103q28 156 100 237.5t199 81.5q118 0 180.5 -65t55.5 -192l-127 -19q11 174 -115 174q-70 0 -109 -50.5t-59 -166.5l-16 -96q-20 -109 9.5 -168t96.5 -59q64 0 104.5 44t53.5 131l120 -23
q-21 -119 -93 -186.5t-192 -67.5z" />
    <glyph glyph-name="cdotaccent" unicode="&#x10b;" 
d="M462 725l-24 -138h-145l24 138h145zM296 -12q-42 0 -79.5 11t-71.5 35t-54.5 70t-20.5 109q0 53 14 102.5t44 95.5t84.5 73.5t126.5 27.5q91 0 151 -44.5t63 -135.5l-115 -19q-2 57 -30.5 81.5t-70.5 24.5q-40 0 -69.5 -19.5t-45 -51.5t-23 -65.5t-7.5 -68.5
q0 -70 31 -100.5t77 -30.5q47 0 75.5 29.5t38.5 77.5l113 -22q-20 -83 -78.5 -131.5t-152.5 -48.5z" />
    <glyph glyph-name="Ccaron" unicode="&#x10c;" 
d="M246 892h93l58 -68l79 68h102l-122 -122h-132zM284 -17q-130 0 -191.5 83.5t-34.5 238.5l18 103q28 156 100 237.5t199 81.5q118 0 180.5 -65t55.5 -192l-127 -19q11 174 -115 174q-70 0 -109 -50.5t-59 -166.5l-16 -96q-20 -109 9.5 -168t96.5 -59q64 0 104.5 44
t53.5 131l120 -23q-21 -119 -93 -186.5t-192 -67.5z" />
    <glyph glyph-name="ccaron" unicode="&#x10d;" 
d="M222 723h88l53 -101l84 101h100l-129 -151h-122zM296 -12q-42 0 -79.5 11t-71.5 35t-54.5 70t-20.5 109q0 53 14 102.5t44 95.5t84.5 73.5t126.5 27.5q91 0 151 -44.5t63 -135.5l-115 -19q-2 57 -30.5 81.5t-70.5 24.5q-40 0 -69.5 -19.5t-45 -51.5t-23 -65.5t-7.5 -68.5
q0 -70 31 -100.5t77 -30.5q47 0 75.5 29.5t38.5 77.5l113 -22q-20 -83 -78.5 -131.5t-152.5 -48.5z" />
    <glyph glyph-name="Dcaron" unicode="&#x10e;" 
d="M219 892h93l58 -68l79 68h102l-122 -122h-132zM22 0l125 710h194q125 0 199 -73t74 -218q0 -116 -40 -209t-125 -151.5t-203 -58.5h-224zM163 98h95q106 0 168 93t62 221q0 99 -40 149.5t-115 50.5h-80z" />
    <glyph glyph-name="dcaron" unicode="&#x10f;" 
d="M189 -12q-74 0 -112.5 57t-38.5 144q0 136 62 229.5t167 93.5q40 0 74 -20.5t46 -60.5l52 294h112l-128 -725h-105l15 90q-16 -48 -57 -75t-87 -27zM580 495l-17 50q30 11 41 26t16 45h-50l19 109h109l-18 -102q-16 -98 -100 -128zM237 80q91 0 117 148l8 44
q11 67 -10.5 107.5t-67.5 40.5q-42 0 -72.5 -33.5t-43.5 -82t-13 -106.5q0 -51 21 -84.5t61 -33.5z" />
    <glyph glyph-name="Dcroat" unicode="&#x110;" 
d="M341 710q125 0 199 -73t74 -218q0 -116 -40 -209t-125 -151.5t-203 -58.5h-224l57 325h-66l15 82h66l53 303h194zM258 98q106 0 168 93t62 221q0 99 -40 149.5t-115 50.5h-80l-36 -205h134l-14 -82h-134l-40 -227h95z" />
    <glyph glyph-name="dcroat" unicode="&#x111;" 
d="M651 633l-9 -54h-64l-102 -579h-111l15 90q-52 -102 -166 -102q-82 0 -125 57.5t-43 143.5q0 136 67 229.5t181 93.5q46 0 85.5 -20t54.5 -64l26 151h-251l10 54h251l16 92h118l-16 -92h63zM408 270q13 67 -13 108.5t-80 41.5q-70 0 -108 -66t-38 -156q0 -51 24.5 -84.5
t72.5 -33.5q52 0 86.5 39.5t48.5 110.5z" />
    <glyph glyph-name="Emacron" unicode="&#x112;" 
d="M245 768l15 81h323l-14 -81h-324zM607 710l-18 -101h-304l-35 -196h288l-18 -99h-287l-38 -213h312l-18 -101h-435l125 710h428z" />
    <glyph glyph-name="emacron" unicode="&#x113;" 
d="M532 670l-14 -82h-315l14 82h315zM189 223v-2q-2 -67 29.5 -103t88.5 -36q84 0 127 79l85 -46q-73 -127 -222 -127q-106 0 -163 59.5t-57 169.5q0 123 69.5 209t197.5 86q99 0 153.5 -54t54.5 -146q0 -37 -13 -89h-350zM335 430q-55 0 -90.5 -34.5t-47.5 -96.5h238
q3 14 3 30q0 49 -28 75t-75 26z" />
    <glyph glyph-name="Ebreve" unicode="&#x114;" 
d="M345 892q-1 -31 17.5 -44t49.5 -13q71 0 86 57h95q-21 -71 -72.5 -100t-114.5 -29q-69 0 -113 30t-39 99h91zM607 710l-18 -101h-304l-35 -196h288l-18 -99h-287l-38 -213h312l-18 -101h-435l125 710h428z" />
    <glyph glyph-name="ebreve" unicode="&#x115;" 
d="M357 567q-73 0 -115 38t-36 118h91q-3 -40 14 -61.5t50 -21.5t56 21t27 62h90q-15 -83 -63.5 -119.5t-113.5 -36.5zM189 223v-2q-2 -67 29.5 -103t88.5 -36q84 0 127 79l85 -46q-73 -127 -222 -127q-106 0 -163 59.5t-57 169.5q0 123 69.5 209t197.5 86q99 0 153.5 -54
t54.5 -146q0 -37 -13 -89h-350zM335 430q-55 0 -90.5 -34.5t-47.5 -96.5h238q3 14 3 30q0 49 -28 75t-75 26z" />
    <glyph glyph-name="Edotaccent" unicode="&#x116;" 
d="M494 892l-22 -124h-130l22 124h130zM607 710l-18 -101h-304l-35 -196h288l-18 -99h-287l-38 -213h312l-18 -101h-435l125 710h428z" />
    <glyph glyph-name="edotaccent" unicode="&#x117;" 
d="M460 725l-24 -138h-145l24 138h145zM189 223v-2q-2 -67 29.5 -103t88.5 -36q84 0 127 79l85 -46q-73 -127 -222 -127q-106 0 -163 59.5t-57 169.5q0 123 69.5 209t197.5 86q99 0 153.5 -54t54.5 -146q0 -37 -13 -89h-350zM335 430q-55 0 -90.5 -34.5t-47.5 -96.5h238
q3 14 3 30q0 49 -28 75t-75 26z" />
    <glyph glyph-name="Eogonek" unicode="&#x118;" 
d="M589 609h-304l-35 -196h288l-18 -99h-287l-38 -213h312l-18 -101h-1q-75 -22 -106.5 -48.5t-31.5 -61.5q0 -17 9.5 -28t25.5 -11q35 0 52 45l65 -17q-26 -84 -124 -84q-47 0 -79 21t-32 62q0 76 112 122h-325l125 710h428z" />
    <glyph glyph-name="eogonek" unicode="&#x119;" 
d="M189 223v-2q-2 -67 29.5 -103t88.5 -36q84 0 127 79l85 -46q-55 -96 -154 -119q-67 -21 -95 -46.5t-28 -59.5q0 -17 9.5 -28t25.5 -11q35 0 52 45l65 -17q-26 -84 -124 -84q-47 0 -79 21t-32 62q0 70 92 113q-85 13 -129.5 71t-44.5 155q0 123 69.5 209t197.5 86
q99 0 153.5 -54t54.5 -146q0 -37 -13 -89h-350zM335 430q-55 0 -90.5 -34.5t-47.5 -96.5h238q3 14 3 30q0 49 -28 75t-75 26z" />
    <glyph glyph-name="Ecaron" unicode="&#x11a;" 
d="M262 892h93l58 -68l79 68h102l-122 -122h-132zM607 710l-18 -101h-304l-35 -196h288l-18 -99h-287l-38 -213h312l-18 -101h-435l125 710h428z" />
    <glyph glyph-name="ecaron" unicode="&#x11b;" 
d="M416 572h-122l-74 151h88l53 -101l84 101h100zM189 223v-2q-2 -67 29.5 -103t88.5 -36q84 0 127 79l85 -46q-73 -127 -222 -127q-106 0 -163 59.5t-57 169.5q0 123 69.5 209t197.5 86q99 0 153.5 -54t54.5 -146q0 -37 -13 -89h-350zM335 430q-55 0 -90.5 -34.5
t-47.5 -96.5h238q3 14 3 30q0 49 -28 75t-75 26z" />
    <glyph glyph-name="Gcircumflex" unicode="&#x11c;" 
d="M557 770h-93l-58 68l-79 -68h-102l122 122h132zM248 -17q-114 0 -162.5 89.5t-26.5 232.5l16 100q24 156 97.5 239t195.5 83q65 0 113.5 -19t74.5 -51.5t37.5 -70.5t11.5 -81l-126 -20q2 63 -25.5 103t-90.5 40q-67 0 -107 -54t-57 -184l-12 -79q-15 -114 9.5 -171
t94.5 -57q73 0 111.5 49t50.5 118l6 35h-154l16 93h264l-66 -378h-85l7 104q-21 -57 -71 -89t-122 -32z" />
    <glyph glyph-name="gcircumflex" unicode="&#x11d;" 
d="M384 677l-89 -87h-96l129 133h121l75 -133h-84zM596 582q11 0 31 -2l-16 -90q-18 4 -42 4q-55 0 -81 -32q41 -39 41 -105q0 -81 -58.5 -132t-162.5 -51q-60 0 -105 20q-34 -13 -34 -44q0 -43 67 -44l117 -1q165 -1 165 -127q0 -87 -75 -135.5t-207 -48.5
q-104 0 -166.5 30.5t-62.5 92.5q0 41 29 68.5t77 38.5q-48 24 -48 79q0 43 27.5 72t75.5 40q-52 39 -52 114q0 81 58.5 132t162.5 51q63 0 106 -20q17 39 58.5 64.5t94.5 25.5zM317 249q46 0 72.5 28.5t26.5 73.5q0 43 -24 64.5t-64 21.5q-46 0 -72.5 -28t-26.5 -73
q0 -44 24 -65.5t64 -21.5zM321 6l-124 1q-11 0 -31 2q-45 -18 -45 -61q0 -75 136 -75q143 0 143 78q0 55 -79 55z" />
    <glyph glyph-name="Gbreve" unicode="&#x11e;" 
d="M333 892q-1 -31 17.5 -44t49.5 -13q71 0 86 57h95q-21 -71 -72.5 -100t-114.5 -29q-69 0 -113 30t-39 99h91zM248 -17q-114 0 -162.5 89.5t-26.5 232.5l16 100q24 156 97.5 239t195.5 83q65 0 113.5 -19t74.5 -51.5t37.5 -70.5t11.5 -81l-126 -20q2 63 -25.5 103
t-90.5 40q-67 0 -107 -54t-57 -184l-12 -79q-15 -114 9.5 -171t94.5 -57q73 0 111.5 49t50.5 118l6 35h-154l16 93h264l-66 -378h-85l7 104q-21 -57 -71 -89t-122 -32z" />
    <glyph glyph-name="gbreve" unicode="&#x11f;" 
d="M349 567q-73 0 -115 38t-36 118h91q-3 -40 14 -61.5t50 -21.5t56 21t27 62h90q-15 -83 -63.5 -119.5t-113.5 -36.5zM596 582q11 0 31 -2l-16 -90q-18 4 -42 4q-55 0 -81 -32q41 -39 41 -105q0 -81 -58.5 -132t-162.5 -51q-60 0 -105 20q-34 -13 -34 -44q0 -43 67 -44
l117 -1q165 -1 165 -127q0 -87 -75 -135.5t-207 -48.5q-104 0 -166.5 30.5t-62.5 92.5q0 41 29 68.5t77 38.5q-48 24 -48 79q0 43 27.5 72t75.5 40q-52 39 -52 114q0 81 58.5 132t162.5 51q63 0 106 -20q17 39 58.5 64.5t94.5 25.5zM317 249q46 0 72.5 28.5t26.5 73.5
q0 43 -24 64.5t-64 21.5q-46 0 -72.5 -28t-26.5 -73q0 -44 24 -65.5t64 -21.5zM321 6l-124 1q-11 0 -31 2q-45 -18 -45 -61q0 -75 136 -75q143 0 143 78q0 55 -79 55z" />
    <glyph glyph-name="Gdotaccent" unicode="&#x120;" 
d="M482 892l-22 -124h-130l22 124h130zM248 -17q-114 0 -162.5 89.5t-26.5 232.5l16 100q24 156 97.5 239t195.5 83q65 0 113.5 -19t74.5 -51.5t37.5 -70.5t11.5 -81l-126 -20q2 63 -25.5 103t-90.5 40q-67 0 -107 -54t-57 -184l-12 -79q-15 -114 9.5 -171t94.5 -57
q73 0 111.5 49t50.5 118l6 35h-154l16 93h264l-66 -378h-85l7 104q-21 -57 -71 -89t-122 -32z" />
    <glyph glyph-name="gdotaccent" unicode="&#x121;" 
d="M452 725l-24 -138h-145l24 138h145zM596 582q11 0 31 -2l-16 -90q-18 4 -42 4q-55 0 -81 -32q41 -39 41 -105q0 -81 -58.5 -132t-162.5 -51q-60 0 -105 20q-34 -13 -34 -44q0 -43 67 -44l117 -1q165 -1 165 -127q0 -87 -75 -135.5t-207 -48.5q-104 0 -166.5 30.5
t-62.5 92.5q0 41 29 68.5t77 38.5q-48 24 -48 79q0 43 27.5 72t75.5 40q-52 39 -52 114q0 81 58.5 132t162.5 51q63 0 106 -20q17 39 58.5 64.5t94.5 25.5zM317 249q46 0 72.5 28.5t26.5 73.5q0 43 -24 64.5t-64 21.5q-46 0 -72.5 -28t-26.5 -73q0 -44 24 -65.5t64 -21.5z
M321 6l-124 1q-11 0 -31 2q-45 -18 -45 -61q0 -75 136 -75q143 0 143 78q0 55 -79 55z" />
    <glyph glyph-name="Gcommaaccent" unicode="&#x122;" 
d="M248 -17q-114 0 -162.5 89.5t-26.5 232.5l16 100q24 156 97.5 239t195.5 83q65 0 113.5 -19t74.5 -51.5t37.5 -70.5t11.5 -81l-126 -20q2 63 -25.5 103t-90.5 40q-67 0 -107 -54t-57 -184l-12 -79q-15 -114 9.5 -171t94.5 -57q73 0 111.5 49t50.5 118l6 35h-154l16 93
h264l-66 -378h-85l7 104q-21 -57 -71 -89t-122 -32zM189 -238l-15 44q39 9 54.5 20t18.5 28h-74l20 110h135l-16 -91q-7 -44 -35 -71.5t-88 -39.5z" />
    <glyph glyph-name="gcommaaccent" unicode="&#x123;" 
d="M439 677l-20 -110h-135l16 91q7 44 35 71.5t88 39.5l15 -44q-39 -9 -54.5 -20t-18.5 -28h74zM596 582q11 0 31 -2l-16 -90q-18 4 -42 4q-55 0 -81 -32q41 -39 41 -105q0 -81 -58.5 -132t-162.5 -51q-60 0 -105 20q-34 -13 -34 -44q0 -43 67 -44l117 -1q165 -1 165 -127
q0 -87 -75 -135.5t-207 -48.5q-104 0 -166.5 30.5t-62.5 92.5q0 41 29 68.5t77 38.5q-48 24 -48 79q0 43 27.5 72t75.5 40q-52 39 -52 114q0 81 58.5 132t162.5 51q63 0 106 -20q17 39 58.5 64.5t94.5 25.5zM317 249q46 0 72.5 28.5t26.5 73.5q0 43 -24 64.5t-64 21.5
q-46 0 -72.5 -28t-26.5 -73q0 -44 24 -65.5t64 -21.5zM321 6l-124 1q-11 0 -31 2q-45 -18 -45 -61q0 -75 136 -75q143 0 143 78q0 55 -79 55z" />
    <glyph glyph-name="Hcircumflex" unicode="&#x124;" 
d="M548 770h-93l-58 68l-79 -68h-102l122 122h132zM629 710l-125 -710h-123l55 313h-230l-55 -313h-123l125 710h123l-52 -299h229l53 299h123z" />
    <glyph glyph-name="hcircumflex" unicode="&#x125;" 
d="M399 770h-93l-58 68l-79 -68h-102l122 122h132zM236 403q54 109 167 109q71 0 109 -41q47 -49 27 -161l-54 -310h-118l54 305q19 110 -76 110q-108 0 -132 -142l-49 -273h-117l128 725h117z" />
    <glyph glyph-name="Hbar" unicode="&#x126;" 
d="M663 589l-11 -64h-56l-92 -525h-123l55 313h-230l-55 -313h-123l92 525h-58l12 64h58l21 121h123l-21 -121h230l21 121h123l-21 -121h55zM453 411l20 114h-229l-20 -114h229z" />
    <glyph glyph-name="hbar" unicode="&#x127;" 
d="M512 471q47 -49 27 -161l-54 -310h-118l54 305q19 110 -76 110q-108 0 -132 -142l-49 -273h-117l102 579h-91l10 54h91l16 92h117l-16 -92h175l-9 -54h-175l-31 -176q54 109 167 109q71 0 109 -41z" />
    <glyph glyph-name="Itilde" unicode="&#x128;" 
d="M349 817q-48 0 -58 -49l-71 16q18 59 54 86t78 27q35 0 61.5 -14.5t47.5 -28.5t42 -14q43 0 59 53l69 -16q-41 -116 -134 -116q-41 0 -81 28t-67 28zM618 710l-17 -96h-166l-91 -518h166l-17 -96h-454l17 96h165l91 518h-165l17 96h454z" />
    <glyph glyph-name="itilde" unicode="&#x129;" 
d="M305 728q36 0 63.5 -15.5t48.5 -31t43 -15.5q42 0 56 59l69 -17q-42 -127 -134 -127q-43 0 -84 30.5t-69 30.5q-21 0 -36 -14t-20 -40l-70 16q19 65 55 94.5t78 29.5zM63 0l16 90h155l57 320h-141l16 90h258l-72 -410h163l-15 -90h-437z" />
    <glyph glyph-name="Imacron" unicode="&#x12a;" 
d="M573 849l-14 -81h-324l15 81h323zM601 614h-166l-91 -518h166l-17 -96h-454l17 96h165l91 518h-165l17 96h454z" />
    <glyph glyph-name="imacron" unicode="&#x12b;" 
d="M210 588l14 82h315l-14 -82h-315zM63 0l16 90h155l57 320h-141l16 90h258l-72 -410h163l-15 -90h-437z" />
    <glyph glyph-name="Ibreve" unicode="&#x12c;" 
d="M396 763q-69 0 -113 30t-39 99h91q-1 -31 17.5 -44t49.5 -13q71 0 86 57h95q-21 -71 -72.5 -100t-114.5 -29zM601 614h-166l-91 -518h166l-17 -96h-454l17 96h165l91 518h-165l17 96h454z" />
    <glyph glyph-name="ibreve" unicode="&#x12d;" 
d="M304 723q-3 -40 14 -61.5t50 -21.5t56 21t27 62h90q-15 -83 -63.5 -119.5t-113.5 -36.5q-73 0 -115 38t-36 118h91zM63 0l16 90h155l57 320h-141l16 90h258l-72 -410h163l-15 -90h-437z" />
    <glyph glyph-name="Iogonek" unicode="&#x12e;" 
d="M601 614h-166l-91 -518h166l-17 -96q-75 -22 -106.5 -48.5t-31.5 -61.5q0 -17 9.5 -28t25.5 -11q35 0 52 45l65 -17q-26 -84 -124 -84q-47 0 -79 21t-32 62q0 76 112 122h-345l17 96h165l91 518h-165l17 96h454z" />
    <glyph glyph-name="iogonek" unicode="&#x12f;" 
d="M467 725l-24 -138h-145l24 138h145zM397 -149q35 0 52 45l65 -17q-26 -84 -124 -84q-47 0 -79 21t-32 62q0 76 112 122h-328l16 90h155l57 320h-141l16 90h258l-72 -410h163l-15 -90q-75 -22 -106.5 -48.5t-31.5 -61.5q0 -17 9.5 -28t25.5 -11z" />
    <glyph glyph-name="Idotaccent" unicode="&#x130;" 
d="M484 892l-22 -124h-130l22 124h130zM601 614h-166l-91 -518h166l-17 -96h-454l17 96h165l91 518h-165l17 96h454z" />
    <glyph glyph-name="dotlessi" unicode="&#x131;" 
d="M63 0l16 90h155l57 320h-141l16 90h258l-72 -410h163l-15 -90h-437z" />
    <glyph glyph-name="IJ" unicode="&#x132;" 
d="M301 710l-125 -710h-123l125 710h123zM234 5l19 101q33 -10 72 -10q45 0 68.5 21t33.5 77l91 516h123l-95 -540q-31 -178 -220 -178q-58 0 -92 13z" />
    <glyph glyph-name="ij" unicode="&#x133;" 
d="M157 587l24 138h145l-24 -138h-145zM438 587l25 138h145l-24 -138h-146zM68 0l88 500h117l-88 -500h-117zM244 -200q-52 0 -90 7l17 95q59 -4 66 -4q50 0 76 19.5t37 79.5l89 503h118l-91 -512q-17 -93 -69 -140.5t-153 -47.5z" />
    <glyph glyph-name="Jcircumflex" unicode="&#x134;" 
d="M716 770h-93l-58 68l-79 -68h-102l122 122h132zM609 710l-90 -517q-18 -101 -83 -155.5t-162 -54.5q-241 0 -227 246l127 36q-8 -94 15 -135.5t86 -41.5q102 0 124 124l88 498h122z" />
    <glyph glyph-name="jcircumflex" unicode="&#x135;" 
d="M602 572h-88l-53 101l-84 -101h-100l129 151h122zM25 -182l17 95q50 -14 108 -14q61 0 93 29t44 96l69 386h-196l16 90h313l-85 -485q-39 -215 -250 -215q-82 0 -129 18z" />
    <glyph glyph-name="Kcommaaccent" unicode="&#x136;" 
d="M649 710l-252 -280l148 -430h-142l-113 351l-94 -108l-43 -243h-123l125 710h123l-57 -324l289 324h139zM192 -146l20 110h135l-16 -91q-7 -44 -35 -71.5t-88 -39.5l-15 44q39 9 54.5 20t18.5 28h-74z" />
    <glyph glyph-name="kcommaaccent" unicode="&#x137;" 
d="M597 500l-209 -191l131 -309h-136l-92 234l-91 -82l-27 -152h-117l128 725h117l-78 -442l232 217h142zM182 -146l20 110h135l-16 -91q-7 -44 -35 -71.5t-88 -39.5l-15 44q39 9 54.5 20t18.5 28h-74z" />
    <glyph glyph-name="kgreenlandic" unicode="&#x138;" 
d="M610 500l-215 -187l137 -313h-139l-94 240l-83 -73l-29 -167h-118l88 500h118q-7 -36 -36 -205l228 205h143z" />
    <glyph glyph-name="Lacute" unicode="&#x139;" 
d="M207 770l92 122h138l-131 -122h-99zM186 710h123l-106 -606h322l-19 -104h-445z" />
    <glyph glyph-name="lacute" unicode="&#x13a;" 
d="M341 770l92 122h138l-131 -122h-99zM48 0l16 90h156l96 545h-144l16 90h261l-112 -635h164l-16 -90h-437z" />
    <glyph glyph-name="Lcommaaccent" unicode="&#x13b;" 
d="M407 495l-17 50q30 11 41 26t16 45h-50l19 109h109l-18 -102q-16 -98 -100 -128zM186 710h123l-106 -606h322l-19 -104h-445z" />
    <glyph glyph-name="lcommaaccent" unicode="&#x13c;" 
d="M48 0l16 90h156l96 545h-144l16 90h261l-112 -635h164l-16 -90h-437zM195 -238l-15 44q39 9 54.5 20t18.5 28h-74l20 110h135l-16 -91q-7 -44 -35 -71.5t-88 -39.5z" />
    <glyph glyph-name="Lcaron" unicode="&#x13d;" 
d="M186 710h123l-106 -606h322l-19 -104h-445zM232 -238l-15 44q39 9 54.5 20t18.5 28h-74l20 110h135l-16 -91q-7 -44 -35 -71.5t-88 -39.5z" />
    <glyph glyph-name="lcaron" unicode="&#x13e;" 
d="M48 0l16 90h156l96 545h-144l16 90h261l-112 -635h164l-16 -90h-437zM502 495l-17 50q30 11 41 26t16 45h-50l19 109h109l-18 -102q-16 -98 -100 -128z" />
    <glyph glyph-name="Ldot" unicode="&#x13f;" 
d="M186 710h123l-106 -606h322l-19 -104h-445zM519 500l-27 -150h-155l27 150h155z" />
    <glyph glyph-name="ldot" unicode="&#x140;" 
d="M48 0l16 90h156l96 545h-144l16 90h261l-112 -635h164l-16 -90h-437zM612 432l-27 -150h-107l26 150h108z" />
    <glyph glyph-name="Lslash" unicode="&#x141;" 
d="M203 104h322l-19 -104h-445l47 268l-90 -52l15 83l90 51l63 360h123l-49 -281l226 130l-15 -82l-225 -130z" />
    <glyph glyph-name="lslash" unicode="&#x142;" 
d="M538 469l-149 -85l-52 -294h164l-16 -90h-437l16 90h156l39 220l-108 -61l13 76l108 62l44 248h-144l16 90h261l-47 -265l149 85z" />
    <glyph glyph-name="Nacute" unicode="&#x143;" 
d="M339 770l92 122h138l-131 -122h-99zM405 275q12 -51 17 -100h4q0 32 11 96l77 439h115l-128 -710h-133l-114 456q-9 37 -15 93h-5q0 -34 -9 -81l-82 -468h-115l129 710h144z" />
    <glyph glyph-name="nacute" unicode="&#x144;" 
d="M315 572l108 151h133l-145 -151h-96zM230 403q27 51 72 80t101 29q71 0 110 -41q33 -35 33 -94q0 -27 -6 -63l-55 -314h-118l54 305q3 29 3 32q0 78 -79 78q-107 0 -133 -143l-48 -272h-117l88 500h112z" />
    <glyph glyph-name="Ncommaaccent" unicode="&#x145;" 
d="M405 275q12 -51 17 -100h4q0 32 11 96l77 439h115l-128 -710h-133l-114 456q-9 37 -15 93h-5q0 -34 -9 -81l-82 -468h-115l129 710h144zM187 -238l-15 44q39 9 54.5 20t18.5 28h-74l20 110h135l-16 -91q-7 -44 -35 -71.5t-88 -39.5z" />
    <glyph glyph-name="ncommaaccent" unicode="&#x146;" 
d="M230 403q27 51 72 80t101 29q71 0 110 -41q33 -35 33 -94q0 -27 -6 -63l-55 -314h-118l54 305q3 29 3 32q0 78 -79 78q-107 0 -133 -143l-48 -272h-117l88 500h112zM197 -238l-15 44q39 9 54.5 20t18.5 28h-74l20 110h135l-16 -91q-7 -44 -35 -71.5t-88 -39.5z" />
    <glyph glyph-name="Ncaron" unicode="&#x147;" 
d="M241 892h93l58 -68l79 68h102l-122 -122h-132zM405 275q12 -51 17 -100h4q0 32 11 96l77 439h115l-128 -710h-133l-114 456q-9 37 -15 93h-5q0 -34 -9 -81l-82 -468h-115l129 710h144z" />
    <glyph glyph-name="ncaron" unicode="&#x148;" 
d="M224 723h88l53 -101l84 101h100l-129 -151h-122zM230 403q27 51 72 80t101 29q71 0 110 -41q33 -35 33 -94q0 -27 -6 -63l-55 -314h-118l54 305q3 29 3 32q0 78 -79 78q-107 0 -133 -143l-48 -272h-117l88 500h112z" />
    <glyph glyph-name="napostrophe" unicode="&#x149;" 
d="M230 403q27 51 72 80t101 29q71 0 110 -41q33 -35 33 -94q0 -27 -6 -63l-55 -314h-118l54 305q3 29 3 32q0 78 -79 78q-107 0 -133 -143l-48 -272h-117l88 500h112zM197 -238l-15 44q39 9 54.5 20t18.5 28h-74l20 110h135l-16 -91q-7 -44 -35 -71.5t-88 -39.5z" />
    <glyph glyph-name="Eng" unicode="&#x14a;" 
d="M181 -209l19 102q32 -6 70 -6q83 0 97 92l1 10l-110 467q-15 63 -12 93h-5q-3 -32 -11 -75l-83 -474h-115l129 710h144l96 -435q13 -59 13 -100h4q3 31 13 87l79 448h115l-132 -726q-36 -202 -228 -202q-57 0 -84 9z" />
    <glyph glyph-name="eng" unicode="&#x14b;" 
d="M513 471q33 -35 33 -94q0 -27 -6 -63l-55 -314l-4 -19q-17 -91 -55 -137t-120 -46q-47 0 -72 7l17 92q18 -3 39 -3q33 0 49 18t24 65l4 23l54 305q3 29 3 32q0 78 -79 78q-107 0 -133 -143l-48 -272h-117l88 500h112l-17 -97q27 51 72 80t101 29q71 0 110 -41z" />
    <glyph glyph-name="Omacron" unicode="&#x14c;" 
d="M221 768l15 81h323l-14 -81h-324zM283 -17q-139 0 -196 91t-29 254l15 83q26 149 96.5 232.5t204.5 83.5q139 0 196 -91t29 -254l-15 -83q-26 -149 -96.5 -232.5t-204.5 -83.5zM290 84q70 0 109 54.5t60 171.5l15 87q42 229 -107 229q-70 0 -109 -54.5t-60 -170.5
l-15 -88q-40 -229 107 -229z" />
    <glyph glyph-name="omacron" unicode="&#x14d;" 
d="M198 588l14 82h315l-14 -82h-315zM283 -12q-109 0 -165.5 59t-56.5 158q0 139 77.5 223t195.5 84q113 0 169 -56t56 -154q0 -144 -77 -229t-199 -85zM285 80q75 0 113 58.5t38 163.5q0 55 -26.5 86.5t-76.5 31.5q-73 0 -111 -58t-38 -157q0 -56 26.5 -90.5t74.5 -34.5z
" />
    <glyph glyph-name="Obreve" unicode="&#x14e;" 
d="M321 892q-1 -31 17.5 -44t49.5 -13q71 0 86 57h95q-21 -71 -72.5 -100t-114.5 -29q-69 0 -113 30t-39 99h91zM283 -17q-139 0 -196 91t-29 254l15 83q26 149 96.5 232.5t204.5 83.5q139 0 196 -91t29 -254l-15 -83q-26 -149 -96.5 -232.5t-204.5 -83.5zM290 84
q70 0 109 54.5t60 171.5l15 87q42 229 -107 229q-70 0 -109 -54.5t-60 -170.5l-15 -88q-40 -229 107 -229z" />
    <glyph glyph-name="obreve" unicode="&#x14f;" 
d="M292 723q-3 -40 14 -61.5t50 -21.5t56 21t27 62h90q-15 -83 -63.5 -119.5t-113.5 -36.5q-73 0 -115 38t-36 118h91zM283 -12q-109 0 -165.5 59t-56.5 158q0 139 77.5 223t195.5 84q113 0 169 -56t56 -154q0 -144 -77 -229t-199 -85zM285 80q75 0 113 58.5t38 163.5
q0 55 -26.5 86.5t-76.5 31.5q-73 0 -111 -58t-38 -157q0 -56 26.5 -90.5t74.5 -34.5z" />
    <glyph glyph-name="Ohungarumlaut" unicode="&#x150;" 
d="M238 770l89 122h118l-100 -122h-107zM425 770l88 122h118l-100 -122h-106zM283 -17q-139 0 -196 91t-29 254l15 83q26 149 96.5 232.5t204.5 83.5q139 0 196 -91t29 -254l-15 -83q-26 -149 -96.5 -232.5t-204.5 -83.5zM290 84q70 0 109 54.5t60 171.5l15 87
q42 229 -107 229q-70 0 -109 -54.5t-60 -170.5l-15 -88q-40 -229 107 -229z" />
    <glyph glyph-name="ohungarumlaut" unicode="&#x151;" 
d="M198 572l109 151h117l-119 -151h-107zM381 572l109 151h117l-119 -151h-107zM283 -12q-109 0 -165.5 59t-56.5 158q0 139 77.5 223t195.5 84q113 0 169 -56t56 -154q0 -144 -77 -229t-199 -85zM285 80q75 0 113 58.5t38 163.5q0 55 -26.5 86.5t-76.5 31.5q-73 0 -111 -58
t-38 -157q0 -56 26.5 -90.5t74.5 -34.5z" />
    <glyph glyph-name="OE" unicode="&#x152;" 
d="M650 609h-181l-34 -196h163l-17 -99h-164l-38 -213h188l-17 -101h-314q-111 0 -164 81q-49 77 -26 204l28 160q24 134 95 202q66 63 185 63h314zM247 98h18l91 514h-22q-61 0 -90 -35q-32 -37 -49 -132l-28 -160q-16 -93 5 -137q23 -50 75 -50z" />
    <glyph glyph-name="oe" unicode="&#x153;" 
d="M463 510q68 0 107.5 -36.5t39.5 -105.5q0 -19 -5 -47l-15 -88h-238l-11 -63q-2 -22 -2 -28q0 -68 66 -68q63 0 80 91l3 16l92 -21l-3 -16q-13 -77 -60.5 -116.5t-122.5 -39.5q-79 0 -117 54q-48 -54 -124 -54q-68 0 -107.5 37.5t-39.5 104.5q0 23 4 43l29 165
q14 79 59.5 125.5t124.5 46.5q84 0 119 -54q46 54 121 54zM504 331q4 17 4 34q0 62 -58 62q-65 0 -80 -93l-6 -35h135zM162 74q31 0 50 21.5t28 72.5l30 164q2 11 2 29q0 63 -58 63q-30 0 -46.5 -19.5t-24.5 -62.5l-30 -167q-4 -19 -4 -37q0 -64 53 -64z" />
    <glyph glyph-name="Racute" unicode="&#x154;" 
d="M569 892l-131 -122h-99l92 122h138zM624 520q0 -74 -44 -132t-126 -82l101 -306h-135l-91 291h-110l-51 -291h-123l125 710h231q101 0 162 -49t61 -141zM341 379q75 0 114 39.5t39 95.5q0 50 -31 75.5t-82 25.5h-105l-41 -236h106z" />
    <glyph glyph-name="racute" unicode="&#x155;" 
d="M322 572l108 151h133l-145 -151h-96zM256 363q37 70 99 108.5t139 38.5q65 0 94 -17l-18 -104q-32 16 -103 16q-89 0 -154.5 -56.5t-84.5 -167.5l-33 -181h-117l88 500h115z" />
    <glyph glyph-name="Rcommaaccent" unicode="&#x156;" 
d="M624 520q0 -74 -44 -132t-126 -82l101 -306h-135l-91 291h-110l-51 -291h-123l125 710h231q101 0 162 -49t61 -141zM341 379q75 0 114 39.5t39 95.5q0 50 -31 75.5t-82 25.5h-105l-41 -236h106zM180 -146l20 110h135l-16 -91q-7 -44 -35 -71.5t-88 -39.5l-15 44
q39 9 54.5 20t18.5 28h-74z" />
    <glyph glyph-name="rcommaaccent" unicode="&#x157;" 
d="M256 363q37 70 99 108.5t139 38.5q65 0 94 -17l-18 -104q-32 16 -103 16q-89 0 -154.5 -56.5t-84.5 -167.5l-33 -181h-117l88 500h115zM62 -238l-15 44q39 9 54.5 20t18.5 28h-74l20 110h135l-16 -91q-7 -44 -35 -71.5t-88 -39.5z" />
    <glyph glyph-name="Rcaron" unicode="&#x158;" 
d="M451 770h-132l-78 122h93l58 -68l79 68h102zM624 520q0 -74 -44 -132t-126 -82l101 -306h-135l-91 291h-110l-51 -291h-123l125 710h231q101 0 162 -49t61 -141zM341 379q75 0 114 39.5t39 95.5q0 50 -31 75.5t-82 25.5h-105l-41 -236h106z" />
    <glyph glyph-name="rcaron" unicode="&#x159;" 
d="M231 723h88l53 -101l84 101h100l-129 -151h-122zM256 363q37 70 99 108.5t139 38.5q65 0 94 -17l-18 -104q-32 16 -103 16q-89 0 -154.5 -56.5t-84.5 -167.5l-33 -181h-117l88 500h115z" />
    <glyph glyph-name="Sacute" unicode="&#x15a;" 
d="M330 770l92 122h138l-131 -122h-99zM297 -17q-111 0 -180.5 58t-84.5 147l114 38q15 -61 55.5 -101t106.5 -40q60 0 93 27.5t33 78.5q0 73 -82 103l-89 31q-151 54 -151 192q0 89 65.5 149.5t191.5 60.5q87 0 155.5 -45.5t89.5 -133.5l-109 -49q-14 64 -52.5 96t-90.5 32
q-62 0 -92 -29t-30 -71q0 -35 19 -57.5t63 -38.5l90 -34q151 -55 151 -192q0 -41 -14 -78.5t-43.5 -70.5t-83 -53t-125.5 -20z" />
    <glyph glyph-name="sacute" unicode="&#x15b;" 
d="M309 572l108 151h133l-145 -151h-96zM293 -12q-90 0 -149 39t-80 105l94 42q35 -99 143 -99q93 0 93 67q0 26 -13.5 38t-45.5 18l-85 15q-126 23 -126 137q0 75 57.5 118.5t150.5 43.5q88 0 142.5 -34t74.5 -93l-93 -45q-28 87 -131 87q-41 0 -64.5 -17t-23.5 -46
q0 -25 15 -38.5t49 -19.5l87 -16q122 -22 122 -133q0 -77 -58.5 -123t-158.5 -46z" />
    <glyph glyph-name="Scircumflex" unicode="&#x15c;" 
d="M539 770h-93l-58 68l-79 -68h-102l122 122h132zM297 -17q-111 0 -180.5 58t-84.5 147l114 38q15 -61 55.5 -101t106.5 -40q60 0 93 27.5t33 78.5q0 73 -82 103l-89 31q-151 54 -151 192q0 89 65.5 149.5t191.5 60.5q87 0 155.5 -45.5t89.5 -133.5l-109 -49
q-14 64 -52.5 96t-90.5 32q-62 0 -92 -29t-30 -71q0 -35 19 -57.5t63 -38.5l90 -34q151 -55 151 -192q0 -41 -14 -78.5t-43.5 -70.5t-83 -53t-125.5 -20z" />
    <glyph glyph-name="scircumflex" unicode="&#x15d;" 
d="M516 572h-88l-53 101l-84 -101h-100l129 151h122zM293 -12q-90 0 -149 39t-80 105l94 42q35 -99 143 -99q93 0 93 67q0 26 -13.5 38t-45.5 18l-85 15q-126 23 -126 137q0 75 57.5 118.5t150.5 43.5q88 0 142.5 -34t74.5 -93l-93 -45q-28 87 -131 87q-41 0 -64.5 -17
t-23.5 -46q0 -25 15 -38.5t49 -19.5l87 -16q122 -22 122 -133q0 -77 -58.5 -123t-158.5 -46z" />
    <glyph glyph-name="Scedilla" unicode="&#x15e;" 
d="M412 397q151 -55 151 -192q0 -38 -12 -72.5t-36.5 -66.5t-69 -53.5t-104.5 -27.5l-27 -34q19 14 54 14q31 0 50.5 -20t19.5 -51q0 -44 -37.5 -71.5t-92.5 -27.5q-92 0 -112 63l76 19q8 -30 40 -30q18 0 31 10.5t13 31.5q0 36 -35 36q-21 0 -35 -15l-47 13l42 60
q-104 4 -169.5 62t-79.5 143l114 38q15 -61 55.5 -101t106.5 -40q60 0 93 27.5t33 78.5q0 73 -82 103l-89 31q-151 54 -151 192q0 89 65.5 149.5t191.5 60.5q87 0 155.5 -45.5t89.5 -133.5l-109 -49q-14 64 -52.5 96t-90.5 32q-62 0 -92 -29t-30 -71q0 -35 19 -57.5
t63 -38.5z" />
    <glyph glyph-name="scedilla" unicode="&#x15f;" 
d="M388 290q122 -22 122 -133q0 -72 -51 -117t-140 -51l-30 -38q19 14 54 14q31 0 50.5 -20t19.5 -51q0 -44 -37.5 -71.5t-92.5 -27.5q-92 0 -112 63l76 19q8 -30 40 -30q18 0 31 10.5t13 31.5q0 36 -35 36q-22 0 -35 -15l-47 13l47 66q-77 7 -127.5 45t-69.5 98l94 42
q35 -99 143 -99q93 0 93 67q0 26 -13.5 38t-45.5 18l-85 15q-126 23 -126 137q0 75 57.5 118.5t150.5 43.5q88 0 142.5 -34t74.5 -93l-93 -45q-28 87 -131 87q-41 0 -64.5 -17t-23.5 -46q0 -25 15 -38.5t49 -19.5z" />
    <glyph glyph-name="Scaron" unicode="&#x160;" 
d="M232 892h93l58 -68l79 68h102l-122 -122h-132zM297 -17q-111 0 -180.5 58t-84.5 147l114 38q15 -61 55.5 -101t106.5 -40q60 0 93 27.5t33 78.5q0 73 -82 103l-89 31q-151 54 -151 192q0 89 65.5 149.5t191.5 60.5q87 0 155.5 -45.5t89.5 -133.5l-109 -49
q-14 64 -52.5 96t-90.5 32q-62 0 -92 -29t-30 -71q0 -35 19 -57.5t63 -38.5l90 -34q151 -55 151 -192q0 -41 -14 -78.5t-43.5 -70.5t-83 -53t-125.5 -20z" />
    <glyph glyph-name="scaron" unicode="&#x161;" 
d="M218 723h88l53 -101l84 101h100l-129 -151h-122zM293 -12q-90 0 -149 39t-80 105l94 42q35 -99 143 -99q93 0 93 67q0 26 -13.5 38t-45.5 18l-85 15q-126 23 -126 137q0 75 57.5 118.5t150.5 43.5q88 0 142.5 -34t74.5 -93l-93 -45q-28 87 -131 87q-41 0 -64.5 -17
t-23.5 -46q0 -25 15 -38.5t49 -19.5l87 -16q122 -22 122 -133q0 -77 -58.5 -123t-158.5 -46z" />
    <glyph glyph-name="uni0162" unicode="&#x162;" 
d="M120 710h541l-18 -104h-209l-107 -606h-29l-39 -49q19 14 54 14q31 0 50.5 -20t19.5 -51q0 -44 -37.5 -71.5t-92.5 -27.5q-92 0 -112 63l76 19q8 -30 40 -30q18 0 31 10.5t13 31.5q0 36 -35 36q-22 0 -35 -15l-47 13l54 77h-34l107 606h-209z" />
    <glyph glyph-name="uni0163" unicode="&#x163;" 
d="M361 412l-39 -219q-17 -97 84 -97q52 0 88 12l-19 -100q-46 -16 -101 -16h-2l-32 -41q19 14 54 14q31 0 50.5 -20t19.5 -51q0 -44 -37.5 -71.5t-92.5 -27.5q-92 0 -112 63l76 19q8 -30 40 -30q18 0 31 10.5t13 31.5q0 36 -35 36q-21 0 -35 -15l-47 13l52 74
q-69 12 -98.5 56t-17.5 116l43 243h-137l15 88h137l23 127l126 47l-31 -174h185l-15 -88h-186z" />
    <glyph glyph-name="Tcaron" unicode="&#x164;" 
d="M252 892h93l58 -68l79 68h102l-122 -122h-132zM120 710h541l-18 -104h-209l-107 -606h-123l107 606h-209z" />
    <glyph glyph-name="tcaron" unicode="&#x165;" 
d="M599 495l-17 50q30 11 41 26t16 45h-50l19 109h109l-18 -102q-16 -98 -100 -128zM107 412l15 88h137l23 127l126 47l-31 -174h185l-15 -88h-186l-39 -219q-17 -97 84 -97q52 0 88 12l-19 -100q-46 -16 -101 -16q-99 0 -143 46t-30 131l43 243h-137z" />
    <glyph glyph-name="Tbar" unicode="&#x166;" 
d="M642 606h-209l-26 -146h186l-12 -65h-185l-70 -395h-123l70 395h-178l12 65h177l26 146h-209l18 104h541z" />
    <glyph glyph-name="tbar" unicode="&#x167;" 
d="M547 412h-186l-18 -99h191l-13 -77h-191l-8 -43q-17 -97 84 -97q52 0 88 12l-19 -100q-46 -16 -101 -16q-99 0 -143 46t-30 131l12 67h-132l14 77h131l18 99h-137l15 88h137l23 127l126 47l-31 -174h185z" />
    <glyph glyph-name="Utilde" unicode="&#x168;" 
d="M334 897q46 0 89.5 -28.5t67.5 -28.5q41 0 57 53l69 -16q-43 -116 -135 -116q-43 0 -83.5 28.5t-67.5 28.5q-49 0 -60 -50l-72 16q19 59 56 86t79 27zM142 710h124l-81 -465q-14 -78 15 -118.5t92 -40.5q113 0 135 122l88 502h124l-88 -503q-19 -105 -86 -164.5
t-185 -59.5q-124 0 -182 70.5t-36 195.5z" />
    <glyph glyph-name="utilde" unicode="&#x169;" 
d="M295 728q36 0 63.5 -15.5t48.5 -31t43 -15.5q42 0 56 59l69 -17q-42 -127 -134 -127q-43 0 -84 30.5t-69 30.5q-45 0 -56 -54l-70 16q19 65 55 94.5t78 29.5zM382 95q-24 -48 -68.5 -77.5t-101.5 -29.5q-71 0 -110 42q-45 50 -25 155l55 315h117l-53 -306
q-20 -111 71 -111q107 0 132 142l48 275h118l-88 -500h-111z" />
    <glyph glyph-name="Umacron" unicode="&#x16a;" 
d="M235 768l15 81h323l-14 -81h-324zM142 710h124l-81 -465q-14 -78 15 -118.5t92 -40.5q113 0 135 122l88 502h124l-88 -503q-19 -105 -86 -164.5t-185 -59.5q-124 0 -182 70.5t-36 195.5z" />
    <glyph glyph-name="umacron" unicode="&#x16b;" 
d="M200 588l14 82h315l-14 -82h-315zM382 95q-24 -48 -68.5 -77.5t-101.5 -29.5q-71 0 -110 42q-45 50 -25 155l55 315h117l-53 -306q-20 -111 71 -111q107 0 132 142l48 275h118l-88 -500h-111z" />
    <glyph glyph-name="Ubreve" unicode="&#x16c;" 
d="M335 892q-1 -31 17.5 -44t49.5 -13q71 0 86 57h95q-21 -71 -72.5 -100t-114.5 -29q-69 0 -113 30t-39 99h91zM142 710h124l-81 -465q-14 -78 15 -118.5t92 -40.5q113 0 135 122l88 502h124l-88 -503q-19 -105 -86 -164.5t-185 -59.5q-124 0 -182 70.5t-36 195.5z" />
    <glyph glyph-name="ubreve" unicode="&#x16d;" 
d="M294 723q-3 -40 14 -61.5t50 -21.5t56 21t27 62h90q-15 -83 -63.5 -119.5t-113.5 -36.5q-73 0 -115 38t-36 118h91zM382 95q-24 -48 -68.5 -77.5t-101.5 -29.5q-71 0 -110 42q-45 50 -25 155l55 315h117l-53 -306q-20 -111 71 -111q107 0 132 142l48 275h118l-88 -500
h-111z" />
    <glyph glyph-name="Uring" unicode="&#x16e;" 
d="M399 733q-45 0 -72.5 25t-27.5 62q0 47 33.5 77t85.5 30q45 0 72.5 -25t27.5 -62q0 -47 -33.5 -77t-85.5 -30zM404 785q22 0 36 13.5t14 35.5q0 18 -10.5 29.5t-30.5 11.5q-23 0 -36.5 -13.5t-13.5 -35.5q0 -18 10.5 -29.5t30.5 -11.5zM142 710h124l-81 -465
q-14 -78 15 -118.5t92 -40.5q113 0 135 122l88 502h124l-88 -503q-19 -105 -86 -164.5t-185 -59.5q-124 0 -182 70.5t-36 195.5z" />
    <glyph glyph-name="uring" unicode="&#x16f;" 
d="M480 665q0 -50 -33.5 -83t-89.5 -33q-44 0 -73 27.5t-29 67.5q0 52 35 84t88 32q44 0 73 -27.5t29 -67.5zM319 648q0 -19 12 -32t33 -13q24 0 38 16.5t14 40.5q0 20 -11.5 33t-32.5 13q-24 0 -38.5 -15t-14.5 -43zM382 95q-24 -48 -68.5 -77.5t-101.5 -29.5
q-71 0 -110 42q-45 50 -25 155l55 315h117l-53 -306q-20 -111 71 -111q107 0 132 142l48 275h118l-88 -500h-111z" />
    <glyph glyph-name="Uhungarumlaut" unicode="&#x170;" 
d="M252 770l89 122h118l-100 -122h-107zM439 770l88 122h118l-100 -122h-106zM142 710h124l-81 -465q-14 -78 15 -118.5t92 -40.5q113 0 135 122l88 502h124l-88 -503q-19 -105 -86 -164.5t-185 -59.5q-124 0 -182 70.5t-36 195.5z" />
    <glyph glyph-name="uhungarumlaut" unicode="&#x171;" 
d="M200 572l109 151h117l-119 -151h-107zM383 572l109 151h117l-119 -151h-107zM382 95q-24 -48 -68.5 -77.5t-101.5 -29.5q-71 0 -110 42q-45 50 -25 155l55 315h117l-53 -306q-20 -111 71 -111q107 0 132 142l48 275h118l-88 -500h-111z" />
    <glyph glyph-name="Uogonek" unicode="&#x172;" 
d="M515 710h124l-88 -503q-33 -178 -187 -215q-61 -20 -87 -45t-26 -57q0 -17 9.5 -28t25.5 -11q35 0 52 45l65 -17q-26 -84 -124 -84q-47 0 -79 21t-32 62q0 64 79 106q-107 10 -156.5 79.5t-28.5 185.5l80 461h124l-81 -465q-14 -78 15 -118.5t92 -40.5q113 0 135 122z
" />
    <glyph glyph-name="uogonek" unicode="&#x173;" 
d="M374 -149q35 0 52 45l65 -17q-26 -84 -124 -84q-47 0 -79 21t-32 62q0 76 112 122h-2l16 95q-24 -48 -68.5 -77.5t-101.5 -29.5q-71 0 -110 42q-45 50 -25 155l55 315h117l-53 -306q-20 -111 71 -111q107 0 132 142l48 275h118l-88 -500q-75 -22 -106.5 -48.5
t-31.5 -61.5q0 -17 9.5 -28t25.5 -11z" />
    <glyph glyph-name="Wcircumflex" unicode="&#x174;" 
d="M559 770h-93l-58 68l-79 -68h-102l122 122h132zM50 0l71 710h113l-60 -457q-8 -63 -19 -124h9q16 57 32 100l114 304h100l4 -322q1 -52 0 -82h9q11 66 24 126l100 455h114l-176 -710h-142l-4 278q-1 49 6 143h-9q-10 -59 -39 -138l-106 -283h-141z" />
    <glyph glyph-name="wcircumflex" unicode="&#x175;" 
d="M523 572h-88l-53 101l-84 -101h-100l129 151h122zM66 500h109l-15 -326q-4 -69 -4 -73h6q22 62 28 82l109 317h107l-2 -317q-2 -31 1 -83h6q5 13 21 74l97 326h112l-179 -500h-128l-1 309q0 14 5 79h-5q-6 -38 -22 -79l-109 -309h-133z" />
    <glyph glyph-name="Ycircumflex" unicode="&#x176;" 
d="M559 770h-93l-58 68l-79 -68h-102l122 122h132zM377 277l-49 -277h-123l49 277l-145 433h132l90 -330l205 330h137z" />
    <glyph glyph-name="ycircumflex" unicode="&#x177;" 
d="M520 572h-88l-53 101l-84 -101h-100l129 151h122zM243 500l53 -384l186 384h124l-300 -557q-48 -88 -101 -116t-129 -28q-24 0 -58 6l16 94q21 -5 49 -5q42 0 68 18t48 61l15 30l-101 497h130z" />
    <glyph glyph-name="Ydieresis" unicode="&#x178;" 
d="M374 892l-22 -124h-122l22 124h122zM587 892l-23 -124h-122l22 124h123zM377 277l-49 -277h-123l49 277l-145 433h132l90 -330l205 330h137z" />
    <glyph glyph-name="Zacute" unicode="&#x179;" 
d="M331 770l92 122h138l-131 -122h-99zM37 103l431 505h-329l18 102h467l-18 -102l-429 -506h354l-18 -102h-494z" />
    <glyph glyph-name="zacute" unicode="&#x17a;" 
d="M315 572l108 151h133l-145 -151h-96zM63 79l333 330h-264l17 91h404l-13 -76l-329 -331h287l-17 -93h-431z" />
    <glyph glyph-name="Zdotaccent" unicode="&#x17b;" 
d="M465 892l-22 -124h-130l22 124h130zM37 103l431 505h-329l18 102h467l-18 -102l-429 -506h354l-18 -102h-494z" />
    <glyph glyph-name="zdotaccent" unicode="&#x17c;" 
d="M464 725l-24 -138h-145l24 138h145zM63 79l333 330h-264l17 91h404l-13 -76l-329 -331h287l-17 -93h-431z" />
    <glyph glyph-name="Zcaron" unicode="&#x17d;" 
d="M233 892h93l58 -68l79 68h102l-122 -122h-132zM37 103l431 505h-329l18 102h467l-18 -102l-429 -506h354l-18 -102h-494z" />
    <glyph glyph-name="zcaron" unicode="&#x17e;" 
d="M224 723h88l53 -101l84 101h100l-129 -151h-122zM63 79l333 330h-264l17 91h404l-13 -76l-329 -331h287l-17 -93h-431z" />
    <glyph glyph-name="florin" unicode="&#x192;" 
d="M505 706q45 0 71 -12l-16 -92q-22 10 -55 10q-24 0 -40.5 -6.5t-28 -23.5t-17 -31.5t-14.5 -43.5l-24 -79h102l-14 -85h-114l-151 -493h-121l150 493h-94l14 85h106l16 52q35 118 83.5 172t146.5 54z" />
    <glyph glyph-name="AEacute" unicode="&#x1fc;" 
d="M662 892l-131 -122h-99l92 122h138zM650 609h-181l-34 -196h164l-18 -99h-164l-37 -213h187l-17 -101h-297l29 155h-119l-67 -155h-117l336 710h353zM204 249h96l72 384z" />
    <glyph glyph-name="aeacute" unicode="&#x1fd;" 
d="M557 723l-145 -151h-96l108 151h133zM471 510q68 0 106.5 -37.5t38.5 -105.5q0 -20 -5 -50l-15 -84h-239l-11 -60q-3 -15 -3 -27q0 -34 17.5 -53t45.5 -19q69 0 85 94l3 13l92 -21l-1 -4q-13 -79 -59.5 -123.5t-122.5 -44.5q-91 0 -130 72q-50 -71 -143 -71q-58 0 -95 32
t-37 96q0 138 180 168l91 15l10 49q3 13 3 26q0 27 -15.5 42t-42.5 15q-33 0 -54.5 -24t-25.5 -69l-2 -8h-98l1 4q7 80 59 127.5t130 47.5q76 0 112 -46q51 46 125 46zM510 331q3 21 3 35q0 66 -55 66q-68 0 -84 -102l-6 -31h136zM155 67q32 0 56.5 21.5t31.5 58.5l16 90
l-58 -11q-98 -19 -98 -98q0 -61 52 -61z" />
    <glyph glyph-name="Oslashacute" unicode="&#x1fe;" 
d="M564 892l-131 -122h-99l92 122h138zM652 716l-72 -90q50 -90 23 -244l-15 -83q-26 -149 -96.5 -232.5t-204.5 -83.5q-110 0 -171 59l-61 -76l-47 25l76 95q-48 88 -22 242l15 83q26 149 96.5 232.5t204.5 83.5q111 0 169 -58l59 74zM187 313q-11 -64 -8 -107l291 366
q-27 54 -99 54q-70 0 -109 -54.5t-60 -170.5zM478 397q11 61 8 111l-292 -367q27 -57 100 -57q70 0 109 54.5t60 171.5z" />
    <glyph glyph-name="oslashacute" unicode="&#x1ff;" 
d="M557 723l-145 -151h-96l108 151h133zM574 484l-50 -51q36 -53 36 -131q0 -144 -77 -229t-199 -85q-93 0 -150 45l-48 -50l-39 30l54 55q-39 56 -39 137q0 139 77.5 223t195.5 84q97 0 155 -44l45 47zM185 205q0 -22 5 -45l221 228q-27 32 -77 32q-73 0 -111 -58t-38 -157
zM437 302q0 22 -4 38l-220 -227q25 -33 73 -33q75 0 113 58.5t38 163.5z" />
    <glyph glyph-name="Scommaaccent" unicode="&#x218;" 
d="M297 -17q-111 0 -180.5 58t-84.5 147l114 38q15 -61 55.5 -101t106.5 -40q60 0 93 27.5t33 78.5q0 73 -82 103l-89 31q-151 54 -151 192q0 89 65.5 149.5t191.5 60.5q87 0 155.5 -45.5t89.5 -133.5l-109 -49q-14 64 -52.5 96t-90.5 32q-62 0 -92 -29t-30 -71
q0 -35 19 -57.5t63 -38.5l90 -34q151 -55 151 -192q0 -41 -14 -78.5t-43.5 -70.5t-83 -53t-125.5 -20zM246 -238l-15 44q39 9 54.5 20t18.5 28h-74l20 110h135l-16 -91q-7 -44 -35 -71.5t-88 -39.5z" />
    <glyph glyph-name="scommaaccent" unicode="&#x219;" 
d="M293 -12q-90 0 -149 39t-80 105l94 42q35 -99 143 -99q93 0 93 67q0 26 -13.5 38t-45.5 18l-85 15q-126 23 -126 137q0 75 57.5 118.5t150.5 43.5q88 0 142.5 -34t74.5 -93l-93 -45q-28 87 -131 87q-41 0 -64.5 -17t-23.5 -46q0 -25 15 -38.5t49 -19.5l87 -16
q122 -22 122 -133q0 -77 -58.5 -123t-158.5 -46zM221 -238l-15 44q39 9 54.5 20t18.5 28h-74l20 110h135l-16 -91q-7 -44 -35 -71.5t-88 -39.5z" />
    <glyph glyph-name="uni021A" unicode="&#x21a;" 
d="M120 710h541l-18 -104h-209l-107 -606h-123l107 606h-209zM191 -238l-15 44q39 9 54.5 20t18.5 28h-74l20 110h135l-16 -91q-7 -44 -35 -71.5t-88 -39.5z" />
    <glyph glyph-name="uni021B" unicode="&#x21b;" 
d="M107 412l15 88h137l23 127l126 47l-31 -174h185l-15 -88h-186l-39 -219q-17 -97 84 -97q52 0 88 12l-19 -100q-46 -16 -101 -16q-99 0 -143 46t-30 131l43 243h-137zM272 -238l-15 44q39 9 54.5 20t18.5 28h-74l20 110h135l-16 -91q-7 -44 -35 -71.5t-88 -39.5z" />
    <glyph glyph-name="uni0237" unicode="&#x237;" 
d="M25 -182l17 95q50 -14 108 -14q61 0 93 29t44 96l69 386h-196l16 90h313l-85 -485q-39 -215 -250 -215q-82 0 -129 18z" />
    <glyph glyph-name="uni0243" unicode="&#x243;" 
d="M423 353q57 -9 89 -46.5t32 -90.5q0 -48 -19.5 -90.5t-70.5 -78.5t-127 -44l-19 -110h-55l19 107h-72l-19 -107h-56l19 107h-120l121 695h122l15 90h56l-16 -90h59h13l15 90h56l-16 -96q70 -15 101.5 -57.5t31.5 -93.5q0 -65 -41 -115t-118 -70zM250 603l-36 -205h101
q73 0 107 32.5t34 87.5q0 36 -24 60.5t-79 24.5h-103zM278 92q77 0 111 36t34 90q0 40 -25.5 66.5t-74.5 26.5h-124l-38 -219h117z" />
    <glyph glyph-name="circumflex" unicode="&#x2c6;" 
d="M530 572h-88l-53 101l-84 -101h-100l129 151h122z" />
    <glyph glyph-name="caron" unicode="&#x2c7;" 
d="M231 723h88l53 -101l84 101h100l-129 -151h-122z" />
    <glyph glyph-name="breve" unicode="&#x2d8;" 
d="M321 723q-3 -40 14 -61.5t50 -21.5t56 21t27 62h90q-15 -83 -63.5 -119.5t-113.5 -36.5q-73 0 -115 38t-36 118h91z" />
    <glyph glyph-name="dotaccent" unicode="&#x2d9;" 
d="M466 725l-24 -138h-145l24 138h145z" />
    <glyph glyph-name="ring" unicode="&#x2da;" 
d="M493 665q0 -50 -33.5 -83t-89.5 -33q-44 0 -73 27.5t-29 67.5q0 52 35 84t88 32q44 0 73 -27.5t29 -67.5zM332 648q0 -19 12 -32t33 -13q24 0 38 16.5t14 40.5q0 20 -11.5 33t-32.5 13q-24 0 -38.5 -15t-14.5 -43z" />
    <glyph glyph-name="ogonek" unicode="&#x2db;" 
d="M362 -121q-26 -84 -124 -84q-47 0 -79 21t-32 62q0 76 112 122h109q-75 -22 -106.5 -48.5t-31.5 -61.5q0 -17 9.5 -28t25.5 -11q35 0 52 45z" />
    <glyph glyph-name="tilde" unicode="&#x2dc;" 
d="M308 728q36 0 63.5 -15.5t48.5 -31t43 -15.5q42 0 56 59l69 -17q-42 -127 -134 -127q-43 0 -84 30.5t-69 30.5q-21 0 -36 -14t-20 -40l-70 16q19 65 55 94.5t78 29.5z" />
    <glyph glyph-name="hungarumlaut" unicode="&#x2dd;" 
d="M175 572l109 151h117l-119 -151h-107zM358 572l109 151h117l-119 -151h-107z" />
    <glyph glyph-name="gravecomb" unicode="&#x300;" horiz-adv-x="0" 
d="M-134 572h-96l-145 151h133z" />
    <glyph glyph-name="acutecomb" unicode="&#x301;" horiz-adv-x="0" 
d="M-347 572l108 151h133l-145 -151h-96z" />
    <glyph glyph-name="uni0302" unicode="&#x302;" horiz-adv-x="0" 
d="M-90 572h-88l-53 101l-84 -101h-100l129 151h122z" />
    <glyph glyph-name="tildecomb" unicode="&#x303;" horiz-adv-x="0" 
d="M-298 728q36 0 63.5 -15.5t48.5 -31t43 -15.5q42 0 56 59l69 -17q-42 -127 -134 -127q-43 0 -84 30.5t-69 30.5q-45 0 -56 -54l-70 16q19 65 55 94.5t78 29.5z" />
    <glyph glyph-name="uni0304" unicode="&#x304;" horiz-adv-x="0" 
d="M-394 588l14 82h315l-14 -82h-315z" />
    <glyph glyph-name="uni0306" unicode="&#x306;" horiz-adv-x="0" 
d="M-286 723q-3 -40 14 -61.5t50 -21.5t56 21t27 62h90q-15 -83 -63.5 -119.5t-113.5 -36.5q-73 0 -115 38t-36 118h91z" />
    <glyph glyph-name="uni0307" unicode="&#x307;" horiz-adv-x="0" 
d="M-154 725l-24 -138h-145l24 138h145z" />
    <glyph glyph-name="uni0308" unicode="&#x308;" horiz-adv-x="0" 
d="M-249 723l-24 -135h-134l24 135h134zM-43 723l-23 -135h-135l24 135h134z" />
    <glyph glyph-name="uni030A" unicode="&#x30a;" horiz-adv-x="0" 
d="M-127 665q0 -50 -33.5 -83t-89.5 -33q-44 0 -73 27.5t-29 67.5q0 52 35 84t88 32q44 0 73 -27.5t29 -67.5zM-288 648q0 -19 12 -32t33 -13q24 0 38 16.5t14 40.5q0 20 -11.5 33t-32.5 13q-24 0 -38.5 -15t-14.5 -43z" />
    <glyph glyph-name="uni030B" unicode="&#x30b;" horiz-adv-x="0" 
d="M-404 572l109 151h117l-119 -151h-107zM-221 572l109 151h117l-119 -151h-107z" />
    <glyph glyph-name="uni030C" unicode="&#x30c;" horiz-adv-x="0" 
d="M-302 723h88l53 -101l84 101h100l-129 -151h-122z" />
    <glyph glyph-name="uni0312" unicode="&#x312;" horiz-adv-x="0" 
d="M-197 769l15 -44q-39 -9 -54.5 -20t-18.5 -28h74l-20 -110h-135l16 91q7 44 35 71.5t88 39.5z" />
    <glyph glyph-name="uni0326" unicode="&#x326;" horiz-adv-x="0" 
d="M-418 -238l-15 44q39 9 54.5 20t18.5 28h-74l20 110h135l-16 -91q-7 -44 -35 -71.5t-88 -39.5z" />
    <glyph glyph-name="uni0327" unicode="&#x327;" horiz-adv-x="0" 
d="M-382 7h60l-44 -56q19 14 54 14q31 0 50.5 -20t19.5 -51q0 -44 -37.5 -71.5t-92.5 -27.5q-92 0 -112 63l76 19q8 -30 40 -30q18 0 31 10.5t13 31.5q0 36 -35 36q-21 0 -35 -15l-47 13z" />
    <glyph glyph-name="uni0328" unicode="&#x328;" horiz-adv-x="0" 
d="M-244 -121q-26 -84 -124 -84q-47 0 -79 21t-32 62q0 76 112 122h109q-75 -22 -106.5 -48.5t-31.5 -61.5q0 -17 9.5 -28t25.5 -11q35 0 52 45z" />
    <glyph glyph-name="uni0394" unicode="&#x394;" 
d="M10 0l314 710h138l60 -710h-512zM371 584l-202 -488h225z" />
    <glyph glyph-name="uni03A9" unicode="&#x3a9;" 
d="M515 0h-204l28 247q73 14 109 78.5t36 141.5q0 160 -123 160q-43 0 -75 -18.5t-49 -50t-25.5 -66t-8.5 -72.5q0 -135 75 -173l-60 -247h-201l18 103h115l20 75q-86 65 -86 229q0 135 79 227.5t206 92.5q115 0 174 -66.5t59 -183.5q0 -101 -45 -186t-134 -114l-6 -74h116z
" />
    <glyph glyph-name="uni03BC" unicode="&#x3bc;" 
d="M447 500h118l-88 -500h-111l16 95q-24 -48 -68.5 -77.5t-101.5 -29.5q-28 0 -55 9l-34 -192h-113l122 695h117l-53 -306q-20 -111 71 -111q107 0 132 142z" />
    <glyph glyph-name="pi" unicode="&#x3c0;" 
d="M526 -1q-45 -9 -59 -9q-73 0 -95 36t-11 97l51 291h-145l-73 -414h-118l73 414h-71l15 86h522l-15 -86h-71l-48 -277q-10 -52 33 -52q16 0 28 3z" />
    <glyph glyph-name="uni0E3F" unicode="&#xe3f;" 
d="M419 355q58 -8 90.5 -46t32.5 -93q0 -39 -14 -75t-43.5 -69t-83 -52.5t-124.5 -19.5h-9l-19 -107h-55l19 107h-188l121 695h190l16 91h55l-16 -91q100 -3 144.5 -49.5t44.5 -108.5q0 -64 -41.5 -113t-119.5 -69zM244 608l-37 -211h76l38 211h-77zM462 518q0 83 -87 89
l-37 -210q64 4 94 36.5t30 84.5zM152 87h76l40 225h-76zM283 87q77 0 111.5 37t34.5 93q0 40 -25.5 67.5t-74.5 27.5h-6z" />
    <glyph glyph-name="Wgrave" unicode="&#x1e80;" 
d="M446 770h-99l-131 122h138zM50 0l71 710h113l-60 -457q-8 -63 -19 -124h9q16 57 32 100l114 304h100l4 -322q1 -52 0 -82h9q11 66 24 126l100 455h114l-176 -710h-142l-4 278q-1 49 6 143h-9q-10 -59 -39 -138l-106 -283h-141z" />
    <glyph glyph-name="wgrave" unicode="&#x1e81;" 
d="M412 572h-96l-145 151h133zM66 500h109l-15 -326q-4 -69 -4 -73h6q22 62 28 82l109 317h107l-2 -317q-2 -31 1 -83h6q5 13 21 74l97 326h112l-179 -500h-128l-1 309q0 14 5 79h-5q-6 -38 -22 -79l-109 -309h-133z" />
    <glyph glyph-name="Wacute" unicode="&#x1e82;" 
d="M350 770l92 122h138l-131 -122h-99zM50 0l71 710h113l-60 -457q-8 -63 -19 -124h9q16 57 32 100l114 304h100l4 -322q1 -52 0 -82h9q11 66 24 126l100 455h114l-176 -710h-142l-4 278q-1 49 6 143h-9q-10 -59 -39 -138l-106 -283h-141z" />
    <glyph glyph-name="wacute" unicode="&#x1e83;" 
d="M316 572l108 151h133l-145 -151h-96zM66 500h109l-15 -326q-4 -69 -4 -73h6q22 62 28 82l109 317h107l-2 -317q-2 -31 1 -83h6q5 13 21 74l97 326h112l-179 -500h-128l-1 309q0 14 5 79h-5q-6 -38 -22 -79l-109 -309h-133z" />
    <glyph glyph-name="Wdieresis" unicode="&#x1e84;" 
d="M374 892l-22 -124h-122l22 124h122zM587 892l-23 -124h-122l22 124h123zM50 0l71 710h113l-60 -457q-8 -63 -19 -124h9q16 57 32 100l114 304h100l4 -322q1 -52 0 -82h9q11 66 24 126l100 455h114l-176 -710h-142l-4 278q-1 49 6 143h-9q-10 -59 -39 -138l-106 -283h-141
z" />
    <glyph glyph-name="wdieresis" unicode="&#x1e85;" 
d="M351 723l-24 -135h-134l24 135h134zM557 723l-23 -135h-135l24 135h134zM66 500h109l-15 -326q-4 -69 -4 -73h6q22 62 28 82l109 317h107l-2 -317q-2 -31 1 -83h6q5 13 21 74l97 326h112l-179 -500h-128l-1 309q0 14 5 79h-5q-6 -38 -22 -79l-109 -309h-133z" />
    <glyph glyph-name="Ygrave" unicode="&#x1ef2;" 
d="M446 770h-99l-131 122h138zM377 277l-49 -277h-123l49 277l-145 433h132l90 -330l205 330h137z" />
    <glyph glyph-name="ygrave" unicode="&#x1ef3;" 
d="M409 572h-96l-145 151h133zM243 500l53 -384l186 384h124l-300 -557q-48 -88 -101 -116t-129 -28q-24 0 -58 6l16 94q21 -5 49 -5q42 0 68 18t48 61l15 30l-101 497h130z" />
    <glyph glyph-name="uni2002" unicode="&#x2002;" horiz-adv-x="500" 
 />
    <glyph glyph-name="uni2003" unicode="&#x2003;" horiz-adv-x="1000" 
 />
    <glyph glyph-name="uni2004" unicode="&#x2004;" horiz-adv-x="0" 
 />
    <glyph glyph-name="uni2005" unicode="&#x2005;" horiz-adv-x="250" 
 />
    <glyph glyph-name="uni2009" unicode="&#x2009;" horiz-adv-x="135" 
 />
    <glyph glyph-name="uni200A" unicode="&#x200a;" horiz-adv-x="75" 
 />
    <glyph glyph-name="endash" unicode="&#x2013;" 
d="M106 322h433l-16 -88h-433z" />
    <glyph glyph-name="emdash" unicode="&#x2014;" 
d="M47 322h552l-17 -88h-551z" />
    <glyph glyph-name="quoteleft" unicode="&#x2018;" 
d="M472 747l20 -55q-47 -19 -66 -41.5t-27 -65.5h79l-27 -150h-155l27 148q11 62 46 101.5t103 62.5z" />
    <glyph glyph-name="quoteright" unicode="&#x2019;" 
d="M261 398l-20 55q47 19 66 41.5t27 65.5h-79l27 150h155l-27 -148q-11 -62 -46 -101.5t-103 -62.5z" />
    <glyph glyph-name="quotesinglbase" unicode="&#x201a;" 
d="M162 -162l-20 55q47 19 66 41.5t27 65.5h-79l27 150h155l-27 -148q-11 -62 -46 -101.5t-103 -62.5z" />
    <glyph glyph-name="quotedblleft" unicode="&#x201c;" 
d="M335 748l20 -56q-48 -19 -67 -41.5t-27 -65.5h79l-26 -149h-156l27 148q11 62 46.5 101.5t103.5 62.5zM548 748l20 -56q-48 -19 -67 -41.5t-27 -65.5h79l-27 -149h-155l27 148q11 62 46 101.5t104 62.5z" />
    <glyph glyph-name="quotedblright" unicode="&#x201d;" 
d="M187 398l-20 56q47 19 66 41t27 65h-79l27 150h155l-26 -148q-11 -62 -46.5 -101.5t-103.5 -62.5zM400 398l-20 56q47 19 66 41t27 65h-79l27 150h155l-26 -148q-11 -62 -46.5 -101.5t-103.5 -62.5z" />
    <glyph glyph-name="quotedblbase" unicode="&#x201e;" 
d="M88 -162l-20 55q47 19 66 41.5t27 65.5h-79l27 150h155l-26 -148q-11 -62 -46.5 -101.5t-103.5 -62.5zM301 -162l-20 55q47 19 66 41.5t27 65.5h-79l27 150h155l-27 -148q-11 -62 -46 -101.5t-103 -62.5z" />
    <glyph glyph-name="dagger" unicode="&#x2020;" 
d="M389 419l-92 -519h-99l92 519h-135l15 81h134l39 220h99l-39 -220h136l-15 -81h-135z" />
    <glyph glyph-name="daggerdbl" unicode="&#x2021;" 
d="M523 419h-135l-41 -230h136l-14 -82h-136l-37 -207h-99l37 207h-133l14 82h133l41 230h-135l15 81h134l39 220h99l-39 -220h136z" />
    <glyph glyph-name="bullet" unicode="&#x2022;" 
d="M326 234q-50 0 -81.5 30.5t-31.5 79.5t31.5 79.5t81.5 30.5t82 -30.5t32 -79.5t-32 -79.5t-82 -30.5z" />
    <glyph glyph-name="ellipsis" unicode="&#x2026;" 
d="M156 148l-26 -148h-143l26 148h143zM363 148l-26 -148h-143l26 148h143zM570 148l-26 -148h-143l26 148h143z" />
    <glyph glyph-name="perthousand" unicode="&#x2030;" 
d="M188 426q-54 0 -86.5 31.5t-32.5 89.5q0 71 37 117t100 46q54 0 86 -32.5t32 -91.5q0 -69 -38 -114.5t-98 -45.5zM31 233l567 463l-15 -85l-567 -465zM203 648q-29 0 -45.5 -28t-16.5 -70q0 -62 49 -62q28 0 45 26.5t17 67.5q0 66 -49 66zM463 283q53 0 84.5 -32.5
t31.5 -90.5q0 -69 -37 -114.5t-96 -45.5q-58 0 -88 38q-35 -38 -87 -38q-54 0 -85.5 31.5t-31.5 88.5q0 71 36 117t98 46q57 0 87 -38q35 38 88 38zM272 62q27 0 44 27t17 67q0 65 -48 65q-27 0 -43.5 -27.5t-16.5 -69.5q0 -62 47 -62zM448 62q27 0 44 27t17 67q0 65 -48 65
q-28 0 -44.5 -27.5t-16.5 -69.5q0 -62 48 -62z" />
    <glyph glyph-name="guilsinglleft" unicode="&#x2039;" 
d="M289 67l-129 209l207 206h127l-210 -210l125 -205h-120z" />
    <glyph glyph-name="guilsinglright" unicode="&#x203a;" 
d="M340 482l129 -209l-207 -206h-127l210 210l-125 205h120z" />
    <glyph glyph-name="fraction" unicode="&#x2044;" horiz-adv-x="202" 
d="M388 727h92l-629 -744h-92z" />
    <glyph glyph-name="uni20A9" unicode="&#x20a9;" 
d="M651 695l-66 -235h33l-9 -57h-40l-21 -75h47l-10 -57h-53l-76 -271h-126l19 271h-75l-79 -271h-121l20 271h-52l9 57h47l6 75h-39l10 57h33l17 235h86l-23 -235h75l70 235h111l-13 -235h73l58 235h89zM353 539l-23 -79h32l5 79q1 33 7 70h-4q-12 -53 -17 -70zM182 403
l-8 -75h49l23 75h-64zM291 328h62l5 75h-45zM471 328l19 75h-62l-5 -75h48zM168 144l38 127h-37l-13 -127l-7 -55h4q3 20 15 55zM426 144l31 127h-37l-7 -127q-2 -38 -4 -55h4q7 34 13 55z" />
    <glyph glyph-name="Euro" unicode="&#x20ac;" 
d="M345 83q87 0 140 100l103 -36q-77 -162 -253 -162q-122 0 -187.5 75.5t-60.5 196.5h-69l11 63h67q1 24 7 68h-65l12 63h66q33 123 112.5 192t194.5 69q87 0 147.5 -41t71.5 -122l-106 -35q-23 101 -125 101q-132 0 -174 -164h236l-12 -63h-235q-3 -21 -5 -68h228l-11 -63
h-226q-2 -85 33 -129.5t100 -44.5z" />
    <glyph glyph-name="uni20B9" unicode="&#x20b9;" 
d="M615 616h-196q37 -41 44 -105h134l-12 -62h-125q-14 -70 -73 -121t-172 -56l180 -272h-143l-178 280l12 69h97q127 0 149 100h-228l12 62h220q-4 45 -32.5 75t-85.5 30h-84l14 79h481z" />
    <glyph glyph-name="uni20BA" unicode="&#x20ba;" 
d="M456 243l103 -20q-26 -99 -97 -161t-195 -62h-185l47 267l-75 -22l12 68l75 22l14 78l-75 -22l11 67l76 22l38 215h120l-32 -179l210 60l-12 -67l-210 -60l-14 -78l210 60l-12 -68l-210 -60l-36 -205h49q148 0 188 145z" />
    <glyph glyph-name="uni20BD" unicode="&#x20bd;" 
d="M337 273h-94l-14 -79h145l-10 -62h-146l-23 -132h-121l23 132h-77l10 62h78l14 79h-77l16 84h76l60 338h209q113 0 164.5 -53.5t51.5 -127.5q0 -32 -8.5 -63.5t-29.5 -64t-52.5 -57.5t-82 -40.5t-112.5 -15.5zM300 599l-42 -242h79q81 0 119.5 43.5t38.5 97.5
q0 43 -27.5 72t-89.5 29h-78z" />
    <glyph glyph-name="uni2105" unicode="&#x2105;" 
d="M-7 -14l588 742h76l-587 -742h-77zM201 397q-58 0 -94 39t-36 105q0 87 46 137t121 50q55 0 89 -31t36 -86l-84 -13q-2 62 -51 62q-74 0 -74 -114q0 -81 53 -81q23 0 40 14.5t21 44.5l79 -16q-17 -56 -55.5 -83.5t-90.5 -27.5zM429 -12q-63 0 -99.5 37.5t-36.5 104.5
q0 85 43 137.5t116 52.5q61 0 98 -39t37 -105q0 -84 -44.5 -136t-113.5 -52zM434 58q35 0 53 31.5t18 81.5q0 79 -58 79q-35 0 -53.5 -30.5t-18.5 -81.5q0 -38 15.5 -59t43.5 -21z" />
    <glyph glyph-name="uni2113" unicode="&#x2113;" 
d="M323 240l-7 -42q-11 -60 7 -84.5t68 -24.5q26 0 61 7l-17 -96q-39 -11 -94 -11q-97 0 -131 48t-18 140l2 9q-19 -7 -92 -30l-17 87q74 23 126 43l51 283q16 89 61 126.5t115 37.5q73 0 111.5 -39.5t38.5 -101.5q0 -221 -265 -352zM384 585l-41 -236q127 83 127 236
q0 62 -38 62q-36 0 -48 -62z" />
    <glyph glyph-name="uni2116" unicode="&#x2116;" 
d="M225 334q1 -22 3.5 -65.5t3.5 -65.5h3q7 88 22 184l57 323h82l-125 -710h-96l-31 409q-2 21 -4.5 61.5t-3.5 60.5h-3q-11 -114 -23 -185l-61 -346h-82l125 710h105zM398 434l15 84q23 148 138 148q63 0 89.5 -38.5t13.5 -112.5l-16 -93q-10 -67 -47.5 -101t-90.5 -34
q-58 0 -86 38.5t-16 108.5zM558 427l17 97q11 69 -28 69q-22 0 -33.5 -15t-18.5 -55l-17 -92q-11 -70 29 -70q20 0 32.5 14.5t18.5 51.5z" />
    <glyph glyph-name="trademark" unicode="&#x2122;" 
d="M110 318l57 324h-73l12 68h229l-12 -68h-78l-57 -324h-78zM300 318l69 392h110l-9 -241q-3 -53 -7 -85h3q7 32 23 85l76 241h110l-69 -392h-67l36 204q8 44 25 127h-2q-2 -6 -7 -22.5t-7 -23.5l-94 -285h-74l7 285q0 24 2 46h-2q-1 -4 -3.5 -22t-6.5 -44.5t-10 -60.5
l-36 -204h-67z" />
    <glyph glyph-name="uni2126" unicode="&#x2126;" 
d="M515 0h-204l28 247q73 14 109 78.5t36 141.5q0 160 -123 160q-43 0 -75 -18.5t-49 -50t-25.5 -66t-8.5 -72.5q0 -135 75 -173l-60 -247h-201l18 103h115l20 75q-86 65 -86 229q0 135 79 227.5t206 92.5q115 0 174 -66.5t59 -183.5q0 -101 -45 -186t-134 -114l-6 -74h116z
" />
    <glyph glyph-name="estimated" unicode="&#x212e;" 
d="M582 348h-345l-45 -254q40 -48 106 -48q124 0 190 126l54 -28q-43 -80 -111.5 -120.5t-153.5 -40.5q-103 0 -156.5 73.5t-53.5 201.5q0 130 39 233t117.5 165t184.5 62q126 0 167.5 -87t6.5 -283zM483 631q-31 25 -87 25q-60 0 -110 -28l-39 -221h197z" />
    <glyph glyph-name="uni2153" unicode="&#x2153;" horiz-adv-x="1240" 
d="M918 727h92l-629 -744h-92zM448 324h-289l11 64h108l40 224q-16 -12 -47.5 -20.5t-56.5 -8.5h-5l12 73h2q34 0 70.5 15t53.5 39h70l-58 -322h100zM994 194q34 -4 54 -27.5t20 -56.5q0 -54 -42.5 -86t-111.5 -32q-144 0 -145 122l87 7q-1 -65 62 -65q32 0 47.5 16t15.5 42
q0 25 -15 39t-44 14h-27l9 57h23q34 0 54 14.5t20 41.5q0 50 -54 50q-63 0 -63 -70l-83 10q2 60 43 92.5t110 32.5q62 0 98 -26.5t36 -75.5q0 -40 -27.5 -67t-66.5 -32z" />
    <glyph glyph-name="uni2154" unicode="&#x2154;" horiz-adv-x="1240" 
d="M915 727h92l-629 -744h-92zM162 386q123 69 179 115.5t56 97.5q0 24 -14.5 38t-40.5 14q-27 0 -43 -15.5t-16 -43.5q0 -8 2 -22l-82 8q-2 20 -2 23q0 52 40 85t106 33q64 0 100 -30t36 -82q0 -34 -15.5 -64.5t-48 -58t-62 -47t-77.5 -46.5h173l-11 -67h-290zM912 224h23
q34 0 54 14.5t20 41.5q0 50 -54 50q-63 0 -63 -70l-83 10q2 60 43 92.5t110 32.5q62 0 98 -26.5t36 -75.5q0 -40 -27.5 -67t-66.5 -32q34 -4 54 -27.5t20 -56.5q0 -54 -42.5 -86t-111.5 -32q-144 0 -145 122l87 7q-1 -65 62 -65q32 0 47.5 16t15.5 42q0 25 -15 39t-44 14
h-27z" />
    <glyph glyph-name="oneeighth" unicode="&#x215b;" horiz-adv-x="1240" 
d="M904 727h92l-629 -744h-92zM424 324h-289l11 64h108l40 224q-16 -12 -47.5 -20.5t-56.5 -8.5h-5l12 73h2q34 0 70.5 15t53.5 39h70l-58 -322h100zM1024 210q68 -29 68 -96q0 -55 -41.5 -88.5t-119.5 -33.5q-68 0 -114 27t-46 79q0 75 99 96q-54 27 -54 88q0 49 36.5 81
t108.5 32q61 0 103.5 -24.5t42.5 -73.5q0 -66 -83 -87zM961 336q-63 0 -63 -51q0 -40 53 -53l24 -7q48 19 48 60q0 51 -62 51zM934 54q36 0 53 17t17 41q0 42 -62 59l-23 6q-58 -17 -58 -68q0 -29 21.5 -42t51.5 -13z" />
    <glyph glyph-name="threeeighths" unicode="&#x215c;" horiz-adv-x="1240" 
d="M913 727h92l-629 -744h-92zM490 434q0 -54 -42.5 -86t-111.5 -32q-144 0 -145 122l87 7q-1 -65 62 -65q32 0 47.5 16t15.5 42q0 25 -15 39t-44 14h-27l9 57h23q34 0 54 14.5t20 41.5q0 50 -54 50q-63 0 -63 -70l-83 10q2 60 43 92.5t110 32.5q62 0 98 -26.5t36 -75.5
q0 -40 -27.5 -67t-66.5 -32q34 -4 54 -27.5t20 -56.5zM989 210q68 -29 68 -96q0 -55 -41.5 -88.5t-119.5 -33.5q-68 0 -114 27t-46 79q0 75 99 96q-54 27 -54 88q0 49 36.5 81t108.5 32q61 0 103.5 -24.5t42.5 -73.5q0 -66 -83 -87zM926 336q-63 0 -63 -51q0 -40 53 -53
l24 -7q48 19 48 60q0 51 -62 51zM899 54q36 0 53 17t17 41q0 42 -62 59l-23 6q-58 -17 -58 -68q0 -29 21.5 -42t51.5 -13z" />
    <glyph glyph-name="fiveeighths" unicode="&#x215d;" horiz-adv-x="1240" 
d="M908 727h92l-629 -744h-92zM476 467q0 -71 -43.5 -111t-119.5 -40q-64 0 -102 29t-39 78l82 9q1 -24 18 -38t45 -14q34 0 55 21t21 56q0 63 -62 63q-48 0 -67 -45l-70 8l62 227h242l-12 -68h-182l-32 -105q34 47 94 47q52 0 81 -30.5t29 -86.5zM1004 210q68 -29 68 -96
q0 -55 -41.5 -88.5t-119.5 -33.5q-68 0 -114 27t-46 79q0 75 99 96q-54 27 -54 88q0 49 36.5 81t108.5 32q61 0 103.5 -24.5t42.5 -73.5q0 -66 -83 -87zM941 336q-63 0 -63 -51q0 -40 53 -53l24 -7q48 19 48 60q0 51 -62 51zM914 54q36 0 53 17t17 41q0 42 -62 59l-23 6
q-58 -17 -58 -68q0 -29 21.5 -42t51.5 -13z" />
    <glyph glyph-name="seveneighths" unicode="&#x215e;" horiz-adv-x="1240" 
d="M866 727h92l-629 -744h-92zM225 331q11 82 63 164t132 144h-203l12 71h282l-11 -67q-69 -55 -118.5 -139t-65.5 -180h-91v7zM995 210q68 -29 68 -96q0 -55 -41.5 -88.5t-119.5 -33.5q-68 0 -114 27t-46 79q0 75 99 96q-54 27 -54 88q0 49 36.5 81t108.5 32
q61 0 103.5 -24.5t42.5 -73.5q0 -66 -83 -87zM932 336q-63 0 -63 -51q0 -40 53 -53l24 -7q48 19 48 60q0 51 -62 51zM905 54q36 0 53 17t17 41q0 42 -62 59l-23 6q-58 -17 -58 -68q0 -29 21.5 -42t51.5 -13z" />
    <glyph glyph-name="arrowleft" unicode="&#x2190;" 
d="M582 286h-348l-17 -95l-160 139l209 139l-16 -94h348z" />
    <glyph glyph-name="arrowup" unicode="&#x2191;" 
d="M214 -35l105 597h-95l174 188l108 -188h-95l-105 -597h-92z" />
    <glyph glyph-name="arrowright" unicode="&#x2192;" 
d="M65 374h348l17 95l160 -139l-209 -139l16 94h-348z" />
    <glyph glyph-name="arrowdown" unicode="&#x2193;" 
d="M443 745l-105 -597h95l-174 -188l-108 188h95l105 597h92z" />
    <glyph glyph-name="arrowboth" unicode="&#x2194;" 
d="M407 286h-182l-17 -95l-160 139l209 139l-16 -94h182l16 94l161 -139l-210 -139z" />
    <glyph glyph-name="arrowupdn" unicode="&#x2195;" 
d="M259 -40l-108 188h95l73 414h-95l174 188l108 -188h-95l-73 -414h96z" />
    <glyph glyph-name="uni2196" unicode="&#x2196;" 
d="M192 563l-96 -85l40 232h225l-95 -82l301 -366l-74 -64z" />
    <glyph glyph-name="uni2197" unicode="&#x2197;" 
d="M471 564l-301 -365l-74 64l301 366l-95 82h225l40 -232z" />
    <glyph glyph-name="uni2198" unicode="&#x2198;" 
d="M467 158l96 85l-40 -232h-225l95 82l-301 366l74 64z" />
    <glyph glyph-name="uni2199" unicode="&#x2199;" 
d="M188 158l301 365l74 -64l-301 -366l95 -82h-225l-40 232z" />
    <glyph glyph-name="uni21A9" unicode="&#x21a9;" 
d="M211 191l-160 139l209 139l-16 -94h130q149 0 149 122q0 51 -30 77.5t-83 26.5h-88l16 89h91q90 0 142 -48t52 -133q0 -108 -63 -165.5t-179 -57.5h-153z" />
    <glyph glyph-name="uni21AA" unicode="&#x21aa;" 
d="M425 286h-169q-92 0 -144.5 47.5t-52.5 134.5q0 105 63 163.5t178 58.5h77l-16 -89h-53q-148 0 -148 -121q0 -52 30 -78.5t83 -26.5h167l17 94l161 -139l-210 -139z" />
    <glyph glyph-name="uni21B0" unicode="&#x21b0;" 
d="M393 0l98 556h-222l-17 -94l-160 139l209 139l-16 -95h315l-114 -645h-93z" />
    <glyph glyph-name="uni21B1" unicode="&#x21b1;" 
d="M207 556l-98 -556h-93l114 645h314l17 95l160 -139l-209 -139l16 94h-221z" />
    <glyph glyph-name="uni21B2" unicode="&#x21b2;" 
d="M452 163l98 556h93l-114 -645h-315l-17 -94l-160 139l209 138l-16 -94h222z" />
    <glyph glyph-name="uni21B3" unicode="&#x21b3;" 
d="M263 710l-98 -556h222l17 94l160 -139l-209 -139l16 95h-315l114 645h93z" />
    <glyph glyph-name="uni21B4" unicode="&#x21b4;" 
d="M281 168h96l80 459h-350l16 89h443l-97 -548h95l-175 -188z" />
    <glyph glyph-name="uni21B5" unicode="&#x21b5;" 
d="M372 641q-83 0 -113 -84l-89 26q55 147 211 147q111 0 159 -69t28 -189l-16 -91h90l-167 -182l-103 182h84l14 81q28 179 -98 179zM284 69q43 0 70 19.5t43 63.5l90 -26q-56 -147 -211 -147q-111 0 -159 69t-29 189l16 90h-89l167 182l103 -182h-84l-15 -80
q-27 -178 98 -178z" />
    <glyph glyph-name="uni21C4" unicode="&#x21c4;" 
d="M546 417h-302l-17 -95l-160 139l209 139l-16 -94h301zM106 253h300l16 94l161 -139l-209 -139l17 95h-301z" />
    <glyph glyph-name="uni21C5" unicode="&#x21c5;" 
d="M627 571h-90l-96 -546h-91l96 546h-89l165 179zM30 139h90l96 546h91l-96 -546h89l-166 -179z" />
    <glyph glyph-name="partialdiff" unicode="&#x2202;" 
d="M343 721q123 0 184.5 -82.5t61.5 -224.5q0 -202 -82 -316.5t-240 -114.5q-101 0 -163 59.5t-62 154.5q0 117 69 187.5t175 70.5q132 0 188 -88v17q0 117 -33 176.5t-113 59.5q-48 0 -96 -19l-23 92q61 28 134 28zM282 76q63 0 111.5 43t68.5 137q-43 108 -154 108
q-68 0 -107 -41.5t-39 -115.5q0 -57 33 -94t87 -37z" />
    <glyph glyph-name="emptyset" unicode="&#x2205;" 
d="M554 516l-56 -60q51 -62 51 -152q0 -102 -64 -166t-166 -64q-79 0 -136 40l-56 -61l-43 39l56 61q-50 61 -50 151q0 102 64 166.5t165 64.5q80 0 137 -40l55 60zM188 304q0 -44 20 -78l183 198q-31 20 -72 20q-58 0 -94.5 -39t-36.5 -101zM450 304q0 45 -19 78l-183 -198
q31 -20 71 -20q58 0 94.5 39t36.5 101z" />
    <glyph glyph-name="uni2206" unicode="&#x2206;" 
d="M10 0l314 710h138l60 -710h-512zM371 584l-202 -488h225z" />
    <glyph glyph-name="product" unicode="&#x220f;" 
d="M379 -88l122 689h-258l-122 -689h-116l140 793h490l-140 -793h-116z" />
    <glyph glyph-name="summation" unicode="&#x2211;" 
d="M5 -88l16 92l315 323l-193 287l15 91h464l-17 -98h-330l195 -286l-310 -311h352l-18 -98h-489z" />
    <glyph glyph-name="minus" unicode="&#x2212;" 
d="M79 282l16 92h474l-16 -92h-474z" />
    <glyph glyph-name="radical" unicode="&#x221a;" 
d="M55 331h148l31 -281l322 684h108l-400 -828h-110l-47 332h-68z" />
    <glyph glyph-name="infinity" unicode="&#x221e;" 
d="M463 479q56 0 92 -38t36 -100q0 -71 -46 -117t-110 -46q-40 0 -72 23.5t-51 57.5q-64 -82 -129 -82q-53 0 -90 36t-37 101q0 73 44 119t111 46q40 0 72.5 -21t49.5 -53q60 74 130 74zM203 260q40 0 81 66q-26 70 -73 70q-69 0 -69 -73q0 -30 19.5 -46.5t41.5 -16.5z
M434 260q30 0 49 19.5t19 54.5q0 30 -16.5 46t-41.5 16q-41 0 -84 -60q28 -76 74 -76z" />
    <glyph glyph-name="integral" unicode="&#x222b;" 
d="M30 -113l19 92q9 -2 29 -2q71 0 104.5 31.5t47.5 110.5l65 372q19 105 84.5 164t177.5 59q29 0 50 -3l-20 -93q-19 4 -42 4q-60 0 -91.5 -35t-44.5 -109l-65 -373q-40 -221 -279 -221q-11 0 -35 3z" />
    <glyph glyph-name="approxequal" unicode="&#x2248;" 
d="M443 355q-39 0 -104 28t-103 28q-37 0 -76.5 -12t-65.5 -31l16 93q24 19 61.5 31t71.5 12q46 0 107.5 -28t98.5 -28q36 0 75.5 12.5t64.5 30.5l-16 -93q-22 -19 -58.5 -31t-71.5 -12zM409 164q-39 0 -104 27.5t-103 27.5q-37 0 -76.5 -12t-65.5 -31l17 94q23 19 60.5 31
t72.5 12q46 0 107 -28t99 -28q36 0 75 12t65 31l-17 -94q-21 -18 -58 -30t-72 -12z" />
    <glyph glyph-name="notequal" unicode="&#x2260;" 
d="M570 378h-183l-55 -98h220l-16 -93h-257l-70 -124h-68l70 124h-149l16 93h186l55 98h-223l16 93h260l68 120h68l-68 -120h146z" />
    <glyph glyph-name="lessequal" unicode="&#x2264;" 
d="M525 132l-433 202l16 90l504 202l-18 -101l-381 -148l329 -147zM46 88h464l-15 -88h-465z" />
    <glyph glyph-name="greaterequal" unicode="&#x2265;" 
d="M453 382l-381 -148l-17 -101l504 202l16 89l-433 202l-18 -98zM500 0l15 88h-465l-15 -88h465z" />
    <glyph glyph-name="uni2460" unicode="&#x2460;" 
d="M301 -16q-36 0 -69.5 6t-68 21t-60 40t-45.5 62t-23.5 88t4.5 118l18 117q6 40 16.5 75.5t33.5 76.5t54 70t81.5 48.5t113.5 19.5q36 0 69.5 -6t68 -21t60 -40t45.5 -62t23.5 -88t-4.5 -118l-18 -117q-6 -40 -16.5 -75.5t-33.5 -76.5t-54 -70t-81.5 -48.5t-113.5 -19.5z
M300 34q202 0 244 249l19 114q13 79 -1 136.5t-48.5 87t-73.5 42.5t-83 13q-203 0 -244 -249l-19 -114q-13 -79 1 -136.5t48.5 -87t73.5 -42.5t83 -13zM201 176h209l13 64h-66l52 294h-60q-25 -49 -82 -49h-6l-13 -75h8q35 0 60 20l-34 -190h-70z" />
    <glyph glyph-name="uni2461" unicode="&#x2461;" 
d="M301 -16q-36 0 -69.5 6t-68 21t-60 40t-45.5 62t-23.5 88t4.5 118l18 117q6 40 16.5 75.5t33.5 76.5t54 70t81.5 48.5t113.5 19.5q36 0 69.5 -6t68 -21t60 -40t45.5 -62t23.5 -88t-4.5 -118l-18 -117q-6 -40 -16.5 -75.5t-33.5 -76.5t-54 -70t-81.5 -48.5t-113.5 -19.5z
M300 34q202 0 244 249l19 114q13 79 -1 136.5t-48.5 87t-73.5 42.5t-83 13q-203 0 -244 -249l-19 -114q-13 -79 1 -136.5t48.5 -87t73.5 -42.5t83 -13zM186 185l8 56q96 73 140 120.5t44 90.5q0 39 -30 39q-41 0 -39 -72l-77 10q0 57 31.5 89.5t87.5 32.5q108 0 108 -87
q0 -56 -43 -107.5t-123 -109.5h129l-10 -62h-226z" />
    <glyph glyph-name="uni2462" unicode="&#x2462;" 
d="M301 -16q-36 0 -69.5 6t-68 21t-60 40t-45.5 62t-23.5 88t4.5 118l18 117q6 40 16.5 75.5t33.5 76.5t54 70t81.5 48.5t113.5 19.5q36 0 69.5 -6t68 -21t60 -40t45.5 -62t23.5 -88t-4.5 -118l-18 -117q-6 -40 -16.5 -75.5t-33.5 -76.5t-54 -70t-81.5 -48.5t-113.5 -19.5z
M300 34q202 0 244 249l19 114q13 79 -1 136.5t-48.5 87t-73.5 42.5t-83 13q-203 0 -244 -249l-19 -114q-13 -79 1 -136.5t48.5 -87t73.5 -42.5t83 -13zM305 168q-123 0 -104 111l80 8q-10 -59 25 -59q43 0 43 67q0 18 -6 27t-23 9h-19l9 58h19q24 0 35.5 17.5t11.5 41.5
q0 35 -29 35q-39 0 -42 -61l-76 8q6 112 118 112q109 0 109 -86q0 -39 -20 -65t-57 -32q50 -8 50 -70q0 -121 -124 -121z" />
    <glyph glyph-name="uni2463" unicode="&#x2463;" 
d="M301 -16q-36 0 -69.5 6t-68 21t-60 40t-45.5 62t-23.5 88t4.5 118l18 117q6 40 16.5 75.5t33.5 76.5t54 70t81.5 48.5t113.5 19.5q36 0 69.5 -6t68 -21t60 -40t45.5 -62t23.5 -88t-4.5 -118l-18 -117q-6 -40 -16.5 -75.5t-33.5 -76.5t-54 -70t-81.5 -48.5t-113.5 -19.5z
M300 34q202 0 244 249l19 114q13 79 -1 136.5t-48.5 87t-73.5 42.5t-83 13q-203 0 -244 -249l-19 -114q-13 -79 1 -136.5t48.5 -87t73.5 -42.5t83 -13zM426 253h-41l-14 -77h-77l14 77h-129l9 58l159 223h87l-40 -221h42zM352 469l-104 -156h70z" />
    <glyph glyph-name="uni2464" unicode="&#x2464;" 
d="M301 -16q-36 0 -69.5 6t-68 21t-60 40t-45.5 62t-23.5 88t4.5 118l18 117q6 40 16.5 75.5t33.5 76.5t54 70t81.5 48.5t113.5 19.5q36 0 69.5 -6t68 -21t60 -40t45.5 -62t23.5 -88t-4.5 -118l-18 -117q-6 -40 -16.5 -75.5t-33.5 -76.5t-54 -70t-81.5 -48.5t-113.5 -19.5z
M300 34q202 0 244 249l19 114q13 79 -1 136.5t-48.5 87t-73.5 42.5t-83 13q-203 0 -244 -249l-19 -114q-13 -79 1 -136.5t48.5 -87t73.5 -42.5t83 -13zM307 172q-59 0 -86.5 26.5t-19.5 75.5l77 8q-5 -51 36 -51q24 0 34.5 30t10.5 61q0 25 -8 34t-24 9q-27 0 -38 -33l-71 6
l47 200h193l-9 -62h-136l-20 -84q19 32 64 32q79 0 79 -100q0 -25 -5 -48t-17.5 -48.5t-40 -40.5t-66.5 -15z" />
    <glyph glyph-name="uni2465" unicode="&#x2465;" 
d="M356 726q36 0 69.5 -6t68 -21t60 -40t45.5 -62t23.5 -88t-4.5 -118l-18 -117q-6 -40 -16.5 -75.5t-33.5 -76.5t-54 -70t-81.5 -48.5t-113.5 -19.5q-36 0 -69.5 6t-68 21t-60 40t-45.5 62t-23.5 88t4.5 118l18 117q6 40 16.5 75.5t33.5 76.5t54 70t81.5 48.5t113.5 19.5z
M563 397q13 79 -1 136.5t-48.5 87t-73.5 42.5t-83 13q-203 0 -244 -249l-19 -114q-13 -79 1 -136.5t48.5 -87t73.5 -42.5t83 -13q202 0 244 249zM351 542q50 0 78 -24t23 -70l-77 -9q6 47 -28 47q-39 0 -60 -90q25 23 57 23q89 0 89 -107q0 -33 -8.5 -63t-38 -55.5
t-75.5 -25.5q-111 0 -111 124q0 27 3 55t12.5 64.5t25.5 64t44.5 47t65.5 19.5zM321 361q-24 0 -43 -22q-4 -31 -4 -54q0 -59 38 -59q22 0 31.5 28t9.5 56q0 51 -32 51z" />
    <glyph glyph-name="uni2466" unicode="&#x2466;" 
d="M301 -16q-36 0 -69.5 6t-68 21t-60 40t-45.5 62t-23.5 88t4.5 118l18 117q6 40 16.5 75.5t33.5 76.5t54 70t81.5 48.5t113.5 19.5q36 0 69.5 -6t68 -21t60 -40t45.5 -62t23.5 -88t-4.5 -118l-18 -117q-6 -40 -16.5 -75.5t-33.5 -76.5t-54 -70t-81.5 -48.5t-113.5 -19.5z
M300 34q202 0 244 249l19 114q13 79 -1 136.5t-48.5 87t-73.5 42.5t-83 13q-203 0 -244 -249l-19 -114q-13 -79 1 -136.5t48.5 -87t73.5 -42.5t83 -13zM239 176l2 18q15 152 142 277h-138l11 63h213l-9 -52q-114 -108 -135 -267l-5 -39h-81z" />
    <glyph glyph-name="uni2467" unicode="&#x2467;" 
d="M356 726q36 0 69.5 -6t68 -21t60 -40t45.5 -62t23.5 -88t-4.5 -118l-18 -117q-6 -40 -16.5 -75.5t-33.5 -76.5t-54 -70t-81.5 -48.5t-113.5 -19.5q-36 0 -69.5 6t-68 21t-60 40t-45.5 62t-23.5 88t4.5 118l18 117q6 40 16.5 75.5t33.5 76.5t54 70t81.5 48.5t113.5 19.5z
M563 397q13 79 -1 136.5t-48.5 87t-73.5 42.5t-83 13q-203 0 -244 -249l-19 -114q-13 -79 1 -136.5t48.5 -87t73.5 -42.5t83 -13q202 0 244 249zM457 455q0 -64 -70 -88q49 -30 49 -88q0 -42 -27.5 -76t-94.5 -34q-47 0 -80.5 21t-33.5 72q0 34 19.5 59.5t58.5 35.5
q-41 27 -41 80q0 44 29 74.5t87 30.5q25 0 46.5 -6.5t39.5 -27t18 -53.5zM353 490q-40 0 -40 -54q0 -32 29 -46l5 -2q35 18 35 65q0 37 -29 37zM314 226q42 0 42 58q0 22 -7.5 31.5t-22.5 16.5l-7 4q-39 -16 -39 -64q0 -46 34 -46z" />
    <glyph glyph-name="uni2468" unicode="&#x2468;" 
d="M356 726q36 0 69.5 -6t68 -21t60 -40t45.5 -62t23.5 -88t-4.5 -118l-18 -117q-6 -40 -16.5 -75.5t-33.5 -76.5t-54 -70t-81.5 -48.5t-113.5 -19.5q-36 0 -69.5 6t-68 21t-60 40t-45.5 62t-23.5 88t4.5 118l18 117q6 40 16.5 75.5t33.5 76.5t54 70t81.5 48.5t113.5 19.5z
M563 397q13 79 -1 136.5t-48.5 87t-73.5 42.5t-83 13q-203 0 -244 -249l-19 -114q-13 -79 1 -136.5t48.5 -87t73.5 -42.5t83 -13q202 0 244 249zM351 542q43 0 74.5 -28t31.5 -98q0 -36 -4.5 -70t-18 -78.5t-45.5 -72t-80 -27.5q-47 0 -75 22.5t-21 76.5l74 11
q-9 -53 27 -53q44 0 60 108q-18 -30 -59 -30q-34 0 -60.5 21t-26.5 74q0 57 29.5 100.5t93.5 43.5zM337 362q27 0 43 32q1 14 1 32q0 61 -33 61q-22 0 -31.5 -25.5t-9.5 -51.5q0 -48 30 -48z" />
    <glyph glyph-name="uni24EA" unicode="&#x24ea;" 
d="M301 -16q-36 0 -69.5 6t-68 21t-60 40t-45.5 62t-23.5 88t4.5 118l18 117q6 40 16.5 75.5t33.5 76.5t54 70t81.5 48.5t113.5 19.5q36 0 69.5 -6t68 -21t60 -40t45.5 -62t23.5 -88t-4.5 -118l-18 -117q-6 -40 -16.5 -75.5t-33.5 -76.5t-54 -70t-81.5 -48.5t-113.5 -19.5z
M300 34q202 0 244 249l19 114q13 79 -1 136.5t-48.5 87t-73.5 42.5t-83 13q-203 0 -244 -249l-19 -114q-13 -79 1 -136.5t48.5 -87t73.5 -42.5t83 -13zM306 169q-105 0 -105 131q0 37 6.5 75t22 77.5t47 64.5t74.5 25q106 0 106 -131q0 -38 -6.5 -75.5t-22 -77.5t-47 -64.5
t-75.5 -24.5zM309 232q26 0 43 37t22 75t5 72q0 62 -31 62q-20 0 -34.5 -21t-21.5 -52.5t-10 -59t-3 -50.5q0 -63 30 -63z" />
    <glyph glyph-name="uni24FF" unicode="&#x24ff;" 
d="M293 -12q-47 0 -88 11t-78 35.5t-59.5 65t-32 98.5t5.5 136l17 102q7 42 19.5 79.5t36.5 76.5t56 67t82 45.5t111 17.5q57 0 106 -17t89.5 -54t56.5 -108t0 -167l-17 -102q-10 -56 -29 -102.5t-53 -90t-91 -68.5t-132 -25zM305 169q44 0 75.5 24.5t47 64.5t22 77.5
t6.5 75.5q0 131 -106 131q-43 0 -75 -25t-47 -64.5t-22 -77.5t-7 -75q0 -71 30 -101t76 -30zM308 232q-30 0 -30 63q0 23 3 50.5t10 59t21.5 52.5t34.5 21q31 0 31 -62q0 -34 -5 -72t-22 -75t-43 -37z" />
    <glyph glyph-name="lozenge" unicode="&#x25ca;" 
d="M312 -17h-100l-133 372l264 372h100l136 -372zM376 626l-185 -271l89 -271l188 271z" />
    <glyph glyph-name="circle" unicode="&#x25cb;" 
d="M274 -18q-121 0 -179.5 81.5t-35.5 217.5l30 167q48 277 288 277q121 0 179.5 -81.5t34.5 -217.5l-29 -167q-48 -277 -288 -277zM279 34q188 0 228 225l28 167q20 113 -24 180t-139 67q-189 0 -228 -225l-29 -167q-20 -113 24.5 -180t139.5 -67z" />
    <glyph glyph-name="uni2776" unicode="&#x2776;" 
d="M293 -12q-47 0 -88 11t-78 35.5t-59.5 65t-32 98.5t5.5 136l17 102q7 42 19.5 79.5t36.5 76.5t56 67t82 45.5t111 17.5q57 0 106 -17t89.5 -54t56.5 -108t0 -167l-17 -102q-10 -56 -29 -102.5t-53 -90t-91 -68.5t-132 -25zM201 176h209l13 64h-66l52 294h-60
q-25 -49 -82 -49h-6l-13 -75h8q35 0 60 20l-34 -190h-70z" />
    <glyph glyph-name="uni2777" unicode="&#x2777;" 
d="M293 -12q-47 0 -88 11t-78 35.5t-59.5 65t-32 98.5t5.5 136l17 102q7 42 19.5 79.5t36.5 76.5t56 67t82 45.5t111 17.5q57 0 106 -17t89.5 -54t56.5 -108t0 -167l-17 -102q-10 -56 -29 -102.5t-53 -90t-91 -68.5t-132 -25zM186 185h227l10 62h-129q80 58 122.5 109.5
t42.5 107.5q0 87 -107 87q-56 0 -87.5 -32.5t-32.5 -89.5l77 -10q0 72 40 72q30 0 30 -39q0 -43 -44 -90.5t-140 -120.5z" />
    <glyph glyph-name="uni2778" unicode="&#x2778;" 
d="M293 -12q-47 0 -88 11t-78 35.5t-59.5 65t-32 98.5t5.5 136l17 102q7 42 19.5 79.5t36.5 76.5t56 67t82 45.5t111 17.5q57 0 106 -17t89.5 -54t56.5 -108t0 -167l-17 -102q-10 -56 -29 -102.5t-53 -90t-91 -68.5t-132 -25zM306 168q124 0 124 121q0 62 -50 70
q37 6 56.5 32t19.5 65q0 86 -108 86q-111 0 -119 -112l77 -8q3 61 41 61q30 0 30 -35q0 -24 -11.5 -41.5t-35.5 -17.5h-19l-9 -58h19q17 0 23 -9t6 -27q0 -67 -43 -67q-35 0 -25 59l-80 -8q-18 -111 104 -111z" />
    <glyph glyph-name="uni2779" unicode="&#x2779;" 
d="M293 -12q-47 0 -88 11t-78 35.5t-59.5 65t-32 98.5t5.5 136l17 102q7 42 19.5 79.5t36.5 76.5t56 67t82 45.5t111 17.5q57 0 106 -17t89.5 -54t56.5 -108t0 -167l-17 -102q-10 -56 -29 -102.5t-53 -90t-91 -68.5t-132 -25zM295 176h77l13 77h42l10 60h-42l40 221h-88
l-158 -223l-9 -58h129zM249 313l104 156l-34 -156h-70z" />
    <glyph glyph-name="uni277A" unicode="&#x277a;" 
d="M293 -12q-47 0 -88 11t-78 35.5t-59.5 65t-32 98.5t5.5 136l17 102q7 42 19.5 79.5t36.5 76.5t56 67t82 45.5t111 17.5q57 0 106 -17t89.5 -54t56.5 -108t0 -167l-17 -102q-10 -56 -29 -102.5t-53 -90t-91 -68.5t-132 -25zM308 172q39 0 66.5 15t40 40.5t17.5 48.5t5 48
q0 100 -79 100q-45 0 -64 -32l20 84h136l9 62h-193l-47 -200l71 -6q11 33 38 33q16 0 24 -9t8 -34q0 -31 -10.5 -61t-34.5 -30q-43 0 -36 51l-77 -8q-8 -49 19.5 -75.5t86.5 -26.5z" />
    <glyph glyph-name="uni277B" unicode="&#x277b;" 
d="M293 -12q-47 0 -88 11t-78 35.5t-59.5 65t-32 98.5t5.5 136l17 102q7 42 19.5 79.5t36.5 76.5t56 67t82 45.5t111 17.5q57 0 106 -17t89.5 -54t56.5 -108t0 -167l-17 -102q-10 -56 -29 -102.5t-53 -90t-91 -68.5t-132 -25zM316 168q35 0 61 14t38.5 37.5t18 46t5.5 46.5
q0 107 -90 107q-32 0 -56 -22q21 89 59 89q33 0 29 -47l76 9q5 46 -22.5 70t-77.5 24q-38 0 -66.5 -19.5t-44 -47t-25.5 -64t-13 -64.5t-3 -55q0 -124 111 -124zM317 226q-53 0 -34 113q22 22 43 22q32 0 32 -51q0 -28 -9.5 -56t-31.5 -28z" />
    <glyph glyph-name="uni277C" unicode="&#x277c;" 
d="M293 -12q-47 0 -88 11t-78 35.5t-59.5 65t-32 98.5t5.5 136l17 102q7 42 19.5 79.5t36.5 76.5t56 67t82 45.5t111 17.5q57 0 106 -17t89.5 -54t56.5 -108t0 -167l-17 -102q-10 -56 -29 -102.5t-53 -90t-91 -68.5t-132 -25zM240 176h81l5 39q21 160 135 267l9 52h-214
l-10 -63h137q-126 -126 -141 -277z" />
    <glyph glyph-name="uni277D" unicode="&#x277d;" 
d="M293 -12q-47 0 -88 11t-78 35.5t-59.5 65t-32 98.5t5.5 136l17 102q7 42 19.5 79.5t36.5 76.5t56 67t82 45.5t111 17.5q57 0 106 -17t89.5 -54t56.5 -108t0 -167l-17 -102q-10 -56 -29 -102.5t-53 -90t-91 -68.5t-132 -25zM313 169q67 0 94.5 34t27.5 76q0 58 -49 88
q70 24 70 88q0 33 -18 53.5t-39.5 27t-46.5 6.5q-58 0 -87 -30.5t-29 -74.5q0 -52 40 -80q-38 -10 -57.5 -35.5t-19.5 -59.5q0 -51 33.5 -72t80.5 -21zM346 387l-5 3q-29 14 -29 46q0 54 40 54q29 0 29 -37q0 -46 -35 -66zM313 226q-34 0 -34 46q0 48 39 64l7 -4
q15 -7 22.5 -16.5t7.5 -31.5q0 -58 -42 -58z" />
    <glyph glyph-name="uni277E" unicode="&#x277e;" 
d="M293 -12q-47 0 -88 11t-78 35.5t-59.5 65t-32 98.5t5.5 136l17 102q7 42 19.5 79.5t36.5 76.5t56 67t82 45.5t111 17.5q57 0 106 -17t89.5 -54t56.5 -108t0 -167l-17 -102q-10 -56 -29 -102.5t-53 -90t-91 -68.5t-132 -25zM311 168q39 0 68 19.5t43.5 47t23.5 65t11 63.5
t2 53q0 70 -31.5 98t-74.5 28q-64 0 -93.5 -43.5t-29.5 -100.5q0 -53 26.5 -74t61.5 -21q40 0 58 31q-14 -109 -60 -109q-36 0 -27 53l-74 -11q-7 -54 21.5 -76.5t74.5 -22.5zM339 362q-30 0 -30 48q0 26 9.5 51.5t31.5 25.5q16 0 24.5 -13t8.5 -34t-1 -46q-16 -32 -43 -32z
" />
    <glyph glyph-name="uniE000" unicode="&#xe000;" 
d="M31 168h95l97 548h452l-16 -89h-360l-80 -459h94l-174 -188z" />
    <glyph glyph-name="g.ss01" 
d="M229 -207q-196 0 -206 168h119q9 -82 95 -82q66 0 92.5 33t36.5 92l16 88q-48 -98 -154 -98q-70 0 -123 53.5t-53 163.5q0 51 13.5 101.5t41 96.5t75.5 74.5t110 28.5q119 0 154 -90l30 78h95l-88 -496q-8 -49 -24 -84.5t-44.5 -65.5t-75 -45.5t-110.5 -15.5zM274 83
q104 0 133 135l7 35q18 85 -13 126t-86 41q-39 0 -68 -20.5t-43.5 -53t-21.5 -65t-7 -65.5q0 -73 29.5 -103t69.5 -30z" />
    <glyph glyph-name="gbreve.ss01" 
d="M302 723q-3 -40 14 -61.5t50 -21.5t56 21t27 62h90q-15 -83 -63.5 -119.5t-113.5 -36.5q-73 0 -115 38t-36 118h91zM229 -207q-196 0 -206 168h119q9 -82 95 -82q66 0 92.5 33t36.5 92l16 88q-48 -98 -154 -98q-70 0 -123 53.5t-53 163.5q0 51 13.5 101.5t41 96.5
t75.5 74.5t110 28.5q119 0 154 -90l30 78h95l-88 -496q-8 -49 -24 -84.5t-44.5 -65.5t-75 -45.5t-110.5 -15.5zM274 83q104 0 133 135l7 35q18 85 -13 126t-86 41q-39 0 -68 -20.5t-43.5 -53t-21.5 -65t-7 -65.5q0 -73 29.5 -103t69.5 -30z" />
    <glyph glyph-name="gcircumflex.ss01" 
d="M523 572h-88l-53 101l-84 -101h-100l129 151h122zM229 -207q-196 0 -206 168h119q9 -82 95 -82q66 0 92.5 33t36.5 92l16 88q-48 -98 -154 -98q-70 0 -123 53.5t-53 163.5q0 51 13.5 101.5t41 96.5t75.5 74.5t110 28.5q119 0 154 -90l30 78h95l-88 -496q-8 -49 -24 -84.5
t-44.5 -65.5t-75 -45.5t-110.5 -15.5zM274 83q104 0 133 135l7 35q18 85 -13 126t-86 41q-39 0 -68 -20.5t-43.5 -53t-21.5 -65t-7 -65.5q0 -73 29.5 -103t69.5 -30z" />
    <glyph glyph-name="gcommaaccent.ss01" 
d="M436 769l15 -44q-39 -9 -54.5 -20t-18.5 -28h74l-20 -110h-135l16 91q7 44 35 71.5t88 39.5zM229 -207q-196 0 -206 168h119q9 -82 95 -82q66 0 92.5 33t36.5 92l16 88q-48 -98 -154 -98q-70 0 -123 53.5t-53 163.5q0 51 13.5 101.5t41 96.5t75.5 74.5t110 28.5
q119 0 154 -90l30 78h95l-88 -496q-8 -49 -24 -84.5t-44.5 -65.5t-75 -45.5t-110.5 -15.5zM274 83q104 0 133 135l7 35q18 85 -13 126t-86 41q-39 0 -68 -20.5t-43.5 -53t-21.5 -65t-7 -65.5q0 -73 29.5 -103t69.5 -30z" />
    <glyph glyph-name="gdotaccent.ss01" 
d="M465 725l-24 -138h-145l24 138h145zM229 -207q-196 0 -206 168h119q9 -82 95 -82q66 0 92.5 33t36.5 92l16 88q-48 -98 -154 -98q-70 0 -123 53.5t-53 163.5q0 51 13.5 101.5t41 96.5t75.5 74.5t110 28.5q119 0 154 -90l30 78h95l-88 -496q-8 -49 -24 -84.5t-44.5 -65.5
t-75 -45.5t-110.5 -15.5zM274 83q104 0 133 135l7 35q18 85 -13 126t-86 41q-39 0 -68 -20.5t-43.5 -53t-21.5 -65t-7 -65.5q0 -73 29.5 -103t69.5 -30z" />
    <glyph glyph-name="g.sups.ss01" 
d="M309 159q-156 0 -165 125h103q8 -59 68 -59q42 0 61.5 20.5t26.5 59.5l13 71q-35 -65 -116 -65q-54 0 -93.5 36.5t-39.5 117.5q0 35 9.5 71t29.5 70.5t56 56t83 21.5q93 0 119 -73l19 64h86l-63 -359q-13 -77 -57 -117t-140 -40zM342 378q73 0 92 93l6 30q11 55 -8.5 83
t-58.5 28q-36 0 -60 -25.5t-32.5 -56t-8.5 -63.5q0 -49 21 -69t49 -20z" />
    <glyph glyph-name="a.sups" 
d="M509 413q-11 -60 -9 -103h-101q0 37 4 60q-34 -69 -130 -69q-50 0 -82 28t-32 72q0 59 43.5 86t123.5 35l98 10l2 15q5 40 -9 54t-42 14q-60 0 -70 -58h-107q7 59 56.5 93t124.5 34q153 0 153 -119q0 -11 -4 -43zM417 485l-63 -6q-88 -7 -88 -64q0 -21 15 -34t40 -13
q35 0 59 22t31 60z" />
    <glyph glyph-name="b.sups" 
d="M334 839l-38 -214q42 59 116 59q63 0 94.5 -42.5t31.5 -106.5q0 -103 -48.5 -168.5t-132.5 -65.5q-36 0 -68 18.5t-43 49.5l-17 -59h-92l93 529h104zM268 474q-8 -44 11 -71.5t56 -27.5q45 0 70 44.5t25 110.5q0 36 -16.5 58t-49.5 22q-36 0 -59 -26.5t-31 -70.5z" />
    <glyph glyph-name="c.sups" 
d="M346 301q-72 0 -125 39t-53 129q0 38 11 74t33.5 68.5t64.5 52.5t98 20q72 0 119.5 -32t51.5 -98l-102 -18q-3 71 -70 71q-52 0 -75.5 -41.5t-23.5 -94.5q0 -90 74 -90q63 0 80 73l97 -22q-14 -61 -60 -96t-120 -35z" />
    <glyph glyph-name="d.sups" 
d="M406 310l12 63q-39 -72 -124 -72q-62 0 -94.5 42.5t-32.5 106.5q0 102 49 168t134 66q35 0 65 -17t40 -48l39 220h103l-93 -529h-98zM438 512q8 42 -11.5 70t-55.5 28q-45 0 -70 -44t-25 -111q0 -36 16.5 -58t49.5 -22q69 0 88 96z" />
    <glyph glyph-name="e.sups" 
d="M530 471h-260q-3 -44 19 -68.5t62 -24.5q60 0 89 56l74 -35q-53 -98 -173 -98q-81 0 -125 43.5t-44 124.5q0 90 53 152.5t150 62.5q75 0 119.5 -39t44.5 -110q0 -22 -9 -64zM368 617q-73 0 -91 -90h158q3 11 3 21q0 33 -19.5 51t-50.5 18z" />
    <glyph glyph-name="f.sups" 
d="M560 675l-13 -74h-134l-51 -291h-104l52 291h-115l13 74h115l6 36q26 130 177 130q42 0 82 -9l-13 -76q-22 6 -55 6q-42 0 -62.5 -13.5t-25.5 -45.5l-5 -28h133z" />
    <glyph glyph-name="g.sups" 
d="M571 733q10 0 16 -1l-13 -72q-18 5 -31 5q-34 0 -54 -16q34 -29 34 -78q0 -57 -46.5 -94.5t-131.5 -37.5q-44 0 -80 12q-17 -9 -17 -25q0 -31 46 -32l97 -1q62 -1 92 -27t30 -69q0 -65 -60 -101t-164 -36q-85 0 -130.5 22.5t-45.5 62.5q0 59 89 73q-46 19 -46 63
q0 32 23 53.5t59 28.5q-50 30 -50 89q0 57 46.5 94.5t131.5 37.5q51 0 86 -14q33 63 119 63zM351 496q33 0 52 20.5t19 50.5q0 31 -18 45.5t-45 14.5q-33 0 -51.5 -20.5t-18.5 -50.5q0 -31 17.5 -45.5t44.5 -14.5zM355 308l-104 1q-7 0 -10 1q-34 -11 -34 -42q0 -50 100 -50
q105 0 105 52q0 36 -57 38z" />
    <glyph glyph-name="h.sups" 
d="M305 608q18 34 51.5 55t76.5 21q49 0 77 -27q36 -34 21 -122l-39 -225h-105l39 218q7 38 -7.5 56t-43.5 18q-36 0 -57.5 -24.5t-27.5 -59.5l-37 -208h-104l93 529h105z" />
    <glyph glyph-name="i.sups" 
d="M464 839l-18 -109h-119l19 109h118zM151 310l13 76h116l37 213h-104l12 76h209l-51 -289h121l-13 -76h-340z" />
    <glyph glyph-name="j.sups" 
d="M552 839l-19 -109h-119l19 109h119zM158 178l14 80q39 -11 75 -11q92 0 106 80l50 272h-151l13 76h255l-64 -358q-27 -151 -201 -151q-59 0 -97 12z" />
    <glyph glyph-name="k.sups" 
d="M562 675l-155 -141l96 -224h-118l-61 167l-61 -56l-20 -111h-104l93 529h104l-56 -316l162 152h120z" />
    <glyph glyph-name="l.sups" 
d="M151 310l13 76h116l67 378h-105l13 75h209l-80 -453h120l-13 -76h-340z" />
    <glyph glyph-name="m.sups" 
d="M118 310l64 365h79l-9 -51q28 60 87 60q65 0 68 -59q30 59 94 59q33 0 52 -21t19 -58q0 -19 -5 -48l-44 -247h-85l41 237q7 28 2.5 45.5t-27.5 17.5q-39 0 -48 -49l-44 -251h-84l43 244q6 26 0.5 41t-27.5 15q-38 0 -47 -56l-44 -244h-85z" />
    <glyph glyph-name="n.sups" 
d="M303 608q19 34 54 55t77 21q49 0 76 -24t27 -71q0 -23 -5 -46l-40 -233h-104l39 217q13 75 -51 75q-70 0 -86 -89l-36 -203h-104l64 365h100z" />
    <glyph glyph-name="o.sups" 
d="M334 301q-84 0 -128.5 42t-44.5 118q0 103 59.5 163t150.5 60q85 0 129.5 -41t44.5 -115q0 -105 -59 -166t-152 -61zM337 377q100 0 100 151q0 80 -68 80q-50 0 -76 -40t-26 -106q0 -85 70 -85z" />
    <glyph glyph-name="p.sups" 
d="M301 675l-11 -58q42 67 125 67q62 0 93 -42.5t31 -112.5q0 -94 -50 -161t-132 -67q-38 0 -66.5 16t-38.5 45l-36 -194h-104l90 507h99zM270 481q-3 -23 -3 -31q0 -36 17.5 -55.5t48.5 -19.5q48 0 73 44.5t25 102.5q0 88 -67 88q-37 0 -59.5 -26t-29.5 -71z" />
    <glyph glyph-name="q.sups" 
d="M375 168l36 202q-36 -69 -114 -69q-65 0 -97.5 43t-32.5 113q0 95 48.5 161t130.5 66q85 0 110 -67l19 58h93l-89 -507h-104zM438 511q2 16 2 24q0 33 -18.5 54t-48.5 21q-45 0 -71 -45t-26 -104q0 -86 65 -86q36 0 59 26t31 70z" />
    <glyph glyph-name="r.sups" 
d="M300 563q57 119 178 119q45 0 71 -12l-16 -92q-24 13 -81 13q-64 0 -110.5 -38t-60.5 -115l-23 -128h-103l64 365h101z" />
    <glyph glyph-name="s.sups" 
d="M339 301q-63 0 -111.5 23t-69.5 64l71 52q33 -66 121 -66q65 0 65 41q0 17 -10 25.5t-34 12.5l-63 10q-98 15 -98 99q0 59 47 90.5t121 31.5q59 0 103.5 -19t64.5 -52l-67 -54q-30 55 -110 55q-59 0 -59 -39q0 -30 42 -36l69 -11q95 -16 95 -98q0 -60 -47.5 -94.5
t-129.5 -34.5z" />
    <glyph glyph-name="t.sups" 
d="M204 603l13 72h99l16 91l108 37l-23 -128h134l-10 -72h-136l-25 -140q-15 -74 70 -74q28 0 54 6l-16 -79q-31 -11 -73 -11q-164 0 -138 146l27 152h-100z" />
    <glyph glyph-name="u.sups" 
d="M403 371q-17 -30 -50.5 -50t-75.5 -20q-56 0 -84 29q-33 33 -20 111l42 234h103l-38 -222q-13 -72 51 -72q68 0 83 80l37 214h104l-64 -365h-99z" />
    <glyph glyph-name="v.sups" 
d="M264 310l-79 365h110l33 -225q5 -53 5 -55h2q9 27 21 51l118 229h111l-202 -365h-119z" />
    <glyph glyph-name="w.sups" 
d="M167 675h87l-11 -232q0 -5 -1 -25.5t-1 -27.5h2q16 48 18 55l78 230h87l-2 -230v-56h4q2 15 14 54l68 232h93l-132 -365h-104v225q-1 11 3 51h-2q-8 -32 -15 -51l-79 -225h-105z" />
    <glyph glyph-name="x.sups" 
d="M343 434l-105 -124h-114l168 190l-95 175h117l50 -111l89 111h117l-155 -173l103 -192h-116z" />
    <glyph glyph-name="y.sups" 
d="M306 675l34 -276l127 276h109l-215 -402q-35 -67 -79 -88.5t-110 -21.5q-25 0 -51 8l12 76q26 -7 43 -7q58 0 83 52l8 16l-74 367h113z" />
    <glyph glyph-name="z.sups" 
d="M164 373l238 226h-188l14 76h312l-11 -61l-234 -227h206l-13 -77h-334z" />
    <glyph glyph-name="nine.001" horiz-adv-x="322" 
d="M184 412q134 0 134 -179q0 -35 -7 -71.5t-24 -77.5t-54.5 -67t-89.5 -26q-49 0 -84 25t-40 83l82 11q1 -29 15 -42t33 -13q54 0 74 106q-29 -17 -67 -17q-43 0 -78 32.5t-35 95.5q0 54 34.5 97t106.5 43zM125 273q0 -69 49 -69q34 0 58 20l2 15q19 111 -49 111
q-31 0 -45.5 -23.5t-14.5 -53.5z" />
    <glyph glyph-name="zero.case" 
d="M358 727q124 0 183.5 -69t59.5 -195q0 -221 -74.5 -349.5t-227.5 -128.5q-124 0 -184 68.5t-60 193.5q0 222 75 351t228 129zM358 631q-94 0 -138 -104t-44 -280v-20l294 323q-26 81 -112 81zM299 81q94 0 138 103.5t44 278.5v20l-294 -323q25 -79 112 -79z" />
    <glyph glyph-name="one.case" 
d="M359 103h168l-18 -103h-468l18 103h182l77 444q-25 -20 -81.5 -36t-95.5 -16h-13l19 108h6q55 1 120.5 33t91.5 74h98z" />
    <glyph glyph-name="two.case" 
d="M42 97q181 129 268 203q76 64 110 111.5t34 110.5q0 43 -27 73.5t-74 30.5q-51 0 -84.5 -33t-33.5 -107q0 -15 2 -33l-120 15q-2 24 -2 38q0 106 71 163.5t172 57.5q105 0 163.5 -53t58.5 -136q0 -39 -10.5 -74t-23.5 -59t-42 -55t-48 -47.5t-59 -50.5q-63 -53 -196 -147
h318l-18 -105h-476z" />
    <glyph glyph-name="three.case" 
d="M285 411h39q65 0 100 35t35 85q0 47 -27.5 72t-75.5 25q-55 0 -91 -37.5t-37 -110.5l-115 20q4 107 74.5 167t182.5 60q95 0 154.5 -47t59.5 -125q0 -72 -42.5 -124t-118.5 -68q55 -10 90.5 -53t35.5 -97q0 -103 -72.5 -165.5t-186.5 -62.5q-112 0 -175 55.5t-64 165.5
l124 12q-1 -66 34 -100t89 -34q56 0 91 32.5t35 90.5q0 42 -25.5 76.5t-85.5 34.5h-44z" />
    <glyph glyph-name="four.case" 
d="M562 169h-107l-29 -169h-114l29 169h-316l15 85l378 456h131l-78 -447h107zM357 263l56 322q-22 -35 -58 -81l-146 -180q-42 -52 -51 -61h199z" />
    <glyph glyph-name="five.case" 
d="M595 710l-18 -104h-312l-63 -222q61 92 164 92q83 0 133.5 -58t50.5 -154q0 -124 -72.5 -201.5t-196.5 -77.5q-100 0 -164 49.5t-67 135.5l123 15q4 -47 35 -74.5t78 -26.5q67 0 104.5 43.5t37.5 125.5q0 57 -28 90.5t-80 33.5q-93 0 -128 -97l-109 12l111 418h401z" />
    <glyph glyph-name="six.case" 
d="M367 477q83 0 142.5 -55.5t59.5 -168.5q0 -110 -67 -189t-188 -79q-50 0 -91 15t-77 48.5t-56 96t-20 148.5q0 61 9.5 119.5t32.5 116.5t57.5 101t89 70t122.5 27q86 0 147.5 -43.5t71.5 -137.5l-118 -22q-18 108 -107 106q-81 0 -125.5 -70t-56.5 -187q57 104 174 104z
M315 82q48 0 79.5 28t42 63t10.5 75q0 72 -34 103t-81 31q-45 0 -83 -26t-60 -76q1 -198 126 -198z" />
    <glyph glyph-name="seven.case" 
d="M135 604l19 106h474l-18 -98q-117 -108 -208 -269.5t-126 -342.5h-134l1 6q31 153 124.5 314.5t219.5 283.5h-352z" />
    <glyph glyph-name="eight.case" 
d="M451 381q108 -53 108 -178q0 -94 -68 -156t-194 -62q-110 0 -183 49.5t-73 148.5q0 71 42.5 121.5t125.5 67.5q-84 53 -84 155q0 83 59.5 141.5t175.5 58.5q98 0 165 -45t67 -134q0 -59 -34 -103.5t-107 -63.5zM357 640q-62 0 -86 -33t-24 -74q0 -82 86 -110l37 -12
q100 33 100 120q0 58 -32 83.5t-81 25.5zM303 78q67 0 98 34.5t31 85.5q0 90 -86 120l-55 19q-121 -31 -121 -138q0 -34 11.5 -59t32 -38t42.5 -18.5t47 -5.5z" />
    <glyph glyph-name="nine.case" 
d="M341 727q52 0 93.5 -15.5t77 -50t55 -98.5t19.5 -154q0 -34 -2.5 -67.5t-11 -77t-22 -81t-37.5 -75t-55 -64t-77.5 -43t-102.5 -16.5q-90 0 -154.5 45t-72.5 143l118 22q13 -113 116 -113q45 0 79.5 23.5t54.5 64.5t30.5 84.5t15.5 94.5q-30 -42 -65 -65t-91 -23
q-89 0 -152 57.5t-63 161.5q0 45 13 86.5t40.5 78.5t77.5 59.5t116 22.5zM335 356q85 0 134 96q-7 180 -128 180q-36 0 -62 -14t-39 -37t-18.5 -46.5t-5.5 -49.5q0 -66 32.5 -97.5t86.5 -31.5z" />
    <glyph glyph-name="zero.osf" 
d="M338 550q46 0 86.5 -11.5t77.5 -37t58.5 -74.5t21.5 -117q0 -58 -16 -113t-49 -104t-92 -78.5t-137 -29.5q-47 0 -87 11.5t-77.5 37t-59 74.5t-21.5 117q0 58 16 113t49.5 104t92.5 78.5t137 29.5zM334 456q-47 0 -82 -23t-53 -59t-26 -73t-8 -73q0 -31 7 -61l250 258
q-32 31 -88 31zM291 79q47 0 82.5 23t53.5 59t26 73t8 73q0 38 -10 70l-253 -260q31 -38 93 -38z" />
    <glyph glyph-name="one.osf" 
d="M362 98h169l-17 -98h-469l18 98h182l49 279q-27 -22 -78.5 -37t-95.5 -15h-12l18 105h6q62 0 120 29.5t88 75.5h99z" />
    <glyph glyph-name="two.osf" 
d="M14 0l13 76q158 73 240 121q85 50 121 89.5t36 85.5q0 81 -93 81q-61 0 -86.5 -31t-25.5 -72q0 -19 3 -37l-123 14q-3 16 -3 31q0 32 12.5 63.5t38.5 61.5t76 48.5t116 18.5q89 0 151.5 -39t62.5 -125q0 -54 -26.5 -94.5t-81.5 -79.5q-58 -43 -200 -112h284l-18 -100
h-497z" />
    <glyph glyph-name="three.osf" 
d="M275 -165q-36 0 -69.5 5.5t-68.5 21t-60 38.5t-40.5 62t-13.5 89l125 13q0 -40 12.5 -68t33.5 -40.5t41 -17.5t42 -5q66 0 94 33t28 80q0 106 -118 106h-36l16 91h46q67 0 97 33t30 82q0 95 -102 95q-122 0 -132 -139l-115 19q8 100 74 158.5t180 58.5q30 0 58.5 -4
t59.5 -16t54 -30.5t38 -50t15 -71.5q0 -70 -43.5 -119.5t-118.5 -61.5q125 -29 125 -154q0 -84 -63.5 -146t-188.5 -62z" />
    <glyph glyph-name="four.osf" 
d="M289 -150l30 172h-321l15 83l375 430h136l-74 -421h108l-16 -92h-108l-30 -172h-115zM126 114h209l40 221q9 57 18 90h-2q-23 -35 -59 -78l-144 -168q-36 -42 -62 -65z" />
    <glyph glyph-name="five.osf" 
d="M262 -165q-42 0 -80 9t-73 28.5t-58 56t-28 85.5l125 17q17 -96 117 -96q41 0 70.5 14t45 38t22.5 50t7 55q0 129 -112 129q-97 0 -130 -97l-111 11l113 400h400l-18 -101h-310l-59 -205q21 39 62.5 62.5t96.5 23.5q34 0 65 -9.5t61.5 -31t48.5 -64.5t18 -102
q0 -52 -15.5 -99t-47 -87t-85.5 -63.5t-125 -23.5z" />
    <glyph glyph-name="six.osf" 
d="M361 466q83 0 142.5 -54.5t59.5 -164.5q0 -108 -64.5 -185t-183.5 -77q-50 0 -92 14.5t-78 47.5t-56.5 94t-20.5 146q0 60 9 116.5t32 113.5t57 99t88.5 68t123.5 26q87 0 147.5 -43t71.5 -134l-118 -22q-16 102 -106 102q-155 0 -179 -245q26 50 71 74t96 24zM316 82
q47 0 76.5 27t39.5 60.5t10 72.5q0 70 -34 100t-81 30q-93 0 -138 -95l-1 -12q-4 -94 32.5 -138.5t95.5 -44.5z" />
    <glyph glyph-name="seven.osf" 
d="M110 -150l2 11q64 341 344 567h-351l19 107h480l-17 -95q-147 -119 -226.5 -251.5t-111.5 -317.5l-4 -21h-135z" />
    <glyph glyph-name="eight.osf" 
d="M451 373q107 -55 107 -174q0 -93 -67.5 -153.5t-193.5 -60.5q-110 0 -184 49t-74 145q0 69 42.5 118t125.5 66q-84 52 -84 151q0 82 58.5 139t175.5 57q98 0 165.5 -43.5t67.5 -131.5q0 -57 -33.5 -100.5t-105.5 -61.5zM355 623q-34 0 -57 -10.5t-34 -27.5t-15 -32.5
t-4 -32.5q0 -76 87 -106l38 -12q98 33 98 116q0 57 -32 81t-81 24zM303 78q67 0 97.5 33t30.5 83q0 85 -87 117l-55 18q-120 -30 -120 -134q0 -63 39 -90t95 -27z" />
    <glyph glyph-name="nine.osf" 
d="M315 550q52 0 94.5 -15t78.5 -49t56 -96.5t20 -150.5q0 -47 -6 -93.5t-26 -105t-52 -102t-91 -73.5t-136 -30q-56 0 -102 15.5t-81.5 56t-39.5 102.5l118 22q14 -102 112 -102q163 0 182 251q-30 -41 -64 -63t-92 -22q-91 0 -156.5 56t-65.5 158q0 44 13.5 84.5t41 76.5
t78.5 58t118 22zM312 189q88 0 137 96q4 90 -33 130t-99 40q-38 0 -65.5 -13.5t-41 -35.5t-19.5 -44.5t-6 -47.5q0 -63 35 -94t92 -31z" />
    <glyph glyph-name="zero.subs" 
d="M308 378q187 0 187 -191q0 -163 -58 -250.5t-173 -87.5q-186 0 -186 191q0 163 57.5 250.5t172.5 87.5zM309 301q-64 0 -96 -68.5t-32 -192.5v-16l204 220q-17 57 -76 57zM264 -73q64 0 96 68.5t32 191.5v16l-204 -220q17 -56 76 -56z" />
    <glyph glyph-name="one.subs" 
d="M311 -60h129l-14 -80h-368l14 80h137l54 304q-21 -16 -61 -27.5t-72 -11.5h-7l15 90h4q43 1 90 21.5t69 50.5h86z" />
    <glyph glyph-name="two.subs" 
d="M71 -62q142 93 213 150q91 75 91 139q0 33 -18.5 51t-51.5 18q-37 0 -58.5 -22.5t-21.5 -60.5q0 -13 3 -29l-103 10q-2 13 -2 31q0 69 51 111t137 42q80 0 125.5 -37.5t45.5 -105.5q0 -46 -25.5 -86.5t-81.5 -84.5q-86 -69 -176 -119h242l-13 -85h-371z" />
    <glyph glyph-name="three.subs" 
d="M250 154h29q44 0 70 20.5t26 58.5q0 31 -18.5 48t-51.5 17q-40 0 -62 -24.5t-22 -70.5l-103 13q3 78 55 120t139 42q80 0 126 -34t46 -94q0 -55 -35.5 -90t-86.5 -43q43 -7 69 -38t26 -74q0 -71 -54 -113.5t-141 -42.5q-184 0 -187 161l109 9q-1 -46 22 -67.5t61 -21.5
q40 0 61 21t21 56q0 33 -20 54t-57 21h-35z" />
    <glyph glyph-name="four.subs" 
d="M471 -24h-77l-21 -116h-98l21 116h-243l13 72l285 319h112l-56 -313h77zM309 54l40 220q-21 -32 -39 -53l-115 -129q-23 -27 -37 -38h151z" />
    <glyph glyph-name="five.subs" 
d="M491 367l-15 -83h-234l-43 -145q43 62 121 62q67 0 104 -40t37 -113q0 -91 -56.5 -145t-152.5 -54q-81 0 -129.5 38t-48.5 102l101 11q2 -33 24 -51.5t58 -18.5q45 0 72.5 29t27.5 77q0 41 -21 63.5t-59 22.5q-63 0 -87 -62l-89 10l82 297h308z" />
    <glyph glyph-name="six.subs" 
d="M315 203q64 0 110 -38.5t46 -123.5q0 -80 -50.5 -136t-140.5 -56q-83 0 -138 51t-55 170q0 60 12.5 112.5t39 98t74 71.5t111.5 26q68 0 115 -31.5t54 -101.5l-101 -15q-10 68 -74 68q-107 0 -124 -162q41 67 121 67zM279 -70q46 0 67 31.5t21 76.5t-23.5 66t-60.5 21
q-62 0 -93 -60q-2 -67 22 -101t67 -34z" />
    <glyph glyph-name="seven.subs" 
d="M135 280l15 87h362l-16 -82q-85 -75 -150 -187t-89 -238h-114v8q17 107 85.5 216t167.5 196h-261z" />
    <glyph glyph-name="eight.subs" 
d="M387 134q83 -39 83 -126q0 -70 -53 -114.5t-152 -44.5q-87 0 -145 35.5t-58 104.5q0 103 124 131q-65 37 -65 112q0 64 46.5 105t138.5 41q78 0 131 -31t53 -96q0 -91 -103 -117zM306 306q-81 0 -81 -71q0 -53 66 -72l29 -8q67 24 67 81q0 70 -81 70zM269 -73q48 0 70 23
t22 56q0 56 -73 79l-35 10q-78 -22 -78 -92q0 -41 27.5 -58.5t66.5 -17.5z" />
    <glyph glyph-name="nine.subs" 
d="M294 378q192 0 192 -224q0 -36 -4 -70t-19 -79t-39 -77.5t-68.5 -55.5t-104.5 -23q-69 0 -119.5 31.5t-58.5 104.5l101 15q8 -71 83 -71q31 0 54 14.5t35.5 41.5t19 52.5t10.5 59.5q-42 -55 -109 -55q-64 0 -114 40.5t-50 119.5q0 31 9.5 60.5t30.5 56t60 43t91 16.5z
M288 117q65 0 97 63q5 120 -88 120q-50 0 -71 -29t-21 -68q0 -42 23.5 -64t59.5 -22z" />
    <glyph glyph-name="zero.dnom" 
d="M316 395q147 0 147 -149q0 -123 -45 -188.5t-135 -65.5q-147 0 -147 148q0 123 45.5 189t134.5 66zM316 333q-48 0 -72.5 -50.5t-24.5 -142.5q0 -12 1 -17l156 164q-12 46 -60 46zM283 53q48 0 72.5 51t24.5 142v14l-156 -164q13 -43 59 -43z" />
    <glyph glyph-name="one.dnom" 
d="M322 64h100l-11 -64h-289l11 64h108l40 224q-16 -12 -47.5 -20.5t-56.5 -8.5h-5l12 73h2q34 0 70.5 15t53.5 39h70z" />
    <glyph glyph-name="two.dnom" 
d="M132 62q123 69 179 115.5t56 97.5q0 24 -14.5 38t-40.5 14q-27 0 -43 -15.5t-16 -43.5q0 -8 2 -22l-82 8q-2 20 -2 23q0 52 40 85t106 33q64 0 100 -30t36 -82q0 -34 -15.5 -64.5t-48 -58t-62 -47t-77.5 -46.5h173l-11 -67h-290z" />
    <glyph glyph-name="three.dnom" 
d="M270 224h23q34 0 54 14.5t20 41.5q0 50 -54 50q-63 0 -63 -70l-83 10q2 60 43 92.5t110 32.5q62 0 98 -26.5t36 -75.5q0 -40 -27.5 -67t-66.5 -32q34 -4 54 -27.5t20 -56.5q0 -54 -42.5 -86t-111.5 -32q-144 0 -145 122l87 7q-1 -65 62 -65q32 0 47.5 16t15.5 42
q0 25 -15 39t-44 14h-27z" />
    <glyph glyph-name="four.dnom" 
d="M445 87h-60l-15 -87h-79l16 87h-189l9 58l221 241h90l-42 -237h59zM317 149l30 163l-149 -163h119z" />
    <glyph glyph-name="five.dnom" 
d="M459 386l-12 -68h-182l-32 -105q34 47 94 47q52 0 81 -30.5t29 -86.5q0 -71 -43.5 -111t-119.5 -40q-64 0 -102 29t-39 78l82 9q1 -24 18 -38t45 -14q34 0 55 21t21 56q0 63 -62 63q-48 0 -67 -45l-70 8l62 227h242z" />
    <glyph glyph-name="six.dnom" 
d="M322 261q50 0 86 -29t36 -94q0 -61 -39.5 -103.5t-109.5 -42.5q-65 0 -108.5 38.5t-43.5 128.5q0 63 16 113.5t59.5 86.5t109.5 36q52 0 89.5 -24.5t43.5 -78.5l-81 -12q-7 50 -57 50q-77 0 -92 -116q35 47 91 47zM294 56q35 0 51 23t16 56t-18.5 49t-45.5 16
q-47 0 -71 -42q-3 -50 16 -76t52 -26z" />
    <glyph glyph-name="seven.dnom" 
d="M180 315l12 71h282l-11 -67q-69 -55 -118.5 -139t-65.5 -180h-91v7q11 82 63 164t132 144h-203z" />
    <glyph glyph-name="eight.dnom" 
d="M377 210q68 -29 68 -96q0 -55 -41.5 -88.5t-119.5 -33.5q-68 0 -114 27t-46 79q0 75 99 96q-54 27 -54 88q0 49 36.5 81t108.5 32q61 0 103.5 -24.5t42.5 -73.5q0 -66 -83 -87zM314 336q-63 0 -63 -51q0 -40 53 -53l24 -7q48 19 48 60q0 51 -62 51zM287 54q36 0 53 17
t17 41q0 42 -62 59l-23 6q-58 -17 -58 -68q0 -29 21.5 -42t51.5 -13z" />
    <glyph glyph-name="nine.dnom" 
d="M305 395q152 0 152 -172q0 -35 -6.5 -68.5t-23.5 -73.5t-56 -64.5t-96 -24.5q-56 0 -95.5 23.5t-45.5 78.5l80 12q5 -50 64 -50q32 0 52.5 22t27.5 46t11 59q-33 -46 -89 -46q-47 0 -86 31t-39 91q0 53 36 94.5t114 41.5zM301 198q47 0 75 47q4 87 -68 87
q-37 0 -54 -20.5t-17 -50.5q0 -31 18.5 -47t45.5 -16z" />
    <glyph glyph-name="zero.numr" 
d="M373 719q147 0 147 -149q0 -123 -45 -188.5t-135 -65.5q-147 0 -147 148q0 123 45.5 189t134.5 66zM373 657q-48 0 -72.5 -50.5t-24.5 -142.5q0 -12 1 -17l156 164q-12 46 -60 46zM340 377q48 0 72.5 51t24.5 142v14l-156 -164q13 -43 59 -43z" />
    <glyph glyph-name="one.numr" 
d="M379 388h100l-11 -64h-289l11 64h108l40 224q-16 -12 -47.5 -20.5t-56.5 -8.5h-5l12 73h2q34 0 70.5 15t53.5 39h70z" />
    <glyph glyph-name="two.numr" 
d="M189 386q123 69 179 115.5t56 97.5q0 24 -14.5 38t-40.5 14q-27 0 -43 -15.5t-16 -43.5q0 -8 2 -22l-82 8q-2 20 -2 23q0 52 40 85t106 33q64 0 100 -30t36 -82q0 -34 -15.5 -64.5t-48 -58t-62 -47t-77.5 -46.5h173l-11 -67h-290z" />
    <glyph glyph-name="three.numr" 
d="M327 548h23q34 0 54 14.5t20 41.5q0 50 -54 50q-63 0 -63 -70l-83 10q2 60 43 92.5t110 32.5q62 0 98 -26.5t36 -75.5q0 -40 -27.5 -67t-66.5 -32q34 -4 54 -27.5t20 -56.5q0 -54 -42.5 -86t-111.5 -32q-144 0 -145 122l87 7q-1 -65 62 -65q32 0 47.5 16t15.5 42
q0 25 -15 39t-44 14h-27z" />
    <glyph glyph-name="four.numr" 
d="M502 411h-60l-15 -87h-79l16 87h-189l9 58l221 241h90l-42 -237h59zM374 473l30 163l-149 -163h119z" />
    <glyph glyph-name="five.numr" 
d="M516 710l-12 -68h-182l-32 -105q34 47 94 47q52 0 81 -30.5t29 -86.5q0 -71 -43.5 -111t-119.5 -40q-64 0 -102 29t-39 78l82 9q1 -24 18 -38t45 -14q34 0 55 21t21 56q0 63 -62 63q-48 0 -67 -45l-70 8l62 227h242z" />
    <glyph glyph-name="six.numr" 
d="M379 585q50 0 86 -29t36 -94q0 -61 -39.5 -103.5t-109.5 -42.5q-65 0 -108.5 38.5t-43.5 128.5q0 63 16 113.5t59.5 86.5t109.5 36q52 0 89.5 -24.5t43.5 -78.5l-81 -12q-7 50 -57 50q-77 0 -92 -116q35 47 91 47zM351 380q35 0 51 23t16 56t-18.5 49t-45.5 16
q-47 0 -71 -42q-3 -50 16 -76t52 -26z" />
    <glyph glyph-name="seven.numr" 
d="M237 639l12 71h282l-11 -67q-69 -55 -118.5 -139t-65.5 -180h-91v7q11 82 63 164t132 144h-203z" />
    <glyph glyph-name="eight.numr" 
d="M434 534q68 -29 68 -96q0 -55 -41.5 -88.5t-119.5 -33.5q-68 0 -114 27t-46 79q0 75 99 96q-54 27 -54 88q0 49 36.5 81t108.5 32q61 0 103.5 -24.5t42.5 -73.5q0 -66 -83 -87zM371 660q-63 0 -63 -51q0 -40 53 -53l24 -7q48 19 48 60q0 51 -62 51zM344 378q36 0 53 17
t17 41q0 42 -62 59l-23 6q-58 -17 -58 -68q0 -29 21.5 -42t51.5 -13z" />
    <glyph glyph-name="nine.numr" 
d="M362 719q152 0 152 -172q0 -35 -6.5 -68.5t-23.5 -73.5t-56 -64.5t-96 -24.5q-56 0 -95.5 23.5t-45.5 78.5l80 12q5 -50 64 -50q32 0 52.5 22t27.5 46t11 59q-33 -46 -89 -46q-47 0 -86 31t-39 91q0 53 36 94.5t114 41.5zM358 522q47 0 75 47q4 87 -68 87
q-37 0 -54 -20.5t-17 -50.5q0 -31 18.5 -47t45.5 -16z" />
    <glyph glyph-name="zero.sups" 
d="M387 828q187 0 187 -191q0 -163 -58 -250.5t-173 -87.5q-186 0 -186 191q0 163 57.5 250.5t172.5 87.5zM388 751q-64 0 -96 -68.5t-32 -192.5v-16l204 220q-16 57 -76 57zM343 377q64 0 96 68.5t32 191.5v16l-204 -220q17 -56 76 -56z" />
    <glyph glyph-name="one.sups" 
d="M390 390h129l-14 -80h-368l14 80h137l54 304q-21 -16 -61 -27.5t-72 -11.5h-7l15 90h4q43 1 90 21.5t69 50.5h86z" />
    <glyph glyph-name="two.sups" 
d="M150 388q142 93 213 150q91 75 91 139q0 33 -18.5 51t-51.5 18q-37 0 -58.5 -22.5t-21.5 -60.5q0 -13 3 -29l-103 10q-2 13 -2 31q0 69 51 111t137 42q80 0 125.5 -37.5t45.5 -105.5q0 -46 -25.5 -86.5t-81.5 -84.5q-86 -69 -176 -119h242l-13 -85h-371z" />
    <glyph glyph-name="three.sups" 
d="M329 604h29q44 0 70 20.5t26 58.5q0 31 -18.5 48t-51.5 17q-40 0 -62 -24.5t-22 -70.5l-103 13q3 78 55 120t139 42q80 0 126 -34t46 -94q0 -55 -35.5 -90t-86.5 -43q43 -7 69 -38t26 -74q0 -71 -54 -113.5t-141 -42.5q-184 0 -187 161l109 9q-1 -46 22 -67.5t61 -21.5
q40 0 61 21t21 56q0 33 -20 54t-57 21h-35z" />
    <glyph glyph-name="four.sups" 
d="M550 426h-77l-21 -116h-98l21 116h-243l13 72l285 319h112l-56 -313h77zM388 504l40 220q-21 -32 -39 -53l-115 -129q-23 -27 -37 -38h151z" />
    <glyph glyph-name="five.sups" 
d="M570 817l-15 -83h-234l-43 -145q43 62 121 62q67 0 104 -40t37 -113q0 -91 -56.5 -145t-152.5 -54q-81 0 -129.5 38t-48.5 102l101 11q2 -33 24 -51.5t58 -18.5q45 0 72.5 29t27.5 77q0 41 -21 63.5t-59 22.5q-63 0 -87 -62l-89 10l82 297h308z" />
    <glyph glyph-name="six.sups" 
d="M394 653q64 0 110 -38.5t46 -123.5q0 -80 -50.5 -136t-140.5 -56q-83 0 -138 51t-55 170q0 60 12.5 112.5t39 98t74 71.5t111.5 26q68 0 115 -31.5t54 -101.5l-101 -15q-10 68 -74 68q-107 0 -124 -162q41 67 121 67zM358 380q46 0 67 31.5t21 76.5t-23.5 66t-60.5 21
q-62 0 -93 -60q-2 -67 22 -101t67 -34z" />
    <glyph glyph-name="seven.sups" 
d="M214 730l15 87h362l-16 -82q-85 -75 -150 -187t-89 -238h-114v8q17 107 85.5 216t167.5 196h-261z" />
    <glyph glyph-name="eight.sups" 
d="M466 584q83 -39 83 -126q0 -70 -53 -114.5t-152 -44.5q-87 0 -145 35.5t-58 104.5q0 103 124 131q-65 37 -65 112q0 64 46.5 105t138.5 41q78 0 131 -31t53 -96q0 -91 -103 -117zM385 756q-81 0 -81 -71q0 -53 66 -72l29 -8q67 24 67 81q0 70 -81 70zM348 377q48 0 70 23
t22 56q0 56 -73 79l-35 10q-78 -22 -78 -92q0 -41 27.5 -58.5t66.5 -17.5z" />
    <glyph glyph-name="nine.sups" 
d="M373 828q192 0 192 -224q0 -36 -4 -70t-19 -79t-39 -77.5t-68.5 -55.5t-104.5 -23q-69 0 -119.5 31.5t-58.5 104.5l101 15q8 -71 83 -71q31 0 54 14.5t35.5 41.5t19 52.5t10.5 59.5q-42 -55 -109 -55q-64 0 -114 40.5t-50 119.5q0 31 9.5 60.5t30.5 56t60 43t91 16.5z
M367 567q65 0 97 63q5 120 -88 120q-50 0 -71 -29t-21 -68q0 -42 23.5 -64t59.5 -22z" />
    <glyph glyph-name="backslash.case" 
d="M466 -25l-382 768h108l382 -768h-108z" />
    <glyph glyph-name="bullet.case" 
d="M328 244q-50 0 -81.5 30.5t-31.5 79.5t31.5 79.5t81.5 30.5t82 -30.5t32 -79.5t-32 -79.5t-82 -30.5z" />
    <glyph glyph-name="colon.case" 
d="M446 553l-27 -150h-155l27 150h155zM372 150l-27 -150h-155l27 150h155z" />
    <glyph glyph-name="exclamdown.case" 
d="M288 560l26 150h155l-26 -150h-155zM404 503l-69 -503h-137l108 503h98z" />
    <glyph glyph-name="questiondown.case" 
d="M292 560l27 150h155l-27 -150h-155zM538 236q1 -10 1 -17q0 -106 -68 -171t-188 -65q-113 0 -168.5 49t-55.5 127q0 70 34 115t94 84l56 35q28 19 40.5 38.5t18.5 51.5l5 24h115l-7 -39q-16 -91 -86 -135l-57 -35q-42 -26 -63 -52.5t-21 -69.5q0 -41 25.5 -68t75.5 -27
q61 0 95.5 39t34.5 113q0 11 -1 14z" />
    <glyph glyph-name="semicolon.case" 
d="M443 553l-27 -150h-155l27 150h155zM192 -162l-20 55q47 19 66 41.5t27 65.5h-79l27 150h155l-27 -148q-11 -62 -46 -101.5t-103 -62.5z" />
    <glyph glyph-name="slash.case" 
d="M192 -25h-108l382 768h108z" />
    <glyph glyph-name="underscore.case" 
d="M-46 -18h619l-17 -92h-620z" />
    <glyph glyph-name="asterisk.ss04" 
d="M391 710l-47 -93h-97l69 -57l-47 -93l89 57l69 -57l-14 93l89 57h-97z" />
    <glyph glyph-name="braceleft.case" 
d="M353 -80q-87 0 -130.5 43t-31.5 111l23 130q8 50 -3 74t-61 24l17 95q51 0 69 22t27 74l25 133q12 69 70.5 111.5t145.5 42.5h94l-16 -89h-83q-42 0 -70 -24.5t-36 -66.5l-18 -104q-21 -118 -102 -145q69 -31 49 -150l-17 -101q-8 -41 12 -66t62 -25h82l-15 -89h-93z" />
    <glyph glyph-name="braceright.case" 
d="M292 780q87 0 130.5 -43t31.5 -111l-23 -130q-8 -50 3 -74t61 -24l-17 -95q-51 0 -69 -22t-27 -74l-25 -133q-12 -69 -70.5 -111.5t-145.5 -42.5h-94l16 89h83q42 0 70 24.5t36 66.5l18 104q21 118 102 145q-69 31 -49 150l17 101q8 41 -12 66t-62 25h-82l15 89h93z" />
    <glyph glyph-name="bracketleft.case" 
d="M145 -80l152 860h314l-16 -89h-206l-120 -681h206l-16 -90h-314z" />
    <glyph glyph-name="bracketright.case" 
d="M500 780l-152 -860h-314l16 89h206l120 681h-206l16 90h314z" />
    <glyph glyph-name="parenleft.case" 
d="M377 -82q-72 56 -122.5 164.5t-50.5 214.5q0 151 85.5 275.5t249.5 205.5l55 -66q-154 -93 -214 -185t-60 -230q0 -91 39.5 -179t98.5 -146z" />
    <glyph glyph-name="parenright.case" 
d="M267 779q72 -56 122.5 -164.5t50.5 -214.5q0 -151 -85.5 -275.5t-249.5 -205.5l-55 66q154 93 214 185t60 230q0 91 -39.5 179t-98.5 146z" />
    <glyph glyph-name="parenleft.subs" 
d="M383 -239q-56 47 -93 129.5t-37 166.5q0 237 246 372l59 -61q-107 -68 -155 -138.5t-48 -172.5q0 -71 28 -137t76 -114z" />
    <glyph glyph-name="parenright.subs" 
d="M179 428q55 -47 91.5 -129.5t36.5 -165.5q0 -236 -244 -371l-57 57q108 69 156 141t48 173q0 72 -28.5 138.5t-76.5 114.5z" />
    <glyph glyph-name="parenleft.sups" 
d="M460 212q-55 47 -91.5 129.5t-36.5 165.5q0 236 244 371l57 -57q-108 -69 -156 -141t-48 -173q0 -72 28.5 -138.5t76.5 -114.5z" />
    <glyph glyph-name="parenright.sups" 
d="M259 878q55 -47 91.5 -129.5t36.5 -165.5q0 -236 -244 -371l-57 57q108 69 156 141t48 173q0 72 -28.5 138.5t-76.5 114.5z" />
    <glyph glyph-name="emdash.case" 
d="M49 404h552l-17 -88h-551z" />
    <glyph glyph-name="endash.case" 
d="M108 404h433l-16 -88h-433z" />
    <glyph glyph-name="hyphen.case" 
d="M171 413h307l-18 -106h-307z" />
    <glyph glyph-name="guillemotleft.case" 
d="M192 136l-128 209l206 206h127l-210 -210l125 -205h-120zM402 136l-128 209l207 206h127l-210 -210l124 -205h-120z" />
    <glyph glyph-name="guillemotright.case" 
d="M252 551l128 -209l-207 -206h-127l210 210l-124 205h120zM462 551l128 -209l-206 -206h-127l210 210l-125 205h120z" />
    <glyph glyph-name="guilsinglleft.case" 
d="M302 136l-129 209l207 206h127l-210 -210l125 -205h-120z" />
    <glyph glyph-name="guilsinglright.case" 
d="M352 551l129 -209l-207 -206h-127l210 210l-125 205h120z" />
    <glyph glyph-name="currency.case" 
d="M533 494q32 -51 32 -119q0 -103 -70 -175l38 -51l-64 -51l-40 53q-58 -28 -121 -28q-81 0 -137 42l-75 -68l-45 51l74 69q-27 46 -27 104q0 110 66 182l-41 56l64 51l43 -56q57 30 125 30q75 0 130 -39l74 66l46 -51zM197 332q0 -53 34 -86t86 -33q67 0 107 43t40 114
q0 58 -35.5 90.5t-85.5 32.5q-69 0 -107.5 -43t-38.5 -118z" />
    <glyph glyph-name="dollar.case" 
d="M411 396q149 -57 149 -191q0 -94 -67.5 -157t-193.5 -63h-4l-16 -94h-48l17 98q-86 13 -141.5 66.5t-68.5 133.5l112 37q10 -50 39 -88t76 -51l39 226l-41 14q-148 52 -148 185q0 97 69 155t183 58h8l16 91h48l-16 -95q76 -13 126.5 -57.5t63.5 -112.5l-110 -49
q-17 96 -98 120l-36 -210zM322 429l2 -1l35 201q-62 -1 -91 -30t-29 -72q0 -36 19 -58.5t64 -39.5zM312 81q56 1 89 29.5t33 81.5q0 36 -17.5 61.5t-65.5 42.5l-2 1z" />
    <glyph glyph-name="Euro.case" 
d="M344 85q54 0 88 23.5t63 76.5l94 -46q-39 -78 -98.5 -116t-156.5 -38q-114 0 -179.5 77.5t-60.5 199.5h-79l11 65h76q4 45 7 69h-71l12 65h73q33 126 112.5 196t192.5 70q87 0 149 -39t79 -113l-106 -49q-35 102 -136 102q-60 0 -104.5 -41.5t-65.5 -125.5h235l-11 -65
h-236q-4 -41 -5 -69h229l-11 -65h-226q-1 -86 34 -131.5t91 -45.5z" />
    <glyph glyph-name="florin.case" 
d="M507 721q45 0 71 -12l-16 -94q-23 9 -55 9q-24 0 -40.5 -6.5t-28 -23.5t-17 -31.5t-14.5 -44.5l-24 -81h102l-14 -86h-114l-151 -504h-121l150 504h-94l14 86h106l16 53q17 59 34.5 98t43.5 71t63.5 47t88.5 15z" />
    <glyph glyph-name="sterling.case" 
d="M367 89q39 0 65 20.5t33 77.5l107 -20q-15 -97 -73 -139.5t-131 -42.5q-38 0 -97 13t-106 13q-75 0 -151 -19l-12 79q40 13 67.5 29t52.5 43t37 70t12 103v17h-98l12 70h84q-2 46 -2 58q-2 131 63.5 197.5t168.5 66.5q91 0 146 -43.5t59 -124.5l-119 -28q-7 101 -93 101
q-49 0 -77.5 -35.5t-27.5 -131.5q0 -6 0.5 -26.5t0.5 -33.5h157l-12 -70h-143v-8q0 -69 -19.5 -115.5t-47.5 -69.5t-74 -43q27 6 68 6q28 0 75.5 -7t74.5 -7z" />
    <glyph glyph-name="yen.case" 
d="M661 710l-267 -372h161l-11 -66h-168l-12 -68h168l-11 -66h-168l-24 -138h-122l24 138h-171l11 66h172l12 68h-172l11 66h165l-139 372h131l88 -278l186 278h136z" />
    <glyph glyph-name="plus.case" 
d="M575 416l-15 -87h-187l-35 -197h-99l35 197h-186l15 87h186l33 185h99l-33 -185h187z" />
    <glyph glyph-name="minus.case" 
d="M87 327l16 92h474l-16 -92h-474z" />
    <glyph glyph-name="multiply.case" 
d="M615 552l-219 -186l150 -181l-75 -65l-150 182l-214 -182l-59 71l214 182l-147 179l76 63l146 -177l218 185z" />
    <glyph glyph-name="divide.case" 
d="M365 497q-26 0 -43.5 16.5t-17.5 42.5q0 27 17.5 43.5t43.5 16.5t43.5 -16.5t17.5 -43.5q0 -26 -17.5 -42.5t-43.5 -16.5zM87 329l16 90h473l-15 -90h-474zM297 130q-26 0 -43.5 17t-17.5 43q0 27 17.5 43.5t43.5 16.5t43.5 -16.5t17.5 -43.5q0 -26 -17.5 -43t-43.5 -17z
" />
    <glyph glyph-name="equal.case" 
d="M103 422l16 93h474l-16 -93h-474zM69 231l16 93h474l-16 -93h-474z" />
    <glyph glyph-name="notequal.case" 
d="M577 422h-183l-55 -98h220l-16 -93h-257l-70 -124h-68l70 124h-149l16 93h186l55 98h-223l16 93h260l68 120h68l-68 -120h146z" />
    <glyph glyph-name="greater.case" 
d="M151 620l433 -202l-16 -90l-504 -202l18 101l381 148l-329 147z" />
    <glyph glyph-name="less.case" 
d="M522 126l-433 202l16 90l504 202l-18 -101l-381 -148l329 -147z" />
    <glyph glyph-name="plusminus.case" 
d="M399 476h188l-16 -87h-188l-27 -153h-99l27 153h-186l15 87h187l28 158h99zM47 100l16 92h474l-16 -92h-474z" />
    <glyph glyph-name="approxequal.case" 
d="M451 405q-39 0 -104 28t-103 28q-37 0 -76.5 -12t-65.5 -31l16 93q24 19 61.5 31t71.5 12q46 0 107.5 -28t98.5 -28q36 0 75.5 12.5t64.5 30.5l-16 -93q-22 -19 -58.5 -31t-71.5 -12zM417 214q-39 0 -104 27.5t-103 27.5q-37 0 -76.5 -12t-65.5 -31l17 94q23 19 60.5 31
t72.5 12q46 0 107 -28t99 -28q36 0 75 12t65 31l-17 -94q-21 -18 -58 -30t-72 -12z" />
    <glyph glyph-name="logicalnot.case" 
d="M106 424h469l-44 -253h-93l28 162h-376z" />
    <glyph glyph-name="infinity.case" 
d="M472 529q56 0 92 -38t36 -100q0 -71 -46 -117t-110 -46q-40 0 -72 23.5t-51 57.5q-64 -82 -129 -82q-53 0 -90 36t-37 101q0 73 44.5 119t110.5 46q40 0 72.5 -21t49.5 -53q60 74 130 74zM212 310q40 0 81 67q-26 69 -73 69q-69 0 -69 -73q0 -30 19.5 -46.5t41.5 -16.5z
M443 310q30 0 49 19.5t19 54.5q0 30 -16.5 46t-41.5 16q-42 0 -83 -61q26 -75 73 -75z" />
    <glyph glyph-name="integral.case" 
d="M47 -14l19 92q20 -2 30 -2q71 0 104.5 31.5t47.5 110.5l48 276q19 105 85 164t177 59q23 0 49 -4l-19 -92q-19 4 -42 4q-60 0 -91.5 -35t-44.5 -109l-49 -277q-38 -221 -278 -221q-9 0 -36 3z" />
    <glyph glyph-name="plus.subs" 
d="M468 136l-13 -73h-138l-25 -139h-80l25 139h-138l13 73h137l24 133h80l-24 -133h139z" />
    <glyph glyph-name="minus.subs" 
d="M98 63l13 74h358l-13 -74h-358z" />
    <glyph glyph-name="multiply.subs" 
d="M499 229l-160 -133l111 -129l-63 -55l-112 131l-158 -131l-49 59l157 131l-108 127l63 53l109 -127l160 133z" />
    <glyph glyph-name="divide.subs" 
d="M306 183q-21 0 -35.5 14t-14.5 35t14.5 34.5t35.5 13.5t35.5 -13.5t14.5 -34.5q0 -22 -14.5 -35.5t-35.5 -13.5zM98 63l13 73h357l-13 -73h-357zM260 -83q-21 0 -36 14t-15 35t14.5 34.5t35.5 13.5q22 0 36 -13.5t14 -35.5q0 -21 -14 -34.5t-35 -13.5z" />
    <glyph glyph-name="plus.sups" 
d="M547 585l-13 -70h-140l-25 -141h-76l25 141h-140l13 70h139l24 134h76l-24 -134h141z" />
    <glyph glyph-name="minus.sups" 
d="M177 515l13 70h358l-12 -70h-359z" />
    <glyph glyph-name="multiply.sups" 
d="M577 681l-162 -134l113 -132l-60 -52l-114 133l-159 -132l-46 56l158 132l-110 129l61 50l110 -129l161 134z" />
    <glyph glyph-name="divide.sups" 
d="M385 635q-21 0 -35 13t-14 34t14 34.5t35 13.5q20 0 34 -13.5t14 -34.5t-13.5 -34t-34.5 -13zM177 515l13 69h357l-11 -69h-359zM339 368q-21 0 -35 13.5t-14 34.5q0 20 14 33t34 13q21 0 35 -13t14 -34q0 -20 -14 -33.5t-34 -13.5z" />
    <glyph glyph-name="carriagereturn.alt" 
d="M236 69q42 0 73 21t44 62l90 -26q-21 -71 -78 -109t-137 -38q-118 0 -161.5 77.5t-17.5 217.5l36 193q51 263 252 263q114 0 160.5 -73.5t22.5 -205.5l-13 -70h91l-168 -182l-103 182h84l11 60q35 199 -93 199q-60 0 -95.5 -41.5t-55.5 -143.5l-31 -171
q-20 -110 1 -162.5t88 -52.5z" />
    <glyph glyph-name="arrowright.case" 
d="M70 404h348l17 94l160 -139l-209 -139l16 95h-348z" />
    <glyph glyph-name="arrowleft.case" 
d="M588 315h-349l-17 -95l-160 139l210 139l-17 -94h348z" />
    <glyph glyph-name="arrowright.ss03.case" 
d="M451 407l-163 186l82 65l247 -300l-353 -299l-63 69l223 182h-391l16 97h402z" />
    <glyph glyph-name="arrowleft.ss03.case" 
d="M207 310l163 -186l-82 -65l-247 300l353 299l63 -69l-223 -182h391l-16 -97h-402z" />
    <glyph glyph-name="arrowup.ss03" 
d="M314 566l-206 -183l-55 74l346 293l241 -293l-76 -71l-146 189l-108 -610h-101z" />
    <glyph glyph-name="uni2197.ss03" 
d="M467 547l-288 -357l-86 75l293 354l-272 -4l-17 95h434l77 -435h-97z" />
    <glyph glyph-name="arrowright.ss03" 
d="M441 378l-163 186l82 65l247 -300l-353 -299l-63 69l223 182h-391l16 97h402z" />
    <glyph glyph-name="uni2198.ss03" 
d="M459 151l44 272h97l-77 -435h-434l17 95l272 -4l-293 354l86 75z" />
    <glyph glyph-name="arrowdown.ss03" 
d="M343 144l206 183l55 -74l-346 -293l-241 293l76 71l146 -189l108 610h101z" />
    <glyph glyph-name="uni2199.ss03" 
d="M187 151l288 357l86 -75l-293 -354l272 4l17 -95h-434l-77 435h97z" />
    <glyph glyph-name="arrowleft.ss03" 
d="M202 281l163 -186l-82 -65l-247 300l353 299l63 -69l-223 -182h391l-16 -97h-402z" />
    <glyph glyph-name="uni2196.ss03" 
d="M197 547l-44 -272h-97l77 435h434l-17 -95l-272 4l293 -354l-86 -75z" />
    <glyph glyph-name="circle.invert" 
d="M63 285l29 167q48 273 288 273q112 0 176 -75.5t39 -220.5l-29 -166q-50 -281 -289 -281q-113 0 -176.5 77t-37.5 226z" />
    <glyph glyph-name="at.case" 
d="M285 -18q-106 0 -172.5 58t-66.5 167q0 33 6 68l37 210q23 131 98.5 192t185.5 61q103 0 172.5 -54t69.5 -164q0 -30 -6 -63l-25 -145q-13 -81 -40.5 -111t-74.5 -30q-76 0 -89 62q-35 -63 -111 -63q-44 0 -74 26.5t-30 71.5q0 108 143 124l88 11l1 9q2 18 2 21
q0 52 -50 52q-65 0 -68 -65h-80q5 61 45.5 97.5t107.5 36.5q124 0 124 -115q0 -23 -7 -64l-13 -72q-6 -30 -6 -42q0 -30 24 -30q19 0 27.5 14.5t15.5 54.5l25 148q6 35 6 62q0 89 -50 129.5t-125 40.5q-188 0 -223 -195l-36 -208q-5 -33 -5 -56q0 -91 50 -135.5t128 -44.5
q71 0 139 38l14 -55q-72 -42 -157 -42zM295 236q27 0 53.5 20.5t32.5 61.5l5 27l-59 -8q-76 -10 -76 -59q0 -20 12.5 -31t31.5 -11z" />
    <glyph glyph-name="section.case" 
d="M442 490q58 -20 88 -48.5t30 -79.5q0 -91 -108 -126q42 -37 42 -98q0 -66 -52.5 -111t-158.5 -45q-92 0 -150.5 35.5t-73.5 103.5l102 33q24 -89 129 -89q42 0 66 16.5t24 47.5q0 21 -14 37t-52 27l-74 22q-134 39 -134 132q0 96 115 129q-46 38 -46 100q0 64 51 107.5
t151 43.5q84 0 138 -32t72 -91l-95 -45q-23 88 -117 88q-48 0 -68 -19.5t-20 -44.5q0 -23 16 -36.5t56 -27.5zM368 279q8 -2 11 -4q30 3 49 21.5t19 44.5q0 44 -68 68l-74 25l-16 6q-36 -6 -53.5 -26.5t-17.5 -46.5q0 -24 17.5 -38.5t58.5 -26.5z" />
    <glyph glyph-name="bar.case" 
d="M441 725l-131 -743h-95l131 743h95z" />
    <glyph glyph-name="brokenbar.case" 
d="M441 725l-52 -293h-95l52 293h95zM368 311l-58 -329h-95l58 329h95z" />
    <glyph glyph-name="Baht.case" 
d="M420 362q58 -8 91 -46.5t33 -94.5q0 -40 -14 -77t-43.5 -70.5t-83.5 -53.5t-125 -20h-8l-19 -109h-56l19 109h-188l122 710h189l16 93h55l-16 -93q100 -3 145 -51t45 -111q0 -65 -42 -115.5t-120 -70.5zM245 621l-37 -216h76l37 216h-76zM463 528q0 86 -86 92l-37 -215
q64 4 93.5 37t29.5 86zM154 89h75l40 229h-76zM285 89q76 0 110.5 38t34.5 95q0 41 -25 68.5t-75 27.5h-5z" />
    <glyph glyph-name="Bitcoin.case" 
d="M424 360q57 -9 89 -47t32 -92q0 -49 -19.5 -93t-70.5 -80.5t-127 -44.5l-19 -112h-56l19 109h-71l-19 -109h-56l19 109h-120l121 710h122l15 91h56l-16 -91h59h13l15 91h56l-16 -98q70 -14 101.5 -57.5t31.5 -96.5q0 -66 -41.5 -117.5t-117.5 -71.5zM251 616l-36 -209
h101q73 0 107 32.5t34 88.5q0 37 -24 62.5t-80 25.5h-102zM279 94q77 0 111 37t34 92q0 40 -25.5 67.5t-74.5 27.5h-124l-38 -224h117z" />
    <glyph glyph-name="Lira.case" 
d="M458 248l103 -20q-26 -102 -97 -165t-195 -63h-185l47 272l-75 -22l12 70l75 22l14 79l-75 -22l11 69l76 22l38 220h120l-32 -183l210 61l-12 -68l-210 -62l-14 -79l210 61l-12 -69l-210 -62l-36 -209h49q148 0 188 148z" />
    <glyph glyph-name="Ruble.case" 
d="M338 278h-94l-14 -80h146l-11 -63h-146l-23 -135h-121l23 135h-77l11 63h77l14 80h-77l16 87h76l60 345h209q113 0 164.5 -54.5t51.5 -130.5q0 -33 -8.5 -65.5t-29.5 -66t-52.5 -58.5t-82 -41t-112.5 -16zM301 611l-42 -246h79q82 0 120.5 44t38.5 100q0 43 -28 72.5
t-90 29.5h-78z" />
    <glyph glyph-name="Rupee.case" 
d="M617 629h-197q38 -42 45 -108h134l-12 -62h-125q-6 -32 -22 -61.5t-44 -56.5t-74 -44t-105 -20l180 -277h-143l-178 286l12 70h97q128 0 150 103h-229l12 62h220q-4 46 -32.5 77t-85.5 31h-84l14 81h481z" />
    <glyph glyph-name="Won.case" 
d="M653 710l-66 -240h33l-9 -58h-40l-21 -77h47l-10 -58h-53l-76 -277h-126l19 277h-75l-79 -277h-121l20 277h-52l9 58h47l6 77h-39l10 58h33l17 240h86l-23 -240h75l70 240h111l-13 -240h73l58 240h89zM355 551l-23 -81h32l5 81q1 34 7 70h-4q-13 -56 -17 -70zM184 412
l-8 -77h49l23 77h-64zM293 335h61l6 77h-45zM473 335l19 77h-62l-5 -77h48zM170 147l38 130h-37l-13 -130l-7 -56h4q2 16 15 56zM428 147l31 130h-37l-7 -130q-2 -39 -4 -56h4q7 35 13 56z" />
    <glyph glyph-name="carontopcomb" 
d="M580 495l-17 50q30 11 41 26t16 45h-50l19 109h109l-18 -102q-16 -98 -100 -128z" />
  </font>
</defs>
</svg>
