<svg xmlns="http://www.w3.org/2000/svg">
<defs>
<font id="GTAmericaMono-Thin" horiz-adv-x="620" >
  <font-face 
    font-family="GT America Mono Thin"
    font-weight="275"
    font-stretch="normal"
    units-per-em="1000"
    panose-1="0 0 3 0 0 0 0 0 0 0"
    ascent="800"
    descent="-200"
    x-height="500"
    cap-height="710"
    bbox="-487 -234 1220 915"
    underline-thickness="50"
    underline-position="-200"
    unicode-range="U+000D-FB02"
  />
<missing-glyph horiz-adv-x="1240" 
d="M1220 663h-774v-47h774v-48h-774v-47h774v-48h-774v-47h774v-47h-774v-48h774v-47h-1200v426h1200v-47zM67 667l13 9h-16l-5 15l-4 -15h-16l13 -9l-5 -15l12 9l13 -9zM142 676h-16l13 -9l-5 -15l12 10l13 -10l-5 15l12 9h-15l-5 15zM229 676h-16l13 -9l-5 -15l12 10
l13 -10l-5 15l12 9h-15l-5 15zM315 676h-15l13 -9l-5 -15l12 10l13 -10l-5 15l12 9h-15l-5 15zM415 667l12 9h-15l-5 15l-5 -15h-15l12 -9l-4 -15l12 10l13 -10zM98 632h-15l12 -9l-4 -14l12 9l12 -9l-4 14l12 9h-15l-5 15zM371 623l13 9h-16l-4 15l-5 -15h-15l12 -9l-5 -14
l13 9l12 -9zM273 364v93h94v80h-94v94h-80v-94h-93v-80h93v-93h80zM67 580l13 9h-16l-5 14l-4 -14h-16l13 -9l-5 -15l12 9l13 -9zM142 589h-16l13 -9l-5 -15l12 9l13 -9l-5 15l12 9h-15l-5 14zM315 589h-15l13 -9l-5 -15l12 9l13 -9l-5 15l12 9h-15l-5 14zM415 580l12 9h-15
l-5 14l-5 -14h-15l12 -9l-4 -15l12 9l13 -9zM67 492l13 10h-16l-5 14l-4 -14h-16l13 -10l-5 -14l12 9l13 -9zM415 492l12 10h-15l-5 14l-5 -14h-15l12 -10l-4 -14l12 9l13 -9zM67 405l13 9h-16l-5 15l-4 -15h-16l13 -9l-5 -14l12 9l13 -9zM154 405l12 9h-15l-5 15l-4 -15
h-16l13 -9l-5 -14l12 9l13 -9zM328 405l12 9h-15l-5 15l-5 -15h-15l13 -9l-5 -14l12 9l13 -9zM415 405l12 9h-15l-5 15l-5 -15h-15l12 -9l-4 -14l12 9l13 -9zM115 347l-4 15l12 9h-15l-5 14l-5 -14h-15l12 -9l-4 -15l12 9zM376 347l-5 15l13 9h-16l-4 14l-5 -14h-15l12 -9
l-5 -15l13 9zM72 303l-5 15l13 9h-16l-5 15l-4 -15h-16l13 -9l-5 -15l12 9zM159 303l-5 15l12 9h-15l-5 15l-4 -15h-16l13 -9l-5 -15l12 9zM246 303l-5 15l12 9h-15l-5 15l-4 -15h-16l13 -9l-5 -15l12 9zM333 303l-5 15l12 9h-15l-5 15l-5 -15h-15l13 -9l-5 -15l12 9z

<glyph glyph-name="fi" unicode="fi" horiz-adv-x="1240" 
d="M506 500v-41h-198v-459h-50v459h-160v41h160v68q0 160 172 160q41 0 76 -7v-45q-40 6 -76 6q-65 0 -93.5 -27t-28.5 -91v-64h198zM983 723v-123h-77v123h77zM756 0v42h169v416h-157v42h207v-458h179v-42h-398z" />
    <glyph glyph-name="fl" unicode="fl" horiz-adv-x="1240" 
d="M506 500v-41h-198v-459h-50v459h-160v41h160v68q0 160 172 160q41 0 76 -7v-45q-40 6 -76 6q-65 0 -93.5 -27t-28.5 -91v-64h198zM756 0v42h166v641h-156v42h207v-683h181v-42h-398z" />
    <glyph glyph-name=".notdef" horiz-adv-x="1240" 
d="M1220 663h-774v-47h774v-48h-774v-47h774v-48h-774v-47h774v-47h-774v-48h774v-47h-1200v426h1200v-47zM67 667l13 9h-16l-5 15l-4 -15h-16l13 -9l-5 -15l12 9l13 -9zM142 676h-16l13 -9l-5 -15l12 10l13 -10l-5 15l12 9h-15l-5 15zM229 676h-16l13 -9l-5 -15l12 10
l13 -10l-5 15l12 9h-15l-5 15zM315 676h-15l13 -9l-5 -15l12 10l13 -10l-5 15l12 9h-15l-5 15zM415 667l12 9h-15l-5 15l-5 -15h-15l12 -9l-4 -15l12 10l13 -10zM98 632h-15l12 -9l-4 -14l12 9l12 -9l-4 14l12 9h-15l-5 15zM371 623l13 9h-16l-4 15l-5 -15h-15l12 -9l-5 -14
l13 9l12 -9zM273 364v93h94v80h-94v94h-80v-94h-93v-80h93v-93h80zM67 580l13 9h-16l-5 14l-4 -14h-16l13 -9l-5 -15l12 9l13 -9zM142 589h-16l13 -9l-5 -15l12 9l13 -9l-5 15l12 9h-15l-5 14zM315 589h-15l13 -9l-5 -15l12 9l13 -9l-5 15l12 9h-15l-5 14zM415 580l12 9h-15
l-5 14l-5 -14h-15l12 -9l-4 -15l12 9l13 -9zM67 492l13 10h-16l-5 14l-4 -14h-16l13 -10l-5 -14l12 9l13 -9zM415 492l12 10h-15l-5 14l-5 -14h-15l12 -10l-4 -14l12 9l13 -9zM67 405l13 9h-16l-5 15l-4 -15h-16l13 -9l-5 -14l12 9l13 -9zM154 405l12 9h-15l-5 15l-4 -15
h-16l13 -9l-5 -14l12 9l13 -9zM328 405l12 9h-15l-5 15l-5 -15h-15l13 -9l-5 -14l12 9l13 -9zM415 405l12 9h-15l-5 15l-5 -15h-15l12 -9l-4 -14l12 9l13 -9zM115 347l-4 15l12 9h-15l-5 14l-5 -14h-15l12 -9l-4 -15l12 9zM376 347l-5 15l13 9h-16l-4 14l-5 -14h-15l12 -9
l-5 -15l13 9zM72 303l-5 15l13 9h-16l-5 15l-4 -15h-16l13 -9l-5 -15l12 9zM159 303l-5 15l12 9h-15l-5 15l-4 -15h-16l13 -9l-5 -15l12 9zM246 303l-5 15l12 9h-15l-5 15l-4 -15h-16l13 -9l-5 -15l12 9zM333 303l-5 15l12 9h-15l-5 15l-5 -15h-15l13 -9l-5 -15l12 9z
M420 303l-5 15l12 9h-15l-5 15l-5 -15h-15l12 -9l-4 -15l12 9zM20 189v48h1199v-48h-1199zM20 95v47h1200v-47h-1200zM20 0v47h1200v-47h-1200z" />
    <glyph glyph-name=".null" horiz-adv-x="0" 
 />
    <glyph glyph-name=".null" horiz-adv-x="0" 
 />
    <glyph glyph-name="nonmarkingreturn" horiz-adv-x="333" 
 />
    <glyph glyph-name="CR" unicode="&#xd;" horiz-adv-x="0" 
 />
    <glyph glyph-name="space" unicode=" " 
 />
    <glyph glyph-name="exclam" unicode="!" 
d="M289 178l-8 532h58l-8 -532h-42zM360 114v-114h-100v114h100z" />
    <glyph glyph-name="quotedbl" unicode="&#x22;" 
d="M227 464l-21 246h81l-21 -246h-39zM353 464l-21 246h81l-21 -246h-39z" />
    <glyph glyph-name="numbersign" unicode="#" 
d="M565 436h-124l-33 -177h123v-41h-130l-41 -218h-47l41 218h-141l-41 -218h-48l41 218h-115v41h122l33 177h-115v41h123l40 214h48l-40 -214h141l40 214h47l-40 -214h116v-41zM361 259l33 177h-141l-33 -177h141z" />
    <glyph glyph-name="dollar" unicode="$" 
d="M545 181q0 -88 -57.5 -140.5t-159.5 -55.5v-92h-31v93q-103 6 -159 67t-64 157l53 9q6 -80 48.5 -132t121.5 -58v308l-40 10q-161 43 -161 182q0 78 54.5 128t146.5 53v90h31v-91q90 -5 144 -55t60 -152l-52 -12q-8 166 -152 176v-286l43 -11q82 -21 128 -62.5t46 -125.5
zM277 393l20 -5v279q-74 -3 -112 -40.5t-38 -95.5q0 -105 130 -138zM328 28q77 2 122 38.5t45 106.5t-37 101.5t-112 49.5l-18 5v-301z" />
    <glyph glyph-name="percent" unicode="%" 
d="M90 -14l383 744h44l-383 -744h-44zM164 382q-59 0 -94 44.5t-35 121.5q0 74 35 118.5t93 44.5q57 0 93 -45.5t36 -120.5q0 -74 -35.5 -118.5t-92.5 -44.5zM164 418q39 0 62.5 34t23.5 93q0 60 -23.5 95t-63.5 35t-63.5 -34t-23.5 -93q0 -62 23.5 -96t64.5 -34zM458 0
q-60 0 -95 44.5t-35 121.5q0 74 35 118.5t94 44.5q57 0 92.5 -45.5t35.5 -120.5q0 -74 -35.5 -118.5t-91.5 -44.5zM458 36q39 0 62 34t23 93q0 60 -23.5 95t-62.5 35q-41 0 -64.5 -34t-23.5 -92q0 -62 23.5 -96.5t65.5 -34.5z" />
    <glyph glyph-name="ampersand" unicode="&#x26;" 
d="M576 44q16 0 27 4v-48q-20 -5 -35 -5q-53 0 -113 73l-5 7q-75 -92 -197 -92q-102 0 -155 52.5t-53 138.5q0 54 23 97.5t51.5 67.5t74.5 52q-30 36 -45.5 57.5t-33 60.5t-17.5 74q0 65 44.5 104.5t111.5 39.5q66 0 109 -37t43 -103q0 -108 -129 -192l-17 -10l188 -231
q40 86 46 226l46 -5q-6 -159 -62 -257l8 -10q51 -64 90 -64zM253 686q-48 0 -77 -26t-29 -75q0 -38 22 -76.5t66 -93.5l20 13q54 38 78 74t24 81q0 49 -27 76t-77 27zM259 27q103 0 163 82l-202 250q-65 -44 -94.5 -82t-29.5 -98q0 -77 45.5 -114.5t117.5 -37.5z" />
    <glyph glyph-name="quotesingle" unicode="'" 
d="M290 464l-21 246h81l-21 -246h-39z" />
    <glyph glyph-name="parenleft" unicode="(" 
d="M445 -129q-110 82 -168.5 203.5t-58.5 252.5q0 128 58.5 246t168.5 198l35 -23q-110 -91 -159.5 -192.5t-49.5 -228.5q0 -128 49.5 -232t159.5 -202z" />
    <glyph glyph-name="parenright" unicode=")" 
d="M175 -129l-35 22q110 98 159.5 202t49.5 232q0 127 -49.5 228.5t-159.5 192.5l35 23q110 -80 168.5 -198t58.5 -246q0 -131 -58.5 -252.5t-168.5 -203.5z" />
    <glyph glyph-name="asterisk" unicode="*" 
d="M304 478l-99 -158l-49 34l116 143l-170 44l19 56l165 -68l-14 181h62l-13 -181l168 69l20 -57l-176 -46l118 -141l-47 -33z" />
    <glyph glyph-name="plus" unicode="+" 
d="M545 351v-43h-211v-217h-50v217h-209v43h209v205h50v-205h211z" />
    <glyph glyph-name="comma" unicode="," 
d="M277 -125l-16 30q35 15 50 36t15 59h-71v114h109v-114q0 -92 -87 -125z" />
    <glyph glyph-name="hyphen" unicode="-" 
d="M165 302h289v-47h-289v47z" />
    <glyph glyph-name="period" unicode="." 
d="M364 114v-114h-109v114h109z" />
    <glyph glyph-name="slash" unicode="/" 
d="M192 -117h-47l282 877h47z" />
    <glyph glyph-name="zero" unicode="0" 
d="M310 710q237 0 237 -362q0 -363 -237 -363t-237 362q0 363 237 363zM310 665q-185 0 -185 -317q0 -116 25 -193l304 421q-44 89 -144 89zM310 30q185 0 185 317q0 116 -25 191l-303 -421q46 -89 143 -87z" />
    <glyph glyph-name="one" unicode="1" 
d="M353 47h184v-47h-434v47h200v550q-22 -33 -66.5 -53.5t-98.5 -20.5h-26v47h20q70 0 117.5 34.5t62.5 90.5h41v-648z" />
    <glyph glyph-name="two" unicode="2" 
d="M81 0v45q152 115 273 236q107 109 107 224q0 75 -42 117t-117 42q-77 0 -117.5 -41t-40.5 -109q0 -28 8 -64l-53 5q-7 28 -7 59q0 89 55.5 142.5t156.5 53.5q100 0 155.5 -54t55.5 -150q0 -130 -125 -254q-46 -46 -118.5 -108.5t-122.5 -96.5h382v-47h-450z" />
    <glyph glyph-name="three" unicode="3" 
d="M309 -15q-101 0 -162.5 58t-64.5 153l51 6q3 -79 50.5 -126t126.5 -47q85 0 130 42t45 121q0 68 -44 108t-122 40h-53v44h46q70 0 109.5 38.5t39.5 100.5q0 69 -39.5 106t-114.5 37q-78 0 -121.5 -47.5t-43.5 -132.5l-50 9q0 100 59 157.5t160 57.5q96 0 149.5 -49.5
t53.5 -137.5q0 -59 -36 -102t-93 -53q70 -8 111.5 -55.5t41.5 -119.5q0 -97 -61 -152.5t-168 -55.5z" />
    <glyph glyph-name="four" unicode="4" 
d="M394 0v189h-340v38l336 468h54v-464h125v-42h-125v-189h-50zM107 231h287v322q0 46 2 84h-1q-16 -32 -55 -88l-180 -247q-35 -49 -53 -71z" />
    <glyph glyph-name="five" unicode="5" 
d="M305 -15q-87 0 -146 49t-72 134l53 5q12 -65 55 -104t112 -39q81 0 127.5 51.5t46.5 145.5q0 87 -42 142t-125 55q-68 0 -110.5 -38.5t-54.5 -95.5l-51 6l39 399h364v-46h-324l-30 -290q51 110 180 110q95 0 151 -65.5t56 -174.5q0 -110 -62 -177t-167 -67z" />
    <glyph glyph-name="six" unicode="6" 
d="M325 464q95 0 153 -65.5t58 -174.5q0 -104 -59 -171.5t-158 -67.5q-244 0 -244 352q0 175 62.5 274t182.5 99q173 0 204 -177l-52 -9q-26 142 -153 142q-96 0 -145.5 -88.5t-47.5 -243.5v-20q20 72 74.5 111t124.5 39zM320 29q75 0 119.5 54t44.5 141q0 90 -45.5 143
t-121.5 53q-72 0 -121.5 -48.5t-63.5 -136.5q14 -95 61.5 -150.5t126.5 -55.5z" />
    <glyph glyph-name="seven" unicode="7" 
d="M225 0v8q-1 172 63 335.5t184 303.5h-382v48h440v-43q-121 -133 -184 -298t-64 -342v-12h-57z" />
    <glyph glyph-name="eight" unicode="8" 
d="M372 371q83 -25 124.5 -69.5t41.5 -125.5q0 -89 -60.5 -140t-165.5 -51q-108 0 -169 50.5t-61 140.5q0 148 158 189q-68 23 -102 63t-34 109q0 78 56.5 125.5t148.5 47.5q94 0 149.5 -46.5t55.5 -125.5q0 -132 -142 -167zM156 537q0 -57 32 -89.5t96 -51.5l37 -10
q80 25 110.5 57.5t30.5 91.5q0 62 -41.5 98t-112.5 36q-69 0 -110.5 -36t-41.5 -96zM312 28q83 0 128.5 39t45.5 110q0 66 -35 101.5t-104 55.5l-55 16q-158 -46 -158 -167q0 -72 47 -113.5t131 -41.5z" />
    <glyph glyph-name="nine" unicode="9" 
d="M296 710q245 0 245 -353q0 -169 -59.5 -270.5t-180.5 -101.5q-179 0 -210 181l52 10q26 -147 159 -147q94 0 140.5 88.5t46.5 238.5v29v18q-22 -70 -74.5 -106.5t-120.5 -36.5q-96 0 -155.5 60t-59.5 165q0 97 59 161t158 64zM298 304q69 0 120 47t64 126
q-32 189 -187 189q-75 0 -119.5 -50.5t-44.5 -129.5q0 -84 46 -133t121 -49z" />
    <glyph glyph-name="colon" unicode=":" 
d="M364 500v-114h-109v114h109zM364 114v-114h-109v114h109z" />
    <glyph glyph-name="semicolon" unicode=";" 
d="M364 500v-114h-109v114h109zM277 -125l-16 30q35 15 50 36t15 59h-71v114h109v-114q0 -92 -87 -125z" />
    <glyph glyph-name="less" unicode="&#x3c;" 
d="M542 85l-465 221v40l465 221v-47l-409 -193l409 -193v-49z" />
    <glyph glyph-name="equal" unicode="=" 
d="M75 395v46h470v-46h-470zM75 217v46h470v-46h-470z" />
    <glyph glyph-name="greater" unicode="&#x3e;" 
d="M77 85v49l409 193l-409 193v47l465 -221v-40z" />
    <glyph glyph-name="question" unicode="?" 
d="M108 500q-2 12 -2 24q0 95 54.5 149t154.5 54q90 0 144.5 -48.5t54.5 -132.5q0 -47 -23.5 -87t-65.5 -87l-45 -49q-53 -56 -53 -135v-10h-51v25q0 75 65 146l45 49q72 78 72 147q0 63 -40 100t-103 37q-74 0 -115 -40t-41 -122q0 -13 2 -25zM354 114v-114h-99v114h99z
" />
    <glyph glyph-name="at" unicode="@" 
d="M329 -93q-124 0 -194 74t-70 205v185q0 132 69 210.5t183 78.5q110 0 173.5 -72t63.5 -195v-118q0 -164 -91 -164q-31 0 -49.5 19t-21.5 51q-12 -33 -41.5 -53.5t-66.5 -20.5q-43 0 -71 26t-28 71q0 82 110 100l91 14v12q0 53 -16.5 76t-54.5 23q-72 0 -77 -75h-41
q2 52 34 82t87 30q56 0 82.5 -35t26.5 -110v-103q0 -72 40 -72q49 0 49 119v122q0 112 -53 175t-147 63q-98 0 -155 -67t-57 -184v-190q0 -112 61.5 -176.5t166.5 -64.5q78 0 148 38l10 -32q-75 -42 -161 -42zM294 143q40 0 66 30.5t26 76.5v37l-81 -15q-78 -12 -78 -67
q0 -28 18.5 -45t48.5 -17z" />
    <glyph glyph-name="A" unicode="A" 
d="M520 0l-73 221h-273l-73 -221h-55l234 710h61l234 -710h-55zM189 269h243l-17 51q-61 187 -103 338h-2q-47 -164 -104 -338z" />
    <glyph glyph-name="B" unicode="B" 
d="M311 710q120 0 171.5 -53.5t51.5 -128.5q0 -60 -33 -103.5t-102 -56.5q74 -9 113 -55t39 -116q0 -29 -6 -55t-21 -52.5t-39 -46t-63.5 -31.5t-89.5 -12h-235v710h214zM152 664v-277h165q161 0 161 137q0 140 -168 140h-158zM152 342v-296h174q49 0 84 13t53 36t25.5 48.5
t7.5 56.5q0 63 -39.5 102.5t-127.5 39.5h-177z" />
    <glyph glyph-name="C" unicode="C" 
d="M312 -17q-121 0 -182 85t-61 239v98q0 156 63.5 239t183.5 83q212 0 232 -252l-54 -7q-14 212 -179 212q-190 0 -190 -272v-97q0 -137 48.5 -209t142.5 -72q78 0 124 53t56 154l54 -9q-13 -113 -71.5 -179t-166.5 -66z" />
    <glyph glyph-name="D" unicode="D" 
d="M91 0v710h172q145 0 223 -94t78 -255q0 -165 -80.5 -263t-224.5 -98h-168zM146 46h114q118 0 183.5 87t65.5 228q0 140 -63 221.5t-183 81.5h-117v-618z" />
    <glyph glyph-name="E" unicode="E" 
d="M515 710v-47h-345v-276h328v-46h-328v-294h352v-47h-406v710h399z" />
    <glyph glyph-name="F" unicode="F" 
d="M537 710v-47h-352v-276h330v-47h-330v-340h-54v710h406z" />
    <glyph glyph-name="G" unicode="G" 
d="M297 -17q-113 0 -171 86.5t-58 234.5v107q0 152 62.5 234t179.5 82q56 0 98.5 -19.5t67 -52.5t37.5 -69.5t17 -77.5l-53 -6q-8 76 -49 127t-120 51q-90 0 -137 -65.5t-47 -210.5v-92q0 -281 183 -281q86 0 132.5 71.5t46.5 176.5v39h-193v45h243v-363h-39l-8 140
q-49 -157 -192 -157z" />
    <glyph glyph-name="H" unicode="H" 
d="M527 710v-710h-54v340h-325v-340h-54v710h54v-323h325v323h54z" />
    <glyph glyph-name="I" unicode="I" 
d="M524 666h-187v-622h187v-44h-428v44h187v622h-187v44h428v-44z" />
    <glyph glyph-name="J" unicode="J" 
d="M509 227q0 -121 -58 -182.5t-158 -61.5q-111 0 -166.5 67t-55.5 185l54 14q0 -219 170 -219q160 0 160 207v473h54v-483z" />
    <glyph glyph-name="K" unicode="K" 
d="M494 0l-219 396l-126 -149v-247h-54v710h54v-396l323 396h64l-223 -273l244 -437h-63z" />
    <glyph glyph-name="L" unicode="L" 
d="M127 710h54v-663h362v-47h-416v710z" />
    <glyph glyph-name="M" unicode="M" 
d="M439 517l-104 -336h-51l-103 336q-20 66 -33 140h-4q1 -54 1 -180v-477h-52v710h80l107 -370q20 -65 28 -96h4q13 51 27 96l107 370h80v-710h-52v477q0 72 2 180h-4q-18 -90 -33 -140z" />
    <glyph glyph-name="N" unicode="N" 
d="M446 144q11 -23 26 -66h2q-2 48 -2 68v564h54v-710h-65l-287 581q-8 16 -17 39.5t-10 25.5h-1q2 -23 2 -61v-585h-55v710h72z" />
    <glyph glyph-name="O" unicode="O" 
d="M310 -17q-119 0 -180.5 86t-61.5 247v78q0 161 61.5 247t180.5 86t180.5 -86t61.5 -247v-78q0 -161 -61.5 -247t-180.5 -86zM310 30q186 0 186 286v78q0 286 -186 286t-186 -286v-78q0 -286 186 -286z" />
    <glyph glyph-name="P" unicode="P" 
d="M175 306v-306h-54v710h218q64 0 110 -18t69.5 -49t34 -63.5t10.5 -68.5q0 -38 -11 -72t-36 -65t-72.5 -49.5t-112.5 -18.5h-156zM175 351h160q64 0 104 25.5t53 59t13 74.5q0 28 -7.5 53t-25 49t-51.5 38t-81 14h-165v-313z" />
    <glyph glyph-name="Q" unicode="Q" 
d="M552 316q0 -268 -162 -321q45 -66 116 -66q16 0 44 6v-50q-34 -6 -53 -6q-104 0 -152 106q-22 -2 -35 -2q-119 0 -180.5 86t-61.5 247v78q0 161 61.5 247t180.5 86t180.5 -86t61.5 -247v-78zM310 30q186 0 186 286v78q0 286 -186 286t-186 -286v-78q0 -286 186 -286z" />
    <glyph glyph-name="R" unicode="R" 
d="M495 0l-178 314h-165v-314h-54v710h214q109 0 168 -51t59 -146q0 -77 -43.5 -127t-122.5 -64l182 -322h-60zM152 359h160q81 0 125.5 40t44.5 113q0 74 -43.5 113t-126.5 39h-160v-305z" />
    <glyph glyph-name="S" unicode="S" 
d="M315 -17q-116 0 -178 63.5t-70 165.5l53 8q6 -84 55 -137.5t139 -53.5q80 0 127 35.5t47 106.5q0 73 -35.5 105t-107.5 52l-91 26q-75 21 -119.5 67t-44.5 118q0 84 58.5 136t153.5 52q102 0 164 -50.5t68 -159.5l-52 -12q-8 176 -179 176q-77 0 -117.5 -37t-40.5 -99
q0 -106 130 -143l92 -26q83 -23 129.5 -66.5t46.5 -130.5q0 -90 -61 -143t-167 -53z" />
    <glyph glyph-name="T" unicode="T" 
d="M50 710h519v-47h-233v-663h-54v663h-232v47z" />
    <glyph glyph-name="U" unicode="U" 
d="M84 710h55v-494q0 -86 45 -136t128 -50q82 0 125.5 49.5t43.5 136.5v494h54v-495q0 -107 -57 -169.5t-166 -62.5q-110 0 -169 63t-59 169v495z" />
    <glyph glyph-name="V" unicode="V" 
d="M296 103q4 -12 13 -48h3q9 36 13 48l185 607h57l-224 -710h-66l-225 710h56z" />
    <glyph glyph-name="W" unicode="W" 
d="M127 0l-80 710h53l57 -553q6 -72 8 -108h6q5 46 21 114l92 380h52l92 -380q16 -68 21 -114h6q2 36 8 108l57 553h53l-80 -710h-70l-86 361q-18 73 -24 129h-6q-6 -56 -24 -129l-86 -361h-70z" />
    <glyph glyph-name="X" unicode="X" 
d="M53 0l225 372l-202 338h61l128 -225q31 -53 44 -86h2q19 43 43 85l128 226h62l-201 -343l224 -367h-65l-155 268q-26 46 -37 72h-2q-8 -19 -39 -75l-154 -265h-62z" />
    <glyph glyph-name="Y" unicode="Y" 
d="M338 288v-288h-54v288l-236 422h60l203 -374l201 374h60z" />
    <glyph glyph-name="Z" unicode="Z" 
d="M77 50l388 613h-371v47h429v-50l-389 -613h403v-47h-460v50z" />
    <glyph glyph-name="bracketleft" unicode="[" 
d="M222 -114v871h246v-41h-200v-789h200v-41h-246z" />
    <glyph glyph-name="backslash" unicode="\" 
d="M427 -117l-282 877h47l282 -877h-47z" />
    <glyph glyph-name="bracketright" unicode="]" 
d="M398 -114h-246v41h200v789h-200v41h246v-871z" />
    <glyph glyph-name="asciicircum" unicode="^" 
d="M292 709h36l148 -262h-48l-118 207l-119 -207h-47z" />
    <glyph glyph-name="underscore" unicode="_" 
d="M0 -118h620v-42h-620v42z" />
    <glyph glyph-name="grave" unicode="`" 
d="M394 579h-47l-120 141h62z" />
    <glyph glyph-name="a" unicode="a" 
d="M484 182q0 -120 13 -182h-53q-6 63 -7 113q-52 -125 -182 -125q-73 0 -118.5 39.5t-45.5 104.5q0 66 52 103q44 33 151 45l140 17v9q0 86 -31.5 125t-100.5 39q-67 0 -103 -33t-39 -91h-53q5 79 57 122.5t141 43.5q92 0 135.5 -50.5t43.5 -156.5v-123zM435 258l-149 -18
q-75 -9 -109 -34.5t-34 -71.5q0 -48 32.5 -76t86.5 -28q78 0 125.5 52.5t47.5 135.5v40z" />
    <glyph glyph-name="b" unicode="b" 
d="M168 725v-346q18 62 65 97.5t107 35.5q96 0 151 -72t55 -189q0 -119 -55.5 -191t-153.5 -72q-59 0 -106.5 35t-64.5 95l-9 -118h-39v725h50zM166 239q0 -90 44 -148.5t119 -58.5q77 0 121 59.5t44 159.5q0 99 -43 158t-120 59q-75 0 -120 -59t-45 -149v-21z" />
    <glyph glyph-name="c" unicode="c" 
d="M309 -12q-107 0 -164 72.5t-57 191.5q0 117 57 188.5t166 71.5q82 0 135.5 -47t61.5 -130l-51 -5q-19 138 -151 138q-80 0 -123 -58.5t-43 -156.5q0 -101 44 -161t125 -60q65 0 103.5 37t47.5 103l48 -6q-12 -80 -62 -129t-137 -49z" />
    <glyph glyph-name="d" unicode="d" 
d="M450 725h50v-725h-48v122q-19 -62 -65 -98t-108 -36q-96 0 -152 72t-56 191q0 117 58.5 189t156.5 72q60 0 103 -33t61 -93v339zM451 260q0 91 -43.5 149.5t-117.5 58.5q-78 0 -122 -58.5t-44 -158.5t43.5 -159.5t119.5 -59.5q75 0 119.5 59t44.5 150v19z" />
    <glyph glyph-name="e" unicode="e" 
d="M513 243h-370v-2q0 -97 45.5 -153t126.5 -56q62 1 99.5 35t52.5 87l44 -18q-22 -69 -72.5 -108.5t-123.5 -39.5q-109 0 -166 71t-57 199q0 115 58.5 184.5t158.5 69.5q107 0 156 -68.5t49 -178.5q0 -3 -0.5 -10.5t-0.5 -11.5zM307 472q-77 0 -120 -55.5t-44 -131.5h319
q1 81 -36.5 134t-118.5 53z" />
    <glyph glyph-name="f" unicode="f" 
d="M506 500v-41h-198v-459h-50v459h-160v41h160v68q0 160 172 160q41 0 76 -7v-45q-40 6 -76 6q-65 0 -93.5 -27t-28.5 -91v-64h198z" />
    <glyph glyph-name="g" unicode="g" 
d="M395 76q73 0 113 -33.5t40 -95.5q0 -74 -59.5 -114t-169.5 -40q-105 0 -165 36.5t-60 100.5q0 83 89 112q-64 23 -64 85q0 31 19 55.5t52 35.5q-55 46 -55 126q0 75 49 121.5t128 46.5q53 0 98 -24q12 40 42.5 62t73.5 22q9 0 21 -2v-44q-18 2 -22 2q-68 0 -89 -58
q54 -46 54 -124q0 -74 -50 -120.5t-130 -46.5q-55 0 -96 23q-49 -19 -49 -64q0 -29 23 -45.5t63 -16.5h144zM312 472q-58 0 -94 -35.5t-36 -92.5q0 -56 35.5 -91t92.5 -35q58 0 95 36t37 92q0 55 -36.5 90.5t-93.5 35.5zM323 -165q175 0 175 109q0 87 -111 87h-137
q-18 0 -35 3q-71 -25 -71 -92q0 -52 46 -79.5t133 -27.5z" />
    <glyph glyph-name="h" unicode="h" 
d="M161 380q19 63 64 97.5t107 34.5q81 0 126 -44q51 -51 51 -163v-305h-50v305q0 93 -38 128t-101 35q-77 0 -118 -61t-41 -141v-266h-50v725h50v-345z" />
    <glyph glyph-name="i" unicode="i" 
d="M363 723v-123h-77v123h77zM136 0v42h169v416h-157v42h207v-458h179v-42h-398z" />
    <glyph glyph-name="j" unicode="j" 
d="M402 723v-123h-77v123h77zM113 -182v44q61 -17 113 -17q58 0 88 29.5t30 96.5v487h-190v42h240v-533q0 -80 -41 -124.5t-120 -44.5q-64 0 -120 20z" />
    <glyph glyph-name="k" unicode="k" 
d="M473 0l-178 278l-122 -117v-161h-50v725h50v-505l281 280h66l-189 -185l203 -315h-61z" />
    <glyph glyph-name="l" unicode="l" 
d="M136 0v42h166v641h-156v42h207v-683h181v-42h-398z" />
    <glyph glyph-name="m" unicode="m" 
d="M104 396q14 59 45 87.5t71 28.5q41 0 68.5 -28.5t36.5 -75.5q16 49 47.5 76.5t73.5 27.5q54 0 85 -40t31 -121v-351h-50v345q0 123 -79 123q-49 0 -74 -38t-25 -89v-341h-49v342q0 126 -79 126q-51 0 -75 -49t-24 -110v-309h-50v500h47v-104z" />
    <glyph glyph-name="n" unicode="n" 
d="M159 377q21 65 66 100t111 35q77 0 122 -44q51 -49 51 -163v-305h-50v305q0 163 -134 163q-80 0 -122 -61t-42 -141v-266h-50v500h48v-123z" />
    <glyph glyph-name="o" unicode="o" 
d="M310 -12q-102 0 -163 71t-61 191t61 191t163 71t163 -71t61 -191t-61 -191t-163 -71zM310 32q79 0 125.5 58.5t46.5 159.5t-46.5 159.5t-125.5 58.5t-125.5 -58.5t-46.5 -159.5t46.5 -159.5t125.5 -58.5z" />
    <glyph glyph-name="p" unicode="p" 
d="M166 500v-124q18 59 66 97.5t107 38.5q96 0 151.5 -72.5t55.5 -188.5q0 -119 -56.5 -191t-154.5 -72q-57 0 -104 35t-63 92v-310h-50v695h48zM166 241q0 -91 44 -150t119 -59q77 0 121 59t44 160q0 100 -42.5 158.5t-120.5 58.5q-74 0 -119.5 -60.5t-45.5 -147.5v-19z
" />
    <glyph glyph-name="q" unicode="q" 
d="M462 500h40v-695h-50v313q-18 -59 -65.5 -94.5t-107.5 -35.5q-96 0 -150.5 72t-54.5 191q0 116 57 188.5t154 72.5q58 0 104 -33.5t64 -90.5zM454 261q0 92 -45 149.5t-121 57.5t-118.5 -59t-42.5 -158q0 -101 42 -160t116 -59q77 0 123 58.5t46 148.5v22z" />
    <glyph glyph-name="r" unicode="r" 
d="M208 329q29 91 93.5 136t136.5 45q47 0 81 -12v-47q-35 13 -82 13q-96 0 -162.5 -76.5t-66.5 -198.5v-189h-50v500h50v-171z" />
    <glyph glyph-name="s" unicode="s" 
d="M322 -12q-88 0 -141 43t-63 126l50 7q18 -134 156 -134q61 0 94 26.5t33 73.5q0 44 -24.5 67t-78.5 31l-77 11q-137 19 -137 135q0 65 47 101.5t129 36.5t131.5 -40t56.5 -116l-50 -9q-15 124 -139 124q-59 0 -92.5 -25t-33.5 -70q0 -41 24.5 -63.5t77.5 -30.5l80 -11
q135 -18 135 -136q0 -69 -47 -108t-131 -39z" />
    <glyph glyph-name="t" unicode="t" 
d="M93 459v41h147v134l50 22v-156h200v-41h-200v-307q0 -113 116 -113q37 0 84 7v-44q-42 -10 -86 -10q-77 0 -120.5 40.5t-43.5 112.5v314h-147z" />
    <glyph glyph-name="u" unicode="u" 
d="M450 115q-17 -54 -63 -90.5t-107 -36.5q-79 0 -126 44q-48 48 -48 158v310h51v-310q0 -159 134 -159q76 0 116 60t40 135v274h50v-500h-47v115z" />
    <glyph glyph-name="v" unicode="v" 
d="M282 0l-209 500h53l156 -380q13 -30 27 -69h3q17 49 25 69l157 380h52l-208 -500h-56z" />
    <glyph glyph-name="w" unicode="w" 
d="M35 500h51l79 -378q8 -36 12 -65h5q8 46 14 71l89 372h48l89 -372q11 -48 14 -71h5q2 12 6.5 34.5t5.5 30.5l79 378h52l-114 -500h-59l-89 374q-2 11 -6.5 36.5t-4.5 27.5h-4q0 -2 -4.5 -27.5t-6.5 -36.5l-89 -374h-59z" />
    <glyph glyph-name="x" unicode="x" 
d="M310 226l-161 -226h-59l190 261l-177 239h59l149 -206l144 206h61l-174 -243l187 -257h-59z" />
    <glyph glyph-name="y" unicode="y" 
d="M149 500l170 -443l159 443h52l-197 -532q-33 -91 -74.5 -130t-105.5 -39q-23 0 -41 5v45q16 -4 39 -4q50 0 79 30t50 89l13 37l-199 499h55z" />
    <glyph glyph-name="z" unicode="z" 
d="M112 40l311 417h-299v43h359v-38l-310 -419h322v-43h-383v40z" />
    <glyph glyph-name="braceleft" unicode="{" 
d="M408 -114q-74 0 -122 36.5t-48 107.5v181q0 45 -14.5 65.5t-64.5 21.5v48q51 1 64.5 19.5t13.5 64.5v183q0 71 48 107.5t122 36.5h67v-41h-67q-54 0 -89 -27.5t-35 -88.5v-170q0 -44 -12 -70.5t-46 -36.5q58 -21 58 -113v-167q0 -61 35.5 -88.5t89.5 -27.5h67v-41h-67z
" />
    <glyph glyph-name="bar" unicode="|" 
d="M288 -117v877h44v-877h-44z" />
    <glyph glyph-name="braceright" unicode="}" 
d="M212 -114h-67v41h67q54 0 89.5 27.5t35.5 88.5v167q0 92 58 113q-34 10 -46 36.5t-12 70.5v170q0 61 -35 88.5t-89 27.5h-67v41h67q74 0 122 -36.5t48 -107.5v-183q0 -46 13.5 -64.5t64.5 -19.5v-48q-50 -1 -64.5 -21.5t-14.5 -65.5v-181q0 -71 -48 -107.5t-122 -36.5z
" />
    <glyph glyph-name="asciitilde" unicode="~" 
d="M215 365q30 0 58.5 -13.5t46.5 -30t42 -30t46 -13.5q64 0 80 84l41 -7q-11 -62 -45 -92t-77 -30q-37 0 -70 22t-63 44t-59 22q-69 0 -80 -77l-44 4q7 58 42.5 87.5t81.5 29.5z" />
    <glyph glyph-name="uni00A0" unicode="&#xa0;" 
 />
    <glyph glyph-name="exclamdown" unicode="&#xa1;" 
d="M359 401h-100v114h100v-114zM288 337h42l8 -532h-58z" />
    <glyph glyph-name="cent" unicode="&#xa2;" 
d="M519 167q-11 -77 -58 -126t-127 -53v-77h-33v78q-98 7 -149.5 78.5t-51.5 185.5q0 111 51 181t150 77v83h33v-82q78 -4 127.5 -50.5t56.5 -125.5l-50 -5q-17 127 -134 136v-435q59 4 94 41.5t43 99.5zM151 254q0 -96 38.5 -155t111.5 -66v434q-73 -6 -111.5 -63
t-38.5 -150z" />
    <glyph glyph-name="sterling" unicode="&#xa3;" 
d="M507 155l47 -8q-6 -86 -47.5 -124t-102.5 -38q-33 0 -95.5 15.5t-108.5 15.5q-61 0 -151 -22l-12 38q148 44 148 197q0 49 -12 115h-113v39h104q-18 80 -18 132q0 95 51 145t135 50q79 0 124 -44t56 -125l-51 -11q-7 67 -40 102t-89 35q-59 0 -95 -35.5t-36 -113.5
q0 -51 18 -135h173v-39h-165q10 -62 10 -106q0 -139 -108 -190q45 12 93 12q38 0 94 -13.5t89 -13.5q44 0 71 30t31 92z" />
    <glyph glyph-name="currency" unicode="&#xa4;" 
d="M525 303q0 -92 -50 -153l51 -55l-25 -24l-52 53q-56 -47 -137 -47q-83 0 -140 49l-53 -55l-25 23l54 57q-50 59 -50 152q0 91 49 151l-54 57l25 24l54 -55q57 49 140 49q81 0 137 -47l52 53l26 -24l-52 -55q50 -61 50 -153zM312 120q72 0 119 49.5t47 133.5t-47 133.5
t-119 49.5t-119.5 -49.5t-47.5 -133.5t47.5 -133.5t119.5 -49.5z" />
    <glyph glyph-name="yen" unicode="&#xa5;" 
d="M558 695l-221 -379h190v-38h-192v-93h192v-38h-192v-147h-53v147h-194v38h194v93h-194v38h192l-219 379h59l188 -332l191 332h59z" />
    <glyph glyph-name="brokenbar" unicode="&#xa6;" 
d="M331 760v-378h-43v378h43zM331 261v-378h-43v378h43z" />
    <glyph glyph-name="section" unicode="&#xa7;" 
d="M434 181q50 -41 50 -103q0 -69 -51.5 -108.5t-131.5 -39.5q-81 0 -130.5 41.5t-57.5 114.5l50 8q10 -56 46.5 -88t97.5 -32q55 0 90.5 27t35.5 72q0 41 -23 65t-90 54l-86 39q-61 28 -88.5 62.5t-27.5 87.5q0 81 74 119q-46 40 -46 106q0 67 48.5 103.5t125.5 36.5
q78 0 122.5 -37t53.5 -104l-49 -9q-20 110 -132 110q-53 0 -84.5 -25t-31.5 -70q0 -41 19.5 -65.5t72.5 -48.5l82 -37q70 -32 103.5 -67t33.5 -90q0 -85 -76 -122zM269 269l79 -37q28 -13 58 -31q51 37 51 93q0 48 -30.5 74.5t-108.5 62.5l-75 36q-16 8 -24 13
q-48 -34 -48 -90q0 -42 21.5 -68.5t76.5 -52.5z" />
    <glyph glyph-name="dieresis" unicode="&#xa8;" 
d="M265 723v-116h-77v116h77zM431 723v-116h-76v116h76z" />
    <glyph glyph-name="copyright" unicode="&#xa9;" 
d="M310 -17q-109 0 -173 74.5t-64 211.5v171q0 137 64 211.5t173 74.5t173 -74.5t64 -211.5v-171q0 -137 -64 -211.5t-173 -74.5zM310 14q93 0 148 65.5t55 189.5v171q0 124 -55 189.5t-148 65.5t-148 -65.5t-55 -189.5v-171q0 -124 55 -189.5t148 -65.5zM314 142
q-122 0 -122 161v104q0 161 123 161q54 0 81 -37.5t29 -95.5v-7l-43 -2v8q-2 96 -69 96q-77 0 -77 -123v-104q0 -123 77 -123q35 0 52.5 28t18.5 66v5l42 -5v-4q-3 -52 -30 -90t-82 -38z" />
    <glyph glyph-name="ordfeminine" unicode="&#xaa;" 
d="M457 440q0 -84 9 -130h-46q-4 45 -5 79q-38 -88 -138 -88q-55 0 -89 28.5t-34 75.5q0 51 37 75.5t106 32.5l115 13q-1 67 -22.5 96t-73.5 29q-99 0 -104 -89h-47q5 58 44.5 90t107.5 32q72 0 106 -37t34 -114v-93zM413 498l-107 -13q-106 -11 -106 -76q0 -34 24 -54.5
t64 -20.5q56 0 90.5 37t34.5 93v34z" />
    <glyph glyph-name="guillemotleft" unicode="&#xab;" 
d="M255 67l-168 208l173 207h53l-169 -206l166 -209h-55zM435 67l-168 208l173 207h52l-169 -206l166 -209h-54z" />
    <glyph glyph-name="logicalnot" unicode="&#xac;" 
d="M85 358h449v-227h-48v179h-401v48z" />
    <glyph glyph-name="registered" unicode="&#xae;" 
d="M310 726q109 0 173 -74.5t64 -211.5v-171q0 -137 -64 -211.5t-173 -74.5t-173 74.5t-64 211.5v171q0 137 64 211.5t173 74.5zM513 269v171q0 124 -55 189.5t-148 65.5t-148 -65.5t-55 -189.5v-171q0 -124 55 -189.5t148 -65.5t148 65.5t55 189.5zM429 448q0 -84 -82 -108
l91 -184h-46l-87 179h-58v-179h-42v406h101q65 0 94 -31.5t29 -82.5zM247 371h49q92 0 92 78q0 77 -84 77h-57v-155z" />
    <glyph glyph-name="macron" unicode="&#xaf;" 
d="M166 605v41h288v-41h-288z" />
    <glyph glyph-name="degree" unicode="&#xb0;" 
d="M465 558q0 -66 -44.5 -112.5t-110.5 -46.5q-65 0 -110 46t-45 113q0 68 45 113.5t110 45.5t110 -46t45 -113zM198 558q0 -50 32.5 -84t79.5 -34q48 0 80 34t32 84q0 51 -32.5 85t-79.5 34t-79.5 -34t-32.5 -85z" />
    <glyph glyph-name="plusminus" unicode="&#xb1;" 
d="M335 355h210v-42h-210v-182h-50v182h-210v42h210v187h50v-187zM75 0v46h470v-46h-470z" />
    <glyph glyph-name="acute" unicode="&#xb4;" 
d="M226 579l105 141h62l-120 -141h-47z" />
    <glyph glyph-name="uni00B5" unicode="&#xb5;" 
d="M447 500h50v-500h-47v115q-17 -54 -63 -90.5t-107 -36.5q-76 0 -124 42v-225h-50v695h51v-310q0 -159 134 -159q76 0 116 60t40 135v274z" />
    <glyph glyph-name="paragraph" unicode="&#xb6;" 
d="M280 361q-231 0 -231 178q0 65 34.5 107t85 58t116.5 16h286v-33h-104v-787h-39v787h-109v-787h-39v461z" />
    <glyph glyph-name="periodcentered" unicode="&#xb7;" 
d="M473 415v-114h-109v114h109z" />
    <glyph glyph-name="cedilla" unicode="&#xb8;" 
d="M290 3h35l-41 -69q15 14 42 14q30 0 49.5 -19t19.5 -50q0 -35 -26 -57.5t-61 -22.5q-65 0 -84 57l38 8q10 -35 46 -35q19 0 32.5 12t13.5 36q0 22 -13 33.5t-31 11.5q-25 0 -41 -16l-27 9z" />
    <glyph glyph-name="ordmasculine" unicode="&#xba;" 
d="M310 301q-77 0 -124.5 52t-47.5 140t47.5 139.5t124.5 51.5t124.5 -51.5t47.5 -139.5q0 -89 -47 -140.5t-125 -51.5zM310 337q57 0 91 41.5t34 114.5q0 72 -34 113.5t-91 41.5q-58 0 -92 -41.5t-34 -113.5q0 -73 34 -114.5t92 -41.5z" />
    <glyph glyph-name="guillemotright" unicode="&#xbb;" 
d="M185 67l168 208l-173 207h-52l169 -206l-166 -209h54zM365 67l168 208l-173 207h-53l169 -206l-166 -209h55z" />
    <glyph glyph-name="onequarter" unicode="&#xbc;" horiz-adv-x="1240" 
d="M878 727h51l-515 -744h-52zM425 366v-31h-264v31h114v289q-12 -15 -43.5 -27t-54.5 -12h-11v36h8q31 0 65 17t43 40h35v-343h108zM1010 129h70v-32h-70v-97h-40v97h-202v31l196 246h46v-245zM970 129v208l-168 -208h168z" />
    <glyph glyph-name="onehalf" unicode="&#xbd;" horiz-adv-x="1240" 
d="M865 727h51l-515 -744h-52zM427 366v-31h-264v31h114v289q-12 -15 -43.5 -27t-54.5 -12h-11v36h8q31 0 65 17t43 40h35v-343h108zM861 33h216v-33h-272v32q57 43 84.5 64.5t64 55t51.5 61t15 55.5q0 80 -83 80q-41 0 -63.5 -20t-22.5 -57q0 -13 3 -28l-42 3q-3 17 -3 26
q0 50 35 80.5t93 30.5q60 0 93 -29.5t33 -82.5q0 -57 -53 -113t-149 -125z" />
    <glyph glyph-name="threequarters" unicode="&#xbe;" horiz-adv-x="1240" 
d="M871 727h51l-515 -744h-52zM289 542h27q33 0 57 17.5t24 52.5t-22.5 53.5t-59.5 18.5q-41 0 -63.5 -24.5t-21.5 -65.5l-43 4q-1 55 33.5 87.5t96.5 32.5q56 0 89.5 -27t33.5 -75q0 -35 -21 -58.5t-57 -28.5q41 -2 65.5 -27.5t24.5 -65.5q0 -50 -36.5 -79.5t-97.5 -29.5
t-97 32t-38 85l44 3q1 -38 25.5 -63t65.5 -25q40 0 65 20t25 59q0 31 -20.5 53t-67.5 22h-31v29zM1057 97h-70v-97h-40v97h-202v31l196 246h46v-245h70v-32zM947 129v208l-168 -208h168z" />
    <glyph glyph-name="questiondown" unicode="&#xbf;" 
d="M266 403v114h99v-114h-99zM512 17q2 -12 2 -24q0 -95 -54.5 -149t-154.5 -54q-90 0 -144.5 48.5t-54.5 132.5q0 47 23.5 87t65.5 87l45 49q53 56 53 135v10h51v-25q0 -75 -65 -146l-45 -49q-72 -78 -72 -147q0 -63 40 -100t103 -37q74 0 115 40t41 122q0 13 -2 25z" />
    <glyph glyph-name="Agrave" unicode="&#xc0;" 
d="M336 776h-50l-98 108h67zM520 0l-73 221h-273l-73 -221h-55l234 710h61l234 -710h-55zM189 269h243l-17 51q-61 187 -103 338h-2q-47 -164 -104 -338z" />
    <glyph glyph-name="Aacute" unicode="&#xc1;" 
d="M434 884l-98 -108h-50l81 108h67zM520 0l-73 221h-273l-73 -221h-55l234 710h61l234 -710h-55zM189 269h243l-17 51q-61 187 -103 338h-2q-47 -164 -104 -338z" />
    <glyph glyph-name="Acircumflex" unicode="&#xc2;" 
d="M310 856l-78 -80h-54l105 108h56l105 -108h-55zM520 0l-73 221h-273l-73 -221h-55l234 710h61l234 -710h-55zM189 269h243l-17 51q-61 187 -103 338h-2q-47 -164 -104 -338z" />
    <glyph glyph-name="Atilde" unicode="&#xc3;" 
d="M235 843q-55 0 -63 -62l-38 6q6 49 35.5 72.5t68.5 23.5q37 0 83 -33.5t73 -33.5q21 0 37 15.5t19 49.5l37 -5q-4 -49 -30.5 -74.5t-65.5 -25.5q-37 0 -82 33.5t-74 33.5zM520 0l-73 221h-273l-73 -221h-55l234 710h61l234 -710h-55zM189 269h243l-17 51
q-61 187 -103 338h-2q-47 -164 -104 -338z" />
    <glyph glyph-name="Adieresis" unicode="&#xc4;" 
d="M240 884v-109h-72v109h72zM453 884v-109h-72v109h72zM520 0l-73 221h-273l-73 -221h-55l234 710h61l234 -710h-55zM189 269h243l-17 51q-61 187 -103 338h-2q-47 -164 -104 -338z" />
    <glyph glyph-name="Aring" unicode="&#xc5;" 
d="M311 733q-42 0 -69 26.5t-27 64.5q0 39 27 65t69 26t69 -26t27 -65q0 -38 -27 -64.5t-69 -26.5zM311 885q-28 0 -43.5 -17.5t-15.5 -43.5t15.5 -43t43.5 -17t43.5 17t15.5 43t-15.5 43.5t-43.5 17.5zM520 0l-73 221h-273l-73 -221h-55l234 710h61l234 -710h-55zM189 269
h243l-17 51q-61 187 -103 338h-2q-47 -164 -104 -338z" />
    <glyph glyph-name="AE" unicode="&#xc6;" 
d="M340 47h226v-47h-278v177h-157l-56 -177h-54l235 710h303v-47h-219v-276h202v-46h-202v-294zM145 221h143v451z" />
    <glyph glyph-name="Ccedilla" unicode="&#xc7;" 
d="M550 228q-12 -108 -67 -173.5t-155 -71.5l-29 -49q15 14 42 14q30 0 49.5 -19t19.5 -50q0 -35 -26 -57.5t-61 -22.5q-65 0 -84 57l38 8q10 -35 46 -35q19 0 32.5 12t13.5 36q0 22 -13 33.5t-31 11.5q-25 0 -41 -16l-27 9l37 68q-112 7 -168.5 91t-56.5 233v98
q0 156 63.5 239t183.5 83q212 0 232 -252l-54 -7q-14 212 -179 212q-190 0 -190 -272v-97q0 -137 48.5 -209t142.5 -72q78 0 124 53t56 154z" />
    <glyph glyph-name="Egrave" unicode="&#xc8;" 
d="M335 776h-50l-98 108h67zM515 710v-47h-345v-276h328v-46h-328v-294h352v-47h-406v710h399z" />
    <glyph glyph-name="Eacute" unicode="&#xc9;" 
d="M285 776l81 108h67l-98 -108h-50zM515 710v-47h-345v-276h328v-46h-328v-294h352v-47h-406v710h399z" />
    <glyph glyph-name="Ecircumflex" unicode="&#xca;" 
d="M443 776h-55l-79 80l-78 -80h-54l105 108h56zM515 710v-47h-345v-276h328v-46h-328v-294h352v-47h-406v710h399z" />
    <glyph glyph-name="Edieresis" unicode="&#xcb;" 
d="M239 884v-109h-72v109h72zM452 884v-109h-72v109h72zM515 710v-47h-345v-276h328v-46h-328v-294h352v-47h-406v710h399z" />
    <glyph glyph-name="Igrave" unicode="&#xcc;" 
d="M335 776h-50l-98 108h67zM524 666h-187v-622h187v-44h-428v44h187v622h-187v44h428v-44z" />
    <glyph glyph-name="Iacute" unicode="&#xcd;" 
d="M433 884l-98 -108h-50l81 108h67zM524 666h-187v-622h187v-44h-428v44h187v622h-187v44h428v-44z" />
    <glyph glyph-name="Icircumflex" unicode="&#xce;" 
d="M309 856l-78 -80h-54l105 108h56l105 -108h-55zM524 666h-187v-622h187v-44h-428v44h187v622h-187v44h428v-44z" />
    <glyph glyph-name="Idieresis" unicode="&#xcf;" 
d="M239 884v-109h-72v109h72zM452 884v-109h-72v109h72zM524 666h-187v-622h187v-44h-428v44h187v622h-187v44h428v-44z" />
    <glyph glyph-name="Eth" unicode="&#xd0;" 
d="M263 710q145 0 223 -94t78 -255q0 -165 -80.5 -263t-224.5 -98h-168v346h-91v44h91v320h172zM260 46q118 0 183.5 87t65.5 228q0 140 -63 221.5t-183 81.5h-117v-274h171v-44h-171v-300h114z" />
    <glyph glyph-name="Ntilde" unicode="&#xd1;" 
d="M237 883q37 0 83 -33.5t73 -33.5q21 0 37 15.5t19 49.5l37 -5q-4 -49 -30.5 -74.5t-65.5 -25.5q-37 0 -82 33.5t-74 33.5q-55 0 -63 -62l-38 6q6 49 35.5 72.5t68.5 23.5zM446 144q11 -23 26 -66h2q-2 48 -2 68v564h54v-710h-65l-287 581q-8 16 -17 39.5t-10 25.5h-1
q2 -23 2 -61v-585h-55v710h72z" />
    <glyph glyph-name="Ograve" unicode="&#xd2;" 
d="M335 776h-50l-98 108h67zM310 -17q-119 0 -180.5 86t-61.5 247v78q0 161 61.5 247t180.5 86t180.5 -86t61.5 -247v-78q0 -161 -61.5 -247t-180.5 -86zM310 30q186 0 186 286v78q0 286 -186 286t-186 -286v-78q0 -286 186 -286z" />
    <glyph glyph-name="Oacute" unicode="&#xd3;" 
d="M285 776l81 108h67l-98 -108h-50zM310 -17q-119 0 -180.5 86t-61.5 247v78q0 161 61.5 247t180.5 86t180.5 -86t61.5 -247v-78q0 -161 -61.5 -247t-180.5 -86zM310 30q186 0 186 286v78q0 286 -186 286t-186 -286v-78q0 -286 186 -286z" />
    <glyph glyph-name="Ocircumflex" unicode="&#xd4;" 
d="M443 776h-55l-79 80l-78 -80h-54l105 108h56zM310 -17q-119 0 -180.5 86t-61.5 247v78q0 161 61.5 247t180.5 86t180.5 -86t61.5 -247v-78q0 -161 -61.5 -247t-180.5 -86zM310 30q186 0 186 286v78q0 286 -186 286t-186 -286v-78q0 -286 186 -286z" />
    <glyph glyph-name="Otilde" unicode="&#xd5;" 
d="M237 883q37 0 83 -33.5t73 -33.5q21 0 37 15.5t19 49.5l37 -5q-4 -49 -30.5 -74.5t-65.5 -25.5q-37 0 -82 33.5t-74 33.5q-55 0 -63 -62l-38 6q6 49 35.5 72.5t68.5 23.5zM310 -17q-119 0 -180.5 86t-61.5 247v78q0 161 61.5 247t180.5 86t180.5 -86t61.5 -247v-78
q0 -161 -61.5 -247t-180.5 -86zM310 30q186 0 186 286v78q0 286 -186 286t-186 -286v-78q0 -286 186 -286z" />
    <glyph glyph-name="Odieresis" unicode="&#xd6;" 
d="M239 884v-109h-72v109h72zM452 884v-109h-72v109h72zM310 -17q-119 0 -180.5 86t-61.5 247v78q0 161 61.5 247t180.5 86t180.5 -86t61.5 -247v-78q0 -161 -61.5 -247t-180.5 -86zM310 30q186 0 186 286v78q0 286 -186 286t-186 -286v-78q0 -286 186 -286z" />
    <glyph glyph-name="multiply" unicode="&#xd7;" 
d="M541 525l-198 -198l198 -197l-33 -34l-198 198l-198 -198l-33 33l198 198l-198 198l33 33l198 -197l197 197z" />
    <glyph glyph-name="Oslash" unicode="&#xd8;" 
d="M558 706l-56 -83q50 -85 50 -229v-78q0 -161 -61.5 -247t-180.5 -86t-180 86l-58 -86l-33 18l69 103q-40 80 -40 212v78q0 161 61.5 247t180.5 86q107 0 169 -71l47 69zM124 316q0 -93 20 -158l305 452q-46 70 -139 70q-186 0 -186 -286v-78zM496 394q0 113 -28 179
l-306 -457q44 -86 148 -86q186 0 186 286v78z" />
    <glyph glyph-name="Ugrave" unicode="&#xd9;" 
d="M335 776h-50l-98 108h67zM84 710h55v-494q0 -86 45 -136t128 -50q82 0 125.5 49.5t43.5 136.5v494h54v-495q0 -107 -57 -169.5t-166 -62.5q-110 0 -169 63t-59 169v495z" />
    <glyph glyph-name="Uacute" unicode="&#xda;" 
d="M285 776l81 108h67l-98 -108h-50zM84 710h55v-494q0 -86 45 -136t128 -50q82 0 125.5 49.5t43.5 136.5v494h54v-495q0 -107 -57 -169.5t-166 -62.5q-110 0 -169 63t-59 169v495z" />
    <glyph glyph-name="Ucircumflex" unicode="&#xdb;" 
d="M443 776h-55l-79 80l-78 -80h-54l105 108h56zM84 710h55v-494q0 -86 45 -136t128 -50q82 0 125.5 49.5t43.5 136.5v494h54v-495q0 -107 -57 -169.5t-166 -62.5q-110 0 -169 63t-59 169v495z" />
    <glyph glyph-name="Udieresis" unicode="&#xdc;" 
d="M239 884v-109h-72v109h72zM452 884v-109h-72v109h72zM84 710h55v-494q0 -86 45 -136t128 -50q82 0 125.5 49.5t43.5 136.5v494h54v-495q0 -107 -57 -169.5t-166 -62.5q-110 0 -169 63t-59 169v495z" />
    <glyph glyph-name="Yacute" unicode="&#xdd;" 
d="M285 776l81 108h67l-98 -108h-50zM338 288v-288h-54v288l-236 422h60l203 -374l201 374h60z" />
    <glyph glyph-name="Thorn" unicode="&#xde;" 
d="M163 205v-205h-53v710h53v-122h165q114 0 165.5 -55t51.5 -132q0 -34 -10.5 -66t-33.5 -62.5t-68 -49t-105 -18.5h-165zM163 543v-293h165q86 0 124.5 45.5t38.5 105.5q0 58 -38.5 100t-124.5 42h-165z" />
    <glyph glyph-name="germandbls" unicode="&#xdf;" 
d="M258 -5v42h38q94 0 143 44.5t49 124.5t-50 127.5t-148 49.5h-20v40h23q81 2 115.5 41t34.5 94q0 59 -34 96.5t-98 37.5q-136 0 -136 -176v-516h-50v516q0 98 45.5 157t140.5 59q87 0 136 -48.5t49 -120.5q0 -62 -35.5 -104.5t-93.5 -51.5q77 -9 125.5 -61t48.5 -139
q0 -100 -65.5 -156t-179.5 -56h-38z" />
    <glyph glyph-name="agrave" unicode="&#xe0;" 
d="M328 579h-47l-120 141h62zM484 182q0 -120 13 -182h-53q-6 63 -7 113q-52 -125 -182 -125q-73 0 -118.5 39.5t-45.5 104.5q0 66 52 103q44 33 151 45l140 17v9q0 86 -31.5 125t-100.5 39q-67 0 -103 -33t-39 -91h-53q5 79 57 122.5t141 43.5q92 0 135.5 -50.5
t43.5 -156.5v-123zM435 258l-149 -18q-75 -9 -109 -34.5t-34 -71.5q0 -48 32.5 -76t86.5 -28q78 0 125.5 52.5t47.5 135.5v40z" />
    <glyph glyph-name="aacute" unicode="&#xe1;" 
d="M280 579l105 141h62l-120 -141h-47zM484 182q0 -120 13 -182h-53q-6 63 -7 113q-52 -125 -182 -125q-73 0 -118.5 39.5t-45.5 104.5q0 66 52 103q44 33 151 45l140 17v9q0 86 -31.5 125t-100.5 39q-67 0 -103 -33t-39 -91h-53q5 79 57 122.5t141 43.5q92 0 135.5 -50.5
t43.5 -156.5v-123zM435 258l-149 -18q-75 -9 -109 -34.5t-34 -71.5q0 -48 32.5 -76t86.5 -28q78 0 125.5 52.5t47.5 135.5v40z" />
    <glyph glyph-name="acircumflex" unicode="&#xe2;" 
d="M439 579h-51l-84 107l-84 -107h-51l110 141h50zM484 182q0 -120 13 -182h-53q-6 63 -7 113q-52 -125 -182 -125q-73 0 -118.5 39.5t-45.5 104.5q0 66 52 103q44 33 151 45l140 17v9q0 86 -31.5 125t-100.5 39q-67 0 -103 -33t-39 -91h-53q5 79 57 122.5t141 43.5
q92 0 135.5 -50.5t43.5 -156.5v-123zM435 258l-149 -18q-75 -9 -109 -34.5t-34 -71.5q0 -48 32.5 -76t86.5 -28q78 0 125.5 52.5t47.5 135.5v40z" />
    <glyph glyph-name="atilde" unicode="&#xe3;" 
d="M230 709q39 0 84 -36t70 -36q22 0 39 17.5t20 51.5l38 -4q-8 -55 -36 -81t-65 -26q-35 0 -79 36t-72 36q-25 0 -42.5 -17t-21.5 -49l-38 5q7 51 36.5 77t66.5 26zM484 182q0 -120 13 -182h-53q-6 63 -7 113q-52 -125 -182 -125q-73 0 -118.5 39.5t-45.5 104.5
q0 66 52 103q44 33 151 45l140 17v9q0 86 -31.5 125t-100.5 39q-67 0 -103 -33t-39 -91h-53q5 79 57 122.5t141 43.5q92 0 135.5 -50.5t43.5 -156.5v-123zM435 258l-149 -18q-75 -9 -109 -34.5t-34 -71.5q0 -48 32.5 -76t86.5 -28q78 0 125.5 52.5t47.5 135.5v40z" />
    <glyph glyph-name="adieresis" unicode="&#xe4;" 
d="M259 723v-116h-77v116h77zM425 723v-116h-76v116h76zM484 182q0 -120 13 -182h-53q-6 63 -7 113q-52 -125 -182 -125q-73 0 -118.5 39.5t-45.5 104.5q0 66 52 103q44 33 151 45l140 17v9q0 86 -31.5 125t-100.5 39q-67 0 -103 -33t-39 -91h-53q5 79 57 122.5t141 43.5
q92 0 135.5 -50.5t43.5 -156.5v-123zM435 258l-149 -18q-75 -9 -109 -34.5t-34 -71.5q0 -48 32.5 -76t86.5 -28q78 0 125.5 52.5t47.5 135.5v40z" />
    <glyph glyph-name="aring" unicode="&#xe5;" 
d="M304 559q-44 0 -71.5 27.5t-27.5 69.5t27.5 69t71.5 27t71.5 -27t27.5 -69t-27.5 -69.5t-71.5 -27.5zM304 591q29 0 45.5 18.5t16.5 46.5t-16.5 46t-45.5 18t-45.5 -18t-16.5 -46t16.5 -46.5t45.5 -18.5zM484 182q0 -120 13 -182h-53q-6 63 -7 113q-52 -125 -182 -125
q-73 0 -118.5 39.5t-45.5 104.5q0 66 52 103q44 33 151 45l140 17v9q0 86 -31.5 125t-100.5 39q-67 0 -103 -33t-39 -91h-53q5 79 57 122.5t141 43.5q92 0 135.5 -50.5t43.5 -156.5v-123zM435 258l-149 -18q-75 -9 -109 -34.5t-34 -71.5q0 -48 32.5 -76t86.5 -28
q78 0 125.5 52.5t47.5 135.5v40z" />
    <glyph glyph-name="ae" unicode="&#xe6;" 
d="M530 169l49 -7v-4q0 -76 -40 -122t-108 -46q-45 0 -79 22.5t-51 62.5q-16 -40 -50.5 -62.5t-78.5 -22.5q-56 0 -93.5 35.5t-37.5 101.5q0 65 31.5 98.5t102.5 45.5l110 20v54q0 125 -93 125q-46 0 -69 -31.5t-23 -82.5v-12h-50v3q0 78 39.5 120.5t103.5 42.5
q88 0 120 -67q39 67 119 67q71 0 108.5 -50t37.5 -142v-63h-244v-99q0 -58 27.5 -91t70.5 -33t70.5 34.5t27.5 92.5v10zM431 468q-44 0 -70.5 -34.5t-26.5 -106.5v-37h194v35q0 143 -97 143zM181 29q45 0 75 38t30 110v79l-95 -17q-52 -9 -76 -33.5t-24 -72.5q0 -52 25 -78
t65 -26z" />
    <glyph glyph-name="ccedilla" unicode="&#xe7;" 
d="M309 32q65 0 103.5 37t47.5 103l48 -6q-12 -77 -59 -125.5t-129 -52.5l-32 -54q15 14 42 14q30 0 49.5 -19t19.5 -50q0 -35 -26 -57.5t-61 -22.5q-65 0 -84 57l38 8q10 -35 46 -35q19 0 32.5 12t13.5 36q0 22 -13 33.5t-31 11.5q-25 0 -41 -16l-27 9l40 74
q-96 8 -147 79.5t-51 183.5q0 117 57 188.5t166 71.5q82 0 135.5 -47t61.5 -130l-51 -5q-19 138 -151 138q-80 0 -123 -58.5t-43 -156.5q0 -101 44 -161t125 -60z" />
    <glyph glyph-name="egrave" unicode="&#xe8;" 
d="M334 579h-47l-120 141h62zM513 243h-370v-2q0 -97 45.5 -153t126.5 -56q62 1 99.5 35t52.5 87l44 -18q-22 -69 -72.5 -108.5t-123.5 -39.5q-109 0 -166 71t-57 199q0 115 58.5 184.5t158.5 69.5q107 0 156 -68.5t49 -178.5q0 -3 -0.5 -10.5t-0.5 -11.5zM307 472
q-77 0 -120 -55.5t-44 -131.5h319q1 81 -36.5 134t-118.5 53z" />
    <glyph glyph-name="eacute" unicode="&#xe9;" 
d="M453 720l-120 -141h-47l105 141h62zM513 243h-370v-2q0 -97 45.5 -153t126.5 -56q62 1 99.5 35t52.5 87l44 -18q-22 -69 -72.5 -108.5t-123.5 -39.5q-109 0 -166 71t-57 199q0 115 58.5 184.5t158.5 69.5q107 0 156 -68.5t49 -178.5q0 -3 -0.5 -10.5t-0.5 -11.5zM307 472
q-77 0 -120 -55.5t-44 -131.5h319q1 81 -36.5 134t-118.5 53z" />
    <glyph glyph-name="ecircumflex" unicode="&#xea;" 
d="M310 686l-84 -107h-51l110 141h50l110 -141h-51zM513 243h-370v-2q0 -97 45.5 -153t126.5 -56q62 1 99.5 35t52.5 87l44 -18q-22 -69 -72.5 -108.5t-123.5 -39.5q-109 0 -166 71t-57 199q0 115 58.5 184.5t158.5 69.5q107 0 156 -68.5t49 -178.5q0 -3 -0.5 -10.5
t-0.5 -11.5zM307 472q-77 0 -120 -55.5t-44 -131.5h319q1 81 -36.5 134t-118.5 53z" />
    <glyph glyph-name="edieresis" unicode="&#xeb;" 
d="M265 723v-116h-77v116h77zM431 723v-116h-76v116h76zM513 243h-370v-2q0 -97 45.5 -153t126.5 -56q62 1 99.5 35t52.5 87l44 -18q-22 -69 -72.5 -108.5t-123.5 -39.5q-109 0 -166 71t-57 199q0 115 58.5 184.5t158.5 69.5q107 0 156 -68.5t49 -178.5q0 -3 -0.5 -10.5
t-0.5 -11.5zM307 472q-77 0 -120 -55.5t-44 -131.5h319q1 81 -36.5 134t-118.5 53z" />
    <glyph glyph-name="igrave" unicode="&#xec;" 
d="M349 579h-47l-120 141h62zM136 0v42h169v416h-157v42h207v-458h179v-42h-398z" />
    <glyph glyph-name="iacute" unicode="&#xed;" 
d="M301 579l105 141h62l-120 -141h-47zM136 0v42h169v416h-157v42h207v-458h179v-42h-398z" />
    <glyph glyph-name="icircumflex" unicode="&#xee;" 
d="M460 579h-51l-84 107l-84 -107h-51l110 141h50zM136 0v42h169v416h-157v42h207v-458h179v-42h-398z" />
    <glyph glyph-name="idieresis" unicode="&#xef;" 
d="M280 723v-116h-77v116h77zM446 723v-116h-76v116h76zM136 0v42h169v416h-157v42h207v-458h179v-42h-398z" />
    <glyph glyph-name="eth" unicode="&#xf0;" 
d="M410 611q110 -134 110 -353q0 -118 -59.5 -195t-158.5 -77q-102 0 -159.5 71.5t-57.5 192.5q0 117 57 188.5t156 71.5q106 0 152 -97q-24 113 -87 183l-194 -60l-12 34l177 55q-55 47 -127 62l26 34q86 -21 150 -81l81 25l11 -34zM302 31q81 0 123 62t42 157
q0 97 -40 157t-125 60q-81 0 -122.5 -61t-41.5 -156q0 -94 40 -156.5t124 -62.5z" />
    <glyph glyph-name="ntilde" unicode="&#xf1;" 
d="M236 709q39 0 84 -36t70 -36q22 0 39 17.5t20 51.5l38 -4q-8 -55 -36 -81t-65 -26q-35 0 -79 36t-72 36q-25 0 -42.5 -17t-21.5 -49l-38 5q7 51 36.5 77t66.5 26zM159 377q21 65 66 100t111 35q77 0 122 -44q51 -49 51 -163v-305h-50v305q0 163 -134 163q-80 0 -122 -61
t-42 -141v-266h-50v500h48v-123z" />
    <glyph glyph-name="ograve" unicode="&#xf2;" 
d="M334 579h-47l-120 141h62zM310 -12q-102 0 -163 71t-61 191t61 191t163 71t163 -71t61 -191t-61 -191t-163 -71zM310 32q79 0 125.5 58.5t46.5 159.5t-46.5 159.5t-125.5 58.5t-125.5 -58.5t-46.5 -159.5t46.5 -159.5t125.5 -58.5z" />
    <glyph glyph-name="oacute" unicode="&#xf3;" 
d="M286 579l105 141h62l-120 -141h-47zM310 -12q-102 0 -163 71t-61 191t61 191t163 71t163 -71t61 -191t-61 -191t-163 -71zM310 32q79 0 125.5 58.5t46.5 159.5t-46.5 159.5t-125.5 58.5t-125.5 -58.5t-46.5 -159.5t46.5 -159.5t125.5 -58.5z" />
    <glyph glyph-name="ocircumflex" unicode="&#xf4;" 
d="M445 579h-51l-84 107l-84 -107h-51l110 141h50zM310 -12q-102 0 -163 71t-61 191t61 191t163 71t163 -71t61 -191t-61 -191t-163 -71zM310 32q79 0 125.5 58.5t46.5 159.5t-46.5 159.5t-125.5 58.5t-125.5 -58.5t-46.5 -159.5t46.5 -159.5t125.5 -58.5z" />
    <glyph glyph-name="otilde" unicode="&#xf5;" 
d="M236 709q39 0 84 -36t70 -36q22 0 39 17.5t20 51.5l38 -4q-8 -55 -36 -81t-65 -26q-35 0 -79 36t-72 36q-25 0 -42.5 -17t-21.5 -49l-38 5q7 51 36.5 77t66.5 26zM310 -12q-102 0 -163 71t-61 191t61 191t163 71t163 -71t61 -191t-61 -191t-163 -71zM310 32
q79 0 125.5 58.5t46.5 159.5t-46.5 159.5t-125.5 58.5t-125.5 -58.5t-46.5 -159.5t46.5 -159.5t125.5 -58.5z" />
    <glyph glyph-name="odieresis" unicode="&#xf6;" 
d="M265 723v-116h-77v116h77zM431 723v-116h-76v116h76zM310 -12q-102 0 -163 71t-61 191t61 191t163 71t163 -71t61 -191t-61 -191t-163 -71zM310 32q79 0 125.5 58.5t46.5 159.5t-46.5 159.5t-125.5 58.5t-125.5 -58.5t-46.5 -159.5t46.5 -159.5t125.5 -58.5z" />
    <glyph glyph-name="divide" unicode="&#xf7;" 
d="M310 478q-17 0 -28.5 11t-11.5 29t11.5 29t28.5 11t28.5 -11t11.5 -29t-11.5 -29t-28.5 -11zM75 305v45h470v-45h-470zM310 98q-18 0 -29 10.5t-11 28.5t11 29t29 11t29 -11t11 -29t-11 -28.5t-29 -10.5z" />
    <glyph glyph-name="oslash" unicode="&#xf8;" 
d="M479 434q55 -71 55 -184q0 -120 -61 -191t-163 -71q-85 0 -145 52l-39 -49l-28 21l43 54q-55 71 -55 184q0 120 61 191t163 71q85 0 145 -52l39 49l29 -20zM138 250q0 -88 35 -144l252 316q-44 46 -115 46q-79 0 -125.5 -58.5t-46.5 -159.5zM310 32q79 0 125.5 58.5
t46.5 159.5q0 86 -35 143l-252 -315q44 -46 115 -46z" />
    <glyph glyph-name="ugrave" unicode="&#xf9;" 
d="M326 579h-47l-120 141h62zM450 115q-17 -54 -63 -90.5t-107 -36.5q-79 0 -126 44q-48 48 -48 158v310h51v-310q0 -159 134 -159q76 0 116 60t40 135v274h50v-500h-47v115z" />
    <glyph glyph-name="uacute" unicode="&#xfa;" 
d="M278 579l105 141h62l-120 -141h-47zM450 115q-17 -54 -63 -90.5t-107 -36.5q-79 0 -126 44q-48 48 -48 158v310h51v-310q0 -159 134 -159q76 0 116 60t40 135v274h50v-500h-47v115z" />
    <glyph glyph-name="ucircumflex" unicode="&#xfb;" 
d="M437 579h-51l-84 107l-84 -107h-51l110 141h50zM450 115q-17 -54 -63 -90.5t-107 -36.5q-79 0 -126 44q-48 48 -48 158v310h51v-310q0 -159 134 -159q76 0 116 60t40 135v274h50v-500h-47v115z" />
    <glyph glyph-name="udieresis" unicode="&#xfc;" 
d="M257 723v-116h-77v116h77zM423 723v-116h-76v116h76zM450 115q-17 -54 -63 -90.5t-107 -36.5q-79 0 -126 44q-48 48 -48 158v310h51v-310q0 -159 134 -159q76 0 116 60t40 135v274h50v-500h-47v115z" />
    <glyph glyph-name="yacute" unicode="&#xfd;" 
d="M286 579l105 141h62l-120 -141h-47zM149 500l170 -443l159 443h52l-197 -532q-33 -91 -74.5 -130t-105.5 -39q-23 0 -41 5v45q16 -4 39 -4q50 0 79 30t50 89l13 37l-199 499h55z" />
    <glyph glyph-name="thorn" unicode="&#xfe;" 
d="M168 725v-347q21 62 66.5 97.5t104.5 35.5q96 0 151.5 -73t55.5 -187q0 -116 -56 -190.5t-152 -74.5q-59 0 -104.5 34t-65.5 94v-309h-50v920h50zM167 240q0 -91 43 -150t117 -59q77 0 122 61t45 159q0 96 -44 156t-122 60q-73 0 -117 -59.5t-44 -146.5v-21z" />
    <glyph glyph-name="ydieresis" unicode="&#xff;" 
d="M265 723v-116h-77v116h77zM431 723v-116h-76v116h76zM149 500l170 -443l159 443h52l-197 -532q-33 -91 -74.5 -130t-105.5 -39q-23 0 -41 5v45q16 -4 39 -4q50 0 79 30t50 89l13 37l-199 499h55z" />
    <glyph glyph-name="Amacron" unicode="&#x100;" 
d="M466 829v-41h-310v41h310zM520 0l-73 221h-273l-73 -221h-55l234 710h61l234 -710h-55zM189 269h243l-17 51q-61 187 -103 338h-2q-47 -164 -104 -338z" />
    <glyph glyph-name="amacron" unicode="&#x101;" 
d="M160 605v41h288v-41h-288zM484 182q0 -120 13 -182h-53q-6 63 -7 113q-52 -125 -182 -125q-73 0 -118.5 39.5t-45.5 104.5q0 66 52 103q44 33 151 45l140 17v9q0 86 -31.5 125t-100.5 39q-67 0 -103 -33t-39 -91h-53q5 79 57 122.5t141 43.5q92 0 135.5 -50.5
t43.5 -156.5v-123zM435 258l-149 -18q-75 -9 -109 -34.5t-34 -71.5q0 -48 32.5 -76t86.5 -28q78 0 125.5 52.5t47.5 135.5v40z" />
    <glyph glyph-name="Abreve" unicode="&#x102;" 
d="M311 770q-58 0 -99.5 29t-50.5 85h47q7 -35 34.5 -56t68.5 -21t68.5 21.5t35.5 55.5h45q-9 -56 -50.5 -85t-98.5 -29zM520 0l-73 221h-273l-73 -221h-55l234 710h61l234 -710h-55zM189 269h243l-17 51q-61 187 -103 338h-2q-47 -164 -104 -338z" />
    <glyph glyph-name="abreve" unicode="&#x103;" 
d="M201 720q3 -49 31 -79.5t72 -30.5t72.5 30.5t31.5 79.5h43q-5 -74 -46 -110t-101 -36t-101.5 36.5t-45.5 109.5h44zM484 182q0 -120 13 -182h-53q-6 63 -7 113q-52 -125 -182 -125q-73 0 -118.5 39.5t-45.5 104.5q0 66 52 103q44 33 151 45l140 17v9q0 86 -31.5 125
t-100.5 39q-67 0 -103 -33t-39 -91h-53q5 79 57 122.5t141 43.5q92 0 135.5 -50.5t43.5 -156.5v-123zM435 258l-149 -18q-75 -9 -109 -34.5t-34 -71.5q0 -48 32.5 -76t86.5 -28q78 0 125.5 52.5t47.5 135.5v40z" />
    <glyph glyph-name="Aogonek" unicode="&#x104;" 
d="M565 -110l35 -9q-6 -42 -32 -63t-64 -21q-35 0 -61 22.5t-26 61.5q0 80 103 120l-73 220h-273l-73 -221h-55l234 710h61l234 -710q-64 -20 -91 -50t-27 -63q0 -25 14.5 -41t36.5 -16q23 0 38.5 17t18.5 43zM189 269h243l-17 51q-61 187 -103 338h-2q-47 -164 -104 -338z
" />
    <glyph glyph-name="aogonek" unicode="&#x105;" 
d="M487 -110l35 -9q-6 -42 -32 -63t-64 -21q-35 0 -61 22.5t-26 61.5q0 81 105 121q-6 60 -7 111q-52 -125 -182 -125q-73 0 -118.5 39.5t-45.5 104.5q0 66 52 103q44 33 151 45l140 17v9q0 86 -31.5 125t-100.5 39q-67 0 -103 -33t-39 -91h-53q5 79 57 122.5t141 43.5
q92 0 135.5 -50.5t43.5 -156.5v-123q0 -120 13 -182q-64 -20 -91 -50t-27 -63q0 -25 14.5 -41t36.5 -16q23 0 38.5 17t18.5 43zM435 218v40l-149 -18q-75 -9 -109 -34.5t-34 -71.5q0 -48 32.5 -76t86.5 -28q78 0 125.5 52.5t47.5 135.5z" />
    <glyph glyph-name="Cacute" unicode="&#x106;" 
d="M285 776l81 108h67l-98 -108h-50zM312 -17q-121 0 -182 85t-61 239v98q0 156 63.5 239t183.5 83q212 0 232 -252l-54 -7q-14 212 -179 212q-190 0 -190 -272v-97q0 -137 48.5 -209t142.5 -72q78 0 124 53t56 154l54 -9q-13 -113 -71.5 -179t-166.5 -66z" />
    <glyph glyph-name="cacute" unicode="&#x107;" 
d="M286 579l105 141h62l-120 -141h-47zM309 -12q-107 0 -164 72.5t-57 191.5q0 117 57 188.5t166 71.5q82 0 135.5 -47t61.5 -130l-51 -5q-19 138 -151 138q-80 0 -123 -58.5t-43 -156.5q0 -101 44 -161t125 -60q65 0 103.5 37t47.5 103l48 -6q-12 -80 -62 -129t-137 -49z
" />
    <glyph glyph-name="Ccircumflex" unicode="&#x108;" 
d="M443 776h-55l-79 80l-78 -80h-54l105 108h56zM312 -17q-121 0 -182 85t-61 239v98q0 156 63.5 239t183.5 83q212 0 232 -252l-54 -7q-14 212 -179 212q-190 0 -190 -272v-97q0 -137 48.5 -209t142.5 -72q78 0 124 53t56 154l54 -9q-13 -113 -71.5 -179t-166.5 -66z" />
    <glyph glyph-name="ccircumflex" unicode="&#x109;" 
d="M445 579h-51l-84 107l-84 -107h-51l110 141h50zM309 -12q-107 0 -164 72.5t-57 191.5q0 117 57 188.5t166 71.5q82 0 135.5 -47t61.5 -130l-51 -5q-19 138 -151 138q-80 0 -123 -58.5t-43 -156.5q0 -101 44 -161t125 -60q65 0 103.5 37t47.5 103l48 -6q-12 -80 -62 -129
t-137 -49z" />
    <glyph glyph-name="Cdotaccent" unicode="&#x10a;" 
d="M349 884v-109h-78v109h78zM312 -17q-121 0 -182 85t-61 239v98q0 156 63.5 239t183.5 83q212 0 232 -252l-54 -7q-14 212 -179 212q-190 0 -190 -272v-97q0 -137 48.5 -209t142.5 -72q78 0 124 53t56 154l54 -9q-13 -113 -71.5 -179t-166.5 -66z" />
    <glyph glyph-name="cdotaccent" unicode="&#x10b;" 
d="M348 723v-123h-77v123h77zM309 -12q-107 0 -164 72.5t-57 191.5q0 117 57 188.5t166 71.5q82 0 135.5 -47t61.5 -130l-51 -5q-19 138 -151 138q-80 0 -123 -58.5t-43 -156.5q0 -101 44 -161t125 -60q65 0 103.5 37t47.5 103l48 -6q-12 -80 -62 -129t-137 -49z" />
    <glyph glyph-name="Ccaron" unicode="&#x10c;" 
d="M177 884h55l79 -80l78 80h54l-105 -108h-56zM312 -17q-121 0 -182 85t-61 239v98q0 156 63.5 239t183.5 83q212 0 232 -252l-54 -7q-14 212 -179 212q-190 0 -190 -272v-97q0 -137 48.5 -209t142.5 -72q78 0 124 53t56 154l54 -9q-13 -113 -71.5 -179t-166.5 -66z" />
    <glyph glyph-name="ccaron" unicode="&#x10d;" 
d="M175 720h51l84 -107l84 107h51l-110 -141h-50zM309 -12q-107 0 -164 72.5t-57 191.5q0 117 57 188.5t166 71.5q82 0 135.5 -47t61.5 -130l-51 -5q-19 138 -151 138q-80 0 -123 -58.5t-43 -156.5q0 -101 44 -161t125 -60q65 0 103.5 37t47.5 103l48 -6q-12 -80 -62 -129
t-137 -49z" />
    <glyph glyph-name="Dcaron" unicode="&#x10e;" 
d="M145 884h55l79 -80l78 80h54l-105 -108h-56zM91 0v710h172q145 0 223 -94t78 -255q0 -165 -80.5 -263t-224.5 -98h-168zM146 46h114q118 0 183.5 87t65.5 228q0 140 -63 221.5t-183 81.5h-117v-618z" />
    <glyph glyph-name="dcaron" unicode="&#x10f;" 
d="M235 -10q-93 0 -146.5 72t-53.5 191q0 117 56.5 189t151.5 72q59 0 101.5 -33t59.5 -93v339h50v-725h-48v122q-18 -62 -63.5 -98t-107.5 -36zM536 561l-16 23q18 13 24 30t6 47h-29v64h58v-62q0 -74 -43 -102zM243 34q74 0 118 59t44 150v19q0 91 -43 149.5t-116 58.5
q-74 0 -116 -58.5t-42 -158.5q0 -101 41 -160t114 -59z" />
    <glyph glyph-name="Dcroat" unicode="&#x110;" 
d="M263 710q145 0 223 -94t78 -255q0 -165 -80.5 -263t-224.5 -98h-168v346h-91v44h91v320h172zM260 46q118 0 183.5 87t65.5 228q0 140 -63 221.5t-183 81.5h-117v-274h171v-44h-171v-300h114z" />
    <glyph glyph-name="dcroat" unicode="&#x111;" 
d="M566 617v-33h-66v-584h-48v122q-19 -62 -65 -98t-108 -36q-96 0 -152 72t-56 191q0 117 58.5 189t156.5 72q60 0 103 -33t61 -93v198h-297v33h297v108h50v-108h66zM451 241v19q0 91 -43.5 149.5t-117.5 58.5q-78 0 -122 -58.5t-44 -158.5t43.5 -159.5t119.5 -59.5
q75 0 119.5 59t44.5 150z" />
    <glyph glyph-name="Emacron" unicode="&#x112;" 
d="M155 788v41h310v-41h-310zM515 710v-47h-345v-276h328v-46h-328v-294h352v-47h-406v710h399z" />
    <glyph glyph-name="emacron" unicode="&#x113;" 
d="M454 646v-41h-288v41h288zM513 243h-370v-2q0 -97 45.5 -153t126.5 -56q62 1 99.5 35t52.5 87l44 -18q-22 -69 -72.5 -108.5t-123.5 -39.5q-109 0 -166 71t-57 199q0 115 58.5 184.5t158.5 69.5q107 0 156 -68.5t49 -178.5q0 -3 -0.5 -10.5t-0.5 -11.5zM307 472
q-77 0 -120 -55.5t-44 -131.5h319q1 81 -36.5 134t-118.5 53z" />
    <glyph glyph-name="Ebreve" unicode="&#x114;" 
d="M207 884q7 -35 34.5 -56t68.5 -21t68.5 21.5t35.5 55.5h45q-9 -56 -50.5 -85t-98.5 -29q-58 0 -99.5 29t-50.5 85h47zM515 710v-47h-345v-276h328v-46h-328v-294h352v-47h-406v710h399z" />
    <glyph glyph-name="ebreve" unicode="&#x115;" 
d="M310 574q-60 0 -101.5 36.5t-45.5 109.5h44q3 -49 31 -79.5t72 -30.5t72.5 30.5t31.5 79.5h43q-5 -74 -46 -110t-101 -36zM513 243h-370v-2q0 -97 45.5 -153t126.5 -56q62 1 99.5 35t52.5 87l44 -18q-22 -69 -72.5 -108.5t-123.5 -39.5q-109 0 -166 71t-57 199
q0 115 58.5 184.5t158.5 69.5q107 0 156 -68.5t49 -178.5q0 -3 -0.5 -10.5t-0.5 -11.5zM307 472q-77 0 -120 -55.5t-44 -131.5h319q1 81 -36.5 134t-118.5 53z" />
    <glyph glyph-name="Edotaccent" unicode="&#x116;" 
d="M349 884v-109h-78v109h78zM515 710v-47h-345v-276h328v-46h-328v-294h352v-47h-406v710h399z" />
    <glyph glyph-name="edotaccent" unicode="&#x117;" 
d="M348 723v-123h-77v123h77zM513 243h-370v-2q0 -97 45.5 -153t126.5 -56q62 1 99.5 35t52.5 87l44 -18q-22 -69 -72.5 -108.5t-123.5 -39.5q-109 0 -166 71t-57 199q0 115 58.5 184.5t158.5 69.5q107 0 156 -68.5t49 -178.5q0 -3 -0.5 -10.5t-0.5 -11.5zM307 472
q-77 0 -120 -55.5t-44 -131.5h319q1 81 -36.5 134t-118.5 53z" />
    <glyph glyph-name="Eogonek" unicode="&#x118;" 
d="M512 -110l35 -9q-6 -42 -32 -63t-64 -21q-35 0 -61 22.5t-26 61.5q0 79 101 119h-349v710h399v-47h-345v-276h328v-46h-328v-294h352v-47q-64 -20 -91 -50t-27 -63q0 -25 14.5 -41t36.5 -16q23 0 38.5 17t18.5 43z" />
    <glyph glyph-name="eogonek" unicode="&#x119;" 
d="M513 243h-370v-2q0 -97 45.5 -153t126.5 -56q62 1 99.5 35t52.5 87l44 -18q-35 -112 -134 -140q-107 -37 -107 -109q0 -25 14.5 -41t36.5 -16q23 0 38.5 17t18.5 43l35 -9q-6 -42 -32 -63t-64 -21q-35 0 -61 22.5t-26 61.5q0 67 75 107q-104 4 -158.5 75t-54.5 195
q0 115 58.5 184.5t158.5 69.5q107 0 156 -68.5t49 -178.5q0 -3 -0.5 -10.5t-0.5 -11.5zM307 472q-77 0 -120 -55.5t-44 -131.5h319q1 81 -36.5 134t-118.5 53z" />
    <glyph glyph-name="Ecaron" unicode="&#x11a;" 
d="M177 884h55l79 -80l78 80h54l-105 -108h-56zM515 710v-47h-345v-276h328v-46h-328v-294h352v-47h-406v710h399z" />
    <glyph glyph-name="ecaron" unicode="&#x11b;" 
d="M335 579h-50l-110 141h51l84 -107l84 107h51zM513 243h-370v-2q0 -97 45.5 -153t126.5 -56q62 1 99.5 35t52.5 87l44 -18q-22 -69 -72.5 -108.5t-123.5 -39.5q-109 0 -166 71t-57 199q0 115 58.5 184.5t158.5 69.5q107 0 156 -68.5t49 -178.5q0 -3 -0.5 -10.5t-0.5 -11.5
zM307 472q-77 0 -120 -55.5t-44 -131.5h319q1 81 -36.5 134t-118.5 53z" />
    <glyph glyph-name="Gcircumflex" unicode="&#x11c;" 
d="M443 776h-55l-79 80l-78 -80h-54l105 108h56zM297 -17q-113 0 -171 86.5t-58 234.5v107q0 152 62.5 234t179.5 82q56 0 98.5 -19.5t67 -52.5t37.5 -69.5t17 -77.5l-53 -6q-8 76 -49 127t-120 51q-90 0 -137 -65.5t-47 -210.5v-92q0 -281 183 -281q86 0 132.5 71.5
t46.5 176.5v39h-193v45h243v-363h-39l-8 140q-49 -157 -192 -157z" />
    <glyph glyph-name="gcircumflex" unicode="&#x11d;" 
d="M310 690l-83 -97h-52l110 127h50l110 -127h-52zM395 76q73 0 113 -33.5t40 -95.5q0 -74 -59.5 -114t-169.5 -40q-105 0 -165 36.5t-60 100.5q0 83 89 112q-64 23 -64 85q0 31 19 55.5t52 35.5q-55 46 -55 126q0 75 49 121.5t128 46.5q53 0 98 -24q12 40 42.5 62t73.5 22
q9 0 21 -2v-44q-18 2 -22 2q-68 0 -89 -58q54 -46 54 -124q0 -74 -50 -120.5t-130 -46.5q-55 0 -96 23q-49 -19 -49 -64q0 -29 23 -45.5t63 -16.5h144zM312 472q-58 0 -94 -35.5t-36 -92.5q0 -56 35.5 -91t92.5 -35q58 0 95 36t37 92q0 55 -36.5 90.5t-93.5 35.5zM323 -165
q175 0 175 109q0 87 -111 87h-137q-18 0 -35 3q-71 -25 -71 -92q0 -52 46 -79.5t133 -27.5z" />
    <glyph glyph-name="Gbreve" unicode="&#x11e;" 
d="M207 884q7 -35 34.5 -56t68.5 -21t68.5 21.5t35.5 55.5h45q-9 -56 -50.5 -85t-98.5 -29q-58 0 -99.5 29t-50.5 85h47zM297 -17q-113 0 -171 86.5t-58 234.5v107q0 152 62.5 234t179.5 82q56 0 98.5 -19.5t67 -52.5t37.5 -69.5t17 -77.5l-53 -6q-8 76 -49 127t-120 51
q-90 0 -137 -65.5t-47 -210.5v-92q0 -281 183 -281q86 0 132.5 71.5t46.5 176.5v39h-193v45h243v-363h-39l-8 140q-49 -157 -192 -157z" />
    <glyph glyph-name="gbreve" unicode="&#x11f;" 
d="M310 574q-60 0 -101.5 36.5t-45.5 109.5h44q3 -49 31 -79.5t72 -30.5t72.5 30.5t31.5 79.5h43q-5 -74 -46 -110t-101 -36zM395 76q73 0 113 -33.5t40 -95.5q0 -74 -59.5 -114t-169.5 -40q-105 0 -165 36.5t-60 100.5q0 83 89 112q-64 23 -64 85q0 31 19 55.5t52 35.5
q-55 46 -55 126q0 75 49 121.5t128 46.5q53 0 98 -24q12 40 42.5 62t73.5 22q9 0 21 -2v-44q-18 2 -22 2q-68 0 -89 -58q54 -46 54 -124q0 -74 -50 -120.5t-130 -46.5q-55 0 -96 23q-49 -19 -49 -64q0 -29 23 -45.5t63 -16.5h144zM312 472q-58 0 -94 -35.5t-36 -92.5
q0 -56 35.5 -91t92.5 -35q58 0 95 36t37 92q0 55 -36.5 90.5t-93.5 35.5zM323 -165q175 0 175 109q0 87 -111 87h-137q-18 0 -35 3q-71 -25 -71 -92q0 -52 46 -79.5t133 -27.5z" />
    <glyph glyph-name="Gdotaccent" unicode="&#x120;" 
d="M349 884v-109h-78v109h78zM297 -17q-113 0 -171 86.5t-58 234.5v107q0 152 62.5 234t179.5 82q56 0 98.5 -19.5t67 -52.5t37.5 -69.5t17 -77.5l-53 -6q-8 76 -49 127t-120 51q-90 0 -137 -65.5t-47 -210.5v-92q0 -281 183 -281q86 0 132.5 71.5t46.5 176.5v39h-193v45
h243v-363h-39l-8 140q-49 -157 -192 -157z" />
    <glyph glyph-name="gdotaccent" unicode="&#x121;" 
d="M348 723v-123h-77v123h77zM395 76q73 0 113 -33.5t40 -95.5q0 -74 -59.5 -114t-169.5 -40q-105 0 -165 36.5t-60 100.5q0 83 89 112q-64 23 -64 85q0 31 19 55.5t52 35.5q-55 46 -55 126q0 75 49 121.5t128 46.5q53 0 98 -24q12 40 42.5 62t73.5 22q9 0 21 -2v-44
q-18 2 -22 2q-68 0 -89 -58q54 -46 54 -124q0 -74 -50 -120.5t-130 -46.5q-55 0 -96 23q-49 -19 -49 -64q0 -29 23 -45.5t63 -16.5h144zM312 472q-58 0 -94 -35.5t-36 -92.5q0 -56 35.5 -91t92.5 -35q58 0 95 36t37 92q0 55 -36.5 90.5t-93.5 35.5zM323 -165q175 0 175 109
q0 87 -111 87h-137q-18 0 -35 3q-71 -25 -71 -92q0 -52 46 -79.5t133 -27.5z" />
    <glyph glyph-name="Gcommaaccent" unicode="&#x122;" 
d="M297 -17q-113 0 -171 86.5t-58 234.5v107q0 152 62.5 234t179.5 82q56 0 98.5 -19.5t67 -52.5t37.5 -69.5t17 -77.5l-53 -6q-8 76 -49 127t-120 51q-90 0 -137 -65.5t-47 -210.5v-92q0 -281 183 -281q86 0 132.5 71.5t46.5 176.5v39h-193v45h243v-363h-39l-8 140
q-49 -157 -192 -157zM287 -207l-16 21q40 18 40 54h-45v82h77v-57q0 -38 -12 -61.5t-44 -38.5z" />
    <glyph glyph-name="gcommaaccent" unicode="&#x123;" 
d="M348 673v-82h-77v57q0 38 12 61.5t44 38.5l16 -21q-40 -18 -40 -54h45zM395 76q73 0 113 -33.5t40 -95.5q0 -74 -59.5 -114t-169.5 -40q-105 0 -165 36.5t-60 100.5q0 83 89 112q-64 23 -64 85q0 31 19 55.5t52 35.5q-55 46 -55 126q0 75 49 121.5t128 46.5q53 0 98 -24
q12 40 42.5 62t73.5 22q9 0 21 -2v-44q-18 2 -22 2q-68 0 -89 -58q54 -46 54 -124q0 -74 -50 -120.5t-130 -46.5q-55 0 -96 23q-49 -19 -49 -64q0 -29 23 -45.5t63 -16.5h144zM312 472q-58 0 -94 -35.5t-36 -92.5q0 -56 35.5 -91t92.5 -35q58 0 95 36t37 92q0 55 -36.5 90.5
t-93.5 35.5zM323 -165q175 0 175 109q0 87 -111 87h-137q-18 0 -35 3q-71 -25 -71 -92q0 -52 46 -79.5t133 -27.5z" />
    <glyph glyph-name="Hcircumflex" unicode="&#x124;" 
d="M443 776h-55l-79 80l-78 -80h-54l105 108h56zM527 710v-710h-54v340h-325v-340h-54v710h54v-323h325v323h54z" />
    <glyph glyph-name="hcircumflex" unicode="&#x125;" 
d="M269 776h-55l-79 80l-78 -80h-54l105 108h56zM161 380q19 63 64 97.5t107 34.5q81 0 126 -44q51 -51 51 -163v-305h-50v305q0 93 -38 128t-101 35q-77 0 -118 -61t-41 -141v-266h-50v725h50v-345z" />
    <glyph glyph-name="Hbar" unicode="&#x126;" 
d="M598 571v-37h-71v-534h-54v340h-325v-340h-54v534h-72v37h72v139h54v-139h325v139h54v-139h71zM473 387v147h-325v-147h325z" />
    <glyph glyph-name="hbar" unicode="&#x127;" 
d="M458 468q51 -51 51 -163v-305h-50v305q0 93 -38 128t-101 35q-77 0 -118 -61t-41 -141v-266h-50v584h-111v33h111v108h50v-108h256v-33h-256v-204q19 63 64 97.5t107 34.5q81 0 126 -44z" />
    <glyph glyph-name="Itilde" unicode="&#x128;" 
d="M235 845q-55 0 -67 -62l-36 5q6 50 35 73.5t69 23.5q36 0 82 -34.5t72 -34.5q22 0 40 15.5t21 51.5l36 -5q-4 -51 -31 -76.5t-69 -25.5q-37 0 -81 34.5t-71 34.5zM524 666h-187v-622h187v-44h-428v44h187v622h-187v44h428v-44z" />
    <glyph glyph-name="itilde" unicode="&#x129;" 
d="M251 709q39 0 84 -36t70 -36q22 0 39 17.5t20 51.5l38 -4q-8 -55 -36 -81t-65 -26q-35 0 -79 36t-72 36q-25 0 -42.5 -17t-21.5 -49l-38 5q7 51 36.5 77t66.5 26zM136 0v42h169v416h-157v42h207v-458h179v-42h-398z" />
    <glyph glyph-name="Imacron" unicode="&#x12a;" 
d="M465 829v-41h-310v41h310zM524 666h-187v-622h187v-44h-428v44h187v622h-187v44h428v-44z" />
    <glyph glyph-name="imacron" unicode="&#x12b;" 
d="M181 605v41h288v-41h-288zM136 0v42h169v416h-157v42h207v-458h179v-42h-398z" />
    <glyph glyph-name="Ibreve" unicode="&#x12c;" 
d="M310 770q-58 0 -99.5 29t-50.5 85h47q7 -35 34.5 -56t68.5 -21t68.5 21.5t35.5 55.5h45q-9 -56 -50.5 -85t-98.5 -29zM524 666h-187v-622h187v-44h-428v44h187v622h-187v44h428v-44z" />
    <glyph glyph-name="ibreve" unicode="&#x12d;" 
d="M222 720q3 -49 31 -79.5t72 -30.5t72.5 30.5t31.5 79.5h43q-5 -74 -46 -110t-101 -36t-101.5 36.5t-45.5 109.5h44zM136 0v42h169v416h-157v42h207v-458h179v-42h-398z" />
    <glyph glyph-name="Iogonek" unicode="&#x12e;" 
d="M514 -110l35 -9q-6 -42 -32 -63t-64 -21q-35 0 -61 22.5t-26 61.5q0 79 101 119h-371v44h187v622h-187v44h428v-44h-187v-622h187v-44q-64 -20 -91 -50t-27 -63q0 -25 14.5 -41t36.5 -16q23 0 38.5 17t18.5 43z" />
    <glyph glyph-name="iogonek" unicode="&#x12f;" 
d="M363 723v-123h-77v123h77zM524 -110l35 -9q-6 -42 -32 -63t-64 -21q-35 0 -61 22.5t-26 61.5q0 79 101 119h-341v42h169v416h-157v42h207v-458h179v-42q-64 -20 -91 -50t-27 -63q0 -25 14.5 -41t36.5 -16q23 0 38.5 17t18.5 43z" />
    <glyph glyph-name="Idotaccent" unicode="&#x130;" 
d="M349 884v-109h-78v109h78zM524 666h-187v-622h187v-44h-428v44h187v622h-187v44h428v-44z" />
    <glyph glyph-name="dotlessi" unicode="&#x131;" 
d="M136 0v42h169v416h-157v42h207v-458h179v-42h-398z" />
    <glyph glyph-name="IJ" unicode="&#x132;" 
d="M167 710v-710h-54v710h54zM243 4v46q36 -9 89 -9q66 0 102 29.5t36 108.5v531h54v-534q0 -90 -49 -136.5t-141 -46.5q-52 0 -91 11z" />
    <glyph glyph-name="ij" unicode="&#x133;" 
d="M128 602v123h77v-123h-77zM421 602v123h76v-123h-76zM142 0v500h50v-500h-50zM344 -202q-57 0 -93 10v44q57 -8 86 -8q98 0 98 121v535h50v-539q0 -77 -36.5 -120t-104.5 -43z" />
    <glyph glyph-name="Jcircumflex" unicode="&#x134;" 
d="M615 776h-55l-79 80l-78 -80h-54l105 108h56zM509 227q0 -121 -58 -182.5t-158 -61.5q-111 0 -166.5 67t-55.5 185l54 14q0 -219 170 -219q160 0 160 207v473h54v-483z" />
    <glyph glyph-name="jcircumflex" unicode="&#x135;" 
d="M502 579h-51l-84 107l-84 -107h-51l110 141h50zM113 -182v44q61 -17 113 -17q58 0 88 29.5t30 96.5v487h-190v42h240v-533q0 -80 -41 -124.5t-120 -44.5q-64 0 -120 20z" />
    <glyph glyph-name="Kcommaaccent" unicode="&#x136;" 
d="M313 437l244 -437h-63l-219 396l-126 -149v-247h-54v710h54v-396l323 396h64zM271 -132v82h77v-57q0 -38 -12 -61.5t-44 -38.5l-16 21q40 18 40 54h-45z" />
    <glyph glyph-name="kcommaaccent" unicode="&#x137;" 
d="M331 315l203 -315h-61l-178 278l-122 -117v-161h-50v725h50v-505l281 280h66zM271 -132v82h77v-57q0 -38 -12 -61.5t-44 -38.5l-16 21q40 18 40 54h-45z" />
    <glyph glyph-name="kgreenlandic" unicode="&#x138;" 
d="M473 0l-181 284l-119 -112v-172h-50v500h50v-268l280 268h67l-192 -180l206 -320h-61z" />
    <glyph glyph-name="Lacute" unicode="&#x139;" 
d="M129 776l81 108h67l-98 -108h-50zM127 710h54v-663h362v-47h-416v710z" />
    <glyph glyph-name="lacute" unicode="&#x13a;" 
d="M303 776l81 108h67l-98 -108h-50zM136 0v42h166v641h-156v42h207v-683h181v-42h-398z" />
    <glyph glyph-name="Lcommaaccent" unicode="&#x13b;" 
d="M319 561l-16 23q18 13 24 30t6 47h-29v64h58v-62q0 -74 -43 -102zM127 710h54v-663h362v-47h-416v710z" />
    <glyph glyph-name="lcommaaccent" unicode="&#x13c;" 
d="M136 0v42h166v641h-156v42h207v-683h181v-42h-398zM292 -207l-16 21q40 18 40 54h-45v82h77v-57q0 -38 -12 -61.5t-44 -38.5z" />
    <glyph glyph-name="Lcaron" unicode="&#x13d;" 
d="M127 710h54v-663h362v-47h-416v710zM292 -207l-16 21q40 18 40 54h-45v82h77v-57q0 -38 -12 -61.5t-44 -38.5z" />
    <glyph glyph-name="lcaron" unicode="&#x13e;" 
d="M136 0v42h166v641h-156v42h207v-683h181v-42h-398zM536 561l-16 23q18 13 24 30t6 47h-29v64h58v-62q0 -74 -43 -102z" />
    <glyph glyph-name="Ldot" unicode="&#x13f;" 
d="M127 710h54v-663h362v-47h-416v710zM433 500v-114h-109v114h109z" />
    <glyph glyph-name="ldot" unicode="&#x140;" 
d="M136 0v42h166v641h-156v42h207v-683h181v-42h-398zM491 415v-114h-66v114h66z" />
    <glyph glyph-name="Lslash" unicode="&#x141;" 
d="M181 47h362v-47h-416v316l-111 -69v49l111 69v345h54v-311l188 118v-49l-188 -118v-303z" />
    <glyph glyph-name="lslash" unicode="&#x142;" 
d="M353 42h181v-42h-398v42h166v311l-122 -81v46l122 81v284h-156v42h207v-292l122 81v-47l-122 -81v-344z" />
    <glyph glyph-name="Nacute" unicode="&#x143;" 
d="M285 776l81 108h67l-98 -108h-50zM446 144q11 -23 26 -66h2q-2 48 -2 68v564h54v-710h-65l-287 581q-8 16 -17 39.5t-10 25.5h-1q2 -23 2 -61v-585h-55v710h72z" />
    <glyph glyph-name="nacute" unicode="&#x144;" 
d="M286 579l105 141h62l-120 -141h-47zM159 377q21 65 66 100t111 35q77 0 122 -44q51 -49 51 -163v-305h-50v305q0 163 -134 163q-80 0 -122 -61t-42 -141v-266h-50v500h48v-123z" />
    <glyph glyph-name="Ncommaaccent" unicode="&#x145;" 
d="M446 144q11 -23 26 -66h2q-2 48 -2 68v564h54v-710h-65l-287 581q-8 16 -17 39.5t-10 25.5h-1q2 -23 2 -61v-585h-55v710h72zM292 -207l-16 21q40 18 40 54h-45v82h77v-57q0 -38 -12 -61.5t-44 -38.5z" />
    <glyph glyph-name="ncommaaccent" unicode="&#x146;" 
d="M159 377q21 65 66 100t111 35q77 0 122 -44q51 -49 51 -163v-305h-50v305q0 163 -134 163q-80 0 -122 -61t-42 -141v-266h-50v500h48v-123zM292 -207l-16 21q40 18 40 54h-45v82h77v-57q0 -38 -12 -61.5t-44 -38.5z" />
    <glyph glyph-name="Ncaron" unicode="&#x147;" 
d="M177 884h55l79 -80l78 80h54l-105 -108h-56zM446 144q11 -23 26 -66h2q-2 48 -2 68v564h54v-710h-65l-287 581q-8 16 -17 39.5t-10 25.5h-1q2 -23 2 -61v-585h-55v710h72z" />
    <glyph glyph-name="ncaron" unicode="&#x148;" 
d="M175 720h51l84 -107l84 107h51l-110 -141h-50zM159 377q21 65 66 100t111 35q77 0 122 -44q51 -49 51 -163v-305h-50v305q0 163 -134 163q-80 0 -122 -61t-42 -141v-266h-50v500h48v-123z" />
    <glyph glyph-name="napostrophe" unicode="&#x149;" 
d="M159 377q21 65 66 100t111 35q77 0 122 -44q51 -49 51 -163v-305h-50v305q0 163 -134 163q-80 0 -122 -61t-42 -141v-266h-50v500h48v-123zM292 -207l-16 21q40 18 40 54h-45v82h77v-57q0 -38 -12 -61.5t-44 -38.5z" />
    <glyph glyph-name="Eng" unicode="&#x14a;" 
d="M284 -200v49q34 -7 73 -7q108 0 108 139v13l-285 590q-8 15 -17 38.5t-10 25.5h-2q2 -22 2 -60v-588h-51v710h72l267 -554q18 -45 26 -69h2q-2 25 -2 71v552h51v-728q0 -102 -45.5 -145.5t-117.5 -43.5q-44 0 -71 7z" />
    <glyph glyph-name="eng" unicode="&#x14b;" 
d="M458 468q51 -49 51 -163v-365q0 -68 -29.5 -105t-86.5 -37q-34 0 -53 6v43q24 -4 41 -4q78 0 78 92v370q0 163 -134 163q-80 0 -122 -61t-42 -141v-266h-50v500h48v-123q21 65 66 100t111 35q77 0 122 -44z" />
    <glyph glyph-name="Omacron" unicode="&#x14c;" 
d="M155 788v41h310v-41h-310zM310 -17q-119 0 -180.5 86t-61.5 247v78q0 161 61.5 247t180.5 86t180.5 -86t61.5 -247v-78q0 -161 -61.5 -247t-180.5 -86zM310 30q186 0 186 286v78q0 286 -186 286t-186 -286v-78q0 -286 186 -286z" />
    <glyph glyph-name="omacron" unicode="&#x14d;" 
d="M166 605v41h288v-41h-288zM310 -12q-102 0 -163 71t-61 191t61 191t163 71t163 -71t61 -191t-61 -191t-163 -71zM310 32q79 0 125.5 58.5t46.5 159.5t-46.5 159.5t-125.5 58.5t-125.5 -58.5t-46.5 -159.5t46.5 -159.5t125.5 -58.5z" />
    <glyph glyph-name="Obreve" unicode="&#x14e;" 
d="M207 884q7 -35 34.5 -56t68.5 -21t68.5 21.5t35.5 55.5h45q-9 -56 -50.5 -85t-98.5 -29q-58 0 -99.5 29t-50.5 85h47zM310 -17q-119 0 -180.5 86t-61.5 247v78q0 161 61.5 247t180.5 86t180.5 -86t61.5 -247v-78q0 -161 -61.5 -247t-180.5 -86zM310 30q186 0 186 286v78
q0 286 -186 286t-186 -286v-78q0 -286 186 -286z" />
    <glyph glyph-name="obreve" unicode="&#x14f;" 
d="M207 720q3 -49 31 -79.5t72 -30.5t72.5 30.5t31.5 79.5h43q-5 -74 -46 -110t-101 -36t-101.5 36.5t-45.5 109.5h44zM310 -12q-102 0 -163 71t-61 191t61 191t163 71t163 -71t61 -191t-61 -191t-163 -71zM310 32q79 0 125.5 58.5t46.5 159.5t-46.5 159.5t-125.5 58.5
t-125.5 -58.5t-46.5 -159.5t46.5 -159.5t125.5 -58.5z" />
    <glyph glyph-name="Ohungarumlaut" unicode="&#x150;" 
d="M217 776l58 108h54l-62 -108h-50zM353 776l57 108h55l-62 -108h-50zM310 -17q-119 0 -180.5 86t-61.5 247v78q0 161 61.5 247t180.5 86t180.5 -86t61.5 -247v-78q0 -161 -61.5 -247t-180.5 -86zM310 30q186 0 186 286v78q0 286 -186 286t-186 -286v-78q0 -286 186 -286z
" />
    <glyph glyph-name="ohungarumlaut" unicode="&#x151;" 
d="M219 579l83 141h54l-88 -141h-49zM351 579l84 141h53l-87 -141h-50zM310 -12q-102 0 -163 71t-61 191t61 191t163 71t163 -71t61 -191t-61 -191t-163 -71zM310 32q79 0 125.5 58.5t46.5 159.5t-46.5 159.5t-125.5 58.5t-125.5 -58.5t-46.5 -159.5t46.5 -159.5
t125.5 -58.5z" />
    <glyph glyph-name="OE" unicode="&#x152;" 
d="M340 47h226v-47h-306q-104 0 -162 70q-58 72 -58 207v158q0 147 63 216q54 59 152 59h304v-47h-219v-276h202v-46h-202v-294zM254 46h34v618h-38q-76 0 -117 -57q-40 -57 -40 -172v-158q0 -115 43 -173q42 -58 118 -58z" />
    <glyph glyph-name="oe" unicode="&#x153;" 
d="M528 169l48 -7v-8q0 -76 -39.5 -121t-107.5 -45q-82 0 -121 68q-37 -68 -119 -68q-67 0 -106 46t-39 140v144q0 193 145 193q85 0 119 -69q38 69 121 69q72 0 109 -48t37 -139v-69h-243v-96q0 -59 26.5 -93.5t70.5 -34.5q46 0 72.5 33t26.5 95v10zM429 469
q-44 0 -70.5 -35t-26.5 -107v-37h193v40q0 139 -96 139zM189 31q86 0 94 117v9l1 170q0 141 -95 141t-95 -145v-148q0 -144 95 -144z" />
    <glyph glyph-name="Racute" unicode="&#x154;" 
d="M433 884l-98 -108h-50l81 108h67zM495 0l-178 314h-165v-314h-54v710h214q109 0 168 -51t59 -146q0 -77 -43.5 -127t-122.5 -64l182 -322h-60zM152 359h160q81 0 125.5 40t44.5 113q0 74 -43.5 113t-126.5 39h-160v-305z" />
    <glyph glyph-name="racute" unicode="&#x155;" 
d="M286 579l105 141h62l-120 -141h-47zM208 329q29 91 93.5 136t136.5 45q47 0 81 -12v-47q-35 13 -82 13q-96 0 -162.5 -76.5t-66.5 -198.5v-189h-50v500h50v-171z" />
    <glyph glyph-name="Rcommaaccent" unicode="&#x156;" 
d="M373 322l182 -322h-60l-178 314h-165v-314h-54v710h214q109 0 168 -51t59 -146q0 -77 -43.5 -127t-122.5 -64zM152 359h160q81 0 125.5 40t44.5 113q0 74 -43.5 113t-126.5 39h-160v-305zM271 -132v82h77v-57q0 -38 -12 -61.5t-44 -38.5l-16 21q40 18 40 54h-45z" />
    <glyph glyph-name="rcommaaccent" unicode="&#x157;" 
d="M208 329q29 91 93.5 136t136.5 45q47 0 81 -12v-47q-35 13 -82 13q-96 0 -162.5 -76.5t-66.5 -198.5v-189h-50v500h50v-171zM166 -207l-16 21q40 18 40 54h-45v82h77v-57q0 -38 -12 -61.5t-44 -38.5z" />
    <glyph glyph-name="Rcaron" unicode="&#x158;" 
d="M338 776h-56l-105 108h55l79 -80l78 80h54zM495 0l-178 314h-165v-314h-54v710h214q109 0 168 -51t59 -146q0 -77 -43.5 -127t-122.5 -64l182 -322h-60zM152 359h160q81 0 125.5 40t44.5 113q0 74 -43.5 113t-126.5 39h-160v-305z" />
    <glyph glyph-name="rcaron" unicode="&#x159;" 
d="M175 720h51l84 -107l84 107h51l-110 -141h-50zM208 329q29 91 93.5 136t136.5 45q47 0 81 -12v-47q-35 13 -82 13q-96 0 -162.5 -76.5t-66.5 -198.5v-189h-50v500h50v-171z" />
    <glyph glyph-name="Sacute" unicode="&#x15a;" 
d="M285 776l81 108h67l-98 -108h-50zM315 -17q-116 0 -178 63.5t-70 165.5l53 8q6 -84 55 -137.5t139 -53.5q80 0 127 35.5t47 106.5q0 73 -35.5 105t-107.5 52l-91 26q-75 21 -119.5 67t-44.5 118q0 84 58.5 136t153.5 52q102 0 164 -50.5t68 -159.5l-52 -12
q-8 176 -179 176q-77 0 -117.5 -37t-40.5 -99q0 -106 130 -143l92 -26q83 -23 129.5 -66.5t46.5 -130.5q0 -90 -61 -143t-167 -53z" />
    <glyph glyph-name="sacute" unicode="&#x15b;" 
d="M287 579l105 141h62l-120 -141h-47zM322 -12q-88 0 -141 43t-63 126l50 7q18 -134 156 -134q61 0 94 26.5t33 73.5q0 44 -24.5 67t-78.5 31l-77 11q-137 19 -137 135q0 65 47 101.5t129 36.5t131.5 -40t56.5 -116l-50 -9q-15 124 -139 124q-59 0 -92.5 -25t-33.5 -70
q0 -41 24.5 -63.5t77.5 -30.5l80 -11q135 -18 135 -136q0 -69 -47 -108t-131 -39z" />
    <glyph glyph-name="Scircumflex" unicode="&#x15c;" 
d="M443 776h-55l-79 80l-78 -80h-54l105 108h56zM315 -17q-116 0 -178 63.5t-70 165.5l53 8q6 -84 55 -137.5t139 -53.5q80 0 127 35.5t47 106.5q0 73 -35.5 105t-107.5 52l-91 26q-75 21 -119.5 67t-44.5 118q0 84 58.5 136t153.5 52q102 0 164 -50.5t68 -159.5l-52 -12
q-8 176 -179 176q-77 0 -117.5 -37t-40.5 -99q0 -106 130 -143l92 -26q83 -23 129.5 -66.5t46.5 -130.5q0 -90 -61 -143t-167 -53z" />
    <glyph glyph-name="scircumflex" unicode="&#x15d;" 
d="M446 579h-51l-84 107l-84 -107h-51l110 141h50zM322 -12q-88 0 -141 43t-63 126l50 7q18 -134 156 -134q61 0 94 26.5t33 73.5q0 44 -24.5 67t-78.5 31l-77 11q-137 19 -137 135q0 65 47 101.5t129 36.5t131.5 -40t56.5 -116l-50 -9q-15 124 -139 124q-59 0 -92.5 -25
t-33.5 -70q0 -41 24.5 -63.5t77.5 -30.5l80 -11q135 -18 135 -136q0 -69 -47 -108t-131 -39z" />
    <glyph glyph-name="Scedilla" unicode="&#x15e;" 
d="M543 179q0 -82 -50.5 -133.5t-140.5 -60.5l-30 -51q15 14 42 14q30 0 49.5 -19t19.5 -50q0 -35 -26 -57.5t-61 -22.5q-65 0 -84 57l38 8q10 -35 46 -35q19 0 32.5 12t13.5 36q0 22 -13 33.5t-31 11.5q-25 0 -41 -16l-27 9l37 68h-2q-116 0 -178 63.5t-70 165.5l53 8
q6 -84 55 -137.5t139 -53.5q80 0 127 35.5t47 106.5q0 73 -35.5 105t-107.5 52l-91 26q-75 21 -119.5 67t-44.5 118q0 84 58.5 136t153.5 52q102 0 164 -50.5t68 -159.5l-52 -12q-8 176 -179 176q-77 0 -117.5 -37t-40.5 -99q0 -106 130 -143l92 -26q83 -23 129.5 -66.5
t46.5 -130.5z" />
    <glyph glyph-name="scedilla" unicode="&#x15f;" 
d="M500 135q0 -64 -40 -102t-112 -44l-33 -55q15 14 42 14q30 0 49.5 -19t19.5 -50q0 -35 -26 -57.5t-61 -22.5q-65 0 -84 57l38 8q10 -35 46 -35q19 0 32.5 12t13.5 36q0 22 -13 33.5t-31 11.5q-25 0 -41 -16l-27 9l40 73q-84 2 -134.5 45t-60.5 124l50 7q18 -134 156 -134
q61 0 94 26.5t33 73.5q0 44 -24.5 67t-78.5 31l-77 11q-137 19 -137 135q0 65 47 101.5t129 36.5t131.5 -40t56.5 -116l-50 -9q-15 124 -139 124q-59 0 -92.5 -25t-33.5 -70q0 -41 24.5 -63.5t77.5 -30.5l80 -11q135 -18 135 -136z" />
    <glyph glyph-name="Scaron" unicode="&#x160;" 
d="M177 884h55l79 -80l78 80h54l-105 -108h-56zM315 -17q-116 0 -178 63.5t-70 165.5l53 8q6 -84 55 -137.5t139 -53.5q80 0 127 35.5t47 106.5q0 73 -35.5 105t-107.5 52l-91 26q-75 21 -119.5 67t-44.5 118q0 84 58.5 136t153.5 52q102 0 164 -50.5t68 -159.5l-52 -12
q-8 176 -179 176q-77 0 -117.5 -37t-40.5 -99q0 -106 130 -143l92 -26q83 -23 129.5 -66.5t46.5 -130.5q0 -90 -61 -143t-167 -53z" />
    <glyph glyph-name="scaron" unicode="&#x161;" 
d="M176 720h51l84 -107l84 107h51l-110 -141h-50zM322 -12q-88 0 -141 43t-63 126l50 7q18 -134 156 -134q61 0 94 26.5t33 73.5q0 44 -24.5 67t-78.5 31l-77 11q-137 19 -137 135q0 65 47 101.5t129 36.5t131.5 -40t56.5 -116l-50 -9q-15 124 -139 124q-59 0 -92.5 -25
t-33.5 -70q0 -41 24.5 -63.5t77.5 -30.5l80 -11q135 -18 135 -136q0 -69 -47 -108t-131 -39z" />
    <glyph glyph-name="uni0162" unicode="&#x162;" 
d="M336 0h-9l-39 -66q15 14 42 14q30 0 49.5 -19t19.5 -50q0 -35 -26 -57.5t-61 -22.5q-65 0 -84 57l38 8q10 -35 46 -35q19 0 32.5 12t13.5 36q0 22 -13 33.5t-31 11.5q-25 0 -41 -16l-27 9l46 85h-10v663h-232v47h519v-47h-233v-663z" />
    <glyph glyph-name="uni0163" unicode="&#x163;" 
d="M490 459h-200v-307q0 -113 116 -113q37 0 84 7v-44q-42 -10 -86 -10l-34 -58q15 14 42 14q30 0 49.5 -19t19.5 -50q0 -35 -26 -57.5t-61 -22.5q-65 0 -84 57l38 8q10 -35 46 -35q19 0 32.5 12t13.5 36q0 22 -13 33.5t-31 11.5q-25 0 -41 -16l-27 9l43 79
q-62 8 -96.5 47.5t-34.5 103.5v314h-147v41h147v134l50 22v-156h200v-41z" />
    <glyph glyph-name="Tcaron" unicode="&#x164;" 
d="M177 884h55l79 -80l78 80h54l-105 -108h-56zM50 710h519v-47h-233v-663h-54v663h-232v47z" />
    <glyph glyph-name="tcaron" unicode="&#x165;" 
d="M464 561l-16 23q18 13 24 30t6 47h-29v64h58v-62q0 -74 -43 -102zM93 459v41h147v134l50 22v-156h200v-41h-200v-307q0 -113 116 -113q37 0 84 7v-44q-42 -10 -86 -10q-77 0 -120.5 40.5t-43.5 112.5v314h-147z" />
    <glyph glyph-name="Tbar" unicode="&#x166;" 
d="M569 663h-233v-217h203v-37h-203v-409h-54v409h-202v37h202v217h-232v47h519v-47z" />
    <glyph glyph-name="tbar" unicode="&#x167;" 
d="M490 459h-200v-161h200v-43h-200v-103q0 -113 116 -113q37 0 84 7v-44q-42 -10 -86 -10q-77 0 -120.5 40.5t-43.5 112.5v110h-147v43h147v161h-147v41h147v134l50 22v-156h200v-41z" />
    <glyph glyph-name="Utilde" unicode="&#x168;" 
d="M237 883q37 0 83 -33.5t73 -33.5q21 0 37 15.5t19 49.5l37 -5q-4 -49 -30.5 -74.5t-65.5 -25.5q-37 0 -82 33.5t-74 33.5q-55 0 -63 -62l-38 6q6 49 35.5 72.5t68.5 23.5zM84 710h55v-494q0 -86 45 -136t128 -50q82 0 125.5 49.5t43.5 136.5v494h54v-495
q0 -107 -57 -169.5t-166 -62.5q-110 0 -169 63t-59 169v495z" />
    <glyph glyph-name="utilde" unicode="&#x169;" 
d="M228 709q39 0 84 -36t70 -36q22 0 39 17.5t20 51.5l38 -4q-8 -55 -36 -81t-65 -26q-35 0 -79 36t-72 36q-25 0 -42.5 -17t-21.5 -49l-38 5q7 51 36.5 77t66.5 26zM450 115q-17 -54 -63 -90.5t-107 -36.5q-79 0 -126 44q-48 48 -48 158v310h51v-310q0 -159 134 -159
q76 0 116 60t40 135v274h50v-500h-47v115z" />
    <glyph glyph-name="Umacron" unicode="&#x16a;" 
d="M155 788v41h310v-41h-310zM84 710h55v-494q0 -86 45 -136t128 -50q82 0 125.5 49.5t43.5 136.5v494h54v-495q0 -107 -57 -169.5t-166 -62.5q-110 0 -169 63t-59 169v495z" />
    <glyph glyph-name="umacron" unicode="&#x16b;" 
d="M158 605v41h288v-41h-288zM450 115q-17 -54 -63 -90.5t-107 -36.5q-79 0 -126 44q-48 48 -48 158v310h51v-310q0 -159 134 -159q76 0 116 60t40 135v274h50v-500h-47v115z" />
    <glyph glyph-name="Ubreve" unicode="&#x16c;" 
d="M207 884q7 -35 34.5 -56t68.5 -21t68.5 21.5t35.5 55.5h45q-9 -56 -50.5 -85t-98.5 -29q-58 0 -99.5 29t-50.5 85h47zM84 710h55v-494q0 -86 45 -136t128 -50q82 0 125.5 49.5t43.5 136.5v494h54v-495q0 -107 -57 -169.5t-166 -62.5q-110 0 -169 63t-59 169v495z" />
    <glyph glyph-name="ubreve" unicode="&#x16d;" 
d="M199 720q3 -49 31 -79.5t72 -30.5t72.5 30.5t31.5 79.5h43q-5 -74 -46 -110t-101 -36t-101.5 36.5t-45.5 109.5h44zM450 115q-17 -54 -63 -90.5t-107 -36.5q-79 0 -126 44q-48 48 -48 158v310h51v-310q0 -159 134 -159q76 0 116 60t40 135v274h50v-500h-47v115z" />
    <glyph glyph-name="Uring" unicode="&#x16e;" 
d="M310 733q-42 0 -69 26.5t-27 64.5q0 39 27 65t69 26t69 -26t27 -65q0 -38 -27 -64.5t-69 -26.5zM310 764q28 0 43.5 17t15.5 43t-15.5 43.5t-43.5 17.5t-43.5 -17.5t-15.5 -43.5t15.5 -43t43.5 -17zM84 710h55v-494q0 -86 45 -136t128 -50q82 0 125.5 49.5t43.5 136.5
v494h54v-495q0 -107 -57 -169.5t-166 -62.5q-110 0 -169 63t-59 169v495z" />
    <glyph glyph-name="uring" unicode="&#x16f;" 
d="M302 559q-44 0 -71.5 27.5t-27.5 69.5t27.5 69t71.5 27t71.5 -27t27.5 -69t-27.5 -69.5t-71.5 -27.5zM302 591q29 0 45.5 18.5t16.5 46.5t-16.5 46t-45.5 18t-45.5 -18t-16.5 -46t16.5 -46.5t45.5 -18.5zM450 115q-17 -54 -63 -90.5t-107 -36.5q-79 0 -126 44
q-48 48 -48 158v310h51v-310q0 -159 134 -159q76 0 116 60t40 135v274h50v-500h-47v115z" />
    <glyph glyph-name="Uhungarumlaut" unicode="&#x170;" 
d="M217 776l58 108h54l-62 -108h-50zM353 776l57 108h55l-62 -108h-50zM84 710h55v-494q0 -86 45 -136t128 -50q82 0 125.5 49.5t43.5 136.5v494h54v-495q0 -107 -57 -169.5t-166 -62.5q-110 0 -169 63t-59 169v495z" />
    <glyph glyph-name="uhungarumlaut" unicode="&#x171;" 
d="M211 579l83 141h54l-88 -141h-49zM343 579l84 141h53l-87 -141h-50zM450 115q-17 -54 -63 -90.5t-107 -36.5q-79 0 -126 44q-48 48 -48 158v310h51v-310q0 -159 134 -159q76 0 116 60t40 135v274h50v-500h-47v115z" />
    <glyph glyph-name="Uogonek" unicode="&#x172;" 
d="M481 710h54v-495q0 -86 -37.5 -144.5t-110.5 -78.5q-96 -37 -96 -105q0 -25 14.5 -41t36.5 -16q23 0 38.5 17t18.5 43l35 -9q-6 -42 -32 -63t-64 -21q-35 0 -61 22.5t-26 61.5q0 63 66 102h-5q-110 0 -169 63t-59 169v495h55v-494q0 -86 45 -136t128 -50q82 0 125.5 49.5
t43.5 136.5v494z" />
    <glyph glyph-name="uogonek" unicode="&#x173;" 
d="M487 -110l35 -9q-6 -42 -32 -63t-64 -21q-35 0 -61 22.5t-26 61.5q0 83 111 123v111q-17 -54 -63 -90.5t-107 -36.5q-79 0 -126 44q-48 48 -48 158v310h51v-310q0 -159 134 -159q76 0 116 60t40 135v274h50v-500q-64 -20 -91 -50t-27 -63q0 -25 14.5 -41t36.5 -16
q23 0 38.5 17t18.5 43z" />
    <glyph glyph-name="Wcircumflex" unicode="&#x174;" 
d="M443 776h-55l-79 80l-78 -80h-54l105 108h56zM127 0l-80 710h53l57 -553q6 -72 8 -108h6q5 46 21 114l92 380h52l92 -380q16 -68 21 -114h6q2 36 8 108l57 553h53l-80 -710h-70l-86 361q-18 73 -24 129h-6q-6 -56 -24 -129l-86 -361h-70z" />
    <glyph glyph-name="wcircumflex" unicode="&#x175;" 
d="M444 579h-51l-84 107l-84 -107h-51l110 141h50zM35 500h51l79 -378q8 -36 12 -65h5q8 46 14 71l89 372h48l89 -372q11 -48 14 -71h5q2 12 6.5 34.5t5.5 30.5l79 378h52l-114 -500h-59l-89 374q-2 11 -6.5 36.5t-4.5 27.5h-4q0 -2 -4.5 -27.5t-6.5 -36.5l-89 -374h-59z
" />
    <glyph glyph-name="Ycircumflex" unicode="&#x176;" 
d="M443 776h-55l-79 80l-78 -80h-54l105 108h56zM338 288v-288h-54v288l-236 422h60l203 -374l201 374h60z" />
    <glyph glyph-name="ycircumflex" unicode="&#x177;" 
d="M445 579h-51l-84 107l-84 -107h-51l110 141h50zM149 500l170 -443l159 443h52l-197 -532q-33 -91 -74.5 -130t-105.5 -39q-23 0 -41 5v45q16 -4 39 -4q50 0 79 30t50 89l13 37l-199 499h55z" />
    <glyph glyph-name="Ydieresis" unicode="&#x178;" 
d="M239 884v-109h-72v109h72zM452 884v-109h-72v109h72zM338 288v-288h-54v288l-236 422h60l203 -374l201 374h60z" />
    <glyph glyph-name="Zacute" unicode="&#x179;" 
d="M285 776l81 108h67l-98 -108h-50zM77 50l388 613h-371v47h429v-50l-389 -613h403v-47h-460v50z" />
    <glyph glyph-name="zacute" unicode="&#x17a;" 
d="M286 579l105 141h62l-120 -141h-47zM112 40l311 417h-299v43h359v-38l-310 -419h322v-43h-383v40z" />
    <glyph glyph-name="Zdotaccent" unicode="&#x17b;" 
d="M349 884v-109h-78v109h78zM77 50l388 613h-371v47h429v-50l-389 -613h403v-47h-460v50z" />
    <glyph glyph-name="zdotaccent" unicode="&#x17c;" 
d="M348 723v-123h-77v123h77zM112 40l311 417h-299v43h359v-38l-310 -419h322v-43h-383v40z" />
    <glyph glyph-name="Zcaron" unicode="&#x17d;" 
d="M177 884h55l79 -80l78 80h54l-105 -108h-56zM77 50l388 613h-371v47h429v-50l-389 -613h403v-47h-460v50z" />
    <glyph glyph-name="zcaron" unicode="&#x17e;" 
d="M175 720h51l84 -107l84 107h51l-110 -141h-50zM112 40l311 417h-299v43h359v-38l-310 -419h322v-43h-383v40z" />
    <glyph glyph-name="florin" unicode="&#x192;" 
d="M427 669q-54 0 -73.5 -30t-28.5 -95l-16 -125h132v-41h-137l-68 -528h-50l67 528h-105v41h110l13 105q6 48 13 75.5t23 57t45.5 43t74.5 13.5q30 0 45 -6v-43q-18 5 -45 5z" />
    <glyph glyph-name="AEacute" unicode="&#x1fc;" 
d="M542 884l-98 -108h-50l81 108h67zM340 47h226v-47h-278v177h-157l-56 -177h-54l235 710h303v-47h-219v-276h202v-46h-202v-294zM145 221h143v451z" />
    <glyph glyph-name="aeacute" unicode="&#x1fd;" 
d="M453 720l-120 -141h-47l105 141h62zM530 169l49 -7v-4q0 -76 -40 -122t-108 -46q-45 0 -79 22.5t-51 62.5q-16 -40 -50.5 -62.5t-78.5 -22.5q-56 0 -93.5 35.5t-37.5 101.5q0 65 31.5 98.5t102.5 45.5l110 20v54q0 125 -93 125q-46 0 -69 -31.5t-23 -82.5v-12h-50v3
q0 78 39.5 120.5t103.5 42.5q88 0 120 -67q39 67 119 67q71 0 108.5 -50t37.5 -142v-63h-244v-99q0 -58 27.5 -91t70.5 -33t70.5 34.5t27.5 92.5v10zM431 468q-44 0 -70.5 -34.5t-26.5 -106.5v-37h194v35q0 143 -97 143zM181 29q45 0 75 38t30 110v79l-95 -17
q-52 -9 -76 -33.5t-24 -72.5q0 -52 25 -78t65 -26z" />
    <glyph glyph-name="Oslashacute" unicode="&#x1fe;" 
d="M433 884l-98 -108h-50l81 108h67zM558 706l-56 -83q50 -85 50 -229v-78q0 -161 -61.5 -247t-180.5 -86t-180 86l-58 -86l-33 18l69 103q-40 80 -40 212v78q0 161 61.5 247t180.5 86q107 0 169 -71l47 69zM124 316q0 -93 20 -158l305 452q-46 70 -139 70q-186 0 -186 -286
v-78zM496 394q0 113 -28 179l-306 -457q44 -86 148 -86q186 0 186 286v78z" />
    <glyph glyph-name="oslashacute" unicode="&#x1ff;" 
d="M453 720l-120 -141h-47l105 141h62zM479 434q55 -71 55 -184q0 -120 -61 -191t-163 -71q-85 0 -145 52l-39 -49l-28 21l43 54q-55 71 -55 184q0 120 61 191t163 71q85 0 145 -52l39 49l29 -20zM138 250q0 -88 35 -144l252 316q-44 46 -115 46q-79 0 -125.5 -58.5
t-46.5 -159.5zM310 32q79 0 125.5 58.5t46.5 159.5q0 86 -35 143l-252 -315q44 -46 115 -46z" />
    <glyph glyph-name="Scommaaccent" unicode="&#x218;" 
d="M315 -17q-116 0 -178 63.5t-70 165.5l53 8q6 -84 55 -137.5t139 -53.5q80 0 127 35.5t47 106.5q0 73 -35.5 105t-107.5 52l-91 26q-75 21 -119.5 67t-44.5 118q0 84 58.5 136t153.5 52q102 0 164 -50.5t68 -159.5l-52 -12q-8 176 -179 176q-77 0 -117.5 -37t-40.5 -99
q0 -106 130 -143l92 -26q83 -23 129.5 -66.5t46.5 -130.5q0 -90 -61 -143t-167 -53zM326 -207l-16 21q40 18 40 54h-45v82h77v-57q0 -38 -12 -61.5t-44 -38.5z" />
    <glyph glyph-name="scommaaccent" unicode="&#x219;" 
d="M322 -12q-88 0 -141 43t-63 126l50 7q18 -134 156 -134q61 0 94 26.5t33 73.5q0 44 -24.5 67t-78.5 31l-77 11q-137 19 -137 135q0 65 47 101.5t129 36.5t131.5 -40t56.5 -116l-50 -9q-15 124 -139 124q-59 0 -92.5 -25t-33.5 -70q0 -41 24.5 -63.5t77.5 -30.5l80 -11
q135 -18 135 -136q0 -69 -47 -108t-131 -39zM319 -207l-16 21q40 18 40 54h-45v82h77v-57q0 -38 -12 -61.5t-44 -38.5z" />
    <glyph glyph-name="uni021A" unicode="&#x21a;" 
d="M50 710h519v-47h-233v-663h-54v663h-232v47zM292 -207l-16 21q40 18 40 54h-45v82h77v-57q0 -38 -12 -61.5t-44 -38.5z" />
    <glyph glyph-name="uni021B" unicode="&#x21b;" 
d="M93 459v41h147v134l50 22v-156h200v-41h-200v-307q0 -113 116 -113q37 0 84 7v-44q-42 -10 -86 -10q-77 0 -120.5 40.5t-43.5 112.5v314h-147zM374 -207l-16 21q40 18 40 54h-45v82h77v-57q0 -38 -12 -61.5t-44 -38.5z" />
    <glyph glyph-name="uni0237" unicode="&#x237;" 
d="M113 -182v44q61 -17 113 -17q58 0 88 29.5t30 96.5v487h-190v42h240v-533q0 -80 -41 -124.5t-120 -44.5q-64 0 -120 20z" />
    <glyph glyph-name="uni0243" unicode="&#x243;" 
d="M534 190q0 -69 -38.5 -120t-125.5 -65v-112h-35v108q-9 -1 -28 -1h-61v-107h-35v107h-125v695h125v90h35v-90h45q16 0 44 -2v92h35v-97q78 -17 112.5 -63t34.5 -104q0 -62 -32.5 -106t-101.5 -57q74 -9 112.5 -54t38.5 -114zM137 649v-272h160q165 0 165 139
q0 133 -171 133h-154zM302 46q177 0 177 147q0 139 -169 139h-173v-286h165z" />
    <glyph glyph-name="circumflex" unicode="&#x2c6;" 
d="M445 579h-51l-84 107l-84 -107h-51l110 141h50z" />
    <glyph glyph-name="caron" unicode="&#x2c7;" 
d="M175 720h51l84 -107l84 107h51l-110 -141h-50z" />
    <glyph glyph-name="breve" unicode="&#x2d8;" 
d="M207 720q3 -49 31 -79.5t72 -30.5t72.5 30.5t31.5 79.5h43q-5 -74 -46 -110t-101 -36t-101.5 36.5t-45.5 109.5h44z" />
    <glyph glyph-name="dotaccent" unicode="&#x2d9;" 
d="M348 723v-123h-77v123h77z" />
    <glyph glyph-name="ring" unicode="&#x2da;" 
d="M310 559q-44 0 -71.5 27.5t-27.5 69.5t27.5 69t71.5 27t71.5 -27t27.5 -69t-27.5 -69.5t-71.5 -27.5zM310 591q29 0 45.5 18.5t16.5 46.5t-16.5 46t-45.5 18t-45.5 -18t-16.5 -46t16.5 -46.5t45.5 -18.5z" />
    <glyph glyph-name="ogonek" unicode="&#x2db;" 
d="M401 -119q-6 -42 -32 -63t-64 -21q-35 0 -61 22.5t-26 61.5q0 83 111 123l47 -4q-64 -20 -91 -50t-27 -63q0 -25 14.5 -41t36.5 -16q23 0 38.5 17t18.5 43z" />
    <glyph glyph-name="tilde" unicode="&#x2dc;" 
d="M236 709q39 0 84 -36t70 -36q22 0 39 17.5t20 51.5l38 -4q-8 -55 -36 -81t-65 -26q-35 0 -79 36t-72 36q-25 0 -42.5 -17t-21.5 -49l-38 5q7 51 36.5 77t66.5 26z" />
    <glyph glyph-name="hungarumlaut" unicode="&#x2dd;" 
d="M175 579l83 141h54l-88 -141h-49zM307 579l84 141h53l-87 -141h-50z" />
    <glyph glyph-name="gravecomb" unicode="&#x300;" horiz-adv-x="0" 
d="M-231 579h-47l-120 141h62z" />
    <glyph glyph-name="acutecomb" unicode="&#x301;" horiz-adv-x="0" 
d="M-394 579l105 141h62l-120 -141h-47z" />
    <glyph glyph-name="uni0302" unicode="&#x302;" horiz-adv-x="0" 
d="M-175 579h-51l-84 107l-84 -107h-51l110 141h50z" />
    <glyph glyph-name="tildecomb" unicode="&#x303;" horiz-adv-x="0" 
d="M-384 709q39 0 84 -36t70 -36q22 0 39 17.5t20 51.5l38 -4q-8 -55 -36 -81t-65 -26q-35 0 -79 36t-72 36q-25 0 -42.5 -17t-21.5 -49l-38 5q7 51 36.5 77t66.5 26z" />
    <glyph glyph-name="uni0304" unicode="&#x304;" horiz-adv-x="0" 
d="M-454 605v41h288v-41h-288z" />
    <glyph glyph-name="uni0306" unicode="&#x306;" horiz-adv-x="0" 
d="M-413 720q3 -49 31 -79.5t72 -30.5t72.5 30.5t31.5 79.5h43q-5 -74 -46 -110t-101 -36t-101.5 36.5t-45.5 109.5h44z" />
    <glyph glyph-name="uni0307" unicode="&#x307;" horiz-adv-x="0" 
d="M-272 723v-123h-77v123h77z" />
    <glyph glyph-name="uni0308" unicode="&#x308;" horiz-adv-x="0" 
d="M-355 723v-116h-77v116h77zM-189 723v-116h-76v116h76z" />
    <glyph glyph-name="uni030A" unicode="&#x30a;" horiz-adv-x="0" 
d="M-310 559q-44 0 -71.5 27.5t-27.5 69.5t27.5 69t71.5 27t71.5 -27t27.5 -69t-27.5 -69.5t-71.5 -27.5zM-310 591q29 0 45.5 18.5t16.5 46.5t-16.5 46t-45.5 18t-45.5 -18t-16.5 -46t16.5 -46.5t45.5 -18.5z" />
    <glyph glyph-name="uni030B" unicode="&#x30b;" horiz-adv-x="0" 
d="M-429 579l83 141h54l-88 -141h-49zM-297 579l84 141h53l-87 -141h-50z" />
    <glyph glyph-name="uni030C" unicode="&#x30c;" horiz-adv-x="0" 
d="M-445 720h51l84 -107l84 107h51l-110 -141h-50z" />
    <glyph glyph-name="uni0312" unicode="&#x312;" horiz-adv-x="0" 
d="M-293 748l16 -21q-40 -18 -40 -54h45v-82h-77v57q0 38 12 61.5t44 38.5z" />
    <glyph glyph-name="uni0326" unicode="&#x326;" horiz-adv-x="0" 
d="M-326 -207l-16 21q40 18 40 54h-45v82h77v-57q0 -38 -12 -61.5t-44 -38.5z" />
    <glyph glyph-name="uni0327" unicode="&#x327;" horiz-adv-x="0" 
d="M-330 3h35l-41 -69q15 14 42 14q30 0 49.5 -19t19.5 -50q0 -35 -26 -57.5t-61 -22.5q-65 0 -84 57l38 8q10 -35 46 -35q19 0 32.5 12t13.5 36q0 22 -13 33.5t-31 11.5q-25 0 -41 -16l-27 9z" />
    <glyph glyph-name="uni0328" unicode="&#x328;" horiz-adv-x="0" 
d="M-219 -119q-6 -42 -32 -63t-64 -21q-35 0 -61 22.5t-26 61.5q0 83 111 123l47 -4q-64 -20 -91 -50t-27 -63q0 -25 14.5 -41t36.5 -16q23 0 38.5 17t18.5 43z" />
    <glyph glyph-name="uni0394" unicode="&#x394;" 
d="M74 0l207 710h60l204 -710h-471zM311 652l-171 -607h336z" />
    <glyph glyph-name="uni03A9" unicode="&#x3a9;" 
d="M537 0h-179l-10 204q76 18 112 81.5t36 156.5q0 103 -47.5 171.5t-136.5 68.5q-87 0 -137 -69.5t-50 -171.5q0 -88 40 -153t108 -84l-10 -204h-179v47h134l5 125q-68 25 -110 99.5t-42 169.5q0 126 67 206t174 80q108 0 172.5 -78t64.5 -206q0 -102 -37 -173.5
t-115 -96.5l7 -126h133v-47z" />
    <glyph glyph-name="uni03BC" unicode="&#x3bc;" 
d="M447 500h50v-500h-47v115q-17 -54 -63 -90.5t-107 -36.5q-76 0 -124 42v-225h-50v695h51v-310q0 -159 134 -159q76 0 116 60t40 135v274z" />
    <glyph glyph-name="pi" unicode="&#x3c0;" 
d="M554 -1q-18 -6 -39 -6q-95 0 -95 117v349h-219v-459h-50v459h-86v41h490v-41h-85v-352q0 -69 52 -69q20 0 32 4v-43z" />
    <glyph glyph-name="uni0E3F" unicode="&#xe3f;" 
d="M382 357q74 -9 112.5 -54t38.5 -115q0 -79 -52 -133.5t-172 -54.5h-9v-107h-35v107h-179v695h179v91h35v-91q61 -1 105 -17t67 -42.5t33.5 -55t10.5 -60.5q0 -62 -32.5 -106t-101.5 -57zM136 650v-274h129v274h-129zM463 516q0 130 -163 134v-274q163 0 163 140zM136 45
h129v286h-129v-286zM303 45q177 0 177 146q0 63 -39.5 101.5t-129.5 38.5h-11v-286h3z" />
    <glyph glyph-name="Wgrave" unicode="&#x1e80;" 
d="M335 776h-50l-98 108h67zM127 0l-80 710h53l57 -553q6 -72 8 -108h6q5 46 21 114l92 380h52l92 -380q16 -68 21 -114h6q2 36 8 108l57 553h53l-80 -710h-70l-86 361q-18 73 -24 129h-6q-6 -56 -24 -129l-86 -361h-70z" />
    <glyph glyph-name="wgrave" unicode="&#x1e81;" 
d="M333 579h-47l-120 141h62zM35 500h51l79 -378q8 -36 12 -65h5q8 46 14 71l89 372h48l89 -372q11 -48 14 -71h5q2 12 6.5 34.5t5.5 30.5l79 378h52l-114 -500h-59l-89 374q-2 11 -6.5 36.5t-4.5 27.5h-4q0 -2 -4.5 -27.5t-6.5 -36.5l-89 -374h-59z" />
    <glyph glyph-name="Wacute" unicode="&#x1e82;" 
d="M285 776l81 108h67l-98 -108h-50zM127 0l-80 710h53l57 -553q6 -72 8 -108h6q5 46 21 114l92 380h52l92 -380q16 -68 21 -114h6q2 36 8 108l57 553h53l-80 -710h-70l-86 361q-18 73 -24 129h-6q-6 -56 -24 -129l-86 -361h-70z" />
    <glyph glyph-name="wacute" unicode="&#x1e83;" 
d="M285 579l105 141h62l-120 -141h-47zM35 500h51l79 -378q8 -36 12 -65h5q8 46 14 71l89 372h48l89 -372q11 -48 14 -71h5q2 12 6.5 34.5t5.5 30.5l79 378h52l-114 -500h-59l-89 374q-2 11 -6.5 36.5t-4.5 27.5h-4q0 -2 -4.5 -27.5t-6.5 -36.5l-89 -374h-59z" />
    <glyph glyph-name="Wdieresis" unicode="&#x1e84;" 
d="M239 884v-109h-72v109h72zM452 884v-109h-72v109h72zM127 0l-80 710h53l57 -553q6 -72 8 -108h6q5 46 21 114l92 380h52l92 -380q16 -68 21 -114h6q2 36 8 108l57 553h53l-80 -710h-70l-86 361q-18 73 -24 129h-6q-6 -56 -24 -129l-86 -361h-70z" />
    <glyph glyph-name="wdieresis" unicode="&#x1e85;" 
d="M264 723v-116h-77v116h77zM430 723v-116h-76v116h76zM35 500h51l79 -378q8 -36 12 -65h5q8 46 14 71l89 372h48l89 -372q11 -48 14 -71h5q2 12 6.5 34.5t5.5 30.5l79 378h52l-114 -500h-59l-89 374q-2 11 -6.5 36.5t-4.5 27.5h-4q0 -2 -4.5 -27.5t-6.5 -36.5l-89 -374
h-59z" />
    <glyph glyph-name="Ygrave" unicode="&#x1ef2;" 
d="M335 776h-50l-98 108h67zM338 288v-288h-54v288l-236 422h60l203 -374l201 374h60z" />
    <glyph glyph-name="ygrave" unicode="&#x1ef3;" 
d="M334 579h-47l-120 141h62zM149 500l170 -443l159 443h52l-197 -532q-33 -91 -74.5 -130t-105.5 -39q-23 0 -41 5v45q16 -4 39 -4q50 0 79 30t50 89l13 37l-199 499h55z" />
    <glyph glyph-name="uni2002" unicode="&#x2002;" horiz-adv-x="500" 
 />
    <glyph glyph-name="uni2003" unicode="&#x2003;" horiz-adv-x="1000" 
 />
    <glyph glyph-name="uni2004" unicode="&#x2004;" horiz-adv-x="0" 
 />
    <glyph glyph-name="uni2005" unicode="&#x2005;" horiz-adv-x="250" 
 />
    <glyph glyph-name="uni2009" unicode="&#x2009;" horiz-adv-x="135" 
 />
    <glyph glyph-name="uni200A" unicode="&#x200a;" horiz-adv-x="75" 
 />
    <glyph glyph-name="endash" unicode="&#x2013;" 
d="M104 298h412v-39h-412v39z" />
    <glyph glyph-name="emdash" unicode="&#x2014;" 
d="M37 298h545v-39h-545v39z" />
    <glyph glyph-name="quoteleft" unicode="&#x2018;" 
d="M344 723l16 -30q-35 -15 -50 -36t-15 -59h71v-114h-109v114q0 92 87 125z" />
    <glyph glyph-name="quoteright" unicode="&#x2019;" 
d="M270 471l-16 30q35 15 50 36t15 59h-71v114h109v-114q0 -92 -87 -125z" />
    <glyph glyph-name="quotesinglbase" unicode="&#x201a;" 
d="M276 -125l-16 30q35 15 50 36t15 59h-71v114h109v-114q0 -92 -87 -125z" />
    <glyph glyph-name="quotedblleft" unicode="&#x201c;" 
d="M263 724l16 -30q-35 -15 -50 -36t-15 -59h71v-114h-109v114q0 92 87 125zM427 724l16 -30q-35 -16 -50 -36.5t-15 -58.5h72v-114h-110v114q0 92 87 125z" />
    <glyph glyph-name="quotedblright" unicode="&#x201d;" 
d="M193 471l-16 30q35 16 50 36.5t15 58.5h-72v114h110v-114q0 -92 -87 -125zM357 471l-16 30q35 15 50 36t15 59h-71v114h109v-114q0 -92 -87 -125z" />
    <glyph glyph-name="quotedblbase" unicode="&#x201e;" 
d="M199 -126l-16 30q35 15 50 36.5t15 59.5h-72v113h110v-113q0 -92 -87 -126zM363 -126l-16 30q35 15 50 36.5t15 59.5h-72v113h110v-113q0 -93 -87 -126z" />
    <glyph glyph-name="dagger" unicode="&#x2020;" 
d="M335 458v-558h-51v558h-141v42h141v220h51v-220h142v-42h-142z" />
    <glyph glyph-name="daggerdbl" unicode="&#x2021;" 
d="M477 458h-142v-289h141v-42h-141v-227h-51v227h-141v42h141v289h-141v42h141v220h51v-220h142v-42z" />
    <glyph glyph-name="bullet" unicode="&#x2022;" 
d="M310 412q30 0 48 -18t18 -48t-18 -48t-48 -18t-48.5 18t-18.5 48t18.5 48t48.5 18z" />
    <glyph glyph-name="ellipsis" unicode="&#x2026;" 
d="M160 112v-112h-110v112h110zM364 112v-112h-109v112h109zM569 112v-112h-110v112h110z" />
    <glyph glyph-name="perthousand" unicode="&#x2030;" 
d="M153 431q-51 0 -82 37.5t-31 102.5q0 64 31 101.5t82 37.5t82 -37.5t31 -101.5q0 -65 -31 -102.5t-82 -37.5zM153 676q-34 0 -53.5 -28t-19.5 -77t19.5 -77.5t53.5 -28.5t53.5 28.5t19.5 77.5t-19.5 77t-53.5 28zM526 631v-48l-483 -377v45zM468 279q51 0 82 -37.5
t31 -102.5q0 -64 -31 -101.5t-82 -37.5q-62 0 -94 54q-30 -54 -93 -54q-51 0 -82 37.5t-31 101.5q0 65 31 102.5t82 37.5q63 0 93 -55q31 55 94 55zM281 34q34 0 54 28t20 77t-20 77.5t-54 28.5t-53.5 -28.5t-19.5 -77.5t19.5 -77t53.5 -28zM468 34q34 0 53.5 28t19.5 77
t-19.5 77.5t-53.5 28.5t-54 -28.5t-20 -77.5t20 -77t54 -28z" />
    <glyph glyph-name="guilsinglleft" unicode="&#x2039;" 
d="M355 67l-168 208l173 207h52l-169 -206l166 -209h-54z" />
    <glyph glyph-name="guilsinglright" unicode="&#x203a;" 
d="M265 67h-54l166 209l-169 206h52l173 -207z" />
    <glyph glyph-name="fraction" unicode="&#x2044;" horiz-adv-x="114" 
d="M289 727h51l-515 -744h-52z" />
    <glyph glyph-name="uni20A9" unicode="&#x20a9;" 
d="M580 411h-51l-11 -95h62v-36h-67l-35 -280h-69l-44 280h-111l-43 -280h-69l-35 280h-67v36h62l-12 95h-50v35h46l-32 249h47l29 -249h111l40 249h58l40 -249h110l30 249h46l-31 -249h46v-35zM300 578l-20 -132h60l-21 132l-8 59h-3q-1 -13 -8 -59zM134 411l11 -95h76
l15 95h-102zM260 316h100l-15 95h-71zM474 316l11 95h-101l15 -95h75zM190 123l25 157h-65l18 -157q4 -27 8 -69h3q8 54 11 69zM451 123l19 157h-65l25 -157q1 -9 5 -31.5t6 -37.5h3q3 39 7 69z" />
    <glyph glyph-name="Euro" unicode="&#x20ac;" 
d="M546 169l44 -15q-27 -83 -83 -126t-134 -43q-109 0 -174 77.5t-81 208.5h-88v37h84q-1 15 -1 46q0 19 2 51h-85v37h89q17 128 84 198t175 70q161 0 206 -161l-47 -14q-16 60 -57.5 94.5t-103.5 34.5q-85 0 -137.5 -57.5t-66.5 -164.5h276v-37h-280q-2 -32 -2 -50
q0 -17 2 -47h280v-37h-277q15 -113 68.5 -176.5t135.5 -63.5q57 0 103.5 34.5t67.5 103.5z" />
    <glyph glyph-name="uni20B9" unicode="&#x20b9;" 
d="M558 695v-40h-253q86 -40 93 -139h160v-38h-160q-2 -36 -14 -65.5t-37.5 -56.5t-71.5 -42t-110 -15h-35l266 -299h-65l-270 309v32h102q172 0 182 137h-284v38h284q-5 63 -48.5 101t-130.5 38h-105v40h497z" />
    <glyph glyph-name="uni20BA" unicode="&#x20ba;" 
d="M500 234l49 -9q-43 -225 -265 -225h-126v288l-87 -26v41l87 26v104l-87 -26v41l87 26v221h53v-204l238 72v-41l-238 -72v-104l238 72v-41l-238 -72v-258h67q183 0 222 187z" />
    <glyph glyph-name="uni20BD" unicode="&#x20bd;" 
d="M329 301h-140v-115h180v-38h-180v-148h-53v148h-71v38h71v115h-71v40h71v354h193q63 0 109.5 -17.5t70.5 -47t35 -61t11 -66.5q0 -37 -11 -70.5t-35 -64t-70.5 -49t-109.5 -18.5zM189 648v-307h141q89 0 129.5 48t40.5 112q0 59 -40.5 103t-129.5 44h-141z" />
    <glyph glyph-name="uni2105" unicode="&#x2105;" 
d="M243 604q-3 41 -24 64.5t-58 23.5q-44 0 -67.5 -33t-23.5 -94q0 -130 92 -130q37 0 58 23t24 60l41 -5q-8 -53 -40 -83.5t-83 -30.5q-62 0 -97.5 44t-35.5 122q0 76 35.5 119.5t96.5 43.5q53 0 86.5 -32.5t37.5 -87.5zM499 728h44l-433 -742h-44zM591 151
q0 -77 -35 -120.5t-95 -43.5q-63 0 -98 44t-35 123q0 76 35.5 119.5t96.5 43.5q60 0 95.5 -44.5t35.5 -121.5zM370 154q0 -130 91 -130q42 0 65 32.5t23 94.5t-23 95.5t-66 33.5t-66.5 -32.5t-23.5 -93.5z" />
    <glyph glyph-name="uni2113" unicode="&#x2113;" 
d="M292 130q0 -92 83 -92q27 0 60 7v-45q-31 -9 -71 -9q-67 0 -94.5 37.5t-27.5 106.5v87q-37 -21 -88 -42l-18 37q65 29 106 53v310q0 78 35 114.5t87 36.5q58 0 88.5 -41.5t30.5 -112.5q0 -201 -191 -326v-121zM292 591v-289q141 103 141 269q0 120 -71 120
q-33 0 -51.5 -26t-18.5 -74z" />
    <glyph glyph-name="uni2116" unicode="&#x2116;" 
d="M240 198l32 -116h2q-7 103 -7 168v460h43v-710h-52l-170 532q-9 30 -31 109h-2q8 -102 8 -176v-465h-43v710h56zM384 451v72q0 143 108 143q107 0 107 -141v-75q0 -69 -29 -105.5t-78 -36.5q-50 0 -79 37t-29 106zM557 450v80q0 98 -65 98q-66 0 -66 -101v-79
q0 -51 18 -76.5t48 -25.5q65 0 65 104z" />
    <glyph glyph-name="trademark" unicode="&#x2122;" 
d="M129 313v362h-90v35h221v-35h-91v-362h-40zM301 313v397h61l64 -289q3 -16 14 -71h2q6 37 13 71l64 289h61v-397h-37v314v45h-1q-1 -6 -4 -18.5t-4 -17.5l-74 -323h-39l-74 323q-1 5 -4 17.5t-4 18.5h-1v-45v-314h-37z" />
    <glyph glyph-name="uni2126" unicode="&#x2126;" 
d="M537 0h-179l-10 204q76 18 112 81.5t36 156.5q0 103 -47.5 171.5t-136.5 68.5q-87 0 -137 -69.5t-50 -171.5q0 -88 40 -153t108 -84l-10 -204h-179v47h134l5 125q-68 25 -110 99.5t-42 169.5q0 126 67 206t174 80q108 0 172.5 -78t64.5 -206q0 -102 -37 -173.5
t-115 -96.5l7 -126h133v-47z" />
    <glyph glyph-name="estimated" unicode="&#x212e;" 
d="M323 19q60 0 110 34t74 106l35 -15q-27 -79 -86 -120t-138 -41q-122 0 -186 103t-64 271q0 167 65.5 264t188.5 97q118 0 173.5 -84.5t55.5 -270.5h-365v-278q55 -66 137 -66zM322 682q-85 0 -136 -56v-228h256v240q-44 44 -120 44z" />
    <glyph glyph-name="uni2153" unicode="&#x2153;" horiz-adv-x="1240" 
d="M861 727h51l-515 -744h-52zM434 366v-31h-264v31h114v289q-12 -15 -43.5 -27t-54.5 -12h-11v36h8q31 0 65 17t43 40h35v-343h108zM980 194q41 -2 65.5 -27.5t24.5 -65.5q0 -50 -36.5 -79.5t-97.5 -29.5t-97 32t-38 85l44 3q1 -38 25.5 -63t65.5 -25q40 0 65 20t25 59
q0 31 -20.5 53t-67.5 22h-31v29h27q33 0 57 17.5t24 52.5t-22.5 53.5t-59.5 18.5q-41 0 -63.5 -24.5t-21.5 -65.5l-43 4q-1 55 33.5 87.5t96.5 32.5q56 0 89.5 -27t33.5 -75q0 -35 -21 -58.5t-57 -28.5z" />
    <glyph glyph-name="uni2154" unicode="&#x2154;" horiz-adv-x="1240" 
d="M852 727h51l-515 -744h-52zM172 367q57 43 84.5 64.5t64 55t51.5 61t15 55.5q0 80 -83 80q-41 0 -63.5 -20t-22.5 -57q0 -13 3 -28l-42 3q-3 16 -3 26q0 50 35 80.5t93 30.5q60 0 93 -29.5t33 -82.5q0 -57 -53 -113t-149 -125h216v-33h-272v32zM905 207h27q33 0 57 17.5
t24 52.5t-22.5 53.5t-59.5 18.5q-41 0 -63.5 -24.5t-21.5 -65.5l-43 4q-1 55 33.5 87.5t96.5 32.5q56 0 89.5 -27t33.5 -75q0 -35 -21 -58.5t-57 -28.5q41 -2 65.5 -27.5t24.5 -65.5q0 -50 -36.5 -79.5t-97.5 -29.5t-97 32t-38 85l44 3q1 -38 25.5 -63t65.5 -25q40 0 65 20
t25 59q0 31 -20.5 53t-67.5 22h-31v29z" />
    <glyph glyph-name="oneeighth" unicode="&#x215b;" horiz-adv-x="1240" 
d="M860 727h51l-515 -744h-52zM437 366v-31h-264v31h114v289q-12 -15 -43.5 -27t-54.5 -12h-11v36h8q31 0 65 17t43 40h35v-343h108zM962 204q50 -12 76.5 -35.5t26.5 -72.5t-37.5 -76.5t-103.5 -27.5q-67 0 -103.5 27t-36.5 75q0 75 95 97q-40 10 -62 31.5t-22 63.5
q0 43 35 70t92 27q58 0 93 -25t35 -67q0 -69 -88 -87zM836 285q0 -30 19.5 -45.5t57.5 -24.5l23 -5q41 10 57.5 27t16.5 47q0 32 -23.5 50.5t-64.5 18.5q-39 0 -62.5 -18.5t-23.5 -49.5zM925 24q46 0 71.5 19.5t25.5 53.5q0 36 -21 53.5t-62 26.5l-29 7q-84 -24 -84 -84
q0 -36 25.5 -56t73.5 -20z" />
    <glyph glyph-name="threeeighths" unicode="&#x215c;" horiz-adv-x="1240" 
d="M861 727h51l-515 -744h-52zM446 436q0 -50 -36.5 -79.5t-97.5 -29.5t-97 32t-38 85l44 3q1 -38 25.5 -63t65.5 -25q40 0 65 20t25 59q0 31 -20.5 53t-67.5 22h-31v29h27q33 0 57 17.5t24 52.5t-22.5 53.5t-59.5 18.5q-41 0 -63.5 -24.5t-21.5 -65.5l-43 4
q-1 55 33.5 87.5t96.5 32.5q56 0 89.5 -27t33.5 -75q0 -35 -21 -58.5t-57 -28.5q41 -2 65.5 -27.5t24.5 -65.5zM959 204q50 -12 76.5 -35.5t26.5 -72.5t-37.5 -76.5t-103.5 -27.5q-67 0 -103.5 27t-36.5 75q0 75 95 97q-40 10 -62 31.5t-22 63.5q0 43 35 70t92 27
q58 0 93 -25t35 -67q0 -69 -88 -87zM833 285q0 -30 19.5 -45.5t57.5 -24.5l23 -5q41 10 57.5 27t16.5 47q0 32 -23.5 50.5t-64.5 18.5q-39 0 -62.5 -18.5t-23.5 -49.5zM922 24q46 0 71.5 19.5t25.5 53.5q0 36 -21 53.5t-62 26.5l-29 7q-84 -24 -84 -84q0 -36 25.5 -56
t73.5 -20z" />
    <glyph glyph-name="fiveeighths" unicode="&#x215d;" horiz-adv-x="1240" 
d="M860 727h51l-515 -744h-52zM446 461q0 -63 -37.5 -98.5t-100.5 -35.5q-55 0 -91.5 27t-43.5 72l40 4q7 -32 32.5 -51.5t62.5 -19.5q45 0 71.5 27t26.5 74q0 44 -24.5 69t-67.5 25q-36 0 -61.5 -18.5t-33.5 -50.5l-37 4l22 220h223v-34h-193l-16 -152q32 63 107 63
q56 0 88.5 -33.5t32.5 -91.5zM963 204q50 -12 76.5 -35.5t26.5 -72.5t-37.5 -76.5t-103.5 -27.5q-67 0 -103.5 27t-36.5 75q0 75 95 97q-40 10 -62 31.5t-22 63.5q0 43 35 70t92 27q58 0 93 -25t35 -67q0 -69 -88 -87zM837 285q0 -30 19.5 -45.5t57.5 -24.5l23 -5
q41 10 57.5 27t16.5 47q0 32 -23.5 50.5t-64.5 18.5q-39 0 -62.5 -18.5t-23.5 -49.5zM926 24q46 0 71.5 19.5t25.5 53.5q0 36 -21 53.5t-62 26.5l-29 7q-84 -24 -84 -84q0 -36 25.5 -56t73.5 -20z" />
    <glyph glyph-name="seveneighths" unicode="&#x215e;" horiz-adv-x="1240" 
d="M813 727h51l-515 -744h-52zM316 335h-46v2q-1 94 37.5 183t104.5 154h-220v35h260v-35q-61 -60 -98 -148t-38 -191zM944 204q50 -12 76.5 -35.5t26.5 -72.5t-37.5 -76.5t-103.5 -27.5q-67 0 -103.5 27t-36.5 75q0 75 95 97q-40 10 -62 31.5t-22 63.5q0 43 35 70t92 27
q58 0 93 -25t35 -67q0 -69 -88 -87zM818 285q0 -30 19.5 -45.5t57.5 -24.5l23 -5q41 10 57.5 27t16.5 47q0 32 -23.5 50.5t-64.5 18.5q-39 0 -62.5 -18.5t-23.5 -49.5zM907 24q46 0 71.5 19.5t25.5 53.5q0 36 -21 53.5t-62 26.5l-29 7q-84 -24 -84 -84q0 -36 25.5 -56
t73.5 -20z" />
    <glyph glyph-name="arrowleft" unicode="&#x2190;" 
d="M554 313h-369v-82l-132 99l132 99v-82h369v-34z" />
    <glyph glyph-name="arrowup" unicode="&#x2191;" 
d="M292 -35v652h-81l99 133l99 -133h-81v-652h-36z" />
    <glyph glyph-name="arrowright" unicode="&#x2192;" 
d="M66 347h369v82l132 -99l-132 -99v82h-369v34z" />
    <glyph glyph-name="arrowdown" unicode="&#x2193;" 
d="M328 745v-652h81l-99 -133l-99 133h81v652h36z" />
    <glyph glyph-name="arrowboth" unicode="&#x2194;" 
d="M429 313h-244v-82l-132 99l132 99v-82h244v82l132 -99l-132 -99v82z" />
    <glyph glyph-name="arrowupdn" unicode="&#x2195;" 
d="M310 -40l-99 133h81v524h-81l99 133l99 -133h-81v-524h81z" />
    <glyph glyph-name="uni2196" unicode="&#x2196;" 
d="M147 615l-67 -68v163h163l-69 -69l366 -366l-27 -26z" />
    <glyph glyph-name="uni2197" unicode="&#x2197;" 
d="M471 616l-366 -366l-27 26l366 366l-69 69h163v-163z" />
    <glyph glyph-name="uni2198" unicode="&#x2198;" 
d="M471 106l67 68v-163h-163l69 69l-366 366l27 26z" />
    <glyph glyph-name="uni2199" unicode="&#x2199;" 
d="M148 106l366 366l27 -26l-366 -366l69 -69h-163v163z" />
    <glyph glyph-name="uni21A9" unicode="&#x21a9;" 
d="M186 231l-132 99l132 99v-82h148q170 0 170 150q0 142 -173 142h-86v35h95q98 0 150.5 -45.5t52.5 -131.5q0 -87 -51 -135.5t-149 -48.5h-157v-82z" />
    <glyph glyph-name="uni21AA" unicode="&#x21aa;" 
d="M434 231v82h-157q-98 0 -149 48.5t-51 135.5q0 86 52.5 131.5t150.5 45.5h95v-35h-86q-173 0 -173 -142q0 -150 170 -150h148v82l132 -99z" />
    <glyph glyph-name="uni21B0" unicode="&#x21b0;" 
d="M479 0v583h-293v-82l-133 99l133 99v-82h329v-617h-36z" />
    <glyph glyph-name="uni21B1" unicode="&#x21b1;" 
d="M140 0h-36v617h329v82l133 -99l-133 -99v82h-293v-583z" />
    <glyph glyph-name="uni21B2" unicode="&#x21b2;" 
d="M505 710h36v-617h-329v-82l-133 99l133 99v-82h293v583z" />
    <glyph glyph-name="uni21B3" unicode="&#x21b3;" 
d="M140 710v-583h293v82l133 -99l-133 -99v82h-329v617h36z" />
    <glyph glyph-name="uni21B4" unicode="&#x21b4;" 
d="M371 120h81v555h-386v35h422v-590h81l-99 -133z" />
    <glyph glyph-name="uni21B5" unicode="&#x21b5;" 
d="M525 352h80l-99 -133l-100 133h79v54q0 150 -46 215t-132 65q-113 0 -153 -110l-35 15q52 131 188 131q218 0 218 -314v-56zM309 22q116 0 156 110l35 -15q-52 -131 -191 -131q-103 0 -159 76.5t-56 232.5v59h-79l99 132l99 -132h-79v-57q0 -275 175 -275z" />
    <glyph glyph-name="uni21C4" unicode="&#x21c4;" 
d="M482 429h-297v-82l-132 99l132 99v-82h297v-34zM138 231h297v82l132 -99l-132 -99v82h-297v34z" />
    <glyph glyph-name="uni21C5" unicode="&#x21c5;" 
d="M525 617h-81v-531h-36v531h-81l99 133zM95 93h81v541h36v-541h81l-99 -133z" />
    <glyph glyph-name="partialdiff" unicode="&#x2202;" 
d="M276 721q137 0 205 -103t68 -285q0 -169 -68 -259.5t-182 -90.5q-100 0 -164.5 68t-64.5 173q0 102 62 167.5t159 65.5q131 0 207 -107q0 153 -56 240t-166 87q-43 0 -88 -16l-14 41q45 19 102 19zM302 27q82 0 137.5 65.5t58.5 198.5q-74 122 -199 122q-84 0 -131 -52
t-47 -137q0 -86 50.5 -141.5t130.5 -55.5z" />
    <glyph glyph-name="emptyset" unicode="&#x2205;" 
d="M535 512l-55 -57q52 -61 52 -152q0 -100 -62 -163t-160 -63q-86 0 -145 50l-54 -56l-26 24l55 57q-52 61 -52 151q0 101 62.5 163.5t159.5 62.5q85 0 145 -49l54 56zM135 303q0 -70 37 -118l252 262q-46 40 -114 40q-77 0 -126 -51t-49 -133zM485 303q0 71 -37 119
l-252 -262q46 -40 114 -40q76 0 125.5 50.5t49.5 132.5z" />
    <glyph glyph-name="uni2206" unicode="&#x2206;" 
d="M74 0l207 710h60l204 -710h-471zM311 652l-171 -607h336z" />
    <glyph glyph-name="product" unicode="&#x220f;" 
d="M478 -88v746h-336v-746h-50v793h436v-793h-50z" />
    <glyph glyph-name="summation" unicode="&#x2211;" 
d="M67 -88v38l297 377l-284 341v37h460v-45h-394l280 -333l-295 -370h421v-45h-485z" />
    <glyph glyph-name="minus" unicode="&#x2212;" 
d="M75 305v47h470v-47h-470z" />
    <glyph glyph-name="radical" unicode="&#x221a;" 
d="M40 288h130l107 -313l253 759h50l-279 -828h-47l-121 341h-93v41z" />
    <glyph glyph-name="infinity" unicode="&#x221e;" 
d="M438 456q52 0 85 -34.5t33 -91.5q0 -55 -34 -91.5t-84 -36.5q-40 0 -74 27.5t-55 64.5q-54 -92 -131 -92q-47 0 -80.5 34.5t-33.5 92.5q0 55 33.5 90.5t84.5 35.5q38 0 71.5 -22.5t55.5 -62.5q54 86 129 86zM437 245q31 0 53.5 22.5t22.5 61.5q0 41 -21.5 62t-55.5 21
q-35 0 -59 -21t-47 -60q49 -86 107 -86zM183 245q35 0 58.5 22.5t45.5 63.5q-45 80 -105 80q-31 0 -53.5 -20t-22.5 -62q0 -39 23.5 -61.5t53.5 -22.5z" />
    <glyph glyph-name="integral" unicode="&#x222b;" 
d="M119 -115v43q11 -1 25 -1q79 0 110 36t31 124v429q0 196 180 196q5 0 35 -2v-43q-14 2 -35 2q-72 0 -100.5 -38.5t-28.5 -122.5v-429q0 -96 -44.5 -145.5t-146.5 -49.5q-15 0 -26 1z" />
    <glyph glyph-name="approxequal" unicode="&#x2248;" 
d="M422 375q-38 0 -108 25t-108 25q-36 0 -73 -11.5t-58 -28.5v47q20 17 55.5 28.5t69.5 11.5q46 0 112.5 -25t103.5 -25q36 0 72.5 11.5t56.5 28.5v-47q-19 -17 -53.5 -28.5t-69.5 -11.5zM422 196q-38 0 -108 25t-108 25q-36 0 -73 -11.5t-58 -28.5v47q20 17 55.5 28.5
t69.5 11.5q46 0 112.5 -25t103.5 -25q36 0 72.5 11.5t56.5 28.5v-47q-19 -17 -53.5 -28.5t-69.5 -11.5z" />
    <glyph glyph-name="notequal" unicode="&#x2260;" 
d="M545 395h-192l-49 -132h241v-46h-258l-49 -133h-36l49 133h-176v46h193l49 132h-242v46h259l48 129h36l-48 -129h175v-46z" />
    <glyph glyph-name="lessequal" unicode="&#x2264;" 
d="M553 136l-465 221v40l465 221v-47l-409 -193l409 -193v-49zM73 44h460v-44h-460v44z" />
    <glyph glyph-name="greaterequal" unicode="&#x2265;" 
d="M78 136v49l409 193l-409 193v47l465 -221v-40zM558 44v-44h-460v44h460z" />
    <glyph glyph-name="uni2460" unicode="&#x2460;" 
d="M310 -17q-127 0 -205 83.5t-78 227.5v122q0 143 78 227t205 84t204.5 -84t77.5 -227v-122q0 -144 -77.5 -227.5t-204.5 -83.5zM310 15q110 0 178 75t68 204v122q0 129 -68 204t-178 75q-111 0 -178.5 -74.5t-67.5 -204.5v-122q0 -130 67.5 -204.5t178.5 -74.5zM215 182
h190v35h-74v312h-32q-15 -51 -65 -51h-5v-37h7q41 0 56 27v-251h-77v-35z" />
    <glyph glyph-name="uni2461" unicode="&#x2461;" 
d="M310 -17q-127 0 -205 83.5t-78 227.5v122q0 143 78 227t205 84t204.5 -84t77.5 -227v-122q0 -144 -77.5 -227.5t-204.5 -83.5zM310 15q110 0 178 75t68 204v122q0 129 -68 204t-178 75q-111 0 -178.5 -74.5t-67.5 -204.5v-122q0 -130 67.5 -204.5t178.5 -74.5zM218 177
v28q74 87 106 139.5t32 104.5t-46 52q-48 0 -48 -52q0 -21 1 -31l-40 3q-1 9 -1 27q0 39 23 61t66 22q86 0 86 -83q0 -53 -30.5 -102.5t-104.5 -138.5h139v-30h-183z" />
    <glyph glyph-name="uni2462" unicode="&#x2462;" 
d="M310 -17q-127 0 -205 83.5t-78 227.5v122q0 143 78 227t205 84t204.5 -84t77.5 -227v-122q0 -144 -77.5 -227.5t-204.5 -83.5zM310 15q110 0 178 75t68 204v122q0 129 -68 204t-178 75q-111 0 -178.5 -74.5t-67.5 -204.5v-122q0 -130 67.5 -204.5t178.5 -74.5zM309 174
q-45 0 -66.5 24.5t-21.5 84.5l40 3q0 -46 12 -64t36 -18t36.5 16.5t12.5 57.5q0 38 -13.5 53.5t-39.5 15.5h-16v29h15q51 0 51 72q0 59 -45 59q-24 0 -36 -17.5t-12 -62.5l-40 5q0 57 22.5 80.5t65.5 23.5q85 0 85 -88q0 -72 -52 -85q56 -9 56 -85q0 -104 -90 -104z" />
    <glyph glyph-name="uni2463" unicode="&#x2463;" 
d="M310 -17q-127 0 -205 83.5t-78 227.5v122q0 143 78 227t205 84t204.5 -84t77.5 -227v-122q0 -144 -77.5 -227.5t-204.5 -83.5zM310 15q110 0 178 75t68 204v122q0 129 -68 204t-178 75q-111 0 -178.5 -74.5t-67.5 -204.5v-122q0 -130 67.5 -204.5t178.5 -74.5zM404 265
h-42v-83h-38v83h-124v28l115 236h47v-234h42v-30zM324 488l-92 -193h92v193z" />
    <glyph glyph-name="uni2464" unicode="&#x2464;" 
d="M310 -17q-127 0 -205 83.5t-78 227.5v122q0 143 78 227t205 84t204.5 -84t77.5 -227v-122q0 -144 -77.5 -227.5t-204.5 -83.5zM310 15q110 0 178 75t68 204v122q0 129 -68 204t-178 75q-111 0 -178.5 -74.5t-67.5 -204.5v-122q0 -130 67.5 -204.5t178.5 -74.5zM306 178
q-88 0 -88 102l39 4q0 -77 49 -77q27 0 38.5 21.5t11.5 74.5q0 46 -11.5 65.5t-36.5 19.5q-45 0 -50 -50l-37 3l10 191h153v-31h-121l-6 -120q16 36 63 36q38 0 57 -27t19 -87q0 -66 -21.5 -95.5t-68.5 -29.5z" />
    <glyph glyph-name="uni2465" unicode="&#x2465;" 
d="M310 727q127 0 204.5 -84t77.5 -227v-122q0 -144 -77.5 -227.5t-204.5 -83.5t-205 83.5t-78 227.5v122q0 143 78 227t205 84zM556 294v122q0 129 -68 204t-178 75q-111 0 -178.5 -74.5t-67.5 -204.5v-122q0 -130 67.5 -204.5t178.5 -74.5q110 0 178 75t68 204zM323 414
q39 0 58 -27t19 -90q0 -123 -90 -123q-49 0 -69.5 36.5t-20.5 139.5q0 108 22 147t69 39q85 0 85 -90l-39 -4q0 66 -46 66q-25 0 -37.5 -25.5t-14.5 -102.5q20 34 64 34zM310 203q50 0 50 94q0 47 -11.5 67t-36.5 20q-41 0 -53 -44q1 -82 13 -109.5t38 -27.5z" />
    <glyph glyph-name="uni2466" unicode="&#x2466;" 
d="M310 -17q-127 0 -205 83.5t-78 227.5v122q0 143 78 227t205 84t204.5 -84t77.5 -227v-122q0 -144 -77.5 -227.5t-204.5 -83.5zM310 15q110 0 178 75t68 204v122q0 129 -68 204t-178 75q-111 0 -178.5 -74.5t-67.5 -204.5v-122q0 -130 67.5 -204.5t178.5 -74.5zM221 497
v32h177v-27q-84 -125 -84 -299v-21h-41v10q0 172 87 305h-139z" />
    <glyph glyph-name="uni2467" unicode="&#x2467;" 
d="M310 727q127 0 204.5 -84t77.5 -227v-122q0 -144 -77.5 -227.5t-204.5 -83.5t-205 83.5t-78 227.5v122q0 143 78 227t205 84zM556 294v122q0 129 -68 204t-178 75q-111 0 -178.5 -74.5t-67.5 -204.5v-122q0 -130 67.5 -204.5t178.5 -74.5q110 0 178 75t68 204zM345 367
q28 -10 41.5 -30.5t13.5 -63.5q0 -98 -90 -98q-91 0 -91 98q0 70 54 88q-49 20 -49 90q0 85 85 85t85 -85q0 -67 -49 -84zM309 510q-46 0 -46 -59q0 -37 10 -50.5t33 -20.5l10 -3q20 6 29.5 22t9.5 52q0 59 -46 59zM310 203q49 0 49 70q0 39 -10.5 52.5t-34.5 21.5l-11 4
q-23 -7 -33.5 -24t-10.5 -54q0 -39 13 -54.5t38 -15.5z" />
    <glyph glyph-name="uni2468" unicode="&#x2468;" 
d="M310 727q127 0 204.5 -84t77.5 -227v-122q0 -144 -77.5 -227.5t-204.5 -83.5t-205 83.5t-78 227.5v122q0 143 78 227t205 84zM556 294v122q0 129 -68 204t-178 75q-111 0 -178.5 -74.5t-67.5 -204.5v-122q0 -130 67.5 -204.5t178.5 -74.5q110 0 178 75t68 204zM309 536
q49 0 69.5 -37t20.5 -143q0 -107 -20.5 -144.5t-68.5 -37.5q-85 0 -86 94l39 5q0 -71 48 -71q26 0 36.5 27t11.5 110q-19 -30 -61 -30q-40 0 -59 26t-19 85q0 116 89 116zM309 338q36 0 50 38q-1 80 -12.5 106t-37.5 26t-37.5 -19.5t-11.5 -68.5q0 -44 12 -63t37 -19z" />
    <glyph glyph-name="uni24EA" unicode="&#x24ea;" 
d="M310 -17q-127 0 -205 83.5t-78 227.5v122q0 143 78 227t205 84t204.5 -84t77.5 -227v-122q0 -144 -77.5 -227.5t-204.5 -83.5zM310 15q110 0 178 75t68 204v122q0 129 -68 204t-178 75q-111 0 -178.5 -74.5t-67.5 -204.5v-122q0 -130 67.5 -204.5t178.5 -74.5zM310 174
q-47 0 -70 38.5t-23 143.5t23 143t70 38t70 -38t23 -143t-23 -143.5t-70 -38.5zM310 204q27 0 40 30t13 122q0 91 -13 121t-40 30t-40 -30t-13 -121q0 -92 13 -122t40 -30z" />
    <glyph glyph-name="uni24FF" unicode="&#x24ff;" 
d="M310 -17q-127 0 -205 83.5t-78 227.5v122q0 144 78 227.5t205 83.5t204.5 -83.5t77.5 -227.5v-122q0 -144 -77.5 -227.5t-204.5 -83.5zM310 174q47 0 70 38.5t23 143.5t-23 143t-70 38t-70 -38t-23 -143t23 -143.5t70 -38.5zM310 204q-27 0 -40 30t-13 122q0 91 13 121
t40 30t40 -30t13 -121q0 -92 -13 -122t-40 -30z" />
    <glyph glyph-name="lozenge" unicode="&#x25ca;" 
d="M332 -17h-44l-203 372l202 372h44l204 -372zM309 676l-172 -321l173 -321l174 321z" />
    <glyph glyph-name="circle" unicode="&#x25cb;" 
d="M310 -17q-109 0 -173 74.5t-64 211.5v171q0 137 64 211.5t173 74.5t173 -74.5t64 -211.5v-171q0 -137 -64 -211.5t-173 -74.5zM310 14q93 0 148 65.5t55 189.5v171q0 124 -55 189.5t-148 65.5t-148 -65.5t-55 -189.5v-171q0 -124 55 -189.5t148 -65.5z" />
    <glyph glyph-name="uni2776" unicode="&#x2776;" 
d="M310 -17q-127 0 -205 83.5t-78 227.5v122q0 144 78 227.5t205 83.5t204.5 -83.5t77.5 -227.5v-122q0 -144 -77.5 -227.5t-204.5 -83.5zM215 182h190v35h-74v312h-32q-15 -51 -65 -51h-5v-37h7q41 0 56 27v-251h-77v-35z" />
    <glyph glyph-name="uni2777" unicode="&#x2777;" 
d="M310 -17q-127 0 -205 83.5t-78 227.5v122q0 144 78 227.5t205 83.5t204.5 -83.5t77.5 -227.5v-122q0 -144 -77.5 -227.5t-204.5 -83.5zM218 177h183v30h-139q74 89 104.5 138.5t30.5 102.5q0 83 -86 83q-43 0 -66 -22t-23 -61q0 -18 1 -27l40 -3q-1 10 -1 31q0 52 48 52
q46 0 46 -52t-32 -104.5t-106 -139.5v-28z" />
    <glyph glyph-name="uni2778" unicode="&#x2778;" 
d="M310 -17q-127 0 -205 83.5t-78 227.5v122q0 144 78 227.5t205 83.5t204.5 -83.5t77.5 -227.5v-122q0 -144 -77.5 -227.5t-204.5 -83.5zM309 174q90 0 90 104q0 76 -56 85q52 13 52 85q0 88 -85 88q-43 0 -65.5 -23.5t-22.5 -80.5l40 -5q0 45 12 62.5t36 17.5q45 0 45 -59
q0 -72 -51 -72h-15v-29h16q26 0 39.5 -15.5t13.5 -53.5q0 -41 -12.5 -57.5t-36.5 -16.5t-36 18t-12 64l-40 -3q0 -60 21.5 -84.5t66.5 -24.5z" />
    <glyph glyph-name="uni2779" unicode="&#x2779;" 
d="M310 -17q-127 0 -205 83.5t-78 227.5v122q0 144 78 227.5t205 83.5t204.5 -83.5t77.5 -227.5v-122q0 -144 -77.5 -227.5t-204.5 -83.5zM324 182h38v83h42v30h-42v234h-47l-115 -236v-28h124v-83zM232 295l92 193v-193h-92z" />
    <glyph glyph-name="uni277A" unicode="&#x277a;" 
d="M310 -17q-127 0 -205 83.5t-78 227.5v122q0 144 78 227.5t205 83.5t204.5 -83.5t77.5 -227.5v-122q0 -144 -77.5 -227.5t-204.5 -83.5zM306 178q47 0 68.5 29.5t21.5 95.5q0 60 -19 87t-57 27q-47 0 -63 -36l6 120h121v31h-153l-10 -191l37 -3q5 50 50 50
q25 0 36.5 -19.5t11.5 -65.5q0 -53 -11.5 -74.5t-38.5 -21.5q-49 0 -49 77l-39 -4q0 -102 88 -102z" />
    <glyph glyph-name="uni277B" unicode="&#x277b;" 
d="M310 -17q-127 0 -205 83.5t-78 227.5v122q0 144 78 227.5t205 83.5t204.5 -83.5t77.5 -227.5v-122q0 -144 -77.5 -227.5t-204.5 -83.5zM310 174q90 0 90 123q0 63 -19 90t-58 27q-45 0 -63 -35q1 77 13 103t38 26q46 0 46 -66l39 4q0 90 -85 90q-47 0 -69 -39t-22 -147
q0 -103 20.5 -139.5t69.5 -36.5zM310 203q-26 0 -38 27.5t-13 109.5q14 44 53 44q25 0 36.5 -20t11.5 -67q0 -94 -50 -94z" />
    <glyph glyph-name="uni277C" unicode="&#x277c;" 
d="M310 -17q-127 0 -205 83.5t-78 227.5v122q0 144 78 227.5t205 83.5t204.5 -83.5t77.5 -227.5v-122q0 -144 -77.5 -227.5t-204.5 -83.5zM273 182h41q0 101 18.5 175.5t65.5 144.5v27h-177v-32h139q-87 -133 -87 -315z" />
    <glyph glyph-name="uni277D" unicode="&#x277d;" 
d="M310 -17q-127 0 -205 83.5t-78 227.5v122q0 144 78 227.5t205 83.5t204.5 -83.5t77.5 -227.5v-122q0 -144 -77.5 -227.5t-204.5 -83.5zM310 175q90 0 90 98q0 44 -13.5 64t-41.5 30q25 10 37 28.5t12 55.5q0 85 -85 85t-85 -85q0 -41 12.5 -60.5t37.5 -29.5
q-55 -18 -55 -88q0 -98 91 -98zM314 377l-8 3q-23 7 -33 20.5t-10 50.5q0 59 46 59t46 -59q0 -36 -9.5 -51.5t-31.5 -22.5zM310 203q-25 0 -38 15.5t-13 54.5q0 37 11 54t34 24l10 -4q24 -8 34.5 -21.5t10.5 -52.5q0 -70 -49 -70z" />
    <glyph glyph-name="uni277E" unicode="&#x277e;" 
d="M310 -17q-127 0 -205 83.5t-78 227.5v122q0 144 78 227.5t205 83.5t204.5 -83.5t77.5 -227.5v-122q0 -144 -77.5 -227.5t-204.5 -83.5zM310 174q48 0 68.5 37.5t20.5 144.5q0 106 -20.5 143t-69.5 37q-89 0 -89 -116q0 -59 19 -85t59 -26q42 0 61 30q-1 -83 -11.5 -110
t-36.5 -27q-48 0 -48 71l-39 -5q1 -94 86 -94zM309 338q-25 0 -37 19t-12 63q0 49 11.5 68.5t37.5 19.5t37.5 -26t12.5 -105q-12 -39 -50 -39z" />
    <glyph glyph-name="uniE000" unicode="&#xe000;" 
d="M275 120l-99 -133l-99 133h81v590h422v-35h-386v-555h81z" />
    <glyph glyph-name="g.ss01" 
d="M294 -207q-181 0 -202 143h51q21 -100 151 -100q161 0 161 171v116q-18 -63 -64 -98.5t-110 -35.5q-93 0 -151.5 73t-58.5 191q0 117 59 188t154 71q63 0 108 -33.5t64 -93.5l11 115h38v-489q0 -218 -211 -218zM290 32q73 0 119.5 59t46.5 151v22q0 92 -45 148t-120 56
q-77 0 -122 -58t-45 -157q0 -100 45.5 -160.5t120.5 -60.5z" />
    <glyph glyph-name="gbreve.ss01" 
d="M207 720q3 -49 31 -79.5t72 -30.5t72.5 30.5t31.5 79.5h43q-5 -74 -46 -110t-101 -36t-101.5 36.5t-45.5 109.5h44zM294 -207q-181 0 -202 143h51q21 -100 151 -100q161 0 161 171v116q-18 -63 -64 -98.5t-110 -35.5q-93 0 -151.5 73t-58.5 191q0 117 59 188t154 71
q63 0 108 -33.5t64 -93.5l11 115h38v-489q0 -218 -211 -218zM290 32q73 0 119.5 59t46.5 151v22q0 92 -45 148t-120 56q-77 0 -122 -58t-45 -157q0 -100 45.5 -160.5t120.5 -60.5z" />
    <glyph glyph-name="gcircumflex.ss01" 
d="M445 579h-51l-84 107l-84 -107h-51l110 141h50zM294 -207q-181 0 -202 143h51q21 -100 151 -100q161 0 161 171v116q-18 -63 -64 -98.5t-110 -35.5q-93 0 -151.5 73t-58.5 191q0 117 59 188t154 71q63 0 108 -33.5t64 -93.5l11 115h38v-489q0 -218 -211 -218zM290 32
q73 0 119.5 59t46.5 151v22q0 92 -45 148t-120 56q-77 0 -122 -58t-45 -157q0 -100 45.5 -160.5t120.5 -60.5z" />
    <glyph glyph-name="gcommaaccent.ss01" 
d="M327 748l16 -21q-40 -18 -40 -54h45v-82h-77v57q0 38 12 61.5t44 38.5zM294 -207q-181 0 -202 143h51q21 -100 151 -100q161 0 161 171v116q-18 -63 -64 -98.5t-110 -35.5q-93 0 -151.5 73t-58.5 191q0 117 59 188t154 71q63 0 108 -33.5t64 -93.5l11 115h38v-489
q0 -218 -211 -218zM290 32q73 0 119.5 59t46.5 151v22q0 92 -45 148t-120 56q-77 0 -122 -58t-45 -157q0 -100 45.5 -160.5t120.5 -60.5z" />
    <glyph glyph-name="gdotaccent.ss01" 
d="M348 723v-123h-77v123h77zM294 -207q-181 0 -202 143h51q21 -100 151 -100q161 0 161 171v116q-18 -63 -64 -98.5t-110 -35.5q-93 0 -151.5 73t-58.5 191q0 117 59 188t154 71q63 0 108 -33.5t64 -93.5l11 115h38v-489q0 -218 -211 -218zM290 32q73 0 119.5 59t46.5 151
v22q0 92 -45 148t-120 56q-77 0 -122 -58t-45 -157q0 -100 45.5 -160.5t120.5 -60.5z" />
    <glyph glyph-name="g.sups.ss01" 
d="M313 159q-140 0 -156 105h44q16 -73 112 -73q120 0 120 122v85q-14 -44 -48.5 -69t-84.5 -25q-71 0 -114.5 52.5t-43.5 138.5q0 85 44 137t116 52q50 0 84.5 -24t47.5 -68l7 83h36v-354q0 -162 -164 -162zM311 337q54 0 88.5 41.5t34.5 106.5v18q0 65 -33.5 105.5
t-88.5 40.5q-58 0 -90.5 -41.5t-32.5 -113.5t33 -114.5t89 -42.5z" />
    <glyph glyph-name="a.sups" 
d="M457 440q0 -84 9 -130h-46q-4 45 -5 79q-38 -88 -138 -88q-55 0 -89 28.5t-34 75.5q0 51 37 75.5t106 32.5l115 13q-1 67 -22.5 96t-73.5 29q-99 0 -104 -89h-47q5 58 44.5 90t107.5 32q72 0 106 -37t34 -114v-93zM413 498l-107 -13q-106 -11 -106 -76q0 -34 24 -54.5
t64 -20.5q56 0 90.5 37t34.5 93v34z" />
    <glyph glyph-name="b.sups" 
d="M190 839v-249q13 44 48.5 69t82.5 25q72 0 113 -53t41 -138q0 -87 -41.5 -139.5t-115.5 -52.5q-46 0 -81.5 25t-48.5 67l-5 -83h-38v529h45zM188 484q0 -63 32.5 -105.5t87.5 -42.5q56 0 88 42.5t32 114.5q0 71 -31 113.5t-88 42.5q-55 0 -88 -43t-33 -106v-16z" />
    <glyph glyph-name="c.sups" 
d="M317 301q-82 0 -126 53t-44 139q0 85 44 138t128 53q63 0 104 -34.5t48 -94.5l-44 -6q-6 48 -35 73.5t-77 25.5q-59 0 -90.5 -41.5t-31.5 -111.5q0 -72 32.5 -114.5t91.5 -42.5q48 0 76.5 26.5t35.5 73.5l44 -8q-10 -57 -49.5 -93t-106.5 -36z" />
    <glyph glyph-name="d.sups" 
d="M430 839h45v-529h-43v87q-13 -44 -48.5 -70t-83.5 -26q-72 0 -114 52.5t-42 139.5q0 85 43.5 138t117.5 53q46 0 79 -23.5t46 -67.5v246zM431 500q0 65 -32 107t-86 42q-58 0 -89.5 -42t-31.5 -114t31.5 -114.5t87.5 -42.5q54 0 87 42.5t33 106.5v15z" />
    <glyph glyph-name="e.sups" 
d="M472 502v-14h-279v-3q0 -69 33.5 -108.5t91.5 -39.5q88 1 114 88l38 -13q-15 -51 -54.5 -81t-96.5 -30q-84 0 -128 51.5t-44 144.5q0 85 45 136t121 51q82 0 120.5 -50t38.5 -132zM192 517h234q0 59 -27 97t-86 38q-56 0 -88 -39.5t-33 -95.5z" />
    <glyph glyph-name="f.sups" 
d="M467 675v-34h-148v-331h-45v331h-121v34h121v49q0 117 135 117q37 0 58 -4v-36q-21 3 -54 3q-50 0 -72 -19t-22 -64v-46h148z" />
    <glyph glyph-name="g.sups" 
d="M367 368q58 0 88 -25t30 -69q0 -56 -47 -85.5t-132 -29.5q-82 0 -127 26.5t-45 73.5q0 61 72 78q-53 16 -53 64t55 67q-47 34 -47 94q0 55 39.5 88.5t100.5 33.5q42 0 76 -17q20 59 92 59q5 0 11 -2v-35q-10 2 -16 2q-50 0 -67 -36q45 -34 45 -92q0 -55 -40 -88t-102 -33
q-42 0 -74 15q-34 -14 -34 -44q0 -20 17 -32.5t47 -12.5h111zM301 654q-43 0 -69.5 -25.5t-26.5 -66.5t26.5 -65.5t68.5 -24.5q43 0 70.5 25t27.5 65q0 41 -27 66.5t-70 25.5zM310 190q131 0 131 78q0 62 -82 62l-111 1q-12 0 -18 1q-54 -16 -54 -65q0 -37 34.5 -57
t99.5 -20z" />
    <glyph glyph-name="h.sups" 
d="M201 589q30 95 130 95q58 0 93 -32q40 -35 40 -120v-222h-45v220q0 116 -103 116q-54 0 -84.5 -41t-30.5 -97v-198h-45v529h45v-250z" />
    <glyph glyph-name="i.sups" 
d="M334 838v-96h-63v96h63zM156 310v35h128v295h-119v35h163v-330h135v-35h-307z" />
    <glyph glyph-name="j.sups" 
d="M423 838v-96h-62v96h62zM197 178v36q52 -13 82 -13q93 0 93 91v348h-145v35h190v-388q0 -58 -33.5 -90.5t-95.5 -32.5q-54 0 -91 14z" />
    <glyph glyph-name="k.sups" 
d="M417 310l-132 203l-90 -86v-117h-44v529h44v-366l209 202h55l-141 -137l151 -228h-52z" />
    <glyph glyph-name="l.sups" 
d="M156 310v35h125v459h-117v35h163v-494h136v-35h-307z" />
    <glyph glyph-name="m.sups" 
d="M157 601q19 83 86 83q33 0 53.5 -19.5t25.5 -52.5q24 72 92 72q40 0 63.5 -29.5t23.5 -90.5v-254h-41v249q0 90 -59 90q-35 0 -53.5 -27t-18.5 -61v-251h-39v246q0 93 -59 93q-37 0 -54.5 -36t-17.5 -79v-224h-41v365h39v-74z" />
    <glyph glyph-name="n.sups" 
d="M199 588q33 96 134 96q57 0 91 -31q40 -38 40 -121v-222h-45v220q0 116 -100 116q-57 0 -87.5 -41t-30.5 -97v-198h-45v365h43v-87z" />
    <glyph glyph-name="o.sups" 
d="M310 301q-77 0 -124.5 52t-47.5 140t47.5 139.5t124.5 51.5t124.5 -51.5t47.5 -139.5q0 -89 -47 -140.5t-125 -51.5zM310 337q57 0 91 41.5t34 114.5q0 72 -34 113.5t-91 41.5q-58 0 -92 -41.5t-34 -113.5q0 -73 34 -114.5t92 -41.5z" />
    <glyph glyph-name="p.sups" 
d="M188 675v-87q14 42 50.5 69t81.5 27q73 0 114 -53t41 -138q0 -87 -42 -139.5t-116 -52.5q-44 0 -79.5 24.5t-47.5 64.5v-222h-45v507h43zM188 486q0 -65 32.5 -107.5t87.5 -42.5q56 0 88 42.5t32 114.5t-30.5 114t-87.5 42q-55 0 -88.5 -44t-33.5 -106v-13z" />
    <glyph glyph-name="q.sups" 
d="M436 675h39v-507h-45v227q-13 -43 -49.5 -68.5t-82.5 -25.5q-72 0 -113 52.5t-41 139.5q0 85 42.5 138t115.5 53q46 0 81 -24t47 -65zM431 501q0 64 -33 106t-87 42q-57 0 -88 -42.5t-31 -113.5q0 -72 30.5 -114.5t85.5 -42.5q56 0 89.5 42t33.5 105v18z" />
    <glyph glyph-name="r.sups" 
d="M215 543q22 71 71 105t103 34q38 0 60 -10v-39q-28 10 -63 10q-70 0 -120 -55t-50 -142v-136h-45v365h44v-132z" />
    <glyph glyph-name="s.sups" 
d="M319 301q-135 0 -158 116l36 14q16 -96 124 -96q46 0 70.5 18.5t24.5 52.5q0 31 -18.5 47t-60.5 22l-57 9q-104 15 -104 98q0 48 36.5 75t100.5 27q60 0 97.5 -26.5t45.5 -79.5l-34 -15q-16 88 -111 88q-44 0 -68.5 -18t-24.5 -49q0 -28 18 -43t57 -22l62 -9
q103 -16 103 -100q0 -52 -37 -80.5t-102 -28.5z" />
    <glyph glyph-name="t.sups" 
d="M158 642v33h110v97l43 18v-115h150v-33h-150v-219q0 -41 25 -61t67 -20q31 0 58 4v-35q-33 -7 -67 -7q-58 0 -92 29.5t-34 83.5v225h-110z" />
    <glyph glyph-name="u.sups" 
d="M418 389q-13 -38 -48 -63t-82 -25q-59 0 -92 32q-39 36 -39 114v228h46v-225q0 -113 99 -113q54 0 84.5 40.5t30.5 91.5v206h45v-365h-44v79z" />
    <glyph glyph-name="v.sups" 
d="M285 310l-157 365h49l114 -275q7 -16 19 -49h2q3 8 9.5 24t9.5 25l114 275h46l-154 -365h-52z" />
    <glyph glyph-name="w.sups" 
d="M101 675h42l60 -273q7 -37 8 -48h3q7 38 10 49l66 272h40l66 -272q5 -21 9 -49h3l9 48l59 273h43l-86 -365h-47l-67 274q-2 10 -8 44h-2q-2 -6 -5 -22t-4 -22l-67 -274h-46z" />
    <glyph glyph-name="x.sups" 
d="M309 471l-120 -161h-49l143 192l-134 173h52l110 -146l108 146h50l-132 -175l143 -190h-52z" />
    <glyph glyph-name="y.sups" 
d="M192 675l124 -322l116 322h46l-146 -387q-26 -67 -59 -96t-85 -29q-20 0 -34 5v36q14 -5 33 -5q67 0 97 86l9 24l-151 366h50z" />
    <glyph glyph-name="z.sups" 
d="M163 341l231 299h-221v35h274v-30l-230 -300h239v-35h-293v31z" />
    <glyph glyph-name="nine.001" horiz-adv-x="300" 
d="M144 412q58 0 92 -50.5t34 -155.5q0 -101 -32 -158t-94 -57q-45 0 -72.5 27.5t-33.5 78.5l43 7q12 -76 66 -76q38 0 59 45.5t21 120.5v12q-29 -59 -90 -59q-49 0 -78 36.5t-29 95.5q0 58 30.5 95.5t83.5 37.5zM147 182q27 0 47.5 21t30.5 57q-5 53 -25 84.5t-55 31.5
q-32 0 -51 -26.5t-19 -69.5q0 -44 20 -71t52 -27z" />
    <glyph glyph-name="zero.case" 
d="M310 727q242 0 242 -372q0 -370 -242 -370t-242 370q0 372 242 372zM310 681q-92 0 -141 -77t-49 -249q0 -117 25 -194l313 431q-47 89 -148 89zM310 31q190 0 190 324q0 117 -24 195l-313 -431q47 -88 147 -88z" />
    <glyph glyph-name="one.case" 
d="M349 47h184v-47h-430v47h196v573q-18 -27 -72.5 -49.5t-91.5 -22.5h-27v47h19q52 0 110.5 35.5t69.5 80.5h42v-664z" />
    <glyph glyph-name="two.case" 
d="M81 45q194 171 270 258q59 66 82.5 114.5t23.5 110.5q0 68 -38.5 111.5t-116.5 43.5q-64 0 -111.5 -39.5t-48.5 -121.5q0 -24 6 -56l-51 3q-7 27 -7 54q-1 96 61.5 150t150.5 54q98 0 152.5 -53.5t54.5 -142.5q0 -68 -25 -122t-95 -134q-60 -73 -238 -228h379v-47h-449
v45z" />
    <glyph glyph-name="three.case" 
d="M264 392h45q57 0 102.5 35.5t45.5 106.5t-42.5 109.5t-112.5 38.5q-76 0 -118.5 -51t-42.5 -137l-49 9q0 101 56.5 162.5t157.5 61.5q90 0 146.5 -50.5t56.5 -142.5q0 -60 -36.5 -103.5t-91.5 -54.5q69 -8 110.5 -56.5t41.5 -121.5q0 -99 -63.5 -156t-164.5 -57
q-99 0 -159.5 61t-63.5 156l51 5q2 -78 48.5 -127.5t123.5 -49.5q78 0 127 41.5t49 125.5q0 24 -7 48t-24 48t-51 39t-82 15h-53v45z" />
    <glyph glyph-name="four.case" 
d="M569 194h-125v-194h-50v194h-340v38l336 479h54v-475h125v-42zM394 236v408q-9 -15 -28 -43.5t-24 -36.5l-183 -256q-1 -2 -20.5 -30.5t-29.5 -41.5h285z" />
    <glyph glyph-name="five.case" 
d="M506 710v-46h-332l-31 -311q51 121 184 121q96 0 153 -65t57 -173q0 -112 -61 -181.5t-165 -69.5q-88 0 -149.5 47.5t-74.5 131.5l53 5q12 -63 58 -101t114 -38q78 0 125.5 54.5t47.5 151.5q0 83 -41.5 138t-124.5 55q-74 0 -116.5 -42.5t-54.5 -98.5l-53 6l38 416h373z
" />
    <glyph glyph-name="six.case" 
d="M330 474q99 0 159 -66.5t60 -175.5q0 -110 -63 -178.5t-163 -68.5q-248 0 -248 362q0 182 65.5 281t184.5 99q87 0 141 -47t70 -137l-53 -9q-27 149 -159 149q-97 0 -148.5 -88t-49.5 -251v-22q20 71 74.5 111.5t129.5 40.5zM324 29q78 0 125 55.5t47 147.5
q0 91 -47 144.5t-127 53.5q-75 0 -125.5 -50.5t-64.5 -137.5q14 -102 64 -157.5t128 -55.5z" />
    <glyph glyph-name="seven.case" 
d="M90 664v47h440v-45q-110 -121 -176.5 -294t-69.5 -372h-57q4 182 70.5 358.5t177.5 305.5h-385z" />
    <glyph glyph-name="eight.case" 
d="M375 381q91 -27 132 -76t41 -129q0 -89 -63.5 -140.5t-172.5 -51.5q-112 0 -176 51t-64 141q0 155 166 198q-76 25 -110 68t-34 112q0 78 59 125.5t156 47.5q98 0 156.5 -46.5t58.5 -125.5q0 -137 -149 -174zM146 554q0 -58 32.5 -93.5t105.5 -54.5l37 -10q85 26 118 60
t33 96t-44 98t-120 36q-74 0 -118 -36t-44 -96zM312 27q88 0 136 39t48 110q0 66 -35.5 106t-113.5 61l-55 16q-86 -25 -127 -68t-41 -109q0 -72 50 -113.5t138 -41.5z" />
    <glyph glyph-name="nine.case" 
d="M305 727q248 0 248 -360q0 -176 -60 -279t-188 -103q-90 0 -145 49.5t-69 141.5l53 10q22 -157 162 -157q195 0 195 337v29v13q-22 -69 -76 -104t-125 -35q-98 0 -159.5 61.5t-61.5 168.5q0 98 61.5 163t164.5 65zM305 313q72 0 125 47.5t65 125.5q-29 197 -191 197
q-79 0 -126 -51t-47 -132q0 -86 48 -136.5t126 -50.5z" />
    <glyph glyph-name="zero.osf" 
d="M310 551q118 0 185.5 -78.5t67.5 -206.5q0 -127 -67.5 -204t-185.5 -77t-185.5 77.5t-67.5 205.5q0 127 67.5 205t185.5 78zM310 505q-95 0 -148.5 -65t-53.5 -172q0 -93 40 -155l301 337q-53 55 -139 55zM310 29q95 0 148.5 64.5t53.5 171.5q0 92 -39 154l-301 -336
q52 -54 138 -54z" />
    <glyph glyph-name="one.osf" 
d="M362 45h184v-45h-430v45h196v400q-17 -28 -63.5 -49t-83.5 -21h-32v47h24q49 0 100.5 34t63.5 79h41v-490z" />
    <glyph glyph-name="two.osf" 
d="M82 0v35q137 78 238 152q69 50 99.5 93.5t30.5 97.5q0 58 -37.5 93t-100.5 35q-71 0 -112.5 -41.5t-41.5 -113.5q0 -18 2 -24l-53 5q-1 7 -1 19q0 91 56 145t149 54q88 0 139.5 -46t51.5 -123q0 -96 -93 -178q-71 -64 -239 -158h365v-45h-453z" />
    <glyph glyph-name="three.osf" 
d="M310 -165q-102 0 -164 55t-65 148l52 6q3 -77 50.5 -121t128.5 -44q79 0 126 43.5t47 113.5q0 69 -45 110t-123 41h-54v44h46q69 0 110.5 38t41.5 98q0 64 -40.5 101.5t-110.5 37.5q-79 0 -124 -47.5t-45 -130.5l-50 8q0 98 60.5 156t161.5 58q93 0 146.5 -49.5
t53.5 -133.5q0 -57 -36.5 -99.5t-92.5 -52.5q70 -8 111.5 -56t41.5 -122q0 -89 -62 -145.5t-165 -56.5z" />
    <glyph glyph-name="four.osf" 
d="M399 -150v194h-345v38l339 453h56v-449h125v-42h-125v-194h-50zM107 86h292v262q0 86 1 131h-2q-50 -75 -85 -120l-122 -167q-9 -11 -38 -48.5t-46 -57.5z" />
    <glyph glyph-name="five.osf" 
d="M306 -165q-88 0 -147 49t-72 134l53 6q11 -66 55 -105t112 -39q81 0 127.5 53.5t46.5 145.5q0 84 -42.5 139t-118.5 55q-67 1 -113 -38.5t-59 -96.5l-51 6l39 391h378v-46h-337l-30 -282q55 110 181 110q96 0 151 -64t55 -171q0 -108 -61.5 -177.5t-166.5 -69.5z" />
    <glyph glyph-name="six.osf" 
d="M325 464q95 0 153 -65.5t58 -174.5q0 -104 -59 -171.5t-158 -67.5q-244 0 -244 352q0 175 62.5 274t182.5 99q173 0 204 -177l-52 -9q-26 142 -153 142q-96 0 -145.5 -88.5t-47.5 -243.5v-20q20 72 74.5 111t124.5 39zM320 29q75 0 119.5 54t44.5 141q0 90 -45.5 143
t-121.5 53q-72 0 -121.5 -48.5t-63.5 -136.5q14 -95 61.5 -150.5t126.5 -55.5z" />
    <glyph glyph-name="seven.osf" 
d="M227 -150v8q0 171 63 331.5t182 297.5h-382v48h440v-43q-120 -131 -183 -293t-63 -337v-12h-57z" />
    <glyph glyph-name="eight.osf" 
d="M372 371q83 -25 124.5 -69.5t41.5 -125.5q0 -89 -60.5 -140t-165.5 -51q-108 0 -169 50.5t-61 140.5q0 148 158 189q-68 23 -102 63t-34 109q0 78 56.5 125.5t148.5 47.5q94 0 149.5 -46.5t55.5 -125.5q0 -132 -142 -167zM156 537q0 -57 32 -89.5t96 -51.5l37 -10
q80 25 110.5 57.5t30.5 91.5q0 62 -41.5 98t-112.5 36q-69 0 -110.5 -36t-41.5 -96zM312 28q83 0 128.5 39t45.5 110q0 66 -35 101.5t-104 55.5l-55 16q-158 -46 -158 -167q0 -72 47 -113.5t131 -41.5z" />
    <glyph glyph-name="nine.osf" 
d="M297 550q243 0 243 -353q0 -165 -59 -263.5t-180 -98.5q-179 0 -210 181l52 10q26 -147 159 -147q94 0 140 85.5t46 231.5v29v16q-22 -70 -74.5 -105.5t-120.5 -35.5q-95 0 -155 60.5t-60 164.5q0 97 59.5 161t159.5 64zM298 144q68 0 119 46t64 124q-13 87 -58 139.5
t-127 52.5q-75 0 -120 -50.5t-45 -129.5q0 -84 46 -133t121 -49z" />
    <glyph glyph-name="zero.subs" 
d="M310 378q185 0 185 -265q0 -136 -45 -200t-140 -64q-92 0 -139 67.5t-47 197.5q0 264 186 264zM310 340q-138 0 -138 -226q0 -86 19 -137l227 298q-33 65 -108 65zM310 -113q71 0 104 54t33 172q0 80 -17 134l-228 -297q34 -63 108 -63z" />
    <glyph glyph-name="one.subs" 
d="M337 -102h140v-38h-334v38h148v400q-14 -19 -55 -35.5t-70 -16.5h-18v41h13q39 0 83 24t54 56h39v-469z" />
    <glyph glyph-name="two.subs" 
d="M136 -102q144 113 210 184q73 77 73 148q0 52 -30 81t-84 29t-85 -29t-31 -81q0 -20 5 -40l-47 4q-5 25 -5 38q0 67 44.5 106.5t118.5 39.5q76 0 118.5 -38t42.5 -107q0 -81 -81 -167q-69 -74 -188 -166h286v-40h-347v38z" />
    <glyph glyph-name="three.subs" 
d="M274 140h35q44 0 76.5 25.5t32.5 72.5q0 50 -30 76.5t-80 26.5q-57 0 -88 -35t-30 -93l-46 5q-1 73 43 116.5t123 43.5q70 0 112.5 -35.5t42.5 -100.5q0 -45 -27 -76.5t-72 -38.5q52 -5 84 -39.5t32 -88.5q0 -69 -46.5 -109.5t-125.5 -40.5q-78 0 -124.5 43t-48.5 114
l48 4q1 -54 34.5 -88.5t90.5 -34.5t90.5 28.5t33.5 84.5q0 44 -28 74.5t-91 30.5h-41v35z" />
    <glyph glyph-name="four.subs" 
d="M508 -4h-93v-136h-44v136h-259v33l253 338h50v-335h93v-36zM371 32v286q-13 -23 -35 -51l-147 -192q-27 -33 -36 -43h218z" />
    <glyph glyph-name="five.subs" 
d="M459 367v-38h-252l-22 -215q41 85 140 85q73 0 116 -46t43 -123q0 -83 -47.5 -132t-129.5 -49q-70 0 -116 35t-56 95l47 6q8 -46 41.5 -72t84.5 -26q61 0 95.5 38t34.5 103q0 62 -32.5 97.5t-90.5 35.5q-47 0 -82 -26.5t-45 -69.5l-44 4l29 298h286z" />
    <glyph glyph-name="six.subs" 
d="M329 200q71 0 114.5 -47.5t43.5 -127.5q0 -76 -45 -126t-121 -50q-90 0 -139.5 63.5t-49.5 194.5q0 126 48.5 198.5t139.5 72.5q135 0 157 -131l-46 -7q-19 101 -112 101q-69 0 -105 -62t-36 -167v-19v-8q14 56 55.5 85.5t95.5 29.5zM321 -113q55 0 87.5 38t32.5 99
q0 64 -33.5 101t-88.5 37q-53 0 -90 -34t-47 -96q24 -145 139 -145z" />
    <glyph glyph-name="seven.subs" 
d="M142 328v39h336v-39q-82 -85 -131.5 -206t-50.5 -262h-52v2q1 130 50.5 252t136.5 214h-289z" />
    <glyph glyph-name="eight.subs" 
d="M359 133q63 -17 95.5 -49t32.5 -95q0 -65 -47 -102.5t-129 -37.5q-85 0 -131.5 37t-46.5 103q0 104 121 134q-52 16 -79 45.5t-27 81.5q0 58 44 93t116 35q73 0 116.5 -33.5t43.5 -91.5q0 -94 -109 -120zM194 249q0 -40 25 -63t73 -36l28 -7q58 16 80.5 39.5t22.5 65.5
q0 44 -31 70t-84 26q-52 0 -83 -26t-31 -69zM311 -114q61 0 95 27.5t34 77.5q0 48 -27 73.5t-79 38.5l-39 10q-116 -32 -116 -118q0 -51 35 -80t97 -29z" />
    <glyph glyph-name="nine.subs" 
d="M299 378q189 0 189 -258q0 -125 -46 -198t-139 -73q-138 0 -161 133l46 7q19 -102 116 -102q68 0 103 61t35 164v28v18q-14 -54 -54 -82t-92 -28q-73 0 -118.5 44.5t-45.5 120.5q0 72 45 118.5t122 46.5zM302 85q50 0 87 32t48 88q-23 136 -138 136q-55 0 -88 -35.5
t-33 -91.5q0 -59 34.5 -94t89.5 -35z" />
    <glyph glyph-name="zero.dnom" 
d="M310 383q71 0 107.5 -50t36.5 -147q0 -100 -35 -147t-109 -47q-145 0 -145 195q0 196 145 196zM310 351q-102 0 -102 -164q0 -61 13 -97l169 211q-24 50 -80 50zM310 23q52 0 76 38.5t24 124.5q0 58 -12 94l-168 -211q25 -46 80 -46z" />
    <glyph glyph-name="one.dnom" 
d="M334 31h108v-31h-264v31h114v289q-12 -15 -43.5 -27t-54.5 -12h-11v36h8q31 0 65 17t43 40h35v-343z" />
    <glyph glyph-name="two.dnom" 
d="M174 32q57 43 84.5 64.5t64 55t51.5 61t15 55.5q0 80 -83 80q-41 0 -63.5 -20t-22.5 -57q0 -13 3 -28l-42 3q-3 16 -3 26q0 50 35 80.5t93 30.5q60 0 93 -29.5t33 -82.5q0 -57 -53 -113t-149 -125h216v-33h-272v32z" />
    <glyph glyph-name="three.dnom" 
d="M281 207h27q33 0 57 17.5t24 52.5t-22.5 53.5t-59.5 18.5q-41 0 -63.5 -24.5t-21.5 -65.5l-43 4q-1 55 33.5 87.5t96.5 32.5q56 0 89.5 -27t33.5 -75q0 -35 -21 -58.5t-57 -28.5q41 -2 65.5 -27.5t24.5 -65.5q0 -50 -36.5 -79.5t-97.5 -29.5t-97 32t-38 85l44 3
q1 -38 25.5 -63t65.5 -25q40 0 65 20t25 59q0 31 -20.5 53t-67.5 22h-31v29z" />
    <glyph glyph-name="four.dnom" 
d="M466 97h-70v-97h-40v97h-202v31l196 246h46v-245h70v-32zM356 129v208l-168 -208h168z" />
    <glyph glyph-name="five.dnom" 
d="M427 374v-34h-193l-16 -152q32 63 107 63q56 0 88.5 -33.5t32.5 -91.5q0 -63 -37.5 -98.5t-100.5 -35.5q-55 0 -91.5 27t-43.5 72l40 4q7 -32 32.5 -51.5t62.5 -19.5q45 0 71.5 27t26.5 74q0 44 -24.5 69t-67.5 25q-36 0 -61.5 -18.5t-33.5 -50.5l-37 4l22 220h223z" />
    <glyph glyph-name="six.dnom" 
d="M327 252q55 0 88 -35t33 -94q0 -57 -34.5 -94t-94.5 -37q-70 0 -109 47t-39 144q0 92 37.5 146t108.5 54q107 0 123 -100l-40 -4q-14 71 -84 71q-51 0 -78 -43t-27 -114v-17v-13q9 43 41.5 66t74.5 23zM318 24q42 0 66 27.5t24 69.5q0 46 -24.5 73t-65.5 27
q-39 0 -67.5 -25t-35.5 -69q17 -103 103 -103z" />
    <glyph glyph-name="seven.dnom" 
d="M180 339v35h260v-35q-61 -60 -98 -148t-38 -191h-46v2q-1 94 37.5 183t104.5 154h-220z" />
    <glyph glyph-name="eight.dnom" 
d="M347 204q50 -12 76.5 -35.5t26.5 -72.5t-37.5 -76.5t-103.5 -27.5q-67 0 -103.5 27t-36.5 75q0 75 95 97q-40 10 -62 31.5t-22 63.5q0 43 35 70t92 27q58 0 93 -25t35 -67q0 -69 -88 -87zM221 285q0 -30 19.5 -45.5t57.5 -24.5l23 -5q41 10 57.5 27t16.5 47
q0 32 -23.5 50.5t-64.5 18.5q-39 0 -62.5 -18.5t-23.5 -49.5zM310 24q46 0 71.5 19.5t25.5 53.5q0 36 -21 53.5t-62 26.5l-29 7q-84 -24 -84 -84q0 -36 25.5 -56t73.5 -20z" />
    <glyph glyph-name="nine.dnom" 
d="M302 383q69 0 108 -47t39 -145q0 -93 -37 -146t-109 -53q-108 0 -123 98l40 7q14 -72 85 -72q50 0 77 42t27 113v26v17q-10 -42 -41 -64.5t-71 -22.5q-57 0 -91.5 34t-34.5 89q0 54 34.5 89t96.5 35zM304 168q38 0 65.5 23t35.5 65q-19 95 -102 95q-42 0 -66.5 -25.5
t-24.5 -65.5q0 -42 25.5 -67t66.5 -25z" />
    <glyph glyph-name="zero.numr" 
d="M310 718q71 0 107.5 -50t36.5 -147q0 -100 -35 -147t-109 -47q-145 0 -145 195q0 196 145 196zM310 686q-102 0 -102 -164q0 -61 13 -97l169 211q-24 50 -80 50zM310 358q52 0 76 38.5t24 124.5q0 58 -12 94l-168 -211q25 -46 80 -46z" />
    <glyph glyph-name="one.numr" 
d="M334 366h108v-31h-264v31h114v289q-12 -15 -43.5 -27t-54.5 -12h-11v36h8q31 0 65 17t43 40h35v-343z" />
    <glyph glyph-name="two.numr" 
d="M174 367q57 43 84.5 64.5t64 55t51.5 61t15 55.5q0 80 -83 80q-41 0 -63.5 -20t-22.5 -57q0 -13 3 -28l-42 3q-3 16 -3 26q0 50 35 80.5t93 30.5q60 0 93 -29.5t33 -82.5q0 -57 -53 -113t-149 -125h216v-33h-272v32z" />
    <glyph glyph-name="three.numr" 
d="M281 542h27q33 0 57 17.5t24 52.5t-22.5 53.5t-59.5 18.5q-41 0 -63.5 -24.5t-21.5 -65.5l-43 4q-1 55 33.5 87.5t96.5 32.5q56 0 89.5 -27t33.5 -75q0 -35 -21 -58.5t-57 -28.5q41 -2 65.5 -27.5t24.5 -65.5q0 -50 -36.5 -79.5t-97.5 -29.5t-97 32t-38 85l44 3
q1 -38 25.5 -63t65.5 -25q40 0 65 20t25 59q0 31 -20.5 53t-67.5 22h-31v29z" />
    <glyph glyph-name="four.numr" 
d="M466 432h-70v-97h-40v97h-202v31l196 246h46v-245h70v-32zM356 464v208l-168 -208h168z" />
    <glyph glyph-name="five.numr" 
d="M427 709v-34h-193l-16 -152q32 63 107 63q56 0 88.5 -33.5t32.5 -91.5q0 -63 -37.5 -98.5t-100.5 -35.5q-55 0 -91.5 27t-43.5 72l40 4q7 -32 32.5 -51.5t62.5 -19.5q45 0 71.5 27t26.5 74q0 44 -24.5 69t-67.5 25q-36 0 -61.5 -18.5t-33.5 -50.5l-37 4l22 220h223z" />
    <glyph glyph-name="six.numr" 
d="M327 587q55 0 88 -35t33 -94q0 -57 -34.5 -94t-94.5 -37q-70 0 -109 47t-39 144q0 92 37.5 146t108.5 54q107 0 123 -100l-40 -4q-14 71 -84 71q-51 0 -78 -43t-27 -114v-17v-13q9 43 41.5 66t74.5 23zM318 359q42 0 66 27.5t24 69.5q0 46 -24.5 73t-65.5 27
q-39 0 -67.5 -25t-35.5 -69q17 -103 103 -103z" />
    <glyph glyph-name="seven.numr" 
d="M180 674v35h260v-35q-61 -60 -98 -148t-38 -191h-46v2q-1 94 37.5 183t104.5 154h-220z" />
    <glyph glyph-name="eight.numr" 
d="M347 539q50 -12 76.5 -35.5t26.5 -72.5t-37.5 -76.5t-103.5 -27.5q-67 0 -103.5 27t-36.5 75q0 75 95 97q-40 10 -62 32t-22 63q0 43 35 70t92 27q58 0 93 -25t35 -67q0 -69 -88 -87zM221 620q0 -30 19.5 -45.5t57.5 -24.5l23 -5q41 10 57.5 27t16.5 47q0 32 -23.5 50.5
t-64.5 18.5q-39 0 -62.5 -18.5t-23.5 -49.5zM310 359q46 0 71.5 19.5t25.5 53.5q0 36 -21 53.5t-62 26.5l-29 7q-84 -24 -84 -84q0 -36 25.5 -56t73.5 -20z" />
    <glyph glyph-name="nine.numr" 
d="M302 718q69 0 108 -47t39 -145q0 -93 -37 -146t-109 -53q-108 0 -123 98l40 7q14 -72 85 -72q50 0 77 42t27 113v26v17q-10 -42 -41 -64.5t-71 -22.5q-57 0 -91.5 34t-34.5 89q0 54 34.5 89t96.5 35zM304 503q38 0 65.5 23t35.5 65q-19 95 -102 95q-42 0 -66.5 -25.5
t-24.5 -65.5q0 -42 25.5 -67t66.5 -25z" />
    <glyph glyph-name="zero.sups" 
d="M310 828q185 0 185 -265q0 -136 -45 -200t-140 -64q-92 0 -139 67.5t-47 197.5q0 264 186 264zM310 790q-138 0 -138 -226q0 -86 19 -137l227 298q-33 65 -108 65zM310 337q71 0 104 54t33 172q0 80 -17 134l-228 -297q34 -63 108 -63z" />
    <glyph glyph-name="one.sups" 
d="M337 348h140v-38h-334v38h148v400q-14 -19 -55 -35.5t-70 -16.5h-18v41h13q39 0 83 24t54 56h39v-469z" />
    <glyph glyph-name="two.sups" 
d="M136 348q144 113 210 184q73 77 73 148q0 52 -30 81t-84 29t-85 -29t-31 -81q0 -20 5 -40l-47 4q-5 25 -5 38q0 67 44.5 106.5t118.5 39.5q76 0 118.5 -38t42.5 -107q0 -81 -81 -167q-69 -74 -188 -166h286v-40h-347v38z" />
    <glyph glyph-name="three.sups" 
d="M274 590h35q44 0 76.5 25.5t32.5 72.5q0 50 -30 76.5t-80 26.5q-57 0 -88 -35t-30 -93l-46 5q-1 73 43 116.5t123 43.5q70 0 112.5 -35.5t42.5 -100.5q0 -45 -27 -76.5t-72 -38.5q52 -5 84 -39.5t32 -88.5q0 -69 -46.5 -109.5t-125.5 -40.5q-78 0 -124.5 43t-48.5 114
l48 4q1 -54 34.5 -88.5t90.5 -34.5t90.5 28.5t33.5 84.5q0 44 -28 74.5t-91 30.5h-41v35z" />
    <glyph glyph-name="four.sups" 
d="M508 446h-93v-136h-44v136h-259v33l253 338h50v-335h93v-36zM371 482v286q-13 -23 -35 -51l-147 -192q-27 -33 -36 -43h218z" />
    <glyph glyph-name="five.sups" 
d="M459 817v-38h-252l-22 -215q41 85 140 85q73 0 116 -46t43 -123q0 -83 -47.5 -132t-129.5 -49q-70 0 -116 35t-56 95l47 6q8 -46 41.5 -72t84.5 -26q61 0 95.5 38t34.5 103q0 62 -32.5 97.5t-90.5 35.5q-47 0 -82 -26.5t-45 -69.5l-44 4l29 298h286z" />
    <glyph glyph-name="six.sups" 
d="M329 650q71 0 114.5 -47.5t43.5 -127.5q0 -76 -45 -126t-121 -50q-90 0 -139.5 63.5t-49.5 194.5q0 126 48.5 198.5t139.5 72.5q135 0 157 -131l-46 -7q-19 101 -112 101q-69 0 -105 -62t-36 -167v-19v-8q14 56 55.5 85.5t95.5 29.5zM321 337q55 0 87.5 38t32.5 99
q0 64 -33.5 101t-88.5 37q-53 0 -90 -34t-47 -96q24 -145 139 -145z" />
    <glyph glyph-name="seven.sups" 
d="M142 778v39h336v-39q-82 -85 -131.5 -206t-50.5 -262h-52v2q1 130 50.5 252t136.5 214h-289z" />
    <glyph glyph-name="eight.sups" 
d="M359 583q63 -17 95.5 -49t32.5 -95q0 -65 -47 -102.5t-129 -37.5q-85 0 -131.5 37t-46.5 103q0 104 121 134q-52 16 -79 45.5t-27 81.5q0 58 44 93t116 35q73 0 116.5 -33.5t43.5 -91.5q0 -94 -109 -120zM194 699q0 -40 25 -63t73 -36l28 -7q58 16 80.5 39.5t22.5 65.5
q0 44 -31 70t-84 26q-52 0 -83 -26t-31 -69zM311 336q61 0 95 27.5t34 77.5q0 48 -27 73.5t-79 38.5l-39 10q-116 -32 -116 -118q0 -51 35 -80t97 -29z" />
    <glyph glyph-name="nine.sups" 
d="M299 828q189 0 189 -258q0 -125 -46 -198t-139 -73q-138 0 -161 133l46 7q19 -102 116 -102q68 0 103 61t35 164v28v18q-14 -54 -54 -82t-92 -28q-73 0 -118.5 44.5t-45.5 120.5q0 72 45 118.5t122 46.5zM302 535q50 0 87 32t48 88q-23 136 -138 136q-55 0 -88 -35.5
t-33 -91.5q0 -59 34.5 -94t89.5 -35z" />
    <glyph glyph-name="backslash.case" 
d="M408 -25l-244 760h47l244 -760h-47z" />
    <glyph glyph-name="bullet.case" 
d="M310 422q30 0 48 -18t18 -48t-18 -48t-48 -18t-48.5 18t-18.5 48t18.5 48t48.5 18z" />
    <glyph glyph-name="colon.case" 
d="M364 545v-114h-109v114h109zM364 114v-114h-109v114h109z" />
    <glyph glyph-name="exclamdown.case" 
d="M359 596h-100v114h100v-114zM288 532h42l8 -532h-58z" />
    <glyph glyph-name="questiondown.case" 
d="M266 596v114h99v-114h-99zM512 210q2 -12 2 -24q0 -95 -54.5 -149t-154.5 -54q-90 0 -144.5 48.5t-54.5 132.5q0 47 23.5 87t65.5 87l45 49q53 56 53 135v10h51v-25q0 -75 -65 -146l-45 -49q-72 -78 -72 -147q0 -63 40 -100t103 -37q74 0 115 40t41 122q0 13 -2 25z" />
    <glyph glyph-name="semicolon.case" 
d="M364 545v-114h-109v114h109zM277 -125l-16 30q35 15 50 36t15 59h-71v114h109v-114q0 -92 -87 -125z" />
    <glyph glyph-name="slash.case" 
d="M211 -25h-47l244 760h47z" />
    <glyph glyph-name="underscore.case" 
d="M0 -18h620v-42h-620v42z" />
    <glyph glyph-name="asterisk.ss04" 
d="M310 710l-31 -93h-97l79 -57l-30 -93l79 57l79 -57l-31 93l79 57h-97z" />
    <glyph glyph-name="braceleft.case" 
d="M408 -65q-74 0 -122 36t-48 107v162q0 45 -14.5 65.5t-64.5 21.5v48q51 0 64.5 18.5t13.5 65.5v163q0 71 48 107t122 36h67v-41h-67q-55 0 -89.5 -27t-34.5 -88v-150q0 -44 -12 -70.5t-46 -36.5q58 -21 58 -112v-148q0 -61 35 -88t90 -27h67v-42h-67z" />
    <glyph glyph-name="braceright.case" 
d="M212 -65h-67v42h67q55 0 90 27t35 88v148q0 91 58 112q-34 10 -46 36.5t-12 70.5v150q0 61 -34.5 88t-89.5 27h-67v41h67q74 0 122 -36t48 -107v-163q0 -47 13.5 -65.5t64.5 -18.5v-48q-50 -1 -64.5 -21.5t-14.5 -65.5v-162q0 -71 -48 -107t-122 -36z" />
    <glyph glyph-name="bracketleft.case" 
d="M222 -65v830h246v-41h-200v-747h200v-42h-246z" />
    <glyph glyph-name="bracketright.case" 
d="M398 -65h-246v42h200v747h-200v41h246v-830z" />
    <glyph glyph-name="parenleft.case" 
d="M435 -65q-105 77 -165.5 189t-60.5 228q0 114 61 222.5t165 182.5l35 -21q-105 -86 -156.5 -179t-51.5 -205q0 -113 51 -208.5t157 -187.5z" />
    <glyph glyph-name="parenright.case" 
d="M185 -65l-35 21q106 92 157 187.5t51 208.5q0 112 -51.5 205t-156.5 179l35 21q104 -74 165 -182.5t61 -222.5q0 -116 -60.5 -228t-165.5 -189z" />
    <glyph glyph-name="parenleft.subs" 
d="M481 -234q-82 60 -125 149.5t-43 184.5q0 94 43 179t126 143l34 -18q-154 -124 -154 -304q0 -93 36.5 -169t117.5 -146z" />
    <glyph glyph-name="parenright.subs" 
d="M137 -234l-33 18q81 71 117.5 147t36.5 169q0 91 -36.5 165t-117.5 140l32 17q82 -58 125 -143t43 -179q0 -95 -42.5 -183.5t-124.5 -150.5z" />
    <glyph glyph-name="parenleft.sups" 
d="M480 216q-82 62 -124.5 150.5t-42.5 183.5q0 94 43 179t125 143l32 -17q-81 -66 -117.5 -140t-36.5 -165q0 -93 36.5 -169t117.5 -147z" />
    <glyph glyph-name="parenright.sups" 
d="M137 216l-33 18q81 71 117.5 147t36.5 169q0 91 -36.5 165t-117.5 140l32 17q82 -58 125 -143t43 -179q0 -95 -42.5 -183.5t-124.5 -150.5z" />
    <glyph glyph-name="emdash.case" 
d="M37 380h545v-39h-545v39z" />
    <glyph glyph-name="endash.case" 
d="M104 380h412v-39h-412v39z" />
    <glyph glyph-name="hyphen.case" 
d="M165 384h289v-47h-289v47z" />
    <glyph glyph-name="guillemotleft.case" 
d="M255 136l-168 208l173 207h53l-169 -206l166 -209h-55zM435 136l-168 208l173 207h52l-169 -206l166 -209h-54z" />
    <glyph glyph-name="guillemotright.case" 
d="M185 136l168 208l-173 207h-52l169 -206l-166 -209h54zM365 136l168 208l-173 207h-53l169 -206l-166 -209h55z" />
    <glyph glyph-name="guilsinglleft.case" 
d="M355 136l-168 208l173 207h52l-169 -206l166 -209h-54z" />
    <glyph glyph-name="guilsinglright.case" 
d="M265 136h-54l166 209l-169 206h52l173 -207z" />
    <glyph glyph-name="currency.case" 
d="M525 353q0 -92 -50 -153l51 -55l-25 -24l-52 53q-56 -47 -137 -47q-83 0 -140 49l-53 -55l-25 23l54 57q-50 61 -50 152t49 151l-54 57l25 24l54 -55q57 49 140 49q81 0 137 -47l52 53l26 -24l-52 -55q50 -61 50 -153zM312 170q72 0 119 49.5t47 133.5t-47 133.5
t-119 49.5t-119.5 -49.5t-47.5 -133.5t47.5 -133.5t119.5 -49.5z" />
    <glyph glyph-name="dollar.case" 
d="M545 185q0 -90 -57.5 -143.5t-159.5 -56.5v-94h-31v95q-103 6 -159 68.5t-64 160.5l53 9q6 -81 48.5 -134t121.5 -60v314l-40 11q-74 20 -117.5 66t-43.5 119q0 81 54.5 132t146.5 54v91h31v-92q90 -5 144 -56.5t60 -155.5l-52 -12q-8 169 -152 179v-292l43 -11
q83 -22 128.5 -64t45.5 -128zM277 401l20 -5v285q-74 -3 -112 -41t-38 -97q0 -107 130 -142zM328 29q77 2 122 39t45 109q0 71 -37 103t-112 51l-18 5v-307z" />
    <glyph glyph-name="Euro.case" 
d="M548 172l40 -22q-25 -79 -81.5 -122t-132.5 -43q-109 0 -174.5 78.5t-80.5 212.5h-88v39h84q-1 15 -1 47q0 18 2 52h-85v38h89q17 131 84.5 202.5t177.5 71.5q154 0 204 -152l-43 -27q-18 61 -61.5 96.5t-103.5 35.5q-85 0 -137.5 -58.5t-66.5 -168.5h275v-38h-279
q-2 -32 -2 -51q0 -18 2 -48h279v-39h-276q15 -116 68 -180.5t134 -64.5q55 0 102 35.5t71 105.5z" />
    <glyph glyph-name="florin.case" 
d="M427 684q-54 0 -73.5 -31t-28.5 -97l-16 -128h132v-41h-137l-68 -540h-50l67 540h-105v41h110l13 108q5 39 9.5 62.5t15.5 51.5t26.5 43t42 25.5t62.5 10.5q27 0 45 -7v-43q-18 5 -45 5z" />
    <glyph glyph-name="sterling.case" 
d="M522 158l46 -8q-6 -87 -47.5 -126t-102.5 -39q-33 0 -95 15.5t-109 15.5q-60 0 -151 -22l-12 38q148 46 148 202q0 60 -12 118h-112v39h104q-18 82 -18 135q0 97 51 148.5t135 51.5q79 0 124 -45.5t55 -128.5l-51 -10q-6 68 -39 103.5t-89 35.5q-60 0 -96 -36.5
t-36 -115.5q0 -52 18 -138h174v-39h-166q10 -64 10 -109q0 -143 -107 -194q39 12 92 12q38 0 94 -14t89 -14q44 0 71.5 31t31.5 94z" />
    <glyph glyph-name="yen.case" 
d="M558 711l-221 -388h190v-39h-192v-95h192v-39h-192v-150h-53v150h-194v39h194v95h-194v39h192l-219 388h59l188 -341l191 341h59z" />
    <glyph glyph-name="plus.case" 
d="M545 394v-43h-211v-217h-50v217h-209v43h209v205h50v-205h211z" />
    <glyph glyph-name="minus.case" 
d="M75 350v47h470v-47h-470z" />
    <glyph glyph-name="multiply.case" 
d="M541 568l-198 -198l198 -197l-33 -34l-198 198l-198 -198l-33 33l198 198l-198 198l33 33l198 -197l197 197z" />
    <glyph glyph-name="divide.case" 
d="M310 525q-17 0 -28.5 11t-11.5 29t11.5 29t28.5 11t28.5 -11t11.5 -29t-11.5 -29t-28.5 -11zM75 352v45h470v-45h-470zM310 145q-18 0 -29 10.5t-11 28.5t11 29t29 11t29 -11t11 -29t-11 -28.5t-29 -10.5z" />
    <glyph glyph-name="equal.case" 
d="M75 439v46h470v-46h-470zM75 261v46h470v-46h-470z" />
    <glyph glyph-name="notequal.case" 
d="M545 439h-192l-49 -132h241v-46h-258l-49 -133h-36l49 133h-176v46h193l49 132h-242v46h259l48 129h36l-48 -129h175v-46z" />
    <glyph glyph-name="greater.case" 
d="M49 132v49l409 193l-409 193v47l465 -221v-40z" />
    <glyph glyph-name="less.case" 
d="M559 132l-465 221v40l465 221v-47l-409 -193l409 -193v-49z" />
    <glyph glyph-name="plusminus.case" 
d="M335 455h210v-42h-210v-182h-50v182h-210v42h210v187h50v-187zM75 100v46h470v-46h-470z" />
    <glyph glyph-name="approxequal.case" 
d="M422 425q-38 0 -108 25t-108 25q-36 0 -73 -11.5t-58 -28.5v47q20 17 55.5 28.5t69.5 11.5q46 0 112.5 -25t103.5 -25q36 0 72.5 11.5t56.5 28.5v-47q-19 -17 -53.5 -28.5t-69.5 -11.5zM422 246q-38 0 -108 25t-108 25q-36 0 -73 -11.5t-58 -28.5v47q20 17 55.5 28.5
t69.5 11.5q46 0 112.5 -25t103.5 -25q36 0 72.5 11.5t56.5 28.5v-47q-19 -17 -53.5 -28.5t-69.5 -11.5z" />
    <glyph glyph-name="logicalnot.case" 
d="M95 402h449v-227h-48v179h-401v48z" />
    <glyph glyph-name="infinity.case" 
d="M438 501q52 0 85 -34.5t33 -91.5q0 -54 -34 -90.5t-84 -36.5q-40 0 -74 27.5t-56 63.5q-51 -92 -130 -92q-47 0 -80.5 34.5t-33.5 92.5q0 55 33.5 90.5t84.5 35.5q79 0 127 -84q53 85 129 85zM437 290q31 0 53.5 22.5t22.5 61.5q0 41 -21.5 62.5t-55.5 21.5
q-35 0 -59.5 -21t-46.5 -60q49 -87 107 -87zM183 290q35 0 58.5 22.5t45.5 64.5q-45 80 -105 80q-31 0 -53.5 -20.5t-22.5 -62.5q0 -39 23.5 -61.5t53.5 -22.5z" />
    <glyph glyph-name="integral.case" 
d="M119 -16v43q11 -1 25 -1q79 0 110 36t31 124v339q0 196 180 196q5 0 35 -2v-43q-14 2 -35 2q-72 0 -100.5 -38.5t-28.5 -122.5v-339q0 -96 -44.5 -146t-146.5 -49q-15 0 -26 1z" />
    <glyph glyph-name="plus.subs" 
d="M488 118v-36h-158v-156h-41v156h-157v36h157v149h41v-149h158z" />
    <glyph glyph-name="minus.subs" 
d="M131 81v38h357v-38h-357z" />
    <glyph glyph-name="multiply.subs" 
d="M486 242l-148 -143l148 -143l-28 -28l-148 143l-149 -143l-27 27l148 143l-149 144l28 27l149 -143l148 143z" />
    <glyph glyph-name="divide.subs" 
d="M310 204q-14 0 -23.5 9t-9.5 23t9.5 23t23.5 9t23 -8.5t9 -23.5q0 -14 -9 -23t-23 -9zM131 81v37h357v-37h-357zM310 -70q-14 0 -23.5 9t-9.5 23q0 15 9 23.5t24 8.5q14 0 23 -8.5t9 -23.5q0 -14 -9 -23t-23 -9z" />
    <glyph glyph-name="plus.sups" 
d="M488 567v-34h-159v-157h-39v157h-158v34h158v150h39v-150h159z" />
    <glyph glyph-name="minus.sups" 
d="M131 533v35h357v-35h-357z" />
    <glyph glyph-name="multiply.sups" 
d="M486 693l-149 -144l149 -143l-27 -27l-149 144l-150 -144l-26 26l149 144l-149 144l26 25l150 -144l149 144z" />
    <glyph glyph-name="divide.sups" 
d="M310 656q-14 0 -23 8.5t-9 21.5q0 14 9 23t23 9t22.5 -8.5t8.5 -23.5q0 -13 -8.5 -21.5t-22.5 -8.5zM131 533v34h357v-34h-357zM310 381q-14 0 -23 8.5t-9 22.5t9 22.5t23 8.5t22.5 -8.5t8.5 -22.5t-8.5 -22.5t-22.5 -8.5z" />
    <glyph glyph-name="carriagereturn.alt" 
d="M367 352h78v59q0 275 -175 275q-176 0 -176 -275v-109q0 -150 46 -215t131 -65q114 0 154 110l35 -15q-52 -131 -189 -131q-217 0 -217 314v111q0 156 57.5 233.5t158.5 77.5q103 0 159 -76.5t56 -232.5v-61h80l-99 -133z" />
    <glyph glyph-name="arrowright.case" 
d="M66 376h369v82l132 -99l-132 -99v82h-369v34z" />
    <glyph glyph-name="arrowleft.case" 
d="M554 342h-369v-82l-132 99l132 99v-82h369v-34z" />
    <glyph glyph-name="arrowright.ss03.case" 
d="M509 338l-241 -237l31 -30l288 288l-288 287l-30 -30l240 -236h-464v-42h464z" />
    <glyph glyph-name="arrowleft.ss03.case" 
d="M110 338l241 -237l-30 -30l-288 288l288 287l30 -30l-241 -236h465v-42h-465z" />
    <glyph glyph-name="arrowup.ss03" 
d="M288 673l-237 -241l-29 30l288 288l287 -288l-29 -30l-236 241v-708h-44v708z" />
    <glyph glyph-name="uni2197.ss03" 
d="M502 641l-391 -392l-31 30l393 392l-337 -2v41h406v-407h-42z" />
    <glyph glyph-name="arrowright.ss03" 
d="M509 309h-465v42h465l-241 236l30 30l288 -287l-288 -288l-30 30z" />
    <glyph glyph-name="uni2198.ss03" 
d="M502 57l-2 338h42v-407h-406v41l337 -2l-393 392l31 30z" />
    <glyph glyph-name="arrowdown.ss03" 
d="M289 37v708h44v-708l236 241l29 -30l-287 -288l-288 288l29 30z" />
    <glyph glyph-name="uni2199.ss03" 
d="M118 57l391 392l31 -30l-393 -392l337 2v-41h-406v407h42z" />
    <glyph glyph-name="arrowleft.ss03" 
d="M110 309l241 -237l-30 -30l-288 288l288 287l30 -30l-241 -236h465v-42h-465z" />
    <glyph glyph-name="uni2196.ss03" 
d="M118 641l2 -338h-42v407h406v-41l-337 2l393 -392l-31 -30z" />
    <glyph glyph-name="circle.invert" 
d="M546 439v-169q0 -137 -63.5 -212t-173.5 -75t-173 75t-63 212v169q0 139 64.5 213t171.5 74q109 0 173 -74t64 -213z" />
    <glyph glyph-name="at.case" 
d="M329 -16q-124 0 -194 74t-70 205v185q0 132 69 210.5t183 78.5q110 0 173.5 -72t63.5 -195v-118q0 -164 -91 -164q-31 0 -49.5 19t-21.5 51q-12 -33 -41.5 -53.5t-66.5 -20.5q-43 0 -71 26t-28 71q0 82 110 100l91 14v12q0 53 -16.5 76t-54.5 23q-72 0 -77 -75h-41
q2 52 34 82t87 30q56 0 82.5 -35t26.5 -110v-103q0 -72 40 -72q49 0 49 119v122q0 112 -53 175t-147 63q-98 0 -155 -67t-57 -184v-190q0 -112 61.5 -176.5t166.5 -64.5q78 0 148 38l10 -32q-75 -42 -161 -42zM294 220q40 0 66 30.5t26 76.5v37l-81 -15q-78 -12 -78 -67
q0 -28 18.5 -45t48.5 -17z" />
    <glyph glyph-name="section.case" 
d="M435 212q49 -38 49 -93q0 -63 -51.5 -99.5t-131.5 -36.5q-81 0 -130.5 37.5t-57.5 103.5l50 8q10 -50 46.5 -78.5t97.5 -28.5q56 0 91 24t35 64q0 37 -23 59t-90 49l-86 35q-61 24 -88.5 55t-27.5 80q0 75 73 110q-45 36 -45 98q0 61 48.5 94.5t125.5 33.5
q78 0 122.5 -33.5t53.5 -94.5l-49 -10q-20 99 -132 99q-53 0 -84.5 -22t-31.5 -63q0 -37 19.5 -59.5t72.5 -43.5l82 -33q71 -28 104 -60t33 -82q0 -79 -75 -113zM269 293l79 -34q27 -11 58 -28q51 32 51 85q0 43 -30 66t-109 56l-75 32q-11 4 -23 11q-49 -28 -49 -81
q0 -37 21.5 -60.5t76.5 -46.5z" />
    <glyph glyph-name="bar.case" 
d="M333 725v-743h-47v743h47z" />
    <glyph glyph-name="brokenbar.case" 
d="M333 725v-293h-47v293h47zM333 311v-329h-47v329h47z" />
    <glyph glyph-name="Baht.case" 
d="M382 364q74 -9 112.5 -55t38.5 -117q0 -37 -11 -69.5t-35.5 -61t-70 -45t-107.5 -16.5h-9v-109h-35v109h-179v711h179v92h35v-92q61 -1 105 -17.5t67 -43.5t33.5 -56t10.5 -62q0 -63 -32.5 -108.5t-101.5 -59.5zM136 665v-281h129v281h-129zM463 527q0 134 -163 138v-281
q163 0 163 143zM136 46h129v292h-129v-292zM303 46q177 0 177 149q0 65 -39.5 104t-129.5 39h-11v-292h3z" />
    <glyph glyph-name="Bitcoin.case" 
d="M534 194q0 -70 -38.5 -122t-125.5 -67v-114h-35v110q-9 -1 -28 -1h-61v-109h-35v109h-125v710h125v92h35v-92h45q16 0 44 -2v94h35v-100q78 -17 112.5 -64t34.5 -106q0 -63 -32.5 -108t-101.5 -59q74 -8 112.5 -54t38.5 -117zM137 663v-278h160q165 0 165 142
q0 136 -171 136h-154zM302 47q177 0 177 150q0 142 -169 142h-173v-292h165z" />
    <glyph glyph-name="Lira.case" 
d="M500 239l49 -9q-44 -230 -265 -230h-126v294l-87 -27v43l87 27v105l-87 -27v43l87 27v226h53v-210l238 74v-42l-238 -74v-106l238 74v-42l-238 -74v-263h67q183 0 222 191z" />
    <glyph glyph-name="Ruble.case" 
d="M329 307h-140v-117h180v-39h-180v-151h-53v151h-71v39h71v117h-71v41h71v363h193q63 0 109.5 -18t70.5 -48t35 -62.5t11 -68.5q0 -38 -11 -72t-35 -65.5t-70.5 -50.5t-109.5 -19zM189 662v-314h141q89 0 129.5 49t40.5 115q0 60 -40.5 105t-129.5 45h-141z" />
    <glyph glyph-name="Rupee.case" 
d="M558 711v-42h-252q85 -41 92 -142h160v-39h-160q-2 -36 -14 -66t-37.5 -57.5t-71.5 -43t-110 -15.5h-35l266 -306h-65l-270 316v32h102q171 0 182 140h-284v39h284q-5 64 -48.5 103t-130.5 39h-105v42h497z" />
    <glyph glyph-name="Won.case" 
d="M580 415h-51l-12 -96h63v-36h-67l-35 -283h-69l-43 283h-112l-43 -283h-69l-35 283h-67v36h62l-11 96h-51v35h46l-32 260h47l30 -260h110l40 260h58l40 -260h110l30 260h46l-32 -260h47v-35zM300 591l-21 -141h61l-21 141q-2 15 -8 61h-3q-1 -17 -8 -61zM135 415l11 -96
h74l15 96h-100zM259 319h101l-14 96h-73zM474 319l11 96h-100l15 -96h74zM190 124l25 159h-65l18 -159q3 -18 8 -69h3q0 3 4 28.5t7 40.5zM451 124l18 159h-64l25 -159q1 -9 3.5 -24t4 -26t3.5 -19h3q6 64 7 69z" />
    <glyph glyph-name="carontopcomb" 
d="M536 561l-16 23q18 13 24 30t6 47h-29v64h58v-62q0 -74 -43 -102z" />
  </font>
</defs>
</svg>
