<?xml version="1.0" standalone="no"?>
<!DOCTYPE svg PUBLIC "-//W3C//DTD SVG 1.1//EN" "http://www.w3.org/Graphics/SVG/1.1/DTD/svg11.dtd" >
<svg xmlns="http://www.w3.org/2000/svg" xmlns:xlink="http://www.w3.org/1999/xlink" version="1.1">
<metadata>
Created by FontForge 20170731 at Sat Feb  6 19:25:38 2016
 By Aleksey,,,
Copyright (c) 2016 by Valerio Dell'Edera. All rights reserved.
</metadata>
<defs>
<font id="Monique-RegularObliqueRound40" horiz-adv-x="547" >
  <font-face 
    font-family="Monique Round 40"
    font-weight="400"
    font-style="oblique"
    font-stretch="normal"
    units-per-em="1000"
    panose-1="2 0 0 9 0 0 0 0 0 0"
    ascent="800"
    descent="-200"
    x-height="447"
    cap-height="695"
    bbox="-38.4 -283 1597.4 1006"
    underline-thickness="50"
    underline-position="-200"
    unicode-range="U+000D-FB06"
  />
<missing-glyph 
 />
    <glyph glyph-name="ff" unicode="ff" horiz-adv-x="1094" 
d="M1080 398q14 0 22 -10t6 -24t-14 -24t-26 -10h-178q-16 0 -30 -11.5t-17 -28.5l-45 -256q-2 -14 -14 -24t-26 -10t-22 10t-6 24l45 256q3 16 -6.5 28t-26.5 12h-399q-16 0 -30 -11.5t-17 -28.5l-45 -256q-2 -14 -14 -24t-26 -10t-22 10t-6 24l45 256q3 16 -6.5 28
t-26.5 12h-53q-14 0 -22 10t-6 24t14 24t26 10h53q16 0 30 11.5t17 28.5l17 97q12 66 67 113t122 47q57 0 94.5 -36.5t39.5 -91.5q0 -32 -37 -32h-10q-7 0 -15 9t-9 16q-3 29 -24 47.5t-52 18.5q-38 0 -69.5 -26.5t-38.5 -64.5l-17 -97q-3 -16 6.5 -28t26.5 -12h399
q16 0 30 11.5t17 28.5l17 97q12 66 67 113t122 47q57 0 94.5 -36.5t39.5 -91.5q0 -32 -37 -32h-10q-7 0 -15 9t-9 16q-3 29 -24 47.5t-52 18.5q-38 0 -69.5 -26.5t-38.5 -64.5l-17 -97q-3 -16 6.5 -28t26.5 -12h178z" />
    <glyph glyph-name="fi" unicode="fi" horiz-adv-x="1094" 
d="M885 398q17 0 26.5 -12t6.5 -28l-44 -249q-3 -16 6.5 -28t26.5 -12h115q14 0 22 -10t6 -24q-2 -15 -14 -25t-26 -10h-378q-15 0 -23 10t-6 25q2 14 14.5 24t26.5 10h114q16 0 30 11.5t17 28.5l32 181q3 16 -6.5 28t-26.5 12h-461q-16 0 -30 -11.5t-17 -28.5l-45 -256
q-2 -14 -14 -24t-26 -10t-22 10t-6 24l45 256q3 16 -6.5 28t-26.5 12h-53q-14 0 -22 10t-6 24t14 24t26 10h53q16 0 30 11.5t17 28.5l17 97q12 66 67 113t122 47q57 0 94.5 -36.5t39.5 -91.5q0 -32 -37 -32h-10q-7 0 -15 9t-9 16q-3 29 -24 47.5t-52 18.5q-38 0 -69.5 -26.5
t-38.5 -64.5l-17 -97q-3 -16 6.5 -28t26.5 -12h530zM980 614q-4 -22 -21.5 -37t-39.5 -15q-21 0 -33.5 15t-8.5 37q4 21 21.5 36t38.5 15q22 0 34.5 -15t8.5 -36z" />
    <glyph glyph-name="ffi" unicode="ffi" horiz-adv-x="1641" 
d="M1432 398q17 0 26.5 -12t6.5 -28l-44 -249q-3 -16 6.5 -28t26.5 -12h115q14 0 22 -10t6 -24q-2 -15 -14 -25t-26 -10h-378q-15 0 -23 10t-6 25q2 14 14.5 24t26.5 10h114q16 0 30 11.5t17 28.5l32 181q3 16 -6.5 28t-26.5 12h-461q-16 0 -30 -11.5t-17 -28.5l-45 -256
q-2 -14 -14 -24t-26 -10t-22 10t-6 24l45 256q3 16 -6.5 28t-26.5 12h-399q-16 0 -30 -11.5t-17 -28.5l-45 -256q-2 -14 -14 -24t-26 -10t-22 10t-6 24l45 256q3 16 -6.5 28t-26.5 12h-53q-14 0 -22 10t-6 24t14 24t26 10h53q16 0 30 11.5t17 28.5l17 97q12 66 67 113
t122 47q57 0 94.5 -36.5t39.5 -91.5q0 -32 -37 -32h-10q-7 0 -15 9t-9 16q-3 29 -24 47.5t-52 18.5q-38 0 -69.5 -26.5t-38.5 -64.5l-17 -97q-3 -16 6.5 -28t26.5 -12h399q16 0 30 11.5t17 28.5l17 97q12 66 67 113t122 47q57 0 94.5 -36.5t39.5 -91.5q0 -32 -37 -32h-10
q-7 0 -15 9t-9 16q-3 29 -24 47.5t-52 18.5q-38 0 -69.5 -26.5t-38.5 -64.5l-17 -97q-3 -16 6.5 -28t26.5 -12h530zM1527 614q-4 -22 -21.5 -37t-39.5 -15q-21 0 -33.5 15t-8.5 37q4 21 21.5 36t38.5 15q22 0 34.5 -15t8.5 -36z" />
    <glyph glyph-name="s_t" unicode="st" horiz-adv-x="1094" 
d="M878 487q-3 -16 6.5 -28t26.5 -12h177q14 0 22.5 -10t6.5 -24q-3 -15 -15 -25t-26 -10h-177q-17 0 -31 -12t-16 -28l-32 -178q-7 -38 15.5 -64.5t60.5 -26.5q30 0 57.5 18.5t41.5 47.5q4 7 15 16t18 9h10q38 0 25 -32q-21 -55 -71.5 -91.5t-107.5 -36.5q-67 0 -105 47
t-27 113l32 178q2 17 -7.5 28.5t-25.5 11.5h-411q-65 0 -113 -18t-53 -44q-3 -16 7.5 -28.5t45 -21.5t91.5 -9q112 0 161.5 -36.5t39.5 -94.5q-9 -52 -80.5 -89t-165.5 -37q-76 0 -132 27.5t-67 68.5q-5 17 3 23.5t29 6.5h17q3 0 10 -6t9 -9q9 -21 48.5 -34.5t93.5 -13.5
q65 0 113.5 18.5t53.5 44.5q3 19 -6.5 32t-44 22t-94.5 9q-110 0 -160 36t-40 91q10 54 82.5 92.5t163.5 38.5h411q16 0 30 11.5t17 28.5l9 53q3 14 14.5 24t25.5 10t22.5 -10t5.5 -24z" />
    <glyph glyph-name="c_k" unicode="ck" horiz-adv-x="1094" 
d="M694 695h55q16 0 25.5 -11.5t6.5 -28.5l-61 -347q-4 -27 15.5 -37.5t43.5 5.5l236 163q20 8 27 8h33q13 0 14.5 -11t-9.5 -19l-150 -105q-14 -10 -19 -25.5t2 -28.5l115 -226q5 -11 -2.5 -21.5t-20.5 -10.5h-18q-7 0 -17 6t-13 12l-97 196q-8 15 -24 17.5t-33 -8.5
l-95 -67q-5 -4 -12 -14.5t-8 -16.5l-16 -90q-2 -15 -14 -25t-26 -10q-15 0 -23 10t-6 25l102 578q2 13 -11 13h-13q-67 0 -121.5 -45t-65.5 -110q-7 -38 6 -72q0 -1 4 -6l3 -5q27 -27 39 -61q7 -17 -12 -24l-24 -9q-9 -4 -22.5 2t-17.5 15q-37 67 -121 67q-67 0 -122 -45.5
t-66 -109.5t27.5 -109t105.5 -45q85 0 145 67q7 9 22.5 15t23.5 2l5 -2q33 -15 11 -43q-40 -49 -98.5 -78.5t-120.5 -29.5q-96 0 -152.5 65.5t-40.5 157.5q16 93 96 158.5t176 65.5q23 0 53 -7q4 0 4 3q2 20 4 28q16 93 96 158.5t176 65.5z" />
    <glyph glyph-name="f_t" unicode="ft" horiz-adv-x="1094" 
d="M869 438q-3 -16 6.5 -28t26.5 -12h178q14 0 22 -10t6 -24t-14 -24t-26 -10h-178q-16 0 -30 -11.5t-17 -28.5l-23 -130q-7 -38 15.5 -64.5t60.5 -26.5q30 0 57.5 18.5t41.5 47.5q4 7 15 16t18 9h10q38 0 25 -32q-21 -55 -71.5 -91.5t-107.5 -36.5q-67 0 -105 47t-27 113
l23 130q3 16 -6.5 28t-26.5 12h-399q-16 0 -30 -11.5t-17 -28.5l-45 -256q-2 -14 -14 -24t-26 -10t-22 10t-6 24l45 256q3 16 -6.5 28t-26.5 12h-53q-14 0 -22 10t-6 24t14 24t26 10h53q16 0 30 11.5t17 28.5l17 97q12 66 67 113t122 47q57 0 94.5 -36.5t39.5 -91.5
q0 -32 -37 -32h-10q-7 0 -15 9t-9 16q-3 29 -24 47.5t-52 18.5q-38 0 -69.5 -26.5t-38.5 -64.5l-17 -97q-3 -16 6.5 -28t26.5 -12h399q16 0 30 11.5t17 28.5l18 102q3 14 14.5 24t25.5 10t22.5 -10t5.5 -24z" />
    <glyph glyph-name=".notdef" 
 />
    <glyph glyph-name=".null" horiz-adv-x="0" 
 />
    <glyph glyph-name="nonmarkingreturn" horiz-adv-x="333" 
 />
    <glyph glyph-name="CR" unicode="&#xd;" 
 />
    <glyph glyph-name="CR" 
 />
    <glyph glyph-name="space" unicode=" " 
 />
    <glyph glyph-name="exclam" unicode="!" 
d="M312 221q-13 0 -21 9.5t-6 23.5l72 408q2 14 13.5 23.5t25.5 9.5q13 0 21 -9.5t6 -23.5l-72 -408q-2 -13 -13.5 -23t-25.5 -10zM334 52q-4 -22 -21.5 -37t-39.5 -15q-21 0 -33.5 15t-8.5 37q4 21 21.5 36t38.5 15q22 0 34.5 -15t8.5 -36z" />
    <glyph glyph-name="quotedbl" unicode="&#x22;" 
d="M314 482q-2 -15 -14 -25t-27 -10q-14 0 -22 10t-6 25l31 179q3 14 15 24t26 10t22.5 -10t5.5 -24zM472 482q-2 -15 -14 -25t-27 -10q-14 0 -22 10t-6 25l31 179q3 14 15 24t26 10t22.5 -10t5.5 -24z" />
    <glyph glyph-name="numbersign" unicode="#" 
d="M259 0q-15 0 -21 10.5t0 24.5l33 71q10 20 1 34.5t-29 14.5h-21q-12 0 -25 -9t-18 -20l-46 -97q-5 -11 -18 -20t-25 -9h-5q-14 0 -20 10t1 24l46 99q4 9 0.5 15.5t-12.5 6.5q-10 0 -15.5 6.5t-3.5 16.5l2 11q2 13 13 22.5t25 9.5h2q12 0 25 9t18 20l79 168q5 11 0 20
t-17 9q-13 0 -20 9t-5 22l1 2q2 14 13.5 23.5t24.5 9.5h17q12 0 25.5 9t18.5 20l58 124q5 11 18.5 20t25.5 9h6q14 0 20.5 -10.5t-0.5 -24.5l-46 -98q-10 -20 -1.5 -34.5t28.5 -14.5h22q12 0 25 8.5t18 20.5l59 124q5 12 18 20.5t25 8.5h6q14 0 19.5 -10.5t-0.5 -23.5
l-58 -123q-5 -10 0 -17.5t15 -7.5q11 0 17.5 -7.5t4.5 -18.5l-1 -7q-3 -14 -14.5 -23.5t-24.5 -9.5h-9q-12 0 -25.5 -9t-18.5 -20l-77 -164q-6 -13 0 -23t19 -10h2q13 0 21 -9.5t6 -23.5t-13.5 -23.5t-25.5 -9.5h-25q-12 0 -25 -9t-18 -20l-46 -97q-5 -11 -18 -20t-25 -9h-6
zM361 447q-12 0 -25.5 -8.5t-18.5 -20.5l-70 -148q-9 -20 -0.5 -34.5t28.5 -14.5h21q12 0 25 8.5t19 20.5l70 148q9 20 0.5 34.5t-28.5 14.5h-21z" />
    <glyph glyph-name="dollar" unicode="$" 
d="M330 687q12 3 24 16t14 25l6 34q3 14 14.5 23.5t24.5 9.5q14 0 22 -10t5 -23l-6 -35q-2 -12 5.5 -25t18.5 -16q56 -15 92 -55t38 -92q1 -17 -9 -26t-28 -9h-5q-8 0 -17.5 10.5t-11.5 19.5q-8 56 -68 82q-14 6 -25 -1t-14 -24l-32 -185q-2 -11 5.5 -24t17.5 -16
q68 -23 104.5 -68.5t25.5 -107.5q-12 -63 -66 -113.5t-127 -68.5q-12 -3 -24 -16t-14 -25l-6 -34q-2 -14 -13.5 -23.5t-25.5 -9.5q-13 0 -21 9.5t-6 23.5l6 34q2 12 -5 25t-18 16q-57 15 -92.5 55t-37.5 93q-1 16 9.5 25.5t27.5 9.5h5q8 0 17.5 -10.5t11.5 -19.5
q8 -57 68 -81q14 -6 25 1t13 24l33 183q2 11 -6 24t-18 16q-67 22 -103 68t-25 108q11 63 65 114t126 69zM208 504q-13 -71 68 -107q13 -6 24.5 1t13.5 23l30 170q3 17 -5.5 24t-24.5 1q-41 -15 -70 -45t-36 -67zM462 190q12 70 -70 106q-13 6 -24 -1t-14 -23l-30 -167
q-2 -17 6 -24t24 -2q42 15 71.5 45t36.5 66z" />
    <glyph glyph-name="percent" unicode="%" 
d="M570 622q13 0 16.5 -10t-5.5 -21l-430 -504q-16 -18 -36 -18h-16q-13 0 -16.5 10.5t5.5 20.5l430 504q16 18 36 18h16zM199 499q-25 0 -40 17.5t-10 43.5t26 44t46 18t40.5 -18t10.5 -44q-4 -25 -25.5 -43t-47.5 -18zM447 69q-25 0 -40 17.5t-10 43.5t26 44t46 18
t40.5 -18t10.5 -44q-4 -25 -25.5 -43t-47.5 -18z" />
    <glyph glyph-name="ampersand" unicode="&#x26;" 
d="M454 0q-11 0 -17 8t-4 18q1 8 -6 11.5t-15 -1.5q-67 -36 -138 -36q-93 0 -148.5 55.5t-41.5 134.5q14 81 93 138q9 6 11.5 20t-3.5 20q-59 56 -46 137q14 79 90 134.5t168 55.5q81 0 135.5 -45.5t56.5 -113.5q0 -31 -37 -31q-9 0 -21 12.5t-14 22.5q-8 39 -44.5 64
t-87.5 25q-63 0 -115.5 -36.5t-61.5 -87.5q-9 -50 28.5 -86.5t98.5 -38.5h189q17 0 26.5 -12t6.5 -28l-54 -305q-2 -15 -14 -25t-26 -10h-9zM286 66q63 0 114.5 36t61.5 88l14 85q3 17 -6.5 28.5t-25.5 11.5h-114q-65 0 -116.5 -36.5t-60.5 -88.5q-10 -52 29 -88t104 -36z
" />
    <glyph glyph-name="quotesingle" unicode="'" 
d="M393 482q-2 -15 -14.5 -25t-26.5 -10t-22 10t-6 25l31 179q3 14 15 24t26 10t22.5 -10t5.5 -24z" />
    <glyph glyph-name="parenleft" unicode="(" 
d="M559 784q1 -1 2 -1.5l3 -1.5t2.5 -1.5t-1.5 -2.5q-132 -113 -200.5 -263t-59 -301.5t95.5 -267.5q3 -4 5.5 -12.5t-0.5 -12.5q-7 -5 -21.5 -14.5t-20.5 -14.5q-2 -1 -4 -4t-2.5 -3.5t-2.5 0.5q-103 124 -120 289.5t52 332t210 294.5q23 18 30 13q5 -5 16.5 -15t15.5 -14z
" />
    <glyph glyph-name="parenright" unicode=")" 
d="M270 759q-3 4 -5.5 12.5t0.5 12.5q6 5 21 14.5t21 14.5q2 1 4 4t3 3.5t3 -0.5q102 -124 119 -289.5t-52 -332t-210 -294.5q-5 -4 -16 -9.5t-13 -3.5q-4 4 -15.5 14t-16.5 15q-2 2 -6 3q-2 3 -1 4q132 113 200.5 263t59 301.5t-95.5 267.5z" />
    <glyph glyph-name="asterisk" unicode="*" 
d="M192 231q-13 0 -21 9.5t-6 23.5q3 13 14.5 22.5t24.5 9.5h49q16 0 30 11.5t17 28.5l7 40q2 13 13.5 22.5t24.5 9.5t21 -9.5t6 -22.5l-7 -40q-3 -16 6.5 -28t26.5 -12h50q13 0 21 -9.5t5 -22.5q-2 -14 -13.5 -23.5t-24.5 -9.5h-15q-18 0 -28.5 -13.5t-4.5 -28.5l12 -36
q5 -11 -1 -23.5t-19 -18.5q-12 -7 -23.5 -3.5t-16.5 14.5l-11 25q-7 19 -26.5 19t-33.5 -19l-18 -25q-8 -11 -21 -14.5t-24 3.5q-10 6 -11.5 19t6.5 24l24 35q11 15 5 28.5t-23 13.5h-15z" />
    <glyph glyph-name="plus" unicode="+" 
d="M190 221q-13 0 -20.5 10t-5.5 23t13.5 22.5t24.5 9.5h49q17 0 31 11.5t16 28.5l9 50q2 13 13.5 22.5t24.5 9.5t21 -9.5t6 -22.5l-9 -50q-2 -17 7.5 -28.5t25.5 -11.5h50q13 0 21 -9.5t6 -22.5t-13.5 -23t-25.5 -10h-49q-16 0 -30 -11.5t-17 -28.5l-9 -49
q-2 -14 -13.5 -23.5t-24.5 -9.5t-21 9.5t-6 23.5l9 49q3 16 -6.5 28t-26.5 12h-50z" />
    <glyph glyph-name="comma" unicode="," 
d="M293 -88q-3 -14 -15 -24t-26 -10t-22.5 10t-5.5 24l14 80q0 11 -7 16q-22 15 -17 44q4 21 21.5 36t38.5 15q22 0 34.5 -15t8.5 -36z" />
    <glyph glyph-name="hyphen" unicode="-" 
d="M190 221q-13 0 -20.5 10t-5.5 23t13.5 22.5t24.5 9.5h244q13 0 21 -9.5t6 -22.5t-13.5 -23t-25.5 -10h-244z" />
    <glyph glyph-name="period" unicode="." 
d="M334 52q-4 -22 -21.5 -37t-39.5 -15q-21 0 -33.5 15t-8.5 37q4 21 21.5 36t38.5 15q22 0 34.5 -15t8.5 -36z" />
    <glyph glyph-name="slash" unicode="/" 
d="M600 795q14 0 19.5 -10.5t-2.5 -23.5l-496 -836q-5 -10 -18 -17.5t-23 -7.5h-11q-14 0 -19 10.5t3 23.5l496 836q5 10 17.5 17.5t23.5 7.5h10z" />
    <glyph glyph-name="zero" unicode="0" 
d="M396 695q93 0 140.5 -102t21.5 -246t-109 -246t-176 -102q-92 0 -139.5 102t-22.5 246t109 246t176 102zM284 64q65 0 125 83t80 200q21 117 -9.5 199.5t-95.5 82.5q-63 0 -123 -82.5t-81 -199.5q-20 -117 10.5 -200t93.5 -83z" />
    <glyph glyph-name="one" unicode="1" 
d="M475 69q14 0 22 -10t6 -24q-2 -15 -14 -25t-26 -10h-378q-15 0 -23 10t-6 25q2 14 14.5 24t26.5 10h114q16 0 30 11.5t17 28.5l85 480q3 16 -6.5 28t-26.5 12h-47q-13 0 -21 9.5t-6 23.5t13.5 23.5t25.5 9.5h116q16 0 25.5 -11.5t6.5 -28.5l-96 -546q-3 -16 6.5 -28
t26.5 -12h115z" />
    <glyph glyph-name="two" unicode="2" 
d="M393 695q96 0 150.5 -62.5t38.5 -151.5q-11 -62 -52.5 -107.5t-96.5 -73.5t-111.5 -52.5t-106.5 -59.5t-71 -79q-10 -20 -2.5 -31.5t29.5 -11.5h305q13 0 21 -9.5t6 -23.5q-2 -13 -13.5 -23t-25.5 -10h-381q-13 0 -21 9.5t-6 23.5l6 33q11 62 47 108.5t82.5 71.5
t100 50.5t99 45.5t80 56t42.5 83q11 62 -26.5 105t-105.5 43q-88 0 -147 -54q-7 -6 -18.5 -8t-18.5 2l-6 4q-29 17 -2 43q38 37 92.5 58t111.5 21z" />
    <glyph glyph-name="three" unicode="3" 
d="M396 695q92 0 148 -56t42 -134q-13 -79 -94 -137q-9 -6 -11 -20t4 -20q60 -56 46 -138q-14 -79 -89.5 -134.5t-168.5 -55.5q-83 0 -137 45.5t-55 113.5q0 31 37 31q9 0 21 -12.5t14 -22.5q7 -39 43.5 -64t88.5 -25q65 0 116 36t61 88q9 53 -29.5 89t-103.5 36h-91
q-13 0 -21 9.5t-6 23.5q2 13 14 22.5t25 9.5h96q62 2 112 38.5t59 86.5q9 51 -30.5 87.5t-102.5 36.5q-51 0 -96.5 -25t-67.5 -64q-5 -9 -21 -22t-25 -13q-38 0 -27 31q26 68 97 113.5t152 45.5z" />
    <glyph glyph-name="four" unicode="4" 
d="M503 222q14 0 22 -10t5 -23q-2 -14 -13.5 -23.5t-24.5 -9.5h-34q-17 0 -31 -11.5t-17 -28.5l-14 -81q-2 -15 -14 -25t-26 -10q-15 0 -23 10t-6 25l14 81q3 17 -6.5 28.5t-25.5 11.5h-198q-14 0 -22 9.5t-6 23.5l4 22q5 17 9 20l332 444q6 7 18.5 13.5t20.5 6.5h11
q14 0 22.5 -10t5.5 -24l-70 -399q-3 -16 6.5 -28t26.5 -12h34zM204 282q-16 -22 -8.5 -41t32.5 -19h92q16 0 30 11.5t17 28.5l28 158q5 31 -23 39t-48 -19z" />
    <glyph glyph-name="five" unicode="5" 
d="M198 450q-3 -16 6.5 -28t26.5 -12h123q89 0 141.5 -60t37.5 -145t-91 -145t-166 -60q-80 0 -136 49.5t-57 122.5q0 33 38 33q10 0 21 -11.5t12 -21.5q5 -46 43 -76t91 -30q62 0 114 41t62 98q11 58 -24.5 98.5t-96.5 40.5h-192q-17 0 -26.5 12t-6.5 28l47 271
q3 17 17 28.5t31 11.5h374q13 0 21 -9.5t6 -23.5q-2 -13 -13.5 -23t-25.5 -10h-305q-16 0 -30 -11.5t-17 -28.5z" />
    <glyph glyph-name="six" unicode="6" 
d="M96 248q24 207 113 327t234 120q37 0 71 -10.5t47 -18.5t17 -12q4 -6 3 -8t-9.5 -7.5t-12.5 -10.5l-20 -26q-58 27 -105 27q-91 0 -156.5 -68t-89.5 -172q-1 -7 5.5 -8t13.5 3q60 38 128 41q97 5 154.5 -53t47.5 -147q-11 -88 -85.5 -154t-166.5 -71t-147 63t-42 185z
M331 356q-62 -3 -110 -47.5t-56 -104.5q-7 -59 32 -98.5t100 -35.5q62 3 113 47.5t57 103.5q8 61 -30 100t-106 35z" />
    <glyph glyph-name="seven" unicode="7" 
d="M587 695q13 0 21 -9.5t6 -23.5l-5 -26q0 -9 -5 -14l-331 -596q-5 -10 -18 -18t-24 -8h-6q-13 0 -18 9.5t2 22.5l300 543q11 21 2.5 37.5t-30.5 16.5h-287q-13 0 -21 9.5t-6 23.5t13.5 23.5t25.5 9.5h381z" />
    <glyph glyph-name="eight" unicode="8" 
d="M494 367q-9 -6 -11.5 -20t4.5 -20q58 -54 44 -136q-14 -79 -89 -135t-167 -56q-94 0 -149.5 55.5t-41.5 135.5q13 81 93 136q8 6 10.5 20t-3.5 20q-60 57 -45 138q14 79 89.5 134.5t169.5 55.5q92 0 147 -55.5t41 -134.5q-15 -82 -92 -138zM208 505q-9 -52 30.5 -88.5
t103.5 -36.5q63 0 114.5 36.5t60.5 88.5q9 51 -30 87.5t-101 36.5q-64 0 -116.5 -36.5t-61.5 -87.5zM287 66q63 0 114.5 36.5t60.5 88.5q9 51 -30 87.5t-101 36.5q-64 0 -116.5 -36.5t-61.5 -87.5q-9 -52 30.5 -88.5t103.5 -36.5z" />
    <glyph glyph-name="nine" unicode="9" 
d="M574 447q-25 -208 -113.5 -327.5t-233.5 -119.5q-75 0 -136 41q-3 3 -3 5t2.5 4.5t5.5 4.5l7.5 5t7.5 7l19 26q59 -27 106 -27q91 0 156 68t89 172q2 7 -5 8t-13 -3q-62 -38 -128 -41q-98 -5 -155.5 53t-46.5 147q11 88 85 154t167 71q92 5 147 -63t42 -185zM339 339
q61 3 109.5 47.5t56.5 104.5q7 59 -32 98.5t-101 35.5q-62 -3 -112.5 -47.5t-56.5 -103.5q-8 -61 30 -100t106 -35z" />
    <glyph glyph-name="colon" unicode=":" 
d="M338 72q-4 -22 -21.5 -37t-39.5 -15q-21 0 -33.5 15t-8.5 37q4 21 21.5 36t38.5 15q22 0 34.5 -15t8.5 -36zM391 376q-4 -22 -21.5 -37t-39.5 -15q-21 0 -33.5 15t-8.5 37q4 21 21.5 36t38.5 15q22 0 34.5 -15t8.5 -36z" />
    <glyph glyph-name="semicolon" unicode=";" 
d="M391 376q-4 -22 -21.5 -37t-39.5 -15q-21 0 -33.5 15t-8.5 37q4 21 21.5 36t38.5 15q22 0 34.5 -15t8.5 -36zM313 -68q-2 -14 -14 -24t-26 -10q-15 0 -23 10t-6 24l14 80q2 10 -7 16q-22 15 -16 44q4 21 21.5 36t38.5 15q22 0 34.5 -15t8.5 -36z" />
    <glyph glyph-name="less" unicode="&#x3c;" 
d="M475 449q13 7 22 1.5t7 -18.5l-3 -16q-1 -7 -9 -18t-15 -16l-180 -103q-22 -13 -25.5 -34t13.5 -34l144 -102q5 -5 9 -16t3 -18l-3 -15q-2 -14 -13 -19.5t-22 1.5l-230 157q-6 5 -10 16t-3 18l4 25q1 7 9.5 18t16.5 16z" />
    <glyph glyph-name="equal" unicode="=" 
d="M202 287q-13 0 -21 9.5t-6 23.5q2 13 14 22.5t25 9.5h244q13 0 20.5 -9.5t5.5 -22.5q-2 -14 -13.5 -23.5t-24.5 -9.5h-244zM179 156q-13 0 -21 9.5t-6 23.5q2 13 13.5 22.5t24.5 9.5h244q13 0 21 -9.5t6 -22.5q-2 -14 -13.5 -23.5t-24.5 -9.5h-244z" />
    <glyph glyph-name="greater" unicode="&#x3e;" 
d="M205 382q-15 11 -13 34l3 16q2 13 13.5 18.5t21.5 -1.5l230 -157q6 -5 10 -16t3 -18l-4 -25q-2 -8 -10 -19t-15 -15l-286 -157q-12 -7 -21.5 -1.5t-7.5 19.5l3 15q2 8 10 19t15 15l179 102q22 13 26 34t-14 34z" />
    <glyph glyph-name="question" unicode="?" 
d="M352 213q-5 -7 -23 -19.5t-24 -12.5q-36 0 -24 33t38 58t55 41.5t57.5 36t51 52.5t30.5 79q11 62 -26.5 105t-105.5 43q-40 0 -80.5 -18t-68.5 -46q-7 -6 -18.5 -8t-18.5 2l-6 4q-28 17 -1 44q40 39 95 63.5t110 24.5q96 0 150.5 -62.5t38.5 -151.5q-11 -61 -43 -107
t-65.5 -68t-70.5 -47.5t-51 -45.5zM334 52q-4 -22 -21.5 -37t-39.5 -15q-21 0 -33.5 15t-8.5 37q4 21 21.5 36t38.5 15q22 0 34.5 -15t8.5 -36z" />
    <glyph glyph-name="at" unicode="@" 
d="M133 347q-8 -5 -14.5 -1.5t-5.5 11.5l6 32q1 10 9.5 20.5t18.5 14.5q61 23 123 23q126 0 200 -90t52 -216q-14 -78 -69 -120t-109 -38q-49 5 -71 46q-2 4 -9 4.5t-12 -3.5q-45 -31 -92 -31q-45 0 -67 21.5t-15 60.5q5 30 31.5 58t84.5 38q29 6 73 2q16 -2 16 14
q0 23 -12.5 37t-36.5 14q-32 0 -58 -29q-10 -10 -20 -6l-19 10q-22 12 -3 31q46 51 110 51q53 0 84.5 -37.5t22.5 -89.5l-16 -90q-4 -18 5 -29t27 -12q37 0 58.5 32t27.5 66q17 95 -42 167t-153 72q-65 0 -125 -33zM258 90q9 7 12 22q2 11 -9 13q-37 4 -60 0q-7 -1 -13 -3
t-10.5 -4t-8.5 -4.5t-6.5 -4t-4.5 -4.5t-3.5 -4.5t-2.5 -4t-1.5 -3.5t-0.5 -3l-1 -3q0 -5 -0.5 -11.5t8 -12t25.5 -5.5q42 0 76 32z" />
    <glyph glyph-name="A" unicode="A" 
d="M494 36q1 -14 -9 -25t-25 -11h-6q-13 0 -22.5 9t-11.5 21l-10 121q-2 12 -11.5 21t-22.5 9h-140q-13 0 -26 -9t-18 -21l-54 -121q-5 -12 -18 -21t-26 -9h-5q-15 0 -21.5 10.5t0.5 24.5l281 629q5 12 18.5 21t25.5 9h8q12 0 22 -9t11 -21zM386 418q-2 30 -33 30t-44 -30
l-53 -121q-9 -20 0 -35t30 -15h64q20 0 34 15t13 35z" />
    <glyph glyph-name="B" unicode="B" 
d="M90 0q-17 0 -26.5 12t-6.5 28l108 615q3 17 17 28.5t31 11.5h194q88 0 140.5 -55.5t38.5 -134.5q-15 -82 -90 -138q-8 -6 -10.5 -20t3.5 -20q56 -56 42 -137q-14 -79 -86.5 -134.5t-160.5 -55.5h-194zM462 190q9 52 -26.5 88.5t-95.5 36.5h-125q-17 0 -31 -11.5
t-17 -28.5l-29 -169q-3 -16 6.5 -28t26.5 -12h125q60 0 108 36t58 88zM517 505q9 51 -26.5 87.5t-95.5 36.5h-125q-16 0 -30 -11.5t-17 -28.5l-30 -169q-3 -16 6.5 -28t26.5 -12h125q60 0 108.5 36.5t57.5 88.5z" />
    <glyph glyph-name="C" unicode="C" 
d="M284 66q54 0 102 31.5t69 80.5q5 11 20 23.5t25 12.5q37 0 26 -35q-27 -77 -99 -128t-155 -51q-92 0 -146 62.5t-38 151.5l47 267q16 89 92 151.5t168 62.5q83 0 136.5 -51.5t53.5 -127.5q0 -16 -10.5 -25.5t-27.5 -9.5q-10 0 -20.5 12.5t-11.5 23.5q-5 49 -41.5 80.5
t-90.5 31.5q-64 0 -116.5 -43.5t-62.5 -104.5l-47 -267q-11 -61 26 -104.5t101 -43.5z" />
    <glyph glyph-name="D" unicode="D" 
d="M165 655q3 17 17 28.5t31 11.5h125q133 0 191 -92.5t30 -252.5q-29 -161 -120 -255.5t-224 -94.5h-125q-17 0 -26.5 12t-6.5 28zM138 106q-3 -16 6.5 -28t26.5 -12h56q101 0 170.5 78.5t91.5 203.5t-20 203t-143 78h-56q-16 0 -30 -11.5t-17 -28.5z" />
    <glyph glyph-name="E" unicode="E" 
d="M90 0q-17 0 -26.5 12t-6.5 28l108 615q3 17 17 28.5t31 11.5h374q13 0 21 -9.5t6 -23.5q-2 -13 -13.5 -23t-25.5 -10h-305q-16 0 -30 -11.5t-17 -28.5l-30 -169q-3 -16 6.5 -28t26.5 -12h123q13 0 20.5 -9.5t5.5 -22.5q-2 -14 -13.5 -23.5t-24.5 -9.5h-122
q-17 0 -31 -11.5t-17 -28.5l-29 -169q-3 -16 6.5 -28t26.5 -12h305q13 0 21 -9.5t6 -23.5q-2 -13 -13.5 -23t-25.5 -10h-374z" />
    <glyph glyph-name="F" unicode="F" 
d="M85 0q-15 0 -23 10t-6 25l109 620q3 17 17 28.5t31 11.5h374q13 0 21 -9.5t6 -23.5q-2 -13 -13.5 -23t-25.5 -10h-305q-16 0 -30 -11.5t-17 -28.5l-30 -169q-3 -16 6.5 -28t26.5 -12h123q13 0 20.5 -9.5t5.5 -22.5q-2 -14 -13.5 -23.5t-24.5 -9.5h-122q-17 0 -31 -11.5
t-17 -28.5l-42 -240q-2 -15 -14 -25t-26 -10z" />
    <glyph glyph-name="G" unicode="G" 
d="M360 315q-13 0 -21 9.5t-6 23.5q2 13 14 22.5t25 9.5h152q17 0 26.5 -12t6.5 -28l-22 -126q-16 -88 -93 -151t-170 -63q-92 0 -146 62.5t-38 151.5l47 267q16 89 92 151.5t168 62.5q83 0 136.5 -51.5t53.5 -127.5q0 -16 -10.5 -25.5t-27.5 -9.5q-10 0 -20.5 12.5
t-11.5 23.5q-5 49 -41.5 80.5t-90.5 31.5q-64 0 -116.5 -43.5t-62.5 -104.5l-47 -267q-11 -61 26 -104.5t101 -43.5t117.5 43t64.5 105l10 61q3 17 -6.5 28.5t-25.5 11.5h-84z" />
    <glyph glyph-name="H" unicode="H" 
d="M585 695q14 0 22.5 -10t5.5 -24l-110 -626q-2 -15 -14 -25t-26 -10q-15 0 -23 10t-6 25l42 240q3 17 -6.5 28.5t-25.5 11.5h-229q-17 0 -31 -11.5t-17 -28.5l-42 -240q-2 -15 -14 -25t-26 -10q-15 0 -23 10t-6 25l110 626q3 14 15 24t26 10t22.5 -10t5.5 -24l-42 -241
q-3 -16 6.5 -28t26.5 -12h229q16 0 30 11.5t17 28.5l42 241q3 14 15 24t26 10z" />
    <glyph glyph-name="I" unicode="I" 
d="M194 629q-13 0 -21 9.5t-6 23.5t13.5 23.5t25.5 9.5h381q13 0 21 -9.5t6 -23.5q-2 -13 -13.5 -23t-25.5 -10h-118q-16 0 -30 -11.5t-17 -28.5l-85 -483q-3 -16 6.5 -28t26.5 -12h118q13 0 21 -9.5t6 -23.5q-2 -13 -13.5 -23t-25.5 -10h-381q-13 0 -21 9.5t-6 23.5
t13.5 23.5t25.5 9.5h117q16 0 30 11.5t17 28.5l85 483q3 16 -6.5 28t-26.5 12h-117z" />
    <glyph glyph-name="J" unicode="J" 
d="M580 695q16 0 25.5 -11.5t6.5 -28.5l-77 -441q-15 -87 -97.5 -150.5t-172.5 -63.5q-122 0 -180 89q-7 12 -2.5 24.5t19.5 20.5l7 3q8 4 19 2t16 -8q20 -28 56 -46.5t77 -18.5q63 0 120.5 44t68.5 104l66 375q3 16 -6.5 28t-26.5 12h-204q-13 0 -21 9.5t-6 23.5t13.5 23.5
t25.5 9.5h273z" />
    <glyph glyph-name="K" unicode="K" 
d="M207 695q14 0 22 -10t6 -24l-43 -241q-3 -16 6.5 -28t26.5 -12h81q9 0 21.5 7t17.5 15l190 271q5 8 17.5 15t21.5 7h11q13 0 17 -10t-4 -21l-207 -295q-13 -18 -7 -37l102 -301q4 -11 -3.5 -21t-20.5 -10h-11q-9 0 -19 7t-12 15l-91 270q-3 8 -13 15t-19 7h-84
q-16 0 -30 -11.5t-17 -28.5l-42 -240q-2 -14 -14 -24t-26 -10t-22 10t-6 24l111 627q2 14 14 24t26 10z" />
    <glyph glyph-name="L" unicode="L" 
d="M90 0q-17 0 -26.5 12t-6.5 28l109 621q3 14 15 24t26 10t22.5 -10t5.5 -24l-97 -555q-3 -16 6.5 -28t26.5 -12h305q13 0 21 -9.5t6 -23.5q-2 -13 -13.5 -23t-25.5 -10h-374z" />
    <glyph glyph-name="M" unicode="M" 
d="M536 671q5 9 18 16.5t23 7.5h8q14 0 22.5 -10t5.5 -24l-110 -626q-2 -15 -14 -25t-26 -10q-15 0 -23 10t-6 25l59 332q4 25 -20 30.5t-38 -17.5l-68 -109q-6 -8 -18.5 -15.5t-22.5 -7.5h-18q-9 0 -19.5 7.5t-12.5 15.5l-30 109q-4 14 -18 17t-27.5 -5.5t-16.5 -24.5
l-59 -332q-2 -15 -14 -25t-26 -10q-15 0 -23 10t-6 25l110 626q3 14 15 24t26 10h8q10 0 20.5 -7.5t12.5 -16.5l63 -247q7 -26 32.5 -26t40.5 26z" />
    <glyph glyph-name="N" unicode="N" 
d="M544 661q3 14 15 24t26 10t22.5 -10t5.5 -24l-110 -626q-2 -15 -14 -25t-26 -10h-11q-9 0 -19 6.5t-13 14.5l-150 410q-6 17 -24 20t-34.5 -8t-19.5 -31l-67 -377q-2 -15 -14 -25t-26 -10q-15 0 -23 10t-6 25l110 626q3 14 15 24t26 10h11q8 0 18.5 -7t12.5 -14l151 -404
q7 -18 24.5 -21t34.5 8.5t20 31.5z" />
    <glyph glyph-name="O" unicode="O" 
d="M582 481l-47 -268q-16 -88 -95 -151t-169 -63q-89 0 -144 63t-39 151l47 268q16 88 93 151t166 63q90 0 147 -63t41 -151zM466 213l47 268q10 61 -29.5 104.5t-101.5 43.5t-115 -43.5t-63 -104.5l-47 -268q-11 -61 26 -104.5t99 -43.5t117.5 43.5t66.5 104.5z" />
    <glyph glyph-name="P" unicode="P" 
d="M394 629h-124q-16 0 -30 -11.5t-17 -28.5l-37 -211q-3 -16 6.5 -28t26.5 -12h124q60 0 109.5 42.5t60.5 102.5q10 61 -24.5 103.5t-94.5 42.5zM165 655q3 17 17 28.5t31 11.5h193q87 0 139.5 -62.5t36.5 -149.5q-15 -87 -89.5 -149t-161.5 -62h-124q-16 0 -30 -11.5
t-17 -28.5l-35 -197q-2 -15 -14 -25t-26 -10q-15 0 -23 10t-6 25z" />
    <glyph glyph-name="Q" unicode="Q" 
d="M377 -35q-10 34 -43 40q-11 0 -13 -1q-27 -5 -50 -5q-89 0 -144 63t-39 151l47 268q16 88 93 151t166 63q90 0 147 -63t41 -151l-47 -268q-18 -99 -113 -164q-4 -2 -4 -6.5t2 -6.5q17 -18 23 -46q5 -21 22.5 -33.5t38.5 -10.5q5 0 12.5 -4t8.5 -8l3 -15q8 -35 -25 -38
q-45 -6 -79 16.5t-47 67.5zM466 213l47 268q10 61 -29.5 104.5t-101.5 43.5t-115 -43.5t-63 -104.5l-47 -268q-11 -61 26 -104.5t99 -43.5t117.5 43.5t66.5 104.5z" />
    <glyph glyph-name="R" unicode="R" 
d="M165 655q3 17 17 28.5t31 11.5h193q87 0 139.5 -62.5t36.5 -149.5q-10 -57 -49 -106.5t-93 -77.5q-15 -7 -25.5 -26t-6.5 -32l76 -207q5 -12 -3.5 -23t-22.5 -11h-15q-9 0 -19 6.5t-13 14.5l-84 230q-3 8 -13 14.5t-19 6.5h-88q-16 0 -30 -11.5t-17 -28.5l-35 -197
q-2 -15 -14 -25t-26 -10q-15 0 -23 10t-6 25zM394 629h-124q-16 0 -30 -11.5t-17 -28.5l-37 -211q-3 -16 6.5 -28t26.5 -12h124q60 0 109.5 42.5t60.5 102.5q10 61 -24.5 103.5t-94.5 42.5z" />
    <glyph glyph-name="S" unicode="S" 
d="M339 380q93 -14 149 -64.5t43 -125.5q-14 -79 -91 -134.5t-168 -55.5q-80 0 -134.5 46t-56.5 114q0 31 37 31q9 0 21 -12.5t14 -22.5q8 -39 44 -64t87 -25q63 0 115.5 36t62.5 87q8 49 -31.5 82t-103.5 42q-91 13 -146.5 64t-41.5 126q14 79 90 135t166 56q81 0 136 -46
t57 -114q1 -16 -9 -23.5t-28 -7.5q-9 0 -20.5 13t-13.5 22q-8 39 -45.5 64.5t-88.5 25.5q-62 0 -114 -37t-61 -88q-9 -49 29.5 -82t101.5 -42z" />
    <glyph glyph-name="T" unicode="T" 
d="M194 629q-13 0 -21 9.5t-6 23.5t13.5 23.5t25.5 9.5h381q13 0 21 -9.5t6 -23.5q-2 -13 -13.5 -23t-25.5 -10h-118q-16 0 -30 -11.5t-17 -28.5l-98 -556q-2 -13 -13.5 -23t-25.5 -10q-13 0 -21 9.5t-6 23.5l98 556q3 16 -6.5 28t-26.5 12h-117z" />
    <glyph glyph-name="U" unicode="U" 
d="M544 661q3 14 15 24t26 10t22.5 -10t5.5 -24l-78 -447q-16 -88 -95 -151t-169 -63q-89 0 -144 63t-39 151l78 447q3 14 15 24t26 10t22.5 -10t5.5 -24l-78 -447q-11 -61 26.5 -104.5t99.5 -43.5t117 43.5t66 104.5z" />
    <glyph glyph-name="V" unicode="V" 
d="M284 278q4 -29 34 -29t44 29l175 388q5 11 18.5 20t25.5 9h5q14 0 19.5 -10.5t-0.5 -23.5l-283 -631q-5 -12 -18 -21t-26 -9h-8q-13 0 -22.5 9t-11.5 21l-60 632q-2 13 8 23t23 10h4q12 0 22 -9t12 -20z" />
    <glyph glyph-name="W" unicode="W" 
d="M379 267q2 -15 18 -14t21 16l122 392q4 14 17.5 24t27.5 10t21 -10t2 -24l-209 -633q-4 -11 -15 -19.5t-22 -8.5q-12 0 -21 8.5t-9 19.5l-5 106q-2 26 -28.5 26t-37.5 -25l-49 -110q-5 -10 -16 -17.5t-21 -7.5q-11 0 -18.5 8t-6.5 18l21 635q1 14 11.5 24t24.5 10t24 -10
t9 -24l-18 -391q0 -16 15.5 -17t22.5 14l29 59q5 12 18 20.5t25 8.5h7q12 0 21.5 -9t11.5 -20z" />
    <glyph glyph-name="X" unicode="X" 
d="M384 370q-5 -7 -7 -19t0 -19l109 -302q4 -11 -3.5 -20.5t-19.5 -9.5h-11q-9 0 -19 6.5t-13 14.5l-74 195q-8 22 -31 22t-39 -22l-142 -195q-5 -8 -17.5 -14.5t-21.5 -6.5h-10q-13 0 -17 10t4 20l215 301q13 20 7 39l-110 295q-5 11 2.5 20.5t20.5 9.5h11q8 0 18.5 -6.5
t12.5 -13.5l74 -192q9 -22 31 -22t39 22l142 192q18 20 39 20h11q13 0 17 -9.5t-4 -20.5z" />
    <glyph glyph-name="Y" unicode="Y" 
d="M585 695q13 0 17 -9.5t-4 -20.5l-224 -309q-1 -1 -3 -5t-4 -9l-2 -5l-53 -304q-2 -13 -13.5 -23t-25.5 -10q-13 0 -21 9.5t-6 23.5l54 305q0 15 -2 19l-114 308q-5 11 2.5 20.5t20.5 9.5h11q8 0 18.5 -6.5t12.5 -13.5l74 -192q9 -22 31 -22t39 22l142 192q18 20 39 20h11
z" />
    <glyph glyph-name="Z" unicode="Z" 
d="M587 695q13 0 21 -9.5t6 -23.5l-4 -21q-3 -11 -10 -22l-408 -491q-18 -22 -10.5 -42t33.5 -20h261q13 0 21 -9.5t6 -23.5q-2 -13 -13.5 -23t-25.5 -10h-381q-13 0 -21 9.5t-6 23.5l4 21q0 12 10 22l408 491q17 22 9.5 42t-32.5 20h-261q-13 0 -21 9.5t-6 23.5t13.5 23.5
t25.5 9.5h381z" />
    <glyph glyph-name="bracketleft" unicode="[" 
d="M191 -100q-16 0 -25.5 11.5t-7.5 28.5l144 815q3 17 17 28.5t30 11.5h136q14 0 22 -10t5 -23q-2 -14 -13.5 -23.5t-24.5 -9.5h-70q-17 0 -31 -11.5t-17 -28.5l-120 -683q-3 -16 6.5 -28t26.5 -12h70q13 0 21 -9.5t6 -23.5t-13.5 -23.5t-25.5 -9.5h-136z" />
    <glyph glyph-name="backslash" unicode="\" 
d="M432 -100q-11 0 -21 7.5t-12 17.5l-201 836q-3 13 6 23.5t23 10.5h11q10 0 20 -7.5t12 -17.5l201 -836q3 -13 -6 -23.5t-23 -10.5h-10z" />
    <glyph glyph-name="bracketright" unicode="]" 
d="M478 795q17 0 26.5 -12t6.5 -28l-144 -815q-2 -16 -16 -28t-31 -12h-136q-13 0 -21 9.5t-6 23.5q2 13 13.5 23t25.5 10h70q16 0 30 11.5t17 28.5l120 683q3 17 -6.5 28.5t-25.5 11.5h-70q-14 0 -22 9.5t-6 23.5q3 14 14.5 23.5t24.5 9.5h136z" />
    <glyph glyph-name="asciicircum" unicode="^" 
d="M550 412q5 -11 -2.5 -21.5t-20.5 -10.5h-16q-8 0 -17.5 6t-12.5 13l-74 165q-10 20 -31 20t-37 -20l-132 -165q-5 -7 -17 -13t-20 -6h-15q-14 0 -18 10.5t5 21.5l204 264q17 19 38 19h24q8 0 18 -6t13 -13z" />
    <glyph glyph-name="underscore" unicode="_" 
d="M85 0q-15 0 -23 10t-6 25q2 14 14.5 24t26.5 10h378q14 0 22 -10t6 -24q-2 -15 -14 -25t-26 -10h-378z" />
    <glyph glyph-name="grave" unicode="`" 
d="M384 572q9 -10 6.5 -24t-14.5 -24t-26.5 -10.5t-22.5 9.5l-105 127q-8 10 -5.5 24.5t14.5 24.5t26.5 10t22.5 -10z" />
    <glyph glyph-name="a" unicode="a" 
d="M474 259l-21 -120q-4 -23 6.5 -42t30.5 -26q5 -2 11 -9.5t5 -12.5l-4 -22q-5 -30 -32 -24q-49 11 -74 52q-3 6 -14 7.5t-18 -3.5q-81 -59 -172 -59q-67 0 -98.5 32t-21.5 90q3 19 11.5 37t26.5 40t52 39t80 25q54 9 136 2q14 -2 22 5t7 20q-5 38 -33 63t-69 25
q-61 0 -106 -48q-6 -6 -17 -10t-17 0l-9 5q-30 15 -8 41q71 81 169 81q78 0 124 -55t33 -133zM375 141q11 11 14 25l2 12q2 10 -4 18t-17 10q-81 6 -121 -1q-34 -6 -57.5 -17t-33 -25t-12.5 -20.5t-5 -17.5q0 -10 -1.5 -22.5t16 -24t53.5 -11.5q90 0 166 74z" />
    <glyph glyph-name="b" unicode="b" 
d="M352 447q93 0 147 -65.5t37 -158.5q-16 -92 -93 -157.5t-170 -65.5q-73 0 -124 43q-5 5 -14 1.5t-10 -10.5l-1 -3q-2 -13 -12.5 -22t-23.5 -9h-3q-15 0 -23 10t-6 25l110 626q3 14 15 24t26 10t22.5 -10t5.5 -24l-43 -248q-1 -8 6 -11t14 2q67 43 140 43zM285 69
q64 0 117.5 45t64.5 109q11 65 -26 110t-101 45q-63 0 -116.5 -44.5t-65.5 -110.5q-11 -64 26 -109t101 -45z" />
    <glyph glyph-name="c" unicode="c" 
d="M439 136q7 9 22.5 15t23.5 2l5 -2q33 -15 11 -43q-40 -49 -98.5 -78.5t-120.5 -29.5q-96 0 -152.5 65.5t-40.5 157.5q16 93 96 158.5t176 65.5q62 0 110 -29.5t70 -78.5q13 -28 -25 -42l-6 -3q-9 -4 -22.5 2t-17.5 15q-37 67 -121 67q-67 0 -122 -45.5t-66 -109.5
t27.5 -109t105.5 -45q85 0 145 67z" />
    <glyph glyph-name="d" unicode="d" 
d="M353 447q73 0 124 -43q5 -5 14 -2t10 11l43 248q3 14 15 24t26 10t22.5 -10t5.5 -24l-110 -626q-2 -15 -14 -25t-26 -10h-4q-13 0 -20.5 9t-5.5 22l1 3q1 7 -6 10.5t-15 -1.5q-65 -43 -139 -43q-93 0 -147 65.5t-38 157.5q16 93 93.5 158.5t170.5 65.5zM286 69
q64 0 117 45t64 109q12 66 -25.5 110.5t-100.5 44.5q-65 0 -118.5 -45.5t-64.5 -109.5t26.5 -109t101.5 -45z" />
    <glyph glyph-name="e" unicode="e" 
d="M413 123q7 7 20 10.5t20 -0.5l7 -4q29 -19 2 -46q-83 -83 -189 -83q-92 0 -146 65.5t-38 157.5q16 93 93.5 158.5t169.5 65.5t145.5 -66.5t39.5 -153.5q-7 -38 -43 -38h-302q-17 0 -25.5 -9.5t-4.5 -24.5q12 -39 45.5 -62.5t77.5 -23.5q72 0 128 54zM187 292
q-10 -15 -5 -24.5t22 -9.5h230q17 0 25.5 9.5t4.5 24.5q-13 39 -46 62.5t-78 23.5t-86 -23.5t-67 -62.5z" />
    <glyph glyph-name="f" unicode="f" 
d="M533 398q14 0 22 -10t6 -24t-14 -24t-26 -10h-178q-16 0 -30 -11.5t-17 -28.5l-45 -256q-2 -14 -14 -24t-26 -10t-22 10t-6 24l45 256q3 16 -6.5 28t-26.5 12h-53q-14 0 -22 10t-6 24t14 24t26 10h53q16 0 30 11.5t17 28.5l17 97q12 66 67 113t122 47q57 0 94.5 -36.5
t39.5 -91.5q0 -32 -37 -32h-10q-7 0 -15 9t-9 16q-3 29 -24 47.5t-52 18.5q-38 0 -69.5 -26.5t-38.5 -64.5l-17 -97q-3 -16 6.5 -28t26.5 -12h178z" />
    <glyph glyph-name="g" unicode="g" 
d="M424 -25l10 59q1 7 -6 10.5t-15 -1.5q-67 -43 -140 -43q-92 0 -146 65.5t-38 157.5q16 93 93.5 158.5t169.5 65.5q74 0 125 -43q5 -5 14 -2t10 11v3q2 13 13 22t24 9h3q14 0 22.5 -10t6.5 -24l-77 -438q-17 -92 -94 -157.5t-170 -65.5q-51 0 -92 22.5t-66 60.5
q-18 27 18 46l7 4q8 4 20 0.5t17 -10.5q38 -54 108 -54q65 0 118.5 45t64.5 109zM285 69q63 0 115 42.5t66 104.5q12 69 -24.5 115.5t-101.5 46.5q-64 0 -117.5 -45.5t-64.5 -109.5t26 -109t101 -45z" />
    <glyph glyph-name="h" unicode="h" 
d="M536 223l-33 -188q-2 -15 -14 -25t-26 -10q-15 0 -23 10t-6 25l33 188q11 65 -26 110t-101 45q-62 0 -114.5 -43.5t-66.5 -105.5l-34 -194q-2 -15 -14 -25t-26 -10q-15 0 -23 10t-6 25l110 626q3 14 15 24t26 10t22.5 -10t5.5 -24l-43 -248q-1 -8 6 -11t14 2
q67 43 140 43q93 0 147 -65.5t37 -158.5z" />
    <glyph glyph-name="i" unicode="i" 
d="M347 447q17 0 26.5 -12t6.5 -28l-53 -298q-3 -16 6.5 -28t26.5 -12h115q14 0 22 -10t6 -24q-2 -15 -14 -25t-26 -10h-378q-15 0 -23 10t-6 25q2 14 14.5 24t26.5 10h114q16 0 30 11.5t17 28.5l41 229q2 17 -7.5 28.5t-25.5 11.5h-67q-14 0 -22.5 10t-5.5 25q2 14 14 24
t26 10h136zM433 614q-4 -22 -21.5 -37t-39.5 -15q-21 0 -33.5 15t-8.5 37q4 21 21.5 36t38.5 15q22 0 34.5 -15t8.5 -36z" />
    <glyph glyph-name="j" unicode="j" 
d="M248 378q-14 0 -22.5 10t-5.5 25q2 14 14 24t26 10h247q17 0 26.5 -12t6.5 -28l-76 -432q-16 -93 -94 -158.5t-170 -65.5q-106 0 -159 83q-18 27 18 46l8 4q8 4 20 0.5t17 -10.5q36 -54 108 -54q64 0 117.5 45.5t65.5 109.5l64 363q2 17 -7.5 28.5t-25.5 11.5h-178z
M593 614q-4 -22 -21.5 -37t-39.5 -15q-21 0 -33.5 15t-8.5 37q4 21 21.5 36t38.5 15q22 0 34.5 -15t8.5 -36z" />
    <glyph glyph-name="k" unicode="k" 
d="M528 447q13 0 14.5 -11t-9.5 -19l-150 -105q-14 -10 -19 -25.5t2 -28.5l115 -226q5 -11 -2.5 -21.5t-20.5 -10.5h-18q-7 0 -17 6t-13 12l-97 196q-8 15 -24 17.5t-33 -8.5l-95 -67q-5 -4 -12 -14.5t-8 -16.5l-16 -90q-2 -15 -14 -25t-26 -10q-15 0 -23 10t-6 25l110 626
q3 14 15 24t26 10t22.5 -10t5.5 -24l-62 -353q-4 -27 15.5 -37.5t43.5 5.5l236 163q20 8 27 8h33z" />
    <glyph glyph-name="l" unicode="l" 
d="M475 69q14 0 22 -10t6 -24q-2 -15 -14 -25t-26 -10h-378q-15 0 -23 10t-6 25q2 14 14.5 24t26.5 10h114q16 0 30 11.5t17 28.5l85 480q3 16 -6.5 28t-26.5 12h-47q-13 0 -21 9.5t-6 23.5t13.5 23.5t25.5 9.5h116q16 0 25.5 -11.5t6.5 -28.5l-96 -546q-3 -16 6.5 -28
t26.5 -12h115z" />
    <glyph glyph-name="m" unicode="m" 
d="M447 447q53 0 84.5 -38t21.5 -91l-50 -284q-2 -14 -13.5 -24t-25.5 -10t-22 10t-6 24l50 284q5 26 -10.5 44t-40.5 18t-46 -18t-26 -44l-50 -283q-2 -15 -14 -25t-26 -10q-15 0 -23 10t-6 25l50 283q5 25 -9.5 42.5t-39.5 17.5t-45 -17.5t-25 -42.5l-50 -283
q-2 -15 -14 -25t-26 -10q-15 0 -23 10t-6 25l67 378q2 14 14 24t26 10h27q8 0 6 -7q0 -6 6 -5q27 12 55 12q46 0 77 -29q3 -4 12.5 -4t13.5 4q42 29 87 29z" />
    <glyph glyph-name="n" unicode="n" 
d="M352 447q93 0 147 -65.5t37 -158.5l-33 -188q-2 -15 -14 -25t-26 -10q-15 0 -23 10t-6 25l33 188q11 65 -26 110t-101 45t-117.5 -45t-64.5 -109l-33 -189q-2 -15 -14 -25t-26 -10q-15 0 -23 10t-6 25l67 378q2 14 14 24t26 10h4q13 0 20 -9t5 -22v-3q-1 -8 6 -11t14 2
q67 43 140 43z" />
    <glyph glyph-name="o" unicode="o" 
d="M352 447q93 0 147 -65.5t37 -158.5q-16 -92 -93 -157.5t-170 -65.5q-92 0 -146 65.5t-38 157.5q16 93 93.5 158.5t169.5 65.5zM285 69q64 0 117.5 45t64.5 109q11 65 -26 110t-101 45t-117.5 -45.5t-64.5 -109.5t26 -109t101 -45z" />
    <glyph glyph-name="p" unicode="p" 
d="M536 224q-16 -93 -93 -158.5t-170 -65.5q-73 0 -124 43q-5 5 -14 1.5t-10 -10.5l-44 -248q-2 -14 -14 -24t-26 -10t-22.5 10t-6.5 24l111 627q2 14 14 24t26 10h4q13 0 20 -9t5 -22v-3q-1 -8 6 -11t14 2q67 43 140 43q93 0 147 -65.5t37 -157.5zM467 224q11 64 -26 109.5
t-101 45.5q-63 0 -116.5 -44t-63.5 -105q-13 -68 24 -114.5t101 -46.5t117.5 45t64.5 110z" />
    <glyph glyph-name="q" unicode="q" 
d="M89 224q17 92 94 157.5t170 65.5q73 0 124 -43q5 -5 14 -2t10 11v3q2 13 13 22t24 9h3q14 0 22.5 -10t6.5 -24l-111 -627q-2 -14 -14 -24t-26 -10t-22.5 10t-6.5 24l44 248q1 7 -6 10.5t-15 -1.5q-65 -43 -139 -43q-93 0 -147 65.5t-38 158.5zM158 224q-11 -64 26 -109.5
t102 -45.5q64 0 117 46t66 115q10 61 -28 105t-100 44q-64 0 -118 -45.5t-65 -109.5z" />
    <glyph glyph-name="r" unicode="r" 
d="M454 378q-64 0 -117.5 -45t-64.5 -109l-20 -115q-3 -16 6.5 -28t26.5 -12h93q14 0 22 -10t6 -24q-2 -15 -14 -25t-26 -10h-281q-15 0 -23 10t-6 25q2 14 14.5 24t26.5 10h39q16 0 30 11.5t17 28.5l41 229q2 17 -7.5 28.5t-25.5 11.5h-40q-14 0 -22.5 10t-5.5 25
q2 14 14 24t26 10h118q13 0 20 -9t5 -22v-3q-1 -8 6 -11t14 2q67 43 140 43q49 0 89 -20q15 -9 4 -25l-24 -33q-8 -10 -19 -5q-26 14 -62 14z" />
    <glyph glyph-name="s" unicode="s" 
d="M318 257q112 0 161.5 -36.5t39.5 -94.5q-9 -52 -80.5 -89t-165.5 -37q-76 0 -132 27.5t-67 68.5q-5 17 3 23.5t29 6.5h17q3 0 10 -6t9 -9q9 -21 48.5 -34.5t93.5 -13.5q65 0 113.5 18.5t53.5 44.5q3 19 -6.5 32t-44 22t-94.5 9q-110 0 -160 36t-40 91q10 54 82.5 92.5
t163.5 38.5q80 0 135 -28t65 -71q4 -17 -4.5 -24.5t-28.5 -7.5h-17q-3 0 -10 6t-9 9q-9 22 -48.5 37.5t-93.5 15.5q-64 0 -113 -21t-54 -47q-3 -16 7.5 -28.5t45 -21.5t91.5 -9z" />
    <glyph glyph-name="t" unicode="t" 
d="M331 487q-3 -16 6.5 -28t26.5 -12h177q14 0 22.5 -10t6.5 -24q-3 -15 -15 -25t-26 -10h-177q-17 0 -31 -12t-16 -28l-32 -178q-7 -38 15.5 -64.5t60.5 -26.5q30 0 57.5 18.5t41.5 47.5q4 7 15 16t18 9h10q38 0 25 -32q-21 -55 -71.5 -91.5t-107.5 -36.5q-67 0 -105 47
t-27 113l32 178q2 17 -7.5 28.5t-25.5 11.5h-53q-14 0 -22.5 10t-5.5 25q2 14 14 24t26 10h53q16 0 30 11.5t17 28.5l9 53q3 14 14.5 24t25.5 10t22.5 -10t5.5 -24z" />
    <glyph glyph-name="u" unicode="u" 
d="M274 0q-93 0 -147 65.5t-38 158.5l34 189q2 14 14 24t26 10t22.5 -10t6.5 -24l-34 -189q-11 -64 26 -109.5t102 -45.5q64 0 117 45t64 109l34 190q2 14 14 24t26 10t22.5 -10t6.5 -24l-67 -378q-2 -15 -14 -25t-26 -10h-4q-13 0 -20.5 9t-5.5 22l1 3q1 8 -6 11t-15 -2
q-65 -43 -139 -43z" />
    <glyph glyph-name="v" unicode="v" 
d="M268 179q6 -26 32 -26t42 26l145 244q6 9 18.5 16.5t22.5 7.5h11q14 0 19 -10.5t-3 -23.5l-232 -389q-6 -9 -19 -16.5t-23 -7.5h-15q-10 0 -20.5 7.5t-12.5 16.5l-96 389q-3 13 6 23.5t23 10.5h10q11 0 21 -7.5t12 -17.5z" />
    <glyph glyph-name="w" unicode="w" 
d="M357 185q1 -17 18 -17t23 17l92 231q5 13 18.5 22t26.5 9h4q15 0 21.5 -10.5t-0.5 -24.5l-165 -382q-5 -12 -18 -21t-26 -9h-5q-13 0 -23 9t-10 22l-3 63q-1 16 -17.5 16t-23.5 -16l-24 -62q-4 -13 -17.5 -22.5t-26.5 -9.5h-5q-13 0 -22.5 9t-10.5 21l-31 382
q-1 14 9 24.5t24 10.5h5q13 0 22.5 -9t10.5 -22l11 -231q1 -17 18 -17t24 17l25 64q5 12 17.5 20.5t24.5 8.5t21 -8.5t9 -20.5z" />
    <glyph glyph-name="x" unicode="x" 
d="M477 432q4 5 16 10t18 5h23q13 0 16.5 -11t-7.5 -21l-166 -166q-10 -10 -13 -25.5t4 -25.5l108 -166q7 -10 -0.5 -21t-20.5 -11h-23q-6 0 -15.5 5t-12.5 10l-76 120q-10 15 -28.5 15t-33.5 -15l-118 -120q-15 -15 -34 -15h-22q-14 0 -17 11t7 21l166 166q10 10 13 25
t-4 25l-107 167q-7 10 0 21t20 11h23q6 0 15.5 -5t12.5 -10l76 -120q10 -15 28.5 -15t33.5 15z" />
    <glyph glyph-name="y" unicode="y" 
d="M268 179q6 -26 32 -26t42 26l145 244q6 9 18.5 16.5t22.5 7.5h11q14 0 19 -10.5t-3 -23.5l-381 -637q-6 -9 -18.5 -16.5t-22.5 -7.5h-10q-14 0 -19.5 10.5t2.5 23.5l122 202q8 15 6 32l-97 393q-3 13 6 23.5t23 10.5h10q11 0 21 -7.5t12 -17.5z" />
    <glyph glyph-name="z" unicode="z" 
d="M541 447q14 0 22.5 -10t6.5 -24l-3 -17q-1 -5 -7.5 -15.5t-11.5 -14.5l-300 -227q-26 -19 -20.5 -44.5t34.5 -25.5h213q14 0 22 -10t6 -24q-2 -15 -14 -25t-26 -10h-378q-15 0 -23 10t-6 25l3 16q3 18 19 30l300 227q26 19 20.5 44.5t-34.5 25.5h-213q-14 0 -22.5 10
t-5.5 25q2 14 14 24t26 10h378z" />
    <glyph glyph-name="braceleft" unicode="{" 
d="M566 792q16 3 24.5 -5.5t5.5 -24.5q-1 -11 -13.5 -23t-23.5 -14q-55 -11 -98.5 -55.5t-53.5 -100.5l-6 -34q-17 -99 -103 -166q-9 -7 -12 -23t4 -23q62 -67 45 -165l-6 -36q-10 -55 18 -98t80 -54q11 -2 19 -14t6 -23q-3 -16 -14.5 -24.5t-27.5 -5.5q-78 13 -120.5 74.5
t-27.5 144.5l6 36q10 62 -26 107t-98 48h-3q-3 0 -2 3l5 31q2 11 14.5 22.5t23.5 13.5q56 11 99 54t53 98l6 34q15 83 79.5 146t146.5 77z" />
    <glyph glyph-name="bar" unicode="|" 
d="M255 -100q-13 0 -21 9.5t-6 23.5l146 829q3 14 14.5 23.5t24.5 9.5q14 0 22 -10t5 -23l-146 -829q-2 -14 -13.5 -23.5t-25.5 -9.5z" />
    <glyph glyph-name="braceright" unicode="}" 
d="M244 725q-11 2 -18.5 14t-6.5 23q3 16 14.5 24.5t27.5 5.5q77 -14 119 -77t27 -146l-6 -34q-10 -55 18.5 -98t80.5 -54q11 -2 19 -14t6 -22l-5 -31q-2 -3 -4 -3h-3q-63 -3 -115.5 -48t-62.5 -107l-6 -36q-15 -83 -79.5 -144.5t-147.5 -74.5q-16 -3 -25 5.5t-6 24.5
q2 11 14.5 23t23.5 14q56 11 99.5 54t53.5 98l6 36q17 98 103 165q9 7 12 23t-4 23q-62 66 -45 166l6 34q10 56 -17.5 100.5t-78.5 55.5z" />
    <glyph glyph-name="asciitilde" unicode="~" 
d="M282 234q-7 25 -29.5 36t-49.5 0q-41 -14 -50 -62q-2 -7 0 -29q2 -7 -7 -11l-45 -17q-12 -4 -14 8q-5 30 -1 50q7 40 35 73.5t69 49.5q53 17 100.5 -2.5t58.5 -70.5q5 -26 28.5 -38t49.5 -2q43 16 52 64q1 10 -2 28q0 7 7 11l50 19q12 3 14 -8q3 -27 -1 -48
q-7 -41 -36.5 -76.5t-69.5 -51.5q-55 -19 -99.5 2.5t-59.5 74.5z" />
    <glyph glyph-name="exclamdown" unicode="&#xa1;" 
d="M358 474q13 0 21 -9.5t6 -23.5l-72 -408q-2 -13 -13.5 -23t-25.5 -10q-13 0 -21 9.5t-6 23.5l72 408q2 14 13.5 23.5t25.5 9.5zM335 643q4 22 22 37t40 15q21 0 33 -15t8 -37q-4 -21 -21.5 -36t-38.5 -15q-22 0 -34.5 15t-8.5 36z" />
    <glyph glyph-name="cent" unicode="&#xa2;" 
d="M261 -70q-14 0 -22 9.5t-6 23.5l2 6q1 12 -6.5 25t-18.5 17q-65 23 -99.5 81t-21.5 131t67.5 131.5t128.5 80.5q12 4 24.5 17t14.5 25l1 7q3 14 14.5 23.5t24.5 9.5q14 0 22 -10t5 -23v-2q-2 -12 8 -26t22 -17q84 -23 119 -98q14 -31 -24 -44l-10 -4q-8 -3 -19.5 2
t-15.5 12q-22 45 -71 62q-12 4 -21.5 -2t-11.5 -19l-44 -250q-2 -14 5 -19.5t20 -1.5q55 17 94 62q6 8 19.5 13.5t20.5 1.5l8 -3q33 -15 8 -46q-61 -76 -153 -97q-13 -3 -28 -17t-17 -26l-1 -2q-2 -14 -13.5 -23.5t-24.5 -9.5zM161 223q-7 -44 9 -80t51 -56q14 -7 24.5 -0.5
t13.5 23.5l40 226q3 17 -5.5 23.5t-24.5 -0.5q-41 -19 -70.5 -55.5t-37.5 -80.5z" />
    <glyph glyph-name="sterling" unicode="&#xa3;" 
d="M386 340q13 0 21 -9.5t6 -22.5q-2 -14 -13.5 -23.5t-24.5 -9.5h-62q-7 0 -24.5 -10t-23.5 -17q-7 -9 -54.5 -56t-64.5 -82q-20 -41 27 -41h302q14 0 22 -10t6 -24q-2 -15 -14 -25t-26 -10h-378q-15 0 -23 10t-6 25l6 34q4 23 13.5 44.5t18.5 36.5t25.5 33.5t25.5 27
t27.5 25t22.5 20.5q5 4 6 8.5t-2 7.5t-9 3h-59q-13 0 -21 9.5t-6 23.5q2 13 13.5 22.5t24.5 9.5h36q7 0 11 6t-1 10q-20 23 -30 36t-19 38.5t-4 50.5q16 89 92.5 151.5t172.5 62.5q56 0 102.5 -21t72.5 -58q19 -26 -17 -43l-8 -4q-8 -4 -18.5 -2t-15.5 8q-18 25 -52.5 39.5
t-75.5 14.5q-68 0 -120.5 -43t-63.5 -105q-5 -27 4.5 -47t33.5 -44.5t30 -32.5q3 -4 15 -10.5t17 -6.5h82z" />
    <glyph glyph-name="yen" unicode="&#xa5;" 
d="M179 156q-13 0 -21 9.5t-6 23.5q2 13 13.5 22.5t24.5 9.5h56q14 0 25.5 10t13.5 23q2 14 -6 23.5t-21 9.5h-56q-13 0 -21 9.5t-6 23.5q2 13 14 22.5t25 9.5h27q21 0 34 16.5t6 35.5l-97 261q-5 11 2.5 20.5t20.5 9.5h11q8 0 18.5 -6.5t12.5 -13.5l74 -192q9 -22 31 -22
t39 22l142 192q18 20 39 20h11q13 0 17 -9.5t-4 -20.5l-190 -260q-14 -19 -7 -36t29 -17h28q13 0 20.5 -9.5t5.5 -22.5q-2 -14 -13.5 -23.5t-24.5 -9.5h-56q-14 0 -25.5 -9.5t-13.5 -23.5t6 -23.5t21 -9.5h56q13 0 21 -9.5t6 -22.5q-2 -14 -13.5 -23.5t-24.5 -9.5h-49
q-17 0 -31 -11.5t-17 -28.5l-14 -83q-2 -13 -13.5 -23t-25.5 -10q-13 0 -21 9.5t-6 23.5l14 83q3 17 -6.5 28.5t-25.5 11.5h-49z" />
    <glyph glyph-name="section" unicode="&#xa7;" 
d="M149 -49q4 -4 8.5 -2t5.5 8l113 638q11 66 66 113t122 47q57 0 94.5 -36.5t39.5 -91.5q1 -16 -9 -24t-28 -8h-18q-5 0 -10 6t-5 11q0 31 -21 52q-5 4 -9 2t-6 -8l-112 -638q-12 -66 -67 -113t-122 -47q-57 0 -94.5 36.5t-39.5 91.5q-1 16 9 24t28 8h18q5 0 10 -6t5 -11
q0 -32 22 -52zM344 595l-113 -643q-2 -9 3 -12.5t14 0.5q53 25 64 80l113 642q2 10 -3 13.5t-15 -0.5q-24 -11 -41.5 -32.5t-21.5 -47.5z" />
    <glyph glyph-name="dieresis" unicode="&#xa8;" 
d="M504 659q22 0 34.5 -15t8.5 -37q-4 -21 -21.5 -36t-39.5 -15q-21 0 -33.5 15t-8.5 36q4 22 21.5 37t38.5 15zM275 659q22 0 34.5 -15t8.5 -37q-4 -21 -21.5 -36t-39.5 -15q-21 0 -33.5 15t-8.5 36q4 22 21.5 37t38.5 15z" />
    <glyph glyph-name="guillemotleft" unicode="&#xab;" 
d="M343 446q11 7 20 2.5t7 -16.5l-3 -19q-5 -20 -20 -31l-150 -106q-18 -13 -21 -31t10 -31l112 -105q4 -4 7.5 -14.5t2.5 -16.5l-4 -18q-1 -13 -12.5 -18t-19.5 3l-171 154q-5 4 -8 14.5t-2 17.5l5 29q1 7 8 17.5t13 14.5zM547 446q11 7 20 2.5t7 -16.5l-3 -19
q-5 -20 -20 -31l-150 -106q-18 -13 -21 -31t10 -31l112 -105q4 -4 7.5 -14.5t2.5 -16.5l-4 -18q-1 -13 -12.5 -18t-19.5 3l-171 154q-5 4 -8 14.5t-2 17.5l5 29q1 7 8 17.5t13 14.5z" />
    <glyph glyph-name="macron" unicode="&#xaf;" 
d="M257 597q-13 0 -21 9.5t-6 23.5q2 13 13.5 22.5t24.5 9.5h244q13 0 21 -9.5t6 -22.5q-2 -14 -13.5 -23.5t-24.5 -9.5h-244z" />
    <glyph glyph-name="degree" unicode="&#xb0;" 
d="M397 706q54 0 85.5 -38t22.5 -92q-10 -53 -54.5 -91t-98.5 -38q-53 0 -84.5 38t-21.5 91q9 54 53.5 92t97.5 38zM364 515q26 0 47.5 18t25.5 43t-11 43.5t-41 18.5q-25 0 -45.5 -18t-25.5 -44t10 -43.5t40 -17.5z" />
    <glyph glyph-name="plusminus" unicode="&#xb1;" 
d="M158 35q-13 0 -21 9.5t-6 23.5q2 13 13.5 22.5t24.5 9.5h50q16 0 30 11.5t17 28.5l7 41q3 16 -6.5 28t-26.5 12h-50q-13 0 -20.5 10t-5.5 23t13.5 22.5t24.5 9.5h49q17 0 31 11.5t16 28.5l9 50q2 13 13.5 22.5t24.5 9.5t21 -9.5t6 -22.5l-9 -50q-2 -17 7.5 -28.5
t25.5 -11.5h50q13 0 21 -9.5t6 -22.5t-13.5 -23t-25.5 -10h-49q-16 0 -30 -11.5t-17 -28.5l-7 -41q-3 -16 6.5 -28t26.5 -12h49q13 0 21 -9.5t6 -22.5q-2 -14 -13.5 -23.5t-24.5 -9.5h-244z" />
    <glyph glyph-name="acute" unicode="&#xb4;" 
d="M285 523q-12 -10 -26.5 -9.5t-22.5 10.5t-5.5 24t14.5 24l149 127q12 10 26.5 10t22.5 -10t5.5 -24.5t-14.5 -24.5z" />
    <glyph glyph-name="paragraph" unicode="&#xb6;" 
d="M387 695h193q16 0 25.5 -11.5t6.5 -28.5l-109 -620q-2 -15 -14 -25t-26 -10q-15 0 -23 10t-6 25l98 554q3 16 -6.5 28t-26.5 12h-15q-16 0 -30 -11.5t-17 -28.5l-98 -554q-2 -15 -14 -25t-26 -10q-15 0 -23 10t-6 25l35 197q2 13 -10 27.5t-25 16.5q-71 15 -109.5 73.5
t-25.5 133.5q16 87 90.5 149.5t161.5 62.5zM284 344q39 -12 47 34l37 211q4 21 -4.5 30.5t-29.5 3.5q-48 -13 -84.5 -51.5t-45.5 -88.5q-8 -49 14.5 -87.5t65.5 -51.5z" />
    <glyph glyph-name="cedilla" unicode="&#xb8;" 
d="M245 23q4 18 22 18h38q14 0 22 -8q29 -28 33 -67t-19 -81q-28 -46 -74.5 -67t-94.5 -13q-33 5 -13 40q5 9 21.5 18t26.5 8q37 -3 61 22t22 57t-30 47q-5 2 -10.5 11t-4.5 15z" />
    <glyph glyph-name="guillemotright" unicode="&#xbb;" 
d="M336 382q-4 4 -7 14.5t-2 16.5l3 19q2 12 13 16.5t19 -2.5l172 -154q12 -10 10 -32l-5 -29q-1 -7 -8.5 -17.5t-12.5 -14.5l-226 -154q-11 -8 -20 -3t-8 18l4 18q1 6 8 16.5t12 14.5l149 105q18 13 21 31t-10 31zM132 382q-4 4 -7 14.5t-2 16.5l3 19q2 12 13 16.5t19 -2.5
l172 -154q12 -10 10 -32l-5 -29q-1 -7 -8.5 -17.5t-12.5 -14.5l-226 -154q-11 -8 -20 -3t-8 18l4 18q1 6 8 16.5t12 14.5l149 105q18 13 21 31t-10 31z" />
    <glyph glyph-name="questiondown" unicode="&#xbf;" 
d="M329 482q5 7 22.5 19.5t24.5 12.5q36 0 24 -33t-38.5 -58t-55 -41.5t-57 -36t-51 -52.5t-30.5 -79q-11 -62 26.5 -105t105.5 -43q40 0 80 18t68 46q7 6 18.5 8t18.5 -2l6 -3q29 -18 2 -45q-40 -39 -95 -63.5t-110 -24.5q-96 0 -150.5 62.5t-38.5 151.5q11 61 43 107
t65 68t70 47.5t52 45.5zM346 643q4 22 22 37t40 15q21 0 33 -15t8 -37q-4 -21 -21.5 -36t-38.5 -15q-22 0 -34.5 15t-8.5 36z" />
    <glyph glyph-name="Agrave" unicode="&#xc0;" 
d="M494 36q1 -14 -9 -25t-25 -11h-6q-13 0 -22.5 9t-11.5 21l-10 121q-2 12 -11.5 21t-22.5 9h-140q-13 0 -26 -9t-18 -21l-54 -121q-5 -12 -18 -21t-26 -9h-5q-15 0 -21.5 10.5t0.5 24.5l281 629q5 12 18.5 21t25.5 9h8q12 0 22 -9t11 -21zM386 418q-2 30 -33 30t-44 -30
l-53 -121q-9 -20 0 -35t30 -15h64q20 0 34 15t13 35zM506 820q8 -10 5.5 -24t-13.5 -24q-12 -10 -26.5 -10.5t-23.5 9.5l-104 127q-8 10 -6 24.5t14 24.5t26.5 10t22.5 -10z" />
    <glyph glyph-name="Aacute" unicode="&#xc1;" 
d="M494 36q1 -14 -9 -25t-25 -11h-6q-13 0 -22.5 9t-11.5 21l-10 121q-2 12 -11.5 21t-22.5 9h-140q-13 0 -26 -9t-18 -21l-54 -121q-5 -12 -18 -21t-26 -9h-5q-15 0 -21.5 10.5t0.5 24.5l281 629q5 12 18.5 21t25.5 9h8q12 0 22 -9t11 -21zM386 418q-2 30 -33 30t-44 -30
l-53 -121q-9 -20 0 -35t30 -15h64q20 0 34 15t13 35zM371 771q-12 -10 -26.5 -9.5t-22.5 10.5q-9 10 -6.5 24t14.5 24l149 127q12 10 26.5 10t22.5 -10q9 -11 6.5 -25t-14.5 -24z" />
    <glyph glyph-name="Acircumflex" unicode="&#xc2;" 
d="M494 36q1 -14 -9 -25t-25 -11h-6q-13 0 -22.5 9t-11.5 21l-10 121q-2 12 -11.5 21t-22.5 9h-140q-13 0 -26 -9t-18 -21l-54 -121q-5 -12 -18 -21t-26 -9h-5q-15 0 -21.5 10.5t0.5 24.5l281 629q5 12 18.5 21t25.5 9h8q12 0 22 -9t11 -21zM386 418q-2 30 -33 30t-44 -30
l-53 -121q-9 -20 0 -35t30 -15h64q20 0 34 15t13 35zM314 811q-12 -10 -26.5 -9.5t-22.5 10.5q-9 10 -6.5 24t14.5 24l145 123q14 11 30.5 11t26.5 -11l101 -123q8 -10 5.5 -24t-13.5 -24q-12 -10 -26.5 -10.5t-23.5 9.5l-61 74q-10 11 -26 11t-30 -11z" />
    <glyph glyph-name="Atilde" unicode="&#xc3;" 
d="M494 36q1 -14 -9 -25t-25 -11h-6q-13 0 -22.5 9t-11.5 21l-10 121q-2 12 -11.5 21t-22.5 9h-140q-13 0 -26 -9t-18 -21l-54 -121q-5 -12 -18 -21t-26 -9h-5q-15 0 -21.5 10.5t0.5 24.5l281 629q5 12 18.5 21t25.5 9h8q12 0 22 -9t11 -21zM386 418q-2 30 -33 30t-44 -30
l-53 -121q-9 -20 0 -35t30 -15h64q20 0 34 15t13 35zM398 859q-2 14 -16 21t-30 0q-30 -11 -28 -53q2 -11 -11 -17l-14 -4q-30 -11 -32 16q-1 34 19 65t55 43q37 13 70.5 -0.5t44.5 -50.5q5 -16 17.5 -23.5t26.5 -0.5q15 7 21.5 16t7.5 15.5t0 20.5q-2 12 12 18l15 6
q30 10 31 -15q2 -38 -16 -69.5t-57 -44.5q-36 -15 -70.5 -1.5t-45.5 58.5z" />
    <glyph glyph-name="Adieresis" unicode="&#xc4;" 
d="M494 36q1 -14 -9 -25t-25 -11h-6q-13 0 -22.5 9t-11.5 21l-10 121q-2 12 -11.5 21t-22.5 9h-140q-13 0 -26 -9t-18 -21l-54 -121q-5 -12 -18 -21t-26 -9h-5q-15 0 -21.5 10.5t0.5 24.5l281 629q5 12 18.5 21t25.5 9h8q12 0 22 -9t11 -21zM386 418q-2 30 -33 30t-44 -30
l-53 -121q-9 -20 0 -35t30 -15h64q20 0 34 15t13 35zM548 907q22 0 34.5 -15t8.5 -37q-4 -21 -21.5 -36t-39.5 -15q-21 0 -33.5 15t-8.5 36q4 22 21.5 37t38.5 15zM319 907q22 0 34.5 -15t8.5 -37q-4 -21 -21.5 -36t-39.5 -15q-21 0 -33.5 15t-8.5 36q4 22 21.5 37t38.5 15z
" />
    <glyph glyph-name="Aring" unicode="&#xc5;" 
d="M424 855q54 0 85.5 -38t21.5 -92q-11 -62 -69 -102q-7 -5 -14.5 -17t-6.5 -19l53 -551q1 -14 -9 -25t-25 -11h-6q-13 0 -22.5 9t-11.5 21l-10 121q-2 12 -11.5 21t-22.5 9h-140q-13 0 -26 -9t-18 -21l-54 -121q-5 -12 -18 -21t-26 -9h-5q-15 0 -21.5 10.5t0.5 24.5
l246 551q3 7 -0.5 19t-8.5 17q-45 40 -33 103q10 54 54.5 92t97.5 38zM386 418q-2 30 -33 30t-44 -30l-53 -121q-9 -20 0 -35t30 -15h64q20 0 34 15t13 35zM390 664q26 0 47.5 18t25.5 43q5 26 -10.5 44t-40.5 18t-46 -18t-26 -44t10 -43.5t40 -17.5z" />
    <glyph glyph-name="AE" unicode="&#xc6;" 
d="M313 0q-17 0 -26.5 12t-6.5 28l18 101q3 16 -6.5 28t-26.5 12h-29q-13 0 -26 -9t-18 -21l-54 -121q-5 -12 -18 -21t-26 -9h-5q-15 0 -21.5 10.5t0.5 24.5l281 630q5 12 18.5 21t25.5 9h194q13 0 21 -9.5t6 -23.5q-2 -13 -13.5 -23t-25.5 -10h-82q-16 0 -30 -11.5
t-17 -28.5l-30 -169q-3 -16 6.5 -28t26.5 -12h14q13 0 20.5 -9.5t5.5 -22.5q-2 -14 -13.5 -23.5t-24.5 -9.5h-13q-17 0 -31 -11.5t-17 -28.5l-29 -169q-3 -16 6.5 -28t26.5 -12h82q13 0 21 -9.5t6 -23.5q-2 -13 -13.5 -23t-25.5 -10h-151zM251 287q-7 -16 0.5 -28t23.5 -12
h2q16 0 30 11.5t17 28.5l20 117q2 10 -6 15.5t-18.5 2.5t-14.5 -13z" />
    <glyph glyph-name="Ccedilla" unicode="&#xc7;" 
d="M284 66q54 0 102 31.5t69 80.5q5 11 20 23.5t25 12.5q37 0 26 -35q-19 -55 -62.5 -98t-100.5 -64q-7 -2 -10.5 -11t-1.5 -15q16 -49 -14 -106q-28 -46 -74.5 -67t-94.5 -13q-33 5 -13 40q5 10 20.5 18.5t26.5 7.5q38 -3 62.5 23t21.5 58.5t-34 46.5l-3 1l-3 1
q-82 10 -127.5 70.5t-30.5 142.5l47 267q16 89 92 151.5t168 62.5q83 0 136.5 -51.5t53.5 -127.5q0 -16 -10.5 -25.5t-27.5 -9.5q-10 0 -20.5 12.5t-11.5 23.5q-5 49 -41.5 80.5t-90.5 31.5q-64 0 -116.5 -43.5t-62.5 -104.5l-47 -267q-11 -61 26 -104.5t101 -43.5z" />
    <glyph glyph-name="Egrave" unicode="&#xc8;" 
d="M90 0q-17 0 -26.5 12t-6.5 28l108 615q3 17 17 28.5t31 11.5h374q13 0 21 -9.5t6 -23.5q-2 -13 -13.5 -23t-25.5 -10h-305q-16 0 -30 -11.5t-17 -28.5l-30 -169q-3 -16 6.5 -28t26.5 -12h123q13 0 20.5 -9.5t5.5 -22.5q-2 -14 -13.5 -23.5t-24.5 -9.5h-122
q-17 0 -31 -11.5t-17 -28.5l-29 -169q-3 -16 6.5 -28t26.5 -12h305q13 0 21 -9.5t6 -23.5q-2 -13 -13.5 -23t-25.5 -10h-374zM506 820q8 -10 5.5 -24t-13.5 -24q-12 -10 -26.5 -10.5t-23.5 9.5l-104 127q-8 10 -6 24.5t14 24.5t26.5 10t22.5 -10z" />
    <glyph glyph-name="Eacute" unicode="&#xc9;" 
d="M90 0q-17 0 -26.5 12t-6.5 28l108 615q3 17 17 28.5t31 11.5h374q13 0 21 -9.5t6 -23.5q-2 -13 -13.5 -23t-25.5 -10h-305q-16 0 -30 -11.5t-17 -28.5l-30 -169q-3 -16 6.5 -28t26.5 -12h123q13 0 20.5 -9.5t5.5 -22.5q-2 -14 -13.5 -23.5t-24.5 -9.5h-122
q-17 0 -31 -11.5t-17 -28.5l-29 -169q-3 -16 6.5 -28t26.5 -12h305q13 0 21 -9.5t6 -23.5q-2 -13 -13.5 -23t-25.5 -10h-374zM371 771q-12 -10 -26.5 -9.5t-22.5 10.5q-9 10 -6.5 24t14.5 24l149 127q12 10 26.5 10t22.5 -10q9 -11 6.5 -25t-14.5 -24z" />
    <glyph glyph-name="Ecircumflex" unicode="&#xca;" 
d="M90 0q-17 0 -26.5 12t-6.5 28l108 615q3 17 17 28.5t31 11.5h374q13 0 21 -9.5t6 -23.5q-2 -13 -13.5 -23t-25.5 -10h-305q-16 0 -30 -11.5t-17 -28.5l-30 -169q-3 -16 6.5 -28t26.5 -12h123q13 0 20.5 -9.5t5.5 -22.5q-2 -14 -13.5 -23.5t-24.5 -9.5h-122
q-17 0 -31 -11.5t-17 -28.5l-29 -169q-3 -16 6.5 -28t26.5 -12h305q13 0 21 -9.5t6 -23.5q-2 -13 -13.5 -23t-25.5 -10h-374zM314 811q-12 -10 -26.5 -9.5t-22.5 10.5q-9 10 -6.5 24t14.5 24l145 123q14 11 30.5 11t26.5 -11l101 -123q8 -10 5.5 -24t-13.5 -24
q-12 -10 -26.5 -10.5t-23.5 9.5l-61 74q-10 11 -26 11t-30 -11z" />
    <glyph glyph-name="Edieresis" unicode="&#xcb;" 
d="M90 0q-17 0 -26.5 12t-6.5 28l108 615q3 17 17 28.5t31 11.5h374q13 0 21 -9.5t6 -23.5q-2 -13 -13.5 -23t-25.5 -10h-305q-16 0 -30 -11.5t-17 -28.5l-30 -169q-3 -16 6.5 -28t26.5 -12h123q13 0 20.5 -9.5t5.5 -22.5q-2 -14 -13.5 -23.5t-24.5 -9.5h-122
q-17 0 -31 -11.5t-17 -28.5l-29 -169q-3 -16 6.5 -28t26.5 -12h305q13 0 21 -9.5t6 -23.5q-2 -13 -13.5 -23t-25.5 -10h-374zM548 907q22 0 34.5 -15t8.5 -37q-4 -21 -21.5 -36t-39.5 -15q-21 0 -33.5 15t-8.5 36q4 22 21.5 37t38.5 15zM319 907q22 0 34.5 -15t8.5 -37
q-4 -21 -21.5 -36t-39.5 -15q-21 0 -33.5 15t-8.5 36q4 22 21.5 37t38.5 15z" />
    <glyph glyph-name="Igrave" unicode="&#xcc;" 
d="M194 629q-13 0 -21 9.5t-6 23.5t13.5 23.5t25.5 9.5h381q13 0 21 -9.5t6 -23.5q-2 -13 -13.5 -23t-25.5 -10h-118q-16 0 -30 -11.5t-17 -28.5l-85 -483q-3 -16 6.5 -28t26.5 -12h118q13 0 21 -9.5t6 -23.5q-2 -13 -13.5 -23t-25.5 -10h-381q-13 0 -21 9.5t-6 23.5
t13.5 23.5t25.5 9.5h117q16 0 30 11.5t17 28.5l85 483q3 16 -6.5 28t-26.5 12h-117zM506 820q8 -10 5.5 -24t-13.5 -24q-12 -10 -26.5 -10.5t-23.5 9.5l-104 127q-8 10 -6 24.5t14 24.5t26.5 10t22.5 -10z" />
    <glyph glyph-name="Iacute" unicode="&#xcd;" 
d="M194 629q-13 0 -21 9.5t-6 23.5t13.5 23.5t25.5 9.5h381q13 0 21 -9.5t6 -23.5q-2 -13 -13.5 -23t-25.5 -10h-118q-16 0 -30 -11.5t-17 -28.5l-85 -483q-3 -16 6.5 -28t26.5 -12h118q13 0 21 -9.5t6 -23.5q-2 -13 -13.5 -23t-25.5 -10h-381q-13 0 -21 9.5t-6 23.5
t13.5 23.5t25.5 9.5h117q16 0 30 11.5t17 28.5l85 483q3 16 -6.5 28t-26.5 12h-117zM371 771q-12 -10 -26.5 -9.5t-22.5 10.5q-9 10 -6.5 24t14.5 24l149 127q12 10 26.5 10t22.5 -10q9 -11 6.5 -25t-14.5 -24z" />
    <glyph glyph-name="Icircumflex" unicode="&#xce;" 
d="M194 629q-13 0 -21 9.5t-6 23.5t13.5 23.5t25.5 9.5h381q13 0 21 -9.5t6 -23.5q-2 -13 -13.5 -23t-25.5 -10h-118q-16 0 -30 -11.5t-17 -28.5l-85 -483q-3 -16 6.5 -28t26.5 -12h118q13 0 21 -9.5t6 -23.5q-2 -13 -13.5 -23t-25.5 -10h-381q-13 0 -21 9.5t-6 23.5
t13.5 23.5t25.5 9.5h117q16 0 30 11.5t17 28.5l85 483q3 16 -6.5 28t-26.5 12h-117zM314 811q-12 -10 -26.5 -9.5t-22.5 10.5q-9 10 -6.5 24t14.5 24l145 123q14 11 30.5 11t26.5 -11l101 -123q8 -10 5.5 -24t-13.5 -24q-12 -10 -26.5 -10.5t-23.5 9.5l-61 74q-10 11 -26 11
t-30 -11z" />
    <glyph glyph-name="Idieresis" unicode="&#xcf;" 
d="M194 629q-13 0 -21 9.5t-6 23.5t13.5 23.5t25.5 9.5h381q13 0 21 -9.5t6 -23.5q-2 -13 -13.5 -23t-25.5 -10h-118q-16 0 -30 -11.5t-17 -28.5l-85 -483q-3 -16 6.5 -28t26.5 -12h118q13 0 21 -9.5t6 -23.5q-2 -13 -13.5 -23t-25.5 -10h-381q-13 0 -21 9.5t-6 23.5
t13.5 23.5t25.5 9.5h117q16 0 30 11.5t17 28.5l85 483q3 16 -6.5 28t-26.5 12h-117zM548 907q22 0 34.5 -15t8.5 -37q-4 -21 -21.5 -36t-39.5 -15q-21 0 -33.5 15t-8.5 36q4 22 21.5 37t38.5 15zM319 907q22 0 34.5 -15t8.5 -37q-4 -21 -21.5 -36t-39.5 -15q-21 0 -33.5 15
t-8.5 36q4 22 21.5 37t38.5 15z" />
    <glyph glyph-name="Ntilde" unicode="&#xd1;" 
d="M544 661q3 14 15 24t26 10t22.5 -10t5.5 -24l-110 -626q-2 -15 -14 -25t-26 -10h-11q-9 0 -19 6.5t-13 14.5l-150 410q-6 17 -24 20t-34.5 -8t-19.5 -31l-67 -377q-2 -15 -14 -25t-26 -10q-15 0 -23 10t-6 25l110 626q3 14 15 24t26 10h11q8 0 18.5 -7t12.5 -14l151 -404
q7 -18 24.5 -21t34.5 8.5t20 31.5zM398 859q-2 14 -16 21t-30 0q-30 -11 -28 -53q2 -11 -11 -17l-14 -4q-30 -11 -32 16q-1 34 19 65t55 43q37 13 70.5 -0.5t44.5 -50.5q5 -16 17.5 -23.5t26.5 -0.5q15 7 21.5 16t7.5 15.5t0 20.5q-2 12 12 18l15 6q30 10 31 -15
q2 -38 -16 -69.5t-57 -44.5q-36 -15 -70.5 -1.5t-45.5 58.5z" />
    <glyph glyph-name="Ograve" unicode="&#xd2;" 
d="M582 481l-47 -268q-16 -88 -95 -151t-169 -63q-89 0 -144 63t-39 151l47 268q16 88 93 151t166 63q90 0 147 -63t41 -151zM466 213l47 268q10 61 -29.5 104.5t-101.5 43.5t-115 -43.5t-63 -104.5l-47 -268q-11 -61 26 -104.5t99 -43.5t117.5 43.5t66.5 104.5zM506 820
q8 -10 5.5 -24t-13.5 -24q-12 -10 -26.5 -10.5t-23.5 9.5l-104 127q-8 10 -6 24.5t14 24.5t26.5 10t22.5 -10z" />
    <glyph glyph-name="Oacute" unicode="&#xd3;" 
d="M582 481l-47 -268q-16 -88 -95 -151t-169 -63q-89 0 -144 63t-39 151l47 268q16 88 93 151t166 63q90 0 147 -63t41 -151zM466 213l47 268q10 61 -29.5 104.5t-101.5 43.5t-115 -43.5t-63 -104.5l-47 -268q-11 -61 26 -104.5t99 -43.5t117.5 43.5t66.5 104.5zM371 771
q-12 -10 -26.5 -9.5t-22.5 10.5q-9 10 -6.5 24t14.5 24l149 127q12 10 26.5 10t22.5 -10q9 -11 6.5 -25t-14.5 -24z" />
    <glyph glyph-name="Ocircumflex" unicode="&#xd4;" 
d="M582 481l-47 -268q-16 -88 -95 -151t-169 -63q-89 0 -144 63t-39 151l47 268q16 88 93 151t166 63q90 0 147 -63t41 -151zM466 213l47 268q10 61 -29.5 104.5t-101.5 43.5t-115 -43.5t-63 -104.5l-47 -268q-11 -61 26 -104.5t99 -43.5t117.5 43.5t66.5 104.5zM314 811
q-12 -10 -26.5 -9.5t-22.5 10.5q-9 10 -6.5 24t14.5 24l145 123q14 11 30.5 11t26.5 -11l101 -123q8 -10 5.5 -24t-13.5 -24q-12 -10 -26.5 -10.5t-23.5 9.5l-61 74q-10 11 -26 11t-30 -11z" />
    <glyph glyph-name="Otilde" unicode="&#xd5;" 
d="M582 481l-47 -268q-16 -88 -95 -151t-169 -63q-89 0 -144 63t-39 151l47 268q16 88 93 151t166 63q90 0 147 -63t41 -151zM466 213l47 268q10 61 -29.5 104.5t-101.5 43.5t-115 -43.5t-63 -104.5l-47 -268q-11 -61 26 -104.5t99 -43.5t117.5 43.5t66.5 104.5zM398 859
q-2 14 -16 21t-30 0q-30 -11 -28 -53q2 -11 -11 -17l-14 -4q-30 -11 -32 16q-1 34 19 65t55 43q37 13 70.5 -0.5t44.5 -50.5q5 -16 17.5 -23.5t26.5 -0.5q15 7 21.5 16t7.5 15.5t0 20.5q-2 12 12 18l15 6q30 10 31 -15q2 -38 -16 -69.5t-57 -44.5q-36 -15 -70.5 -1.5
t-45.5 58.5z" />
    <glyph glyph-name="Odieresis" unicode="&#xd6;" 
d="M582 481l-47 -268q-16 -88 -95 -151t-169 -63q-89 0 -144 63t-39 151l47 268q16 88 93 151t166 63q90 0 147 -63t41 -151zM466 213l47 268q10 61 -29.5 104.5t-101.5 43.5t-115 -43.5t-63 -104.5l-47 -268q-11 -61 26 -104.5t99 -43.5t117.5 43.5t66.5 104.5zM548 907
q22 0 34.5 -15t8.5 -37q-4 -21 -21.5 -36t-39.5 -15q-21 0 -33.5 15t-8.5 36q4 22 21.5 37t38.5 15zM319 907q22 0 34.5 -15t8.5 -37q-4 -21 -21.5 -36t-39.5 -15q-21 0 -33.5 15t-8.5 36q4 22 21.5 37t38.5 15z" />
    <glyph glyph-name="multiply" unicode="&#xd7;" 
d="M348 268q-9 11 -25.5 11t-30.5 -11l-71 -60q-11 -10 -25 -10t-22 10q-8 9 -5.5 23t13.5 24l71 60q14 11 17 28t-7 28l-49 61q-8 9 -5.5 23t13.5 24q11 9 25 9t22 -9l49 -61q10 -11 27 -11t30 11l71 61q11 9 25 9t22 -9q8 -10 5.5 -24t-13.5 -23l-71 -61q-14 -11 -17 -28
t7 -28l49 -60q8 -10 5.5 -24t-13.5 -23q-11 -10 -25 -10t-22 10z" />
    <glyph glyph-name="Oslash" unicode="&#xd8;" 
d="M193 14q-17 6 -24 -8l-48 -81q-5 -10 -18 -17.5t-23 -7.5h-11q-14 0 -19 10.5t3 23.5l60 102q5 8 5 22t-4 21q-39 58 -26 134l47 268q16 88 93 151t166 63q43 0 80 -17q15 -6 25 8l50 84q5 10 17.5 17.5t23.5 7.5h10q14 0 19.5 -10.5t-2.5 -23.5l-61 -104q-5 -8 -5.5 -22
t4.5 -21q40 -61 27 -133l-47 -268q-16 -88 -95 -151t-169 -63q-44 0 -78 15zM466 213l47 268q6 38 -8 71q-5 11 -14 -2l-270 -457q-6 -11 3 -16q26 -12 58 -12q62 0 117.5 43.5t66.5 104.5zM382 629q-62 0 -115 -43.5t-63 -104.5l-47 -268q-7 -37 6 -72q2 -4 6 -3.5t7 5.5
l270 455q9 12 -4 18q-29 13 -60 13z" />
    <glyph glyph-name="Ugrave" unicode="&#xd9;" 
d="M544 661q3 14 15 24t26 10t22.5 -10t5.5 -24l-78 -447q-16 -88 -95 -151t-169 -63q-89 0 -144 63t-39 151l78 447q3 14 15 24t26 10t22.5 -10t5.5 -24l-78 -447q-11 -61 26.5 -104.5t99.5 -43.5t117 43.5t66 104.5zM506 820q8 -10 5.5 -24t-13.5 -24q-12 -10 -26.5 -10.5
t-23.5 9.5l-104 127q-8 10 -6 24.5t14 24.5t26.5 10t22.5 -10z" />
    <glyph glyph-name="Uacute" unicode="&#xda;" 
d="M544 661q3 14 15 24t26 10t22.5 -10t5.5 -24l-78 -447q-16 -88 -95 -151t-169 -63q-89 0 -144 63t-39 151l78 447q3 14 15 24t26 10t22.5 -10t5.5 -24l-78 -447q-11 -61 26.5 -104.5t99.5 -43.5t117 43.5t66 104.5zM371 771q-12 -10 -26.5 -9.5t-22.5 10.5q-9 10 -6.5 24
t14.5 24l149 127q12 10 26.5 10t22.5 -10q9 -11 6.5 -25t-14.5 -24z" />
    <glyph glyph-name="Ucircumflex" unicode="&#xdb;" 
d="M544 661q3 14 15 24t26 10t22.5 -10t5.5 -24l-78 -447q-16 -88 -95 -151t-169 -63q-89 0 -144 63t-39 151l78 447q3 14 15 24t26 10t22.5 -10t5.5 -24l-78 -447q-11 -61 26.5 -104.5t99.5 -43.5t117 43.5t66 104.5zM314 811q-12 -10 -26.5 -9.5t-22.5 10.5q-9 10 -6.5 24
t14.5 24l145 123q14 11 30.5 11t26.5 -11l101 -123q8 -10 5.5 -24t-13.5 -24q-12 -10 -26.5 -10.5t-23.5 9.5l-61 74q-10 11 -26 11t-30 -11z" />
    <glyph glyph-name="Udieresis" unicode="&#xdc;" 
d="M544 661q3 14 15 24t26 10t22.5 -10t5.5 -24l-78 -447q-16 -88 -95 -151t-169 -63q-89 0 -144 63t-39 151l78 447q3 14 15 24t26 10t22.5 -10t5.5 -24l-78 -447q-11 -61 26.5 -104.5t99.5 -43.5t117 43.5t66 104.5zM548 907q22 0 34.5 -15t8.5 -37q-4 -21 -21.5 -36
t-39.5 -15q-21 0 -33.5 15t-8.5 36q4 22 21.5 37t38.5 15zM319 907q22 0 34.5 -15t8.5 -37q-4 -21 -21.5 -36t-39.5 -15q-21 0 -33.5 15t-8.5 36q4 22 21.5 37t38.5 15z" />
    <glyph glyph-name="Yacute" unicode="&#xdd;" 
d="M585 695q13 0 17 -9.5t-4 -20.5l-224 -309q-1 -1 -3 -5t-4 -9l-2 -5l-53 -304q-2 -13 -13.5 -23t-25.5 -10q-13 0 -21 9.5t-6 23.5l54 305q0 15 -2 19l-114 308q-5 11 2.5 20.5t20.5 9.5h11q8 0 18.5 -6.5t12.5 -13.5l74 -192q9 -22 31 -22t39 22l142 192q18 20 39 20h11
zM371 771q-12 -10 -26.5 -9.5t-22.5 10.5q-9 10 -6.5 24t14.5 24l149 127q12 10 26.5 10t22.5 -10q9 -11 6.5 -25t-14.5 -24z" />
    <glyph glyph-name="germandbls" unicode="&#xdf;" 
d="M274 0q-15 0 -23 10t-6 25q2 14 14.5 24t26.5 10h76q60 0 86 44q21 36 -2 64q-15 18 -46 21q-58 5 -88.5 41t-22.5 91q12 62 71 104q5 4 13.5 16.5t10.5 18.5l11 66q7 37 -15 64t-60 27t-69 -26.5t-38 -64.5l-88 -500q-2 -15 -14 -25t-26 -10q-15 0 -23 10t-6 25l88 500
q12 66 67 113t122 47q66 0 104.5 -47t26.5 -113l-21 -120q-1 -6 -9 -13t-14 -9q-24 -6 -42 -23t-22 -41q-4 -25 12 -43t45 -21q61 -7 87.5 -43.5t19.5 -90.5q-12 -60 -62 -95.5t-108 -35.5h-76z" />
    <glyph glyph-name="agrave" unicode="&#xe0;" 
d="M474 259l-21 -120q-4 -23 6.5 -42t30.5 -26q5 -2 11 -9.5t5 -12.5l-4 -22q-5 -30 -32 -24q-49 11 -74 52q-3 6 -14 7.5t-18 -3.5q-81 -59 -172 -59q-67 0 -98.5 32t-21.5 90q3 19 11.5 37t26.5 40t52 39t80 25q54 9 136 2q14 -2 22 5t7 20q-5 38 -33 63t-69 25
q-61 0 -106 -48q-6 -6 -17 -10t-17 0l-9 5q-30 15 -8 41q71 81 169 81q78 0 124 -55t33 -133zM375 141q11 11 14 25l2 12q2 10 -4 18t-17 10q-81 6 -121 -1q-34 -6 -57.5 -17t-33 -25t-12.5 -20.5t-5 -17.5q0 -10 -1.5 -22.5t16 -24t53.5 -11.5q90 0 166 74zM384 572
q9 -10 6.5 -24t-14.5 -24t-26.5 -10.5t-22.5 9.5l-105 127q-8 10 -5.5 24.5t14.5 24.5t26.5 10t22.5 -10z" />
    <glyph glyph-name="aacute" unicode="&#xe1;" 
d="M474 259l-21 -120q-4 -23 6.5 -42t30.5 -26q5 -2 11 -9.5t5 -12.5l-4 -22q-5 -30 -32 -24q-49 11 -74 52q-3 6 -14 7.5t-18 -3.5q-81 -59 -172 -59q-67 0 -98.5 32t-21.5 90q3 19 11.5 37t26.5 40t52 39t80 25q54 9 136 2q14 -2 22 5t7 20q-5 38 -33 63t-69 25
q-61 0 -106 -48q-6 -6 -17 -10t-17 0l-9 5q-30 15 -8 41q71 81 169 81q78 0 124 -55t33 -133zM375 141q11 11 14 25l2 12q2 10 -4 18t-17 10q-81 6 -121 -1q-34 -6 -57.5 -17t-33 -25t-12.5 -20.5t-5 -17.5q0 -10 -1.5 -22.5t16 -24t53.5 -11.5q90 0 166 74zM327 523
q-12 -10 -26.5 -9.5t-22.5 10.5t-5.5 24t14.5 24l149 127q12 10 26.5 10t22.5 -10t5.5 -24.5t-14.5 -24.5z" />
    <glyph glyph-name="acircumflex" unicode="&#xe2;" 
d="M474 259l-21 -120q-4 -23 6.5 -42t30.5 -26q5 -2 11 -9.5t5 -12.5l-4 -22q-5 -30 -32 -24q-49 11 -74 52q-3 6 -14 7.5t-18 -3.5q-81 -59 -172 -59q-67 0 -98.5 32t-21.5 90q3 19 11.5 37t26.5 40t52 39t80 25q54 9 136 2q14 -2 22 5t7 20q-5 38 -33 63t-69 25
q-61 0 -106 -48q-6 -6 -17 -10t-17 0l-9 5q-30 15 -8 41q71 81 169 81q78 0 124 -55t33 -133zM375 141q11 11 14 25l2 12q2 10 -4 18t-17 10q-81 6 -121 -1q-34 -6 -57.5 -17t-33 -25t-12.5 -20.5t-5 -17.5q0 -10 -1.5 -22.5t16 -24t53.5 -11.5q90 0 166 74zM270 563
q-12 -10 -26.5 -9.5t-22.5 10.5t-5.5 24t14.5 24l144 123q14 11 30.5 11t26.5 -11l101 -123q9 -10 6.5 -24t-14.5 -24t-26.5 -10.5t-22.5 9.5l-61 74q-10 11 -27 11t-30 -11z" />
    <glyph glyph-name="atilde" unicode="&#xe3;" 
d="M474 259l-21 -120q-4 -23 6.5 -42t30.5 -26q5 -2 11 -9.5t5 -12.5l-4 -22q-5 -30 -32 -24q-49 11 -74 52q-3 6 -14 7.5t-18 -3.5q-81 -59 -172 -59q-67 0 -98.5 32t-21.5 90q3 19 11.5 37t26.5 40t52 39t80 25q54 9 136 2q14 -2 22 5t7 20q-5 38 -33 63t-69 25
q-61 0 -106 -48q-6 -6 -17 -10t-17 0l-9 5q-30 15 -8 41q71 81 169 81q78 0 124 -55t33 -133zM375 141q11 11 14 25l2 12q2 10 -4 18t-17 10q-81 6 -121 -1q-34 -6 -57.5 -17t-33 -25t-12.5 -20.5t-5 -17.5q0 -10 -1.5 -22.5t16 -24t53.5 -11.5q90 0 166 74zM355 611
q-3 14 -17 21t-30 0q-31 -12 -27 -53q0 -12 -12 -17l-14 -4q-30 -11 -31 16q-2 34 18 65t55 43q37 13 70.5 -0.5t44.5 -50.5q6 -16 18 -23t26 -1q21 10 26 21.5t3 30.5q0 13 13 18l14 6q31 10 31 -15q2 -38 -15.5 -69.5t-56.5 -44.5q-37 -15 -71 -1.5t-45 58.5z" />
    <glyph glyph-name="adieresis" unicode="&#xe4;" 
d="M474 259l-21 -120q-4 -23 6.5 -42t30.5 -26q5 -2 11 -9.5t5 -12.5l-4 -22q-5 -30 -32 -24q-49 11 -74 52q-3 6 -14 7.5t-18 -3.5q-81 -59 -172 -59q-67 0 -98.5 32t-21.5 90q3 19 11.5 37t26.5 40t52 39t80 25q54 9 136 2q14 -2 22 5t7 20q-5 38 -33 63t-69 25
q-61 0 -106 -48q-6 -6 -17 -10t-17 0l-9 5q-30 15 -8 41q71 81 169 81q78 0 124 -55t33 -133zM375 141q11 11 14 25l2 12q2 10 -4 18t-17 10q-81 6 -121 -1q-34 -6 -57.5 -17t-33 -25t-12.5 -20.5t-5 -17.5q0 -10 -1.5 -22.5t16 -24t53.5 -11.5q90 0 166 74zM504 659
q22 0 34.5 -15t8.5 -37q-4 -21 -21.5 -36t-39.5 -15q-21 0 -33.5 15t-8.5 36q4 22 21.5 37t38.5 15zM275 659q22 0 34.5 -15t8.5 -37q-4 -21 -21.5 -36t-39.5 -15q-21 0 -33.5 15t-8.5 36q4 22 21.5 37t38.5 15z" />
    <glyph glyph-name="aring" unicode="&#xe5;" 
d="M474 259l-21 -120q-4 -23 6.5 -42t30.5 -26q5 -2 11 -9.5t5 -12.5l-4 -22q-5 -30 -32 -24q-49 11 -74 52q-3 6 -14 7.5t-18 -3.5q-81 -59 -172 -59q-67 0 -98.5 32t-21.5 90q3 19 11.5 37t26.5 40t52 39t80 25q54 9 136 2q14 -2 22 5t7 20q-5 38 -33 63t-69 25
q-61 0 -106 -48q-6 -6 -17 -10t-17 0l-9 5q-30 15 -8 41q71 81 169 81q78 0 124 -55t33 -133zM375 141q11 11 14 25l2 12q2 10 -4 18t-17 10q-81 6 -121 -1q-34 -6 -57.5 -17t-33 -25t-12.5 -20.5t-5 -17.5q0 -10 -1.5 -22.5t16 -24t53.5 -11.5q90 0 166 74zM407 758
q54 0 85 -38t22 -92q-10 -53 -54.5 -91t-98.5 -38q-53 0 -84.5 38t-21.5 91q9 54 54 92t98 38zM373 567q26 0 47.5 18t25.5 43q5 26 -10.5 44t-40.5 18t-46 -18t-26 -44t10 -43.5t40 -17.5z" />
    <glyph glyph-name="ae" unicode="&#xe6;" 
d="M461 118q5 8 14 11t17 -1l3 -2q23 -14 8 -38q-55 -88 -126 -88q-63 0 -83 41q-3 7 -13.5 7t-16.5 -6q-47 -48 -121 -42q-41 3 -61 34.5t-10 87.5q18 109 109 135q31 10 90 3q14 -2 16 12q6 46 -5.5 76t-41.5 30q-41 0 -65 -40q-4 -7 -12.5 -11t-15.5 -1l-9 3
q-31 10 -15 36q42 70 107 81t99 -46q4 -6 13.5 -4.5t14.5 8.5q35 43 96 43q57 0 80 -56t3 -168q0 -4 -1 -9t-2.5 -11.5t-2.5 -9.5q-1 -4 -7 -4h-147q-17 0 -27.5 -9.5t-10.5 -25.5q-1 -38 14.5 -61.5t41.5 -23.5q38 0 67 49zM362 292q-5 -16 2 -25t23 -9h53q15 0 26 9.5
t12 24.5q5 86 -37 86q-26 0 -46.5 -23.5t-32.5 -62.5zM141 125q-8 -47 30 -55q36 -8 67 22q20 18 25 44l8 43q0 9 -9 11q-108 7 -121 -65z" />
    <glyph glyph-name="ccedilla" unicode="&#xe7;" 
d="M439 136q7 9 22.5 15t23.5 2l6 -3q14 -6 16.5 -18.5t-9.5 -26.5q-52 -63 -132 -91q-7 -2 -11 -10.5t-2 -14.5q16 -47 -14 -104q-28 -46 -74.5 -67t-94.5 -13q-33 5 -13 40q5 9 21.5 18t26.5 8q24 -2 44 9.5t29 29.5t10 37t-11.5 35t-36.5 22q-79 14 -122 76t-29 143
q16 93 96 158.5t176 65.5q62 0 110 -29.5t70 -78.5q13 -28 -25 -42l-6 -3q-9 -4 -22.5 2t-17.5 15q-37 67 -121 67q-67 0 -122 -45.5t-66 -109.5t27.5 -109t105.5 -45q85 0 145 67z" />
    <glyph glyph-name="egrave" unicode="&#xe8;" 
d="M413 123q7 7 20 10.5t20 -0.5l7 -4q29 -19 2 -46q-83 -83 -189 -83q-92 0 -146 65.5t-38 157.5q16 93 93.5 158.5t169.5 65.5q93 0 147 -65.5t37 -158.5q-1 -10 -7 -30q-1 -4 -7 -4h-330q-17 0 -25.5 -9.5t-4.5 -24.5q12 -39 45.5 -62.5t77.5 -23.5q72 0 128 54zM187 292
q-10 -15 -5 -24.5t22 -9.5h230q17 0 25.5 9.5t4.5 24.5q-13 39 -46 62.5t-78 23.5t-86 -23.5t-67 -62.5zM384 572q9 -10 6.5 -24t-14.5 -24t-26.5 -10.5t-22.5 9.5l-105 127q-8 10 -5.5 24.5t14.5 24.5t26.5 10t22.5 -10z" />
    <glyph glyph-name="eacute" unicode="&#xe9;" 
d="M413 123q7 7 20 10.5t20 -0.5l7 -4q29 -19 2 -46q-83 -83 -189 -83q-92 0 -146 65.5t-38 157.5q16 93 93.5 158.5t169.5 65.5t145.5 -66.5t39.5 -153.5q-7 -38 -43 -38h-302q-17 0 -25.5 -9.5t-4.5 -24.5q12 -39 45.5 -62.5t77.5 -23.5q72 0 128 54zM187 292
q-10 -15 -5 -24.5t22 -9.5h230q17 0 25.5 9.5t4.5 24.5q-13 39 -46 62.5t-78 23.5t-86 -23.5t-67 -62.5zM327 523q-12 -10 -26.5 -9.5t-22.5 10.5t-5.5 24t14.5 24l149 127q12 10 26.5 10t22.5 -10t5.5 -24.5t-14.5 -24.5z" />
    <glyph glyph-name="ecircumflex" unicode="&#xea;" 
d="M413 123q7 7 20 10.5t20 -0.5l7 -4q29 -19 2 -46q-83 -83 -189 -83q-92 0 -146 65.5t-38 157.5q16 93 93.5 158.5t169.5 65.5q93 0 147 -65.5t37 -158.5q-1 -10 -7 -30q-1 -4 -7 -4h-330q-17 0 -25.5 -9.5t-4.5 -24.5q12 -39 45.5 -62.5t77.5 -23.5q72 0 128 54zM187 292
q-10 -15 -5 -24.5t22 -9.5h230q17 0 25.5 9.5t4.5 24.5q-13 39 -46 62.5t-78 23.5t-86 -23.5t-67 -62.5zM270 563q-12 -10 -26.5 -9.5t-22.5 10.5t-5.5 24t14.5 24l144 123q14 11 30.5 11t26.5 -11l101 -123q9 -10 6.5 -24t-14.5 -24t-26.5 -10.5t-22.5 9.5l-61 74
q-10 11 -27 11t-30 -11z" />
    <glyph glyph-name="edieresis" unicode="&#xeb;" 
d="M413 123q7 7 20 10.5t20 -0.5l7 -4q29 -19 2 -46q-83 -83 -189 -83q-92 0 -146 65.5t-38 157.5q16 93 93.5 158.5t169.5 65.5t145.5 -66.5t39.5 -153.5q-7 -38 -43 -38h-302q-17 0 -25.5 -9.5t-4.5 -24.5q12 -39 45.5 -62.5t77.5 -23.5q72 0 128 54zM187 292
q-10 -15 -5 -24.5t22 -9.5h230q17 0 25.5 9.5t4.5 24.5q-13 39 -46 62.5t-78 23.5t-86 -23.5t-67 -62.5zM504 659q22 0 34.5 -15t8.5 -37q-4 -21 -21.5 -36t-39.5 -15q-21 0 -33.5 15t-8.5 36q4 22 21.5 37t38.5 15zM275 659q22 0 34.5 -15t8.5 -37q-4 -21 -21.5 -36
t-39.5 -15q-21 0 -33.5 15t-8.5 36q4 22 21.5 37t38.5 15z" />
    <glyph glyph-name="igrave" unicode="&#xec;" 
d="M347 447q17 0 26.5 -12t6.5 -28l-53 -298q-3 -16 6.5 -28t26.5 -12h115q14 0 22 -10t6 -24q-2 -15 -14 -25t-26 -10h-378q-15 0 -23 10t-6 25q2 14 14.5 24t26.5 10h114q16 0 30 11.5t17 28.5l41 229q2 17 -7.5 28.5t-25.5 11.5h-67q-14 0 -22.5 10t-5.5 25q2 14 14 24
t26 10h136zM462 572q9 -10 6.5 -24t-14.5 -24t-26.5 -10.5t-22.5 9.5l-105 127q-8 10 -5.5 24.5t14.5 24.5t26.5 10t22.5 -10z" />
    <glyph glyph-name="iacute" unicode="&#xed;" 
d="M347 447q17 0 26.5 -12t6.5 -28l-53 -298q-3 -16 6.5 -28t26.5 -12h115q14 0 22 -10t6 -24q-2 -15 -14 -25t-26 -10h-378q-15 0 -23 10t-6 25q2 14 14.5 24t26.5 10h114q16 0 30 11.5t17 28.5l41 229q2 17 -7.5 28.5t-25.5 11.5h-67q-14 0 -22.5 10t-5.5 25q2 14 14 24
t26 10h136zM327 523q-12 -10 -26.5 -9.5t-22.5 10.5t-5.5 24t14.5 24l149 127q12 10 26.5 10t22.5 -10t5.5 -24.5t-14.5 -24.5z" />
    <glyph glyph-name="icircumflex" unicode="&#xee;" 
d="M347 447q17 0 26.5 -12t6.5 -28l-53 -298q-3 -16 6.5 -28t26.5 -12h115q14 0 22 -10t6 -24q-2 -15 -14 -25t-26 -10h-378q-15 0 -23 10t-6 25q2 14 14.5 24t26.5 10h114q16 0 30 11.5t17 28.5l41 229q2 17 -7.5 28.5t-25.5 11.5h-67q-14 0 -22.5 10t-5.5 25q2 14 14 24
t26 10h136zM270 563q-12 -10 -26.5 -9.5t-22.5 10.5t-5.5 24t14.5 24l144 123q14 11 30.5 11t26.5 -11l101 -123q9 -10 6.5 -24t-14.5 -24t-26.5 -10.5t-22.5 9.5l-61 74q-10 11 -27 11t-30 -11z" />
    <glyph glyph-name="idieresis" unicode="&#xef;" 
d="M347 447q17 0 26.5 -12t6.5 -28l-53 -298q-3 -16 6.5 -28t26.5 -12h115q14 0 22 -10t6 -24q-2 -15 -14 -25t-26 -10h-378q-15 0 -23 10t-6 25q2 14 14.5 24t26.5 10h114q16 0 30 11.5t17 28.5l41 229q2 17 -7.5 28.5t-25.5 11.5h-67q-14 0 -22.5 10t-5.5 25q2 14 14 24
t26 10h136zM504 659q22 0 34.5 -15t8.5 -37q-4 -21 -21.5 -36t-39.5 -15q-21 0 -33.5 15t-8.5 36q4 22 21.5 37t38.5 15zM275 659q22 0 34.5 -15t8.5 -37q-4 -21 -21.5 -36t-39.5 -15q-21 0 -33.5 15t-8.5 36q4 22 21.5 37t38.5 15z" />
    <glyph glyph-name="ntilde" unicode="&#xf1;" 
d="M352 447q93 0 147 -65.5t37 -158.5l-33 -188q-2 -15 -14 -25t-26 -10q-15 0 -23 10t-6 25l33 188q11 65 -26 110t-101 45t-117.5 -45t-64.5 -109l-33 -189q-2 -15 -14 -25t-26 -10q-15 0 -23 10t-6 25l67 378q2 14 14 24t26 10h4q13 0 20 -9t5 -22v-3q-1 -8 6 -11t14 2
q67 43 140 43zM355 611q-3 14 -17 21t-30 0q-31 -12 -27 -53q0 -12 -12 -17l-14 -4q-30 -11 -31 16q-2 34 18 65t55 43q37 13 70.5 -0.5t44.5 -50.5q6 -16 18 -23t26 -1q21 10 26 21.5t3 30.5q0 13 13 18l14 6q31 10 31 -15q2 -38 -15.5 -69.5t-56.5 -44.5q-37 -15 -71 -1.5
t-45 58.5z" />
    <glyph glyph-name="ograve" unicode="&#xf2;" 
d="M352 447q93 0 147 -65.5t37 -158.5q-16 -92 -93 -157.5t-170 -65.5q-92 0 -146 65.5t-38 157.5q16 93 93.5 158.5t169.5 65.5zM285 69q64 0 117.5 45t64.5 109q11 65 -26 110t-101 45t-117.5 -45.5t-64.5 -109.5t26 -109t101 -45zM462 572q9 -10 6.5 -24t-14.5 -24
t-26.5 -10.5t-22.5 9.5l-105 127q-8 10 -5.5 24.5t14.5 24.5t26.5 10t22.5 -10z" />
    <glyph glyph-name="oacute" unicode="&#xf3;" 
d="M352 447q93 0 147 -65.5t37 -158.5q-16 -92 -93 -157.5t-170 -65.5q-92 0 -146 65.5t-38 157.5q16 93 93.5 158.5t169.5 65.5zM285 69q64 0 117.5 45t64.5 109q11 65 -26 110t-101 45t-117.5 -45.5t-64.5 -109.5t26 -109t101 -45zM327 523q-12 -10 -26.5 -9.5t-22.5 10.5
t-5.5 24t14.5 24l149 127q12 10 26.5 10t22.5 -10t5.5 -24.5t-14.5 -24.5z" />
    <glyph glyph-name="ocircumflex" unicode="&#xf4;" 
d="M352 447q93 0 147 -65.5t37 -158.5q-16 -92 -93 -157.5t-170 -65.5q-92 0 -146 65.5t-38 157.5q16 93 93.5 158.5t169.5 65.5zM285 69q64 0 117.5 45t64.5 109q11 65 -26 110t-101 45t-117.5 -45.5t-64.5 -109.5t26 -109t101 -45zM270 563q-12 -10 -26.5 -9.5t-22.5 10.5
t-5.5 24t14.5 24l144 123q14 11 30.5 11t26.5 -11l101 -123q9 -10 6.5 -24t-14.5 -24t-26.5 -10.5t-22.5 9.5l-61 74q-10 11 -27 11t-30 -11z" />
    <glyph glyph-name="otilde" unicode="&#xf5;" 
d="M352 447q93 0 147 -65.5t37 -158.5q-16 -92 -93 -157.5t-170 -65.5q-92 0 -146 65.5t-38 157.5q16 93 93.5 158.5t169.5 65.5zM285 69q64 0 117.5 45t64.5 109q11 65 -26 110t-101 45t-117.5 -45.5t-64.5 -109.5t26 -109t101 -45zM354 611q-3 14 -17 21t-30 0
q-31 -12 -27 -53q0 -12 -12 -17l-14 -4q-30 -11 -31 16q-2 34 18 65t55 43q37 13 70.5 -0.5t44.5 -50.5q6 -16 18 -23t26 -1q21 10 26 21.5t3 30.5q0 13 13 18l14 6q31 10 31 -15q2 -38 -15.5 -69.5t-56.5 -44.5q-37 -15 -71 -1.5t-45 58.5z" />
    <glyph glyph-name="odieresis" unicode="&#xf6;" 
d="M352 447q93 0 147 -65.5t37 -158.5q-16 -92 -93 -157.5t-170 -65.5q-92 0 -146 65.5t-38 157.5q16 93 93.5 158.5t169.5 65.5zM285 69q64 0 117.5 45t64.5 109q11 65 -26 110t-101 45t-117.5 -45.5t-64.5 -109.5t26 -109t101 -45zM504 659q22 0 34.5 -15t8.5 -37
q-4 -21 -21.5 -36t-39.5 -15q-21 0 -33.5 15t-8.5 36q4 22 21.5 37t38.5 15zM275 659q22 0 34.5 -15t8.5 -37q-4 -21 -21.5 -36t-39.5 -15q-21 0 -33.5 15t-8.5 36q4 22 21.5 37t38.5 15z" />
    <glyph glyph-name="divide" unicode="&#xf7;" 
d="M359 191q-4 -22 -21.5 -37t-39.5 -15q-21 0 -33.5 15t-8.5 37q4 21 21.5 36t38.5 15q22 0 34.5 -15t8.5 -36zM412 495q-4 -22 -21.5 -37t-39.5 -15q-21 0 -33.5 15t-8.5 37q4 21 21.5 36t38.5 15q22 0 34.5 -15t8.5 -36zM207 315q-13 0 -21 9.5t-6 23.5q2 13 14 22.5
t25 9.5h244q13 0 20.5 -9.5t5.5 -22.5q-2 -14 -13.5 -23.5t-24.5 -9.5h-244z" />
    <glyph glyph-name="oslash" unicode="&#xf8;" 
d="M202 12q-14 6 -24 -6l-52 -64q-5 -6 -17.5 -12t-19.5 -6h-15q-13 0 -17 10t5 21l56 68q8 9 8 25.5t-6 24.5q-46 65 -31 150q16 93 93.5 158.5t169.5 65.5q44 0 81 -17q16 -6 27 7l36 44q5 6 17.5 12t19.5 6h15q13 0 16.5 -10.5t-5.5 -20.5l-45 -55q-7 -8 -7.5 -24
t4.5 -24q39 -64 25 -142q-16 -92 -93 -157.5t-170 -65.5q-39 0 -71 12zM340 378q-64 0 -117.5 -45.5t-64.5 -109.5q-9 -57 19 -98q5 -7 12.5 -6.5t14.5 8.5l189 229q7 9 -2 13q-24 9 -51 9zM285 69q64 0 117.5 45t64.5 109q9 51 -13 90q-8 17 -23 0l-189 -229q-5 -6 3 -10
q20 -5 40 -5z" />
    <glyph glyph-name="ugrave" unicode="&#xf9;" 
d="M274 0q-93 0 -147 65.5t-38 158.5l34 189q2 14 14 24t26 10t22.5 -10t6.5 -24l-34 -189q-11 -64 26 -109.5t102 -45.5q64 0 117 45t64 109l34 190q2 14 14 24t26 10t22.5 -10t6.5 -24l-67 -378q-2 -15 -14 -25t-26 -10h-4q-13 0 -20.5 9t-5.5 22l1 3q1 8 -6 11t-15 -2
q-65 -43 -139 -43zM462 572q9 -10 6.5 -24t-14.5 -24t-26.5 -10.5t-22.5 9.5l-105 127q-8 10 -5.5 24.5t14.5 24.5t26.5 10t22.5 -10z" />
    <glyph glyph-name="uacute" unicode="&#xfa;" 
d="M274 0q-93 0 -147 65.5t-38 158.5l34 189q2 14 14 24t26 10t22.5 -10t6.5 -24l-34 -189q-11 -64 26 -109.5t102 -45.5q64 0 117 45t64 109l34 190q2 14 14 24t26 10t22.5 -10t6.5 -24l-67 -378q-2 -15 -14 -25t-26 -10h-4q-13 0 -20.5 9t-5.5 22l1 3q1 8 -6 11t-15 -2
q-65 -43 -139 -43zM327 523q-12 -10 -26.5 -9.5t-22.5 10.5t-5.5 24t14.5 24l149 127q12 10 26.5 10t22.5 -10t5.5 -24.5t-14.5 -24.5z" />
    <glyph glyph-name="ucircumflex" unicode="&#xfb;" 
d="M274 0q-93 0 -147 65.5t-38 158.5l34 189q2 14 14 24t26 10t22.5 -10t6.5 -24l-34 -189q-11 -64 26 -109.5t102 -45.5q64 0 117 45t64 109l34 190q2 14 14 24t26 10t22.5 -10t6.5 -24l-67 -378q-2 -15 -14 -25t-26 -10h-4q-13 0 -20.5 9t-5.5 22l1 3q1 8 -6 11t-15 -2
q-65 -43 -139 -43zM270 563q-12 -10 -26.5 -9.5t-22.5 10.5t-5.5 24t14.5 24l144 123q14 11 30.5 11t26.5 -11l101 -123q9 -10 6.5 -24t-14.5 -24t-26.5 -10.5t-22.5 9.5l-61 74q-10 11 -27 11t-30 -11z" />
    <glyph glyph-name="udieresis" unicode="&#xfc;" 
d="M274 0q-93 0 -147 65.5t-38 158.5l34 189q2 14 14 24t26 10t22.5 -10t6.5 -24l-34 -189q-11 -64 26 -109.5t102 -45.5q64 0 117 45t64 109l34 190q2 14 14 24t26 10t22.5 -10t6.5 -24l-67 -378q-2 -15 -14 -25t-26 -10h-4q-13 0 -20.5 9t-5.5 22l1 3q1 8 -6 11t-15 -2
q-65 -43 -139 -43zM504 659q22 0 34.5 -15t8.5 -37q-4 -21 -21.5 -36t-39.5 -15q-21 0 -33.5 15t-8.5 36q4 22 21.5 37t38.5 15zM275 659q22 0 34.5 -15t8.5 -37q-4 -21 -21.5 -36t-39.5 -15q-21 0 -33.5 15t-8.5 36q4 22 21.5 37t38.5 15z" />
    <glyph glyph-name="yacute" unicode="&#xfd;" 
d="M268 179q6 -26 32 -26t42 26l145 244q6 9 18.5 16.5t22.5 7.5h11q14 0 19 -10.5t-3 -23.5l-381 -637q-6 -9 -18.5 -16.5t-22.5 -7.5h-10q-14 0 -19.5 10.5t2.5 23.5l122 202q8 15 6 32l-97 393q-3 13 6 23.5t23 10.5h10q11 0 21 -7.5t12 -17.5zM327 523
q-12 -10 -26.5 -9.5t-22.5 10.5t-5.5 24t14.5 24l149 127q12 10 26.5 10t22.5 -10t5.5 -24.5t-14.5 -24.5z" />
    <glyph glyph-name="ydieresis" unicode="&#xff;" 
d="M268 179q6 -26 32 -26t42 26l145 244q6 9 18.5 16.5t22.5 7.5h11q14 0 19 -10.5t-3 -23.5l-381 -637q-6 -9 -18.5 -16.5t-22.5 -7.5h-10q-14 0 -19.5 10.5t2.5 23.5l122 202q8 15 6 32l-97 393q-3 13 6 23.5t23 10.5h10q11 0 21 -7.5t12 -17.5zM275 659q22 0 34.5 -15
t8.5 -37q-4 -21 -21.5 -36t-39.5 -15q-21 0 -33.5 15t-8.5 36q4 22 21.5 37t38.5 15zM504 659q22 0 34.5 -15t8.5 -37q-4 -21 -21.5 -36t-39.5 -15q-21 0 -33.5 15t-8.5 36q4 22 21.5 37t38.5 15z" />
    <glyph glyph-name="Amacron" unicode="&#x100;" 
d="M494 36q1 -14 -9 -25t-25 -11h-6q-13 0 -22.5 9t-11.5 21l-10 121q-2 12 -11.5 21t-22.5 9h-140q-13 0 -26 -9t-18 -21l-54 -121q-5 -12 -18 -21t-26 -9h-5q-15 0 -21.5 10.5t0.5 24.5l281 629q5 12 18.5 21t25.5 9h8q12 0 22 -9t11 -21zM386 418q-2 30 -33 30t-44 -30
l-53 -121q-9 -20 0 -35t30 -15h64q20 0 34 15t13 35zM300 845q-13 0 -20.5 10t-5.5 23t13.5 22.5t24.5 9.5h244q13 0 21 -9.5t6 -22.5t-13.5 -23t-25.5 -10h-244z" />
    <glyph glyph-name="amacron" unicode="&#x101;" 
d="M474 259l-21 -120q-4 -23 6.5 -42t30.5 -26q5 -2 11 -9.5t5 -12.5l-4 -22q-5 -30 -32 -24q-49 11 -74 52q-3 6 -14 7.5t-18 -3.5q-81 -59 -172 -59q-67 0 -98.5 32t-21.5 90q3 19 11.5 37t26.5 40t52 39t80 25q54 9 136 2q14 -2 22 5t7 20q-5 38 -33 63t-69 25
q-61 0 -106 -48q-6 -6 -17 -10t-17 0l-9 5q-30 15 -8 41q71 81 169 81q78 0 124 -55t33 -133zM375 141q11 11 14 25l2 12q2 10 -4 18t-17 10q-81 6 -121 -1q-34 -6 -57.5 -17t-33 -25t-12.5 -20.5t-5 -17.5q0 -10 -1.5 -22.5t16 -24t53.5 -11.5q90 0 166 74zM257 597
q-13 0 -21 9.5t-6 23.5q2 13 13.5 22.5t24.5 9.5h244q13 0 21 -9.5t6 -22.5q-2 -14 -13.5 -23.5t-24.5 -9.5h-244z" />
    <glyph glyph-name="Abreve" unicode="&#x102;" 
d="M494 36q1 -14 -9 -25t-25 -11h-6q-13 0 -22.5 9t-11.5 21l-10 121q-2 12 -11.5 21t-22.5 9h-140q-13 0 -26 -9t-18 -21l-54 -121q-5 -12 -18 -21t-26 -9h-5q-15 0 -21.5 10.5t0.5 24.5l281 629q5 12 18.5 21t25.5 9h8q12 0 22 -9t11 -21zM386 418q-2 30 -33 30t-44 -30
l-53 -121q-9 -20 0 -35t30 -15h64q20 0 34 15t13 35zM493 909q2 5 10 11t12 6h17q38 0 25 -31q-18 -43 -58 -70.5t-85 -27.5t-75 27.5t-33 70.5q-3 31 35 31h17q5 0 10.5 -6t6.5 -11q2 -20 15.5 -32t35.5 -12q21 0 39.5 12t27.5 32z" />
    <glyph glyph-name="abreve" unicode="&#x103;" 
d="M474 259l-21 -120q-4 -23 6.5 -42t30.5 -26q5 -2 11 -9.5t5 -12.5l-4 -22q-5 -30 -32 -24q-49 11 -74 52q-3 6 -14 7.5t-18 -3.5q-81 -59 -172 -59q-67 0 -98.5 32t-21.5 90q3 19 11.5 37t26.5 40t52 39t80 25q54 9 136 2q14 -2 22 5t7 20q-5 38 -33 63t-69 25
q-61 0 -106 -48q-6 -6 -17 -10t-17 0l-9 5q-30 15 -8 41q71 81 169 81q78 0 124 -55t33 -133zM375 141q11 11 14 25l2 12q2 10 -4 18t-17 10q-81 6 -121 -1q-34 -6 -57.5 -17t-33 -25t-12.5 -20.5t-5 -17.5q0 -10 -1.5 -22.5t16 -24t53.5 -11.5q90 0 166 74zM449 661
q2 5 10 11t13 6h17q37 0 24 -31q-18 -43 -58 -70.5t-85 -27.5t-75 27.5t-33 70.5q-3 31 36 31h17q4 0 9.5 -6t6.5 -11q2 -20 16 -32t35 -12t39.5 12t27.5 32z" />
    <glyph glyph-name="Aogonek" unicode="&#x104;" 
d="M496 14q0 -14 -13 -14h-6q-8 0 -14 -3q-33 -15 -46.5 -46t0.5 -55.5t49 -24.5q11 0 27 -8.5t18 -17.5q7 -35 -28 -40q-51 -8 -89.5 13t-50.5 67q-16 81 51 137q8 6 16 22t7 23l-8 84q-1 12 -10.5 21t-22.5 9h-140q-13 0 -26 -9t-18 -21l-54 -121q-5 -12 -18 -21t-26 -9
h-5q-15 0 -21.5 10.5t0.5 24.5l281 629q5 12 18.5 21t25.5 9h8q12 0 22 -9t11 -21zM386 418q-2 30 -33 30t-44 -30l-53 -121q-9 -20 0 -35t30 -15h64q20 0 34 15t13 35z" />
    <glyph glyph-name="aogonek" unicode="&#x105;" 
d="M474 259l-21 -120q-4 -23 6.5 -42t30.5 -26q5 -2 11 -9.5t5 -12.5l-8 -42q0 -7 -8 -7q-1 1 -7 0l-6 -1q-36 -15 -49.5 -47.5t2 -58t53.5 -22.5q11 1 24 -7.5t15 -18.5q7 -35 -28 -40q-51 -8 -89.5 13t-50.5 67q-7 39 7.5 76t47.5 63q6 6 1 12q-12 12 -21 33q-1 3 -4.5 3
t-6.5 -2q-85 -70 -186 -70q-67 0 -98.5 32t-21.5 90q3 19 11.5 37t26.5 40t52 39t80 25q54 9 136 2q14 -2 22 5t7 20q-5 38 -33 63t-69 25q-61 0 -106 -48q-6 -6 -17 -10t-17 0l-9 5q-30 15 -8 41q71 81 169 81q78 0 124 -55t33 -133zM375 141q11 11 14 25l2 12q2 10 -4 18
t-17 10q-81 6 -121 -1q-34 -6 -57.5 -17t-33 -25t-12.5 -20.5t-5 -17.5q0 -10 -1.5 -22.5t16 -24t53.5 -11.5q90 0 166 74z" />
    <glyph glyph-name="Cacute" unicode="&#x106;" 
d="M284 66q54 0 102 31.5t69 80.5q5 11 20 23.5t25 12.5q37 0 26 -35q-27 -77 -99 -128t-155 -51q-92 0 -146 62.5t-38 151.5l47 267q16 89 92 151.5t168 62.5q83 0 136.5 -51.5t53.5 -127.5q0 -16 -10.5 -25.5t-27.5 -9.5q-10 0 -20.5 12.5t-11.5 23.5q-5 49 -41.5 80.5
t-90.5 31.5q-64 0 -116.5 -43.5t-62.5 -104.5l-47 -267q-11 -61 26 -104.5t101 -43.5zM371 771q-12 -10 -26.5 -9.5t-22.5 10.5q-9 10 -6.5 24t14.5 24l149 127q12 10 26.5 10t22.5 -10q9 -11 6.5 -25t-14.5 -24z" />
    <glyph glyph-name="cacute" unicode="&#x107;" 
d="M439 136q7 9 22.5 15t23.5 2l5 -2q33 -15 11 -43q-40 -49 -98.5 -78.5t-120.5 -29.5q-96 0 -152.5 65.5t-40.5 157.5q16 93 96 158.5t176 65.5q62 0 110 -29.5t70 -78.5q13 -28 -25 -42l-6 -3q-9 -4 -22.5 2t-17.5 15q-37 67 -121 67q-67 0 -122 -45.5t-66 -109.5
t27.5 -109t105.5 -45q85 0 145 67zM327 523q-12 -10 -26.5 -9.5t-22.5 10.5t-5.5 24t14.5 24l149 127q12 10 26.5 10t22.5 -10t5.5 -24.5t-14.5 -24.5z" />
    <glyph glyph-name="Ccircumflex" unicode="&#x108;" 
d="M284 66q54 0 102 31.5t69 80.5q5 11 20 23.5t25 12.5q37 0 26 -35q-27 -77 -99 -128t-155 -51q-92 0 -146 62.5t-38 151.5l47 267q16 89 92 151.5t168 62.5q83 0 136.5 -51.5t53.5 -127.5q0 -16 -10.5 -25.5t-27.5 -9.5q-10 0 -20.5 12.5t-11.5 23.5q-5 49 -41.5 80.5
t-90.5 31.5q-64 0 -116.5 -43.5t-62.5 -104.5l-47 -267q-11 -61 26 -104.5t101 -43.5zM314 811q-12 -10 -26.5 -9.5t-22.5 10.5q-9 10 -6.5 24t14.5 24l145 123q14 11 30.5 11t26.5 -11l101 -123q8 -10 5.5 -24t-13.5 -24q-12 -10 -26.5 -10.5t-23.5 9.5l-61 74
q-10 11 -26 11t-30 -11z" />
    <glyph glyph-name="ccircumflex" unicode="&#x109;" 
d="M439 136q7 9 22.5 15t23.5 2l5 -2q33 -15 11 -43q-40 -49 -98.5 -78.5t-120.5 -29.5q-96 0 -152.5 65.5t-40.5 157.5q16 93 96 158.5t176 65.5q62 0 110 -29.5t70 -78.5q13 -28 -25 -42l-6 -3q-9 -4 -22.5 2t-17.5 15q-37 67 -121 67q-67 0 -122 -45.5t-66 -109.5
t27.5 -109t105.5 -45q85 0 145 67zM270 563q-12 -10 -26.5 -9.5t-22.5 10.5t-5.5 24t14.5 24l144 123q14 11 30.5 11t26.5 -11l101 -123q9 -10 6.5 -24t-14.5 -24t-26.5 -10.5t-22.5 9.5l-61 74q-10 11 -27 11t-30 -11z" />
    <glyph glyph-name="Cdotaccent" unicode="&#x10a;" 
d="M284 66q54 0 102 31.5t69 80.5q5 11 20 23.5t25 12.5q37 0 26 -35q-27 -77 -99 -128t-155 -51q-92 0 -146 62.5t-38 151.5l47 267q16 89 92 151.5t168 62.5q83 0 136.5 -51.5t53.5 -127.5q0 -16 -10.5 -25.5t-27.5 -9.5q-10 0 -20.5 12.5t-11.5 23.5q-5 49 -41.5 80.5
t-90.5 31.5q-64 0 -116.5 -43.5t-62.5 -104.5l-47 -267q-11 -61 26 -104.5t101 -43.5zM435 917q22 0 34.5 -15t8.5 -37q-4 -21 -21.5 -36t-39.5 -15q-21 0 -33.5 15t-8.5 36q4 22 21.5 37t38.5 15z" />
    <glyph glyph-name="cdotaccent" unicode="&#x10b;" 
d="M439 136q7 9 22.5 15t23.5 2l5 -2q33 -15 11 -43q-40 -49 -98.5 -78.5t-120.5 -29.5q-96 0 -152.5 65.5t-40.5 157.5q16 93 96 158.5t176 65.5q62 0 110 -29.5t70 -78.5q13 -28 -25 -42l-6 -3q-9 -4 -22.5 2t-17.5 15q-37 67 -121 67q-67 0 -122 -45.5t-66 -109.5
t27.5 -109t105.5 -45q85 0 145 67zM391 669q22 0 34.5 -15t8.5 -37q-4 -21 -21.5 -36t-39.5 -15q-21 0 -33.5 15t-8.5 36q4 22 21.5 37t38.5 15z" />
    <glyph glyph-name="Ccaron" unicode="&#x10c;" 
d="M284 66q54 0 102 31.5t69 80.5q5 11 20 23.5t25 12.5q37 0 26 -35q-27 -77 -99 -128t-155 -51q-92 0 -146 62.5t-38 151.5l47 267q16 89 92 151.5t168 62.5q83 0 136.5 -51.5t53.5 -127.5q0 -16 -10.5 -25.5t-27.5 -9.5q-10 0 -20.5 12.5t-11.5 23.5q-5 49 -41.5 80.5
t-90.5 31.5q-64 0 -116.5 -43.5t-62.5 -104.5l-47 -267q-11 -61 26 -104.5t101 -43.5zM287 938q-8 10 -5.5 24t13.5 25q12 10 26.5 10t23.5 -10l61 -74q10 -11 26 -11t30 11l87 74q12 10 26.5 10t22.5 -10q9 -11 6.5 -25t-14.5 -24l-145 -123q-13 -11 -30 -11t-26 11z" />
    <glyph glyph-name="ccaron" unicode="&#x10d;" 
d="M439 136q7 9 22.5 15t23.5 2l5 -2q33 -15 11 -43q-40 -49 -98.5 -78.5t-120.5 -29.5q-96 0 -152.5 65.5t-40.5 157.5q16 93 96 158.5t176 65.5q62 0 110 -29.5t70 -78.5q13 -28 -25 -42l-6 -3q-9 -4 -22.5 2t-17.5 15q-37 67 -121 67q-67 0 -122 -45.5t-66 -109.5
t27.5 -109t105.5 -45q85 0 145 67zM243 690q-8 10 -5.5 24.5t14.5 24.5t26.5 10t22.5 -10l61 -74q10 -11 26 -11t30 11l88 74q12 10 26.5 10t22.5 -10t5.5 -24.5t-14.5 -24.5l-145 -123q-13 -11 -29.5 -11t-26.5 11z" />
    <glyph glyph-name="Dcaron" unicode="&#x10e;" 
d="M165 655q3 17 17 28.5t31 11.5h125q133 0 191 -92.5t30 -252.5q-29 -161 -120 -255.5t-224 -94.5h-125q-17 0 -26.5 12t-6.5 28zM138 106q-3 -16 6.5 -28t26.5 -12h56q101 0 170.5 78.5t91.5 203.5t-20 203t-143 78h-56q-16 0 -30 -11.5t-17 -28.5zM287 938
q-8 10 -5.5 24t13.5 25q12 10 26.5 10t23.5 -10l61 -74q10 -11 26 -11t30 11l87 74q12 10 26.5 10t22.5 -10q9 -11 6.5 -25t-14.5 -24l-145 -123q-13 -11 -30 -11t-26 11z" />
    <glyph glyph-name="Dcroat" unicode="&#x110;" 
d="M69 320q-13 0 -21 9.5t-6 23.5q2 13 13.5 22.5t24.5 9.5h3q14 0 26.5 10.5t14.5 24.5l41 235q3 17 17 28.5t31 11.5h125q133 0 191 -92.5t30 -252.5q-29 -161 -120 -255.5t-224 -94.5h-125q-17 0 -26.5 12t-6.5 28l43 245q3 14 -5.5 24.5t-23.5 10.5h-2zM138 106
q-3 -16 6.5 -28t26.5 -12h56q101 0 170.5 78.5t91.5 203.5t-20 203t-143 78h-56q-16 0 -30 -11.5t-17 -28.5l-29 -164q-3 -16 6.5 -28t26.5 -12h67q13 0 21 -9.5t6 -22.5q-2 -14 -13.5 -23.5t-24.5 -9.5h-68q-16 0 -30 -11.5t-17 -28.5z" />
    <glyph glyph-name="dcroat" unicode="&#x111;" 
d="M435 537q-13 0 -21 9.5t-6 23.5q3 13 14.5 22.5t24.5 9.5h47q16 0 30 11.5t17 28.5l3 19q3 14 15 24t26 10t22.5 -10t5.5 -24l-3 -19q-3 -16 6.5 -28t26.5 -12h48q13 0 21 -9.5t5 -22.5q-2 -14 -13.5 -23.5t-24.5 -9.5h-47q-16 0 -30 -11.5t-17 -28.5l-82 -462
q-2 -15 -14 -25t-26 -10h-4q-13 0 -20.5 9t-5.5 22l1 3q1 7 -6 10.5t-15 -1.5q-65 -43 -139 -43q-93 0 -147 65.5t-38 157.5q16 93 93.5 158.5t170.5 65.5q73 0 124 -43q5 -5 14 -2t10 11l15 84q3 16 -6.5 28t-26.5 12h-48zM286 69q64 0 117 45t64 109q12 66 -25.5 110.5
t-100.5 44.5q-65 0 -118.5 -45.5t-64.5 -109.5t26.5 -109t101.5 -45z" />
    <glyph glyph-name="Emacron" unicode="&#x112;" 
d="M90 0q-17 0 -26.5 12t-6.5 28l108 615q3 17 17 28.5t31 11.5h374q13 0 21 -9.5t6 -23.5q-2 -13 -13.5 -23t-25.5 -10h-305q-16 0 -30 -11.5t-17 -28.5l-30 -169q-3 -16 6.5 -28t26.5 -12h123q13 0 20.5 -9.5t5.5 -22.5q-2 -14 -13.5 -23.5t-24.5 -9.5h-122
q-17 0 -31 -11.5t-17 -28.5l-29 -169q-3 -16 6.5 -28t26.5 -12h305q13 0 21 -9.5t6 -23.5q-2 -13 -13.5 -23t-25.5 -10h-374zM300 845q-13 0 -20.5 10t-5.5 23t13.5 22.5t24.5 9.5h244q13 0 21 -9.5t6 -22.5t-13.5 -23t-25.5 -10h-244z" />
    <glyph glyph-name="emacron" unicode="&#x113;" 
d="M413 123q7 7 20 10.5t20 -0.5l7 -4q29 -19 2 -46q-83 -83 -189 -83q-92 0 -146 65.5t-38 157.5q16 93 93.5 158.5t169.5 65.5t145.5 -66.5t39.5 -153.5q-7 -38 -43 -38h-302q-17 0 -25.5 -9.5t-4.5 -24.5q12 -39 45.5 -62.5t77.5 -23.5q72 0 128 54zM187 292
q-10 -15 -5 -24.5t22 -9.5h230q17 0 25.5 9.5t4.5 24.5q-13 39 -46 62.5t-78 23.5t-86 -23.5t-67 -62.5zM257 597q-13 0 -21 9.5t-6 23.5q2 13 13.5 22.5t24.5 9.5h244q13 0 21 -9.5t6 -22.5q-2 -14 -13.5 -23.5t-24.5 -9.5h-244z" />
    <glyph glyph-name="Ebreve" unicode="&#x114;" 
d="M90 0q-17 0 -26.5 12t-6.5 28l108 615q3 17 17 28.5t31 11.5h374q13 0 21 -9.5t6 -23.5q-2 -13 -13.5 -23t-25.5 -10h-305q-16 0 -30 -11.5t-17 -28.5l-30 -169q-3 -16 6.5 -28t26.5 -12h123q13 0 20.5 -9.5t5.5 -22.5q-2 -14 -13.5 -23.5t-24.5 -9.5h-122
q-17 0 -31 -11.5t-17 -28.5l-29 -169q-3 -16 6.5 -28t26.5 -12h305q13 0 21 -9.5t6 -23.5q-2 -13 -13.5 -23t-25.5 -10h-374zM493 909q2 5 10 11t12 6h17q38 0 25 -31q-18 -43 -58 -70.5t-85 -27.5t-75 27.5t-33 70.5q-3 31 35 31h17q5 0 10.5 -6t6.5 -11q2 -20 15.5 -32
t35.5 -12q21 0 39.5 12t27.5 32z" />
    <glyph glyph-name="ebreve" unicode="&#x115;" 
d="M413 123q7 7 20 10.5t20 -0.5l7 -4q29 -19 2 -46q-83 -83 -189 -83q-92 0 -146 65.5t-38 157.5q16 93 93.5 158.5t169.5 65.5t145.5 -66.5t39.5 -153.5q-7 -38 -43 -38h-302q-17 0 -25.5 -9.5t-4.5 -24.5q12 -39 45.5 -62.5t77.5 -23.5q72 0 128 54zM187 292
q-10 -15 -5 -24.5t22 -9.5h230q17 0 25.5 9.5t4.5 24.5q-13 39 -46 62.5t-78 23.5t-86 -23.5t-67 -62.5zM449 661q2 5 10 11t13 6h17q37 0 24 -31q-18 -43 -58 -70.5t-85 -27.5t-75 27.5t-33 70.5q-3 31 36 31h17q4 0 9.5 -6t6.5 -11q2 -20 16 -32t35 -12t39.5 12t27.5 32z
" />
    <glyph glyph-name="Edotaccent" unicode="&#x116;" 
d="M90 0q-17 0 -26.5 12t-6.5 28l108 615q3 17 17 28.5t31 11.5h374q13 0 21 -9.5t6 -23.5q-2 -13 -13.5 -23t-25.5 -10h-305q-16 0 -30 -11.5t-17 -28.5l-30 -169q-3 -16 6.5 -28t26.5 -12h123q13 0 20.5 -9.5t5.5 -22.5q-2 -14 -13.5 -23.5t-24.5 -9.5h-122
q-17 0 -31 -11.5t-17 -28.5l-29 -169q-3 -16 6.5 -28t26.5 -12h305q13 0 21 -9.5t6 -23.5q-2 -13 -13.5 -23t-25.5 -10h-374zM435 917q22 0 34.5 -15t8.5 -37q-4 -21 -21.5 -36t-39.5 -15q-21 0 -33.5 15t-8.5 36q4 22 21.5 37t38.5 15z" />
    <glyph glyph-name="edotaccent" unicode="&#x117;" 
d="M413 123q7 7 20 10.5t20 -0.5l7 -4q29 -19 2 -46q-83 -83 -189 -83q-92 0 -146 65.5t-38 157.5q16 93 93.5 158.5t169.5 65.5q93 0 147 -65.5t37 -158.5q-1 -10 -7 -30q-1 -4 -7 -4h-330q-17 0 -25.5 -9.5t-4.5 -24.5q12 -39 45.5 -62.5t77.5 -23.5q72 0 128 54zM187 292
q-10 -15 -5 -24.5t22 -9.5h230q17 0 25.5 9.5t4.5 24.5q-13 39 -46 62.5t-78 23.5t-86 -23.5t-67 -62.5zM391 669q22 0 34.5 -15t8.5 -37q-4 -21 -21.5 -36t-39.5 -15q-21 0 -33.5 15t-8.5 36q4 22 21.5 37t38.5 15z" />
    <glyph glyph-name="Eogonek" unicode="&#x118;" 
d="M90 0q-17 0 -26.5 12t-6.5 28l108 615q3 17 17 28.5t31 11.5h374q13 0 21 -9.5t6 -23.5q-2 -13 -13.5 -23t-25.5 -10h-305q-16 0 -30 -11.5t-17 -28.5l-30 -169q-3 -16 6.5 -28t26.5 -12h123q13 0 20.5 -9.5t5.5 -22.5q-2 -14 -13.5 -23.5t-24.5 -9.5h-122
q-17 0 -31 -11.5t-17 -28.5l-29 -169q-3 -16 6.5 -28t26.5 -12h305q13 0 21 -9.5t6 -23.5q-2 -13 -13.5 -23t-25.5 -10h-41q-8 0 -14 -3q-33 -15 -46.5 -46t0.5 -55.5t49 -24.5q11 0 27 -8.5t18 -17.5q7 -35 -28 -40q-51 -8 -89.5 13t-50.5 67q-10 51 17 97q4 6 2 12t-9 6
h-209z" />
    <glyph glyph-name="eogonek" unicode="&#x119;" 
d="M413 123q7 7 20 10.5t20 -0.5l7 -4q28 -18 4 -44q-73 -75 -167 -84q-3 -3 -12 -3q-20 -9 -34 -25t-17.5 -33t0 -33t17.5 -26t35 -10q10 0 26.5 -9t18.5 -17q7 -35 -28 -40q-51 -8 -89.5 13t-50.5 67q-11 60 24 108q5 6 4.5 15t-6.5 12q-54 27 -81 81.5t-15 121.5
q16 93 93.5 158.5t169.5 65.5t145.5 -66.5t39.5 -153.5q-7 -38 -43 -38h-302q-17 0 -25.5 -9.5t-4.5 -24.5q12 -39 45.5 -62.5t77.5 -23.5q72 0 128 54zM187 292q-10 -15 -5 -24.5t22 -9.5h230q17 0 25.5 9.5t4.5 24.5q-13 39 -46 62.5t-78 23.5t-86 -23.5t-67 -62.5z" />
    <glyph glyph-name="Ecaron" unicode="&#x11a;" 
d="M90 0q-17 0 -26.5 12t-6.5 28l108 615q3 17 17 28.5t31 11.5h374q13 0 21 -9.5t6 -23.5q-2 -13 -13.5 -23t-25.5 -10h-305q-16 0 -30 -11.5t-17 -28.5l-30 -169q-3 -16 6.5 -28t26.5 -12h123q13 0 20.5 -9.5t5.5 -22.5q-2 -14 -13.5 -23.5t-24.5 -9.5h-122
q-17 0 -31 -11.5t-17 -28.5l-29 -169q-3 -16 6.5 -28t26.5 -12h305q13 0 21 -9.5t6 -23.5q-2 -13 -13.5 -23t-25.5 -10h-374zM287 938q-8 10 -5.5 24t13.5 25q12 10 26.5 10t23.5 -10l61 -74q10 -11 26 -11t30 11l87 74q12 10 26.5 10t22.5 -10q9 -11 6.5 -25t-14.5 -24
l-145 -123q-13 -11 -30 -11t-26 11z" />
    <glyph glyph-name="ecaron" unicode="&#x11b;" 
d="M413 123q7 7 20 10.5t20 -0.5l7 -4q29 -19 2 -46q-83 -83 -189 -83q-92 0 -146 65.5t-38 157.5q16 93 93.5 158.5t169.5 65.5q93 0 147 -65.5t37 -158.5q-1 -10 -7 -30q-1 -4 -7 -4h-330q-17 0 -25.5 -9.5t-4.5 -24.5q12 -39 45.5 -62.5t77.5 -23.5q72 0 128 54zM187 292
q-10 -15 -5 -24.5t22 -9.5h230q17 0 25.5 9.5t4.5 24.5q-13 39 -46 62.5t-78 23.5t-86 -23.5t-67 -62.5zM243 690q-8 10 -5.5 24.5t14.5 24.5t26.5 10t22.5 -10l61 -74q10 -11 26 -11t30 11l88 74q12 10 26.5 10t22.5 -10t5.5 -24.5t-14.5 -24.5l-145 -123
q-13 -11 -29.5 -11t-26.5 11z" />
    <glyph glyph-name="Gcircumflex" unicode="&#x11c;" 
d="M360 315q-13 0 -21 9.5t-6 23.5q2 13 14 22.5t25 9.5h152q17 0 26.5 -12t6.5 -28l-22 -126q-16 -88 -93 -151t-170 -63q-92 0 -146 62.5t-38 151.5l47 267q16 89 92 151.5t168 62.5q83 0 136.5 -51.5t53.5 -127.5q0 -16 -10.5 -25.5t-27.5 -9.5q-10 0 -20.5 12.5
t-11.5 23.5q-5 49 -41.5 80.5t-90.5 31.5q-64 0 -116.5 -43.5t-62.5 -104.5l-47 -267q-11 -61 26 -104.5t101 -43.5t117.5 43t64.5 105l10 61q3 17 -6.5 28.5t-25.5 11.5h-84zM314 811q-12 -10 -26.5 -9.5t-22.5 10.5q-9 10 -6.5 24t14.5 24l145 123q14 11 30.5 11t26.5 -11
l101 -123q8 -10 5.5 -24t-13.5 -24q-12 -10 -26.5 -10.5t-23.5 9.5l-61 74q-10 11 -26 11t-30 -11z" />
    <glyph glyph-name="gcircumflex" unicode="&#x11d;" 
d="M424 -25l10 59q1 7 -6 10.5t-15 -1.5q-67 -43 -140 -43q-92 0 -146 65.5t-38 157.5q16 93 93.5 158.5t169.5 65.5q74 0 125 -43q5 -5 14 -2t10 11v3q2 13 13 22t24 9h3q14 0 22.5 -10t6.5 -24l-77 -438q-17 -92 -94 -157.5t-170 -65.5q-51 0 -92 22.5t-66 60.5
q-18 27 18 46l7 4q8 4 20 0.5t17 -10.5q38 -54 108 -54q65 0 118.5 45t64.5 109zM285 69q63 0 115 42.5t66 104.5q12 69 -24.5 115.5t-101.5 46.5q-64 0 -117.5 -45.5t-64.5 -109.5t26 -109t101 -45zM270 563q-12 -10 -26.5 -9.5t-22.5 10.5t-5.5 24t14.5 24l144 123
q14 11 30.5 11t26.5 -11l101 -123q9 -10 6.5 -24t-14.5 -24t-26.5 -10.5t-22.5 9.5l-61 74q-10 11 -27 11t-30 -11z" />
    <glyph glyph-name="Gbreve" unicode="&#x11e;" 
d="M360 315q-13 0 -21 9.5t-6 23.5q2 13 14 22.5t25 9.5h152q17 0 26.5 -12t6.5 -28l-22 -126q-16 -88 -93 -151t-170 -63q-92 0 -146 62.5t-38 151.5l47 267q16 89 92 151.5t168 62.5q83 0 136.5 -51.5t53.5 -127.5q0 -16 -10.5 -25.5t-27.5 -9.5q-10 0 -20.5 12.5
t-11.5 23.5q-5 49 -41.5 80.5t-90.5 31.5q-64 0 -116.5 -43.5t-62.5 -104.5l-47 -267q-11 -61 26 -104.5t101 -43.5t117.5 43t64.5 105l10 61q3 17 -6.5 28.5t-25.5 11.5h-84zM493 909q2 5 10 11t12 6h17q38 0 25 -31q-18 -43 -58 -70.5t-85 -27.5t-75 27.5t-33 70.5
q-3 31 35 31h17q5 0 10.5 -6t6.5 -11q2 -20 15.5 -32t35.5 -12q21 0 39.5 12t27.5 32z" />
    <glyph glyph-name="gbreve" unicode="&#x11f;" 
d="M424 -25l10 59q1 7 -6 10.5t-15 -1.5q-67 -43 -140 -43q-92 0 -146 65.5t-38 157.5q16 93 93.5 158.5t169.5 65.5q74 0 125 -43q5 -5 14 -2t10 11v3q2 13 13 22t24 9h3q14 0 22.5 -10t6.5 -24l-77 -438q-17 -92 -94 -157.5t-170 -65.5q-51 0 -92 22.5t-66 60.5
q-18 27 18 46l7 4q8 4 20 0.5t17 -10.5q38 -54 108 -54q65 0 118.5 45t64.5 109zM285 69q63 0 115 42.5t66 104.5q12 69 -24.5 115.5t-101.5 46.5q-64 0 -117.5 -45.5t-64.5 -109.5t26 -109t101 -45zM449 661q2 5 10 11t13 6h17q37 0 24 -31q-18 -43 -58 -70.5t-85 -27.5
t-75 27.5t-33 70.5q-3 31 36 31h17q4 0 9.5 -6t6.5 -11q2 -20 16 -32t35 -12t39.5 12t27.5 32z" />
    <glyph glyph-name="Gdotaccent" unicode="&#x120;" 
d="M360 315q-13 0 -21 9.5t-6 23.5q2 13 14 22.5t25 9.5h152q17 0 26.5 -12t6.5 -28l-22 -126q-16 -88 -93 -151t-170 -63q-92 0 -146 62.5t-38 151.5l47 267q16 89 92 151.5t168 62.5q83 0 136.5 -51.5t53.5 -127.5q0 -16 -10.5 -25.5t-27.5 -9.5q-10 0 -20.5 12.5
t-11.5 23.5q-5 49 -41.5 80.5t-90.5 31.5q-64 0 -116.5 -43.5t-62.5 -104.5l-47 -267q-11 -61 26 -104.5t101 -43.5t117.5 43t64.5 105l10 61q3 17 -6.5 28.5t-25.5 11.5h-84zM435 917q22 0 34.5 -15t8.5 -37q-4 -21 -21.5 -36t-39.5 -15q-21 0 -33.5 15t-8.5 36
q4 22 21.5 37t38.5 15z" />
    <glyph glyph-name="gdotaccent" unicode="&#x121;" 
d="M424 -25l10 59q1 7 -6 10.5t-15 -1.5q-67 -43 -140 -43q-92 0 -146 65.5t-38 157.5q16 93 93.5 158.5t169.5 65.5q74 0 125 -43q5 -5 14 -2t10 11v3q2 13 13 22t24 9h3q14 0 22.5 -10t6.5 -24l-77 -438q-17 -92 -94 -157.5t-170 -65.5q-51 0 -92 22.5t-66 60.5
q-18 27 18 46l7 4q8 4 20 0.5t17 -10.5q38 -54 108 -54q65 0 118.5 45t64.5 109zM285 69q63 0 115 42.5t66 104.5q12 69 -24.5 115.5t-101.5 46.5q-64 0 -117.5 -45.5t-64.5 -109.5t26 -109t101 -45zM391 669q22 0 34.5 -15t8.5 -37q-4 -21 -21.5 -36t-39.5 -15
q-21 0 -33.5 15t-8.5 36q4 22 21.5 37t38.5 15z" />
    <glyph glyph-name="Gcommaaccent" unicode="&#x122;" 
d="M360 315q-13 0 -21 9.5t-6 23.5q2 13 14 22.5t25 9.5h152q17 0 26.5 -12t6.5 -28l-22 -126q-16 -88 -93 -151t-170 -63q-92 0 -146 62.5t-38 151.5l47 267q16 89 92 151.5t168 62.5q83 0 136.5 -51.5t53.5 -127.5q0 -16 -10.5 -25.5t-27.5 -9.5q-10 0 -20.5 12.5
t-11.5 23.5q-5 49 -41.5 80.5t-90.5 31.5q-64 0 -116.5 -43.5t-62.5 -104.5l-47 -267q-11 -61 26 -104.5t101 -43.5t117.5 43t64.5 105l10 61q3 17 -6.5 28.5t-25.5 11.5h-84zM281 -249q-2 -14 -14 -24t-26 -10t-22.5 10t-6.5 24l14 80q2 10 -7 16q-22 15 -16 44
q4 21 21.5 36t38.5 15q22 0 34.5 -15t8.5 -36z" />
    <glyph glyph-name="gcommaaccent" unicode="&#x123;" 
d="M349 723q3 14 15 24t26 10t22.5 -10t5.5 -24l-14 -80q0 -11 7 -16q22 -15 17 -44q-4 -21 -21.5 -36t-38.5 -15q-22 0 -34.5 15t-8.5 36zM424 -25l10 59q1 7 -6 10.5t-15 -1.5q-67 -43 -140 -43q-92 0 -146 65.5t-38 157.5q16 93 93.5 158.5t169.5 65.5q74 0 125 -43
q5 -5 14 -2t10 11v3q2 13 13 22t24 9h3q14 0 22.5 -10t6.5 -24l-77 -438q-17 -92 -94 -157.5t-170 -65.5q-51 0 -92 22.5t-66 60.5q-18 27 18 46l7 4q8 4 20 0.5t17 -10.5q38 -54 108 -54q65 0 118.5 45t64.5 109zM285 69q63 0 115 42.5t66 104.5q12 69 -24.5 115.5
t-101.5 46.5q-64 0 -117.5 -45.5t-64.5 -109.5t26 -109t101 -45z" />
    <glyph glyph-name="Hcircumflex" unicode="&#x124;" 
d="M585 695q14 0 22.5 -10t5.5 -24l-110 -626q-2 -15 -14 -25t-26 -10q-15 0 -23 10t-6 25l42 240q3 17 -6.5 28.5t-25.5 11.5h-229q-17 0 -31 -11.5t-17 -28.5l-42 -240q-2 -15 -14 -25t-26 -10q-15 0 -23 10t-6 25l110 626q3 14 15 24t26 10t22.5 -10t5.5 -24l-42 -241
q-3 -16 6.5 -28t26.5 -12h229q16 0 30 11.5t17 28.5l42 241q3 14 15 24t26 10zM314 811q-12 -10 -26.5 -9.5t-22.5 10.5q-9 10 -6.5 24t14.5 24l145 123q14 11 30.5 11t26.5 -11l101 -123q8 -10 5.5 -24t-13.5 -24q-12 -10 -26.5 -10.5t-23.5 9.5l-61 74q-10 11 -26 11
t-30 -11z" />
    <glyph glyph-name="hcircumflex" unicode="&#x125;" 
d="M536 223l-33 -188q-2 -15 -14 -25t-26 -10q-15 0 -23 10t-6 25l33 188q11 65 -26 110t-101 45q-62 0 -114.5 -43.5t-66.5 -105.5l-34 -194q-2 -15 -14 -25t-26 -10q-15 0 -23 10t-6 25l110 626q3 14 15 24t26 10t22.5 -10t5.5 -24l-43 -248q-1 -8 6 -11t14 2
q67 43 140 43q93 0 147 -65.5t37 -158.5zM314 811q-12 -10 -26.5 -9.5t-22.5 10.5q-9 10 -6.5 24t14.5 24l145 123q14 11 30.5 11t26.5 -11l101 -123q8 -10 5.5 -24t-13.5 -24q-12 -10 -26.5 -10.5t-23.5 9.5l-61 74q-10 11 -26 11t-30 -11z" />
    <glyph glyph-name="hbar" unicode="&#x127;" 
d="M57 537q-13 0 -21 9.5t-6 23.5q3 13 14.5 22.5t24.5 9.5h47q16 0 30 11.5t17 28.5l3 19q3 14 15 24t26 10t22.5 -10t5.5 -24l-3 -19q-3 -16 6.5 -28t26.5 -12h48q13 0 21 -9.5t5 -22.5q-2 -14 -13.5 -23.5t-24.5 -9.5h-47q-16 0 -30 -11.5t-17 -28.5l-15 -84q-1 -8 6 -11
t14 2q67 43 140 43q93 0 147 -65.5t37 -158.5l-33 -188q-2 -15 -14 -25t-26 -10q-15 0 -23 10t-6 25l33 188q11 65 -26 110t-101 45q-62 0 -114.5 -43.5t-66.5 -105.5l-34 -194q-2 -15 -14 -25t-26 -10q-15 0 -23 10t-6 25l82 462q3 16 -6.5 28t-26.5 12h-48z" />
    <glyph glyph-name="Itilde" unicode="&#x128;" 
d="M194 629q-13 0 -21 9.5t-6 23.5t13.5 23.5t25.5 9.5h381q13 0 21 -9.5t6 -23.5q-2 -13 -13.5 -23t-25.5 -10h-118q-16 0 -30 -11.5t-17 -28.5l-85 -483q-3 -16 6.5 -28t26.5 -12h118q13 0 21 -9.5t6 -23.5q-2 -13 -13.5 -23t-25.5 -10h-381q-13 0 -21 9.5t-6 23.5
t13.5 23.5t25.5 9.5h117q16 0 30 11.5t17 28.5l85 483q3 16 -6.5 28t-26.5 12h-117zM398 859q-2 14 -16 21t-30 0q-30 -11 -28 -53q2 -11 -11 -17l-14 -4q-30 -11 -32 16q-1 34 19 65t55 43q37 13 70.5 -0.5t44.5 -50.5q5 -16 17.5 -23.5t26.5 -0.5q15 7 21.5 16t7.5 15.5
t0 20.5q-2 12 12 18l15 6q30 10 31 -15q2 -38 -16 -69.5t-57 -44.5q-36 -15 -70.5 -1.5t-45.5 58.5z" />
    <glyph glyph-name="itilde" unicode="&#x129;" 
d="M347 447q17 0 26.5 -12t6.5 -28l-53 -298q-3 -16 6.5 -28t26.5 -12h115q14 0 22 -10t6 -24q-2 -15 -14 -25t-26 -10h-378q-15 0 -23 10t-6 25q2 14 14.5 24t26.5 10h114q16 0 30 11.5t17 28.5l41 229q2 17 -7.5 28.5t-25.5 11.5h-67q-14 0 -22.5 10t-5.5 25q2 14 14 24
t26 10h136zM355 611q-3 14 -17 21t-30 0q-31 -12 -27 -53q0 -12 -12 -17l-14 -4q-30 -11 -31 16q-2 34 18 65t55 43q37 13 70.5 -0.5t44.5 -50.5q6 -16 18 -23t26 -1q21 10 26 21.5t3 30.5q0 13 13 18l14 6q31 10 31 -15q2 -38 -15.5 -69.5t-56.5 -44.5q-37 -15 -71 -1.5
t-45 58.5z" />
    <glyph glyph-name="Imacron" unicode="&#x12a;" 
d="M194 629q-13 0 -21 9.5t-6 23.5t13.5 23.5t25.5 9.5h381q13 0 21 -9.5t6 -23.5q-2 -13 -13.5 -23t-25.5 -10h-118q-16 0 -30 -11.5t-17 -28.5l-85 -483q-3 -16 6.5 -28t26.5 -12h118q13 0 21 -9.5t6 -23.5q-2 -13 -13.5 -23t-25.5 -10h-381q-13 0 -21 9.5t-6 23.5
t13.5 23.5t25.5 9.5h117q16 0 30 11.5t17 28.5l85 483q3 16 -6.5 28t-26.5 12h-117zM300 845q-13 0 -20.5 10t-5.5 23t13.5 22.5t24.5 9.5h244q13 0 21 -9.5t6 -22.5t-13.5 -23t-25.5 -10h-244z" />
    <glyph glyph-name="imacron" unicode="&#x12b;" 
d="M347 447q17 0 26.5 -12t6.5 -28l-53 -298q-3 -16 6.5 -28t26.5 -12h115q14 0 22 -10t6 -24q-2 -15 -14 -25t-26 -10h-378q-15 0 -23 10t-6 25q2 14 14.5 24t26.5 10h114q16 0 30 11.5t17 28.5l41 229q2 17 -7.5 28.5t-25.5 11.5h-67q-14 0 -22.5 10t-5.5 25q2 14 14 24
t26 10h136zM257 597q-13 0 -21 9.5t-6 23.5q2 13 13.5 22.5t24.5 9.5h244q13 0 21 -9.5t6 -22.5q-2 -14 -13.5 -23.5t-24.5 -9.5h-244z" />
    <glyph glyph-name="Ibreve" unicode="&#x12c;" 
d="M194 629q-13 0 -21 9.5t-6 23.5t13.5 23.5t25.5 9.5h381q13 0 21 -9.5t6 -23.5q-2 -13 -13.5 -23t-25.5 -10h-118q-16 0 -30 -11.5t-17 -28.5l-85 -483q-3 -16 6.5 -28t26.5 -12h118q13 0 21 -9.5t6 -23.5q-2 -13 -13.5 -23t-25.5 -10h-381q-13 0 -21 9.5t-6 23.5
t13.5 23.5t25.5 9.5h117q16 0 30 11.5t17 28.5l85 483q3 16 -6.5 28t-26.5 12h-117zM493 909q2 5 10 11t12 6h17q38 0 25 -31q-18 -43 -58 -70.5t-85 -27.5t-75 27.5t-33 70.5q-3 31 35 31h17q5 0 10.5 -6t6.5 -11q2 -20 15.5 -32t35.5 -12q21 0 39.5 12t27.5 32z" />
    <glyph glyph-name="ibreve" unicode="&#x12d;" 
d="M347 447q17 0 26.5 -12t6.5 -28l-53 -298q-3 -16 6.5 -28t26.5 -12h115q14 0 22 -10t6 -24q-2 -15 -14 -25t-26 -10h-378q-15 0 -23 10t-6 25q2 14 14.5 24t26.5 10h114q16 0 30 11.5t17 28.5l41 229q2 17 -7.5 28.5t-25.5 11.5h-67q-14 0 -22.5 10t-5.5 25q2 14 14 24
t26 10h136zM449 661q2 5 10 11t13 6h17q37 0 24 -31q-18 -43 -58 -70.5t-85 -27.5t-75 27.5t-33 70.5q-3 31 36 31h17q4 0 9.5 -6t6.5 -11q2 -20 16 -32t35 -12t39.5 12t27.5 32z" />
    <glyph glyph-name="Iogonek" unicode="&#x12e;" 
d="M194 629q-13 0 -21 9.5t-6 23.5t13.5 23.5t25.5 9.5h381q13 0 21 -9.5t6 -23.5q-2 -13 -13.5 -23t-25.5 -10h-118q-16 0 -30 -11.5t-17 -28.5l-85 -483q-3 -16 6.5 -28t26.5 -12h118q13 0 21 -9.5t6 -23.5q-2 -13 -13.5 -23t-25.5 -10h-141q-8 0 -14 -3
q-33 -15 -46.5 -46t0.5 -55.5t49 -24.5q11 0 27 -8.5t18 -17.5q7 -35 -28 -40q-51 -8 -89.5 13t-50.5 67q-10 51 17 97q4 6 2 12t-9 6h-116q-13 0 -21 9.5t-6 23.5t13.5 23.5t25.5 9.5h117q16 0 30 11.5t17 28.5l85 483q3 16 -6.5 28t-26.5 12h-117z" />
    <glyph glyph-name="iogonek" unicode="&#x12f;" 
d="M347 447q17 0 26.5 -12t6.5 -28l-53 -298q-3 -16 6.5 -28t26.5 -12h115q14 0 22 -10t6 -24q-2 -15 -14 -25t-26 -10h-148q-8 0 -14 -3q-33 -15 -46.5 -46t0.5 -55.5t49 -24.5q11 0 27 -8.5t18 -17.5q7 -35 -28 -40q-51 -8 -89.5 13t-50.5 67q-10 51 17 97q4 6 2 12t-9 6
h-106q-15 0 -23 10t-6 25q2 14 14.5 24t26.5 10h114q16 0 30 11.5t17 28.5l41 229q2 17 -7.5 28.5t-25.5 11.5h-67q-14 0 -22.5 10t-5.5 25q2 14 14 24t26 10h136zM433 614q-4 -22 -21.5 -37t-39.5 -15q-21 0 -33.5 15t-8.5 37q4 21 21.5 36t38.5 15q22 0 34.5 -15t8.5 -36z
" />
    <glyph glyph-name="Idotaccent" unicode="&#x130;" 
d="M194 629q-13 0 -21 9.5t-6 23.5t13.5 23.5t25.5 9.5h381q13 0 21 -9.5t6 -23.5q-2 -13 -13.5 -23t-25.5 -10h-118q-16 0 -30 -11.5t-17 -28.5l-85 -483q-3 -16 6.5 -28t26.5 -12h118q13 0 21 -9.5t6 -23.5q-2 -13 -13.5 -23t-25.5 -10h-381q-13 0 -21 9.5t-6 23.5
t13.5 23.5t25.5 9.5h117q16 0 30 11.5t17 28.5l85 483q3 16 -6.5 28t-26.5 12h-117zM435 917q22 0 34.5 -15t8.5 -37q-4 -21 -21.5 -36t-39.5 -15q-21 0 -33.5 15t-8.5 36q4 22 21.5 37t38.5 15z" />
    <glyph glyph-name="dotlessi" unicode="&#x131;" 
d="M347 447q17 0 26.5 -12t6.5 -28l-53 -298q-3 -16 6.5 -28t26.5 -12h115q14 0 22 -10t6 -24q-2 -15 -14 -25t-26 -10h-378q-15 0 -23 10t-6 25q2 14 14.5 24t26.5 10h114q16 0 30 11.5t17 28.5l41 229q2 17 -7.5 28.5t-25.5 11.5h-67q-14 0 -22.5 10t-5.5 25q2 14 14 24
t26 10h136z" />
    <glyph glyph-name="Jcircumflex" unicode="&#x134;" 
d="M580 695q16 0 25.5 -11.5t6.5 -28.5l-77 -441q-15 -87 -97.5 -150.5t-172.5 -63.5q-122 0 -180 89q-7 12 -2.5 24.5t19.5 20.5l7 3q8 4 19 2t16 -8q20 -28 56 -46.5t77 -18.5q63 0 120.5 44t68.5 104l66 375q3 16 -6.5 28t-26.5 12h-204q-13 0 -21 9.5t-6 23.5t13.5 23.5
t25.5 9.5h273zM314 811q-12 -10 -26.5 -9.5t-22.5 10.5q-9 10 -6.5 24t14.5 24l145 123q14 11 30.5 11t26.5 -11l101 -123q8 -10 5.5 -24t-13.5 -24q-12 -10 -26.5 -10.5t-23.5 9.5l-61 74q-10 11 -26 11t-30 -11z" />
    <glyph glyph-name="jcircumflex" unicode="&#x135;" 
d="M248 378q-14 0 -22.5 10t-5.5 25q2 14 14 24t26 10h247q17 0 26.5 -12t6.5 -28l-76 -432q-16 -93 -94 -158.5t-170 -65.5q-106 0 -159 83q-18 27 18 46l8 4q8 4 20 0.5t17 -10.5q36 -54 108 -54q64 0 117.5 45.5t65.5 109.5l64 363q2 17 -7.5 28.5t-25.5 11.5h-178z
M270 563q-12 -10 -26.5 -9.5t-22.5 10.5t-5.5 24t14.5 24l144 123q14 11 30.5 11t26.5 -11l101 -123q9 -10 6.5 -24t-14.5 -24t-26.5 -10.5t-22.5 9.5l-61 74q-10 11 -27 11t-30 -11z" />
    <glyph glyph-name="Kcommaaccent" unicode="&#x136;" 
d="M207 695q14 0 22 -10t6 -24l-43 -241q-3 -16 6.5 -28t26.5 -12h81q9 0 21.5 7t17.5 15l190 271q5 8 17.5 15t21.5 7h11q13 0 17 -10t-4 -21l-207 -295q-13 -18 -7 -37l102 -301q4 -11 -3.5 -21t-20.5 -10h-11q-9 0 -19 7t-12 15l-91 270q-3 8 -13 15t-19 7h-84
q-16 0 -30 -11.5t-17 -28.5l-42 -240q-2 -14 -14 -24t-26 -10t-22 10t-6 24l111 627q2 14 14 24t26 10zM281 -249q-2 -14 -14 -24t-26 -10t-22.5 10t-6.5 24l14 80q2 10 -7 16q-22 15 -16 44q4 21 21.5 36t38.5 15q22 0 34.5 -15t8.5 -36z" />
    <glyph glyph-name="kcommaaccent" unicode="&#x137;" 
d="M528 447q13 0 14.5 -11t-9.5 -19l-150 -105q-14 -10 -19 -25.5t2 -28.5l115 -226q5 -11 -2.5 -21.5t-20.5 -10.5h-18q-7 0 -17 6t-13 12l-97 196q-8 15 -24 17.5t-33 -8.5l-95 -67q-5 -4 -12 -14.5t-8 -16.5l-16 -90q-2 -15 -14 -25t-26 -10q-15 0 -23 10t-6 25l110 626
q3 14 15 24t26 10t22.5 -10t5.5 -24l-62 -353q-4 -27 15.5 -37.5t43.5 5.5l236 163q20 8 27 8h33zM281 -249q-2 -14 -14 -24t-26 -10t-22.5 10t-6.5 24l14 80q2 10 -7 16q-22 15 -16 44q4 21 21.5 36t38.5 15q22 0 34.5 -15t8.5 -36z" />
    <glyph glyph-name="Lacute" unicode="&#x139;" 
d="M90 0q-17 0 -26.5 12t-6.5 28l109 621q3 14 15 24t26 10t22.5 -10t5.5 -24l-97 -555q-3 -16 6.5 -28t26.5 -12h305q13 0 21 -9.5t6 -23.5q-2 -13 -13.5 -23t-25.5 -10h-374zM371 771q-12 -10 -26.5 -9.5t-22.5 10.5q-9 10 -6.5 24t14.5 24l149 127q12 10 26.5 10
t22.5 -10q9 -11 6.5 -25t-14.5 -24z" />
    <glyph glyph-name="lacute" unicode="&#x13a;" 
d="M475 69q14 0 22 -10t6 -24q-2 -15 -14 -25t-26 -10h-378q-15 0 -23 10t-6 25q2 14 14.5 24t26.5 10h114q16 0 30 11.5t17 28.5l85 480q3 16 -6.5 28t-26.5 12h-47q-13 0 -21 9.5t-6 23.5t13.5 23.5t25.5 9.5h116q16 0 25.5 -11.5t6.5 -28.5l-96 -546q-3 -16 6.5 -28
t26.5 -12h115zM371 771q-12 -10 -26.5 -9.5t-22.5 10.5q-9 10 -6.5 24t14.5 24l149 127q12 10 26.5 10t22.5 -10q9 -11 6.5 -25t-14.5 -24z" />
    <glyph glyph-name="Lcommaaccent" unicode="&#x13b;" 
d="M90 0q-17 0 -26.5 12t-6.5 28l109 621q3 14 15 24t26 10t22.5 -10t5.5 -24l-97 -555q-3 -16 6.5 -28t26.5 -12h305q13 0 21 -9.5t6 -23.5q-2 -13 -13.5 -23t-25.5 -10h-374zM281 -249q-2 -14 -14 -24t-26 -10t-22.5 10t-6.5 24l14 80q2 10 -7 16q-22 15 -16 44
q4 21 21.5 36t38.5 15q22 0 34.5 -15t8.5 -36z" />
    <glyph glyph-name="lcommaaccent" unicode="&#x13c;" 
d="M475 69q14 0 22 -10t6 -24q-2 -15 -14 -25t-26 -10h-378q-15 0 -23 10t-6 25q2 14 14.5 24t26.5 10h114q16 0 30 11.5t17 28.5l85 480q3 16 -6.5 28t-26.5 12h-47q-13 0 -21 9.5t-6 23.5t13.5 23.5t25.5 9.5h116q16 0 25.5 -11.5t6.5 -28.5l-96 -546q-3 -16 6.5 -28
t26.5 -12h115zM281 -249q-2 -14 -14 -24t-26 -10t-22.5 10t-6.5 24l14 80q2 10 -7 16q-22 15 -16 44q4 21 21.5 36t38.5 15q22 0 34.5 -15t8.5 -36z" />
    <glyph glyph-name="Lcaron" unicode="&#x13d;" 
d="M476 66q13 0 21 -9.5t6 -23.5q-2 -13 -13.5 -23t-25.5 -10h-374q-17 0 -26.5 12t-6.5 28l109 621q3 14 15 24t26 10t22.5 -10t5.5 -24l-97 -555q-3 -16 6.5 -28t26.5 -12h305zM98 938q-8 10 -5.5 24t13.5 25q12 10 26.5 10t23.5 -10l61 -74q10 -11 26.5 -11t29.5 11
l87 74q12 10 26.5 10t22.5 -10q9 -11 6.5 -25t-14.5 -24l-145 -123q-13 -11 -30 -11t-26 11z" />
    <glyph glyph-name="lcaron" unicode="&#x13e;" 
d="M475 69q14 0 22 -10t6 -24q-2 -15 -14 -25t-26 -10h-378q-15 0 -23 10t-6 25q2 14 14.5 24t26.5 10h114q16 0 30 11.5t17 28.5l85 480q3 16 -6.5 28t-26.5 12h-47q-13 0 -21 9.5t-6 23.5t13.5 23.5t25.5 9.5h116q16 0 25.5 -11.5t6.5 -28.5l-96 -546q-3 -16 6.5 -28
t26.5 -12h115zM591 534q-2 -15 -14 -25t-27 -10q-14 0 -22 10t-6 25l14 79q2 10 -7 16q-22 15 -16 44q4 21 21.5 36t38.5 15q22 0 34.5 -15t8.5 -36z" />
    <glyph glyph-name="Ldot" unicode="&#x13f;" 
d="M90 0q-17 0 -26.5 12t-6.5 28l109 621q3 14 15 24t26 10t22.5 -10t5.5 -24l-97 -555q-3 -16 6.5 -28t26.5 -12h305q13 0 21 -9.5t6 -23.5q-2 -13 -13.5 -23t-25.5 -10h-374zM436 434q22 0 34 -15t8 -37q-4 -21 -21.5 -36t-39.5 -15q-21 0 -33.5 15t-8.5 36q4 22 22 37
t39 15z" />
    <glyph glyph-name="ldot" unicode="&#x140;" 
d="M475 69q14 0 22 -10t6 -24q-2 -15 -14 -25t-26 -10h-378q-15 0 -23 10t-6 25q2 14 14.5 24t26.5 10h114q16 0 30 11.5t17 28.5l85 480q3 16 -6.5 28t-26.5 12h-47q-13 0 -21 9.5t-6 23.5t13.5 23.5t25.5 9.5h116q16 0 25.5 -11.5t6.5 -28.5l-96 -546q-3 -16 6.5 -28
t26.5 -12h115zM565 669q22 0 34.5 -15t8.5 -37q-4 -21 -21.5 -36t-39.5 -15q-21 0 -33.5 15t-8.5 36q4 22 21.5 37t38.5 15z" />
    <glyph glyph-name="Lslash" unicode="&#x141;" 
d="M90 0q-17 0 -26.5 12t-6.5 28l19 108q3 17 -8.5 24.5t-28.5 -0.5l-15 -8q-13 -7 -25 -3t-17 15t0.5 24t18.5 20l75 39q8 5 16.5 16t9.5 19l64 367q3 14 15 24t26 10t22.5 -10t5.5 -24l-53 -302q-3 -17 9 -24.5t29 0.5l14 8q13 7 25.5 3t17.5 -15t-1 -24t-19 -20l-74 -39
q-8 -5 -16.5 -16t-9.5 -19l-19 -107q-3 -16 6.5 -28t26.5 -12h305q13 0 21 -9.5t6 -23.5q-2 -13 -13.5 -23t-25.5 -10h-374z" />
    <glyph glyph-name="lslash" unicode="&#x142;" 
d="M213 164q-13 -7 -25 -3t-17 15t0.5 24t18.5 20l75 39q8 5 16.5 16t9.5 19l52 295q3 16 -6.5 28t-26.5 12h-47q-13 0 -21 9.5t-6 23.5t13.5 23.5t25.5 9.5h116q16 0 25.5 -11.5t6.5 -28.5l-52 -296q-3 -17 9 -24.5t29 0.5l14 8q13 7 25.5 3t17.5 -15t-1 -24t-19 -20
l-74 -39q-8 -5 -16.5 -16t-9.5 -19l-19 -104q-3 -16 6.5 -28t26.5 -12h115q14 0 22 -10t6 -24q-2 -15 -14 -25t-26 -10h-378q-15 0 -23 10t-6 25q2 14 14.5 24t26.5 10h114q16 0 30 11.5t17 28.5l7 39q3 17 -8.5 24.5t-28.5 -0.5z" />
    <glyph glyph-name="Nacute" unicode="&#x143;" 
d="M544 661q3 14 15 24t26 10t22.5 -10t5.5 -24l-110 -626q-2 -15 -14 -25t-26 -10h-11q-9 0 -19 6.5t-13 14.5l-150 410q-6 17 -24 20t-34.5 -8t-19.5 -31l-67 -377q-2 -15 -14 -25t-26 -10q-15 0 -23 10t-6 25l110 626q3 14 15 24t26 10h11q8 0 18.5 -7t12.5 -14l151 -404
q7 -18 24.5 -21t34.5 8.5t20 31.5zM371 771q-12 -10 -26.5 -9.5t-22.5 10.5q-9 10 -6.5 24t14.5 24l149 127q12 10 26.5 10t22.5 -10q9 -11 6.5 -25t-14.5 -24z" />
    <glyph glyph-name="nacute" unicode="&#x144;" 
d="M352 447q93 0 147 -65.5t37 -158.5l-33 -188q-2 -15 -14 -25t-26 -10q-15 0 -23 10t-6 25l33 188q11 65 -26 110t-101 45t-117.5 -45t-64.5 -109l-33 -189q-2 -15 -14 -25t-26 -10q-15 0 -23 10t-6 25l67 378q2 14 14 24t26 10h4q13 0 20 -9t5 -22v-3q-1 -8 6 -11t14 2
q67 43 140 43zM327 523q-12 -10 -26.5 -9.5t-22.5 10.5t-5.5 24t14.5 24l149 127q12 10 26.5 10t22.5 -10t5.5 -24.5t-14.5 -24.5z" />
    <glyph glyph-name="Ncommaaccent" unicode="&#x145;" 
d="M544 661q3 14 15 24t26 10t22.5 -10t5.5 -24l-110 -626q-2 -15 -14 -25t-26 -10h-11q-9 0 -19 6.5t-13 14.5l-150 410q-6 17 -24 20t-34.5 -8t-19.5 -31l-67 -377q-2 -15 -14 -25t-26 -10q-15 0 -23 10t-6 25l110 626q3 14 15 24t26 10h11q8 0 18.5 -7t12.5 -14l151 -404
q7 -18 24.5 -21t34.5 8.5t20 31.5zM281 -249q-2 -14 -14 -24t-26 -10t-22.5 10t-6.5 24l14 80q2 10 -7 16q-22 15 -16 44q4 21 21.5 36t38.5 15q22 0 34.5 -15t8.5 -36z" />
    <glyph glyph-name="ncommaaccent" unicode="&#x146;" 
d="M352 447q93 0 147 -65.5t37 -158.5l-33 -188q-2 -15 -14 -25t-26 -10q-15 0 -23 10t-6 25l33 188q11 65 -26 110t-101 45t-117.5 -45t-64.5 -109l-33 -189q-2 -15 -14 -25t-26 -10q-15 0 -23 10t-6 25l67 378q2 14 14 24t26 10h4q13 0 20 -9t5 -22v-3q-1 -8 6 -11t14 2
q67 43 140 43zM281 -249q-2 -14 -14 -24t-26 -10t-22.5 10t-6.5 24l14 80q2 10 -7 16q-22 15 -16 44q4 21 21.5 36t38.5 15q22 0 34.5 -15t8.5 -36z" />
    <glyph glyph-name="Ncaron" unicode="&#x147;" 
d="M544 661q3 14 15 24t26 10t22.5 -10t5.5 -24l-110 -626q-2 -15 -14 -25t-26 -10h-11q-9 0 -19 6.5t-13 14.5l-150 410q-6 17 -24 20t-34.5 -8t-19.5 -31l-67 -377q-2 -15 -14 -25t-26 -10q-15 0 -23 10t-6 25l110 626q3 14 15 24t26 10h11q8 0 18.5 -7t12.5 -14l151 -404
q7 -18 24.5 -21t34.5 8.5t20 31.5zM287 938q-8 10 -5.5 24t13.5 25q12 10 26.5 10t23.5 -10l61 -74q10 -11 26 -11t30 11l87 74q12 10 26.5 10t22.5 -10q9 -11 6.5 -25t-14.5 -24l-145 -123q-13 -11 -30 -11t-26 11z" />
    <glyph glyph-name="ncaron" unicode="&#x148;" 
d="M352 447q93 0 147 -65.5t37 -158.5l-33 -188q-2 -15 -14 -25t-26 -10q-15 0 -23 10t-6 25l33 188q11 65 -26 110t-101 45t-117.5 -45t-64.5 -109l-33 -189q-2 -15 -14 -25t-26 -10q-15 0 -23 10t-6 25l67 378q2 14 14 24t26 10h4q13 0 20 -9t5 -22v-3q-1 -8 6 -11t14 2
q67 43 140 43zM243 690q-8 10 -5.5 24.5t14.5 24.5t26.5 10t22.5 -10l61 -74q10 -11 26 -11t30 11l88 74q12 10 26.5 10t22.5 -10t5.5 -24.5t-14.5 -24.5l-145 -123q-13 -11 -29.5 -11t-26.5 11z" />
    <glyph glyph-name="napostrophe" unicode="&#x149;" 
d="M352 447q93 0 147 -65.5t37 -158.5l-33 -188q-2 -15 -14 -25t-26 -10q-15 0 -23 10t-6 25l33 188q11 65 -26 110t-101 45t-117.5 -45t-64.5 -109l-33 -189q-2 -15 -14 -25t-26 -10q-15 0 -23 10t-6 25l67 378q2 14 14 24t26 10h4q13 0 20 -9t5 -22v-3q-1 -8 6 -11t14 2
q67 43 140 43zM230 632q-2 -15 -14 -25t-26 -10t-22.5 10t-6.5 25l14 79q2 10 -7 16q-21 14 -16 44q4 21 21.5 36t38.5 15q22 0 34.5 -15t8.5 -36z" />
    <glyph glyph-name="Eng" unicode="&#x14a;" 
d="M585 695q14 0 22.5 -10t5.5 -24l-122 -695q-15 -87 -97.5 -150.5t-172.5 -63.5q-122 0 -180 89q-7 12 -2.5 24t19.5 20l7 4q8 4 19.5 2t16.5 -8q20 -28 55.5 -46.5t76.5 -18.5q63 0 121 44t68 104l4 24q1 2 0.5 9.5t-1.5 9.5l-155 422q-6 17 -24 20t-34.5 -8t-19.5 -31
l-67 -377q-2 -15 -14 -25t-26 -10q-15 0 -23 10t-6 25l110 626q3 14 15 24t26 10h11q8 0 18.5 -7t12.5 -14l151 -404q7 -18 24.5 -21t34.5 8.5t20 31.5l65 372q3 14 15 24t26 10z" />
    <glyph glyph-name="eng" unicode="&#x14b;" 
d="M536 223l-43 -247q-16 -93 -94 -158.5t-170 -65.5q-106 0 -159 83q-18 27 18 46l8 4q8 4 20 0.5t17 -10.5q36 -54 108 -54q64 0 118 45.5t65 109.5l44 253q8 63 -28.5 106t-99.5 43q-64 0 -117.5 -45t-64.5 -109l-33 -189q-2 -15 -14 -25t-26 -10q-15 0 -23 10t-6 25
l67 378q2 14 14 24t26 10h4q13 0 20 -9t5 -22v-3q-1 -8 6 -11t14 2q67 43 140 43q93 0 147 -65.5t37 -158.5z" />
    <glyph glyph-name="Omacron" unicode="&#x14c;" 
d="M582 481l-47 -268q-16 -88 -95 -151t-169 -63q-89 0 -144 63t-39 151l47 268q16 88 93 151t166 63q90 0 147 -63t41 -151zM466 213l47 268q10 61 -29.5 104.5t-101.5 43.5t-115 -43.5t-63 -104.5l-47 -268q-11 -61 26 -104.5t99 -43.5t117.5 43.5t66.5 104.5zM300 845
q-13 0 -20.5 10t-5.5 23t13.5 22.5t24.5 9.5h244q13 0 21 -9.5t6 -22.5t-13.5 -23t-25.5 -10h-244z" />
    <glyph glyph-name="omacron" unicode="&#x14d;" 
d="M352 447q93 0 147 -65.5t37 -158.5q-16 -92 -93 -157.5t-170 -65.5q-92 0 -146 65.5t-38 157.5q16 93 93.5 158.5t169.5 65.5zM285 69q64 0 117.5 45t64.5 109q11 65 -26 110t-101 45t-117.5 -45.5t-64.5 -109.5t26 -109t101 -45zM257 597q-13 0 -21 9.5t-6 23.5
q2 13 13.5 22.5t24.5 9.5h244q13 0 21 -9.5t6 -22.5q-2 -14 -13.5 -23.5t-24.5 -9.5h-244z" />
    <glyph glyph-name="Obreve" unicode="&#x14e;" 
d="M582 481l-47 -268q-16 -88 -95 -151t-169 -63q-89 0 -144 63t-39 151l47 268q16 88 93 151t166 63q90 0 147 -63t41 -151zM466 213l47 268q10 61 -29.5 104.5t-101.5 43.5t-115 -43.5t-63 -104.5l-47 -268q-11 -61 26 -104.5t99 -43.5t117.5 43.5t66.5 104.5zM493 909
q2 5 10 11t12 6h17q38 0 25 -31q-18 -43 -58 -70.5t-85 -27.5t-75 27.5t-33 70.5q-3 31 35 31h17q5 0 10.5 -6t6.5 -11q2 -20 15.5 -32t35.5 -12q21 0 39.5 12t27.5 32z" />
    <glyph glyph-name="Ohungarumlaut" unicode="&#x150;" 
d="M582 481l-47 -268q-16 -88 -95 -151t-169 -63q-89 0 -144 63t-39 151l47 268q16 88 93 151t166 63q90 0 147 -63t41 -151zM466 213l47 268q10 61 -29.5 104.5t-101.5 43.5t-115 -43.5t-63 -104.5l-47 -268q-11 -61 26 -104.5t99 -43.5t117.5 43.5t66.5 104.5zM349 791
q-12 -10 -26.5 -9.5t-22.5 10.5t-5.5 24t14.5 24l149 127q12 10 26.5 10t22.5 -10t5.5 -24.5t-14.5 -24.5zM559 791q-12 -10 -26.5 -9.5t-22.5 10.5t-5.5 24t14.5 24l149 127q12 10 26.5 10t22.5 -10t5.5 -24.5t-14.5 -24.5z" />
    <glyph glyph-name="ohungarumlaut" unicode="&#x151;" 
d="M352 447q93 0 147 -65.5t37 -158.5q-16 -92 -93 -157.5t-170 -65.5q-92 0 -146 65.5t-38 157.5q16 93 93.5 158.5t169.5 65.5zM285 69q64 0 117.5 45t64.5 109q11 65 -26 110t-101 45t-117.5 -45.5t-64.5 -109.5t26 -109t101 -45zM287 553q-12 -10 -26.5 -9.5t-22.5 10.5
t-5.5 24t14.5 24l149 127q12 10 26.5 10t22.5 -10t5.5 -24.5t-14.5 -24.5zM497 553q-12 -10 -26.5 -9.5t-22.5 10.5t-5.5 24t14.5 24l149 127q12 10 26.5 10t22.5 -10t5.5 -24.5t-14.5 -24.5z" />
    <glyph glyph-name="OE" unicode="&#x152;" 
d="M88 213l47 268q16 88 94 151t167 63h191q13 0 21 -9.5t6 -23.5q-2 -13 -13.5 -23t-25.5 -10h-82q-16 0 -30 -11.5t-17 -28.5l-30 -169q-3 -16 6.5 -28t26.5 -12h14q13 0 20.5 -9.5t5.5 -22.5q-2 -14 -13.5 -23.5t-24.5 -9.5h-13q-17 0 -31 -11.5t-17 -28.5l-29 -166
q-3 -16 6.5 -28t26.5 -12h81q14 0 22 -10t6 -24q-2 -15 -14 -25t-26 -10h-190q-89 0 -145 62.5t-40 150.5zM250 73q34 -8 42 36l85 480q4 21 -3 30.5t-27 5.5q-53 -12 -93.5 -52t-49.5 -92l-47 -268q-10 -51 17 -89.5t76 -50.5z" />
    <glyph glyph-name="oe" unicode="&#x153;" 
d="M454 113q5 7 14 10t15 0l5 -3q23 -12 7 -35q-25 -39 -57.5 -62t-61.5 -23q-60 0 -80 55q-3 6 -12.5 6t-13.5 -6q-39 -55 -100 -55q-51 0 -74 65t-7 158q17 94 64.5 159t103.5 65q55 0 73 -56q2 -6 11 -6t14 6q38 56 92 56q45 0 69.5 -39t25 -89t-5.5 -97q-6 -33 -43 -33
l-117 2q-36 0 -38 -34q-1 -39 12.5 -63.5t37.5 -24.5q35 0 66 44zM190 69q25 0 51 44t37 110q12 67 2 111.5t-35 44.5t-50 -45.5t-37 -110.5q-11 -64 -2 -109t34 -45zM362 293q-5 -16 2 -25t24 -9h52q16 0 26.5 9t10.5 25q1 37 -11.5 60t-31.5 23q-18 0 -39 -23t-33 -60z
" />
    <glyph glyph-name="Racute" unicode="&#x154;" 
d="M165 655q3 17 17 28.5t31 11.5h193q87 0 139.5 -62.5t36.5 -149.5q-10 -57 -49 -106.5t-93 -77.5q-15 -7 -25.5 -26t-6.5 -32l76 -207q5 -12 -3.5 -23t-22.5 -11h-15q-9 0 -19 6.5t-13 14.5l-84 230q-3 8 -13 14.5t-19 6.5h-88q-16 0 -30 -11.5t-17 -28.5l-35 -197
q-2 -15 -14 -25t-26 -10q-15 0 -23 10t-6 25zM394 629h-124q-16 0 -30 -11.5t-17 -28.5l-37 -211q-3 -16 6.5 -28t26.5 -12h124q60 0 109.5 42.5t60.5 102.5q10 61 -24.5 103.5t-94.5 42.5zM371 771q-12 -10 -26.5 -9.5t-22.5 10.5q-9 10 -6.5 24t14.5 24l149 127
q12 10 26.5 10t22.5 -10q9 -11 6.5 -25t-14.5 -24z" />
    <glyph glyph-name="racute" unicode="&#x155;" 
d="M454 378q-64 0 -117.5 -45t-64.5 -109l-20 -115q-3 -16 6.5 -28t26.5 -12h93q14 0 22 -10t6 -24q-2 -15 -14 -25t-26 -10h-281q-15 0 -23 10t-6 25q2 14 14.5 24t26.5 10h39q16 0 30 11.5t17 28.5l41 229q2 17 -7.5 28.5t-25.5 11.5h-40q-14 0 -22.5 10t-5.5 25
q2 14 14 24t26 10h118q13 0 20 -9t5 -22v-3q-1 -8 6 -11t14 2q67 43 140 43q49 0 89 -20q15 -9 4 -25l-24 -33q-8 -10 -19 -5q-26 14 -62 14zM327 523q-12 -10 -26.5 -9.5t-22.5 10.5t-5.5 24t14.5 24l149 127q12 10 26.5 10t22.5 -10t5.5 -24.5t-14.5 -24.5z" />
    <glyph glyph-name="Rcommaaccent" unicode="&#x156;" 
d="M165 655q3 17 17 28.5t31 11.5h193q87 0 139.5 -62.5t36.5 -149.5q-10 -57 -49 -106.5t-93 -77.5q-15 -7 -25.5 -26t-6.5 -32l76 -207q5 -12 -3.5 -23t-22.5 -11h-15q-9 0 -19 6.5t-13 14.5l-84 230q-3 8 -13 14.5t-19 6.5h-88q-16 0 -30 -11.5t-17 -28.5l-35 -197
q-2 -15 -14 -25t-26 -10q-15 0 -23 10t-6 25zM394 629h-124q-16 0 -30 -11.5t-17 -28.5l-37 -211q-3 -16 6.5 -28t26.5 -12h124q60 0 109.5 42.5t60.5 102.5q10 61 -24.5 103.5t-94.5 42.5zM281 -249q-2 -14 -14 -24t-26 -10t-22.5 10t-6.5 24l14 80q2 10 -7 16
q-22 15 -16 44q4 21 21.5 36t38.5 15q22 0 34.5 -15t8.5 -36z" />
    <glyph glyph-name="rcommaaccent" unicode="&#x157;" 
d="M454 378q-64 0 -117.5 -45t-64.5 -109l-20 -115q-3 -16 6.5 -28t26.5 -12h93q14 0 22 -10t6 -24q-2 -15 -14 -25t-26 -10h-281q-15 0 -23 10t-6 25q2 14 14.5 24t26.5 10h39q16 0 30 11.5t17 28.5l41 229q2 17 -7.5 28.5t-25.5 11.5h-40q-14 0 -22.5 10t-5.5 25
q2 14 14 24t26 10h118q13 0 20 -9t5 -22v-3q-1 -8 6 -11t14 2q67 43 140 43q49 0 89 -20q15 -9 4 -25l-24 -33q-8 -10 -19 -5q-26 14 -62 14zM281 -249q-2 -14 -14 -24t-26 -10t-22.5 10t-6.5 24l14 80q2 10 -7 16q-22 15 -16 44q4 21 21.5 36t38.5 15q22 0 34.5 -15
t8.5 -36z" />
    <glyph glyph-name="Rcaron" unicode="&#x158;" 
d="M165 655q3 17 17 28.5t31 11.5h193q87 0 139.5 -62.5t36.5 -149.5q-10 -57 -49 -106.5t-93 -77.5q-15 -7 -25.5 -26t-6.5 -32l76 -207q5 -12 -3.5 -23t-22.5 -11h-15q-9 0 -19 6.5t-13 14.5l-84 230q-3 8 -13 14.5t-19 6.5h-88q-16 0 -30 -11.5t-17 -28.5l-35 -197
q-2 -15 -14 -25t-26 -10q-15 0 -23 10t-6 25zM394 629h-124q-16 0 -30 -11.5t-17 -28.5l-37 -211q-3 -16 6.5 -28t26.5 -12h124q60 0 109.5 42.5t60.5 102.5q10 61 -24.5 103.5t-94.5 42.5zM287 938q-8 10 -5.5 24t13.5 25q12 10 26.5 10t23.5 -10l61 -74q10 -11 26 -11
t30 11l87 74q12 10 26.5 10t22.5 -10q9 -11 6.5 -25t-14.5 -24l-145 -123q-13 -11 -30 -11t-26 11z" />
    <glyph glyph-name="rcaron" unicode="&#x159;" 
d="M454 378q-64 0 -117.5 -45t-64.5 -109l-20 -115q-3 -16 6.5 -28t26.5 -12h93q14 0 22 -10t6 -24q-2 -15 -14 -25t-26 -10h-281q-15 0 -23 10t-6 25q2 14 14.5 24t26.5 10h39q16 0 30 11.5t17 28.5l41 229q2 17 -7.5 28.5t-25.5 11.5h-40q-14 0 -22.5 10t-5.5 25
q2 14 14 24t26 10h118q13 0 20 -9t5 -22v-3q-1 -8 6 -11t14 2q67 43 140 43q49 0 89 -20q15 -9 4 -25l-24 -33q-8 -10 -19 -5q-26 14 -62 14zM243 690q-8 10 -5.5 24.5t14.5 24.5t26.5 10t22.5 -10l61 -74q10 -11 26 -11t30 11l88 74q12 10 26.5 10t22.5 -10t5.5 -24.5
t-14.5 -24.5l-145 -123q-13 -11 -29.5 -11t-26.5 11z" />
    <glyph glyph-name="Sacute" unicode="&#x15a;" 
d="M339 380q93 -14 149 -64.5t43 -125.5q-14 -79 -91 -134.5t-168 -55.5q-80 0 -134.5 46t-56.5 114q0 31 37 31q9 0 21 -12.5t14 -22.5q8 -39 44 -64t87 -25q63 0 115.5 36t62.5 87q8 49 -31.5 82t-103.5 42q-91 13 -146.5 64t-41.5 126q14 79 90 135t166 56q81 0 136 -46
t57 -114q1 -16 -9 -23.5t-28 -7.5q-9 0 -20.5 13t-13.5 22q-8 39 -45.5 64.5t-88.5 25.5q-62 0 -114 -37t-61 -88q-9 -49 29.5 -82t101.5 -42zM371 771q-12 -10 -26.5 -9.5t-22.5 10.5q-9 10 -6.5 24t14.5 24l149 127q12 10 26.5 10t22.5 -10q9 -11 6.5 -25t-14.5 -24z" />
    <glyph glyph-name="sacute" unicode="&#x15b;" 
d="M318 257q112 0 161.5 -36.5t39.5 -94.5q-9 -52 -80.5 -89t-165.5 -37q-76 0 -132 27.5t-67 68.5q-5 17 3 23.5t29 6.5h17q3 0 10 -6t9 -9q9 -21 48.5 -34.5t93.5 -13.5q65 0 113.5 18.5t53.5 44.5q3 19 -6.5 32t-44 22t-94.5 9q-110 0 -160 36t-40 91q10 54 82.5 92.5
t163.5 38.5q80 0 135 -28t65 -71q4 -17 -4.5 -24.5t-28.5 -7.5h-17q-3 0 -10 6t-9 9q-9 22 -48.5 37.5t-93.5 15.5q-64 0 -113 -21t-54 -47q-3 -16 7.5 -28.5t45 -21.5t91.5 -9zM327 523q-12 -10 -26.5 -9.5t-22.5 10.5t-5.5 24t14.5 24l149 127q12 10 26.5 10t22.5 -10
t5.5 -24.5t-14.5 -24.5z" />
    <glyph glyph-name="Scircumflex" unicode="&#x15c;" 
d="M339 380q93 -14 149 -64.5t43 -125.5q-14 -79 -91 -134.5t-168 -55.5q-80 0 -134.5 46t-56.5 114q0 31 37 31q9 0 21 -12.5t14 -22.5q8 -39 44 -64t87 -25q63 0 115.5 36t62.5 87q8 49 -31.5 82t-103.5 42q-91 13 -146.5 64t-41.5 126q14 79 90 135t166 56q81 0 136 -46
t57 -114q1 -16 -9 -23.5t-28 -7.5q-9 0 -20.5 13t-13.5 22q-8 39 -45.5 64.5t-88.5 25.5q-62 0 -114 -37t-61 -88q-9 -49 29.5 -82t101.5 -42zM314 811q-12 -10 -26.5 -9.5t-22.5 10.5q-9 10 -6.5 24t14.5 24l145 123q14 11 30.5 11t26.5 -11l101 -123q8 -10 5.5 -24
t-13.5 -24q-12 -10 -26.5 -10.5t-23.5 9.5l-61 74q-10 11 -26 11t-30 -11z" />
    <glyph glyph-name="scircumflex" unicode="&#x15d;" 
d="M318 257q112 0 161.5 -36.5t39.5 -94.5q-9 -52 -80.5 -89t-165.5 -37q-76 0 -132 27.5t-67 68.5q-5 17 3 23.5t29 6.5h17q3 0 10 -6t9 -9q9 -21 48.5 -34.5t93.5 -13.5q65 0 113.5 18.5t53.5 44.5q3 19 -6.5 32t-44 22t-94.5 9q-110 0 -160 36t-40 91q10 54 82.5 92.5
t163.5 38.5q80 0 135 -28t65 -71q4 -17 -4.5 -24.5t-28.5 -7.5h-17q-3 0 -10 6t-9 9q-9 22 -48.5 37.5t-93.5 15.5q-64 0 -113 -21t-54 -47q-3 -16 7.5 -28.5t45 -21.5t91.5 -9zM270 563q-12 -10 -26.5 -9.5t-22.5 10.5t-5.5 24t14.5 24l144 123q14 11 30.5 11t26.5 -11
l101 -123q9 -10 6.5 -24t-14.5 -24t-26.5 -10.5t-22.5 9.5l-61 74q-10 11 -27 11t-30 -11z" />
    <glyph glyph-name="Scedilla" unicode="&#x15e;" 
d="M339 380q93 -14 149 -64.5t43 -125.5q-10 -58 -57 -105t-112 -70q-7 -2 -10 -10.5t-1 -14.5q16 -48 -14 -105q-28 -46 -74.5 -67t-94.5 -13q-33 5 -13 40q5 10 20.5 18.5t26.5 7.5q38 -3 62.5 23t21.5 58.5t-35 46.5q-1 0 -3 1t-3 1q-69 8 -115 51t-49 103q-1 17 9 26.5
t28 9.5q9 0 21 -12.5t14 -22.5q8 -39 44 -64t87 -25q63 0 115.5 36t62.5 87q8 49 -31.5 82t-103.5 42q-91 13 -146.5 64t-41.5 126q14 79 90 135t166 56q81 0 136 -46t57 -114q1 -16 -9 -23.5t-28 -7.5q-9 0 -20.5 13t-13.5 22q-8 39 -45.5 64.5t-88.5 25.5q-62 0 -114 -37
t-61 -88q-9 -49 29.5 -82t101.5 -42z" />
    <glyph glyph-name="scedilla" unicode="&#x15f;" 
d="M318 257q112 0 161.5 -36.5t39.5 -94.5q-7 -38 -49.5 -70t-104.5 -46q-7 -1 -11 -9t-2 -14q14 -47 -15 -102q-28 -46 -74.5 -67t-94.5 -13q-33 5 -13 40q5 9 24 17.5t30 8.5q35 0 57 25.5t19 57t-32 45.5q-1 0 -7 1.5t-7 1.5q-65 5 -111 32t-55 64q-4 16 4 22t27 6h19
q3 0 10 -6t9 -9q9 -21 48.5 -34.5t93.5 -13.5q65 0 113.5 18.5t53.5 44.5q3 19 -6.5 32t-44 22t-94.5 9q-110 0 -160 36t-40 91q10 54 82.5 92.5t163.5 38.5q80 0 135 -28t65 -71q4 -17 -4.5 -24.5t-28.5 -7.5h-17q-3 0 -10 6t-9 9q-9 22 -48.5 37.5t-93.5 15.5
q-64 0 -113 -21t-54 -47q-3 -16 7.5 -28.5t45 -21.5t91.5 -9z" />
    <glyph glyph-name="Scaron" unicode="&#x160;" 
d="M339 380q93 -14 149 -64.5t43 -125.5q-14 -79 -91 -134.5t-168 -55.5q-80 0 -134.5 46t-56.5 114q0 31 37 31q9 0 21 -12.5t14 -22.5q8 -39 44 -64t87 -25q63 0 115.5 36t62.5 87q8 49 -31.5 82t-103.5 42q-91 13 -146.5 64t-41.5 126q14 79 90 135t166 56q81 0 136 -46
t57 -114q1 -16 -9 -23.5t-28 -7.5q-9 0 -20.5 13t-13.5 22q-8 39 -45.5 64.5t-88.5 25.5q-62 0 -114 -37t-61 -88q-9 -49 29.5 -82t101.5 -42zM287 938q-8 10 -5.5 24t13.5 25q12 10 26.5 10t23.5 -10l61 -74q10 -11 26 -11t30 11l87 74q12 10 26.5 10t22.5 -10
q9 -11 6.5 -25t-14.5 -24l-145 -123q-13 -11 -30 -11t-26 11z" />
    <glyph glyph-name="scaron" unicode="&#x161;" 
d="M318 257q112 0 161.5 -36.5t39.5 -94.5q-9 -52 -80.5 -89t-165.5 -37q-76 0 -132 27.5t-67 68.5q-5 17 3 23.5t29 6.5h17q3 0 10 -6t9 -9q9 -21 48.5 -34.5t93.5 -13.5q65 0 113.5 18.5t53.5 44.5q3 19 -6.5 32t-44 22t-94.5 9q-110 0 -160 36t-40 91q10 54 82.5 92.5
t163.5 38.5q80 0 135 -28t65 -71q4 -17 -4.5 -24.5t-28.5 -7.5h-17q-3 0 -10 6t-9 9q-9 22 -48.5 37.5t-93.5 15.5q-64 0 -113 -21t-54 -47q-3 -16 7.5 -28.5t45 -21.5t91.5 -9zM243 690q-8 10 -5.5 24.5t14.5 24.5t26.5 10t22.5 -10l61 -74q10 -11 26 -11t30 11l88 74
q12 10 26.5 10t22.5 -10t5.5 -24.5t-14.5 -24.5l-145 -123q-13 -11 -29.5 -11t-26.5 11z" />
    <glyph glyph-name="Tcommaaccent" unicode="&#x162;" 
d="M194 629q-13 0 -21 9.5t-6 23.5t13.5 23.5t25.5 9.5h381q13 0 21 -9.5t6 -23.5q-2 -13 -13.5 -23t-25.5 -10h-118q-16 0 -30 -11.5t-17 -28.5l-98 -556q-2 -13 -13.5 -23t-25.5 -10q-13 0 -21 9.5t-6 23.5l98 556q3 16 -6.5 28t-26.5 12h-117zM281 -249q-2 -14 -14 -24
t-26 -10t-22.5 10t-6.5 24l14 80q2 10 -7 16q-22 15 -16 44q4 21 21.5 36t38.5 15q22 0 34.5 -15t8.5 -36z" />
    <glyph glyph-name="tcommaaccent" unicode="&#x163;" 
d="M331 487q-3 -16 6.5 -28t26.5 -12h177q14 0 22.5 -10t6.5 -24q-3 -15 -15 -25t-26 -10h-177q-17 0 -31 -12t-16 -28l-32 -178q-7 -38 15.5 -64.5t60.5 -26.5q30 0 57.5 18.5t41.5 47.5q4 7 15 16t18 9h10q38 0 25 -32q-21 -55 -71.5 -91.5t-107.5 -36.5q-67 0 -105 47
t-27 113l32 178q2 17 -7.5 28.5t-25.5 11.5h-53q-14 0 -22.5 10t-5.5 25q2 14 14 24t26 10h53q16 0 30 11.5t17 28.5l9 53q3 14 14.5 24t25.5 10t22.5 -10t5.5 -24zM281 -249q-2 -14 -14 -24t-26 -10t-22.5 10t-6.5 24l14 80q2 10 -7 16q-22 15 -16 44q4 21 21.5 36t38.5 15
q22 0 34.5 -15t8.5 -36z" />
    <glyph glyph-name="Tcaron" unicode="&#x164;" 
d="M194 629q-13 0 -21 9.5t-6 23.5t13.5 23.5t25.5 9.5h381q13 0 21 -9.5t6 -23.5q-2 -13 -13.5 -23t-25.5 -10h-118q-16 0 -30 -11.5t-17 -28.5l-98 -556q-2 -13 -13.5 -23t-25.5 -10q-13 0 -21 9.5t-6 23.5l98 556q3 16 -6.5 28t-26.5 12h-117zM287 938q-8 10 -5.5 24
t13.5 25q12 10 26.5 10t23.5 -10l61 -74q10 -11 26 -11t30 11l87 74q12 10 26.5 10t22.5 -10q9 -11 6.5 -25t-14.5 -24l-145 -123q-13 -11 -30 -11t-26 11z" />
    <glyph glyph-name="tcaron" unicode="&#x165;" 
d="M331 487q-3 -16 6.5 -28t26.5 -12h177q14 0 22.5 -10t6.5 -24q-3 -15 -15 -25t-26 -10h-177q-17 0 -31 -12t-16 -28l-32 -178q-7 -38 15.5 -64.5t60.5 -26.5q30 0 57.5 18.5t41.5 47.5q4 7 15 16t18 9h10q38 0 25 -32q-21 -55 -71.5 -91.5t-107.5 -36.5q-67 0 -105 47
t-27 113l32 178q2 17 -7.5 28.5t-25.5 11.5h-53q-14 0 -22.5 10t-5.5 25q2 14 14 24t26 10h53q16 0 30 11.5t17 28.5l9 53q3 14 14.5 24t25.5 10t22.5 -10t5.5 -24zM604 607q-2 -15 -14 -25t-27 -10q-14 0 -22 10t-6 25l14 79q2 10 -7 16q-22 15 -16 44q3 21 21 36t39 15
q22 0 34 -15t9 -36z" />
    <glyph glyph-name="Tbar" unicode="&#x166;" 
d="M205 301q-13 0 -21 9.5t-6 23.5q2 13 13.5 22.5t24.5 9.5h49q16 0 30 11.5t17 28.5l32 183q3 16 -6.5 28t-26.5 12h-117q-13 0 -21 9.5t-6 23.5t13.5 23.5t25.5 9.5h381q13 0 21 -9.5t6 -23.5q-2 -13 -13.5 -23t-25.5 -10h-118q-16 0 -30 -11.5t-17 -28.5l-32 -183
q-3 -17 6.5 -28.5t26.5 -11.5h49q13 0 21 -9.5t6 -22.5q-2 -14 -13.5 -23.5t-24.5 -9.5h-50q-16 0 -30 -11.5t-17 -28.5l-40 -228q-2 -13 -13.5 -23t-25.5 -10q-13 0 -21 9.5t-6 23.5l40 228q3 16 -6.5 28t-26.5 12h-48z" />
    <glyph glyph-name="tbar" unicode="&#x167;" 
d="M124 235q-13 0 -21 9.5t-6 23.5q2 13 13.5 22.5t24.5 9.5h56q16 0 29.5 11.5t16.5 27.5t-6.5 27.5t-25.5 11.5h-54q-14 0 -22.5 10t-5.5 25q2 14 14 24t26 10h53q16 0 30 11.5t17 28.5l9 53q3 14 14.5 24t25.5 10t22.5 -10t5.5 -24l-9 -53q-3 -16 6.5 -28t26.5 -12h177
q14 0 22.5 -10t6.5 -24q-3 -15 -15 -25t-26 -10h-178q-16 0 -29.5 -11t-16.5 -28q-3 -16 6 -27.5t26 -11.5h42q13 0 21 -9.5t6 -22.5q-2 -14 -13.5 -23.5t-24.5 -9.5h-44q-16 0 -29 -11t-15 -26l-7 -38q-7 -38 15.5 -64.5t60.5 -26.5q30 0 57.5 18.5t41.5 47.5q4 7 15 16
t18 9h10q38 0 25 -32q-21 -55 -71.5 -91.5t-107.5 -36.5q-67 0 -105 47t-27 113l7 38q2 15 -6.5 26t-24.5 11h-57z" />
    <glyph glyph-name="Utilde" unicode="&#x168;" 
d="M544 661q3 14 15 24t26 10t22.5 -10t5.5 -24l-78 -447q-16 -88 -95 -151t-169 -63q-89 0 -144 63t-39 151l78 447q3 14 15 24t26 10t22.5 -10t5.5 -24l-78 -447q-11 -61 26.5 -104.5t99.5 -43.5t117 43.5t66 104.5zM398 859q-2 14 -16 21t-30 0q-30 -11 -28 -53
q2 -11 -11 -17l-14 -4q-30 -11 -32 16q-1 34 19 65t55 43q37 13 70.5 -0.5t44.5 -50.5q5 -16 17.5 -23.5t26.5 -0.5q15 7 21.5 16t7.5 15.5t0 20.5q-2 12 12 18l15 6q30 10 31 -15q2 -38 -16 -69.5t-57 -44.5q-36 -15 -70.5 -1.5t-45.5 58.5z" />
    <glyph glyph-name="utilde" unicode="&#x169;" 
d="M274 0q-93 0 -147 65.5t-38 158.5l34 189q2 14 14 24t26 10t22.5 -10t6.5 -24l-34 -189q-11 -64 26 -109.5t102 -45.5q64 0 117 45t64 109l34 190q2 14 14 24t26 10t22.5 -10t6.5 -24l-67 -378q-2 -15 -14 -25t-26 -10h-4q-13 0 -20.5 9t-5.5 22l1 3q1 8 -6 11t-15 -2
q-65 -43 -139 -43zM355 611q-3 14 -17 21t-30 0q-31 -12 -27 -53q0 -12 -12 -17l-14 -4q-30 -11 -31 16q-2 34 18 65t55 43q37 13 70.5 -0.5t44.5 -50.5q6 -16 18 -23t26 -1q21 10 26 21.5t3 30.5q0 13 13 18l14 6q31 10 31 -15q2 -38 -15.5 -69.5t-56.5 -44.5
q-37 -15 -71 -1.5t-45 58.5z" />
    <glyph glyph-name="umacron" unicode="&#x16b;" 
d="M274 0q-93 0 -147 65.5t-38 158.5l34 189q2 14 14 24t26 10t22.5 -10t6.5 -24l-34 -189q-11 -64 26 -109.5t102 -45.5q64 0 117 45t64 109l34 190q2 14 14 24t26 10t22.5 -10t6.5 -24l-67 -378q-2 -15 -14 -25t-26 -10h-4q-13 0 -20.5 9t-5.5 22l1 3q1 8 -6 11t-15 -2
q-65 -43 -139 -43zM257 597q-13 0 -21 9.5t-6 23.5q2 13 13.5 22.5t24.5 9.5h244q13 0 21 -9.5t6 -22.5q-2 -14 -13.5 -23.5t-24.5 -9.5h-244z" />
    <glyph glyph-name="Ubreve" unicode="&#x16c;" 
d="M544 661q3 14 15 24t26 10t22.5 -10t5.5 -24l-78 -447q-16 -88 -95 -151t-169 -63q-89 0 -144 63t-39 151l78 447q3 14 15 24t26 10t22.5 -10t5.5 -24l-78 -447q-11 -61 26.5 -104.5t99.5 -43.5t117 43.5t66 104.5zM493 909q2 5 10 11t12 6h17q38 0 25 -31
q-18 -43 -58 -70.5t-85 -27.5t-75 27.5t-33 70.5q-3 31 35 31h17q5 0 10.5 -6t6.5 -11q2 -20 15.5 -32t35.5 -12q21 0 39.5 12t27.5 32z" />
    <glyph glyph-name="ubreve" unicode="&#x16d;" 
d="M274 0q-93 0 -147 65.5t-38 158.5l34 189q2 14 14 24t26 10t22.5 -10t6.5 -24l-34 -189q-11 -64 26 -109.5t102 -45.5q64 0 117 45t64 109l34 190q2 14 14 24t26 10t22.5 -10t6.5 -24l-67 -378q-2 -15 -14 -25t-26 -10h-4q-13 0 -20.5 9t-5.5 22l1 3q1 8 -6 11t-15 -2
q-65 -43 -139 -43zM449 661q2 5 10 11t13 6h17q37 0 24 -31q-18 -43 -58 -70.5t-85 -27.5t-75 27.5t-33 70.5q-3 31 36 31h17q4 0 9.5 -6t6.5 -11q2 -20 16 -32t35 -12t39.5 12t27.5 32z" />
    <glyph glyph-name="Uring" unicode="&#x16e;" 
d="M544 661q3 14 15 24t26 10t22.5 -10t5.5 -24l-78 -447q-16 -88 -95 -151t-169 -63q-89 0 -144 63t-39 151l78 447q3 14 15 24t26 10t22.5 -10t5.5 -24l-78 -447q-11 -61 26.5 -104.5t99.5 -43.5t117 43.5t66 104.5zM450 1006q54 0 85.5 -38t21.5 -92q-9 -53 -53.5 -91
t-98.5 -38q-53 0 -84.5 38t-22.5 91q10 54 54.5 92t97.5 38zM417 815q26 0 47 18t25 43q5 26 -10.5 44t-40.5 18t-46 -18t-26 -44q-4 -25 10.5 -43t40.5 -18z" />
    <glyph glyph-name="uring" unicode="&#x16f;" 
d="M274 0q-93 0 -147 65.5t-38 158.5l34 189q2 14 14 24t26 10t22.5 -10t6.5 -24l-34 -189q-11 -64 26 -109.5t102 -45.5q64 0 117 45t64 109l34 190q2 14 14 24t26 10t22.5 -10t6.5 -24l-67 -378q-2 -15 -14 -25t-26 -10h-4q-13 0 -20.5 9t-5.5 22l1 3q1 8 -6 11t-15 -2
q-65 -43 -139 -43zM407 758q54 0 85 -38t22 -92q-10 -53 -54.5 -91t-98.5 -38q-53 0 -84.5 38t-21.5 91q9 54 54 92t98 38zM373 567q26 0 47.5 18t25.5 43q5 26 -10.5 44t-40.5 18t-46 -18t-26 -44t10 -43.5t40 -17.5z" />
    <glyph glyph-name="Uhungarumlaut" unicode="&#x170;" 
d="M544 661q3 14 15 24t26 10t22.5 -10t5.5 -24l-78 -447q-16 -88 -95 -151t-169 -63q-89 0 -144 63t-39 151l78 447q3 14 15 24t26 10t22.5 -10t5.5 -24l-78 -447q-11 -61 26.5 -104.5t99.5 -43.5t117 43.5t66 104.5zM266 771q-12 -10 -26.5 -9.5t-22.5 10.5q-9 10 -6.5 24
t14.5 24l149 127q12 10 26.5 10t22.5 -10q9 -11 6.5 -25t-14.5 -24zM476 771q-12 -10 -26.5 -9.5t-22.5 10.5q-9 10 -6.5 24t14.5 24l149 127q12 10 26.5 10t22.5 -10q9 -11 6.5 -25t-14.5 -24z" />
    <glyph glyph-name="uhungarumlaut" unicode="&#x171;" 
d="M274 0q-93 0 -147 65.5t-38 158.5l34 189q2 14 14 24t26 10t22.5 -10t6.5 -24l-34 -189q-11 -64 26 -109.5t102 -45.5q64 0 117 45t64 109l34 190q2 14 14 24t26 10t22.5 -10t6.5 -24l-67 -378q-2 -15 -14 -25t-26 -10h-4q-13 0 -20.5 9t-5.5 22l1 3q1 8 -6 11t-15 -2
q-65 -43 -139 -43zM297 553q-12 -10 -26.5 -9.5t-22.5 10.5t-5.5 24t14.5 24l149 127q12 10 26.5 10t22.5 -10t5.5 -24.5t-14.5 -24.5zM507 553q-12 -10 -26.5 -9.5t-22.5 10.5t-5.5 24t14.5 24l149 127q12 10 26.5 10t22.5 -10t5.5 -24.5t-14.5 -24.5z" />
    <glyph glyph-name="Uogonek" unicode="&#x172;" 
d="M544 661q3 14 15 24t26 10t22.5 -10t5.5 -24l-78 -447q-14 -80 -82.5 -140.5t-151.5 -71.5q-1 0 -8 -2l-7 -1q-36 -15 -49.5 -47.5t2 -58t53.5 -22.5q11 1 24 -7.5t15 -18.5q7 -35 -28 -40q-51 -8 -89.5 13t-50.5 67q-11 60 24 107q5 6 4.5 15t-6.5 11q-54 26 -81.5 79
t-15.5 117l78 447q3 14 15 24t26 10t22.5 -10t5.5 -24l-78 -447q-11 -61 26.5 -104.5t99.5 -43.5t117 43.5t66 104.5z" />
    <glyph glyph-name="uogonek" unicode="&#x173;" 
d="M501 413q2 14 14 24t26 10t22.5 -10t6.5 -24l-67 -381q-1 -6 -16.5 -23.5t-22.5 -21.5q-28 -19 -37 -48.5t6.5 -51.5t51.5 -20q11 1 24 -7.5t15 -18.5q8 -35 -28 -40q-50 -8 -89 13t-51 67q-8 42 9.5 81t55.5 67q13 8 16 21q1 3 -2 4.5t-7 -0.5q-74 -54 -154 -54
q-93 0 -147 65.5t-38 158.5l34 189q2 14 14 24t26 10t22.5 -10t6.5 -24l-34 -189q-11 -64 26 -109.5t102 -45.5q64 0 117 45t64 109z" />
    <glyph glyph-name="Wcircumflex" unicode="&#x174;" 
d="M379 267q2 -15 18 -14t21 16l122 392q4 14 17.5 24t27.5 10t21 -10t2 -24l-209 -633q-4 -11 -15 -19.5t-22 -8.5q-12 0 -21 8.5t-9 19.5l-5 106q-2 26 -28.5 26t-37.5 -25l-49 -110q-5 -10 -16 -17.5t-21 -7.5q-11 0 -18.5 8t-6.5 18l21 635q1 14 11.5 24t24.5 10t24 -10
t9 -24l-18 -391q0 -16 15.5 -17t22.5 14l29 59q5 12 18 20.5t25 8.5h7q12 0 21.5 -9t11.5 -20zM314 811q-12 -10 -26.5 -9.5t-22.5 10.5q-9 10 -6.5 24t14.5 24l145 123q14 11 30.5 11t26.5 -11l101 -123q8 -10 5.5 -24t-13.5 -24q-12 -10 -26.5 -10.5t-23.5 9.5l-61 74
q-10 11 -26 11t-30 -11z" />
    <glyph glyph-name="wcircumflex" unicode="&#x175;" 
d="M357 185q1 -17 18 -17t23 17l92 231q5 13 18.5 22t26.5 9h4q15 0 21.5 -10.5t-0.5 -24.5l-165 -382q-5 -12 -18 -21t-26 -9h-5q-13 0 -23 9t-10 22l-3 63q-1 16 -17.5 16t-23.5 -16l-24 -62q-4 -13 -17.5 -22.5t-26.5 -9.5h-5q-13 0 -22.5 9t-10.5 21l-31 382
q-1 14 9 24.5t24 10.5h5q13 0 22.5 -9t10.5 -22l11 -231q1 -17 18 -17t24 17l25 64q5 12 17.5 20.5t24.5 8.5t21 -8.5t9 -20.5zM270 563q-12 -10 -26.5 -9.5t-22.5 10.5t-5.5 24t14.5 24l144 123q14 11 30.5 11t26.5 -11l101 -123q9 -10 6.5 -24t-14.5 -24t-26.5 -10.5
t-22.5 9.5l-61 74q-10 11 -27 11t-30 -11z" />
    <glyph glyph-name="Ycircumflex" unicode="&#x176;" 
d="M585 695q13 0 17 -9.5t-4 -20.5l-224 -309q-1 -1 -3 -5t-4 -9l-2 -5l-53 -304q-2 -13 -13.5 -23t-25.5 -10q-13 0 -21 9.5t-6 23.5l54 305q0 15 -2 19l-114 308q-5 11 2.5 20.5t20.5 9.5h11q8 0 18.5 -6.5t12.5 -13.5l74 -192q9 -22 31 -22t39 22l142 192q18 20 39 20h11
zM314 811q-12 -10 -26.5 -9.5t-22.5 10.5q-9 10 -6.5 24t14.5 24l145 123q14 11 30.5 11t26.5 -11l101 -123q8 -10 5.5 -24t-13.5 -24q-12 -10 -26.5 -10.5t-23.5 9.5l-61 74q-10 11 -26 11t-30 -11z" />
    <glyph glyph-name="ycircumflex" unicode="&#x177;" 
d="M268 179q6 -26 32 -26t42 26l145 244q6 9 18.5 16.5t22.5 7.5h11q14 0 19 -10.5t-3 -23.5l-381 -637q-6 -9 -18.5 -16.5t-22.5 -7.5h-10q-14 0 -19.5 10.5t2.5 23.5l122 202q8 15 6 32l-97 393q-3 13 6 23.5t23 10.5h10q11 0 21 -7.5t12 -17.5zM270 563
q-12 -10 -26.5 -9.5t-22.5 10.5t-5.5 24t14.5 24l144 123q14 11 30.5 11t26.5 -11l101 -123q9 -10 6.5 -24t-14.5 -24t-26.5 -10.5t-22.5 9.5l-61 74q-10 11 -27 11t-30 -11z" />
    <glyph glyph-name="Ydieresis" unicode="&#x178;" 
d="M585 695q13 0 17 -9.5t-4 -20.5l-224 -309q-1 -1 -3 -5t-4 -9l-2 -5l-53 -304q-2 -13 -13.5 -23t-25.5 -10q-13 0 -21 9.5t-6 23.5l54 305q0 15 -2 19l-114 308q-5 11 2.5 20.5t20.5 9.5h11q8 0 18.5 -6.5t12.5 -13.5l74 -192q9 -22 31 -22t39 22l142 192q18 20 39 20h11
zM548 907q22 0 34.5 -15t8.5 -37q-4 -21 -21.5 -36t-39.5 -15q-21 0 -33.5 15t-8.5 36q4 22 21.5 37t38.5 15zM319 907q22 0 34.5 -15t8.5 -37q-4 -21 -21.5 -36t-39.5 -15q-21 0 -33.5 15t-8.5 36q4 22 21.5 37t38.5 15z" />
    <glyph glyph-name="Zacute" unicode="&#x179;" 
d="M587 695q13 0 21 -9.5t6 -23.5l-4 -21q-3 -11 -10 -22l-408 -491q-18 -22 -10.5 -42t33.5 -20h261q13 0 21 -9.5t6 -23.5q-2 -13 -13.5 -23t-25.5 -10h-381q-13 0 -21 9.5t-6 23.5l4 21q0 12 10 22l408 491q17 22 9.5 42t-32.5 20h-261q-13 0 -21 9.5t-6 23.5t13.5 23.5
t25.5 9.5h381zM371 771q-12 -10 -26.5 -9.5t-22.5 10.5q-9 10 -6.5 24t14.5 24l149 127q12 10 26.5 10t22.5 -10q9 -11 6.5 -25t-14.5 -24z" />
    <glyph glyph-name="zacute" unicode="&#x17a;" 
d="M541 447q14 0 22.5 -10t6.5 -24l-3 -17q-1 -5 -7.5 -15.5t-11.5 -14.5l-300 -227q-26 -19 -20.5 -44.5t34.5 -25.5h213q14 0 22 -10t6 -24q-2 -15 -14 -25t-26 -10h-378q-15 0 -23 10t-6 25l3 16q3 18 19 30l300 227q26 19 20.5 44.5t-34.5 25.5h-213q-14 0 -22.5 10
t-5.5 25q2 14 14 24t26 10h378zM327 523q-12 -10 -26.5 -9.5t-22.5 10.5t-5.5 24t14.5 24l149 127q12 10 26.5 10t22.5 -10t5.5 -24.5t-14.5 -24.5z" />
    <glyph glyph-name="Zdotaccent" unicode="&#x17b;" 
d="M587 695q13 0 21 -9.5t6 -23.5l-4 -21q-3 -11 -10 -22l-408 -491q-18 -22 -10.5 -42t33.5 -20h261q13 0 21 -9.5t6 -23.5q-2 -13 -13.5 -23t-25.5 -10h-381q-13 0 -21 9.5t-6 23.5l4 21q0 12 10 22l408 491q17 22 9.5 42t-32.5 20h-261q-13 0 -21 9.5t-6 23.5t13.5 23.5
t25.5 9.5h381zM435 917q22 0 34.5 -15t8.5 -37q-4 -21 -21.5 -36t-39.5 -15q-21 0 -33.5 15t-8.5 36q4 22 21.5 37t38.5 15z" />
    <glyph glyph-name="zdotaccent" unicode="&#x17c;" 
d="M541 447q14 0 22.5 -10t6.5 -24l-3 -17q-1 -5 -7.5 -15.5t-11.5 -14.5l-300 -227q-26 -19 -20.5 -44.5t34.5 -25.5h213q14 0 22 -10t6 -24q-2 -15 -14 -25t-26 -10h-378q-15 0 -23 10t-6 25l3 16q3 18 19 30l300 227q26 19 20.5 44.5t-34.5 25.5h-213q-14 0 -22.5 10
t-5.5 25q2 14 14 24t26 10h378zM391 669q22 0 34.5 -15t8.5 -37q-4 -21 -21.5 -36t-39.5 -15q-21 0 -33.5 15t-8.5 36q4 22 21.5 37t38.5 15z" />
    <glyph glyph-name="Zcaron" unicode="&#x17d;" 
d="M587 695q13 0 21 -9.5t6 -23.5l-4 -21q-3 -11 -10 -22l-408 -491q-18 -22 -10.5 -42t33.5 -20h261q13 0 21 -9.5t6 -23.5q-2 -13 -13.5 -23t-25.5 -10h-381q-13 0 -21 9.5t-6 23.5l4 21q0 12 10 22l408 491q17 22 9.5 42t-32.5 20h-261q-13 0 -21 9.5t-6 23.5t13.5 23.5
t25.5 9.5h381zM287 938q-8 10 -5.5 24t13.5 25q12 10 26.5 10t23.5 -10l61 -74q10 -11 26 -11t30 11l87 74q12 10 26.5 10t22.5 -10q9 -11 6.5 -25t-14.5 -24l-145 -123q-13 -11 -30 -11t-26 11z" />
    <glyph glyph-name="zcaron" unicode="&#x17e;" 
d="M541 447q14 0 22.5 -10t6.5 -24l-3 -17q-1 -5 -7.5 -15.5t-11.5 -14.5l-300 -227q-26 -19 -20.5 -44.5t34.5 -25.5h213q14 0 22 -10t6 -24q-2 -15 -14 -25t-26 -10h-378q-15 0 -23 10t-6 25l3 16q3 18 19 30l300 227q26 19 20.5 44.5t-34.5 25.5h-213q-14 0 -22.5 10
t-5.5 25q2 14 14 24t26 10h378zM243 690q-8 10 -5.5 24.5t14.5 24.5t26.5 10t22.5 -10l61 -74q10 -11 26 -11t30 11l88 74q12 10 26.5 10t22.5 -10t5.5 -24.5t-14.5 -24.5l-145 -123q-13 -11 -29.5 -11t-26.5 11z" />
    <glyph glyph-name="AEacute" unicode="&#x1fc;" 
d="M313 0q-17 0 -26.5 12t-6.5 28l18 101q3 16 -6.5 28t-26.5 12h-29q-13 0 -26 -9t-18 -21l-54 -121q-5 -12 -18 -21t-26 -9h-5q-15 0 -21.5 10.5t0.5 24.5l281 630q5 12 18.5 21t25.5 9h194q13 0 21 -9.5t6 -23.5q-2 -13 -13.5 -23t-25.5 -10h-82q-16 0 -30 -11.5
t-17 -28.5l-30 -169q-3 -16 6.5 -28t26.5 -12h14q13 0 20.5 -9.5t5.5 -22.5q-2 -14 -13.5 -23.5t-24.5 -9.5h-13q-17 0 -31 -11.5t-17 -28.5l-29 -169q-3 -16 6.5 -28t26.5 -12h82q13 0 21 -9.5t6 -23.5q-2 -13 -13.5 -23t-25.5 -10h-151zM251 287q-7 -16 0.5 -28t23.5 -12
h2q16 0 30 11.5t17 28.5l20 117q2 10 -6 15.5t-18.5 2.5t-14.5 -13zM371 771q-12 -10 -26.5 -9.5t-22.5 10.5q-9 10 -6.5 24t14.5 24l149 127q12 10 26.5 10t22.5 -10q9 -11 6.5 -25t-14.5 -24z" />
    <glyph glyph-name="aeacute" unicode="&#x1fd;" 
d="M461 118q5 8 14 11t17 -1l3 -2q23 -14 8 -38q-55 -88 -126 -88q-63 0 -83 41q-3 7 -13.5 7t-16.5 -6q-47 -48 -121 -42q-41 3 -61 34.5t-10 87.5q18 109 109 135q31 10 90 3q14 -2 16 12q6 46 -5.5 76t-41.5 30q-41 0 -65 -40q-4 -7 -12.5 -11t-15.5 -1l-9 3
q-31 10 -15 36q42 70 107 81t99 -46q4 -6 13.5 -4.5t14.5 8.5q35 43 96 43q36 0 58 -22.5t28.5 -58t5.5 -72t-8 -72.5q-8 -33 -44 -33h-117q-17 0 -27.5 -9.5t-10.5 -25.5q-1 -38 14.5 -61.5t41.5 -23.5q38 0 67 49zM362 292q-5 -16 2 -25t23 -9h53q15 0 26 9.5t12 24.5
q5 86 -37 86q-26 0 -46.5 -23.5t-32.5 -62.5zM141 125q-8 -47 30 -55q36 -8 67 22q20 18 25 44l8 43q0 9 -9 11q-108 7 -121 -65zM327 523q-12 -10 -26.5 -9.5t-22.5 10.5t-5.5 24t14.5 24l149 127q12 10 26.5 10t22.5 -10t5.5 -24.5t-14.5 -24.5z" />
    <glyph glyph-name="Oslashacute" unicode="&#x1fe;" 
d="M193 14q-17 6 -24 -8l-48 -81q-5 -10 -18 -17.5t-23 -7.5h-11q-14 0 -19 10.5t3 23.5l60 102q5 8 5 22t-4 21q-39 58 -26 134l47 268q16 88 93 151t166 63q43 0 80 -17q15 -6 25 8l50 84q5 10 17.5 17.5t23.5 7.5h10q14 0 19.5 -10.5t-2.5 -23.5l-61 -104q-5 -8 -5.5 -22
t4.5 -21q40 -61 27 -133l-47 -268q-16 -88 -95 -151t-169 -63q-44 0 -78 15zM466 213l47 268q6 38 -8 71q-5 11 -14 -2l-270 -457q-6 -11 3 -16q26 -12 58 -12q62 0 117.5 43.5t66.5 104.5zM382 629q-62 0 -115 -43.5t-63 -104.5l-47 -268q-7 -37 6 -72q2 -4 6 -3.5t7 5.5
l270 455q9 12 -4 18q-29 13 -60 13zM371 771q-12 -10 -26.5 -9.5t-22.5 10.5q-9 10 -6.5 24t14.5 24l149 127q12 10 26.5 10t22.5 -10q9 -11 6.5 -25t-14.5 -24z" />
    <glyph glyph-name="oslashacute" unicode="&#x1ff;" 
d="M202 12q-14 6 -24 -6l-52 -64q-5 -6 -17.5 -12t-19.5 -6h-15q-13 0 -17 10t5 21l56 68q8 9 8 25.5t-6 24.5q-46 65 -31 150q16 93 93.5 158.5t169.5 65.5q44 0 81 -17q16 -6 27 7l36 44q5 6 17.5 12t19.5 6h15q13 0 16.5 -10.5t-5.5 -20.5l-45 -55q-7 -8 -7.5 -24
t4.5 -24q39 -64 25 -142q-16 -92 -93 -157.5t-170 -65.5q-39 0 -71 12zM340 378q-64 0 -117.5 -45.5t-64.5 -109.5q-9 -57 19 -98q5 -7 12.5 -6.5t14.5 8.5l189 229q7 9 -2 13q-24 9 -51 9zM285 69q64 0 117.5 45t64.5 109q9 51 -13 90q-8 17 -23 0l-189 -229q-5 -6 3 -10
q20 -5 40 -5zM327 523q-12 -10 -26.5 -9.5t-22.5 10.5t-5.5 24t14.5 24l149 127q12 10 26.5 10t22.5 -10t5.5 -24.5t-14.5 -24.5z" />
    <glyph glyph-name="Scommaaccent" unicode="&#x218;" 
d="M339 380q93 -14 149 -64.5t43 -125.5q-14 -79 -91 -134.5t-168 -55.5q-80 0 -134.5 46t-56.5 114q0 31 37 31q9 0 21 -12.5t14 -22.5q8 -39 44 -64t87 -25q63 0 115.5 36t62.5 87q8 49 -31.5 82t-103.5 42q-91 13 -146.5 64t-41.5 126q14 79 90 135t166 56q81 0 136 -46
t57 -114q1 -16 -9 -23.5t-28 -7.5q-9 0 -20.5 13t-13.5 22q-8 39 -45.5 64.5t-88.5 25.5q-62 0 -114 -37t-61 -88q-9 -49 29.5 -82t101.5 -42zM281 -249q-2 -14 -14 -24t-26 -10t-22.5 10t-6.5 24l14 80q2 10 -7 16q-22 15 -16 44q4 21 21.5 36t38.5 15q22 0 34.5 -15
t8.5 -36z" />
    <glyph glyph-name="scommaaccent" unicode="&#x219;" 
d="M318 257q112 0 161.5 -36.5t39.5 -94.5q-9 -52 -80.5 -89t-165.5 -37q-76 0 -132 27.5t-67 68.5q-5 17 3 23.5t29 6.5h17q3 0 10 -6t9 -9q9 -21 48.5 -34.5t93.5 -13.5q65 0 113.5 18.5t53.5 44.5q3 19 -6.5 32t-44 22t-94.5 9q-110 0 -160 36t-40 91q10 54 82.5 92.5
t163.5 38.5q80 0 135 -28t65 -71q4 -17 -4.5 -24.5t-28.5 -7.5h-17q-3 0 -10 6t-9 9q-9 22 -48.5 37.5t-93.5 15.5q-64 0 -113 -21t-54 -47q-3 -16 7.5 -28.5t45 -21.5t91.5 -9zM281 -249q-2 -14 -14 -24t-26 -10t-22.5 10t-6.5 24l14 80q2 10 -7 16q-22 15 -16 44
q4 21 21.5 36t38.5 15q22 0 34.5 -15t8.5 -36z" />
    <glyph glyph-name="dotlessj" unicode="&#x237;" 
d="M248 378q-14 0 -22.5 10t-5.5 25q2 14 14 24t26 10h247q17 0 26.5 -12t6.5 -28l-76 -432q-16 -93 -94 -158.5t-170 -65.5q-106 0 -159 83q-18 27 18 46l8 4q8 4 20 0.5t17 -10.5q36 -54 108 -54q64 0 117.5 45.5t65.5 109.5l64 363q2 17 -7.5 28.5t-25.5 11.5h-178z" />
    <glyph glyph-name="circumflex" unicode="&#x2c6;" 
d="M270 563q-12 -10 -26.5 -9.5t-22.5 10.5t-5.5 24t14.5 24l144 123q14 11 30.5 11t26.5 -11l101 -123q9 -10 6.5 -24t-14.5 -24t-26.5 -10.5t-22.5 9.5l-61 74q-10 11 -27 11t-30 -11z" />
    <glyph glyph-name="caron" unicode="&#x2c7;" 
d="M243 690q-8 10 -5.5 24.5t14.5 24.5t26.5 10t22.5 -10l61 -74q10 -11 26 -11t30 11l88 74q12 10 26.5 10t22.5 -10t5.5 -24.5t-14.5 -24.5l-145 -123q-13 -11 -29.5 -11t-26.5 11z" />
    <glyph glyph-name="breve" unicode="&#x2d8;" 
d="M449 661q2 5 10 11t13 6h17q37 0 24 -31q-18 -43 -58 -70.5t-85 -27.5t-75 27.5t-33 70.5q-3 31 36 31h17q4 0 9.5 -6t6.5 -11q2 -20 16 -32t35 -12t39.5 12t27.5 32z" />
    <glyph glyph-name="dotaccent" unicode="&#x2d9;" 
d="M391 669q22 0 34.5 -15t8.5 -37q-4 -21 -21.5 -36t-39.5 -15q-21 0 -33.5 15t-8.5 36q4 22 21.5 37t38.5 15z" />
    <glyph glyph-name="ring" unicode="&#x2da;" 
d="M407 758q54 0 85 -38t22 -92q-10 -53 -54.5 -91t-98.5 -38q-53 0 -84.5 38t-21.5 91q9 54 54 92t98 38zM373 567q26 0 47.5 18t25.5 43q5 26 -10.5 44t-40.5 18t-46 -18t-26 -44t10 -43.5t40 -17.5z" />
    <glyph glyph-name="ogonek" unicode="&#x2db;" 
d="M240 33q13 8 25 8h39q8 0 12 -5.5t3 -12.5q-1 -6 -9.5 -14.5t-14.5 -11.5q-34 -15 -47 -47t2 -57t53 -22q11 1 24.5 -7.5t15.5 -18.5q7 -35 -28 -40q-51 -8 -89.5 13t-50.5 67q-17 88 65 148z" />
    <glyph glyph-name="tilde" unicode="&#x2dc;" 
d="M354 611q-3 14 -17 21t-30 0q-31 -12 -27 -53q0 -12 -12 -17l-14 -4q-30 -11 -31 16q-2 34 18 65t55 43q37 13 70.5 -0.5t44.5 -50.5q6 -16 18 -23t26 -1q21 10 26 21.5t3 30.5q0 13 13 18l14 6q31 10 31 -15q2 -38 -15.5 -69.5t-56.5 -44.5q-37 -15 -71 -1.5t-45 58.5z
" />
    <glyph glyph-name="hungarumlaut" unicode="&#x2dd;" 
d="M345 523q-12 -10 -26.5 -9.5t-22.5 10.5t-5.5 24t14.5 24l149 127q12 10 26.5 10t22.5 -10t5.5 -24.5t-14.5 -24.5zM555 523q-12 -10 -26.5 -9.5t-22.5 10.5t-5.5 24t14.5 24l149 127q12 10 26.5 10t22.5 -10t5.5 -24.5t-14.5 -24.5z" />
    <glyph glyph-name="Wgrave" unicode="&#x1e80;" 
d="M379 267q2 -15 18 -14t21 16l122 392q4 14 17.5 24t27.5 10t21 -10t2 -24l-209 -633q-4 -11 -15 -19.5t-22 -8.5q-12 0 -21 8.5t-9 19.5l-5 106q-2 26 -28.5 26t-37.5 -25l-49 -110q-5 -10 -16 -17.5t-21 -7.5q-11 0 -18.5 8t-6.5 18l21 635q1 14 11.5 24t24.5 10t24 -10
t9 -24l-18 -391q0 -16 15.5 -17t22.5 14l29 59q5 12 18 20.5t25 8.5h7q12 0 21.5 -9t11.5 -20zM506 820q8 -10 5.5 -24t-13.5 -24q-12 -10 -26.5 -10.5t-23.5 9.5l-104 127q-8 10 -6 24.5t14 24.5t26.5 10t22.5 -10z" />
    <glyph glyph-name="wgrave" unicode="&#x1e81;" 
d="M357 185q1 -17 18 -17t23 17l92 231q5 13 18.5 22t26.5 9h4q15 0 21.5 -10.5t-0.5 -24.5l-165 -382q-5 -12 -18 -21t-26 -9h-5q-13 0 -23 9t-10 22l-3 63q-1 16 -17.5 16t-23.5 -16l-24 -62q-4 -13 -17.5 -22.5t-26.5 -9.5h-5q-13 0 -22.5 9t-10.5 21l-31 382
q-1 14 9 24.5t24 10.5h5q13 0 22.5 -9t10.5 -22l11 -231q1 -17 18 -17t24 17l25 64q5 12 17.5 20.5t24.5 8.5t21 -8.5t9 -20.5zM462 572q9 -10 6.5 -24t-14.5 -24t-26.5 -10.5t-22.5 9.5l-105 127q-8 10 -5.5 24.5t14.5 24.5t26.5 10t22.5 -10z" />
    <glyph glyph-name="Wacute" unicode="&#x1e82;" 
d="M379 267q2 -15 18 -14t21 16l122 392q4 14 17.5 24t27.5 10t21 -10t2 -24l-209 -633q-4 -11 -15 -19.5t-22 -8.5q-12 0 -21 8.5t-9 19.5l-5 106q-2 26 -28.5 26t-37.5 -25l-49 -110q-5 -10 -16 -17.5t-21 -7.5q-11 0 -18.5 8t-6.5 18l21 635q1 14 11.5 24t24.5 10t24 -10
t9 -24l-18 -391q0 -16 15.5 -17t22.5 14l29 59q5 12 18 20.5t25 8.5h7q12 0 21.5 -9t11.5 -20zM371 771q-12 -10 -26.5 -9.5t-22.5 10.5q-9 10 -6.5 24t14.5 24l149 127q12 10 26.5 10t22.5 -10q9 -11 6.5 -25t-14.5 -24z" />
    <glyph glyph-name="wacute" unicode="&#x1e83;" 
d="M357 185q1 -17 18 -17t23 17l92 231q5 13 18.5 22t26.5 9h4q15 0 21.5 -10.5t-0.5 -24.5l-165 -382q-5 -12 -18 -21t-26 -9h-5q-13 0 -23 9t-10 22l-3 63q-1 16 -17.5 16t-23.5 -16l-24 -62q-4 -13 -17.5 -22.5t-26.5 -9.5h-5q-13 0 -22.5 9t-10.5 21l-31 382
q-1 14 9 24.5t24 10.5h5q13 0 22.5 -9t10.5 -22l11 -231q1 -17 18 -17t24 17l25 64q5 12 17.5 20.5t24.5 8.5t21 -8.5t9 -20.5zM327 523q-12 -10 -26.5 -9.5t-22.5 10.5t-5.5 24t14.5 24l149 127q12 10 26.5 10t22.5 -10t5.5 -24.5t-14.5 -24.5z" />
    <glyph glyph-name="Wdieresis" unicode="&#x1e84;" 
d="M379 267q2 -15 18 -14t21 16l122 392q4 14 17.5 24t27.5 10t21 -10t2 -24l-209 -633q-4 -11 -15 -19.5t-22 -8.5q-12 0 -21 8.5t-9 19.5l-5 106q-2 26 -28.5 26t-37.5 -25l-49 -110q-5 -10 -16 -17.5t-21 -7.5q-11 0 -18.5 8t-6.5 18l21 635q1 14 11.5 24t24.5 10t24 -10
t9 -24l-18 -391q0 -16 15.5 -17t22.5 14l29 59q5 12 18 20.5t25 8.5h7q12 0 21.5 -9t11.5 -20zM319 907q22 0 34.5 -15t8.5 -37q-4 -21 -21.5 -36t-39.5 -15q-21 0 -33.5 15t-8.5 36q4 22 21.5 37t38.5 15zM548 907q22 0 34.5 -15t8.5 -37q-4 -21 -21.5 -36t-39.5 -15
q-21 0 -33.5 15t-8.5 36q4 22 21.5 37t38.5 15z" />
    <glyph glyph-name="wdieresis" unicode="&#x1e85;" 
d="M357 185q1 -17 18 -17t23 17l92 231q5 13 18.5 22t26.5 9h4q15 0 21.5 -10.5t-0.5 -24.5l-165 -382q-5 -12 -18 -21t-26 -9h-5q-13 0 -23 9t-10 22l-3 63q-1 16 -17.5 16t-23.5 -16l-24 -62q-4 -13 -17.5 -22.5t-26.5 -9.5h-5q-13 0 -22.5 9t-10.5 21l-31 382
q-1 14 9 24.5t24 10.5h5q13 0 22.5 -9t10.5 -22l11 -231q1 -17 18 -17t24 17l25 64q5 12 17.5 20.5t24.5 8.5t21 -8.5t9 -20.5zM275 659q22 0 34.5 -15t8.5 -37q-4 -21 -21.5 -36t-39.5 -15q-21 0 -33.5 15t-8.5 36q4 22 21.5 37t38.5 15zM504 659q22 0 34.5 -15t8.5 -37
q-4 -21 -21.5 -36t-39.5 -15q-21 0 -33.5 15t-8.5 36q4 22 21.5 37t38.5 15z" />
    <glyph glyph-name="Ygrave" unicode="&#x1ef2;" 
d="M585 695q13 0 17 -9.5t-4 -20.5l-224 -309q-1 -1 -3 -5t-4 -9l-2 -5l-53 -304q-2 -13 -13.5 -23t-25.5 -10q-13 0 -21 9.5t-6 23.5l54 305q0 15 -2 19l-114 308q-5 11 2.5 20.5t20.5 9.5h11q8 0 18.5 -6.5t12.5 -13.5l74 -192q9 -22 31 -22t39 22l142 192q18 20 39 20h11
zM506 820q8 -10 5.5 -24t-13.5 -24q-12 -10 -26.5 -10.5t-23.5 9.5l-104 127q-8 10 -6 24.5t14 24.5t26.5 10t22.5 -10z" />
    <glyph glyph-name="ygrave" unicode="&#x1ef3;" 
d="M268 179q6 -26 32 -26t42 26l145 244q6 9 18.5 16.5t22.5 7.5h11q14 0 19 -10.5t-3 -23.5l-381 -637q-6 -9 -18.5 -16.5t-22.5 -7.5h-10q-14 0 -19.5 10.5t2.5 23.5l122 202q8 15 6 32l-97 393q-3 13 6 23.5t23 10.5h10q11 0 21 -7.5t12 -17.5zM462 572q9 -10 6.5 -24
t-14.5 -24t-26.5 -10.5t-22.5 9.5l-105 127q-8 10 -5.5 24.5t14.5 24.5t26.5 10t22.5 -10z" />
    <glyph glyph-name="quoteleft" unicode="&#x2018;" 
d="M393 482q-2 -15 -14.5 -25t-26.5 -10t-22 10t-6 25l31 179q3 14 15 24t26 10t22.5 -10t5.5 -24z" />
    <glyph glyph-name="quoteright" unicode="&#x2019;" 
d="M393 482q-2 -15 -14.5 -25t-26.5 -10t-22 10t-6 25l31 179q3 14 15 24t26 10t22.5 -10t5.5 -24z" />
    <glyph glyph-name="quotedblleft" unicode="&#x201c;" 
d="M314 482q-2 -15 -14 -25t-27 -10q-14 0 -22 10t-6 25l31 179q3 14 15 24t26 10t22.5 -10t5.5 -24zM472 482q-2 -15 -14 -25t-27 -10q-14 0 -22 10t-6 25l31 179q3 14 15 24t26 10t22.5 -10t5.5 -24z" />
    <glyph glyph-name="quotedblright" unicode="&#x201d;" 
d="M314 482q-2 -15 -14 -25t-27 -10q-14 0 -22 10t-6 25l31 179q3 14 15 24t26 10t22.5 -10t5.5 -24zM472 482q-2 -15 -14 -25t-27 -10q-14 0 -22 10t-6 25l31 179q3 14 15 24t26 10t22.5 -10t5.5 -24z" />
    <glyph glyph-name="dagger" unicode="&#x2020;" 
d="M228 434q-13 0 -21 9.5t-6 23.5q2 13 13.5 22.5t24.5 9.5h48q16 0 30 11.5t17 28.5l21 122q3 14 15 24t26 10t22.5 -10t5.5 -24l-21 -122q-3 -16 6.5 -28t26.5 -12h47q13 0 21 -9.5t6 -22.5q-2 -14 -13.5 -23.5t-24.5 -9.5h-47q-17 0 -31 -11.5t-17 -28.5l-63 -359
q-2 -15 -14 -25t-26 -10q-15 0 -23 10t-6 25l63 359q3 17 -6.5 28.5t-25.5 11.5h-48z" />
    <glyph glyph-name="bullet" unicode="&#x2022;" 
d="M398 256q-6 -33 -33.5 -56.5t-60.5 -23.5q-32 0 -51 23.5t-13 56.5q6 32 33.5 55t58.5 23q33 0 52.5 -23t13.5 -55z" />
    <glyph glyph-name="franc" unicode="&#x20a3;" 
d="M-11 137q-13 0 -21 9.5t-6 23.5q2 13 13.5 22.5t24.5 9.5h46q16 0 30 11.5t17 28.5l72 413q3 17 17 28.5t31 11.5h374q13 0 21 -9.5t6 -23.5q-2 -13 -13.5 -23t-25.5 -10h-305q-16 0 -30 -11.5t-17 -28.5l-30 -169q-3 -16 6.5 -28t26.5 -12h123q13 0 20.5 -9.5t5.5 -22.5
q-2 -14 -13.5 -23.5t-24.5 -9.5h-122q-17 0 -31 -11.5t-17 -28.5l-5 -33q-3 -16 6.5 -28t26.5 -12h49q13 0 21 -9.5t6 -22.5q-2 -14 -13.5 -23.5t-24.5 -9.5h-50q-16 0 -30 -11.5t-17 -28.5l-11 -62q-2 -15 -14 -25t-26 -10q-15 0 -23 10t-6 25l11 62q3 16 -6.5 28t-26.5 12
h-45z" />
    <glyph glyph-name="Euro" unicode="&#x20ac;" 
d="M124 234q-13 0 -21 9.5t-6 23.5q2 13 13.5 22.5t24.5 9.5h2q14 0 26 10t15 25l5 28q2 14 -6.5 24t-22.5 10h-2q-14 0 -21.5 10t-4.5 23q2 13 13.5 22.5t24.5 9.5h26q10 0 12 10l2 10q16 89 92 151.5t168 62.5q77 0 137 -39q10 -8 2 -18l-21 -31q-11 -14 -25 -6
q-45 28 -105 28q-64 0 -116.5 -43.5t-62.5 -104.5l-2 -10q-2 -10 8 -10h198q13 0 21 -9.5t6 -22.5q-3 -14 -14.5 -23.5t-24.5 -9.5h-167q-16 0 -30 -11.5t-17 -28.5l-3 -17q-3 -16 6.5 -28t26.5 -12h167q13 0 21 -9.5t6 -22.5q-2 -14 -13.5 -23.5t-24.5 -9.5h-198
q-10 0 -12 -10l-1 -10q-11 -61 26 -104.5t101 -43.5q53 0 117 28q17 7 22 -8l8 -24q2 -5 -1 -11.5t-10 -9.5q-87 -41 -148 -41q-92 0 -146 62.5t-38 151.5l1 10q2 10 -8 10h-26z" />
    <glyph glyph-name="minus" unicode="&#x2212;" 
d="M207 315q-13 0 -21 9.5t-6 23.5q2 13 14 22.5t25 9.5h244q13 0 20.5 -9.5t5.5 -22.5q-2 -14 -13.5 -23.5t-24.5 -9.5h-244z" />
    <glyph glyph-name="approxequal" unicode="&#x2248;" 
d="M302 344q-8 25 -30.5 36t-49.5 0q-41 -14 -50 -62q-2 -11 0 -29q2 -7 -6 -11l-46 -17q-12 -4 -14 8q-4 26 -1 50q8 40 35.5 73.5t68.5 49.5q54 17 101.5 -2.5t57.5 -70.5q6 -26 29.5 -38t48.5 -2q43 15 52 64q2 13 -1 28q-2 7 7 11l50 19q11 4 13 -8q3 -25 0 -48
q-8 -41 -37.5 -76.5t-69.5 -51.5q-55 -19 -99.5 3t-58.5 74zM263 124q-7 25 -30 36t-50 0q-19 -7 -32.5 -24t-17.5 -38q-2 -13 1 -29q0 -7 -7 -11l-46 -17q-12 -4 -14 8q-4 26 -1 50q8 40 35.5 73.5t68.5 49.5q54 17 101.5 -2.5t57.5 -70.5q6 -26 29.5 -38t48.5 -2
q44 16 53 64q1 10 -2 28q-2 7 7 11l50 19q5 1 9 -1t4 -7q4 -21 0 -48q-8 -41 -37.5 -76.5t-69.5 -51.5q-55 -19 -99 2.5t-59 74.5z" />
    <glyph glyph-name="notequal" unicode="&#x2260;" 
d="M295 156q-8 0 -20.5 -6t-17.5 -13l-40 -49q-5 -7 -17 -13t-20 -6h-13q-13 0 -16.5 9.5t4.5 20.5l28 34q6 8 3.5 15.5t-12.5 7.5q-11 0 -17.5 8t-5.5 20l1 5q2 13 13.5 22.5t24.5 9.5h42q8 0 20 6t17 13l11 14q10 11 6 22t-18 11h-66q-13 0 -21 9.5t-6 23.5q2 13 14 22.5
t25 9.5h123q8 0 20 6t17 13l47 57q5 7 17 13t20 6h13q13 0 16.5 -9.5t-4.5 -20.5l-32 -40q-8 -8 -4.5 -16.5t13.5 -8.5q13 0 20 -8.5t5 -21.5l-1 -2q-2 -14 -13.5 -23.5t-24.5 -9.5h-46q-8 0 -20 -6t-17 -13l-12 -14q-9 -11 -4.5 -22t17.5 -11h70q13 0 21 -9.5t6 -22.5
q-2 -14 -13.5 -23.5t-24.5 -9.5h-128z" />
    <glyph glyph-name="lessequal" unicode="&#x2264;" 
d="M157 32q-13 0 -21 9.5t-6 23.5q3 13 14.5 22.5t24.5 9.5h66q20 0 29 19.5t-7 29.5l-83 53q-6 5 -10.5 16t-3.5 19l4 24q1 7 9.5 18t16.5 16l285 157q13 7 22 1.5t7 -18.5l-3 -16q-1 -7 -9 -18t-15 -16l-180 -103q-22 -13 -25.5 -34t13.5 -34l144 -102q5 -5 9 -16t3 -18
l-2 -10q-2 -14 -13.5 -23.5t-24.5 -9.5h-244z" />
    <glyph glyph-name="greaterequal" unicode="&#x2265;" 
d="M413 97q13 0 21 -9.5t5 -22.5q-2 -14 -13.5 -23.5t-24.5 -9.5h-244q-13 0 -21 9.5t-6 23.5l2 10q2 8 10 19t15 15l179 102q22 13 26 34t-14 34l-143 103q-15 11 -13 34l3 16q2 13 13.5 18.5t21.5 -1.5l230 -157q6 -5 10 -16t3 -18l-4 -24q-2 -8 -10 -19.5t-16 -15.5
l-101 -53q-12 -6 -16.5 -18t2 -21.5t19.5 -9.5h66z" />
    <glyph glyph-name="commaaccent" unicode="&#xf6c3;" 
d="M281 -249q-2 -14 -14 -24t-26 -10t-22.5 10t-6.5 24l14 80q2 10 -7 16q-22 15 -16 44q4 21 21.5 36t38.5 15q22 0 34.5 -15t8.5 -36z" />
    <glyph glyph-name="NULL" horiz-adv-x="0" 
 />
    <glyph glyph-name="Q.alt" 
d="M582 481l-12 -69q-16 -88 -94 -151t-168 -63q-8 0 -24 2q-5 0 -9 -4l-92 -77q-4 -3 -2.5 -7.5t6.5 -4.5q40 0 79 -11q126 -47 214 -21q11 3 19.5 -4t6.5 -17v-6q-2 -12 -12.5 -23t-23.5 -14q-93 -22 -171 0q-126 47 -214 21q-11 -3 -19.5 4t-6.5 18l3 16q5 17 17 29
l107 89q12 10 11.5 26t-10.5 24q-39 30 -56.5 75.5t-7.5 98.5l12 69q16 88 94 151t167 63q90 0 146 -63t40 -151zM501 412l12 69q10 61 -28.5 104.5t-100.5 43.5t-116 -43.5t-64 -104.5l-12 -69q-11 -61 27 -105t100 -44t116.5 44t65.5 105z" />
  </font>
</defs>
</svg>
