<?xml version="1.0" standalone="no"?>
<!DOCTYPE svg PUBLIC "-//W3C//DTD SVG 1.1//EN" "http://www.w3.org/Graphics/SVG/1.1/DTD/svg11.dtd" >
<svg xmlns="http://www.w3.org/2000/svg" xmlns:xlink="http://www.w3.org/1999/xlink" version="1.1">
<metadata>
Created by FontForge 20170731 at Sat Feb  6 19:25:36 2016
 By Aleksey,,,
Copyright (c) 2016 by Valerio Dell'Edera. All rights reserved.
</metadata>
<defs>
<font id="Monique-RegularOblique" horiz-adv-x="547" >
  <font-face 
    font-family="Monique"
    font-weight="400"
    font-style="oblique"
    font-stretch="normal"
    units-per-em="1000"
    panose-1="2 0 0 9 0 0 0 0 0 0"
    ascent="800"
    descent="-200"
    x-height="447"
    cap-height="695"
    bbox="-44 -283 1603 1011"
    underline-thickness="50"
    underline-position="-200"
    unicode-range="U+000D-FB06"
  />
<missing-glyph 
 />
    <glyph glyph-name="ff" unicode="ff" horiz-adv-x="1094" 
d="M1114 398l-12 -68h-252l-58 -330h-68l58 330h-479l-58 -330h-68l58 330h-127l12 68h127l24 137q12 66 67 113t122 47q66 0 104.5 -47t26.5 -113h-69q7 37 -15 64t-60 27t-69.5 -26.5t-38.5 -64.5l-24 -137h479l24 137q12 66 67 113t122 47q66 0 104.5 -47t26.5 -113h-69
q7 37 -15 64t-60 27t-69.5 -26.5t-38.5 -64.5l-24 -137h252z" />
    <glyph glyph-name="fi" unicode="fi" horiz-adv-x="1094" 
d="M925 398l-58 -329h189l-12 -69h-447l12 69h189l46 261h-541l-58 -330h-68l58 330h-127l12 68h127l24 137q12 66 67 113t122 47q66 0 104.5 -47t26.5 -113h-69q7 37 -15 64t-60 27t-69.5 -26.5t-38.5 -64.5l-24 -137h610zM980 614q-4 -22 -21.5 -37t-39.5 -15
q-21 0 -33.5 15t-8.5 37q4 21 21.5 36t38.5 15q22 0 34.5 -15t8.5 -36z" />
    <glyph glyph-name="ffi" unicode="ffi" horiz-adv-x="1641" 
d="M1472 398l-58 -329h189l-12 -69h-447l12 69h189l46 261h-541l-58 -330h-68l58 330h-479l-58 -330h-68l58 330h-127l12 68h127l24 137q12 66 67 113t122 47q66 0 104.5 -47t26.5 -113h-69q7 37 -15 64t-60 27t-69.5 -26.5t-38.5 -64.5l-24 -137h479l24 137q12 66 67 113
t122 47q66 0 104.5 -47t26.5 -113h-69q7 37 -15 64t-60 27t-69.5 -26.5t-38.5 -64.5l-24 -137h610zM1527 614q-4 -22 -21.5 -37t-39.5 -15q-21 0 -33.5 15t-8.5 37q4 21 21.5 36t38.5 15q22 0 34.5 -15t8.5 -36z" />
    <glyph glyph-name="s_t" unicode="st" horiz-adv-x="1094" 
d="M871 447h252l-12 -69h-252l-39 -218q-7 -38 15.5 -64.5t60.5 -26.5q37 0 68.5 26.5t38.5 64.5h69q-11 -66 -66.5 -113t-121.5 -47q-67 0 -105 47t-27 113l39 218h-451q-65 0 -113 -18t-53 -44q-3 -16 7.5 -28.5t45 -21.5t91.5 -9q112 0 161.5 -36.5t39.5 -94.5
q-9 -52 -80.5 -89t-165.5 -37q-91 0 -150.5 37.5t-50.5 88.5h68q-5 -26 37 -44.5t107 -18.5t113.5 18.5t53.5 44.5q3 19 -6.5 32t-44 22t-94.5 9q-110 0 -160 36t-40 91q10 54 82.5 92.5t163.5 38.5h451l22 127h68z" />
    <glyph glyph-name="c_k" unicode="ck" horiz-adv-x="1094" 
d="M694 695h95l-83 -469l322 221h95l-226 -158l147 -289h-78l-124 250l-151 -106l-25 -144h-69l110 626h-26q-67 0 -121.5 -45t-65.5 -110q-7 -43 8 -78q36 -35 50 -83l-72 -27q-10 42 -45.5 68.5t-85.5 26.5q-67 0 -122 -45.5t-66 -109.5t27.5 -109t105.5 -45q50 0 95 26.5
t70 68.5l62 -27q-37 -61 -102.5 -99t-136.5 -38q-96 0 -152.5 65.5t-40.5 157.5q16 93 96 158.5t176 65.5q28 0 57 -8q0 10 4 32q16 93 96 158.5t176 65.5z" />
    <glyph glyph-name="f_t" unicode="ft" horiz-adv-x="1094" 
d="M862 398h252l-12 -68h-252l-30 -170q-7 -38 15.5 -64.5t60.5 -26.5q37 0 68.5 26.5t38.5 64.5h69q-11 -66 -66.5 -113t-121.5 -47q-67 0 -105 47t-27 113l30 170h-479l-58 -330h-68l58 330h-127l12 68h127l24 137q12 66 67 113t122 47q66 0 104.5 -47t26.5 -113h-69
q7 37 -15 64t-60 27t-69.5 -26.5t-38.5 -64.5l-24 -137h479l31 176h68z" />
    <glyph glyph-name=".notdef" 
 />
    <glyph glyph-name=".null" horiz-adv-x="0" 
 />
    <glyph glyph-name="nonmarkingreturn" horiz-adv-x="333" 
 />
    <glyph glyph-name="CR" unicode="&#xd;" 
 />
    <glyph glyph-name="CR" 
 />
    <glyph glyph-name="space" unicode=" " 
 />
    <glyph glyph-name="exclam" unicode="!" 
d="M279 221l84 474h66l-84 -474h-66zM334 52q-4 -22 -21.5 -37t-39.5 -15q-21 0 -33.5 15t-8.5 37q4 21 21.5 36t38.5 15q22 0 34.5 -15t8.5 -36z" />
    <glyph glyph-name="quotedbl" unicode="&#x22;" 
d="M308 447h-69l44 248h69zM466 447h-69l44 248h69z" />
    <glyph glyph-name="numbersign" unicode="#" 
d="M222 0l72 155h-102l-72 -155h-70l72 155h-45l12 66h64l106 226h-61l11 66h80l86 182h73l-87 -182h102l87 182h70l-86 -182h53l-11 -66h-72l-106 -226h69l-12 -66h-88l-72 -155h-73zM331 447l-107 -226h102l107 226h-102z" />
    <glyph glyph-name="dollar" unicode="$" 
d="M362 693l18 102h66l-18 -103q79 -11 125 -64t33 -124h-69q7 44 -22 78t-79 44l-44 -252q80 -19 125 -67.5t34 -116.5q-13 -71 -78 -124t-147 -64l-18 -102h-66l18 102q-78 10 -123.5 63.5t-32.5 125.5h69q-8 -44 20.5 -78t78.5 -43l44 250q-79 18 -124 66.5t-33 117.5
q13 71 77.5 124.5t145.5 64.5zM208 504q-8 -42 20.5 -73.5t79.5 -44.5l42 240q-54 -10 -94.5 -44t-47.5 -78zM462 190q7 42 -22 73t-80 44l-42 -237q54 9 95 42.5t49 77.5z" />
    <glyph glyph-name="percent" unicode="%" 
d="M607 622l-471 -553h-74l471 553h74zM199 499q-25 0 -40 17.5t-10 43.5t26 44t46 18t40.5 -18t10.5 -44q-4 -25 -25.5 -43t-47.5 -18zM447 69q-25 0 -40 17.5t-10 43.5t26 44t46 18t40.5 -18t10.5 -44q-4 -25 -25.5 -43t-47.5 -18z" />
    <glyph glyph-name="ampersand" unicode="&#x26;" 
d="M428 0l9 52q-73 -52 -163 -52q-93 0 -148.5 55.5t-41.5 134.5q8 49 42 90.5t84 67.5q-40 26 -59.5 67.5t-11.5 89.5q14 79 90 134.5t168 55.5q91 0 147 -56t42 -134h-69q9 51 -30 87.5t-102 36.5t-115.5 -36.5t-61.5 -87.5q-9 -50 28.5 -86.5t98.5 -38.5h229l-67 -380
h-69zM286 66q63 0 114.5 36t61.5 88l22 125h-154q-65 0 -116.5 -36.5t-60.5 -88.5q-10 -52 29 -88t104 -36z" />
    <glyph glyph-name="quotesingle" unicode="'" 
d="M387 447h-69l44 248h69z" />
    <glyph glyph-name="parenleft" unicode="(" 
d="M565 777q-135 -116 -203 -270.5t-54.5 -309t107.5 -270.5q-8 -7 -30 -21.5t-30 -21.5q-105 127 -120.5 297.5t60 341t225.5 297.5q6 -7 22.5 -21.5t22.5 -21.5z" />
    <glyph glyph-name="parenright" unicode=")" 
d="M256 777q9 8 31 22.5t30 20.5q105 -127 120 -297.5t-60 -341t-225 -297.5q-6 6 -23 21t-23 22q136 116 204 270.5t54.5 309t-108.5 270.5z" />
    <glyph glyph-name="asterisk" unicode="*" 
d="M160 231l11 65h122l20 112h65l-20 -112h122l-11 -65h-96l37 -105l-59 -31l-43 104l-77 -104l-50 31l74 105h-95z" />
    <glyph glyph-name="plus" unicode="+" 
d="M158 221l11 65h122l22 122h65l-22 -122h122l-11 -65h-122l-22 -122h-65l22 122h-122z" />
    <glyph glyph-name="comma" unicode="," 
d="M286 -122h-69l23 125q-32 12 -26 49q4 21 21.5 36t38.5 15q22 0 34.5 -15t8.5 -36z" />
    <glyph glyph-name="hyphen" unicode="-" 
d="M158 221l11 65h309l-11 -65h-309z" />
    <glyph glyph-name="period" unicode="." 
d="M334 52q-4 -22 -21.5 -37t-39.5 -15q-21 0 -33.5 15t-8.5 37q4 21 21.5 36t38.5 15q22 0 34.5 -15t8.5 -36z" />
    <glyph glyph-name="slash" unicode="/" 
d="M637 795l-531 -895h-74l531 895h74z" />
    <glyph glyph-name="zero" unicode="0" 
d="M396 695q93 0 140.5 -102t21.5 -246t-109 -246t-176 -102q-92 0 -139.5 102t-22.5 246t109 246t176 102zM284 64q65 0 125 83t80 200q21 117 -9.5 199.5t-95.5 82.5q-63 0 -123 -82.5t-81 -199.5q-20 -117 10.5 -200t93.5 -83z" />
    <glyph glyph-name="one" unicode="1" 
d="M509 69l-12 -69h-447l12 69h189l99 560h-120l12 66h189l-111 -626h189z" />
    <glyph glyph-name="two" unicode="2" 
d="M393 695q96 0 150.5 -62.5t38.5 -151.5q-12 -66 -59.5 -114t-108 -76.5t-120.5 -56t-106.5 -69t-56.5 -99.5h378l-12 -66h-447l12 66q11 62 47 108.5t82.5 71.5t100 50.5t99 45.5t80 56t42.5 83q11 62 -26.5 105t-105.5 43q-49 0 -94 -20t-70 -53l-52 33q36 48 98.5 77
t129.5 29z" />
    <glyph glyph-name="three" unicode="3" 
d="M396 695q92 0 148 -56t42 -134q-8 -48 -42.5 -89.5t-84.5 -67.5q41 -26 60.5 -67.5t11.5 -90.5q-14 -79 -89.5 -134.5t-168.5 -55.5q-92 0 -147.5 55.5t-41.5 134.5h69q-10 -51 29.5 -87.5t102.5 -36.5q65 0 116 36t61 88q9 53 -29.5 89t-103.5 36h-123l11 65h129
q62 2 112 38.5t59 86.5q9 51 -30.5 87.5t-102.5 36.5t-115 -36.5t-61 -87.5h-69q14 78 90 134t167 56z" />
    <glyph glyph-name="four" unicode="4" 
d="M536 222l-11 -66h-107l-28 -156h-69l28 156h-271l11 66l355 473h69l-84 -473h107zM158 222h202l61 346z" />
    <glyph glyph-name="five" unicode="5" 
d="M191 410h163q89 0 141.5 -60t37.5 -145t-91 -145t-166 -60t-147.5 60.5t-42.5 144.5h69q-10 -57 30.5 -98t102.5 -41t114 41t62 98q11 58 -24.5 98.5t-96.5 40.5h-232l62 351h447l-12 -66h-378z" />
    <glyph glyph-name="six" unicode="6" 
d="M96 248q24 207 113 327t234 120q39 0 72.5 -10.5t48.5 -20.5l14 -10l-39 -52q-58 27 -105 27q-96 0 -163 -75t-87 -186q67 52 151 57q97 5 154.5 -53t47.5 -147q-11 -88 -85.5 -154t-166.5 -71t-147 63t-42 185zM331 356q-62 -3 -110 -47.5t-56 -104.5q-7 -59 32 -98.5
t100 -35.5q62 3 113 47.5t57 103.5q8 61 -30 100t-106 35z" />
    <glyph glyph-name="seven" unicode="7" 
d="M620 695l-12 -66l-349 -629h-68l348 629h-378l12 66h447z" />
    <glyph glyph-name="eight" unicode="8" 
d="M461 347q40 -25 59 -66.5t11 -89.5q-14 -79 -89 -135t-167 -56q-94 0 -149.5 55.5t-41.5 135.5q8 48 41.5 89.5t83.5 66.5q-41 26 -60 67.5t-10 90.5q14 79 89.5 134.5t169.5 55.5q92 0 147 -55.5t41 -134.5q-19 -102 -125 -158zM208 505q-9 -52 30.5 -88.5t103.5 -36.5
q63 0 114.5 36.5t60.5 88.5q9 51 -30 87.5t-101 36.5q-64 0 -116.5 -36.5t-61.5 -87.5zM287 66q63 0 114.5 36.5t60.5 88.5q9 51 -30 87.5t-101 36.5q-64 0 -116.5 -36.5t-61.5 -87.5q-9 -52 30.5 -88.5t103.5 -36.5z" />
    <glyph glyph-name="nine" unicode="9" 
d="M574 447q-25 -208 -113.5 -327.5t-233.5 -119.5q-39 0 -73 10t-48 20l-15 11l39 52q59 -27 106 -27q96 0 163 75t87 186q-66 -52 -151 -57q-98 -5 -155.5 53t-46.5 147q11 88 85 154t167 71q92 5 147 -63t42 -185zM339 339q61 3 109.5 47.5t56.5 104.5q7 59 -32 98.5
t-101 35.5q-62 -3 -112.5 -47.5t-56.5 -103.5q-8 -61 30 -100t106 -35z" />
    <glyph glyph-name="colon" unicode=":" 
d="M338 72q-4 -22 -21.5 -37t-39.5 -15q-21 0 -33.5 15t-8.5 37q4 21 21.5 36t38.5 15q22 0 34.5 -15t8.5 -36zM391 376q-4 -22 -21.5 -37t-39.5 -15q-21 0 -33.5 15t-8.5 37q4 21 21.5 36t38.5 15q22 0 34.5 -15t8.5 -36z" />
    <glyph glyph-name="semicolon" unicode=";" 
d="M391 376q-4 -22 -21.5 -37t-39.5 -15q-21 0 -33.5 15t-8.5 37q4 21 21.5 36t38.5 15q22 0 34.5 -15t8.5 -36zM307 -102h-69l22 125q-32 12 -25 49q4 21 21.5 36t38.5 15q22 0 34.5 -15t8.5 -36z" />
    <glyph glyph-name="less" unicode="&#x3c;" 
d="M511 469l-14 -75l-259 -149l207 -148l-13 -75l-276 189l12 69z" />
    <glyph glyph-name="equal" unicode="=" 
d="M170 287l11 65h309l-11 -65h-309zM147 156l11 65h309l-11 -65h-309z" />
    <glyph glyph-name="greater" unicode="&#x3e;" 
d="M188 394l14 75l275 -189l-12 -69l-342 -189l13 75l259 148z" />
    <glyph glyph-name="question" unicode="?" 
d="M338 181h-66q8 44 32.5 74.5t55.5 49t62 38.5t56.5 54.5t34.5 83.5q11 62 -26.5 105t-105.5 43q-47 0 -93.5 -24.5t-72.5 -58.5l-52 33q37 49 101 82.5t129 33.5q96 0 150.5 -62.5t38.5 -151.5q-10 -56 -37 -98.5t-59.5 -67.5t-64 -44.5t-55 -41.5t-28.5 -48zM334 52
q-4 -22 -21.5 -37t-39.5 -15q-21 0 -33.5 15t-8.5 37q4 21 21.5 36t38.5 15q22 0 34.5 -15t8.5 -36z" />
    <glyph glyph-name="at" unicode="@" 
d="M109 332l14 81q71 34 147 34q126 0 200 -90t52 -216q-14 -78 -69 -120t-109 -38q-26 2 -47.5 19t-29.5 40q-52 -43 -107 -43q-45 0 -67 21.5t-15 60.5q5 30 31.5 58t84.5 38q30 6 88 0q5 29 -7.5 48t-40.5 19q-41 0 -67 -40l-50 25q21 32 55.5 52t71.5 20
q53 0 84.5 -37.5t22.5 -89.5l-16 -90q-4 -18 5 -29t27 -12q37 0 58.5 32t27.5 66q17 95 -42 167t-153 72q-79 0 -149 -48zM268 100l4 24q-51 4 -71 1q-7 -1 -13 -3t-10.5 -4t-8.5 -4.5t-6.5 -4t-4.5 -4.5t-3.5 -4.5t-2.5 -4t-1.5 -3.5t-0.5 -3l-1 -3q0 -5 -0.5 -11.5t8 -12
t25.5 -5.5q49 0 86 42z" />
    <glyph glyph-name="A" unicode="A" 
d="M497 0h-74l-16 181h-202l-80 -181h-73l310 694h69zM373 564l-139 -317h168z" />
    <glyph glyph-name="B" unicode="B" 
d="M50 0l123 695h234q88 0 140.5 -55.5t38.5 -134.5q-9 -48 -41 -89.5t-80 -68.5q38 -26 56 -67t10 -90q-14 -79 -86.5 -134.5t-160.5 -55.5h-234zM462 190q9 52 -26.5 88.5t-95.5 36.5h-165l-44 -249h165q60 0 108 36t58 88zM517 505q9 51 -26.5 87.5t-95.5 36.5h-165
l-44 -249h165q60 0 108.5 36.5t57.5 88.5z" />
    <glyph glyph-name="C" unicode="C" 
d="M284 66q64 0 117.5 43t64.5 105h69q-16 -88 -93 -151t-170 -63q-92 0 -146 62.5t-38 151.5l47 267q16 89 92 151.5t168 62.5q93 0 148 -63t39 -151h-69q10 61 -27.5 104.5t-102.5 43.5q-64 0 -116.5 -43.5t-62.5 -104.5l-47 -267q-11 -61 26 -104.5t101 -43.5z" />
    <glyph glyph-name="D" unicode="D" 
d="M173 695h165q133 0 191 -92.5t30 -252.5q-29 -161 -120 -255.5t-224 -94.5h-165zM131 66h96q101 0 170.5 78.5t91.5 203.5t-20 203t-143 78h-96z" />
    <glyph glyph-name="E" unicode="E" 
d="M50 0l123 695h447l-12 -66h-378l-44 -249h195l-11 -65h-195l-44 -249h378l-12 -66h-447z" />
    <glyph glyph-name="F" unicode="F" 
d="M50 0l123 695h447l-12 -66h-378l-44 -249h195l-11 -65h-195l-56 -315h-69z" />
    <glyph glyph-name="G" unicode="G" 
d="M328 315l11 65h225l-29 -166q-16 -88 -93 -151t-170 -63q-92 0 -146 62.5t-38 151.5l47 267q16 89 92 151.5t168 62.5q93 0 148 -63t39 -151h-69q10 61 -27.5 104.5t-102.5 43.5q-64 0 -116.5 -43.5t-62.5 -104.5l-47 -267q-11 -61 26 -104.5t101 -43.5t117.5 43
t64.5 105l18 101h-156z" />
    <glyph glyph-name="H" unicode="H" 
d="M620 695l-123 -695h-69l56 315h-309l-56 -315h-69l123 695h69l-56 -315h309l56 315h69z" />
    <glyph glyph-name="I" unicode="I" 
d="M161 629l12 66h447l-12 -66h-191l-99 -563h191l-12 -66h-447l12 66h190l99 563h-190z" />
    <glyph glyph-name="J" unicode="J" 
d="M620 695l-85 -481q-15 -87 -97.5 -150.5t-172.5 -63.5q-72 0 -123 33t-71 84l62 33q15 -34 55.5 -59t88.5 -25q63 0 120.5 44t68.5 104l73 415h-277l12 66h346z" />
    <glyph glyph-name="K" unicode="K" 
d="M241 695l-56 -315h145l220 315h70l-242 -344l119 -351h-70l-106 314h-148l-55 -314h-68l123 695h68z" />
    <glyph glyph-name="L" unicode="L" 
d="M50 0l123 695h69l-111 -629h378l-12 -66h-447z" />
    <glyph glyph-name="M" unicode="M" 
d="M551 695h69l-123 -695h-69l90 512l-166 -264h-69l-74 264l-90 -512h-69l123 695h69l91 -356z" />
    <glyph glyph-name="N" unicode="N" 
d="M551 695h69l-123 -695h-69l-209 569l-100 -569h-69l123 695h69l209 -562z" />
    <glyph glyph-name="O" unicode="O" 
d="M582 481l-47 -268q-16 -88 -95 -151t-169 -63q-89 0 -144 63t-39 151l47 268q16 88 93 151t166 63q90 0 147 -63t41 -151zM466 213l47 268q10 61 -29.5 104.5t-101.5 43.5t-115 -43.5t-63 -104.5l-47 -268q-11 -61 26 -104.5t99 -43.5t117.5 43.5t66.5 104.5z" />
    <glyph glyph-name="P" unicode="P" 
d="M394 629h-164l-51 -291h164q60 0 109.5 42.5t60.5 102.5q10 61 -24.5 103.5t-94.5 42.5zM173 695h233q87 0 139.5 -62.5t36.5 -149.5q-15 -87 -89.5 -149t-161.5 -62h-164l-48 -272h-69z" />
    <glyph glyph-name="Q" unicode="Q" 
d="M377 -35q-12 38 -49 41q-27 -7 -57 -7q-89 0 -144 63t-39 151l47 268q16 88 93 151t166 63q90 0 147 -63t41 -151l-47 -268q-19 -104 -122 -170q23 -21 30 -53q6 -26 29.5 -38t48.5 -2l14 -62q-55 -19 -99.5 3t-58.5 74zM466 213l47 268q10 61 -29.5 104.5t-101.5 43.5
t-115 -43.5t-63 -104.5l-47 -268q-11 -61 26 -104.5t99 -43.5t117.5 43.5t66.5 104.5z" />
    <glyph glyph-name="R" unicode="R" 
d="M173 695h233q87 0 139.5 -62.5t36.5 -149.5q-13 -70 -66 -126t-122 -76l103 -281h-78l-100 272h-152l-48 -272h-69zM394 629h-164l-51 -291h164q60 0 109.5 42.5t60.5 102.5q10 61 -24.5 103.5t-94.5 42.5z" />
    <glyph glyph-name="S" unicode="S" 
d="M339 380q93 -14 149 -64.5t43 -125.5q-14 -79 -91 -134.5t-168 -55.5q-90 0 -146 56t-42 135h69q-9 -51 30 -87.5t101 -36.5q63 0 115.5 36t62.5 87q8 49 -31.5 82t-103.5 42q-91 13 -146.5 64t-41.5 126q14 79 90 135t166 56q91 0 148 -56t43 -135h-69q9 51 -31 88
t-103 37q-62 0 -114 -37t-61 -88q-9 -49 29.5 -82t101.5 -42z" />
    <glyph glyph-name="T" unicode="T" 
d="M161 629l12 66h447l-12 -66h-191l-111 -629h-66l111 629h-190z" />
    <glyph glyph-name="U" unicode="U" 
d="M551 695h69l-85 -481q-16 -88 -95 -151t-169 -63q-89 0 -144 63t-39 151l85 481h69l-85 -481q-11 -61 26.5 -104.5t99.5 -43.5t117 43.5t66 104.5z" />
    <glyph glyph-name="V" unicode="V" 
d="M299 140l252 555h70l-312 -695h-70l-66 695h69z" />
    <glyph glyph-name="W" unicode="W" 
d="M389 178l162 517h69l-230 -695h-57l-13 268l-119 -268h-52l24 695h69l-24 -517l85 177h66z" />
    <glyph glyph-name="X" unicode="X" 
d="M370 351l127 -351h-69l-106 279l-203 -279h-69l251 350v1l-128 344h69l105 -274l204 274h69z" />
    <glyph glyph-name="Y" unicode="Y" 
d="M620 695l-253 -348l-61 -347h-66l61 348l-128 347h69l105 -274l204 274h69z" />
    <glyph glyph-name="Z" unicode="Z" 
d="M620 695l-12 -66l-467 -563h368l-12 -66h-447l12 66l467 563h-368l12 66h447z" />
    <glyph glyph-name="bracketleft" unicode="[" 
d="M151 -100l158 895h209l-11 -66h-143l-135 -763h143l-12 -66h-209z" />
    <glyph glyph-name="backslash" unicode="\" 
d="M405 -100l-215 895h74l215 -895h-74z" />
    <glyph glyph-name="bracketright" unicode="]" 
d="M518 795l-158 -895h-209l12 66h143l135 763h-143l11 66h209z" />
    <glyph glyph-name="asciicircum" unicode="^" 
d="M564 380h-75l-107 239l-190 -239h-75l245 315h69z" />
    <glyph glyph-name="underscore" unicode="_" 
d="M50 0l12 69h447l-12 -69h-447z" />
    <glyph glyph-name="grave" unicode="`" 
d="M405 548l-58 -49l-145 175l57 49z" />
    <glyph glyph-name="a" unicode="a" 
d="M474 259l-21 -120q-5 -29 11.5 -50t44.5 -21l-12 -68q-40 0 -69.5 21.5t-40.5 55.5q-89 -77 -195 -77q-67 0 -98.5 32t-21.5 90q3 19 11.5 37t26.5 40t52 39t80 25q52 9 164 -1q7 48 -22.5 82t-78.5 34q-35 0 -68 -19t-53 -49l-56 29q31 49 82 78.5t107 29.5
q78 0 124 -55t33 -133zM387 153l9 50q-98 10 -147 2q-34 -6 -57.5 -17t-33 -25t-12.5 -20.5t-5 -17.5q0 -10 -1.5 -22.5t16 -24t53.5 -11.5q98 0 178 86z" />
    <glyph glyph-name="b" unicode="b" 
d="M352 447q93 0 147 -65.5t37 -158.5q-16 -92 -93 -157.5t-170 -65.5q-91 0 -143 62l-11 -62h-69l123 695h69l-55 -310q77 62 165 62zM285 69q64 0 117.5 45t64.5 109q11 65 -26 110t-101 45q-63 0 -116.5 -44.5t-65.5 -110.5q-11 -64 26 -109t101 -45z" />
    <glyph glyph-name="c" unicode="c" 
d="M459 164l62 -27q-37 -61 -102.5 -99t-136.5 -38q-96 0 -152.5 65.5t-40.5 157.5q16 93 96 158.5t176 65.5q71 0 123 -38t68 -99l-72 -27q-10 42 -45.5 68.5t-85.5 26.5q-67 0 -122 -45.5t-66 -109.5t27.5 -109t105.5 -45q50 0 95 26.5t70 68.5z" />
    <glyph glyph-name="d" unicode="d" 
d="M353 447q89 0 143 -62l55 310h69l-123 -695h-69l11 62q-75 -62 -165 -62q-93 0 -147 65.5t-38 157.5q16 93 93.5 158.5t170.5 65.5zM286 69q64 0 117 45t64 109q12 66 -25.5 110.5t-100.5 44.5q-65 0 -118.5 -45.5t-64.5 -109.5t26.5 -109t101.5 -45z" />
    <glyph glyph-name="e" unicode="e" 
d="M433 146l54 -34q-39 -51 -96 -81.5t-118 -30.5q-92 0 -146 65.5t-38 157.5q16 93 93.5 158.5t169.5 65.5q103 0 156 -81t19 -177h-371q2 -52 38.5 -86t90.5 -34q43 0 82.5 21t65.5 56zM168 258h301q-2 52 -38 86t-91 34q-54 0 -102.5 -34t-69.5 -86z" />
    <glyph glyph-name="f" unicode="f" 
d="M567 398l-12 -68h-252l-58 -330h-68l58 330h-127l12 68h127l24 137q12 66 67 113t122 47q66 0 104.5 -47t26.5 -113h-69q7 37 -15 64t-60 27t-69.5 -26.5t-38.5 -64.5l-24 -137h252z" />
    <glyph glyph-name="g" unicode="g" 
d="M424 -25l15 87q-75 -62 -166 -62q-92 0 -146 65.5t-38 157.5q16 93 93.5 158.5t169.5 65.5q90 0 144 -62l11 62h69l-83 -472q-17 -92 -94 -157.5t-170 -65.5q-61 0 -106.5 30.5t-66.5 81.5l65 34q15 -35 46.5 -56t73.5 -21q65 0 118.5 45t64.5 109zM285 69q63 0 115 42.5
t66 104.5q12 69 -24.5 115.5t-101.5 46.5q-64 0 -117.5 -45.5t-64.5 -109.5t26 -109t101 -45z" />
    <glyph glyph-name="h" unicode="h" 
d="M536 223l-39 -223h-69l39 223q11 65 -26 110t-101 45q-62 0 -114.5 -43.5t-66.5 -105.5l-40 -229h-69l123 695h69l-55 -310q77 62 165 62q93 0 147 -65.5t37 -158.5z" />
    <glyph glyph-name="i" unicode="i" 
d="M387 447l-67 -378h189l-12 -69h-447l12 69h189l55 309h-141l12 69h210zM433 614q-4 -22 -21.5 -37t-39.5 -15q-21 0 -33.5 15t-8.5 37q4 21 21.5 36t38.5 15q22 0 34.5 -15t8.5 -36z" />
    <glyph glyph-name="j" unicode="j" 
d="M214 378l12 69h321l-83 -472q-16 -93 -94 -158.5t-170 -65.5q-61 0 -107 30.5t-67 81.5l66 34q14 -35 45.5 -56t74.5 -21q64 0 117.5 45.5t65.5 109.5l71 403h-252zM593 614q-4 -22 -21.5 -37t-39.5 -15q-21 0 -33.5 15t-8.5 37q4 21 21.5 36t38.5 15q22 0 34.5 -15
t8.5 -36z" />
    <glyph glyph-name="k" unicode="k" 
d="M576 447l-226 -158l147 -289h-78l-124 250l-151 -106l-25 -144h-69l123 695h69l-83 -469l322 221h95z" />
    <glyph glyph-name="l" unicode="l" 
d="M509 69l-12 -69h-447l12 69h189l99 560h-120l12 66h189l-111 -626h189z" />
    <glyph glyph-name="m" unicode="m" 
d="M447 447q53 0 84.5 -38t21.5 -91l-56 -318h-67l56 318q5 26 -10.5 44t-40.5 18t-46 -18t-26 -44l-56 -318h-69l56 318q5 25 -9.5 42.5t-39.5 17.5t-45 -17.5t-25 -42.5l-56 -318h-69l79 447h69l-3 -15q30 15 62 15q58 0 87 -42q47 42 103 42z" />
    <glyph glyph-name="n" unicode="n" 
d="M352 447q93 0 147 -65.5t37 -158.5l-39 -223h-69l39 223q11 65 -26 110t-101 45t-117.5 -45t-64.5 -109l-39 -224h-69l79 447h69l-11 -62q77 62 165 62z" />
    <glyph glyph-name="o" unicode="o" 
d="M352 447q93 0 147 -65.5t37 -158.5q-16 -92 -93 -157.5t-170 -65.5q-92 0 -146 65.5t-38 157.5q16 93 93.5 158.5t169.5 65.5zM285 69q64 0 117.5 45t64.5 109q11 65 -26 110t-101 45t-117.5 -45.5t-64.5 -109.5t26 -109t101 -45z" />
    <glyph glyph-name="p" unicode="p" 
d="M536 224q-16 -93 -93 -158.5t-170 -65.5q-91 0 -143 62l-55 -310h-69l123 695h69l-11 -62q77 62 165 62q93 0 147 -65.5t37 -157.5zM467 224q11 64 -26 109.5t-101 45.5q-63 0 -116.5 -44t-63.5 -105q-13 -68 24 -114.5t101 -46.5t117.5 45t64.5 110z" />
    <glyph glyph-name="q" unicode="q" 
d="M89 224q17 92 94 157.5t170 65.5q89 0 143 -62l11 62h69l-123 -695h-69l55 310q-75 -62 -165 -62q-93 0 -147 65.5t-38 158.5zM158 224q-11 -64 26 -109.5t102 -45.5q64 0 117 46t66 115q10 61 -28 105t-100 44q-64 0 -118 -45.5t-65 -109.5z" />
    <glyph glyph-name="r" unicode="r" 
d="M454 378q-64 0 -117.5 -45t-64.5 -109l-27 -155h167l-12 -69h-350l12 69h114l55 309h-114l12 69h183l-11 -62q77 62 165 62q61 0 105 -29l-44 -60q-31 20 -73 20z" />
    <glyph glyph-name="s" unicode="s" 
d="M318 257q112 0 161.5 -36.5t39.5 -94.5q-9 -52 -80.5 -89t-165.5 -37q-91 0 -150.5 37.5t-50.5 88.5h68q-5 -26 37 -44.5t107 -18.5t113.5 18.5t53.5 44.5q3 19 -6.5 32t-44 22t-94.5 9q-110 0 -160 36t-40 91q10 54 82.5 92.5t163.5 38.5q95 0 153 -38t48 -93h-68
q5 26 -37.5 47t-106.5 21t-113 -21t-54 -47q-3 -16 7.5 -28.5t45 -21.5t91.5 -9z" />
    <glyph glyph-name="t" unicode="t" 
d="M324 447h252l-12 -69h-252l-39 -218q-7 -38 15.5 -64.5t60.5 -26.5q37 0 68.5 26.5t38.5 64.5h69q-11 -66 -66.5 -113t-121.5 -47q-67 0 -105 47t-27 113l39 218h-127l12 69h127l22 127h68z" />
    <glyph glyph-name="u" unicode="u" 
d="M274 0q-93 0 -147 65.5t-38 158.5l40 223h69l-40 -223q-11 -64 26 -109.5t102 -45.5q64 0 117 45t64 109l40 224h69l-79 -447h-69l11 62q-77 -62 -165 -62z" />
    <glyph glyph-name="v" unicode="v" 
d="M289 91l213 356h74l-268 -447h-69l-110 447h74z" />
    <glyph glyph-name="w" unicode="w" 
d="M361 91l142 356h73l-194 -447h-68l-8 187l-73 -187h-68l-36 447h73l16 -356l75 187h59z" />
    <glyph glyph-name="x" unicode="x" 
d="M492 447h84l-225 -224l146 -223h-84l-109 173l-171 -173h-83l223 223l-144 224h83l109 -173z" />
    <glyph glyph-name="y" unicode="y" 
d="M289 91l213 356h74l-417 -695h-73l152 252l-109 443h74z" />
    <glyph glyph-name="z" unicode="z" 
d="M576 447l-12 -69l-409 -309h354l-12 -69h-447l12 69l409 309h-354l12 69h447z" />
    <glyph glyph-name="braceleft" unicode="{" 
d="M602 795l-12 -67q-64 0 -118 -47t-65 -112l-6 -34q-10 -59 -47.5 -109t-90.5 -80q43 -30 62.5 -80t9.5 -108l-6 -36q-11 -64 27 -109.5t102 -45.5l-12 -67q-93 0 -147 65t-37 157l6 36q10 62 -26 107t-98 48h-6l12 67q64 0 118.5 45.5t65.5 109.5l6 34q17 93 93.5 159.5
t168.5 66.5z" />
    <glyph glyph-name="bar" unicode="|" 
d="M222 -100l158 895h66l-158 -895h-66z" />
    <glyph glyph-name="braceright" unicode="}" 
d="M213 728l12 67q92 0 145.5 -66.5t36.5 -159.5l-6 -34q-11 -64 27 -109.5t103 -45.5l-12 -67h-6q-63 -3 -115.5 -48t-62.5 -107l-6 -36q-16 -92 -93.5 -157t-170.5 -65l12 67q65 0 119.5 45.5t65.5 109.5l6 36q10 58 47.5 108t90.5 80q-43 30 -62.5 80t-9.5 109l6 34
q11 65 -26 112t-101 47z" />
    <glyph glyph-name="asciitilde" unicode="~" 
d="M282 234q-7 25 -29.5 36t-49.5 0q-41 -14 -50 -62q-2 -11 1 -37l-65 -24q-8 34 -3 62q7 40 35 73.5t69 49.5q53 17 100.5 -2.5t58.5 -70.5q5 -26 28.5 -38t49.5 -2q43 16 52 64q2 13 -3 36l70 26q6 -32 1 -60q-7 -41 -36.5 -76.5t-69.5 -51.5q-55 -19 -99.5 2.5
t-59.5 74.5z" />
    <glyph glyph-name="exclamdown" unicode="&#xa1;" 
d="M391 474l-84 -474h-66l84 474h66zM335 643q4 22 22 37t40 15q21 0 33 -15t8 -37q-4 -21 -21.5 -36t-38.5 -15q-22 0 -34.5 15t-8.5 36z" />
    <glyph glyph-name="cent" unicode="&#xa2;" 
d="M228 -70l13 73q-79 14 -122.5 76.5t-29.5 143.5q15 82 80 144t149 76l13 74h66l-12 -71q63 -7 108 -44t59 -92l-72 -27q-8 37 -37.5 62t-70.5 31l-54 -306q43 6 81 31.5t60 62.5l62 -27q-34 -56 -92 -93t-123 -43l-12 -71h-66zM161 223q-9 -53 16.5 -94t75.5 -55l53 298
q-54 -13 -94.5 -54t-50.5 -95z" />
    <glyph glyph-name="sterling" unicode="&#xa3;" 
d="M419 340l-12 -65h-125q-9 -20 -32 -44.5t-46 -45t-44.5 -52t-28.5 -64.5h378l-12 -69h-447l12 69q7 38 28 73.5t42 56t47.5 43.5t34.5 33h-116l12 65h93q-4 5 -14 16t-14.5 16.5t-14 18t-12.5 19.5t-9.5 21.5t-5 24t1.5 25.5q16 89 92.5 151.5t172.5 62.5q67 0 118.5 -29
t71.5 -77l-64 -33q-13 33 -51 53t-87 20q-68 0 -120.5 -43t-63.5 -105q-5 -30 8.5 -53.5t38 -47t32.5 -40.5h136z" />
    <glyph glyph-name="yen" unicode="&#xa5;" 
d="M147 156l11 65h121l12 66h-121l11 65h119l-127 343h69l105 -274l204 274h69l-250 -343h120l-11 -65h-122l-12 -66h122l-11 -65h-122l-28 -156h-66l28 156h-121z" />
    <glyph glyph-name="section" unicode="&#xa7;" 
d="M161 -59l115 654q11 66 66 113t122 47q66 0 104.5 -47t27.5 -113h-69q9 51 -32 79l-115 -654q-12 -66 -67 -113t-122 -47q-66 0 -104.5 47t-26.5 113h69q-10 -53 32 -79zM344 595l-117 -663q31 8 55 32.5t30 55.5l116 663q-31 -8 -55 -32.5t-29 -55.5z" />
    <glyph glyph-name="dieresis" unicode="&#xa8;" 
d="M504 659q22 0 34.5 -15t8.5 -37q-4 -21 -21.5 -36t-39.5 -15q-21 0 -33.5 15t-8.5 36q4 22 21.5 37t38.5 15zM275 659q22 0 34.5 -15t8.5 -37q-4 -21 -21.5 -36t-39.5 -15q-21 0 -33.5 15t-8.5 36q4 22 21.5 37t38.5 15z" />
    <glyph glyph-name="guillemotleft" unicode="&#xab;" 
d="M377 469l-14 -75l-210 -149l158 -148l-13 -75l-211 189l12 69zM581 469l-14 -75l-210 -149l158 -148l-13 -75l-211 189l12 69z" />
    <glyph glyph-name="macron" unicode="&#xaf;" 
d="M224 597l12 65h309l-12 -65h-309z" />
    <glyph glyph-name="degree" unicode="&#xb0;" 
d="M397 706q54 0 85.5 -38t22.5 -92q-10 -53 -54.5 -91t-98.5 -38q-53 0 -84.5 38t-21.5 91q9 54 53.5 92t97.5 38zM364 515q26 0 47.5 18t25.5 43t-11 43.5t-41 18.5q-25 0 -45.5 -18t-25.5 -44t10 -43.5t40 -17.5z" />
    <glyph glyph-name="plusminus" unicode="&#xb1;" 
d="M125 35l12 65h122l21 121h-122l11 65h122l22 122h65l-22 -122h122l-11 -65h-122l-21 -121h122l-12 -65h-309z" />
    <glyph glyph-name="acute" unicode="&#xb4;" 
d="M256 499l-40 49l206 175l41 -49z" />
    <glyph glyph-name="paragraph" unicode="&#xb6;" 
d="M387 695h233l-123 -695h-69l111 629h-95l-111 -629h-69l48 272q-87 0 -139.5 62t-37.5 149q16 87 90.5 149.5t161.5 62.5zM324 338l51 291q-60 0 -110.5 -42.5t-60.5 -103.5q-10 -60 25 -102.5t95 -42.5z" />
    <glyph glyph-name="cedilla" unicode="&#xb8;" 
d="M248 41h69q36 -27 42 -68.5t-18 -87.5q-33 -54 -91.5 -73.5t-109.5 1.5l37 65q57 -22 93 18q29 33 17 70q-10 30 -45 38z" />
    <glyph glyph-name="guillemotright" unicode="&#xbb;" 
d="M323 394l14 75l210 -189l-12 -69l-277 -189l13 75l210 148zM119 394l14 75l210 -189l-12 -69l-277 -189l13 75l210 148z" />
    <glyph glyph-name="questiondown" unicode="&#xbf;" 
d="M343 514h66q-8 -44 -32.5 -74.5t-55.5 -49t-62.5 -38.5t-56.5 -54.5t-34 -83.5q-11 -62 26.5 -105t105.5 -43q47 0 93.5 24.5t71.5 58.5l52 -33q-37 -50 -100.5 -83t-128.5 -33q-96 0 -150.5 62.5t-38.5 151.5q10 56 37 98.5t59.5 67.5t64 44.5t55 41.5t28.5 48zM346 643
q4 22 22 37t40 15q21 0 33 -15t8 -37q-4 -21 -21.5 -36t-38.5 -15q-22 0 -34.5 15t-8.5 36z" />
    <glyph glyph-name="Agrave" unicode="&#xc0;" 
d="M497 0h-74l-16 181h-202l-80 -181h-73l310 694h69zM373 564l-139 -317h168zM526 796l-57 -49l-145 175l57 49z" />
    <glyph glyph-name="Aacute" unicode="&#xc1;" 
d="M497 0h-74l-16 181h-202l-80 -181h-73l310 694h69zM373 564l-139 -317h168zM342 747l-41 49l207 175l41 -49z" />
    <glyph glyph-name="Acircumflex" unicode="&#xc2;" 
d="M497 0h-74l-16 181h-202l-80 -181h-73l310 694h69zM373 564l-139 -317h168zM285 787l-41 49l207 175l145 -175l-57 -49l-105 126z" />
    <glyph glyph-name="Atilde" unicode="&#xc3;" 
d="M497 0h-74l-16 181h-202l-80 -181h-73l310 694h69zM373 564l-139 -317h168zM398 859q-2 14 -16 21t-30 0q-34 -13 -26 -65l-54 -19q-13 38 6.5 78.5t62.5 55.5q37 13 70.5 -0.5t44.5 -50.5q5 -16 17.5 -23.5t26.5 -0.5q9 4 15 9t9 9.5t4.5 11t1.5 10.5t-1 12.5t-1 12.5
l56 21q9 -45 -7.5 -84.5t-62.5 -54.5q-36 -15 -70.5 -1.5t-45.5 58.5z" />
    <glyph glyph-name="Adieresis" unicode="&#xc4;" 
d="M497 0h-74l-16 181h-202l-80 -181h-73l310 694h69zM373 564l-139 -317h168zM548 907q22 0 34.5 -15t8.5 -37q-4 -21 -21.5 -36t-39.5 -15q-21 0 -33.5 15t-8.5 36q4 22 21.5 37t38.5 15zM319 907q22 0 34.5 -15t8.5 -37q-4 -21 -21.5 -36t-39.5 -15q-21 0 -33.5 15
t-8.5 36q4 22 21.5 37t38.5 15z" />
    <glyph glyph-name="Aring" unicode="&#xc5;" 
d="M424 855q54 0 85.5 -38t21.5 -92q-7 -37 -32 -68t-60 -47l58 -610h-74l-16 181h-202l-80 -181h-73l272 609q-30 16 -44.5 47t-7.5 69q10 54 54.5 92t97.5 38zM373 564l-139 -317h168zM390 664q26 0 47.5 18t25.5 43q5 26 -10.5 44t-40.5 18t-46 -18t-26 -44t10 -43.5
t40 -17.5z" />
    <glyph glyph-name="AE" unicode="&#xc6;" 
d="M273 0l32 181h-100l-80 -181h-73l311 695h257l-12 -66h-155l-44 -249h86l-11 -65h-86l-44 -249h155l-12 -66h-224zM234 247h83l55 313z" />
    <glyph glyph-name="Ccedilla" unicode="&#xc7;" 
d="M284 66q64 0 117.5 43t64.5 105h69q-13 -71 -66.5 -127.5t-126.5 -76.5q33 -53 -5 -125q-33 -54 -91.5 -73.5t-109.5 1.5l37 65q58 -22 94 19q29 34 15 70q-9 25 -36 34q-82 10 -127.5 70.5t-30.5 142.5l47 267q16 89 92 151.5t168 62.5q93 0 148 -63t39 -151h-69
q10 61 -27.5 104.5t-102.5 43.5q-64 0 -116.5 -43.5t-62.5 -104.5l-47 -267q-11 -61 26 -104.5t101 -43.5z" />
    <glyph glyph-name="Egrave" unicode="&#xc8;" 
d="M50 0l123 695h447l-12 -66h-378l-44 -249h195l-11 -65h-195l-44 -249h378l-12 -66h-447zM526 796l-57 -49l-145 175l57 49z" />
    <glyph glyph-name="Eacute" unicode="&#xc9;" 
d="M50 0l123 695h447l-12 -66h-378l-44 -249h195l-11 -65h-195l-44 -249h378l-12 -66h-447zM342 747l-41 49l207 175l41 -49z" />
    <glyph glyph-name="Ecircumflex" unicode="&#xca;" 
d="M50 0l123 695h447l-12 -66h-378l-44 -249h195l-11 -65h-195l-44 -249h378l-12 -66h-447zM285 787l-41 49l207 175l145 -175l-57 -49l-105 126z" />
    <glyph glyph-name="Edieresis" unicode="&#xcb;" 
d="M50 0l123 695h447l-12 -66h-378l-44 -249h195l-11 -65h-195l-44 -249h378l-12 -66h-447zM548 907q22 0 34.5 -15t8.5 -37q-4 -21 -21.5 -36t-39.5 -15q-21 0 -33.5 15t-8.5 36q4 22 21.5 37t38.5 15zM319 907q22 0 34.5 -15t8.5 -37q-4 -21 -21.5 -36t-39.5 -15
q-21 0 -33.5 15t-8.5 36q4 22 21.5 37t38.5 15z" />
    <glyph glyph-name="Igrave" unicode="&#xcc;" 
d="M161 629l12 66h447l-12 -66h-191l-99 -563h191l-12 -66h-447l12 66h190l99 563h-190zM526 796l-57 -49l-145 175l57 49z" />
    <glyph glyph-name="Iacute" unicode="&#xcd;" 
d="M161 629l12 66h447l-12 -66h-191l-99 -563h191l-12 -66h-447l12 66h190l99 563h-190zM342 747l-41 49l207 175l41 -49z" />
    <glyph glyph-name="Icircumflex" unicode="&#xce;" 
d="M161 629l12 66h447l-12 -66h-191l-99 -563h191l-12 -66h-447l12 66h190l99 563h-190zM285 787l-41 49l207 175l145 -175l-57 -49l-105 126z" />
    <glyph glyph-name="Idieresis" unicode="&#xcf;" 
d="M161 629l12 66h447l-12 -66h-191l-99 -563h191l-12 -66h-447l12 66h190l99 563h-190zM548 907q22 0 34.5 -15t8.5 -37q-4 -21 -21.5 -36t-39.5 -15q-21 0 -33.5 15t-8.5 36q4 22 21.5 37t38.5 15zM319 907q22 0 34.5 -15t8.5 -37q-4 -21 -21.5 -36t-39.5 -15
q-21 0 -33.5 15t-8.5 36q4 22 21.5 37t38.5 15z" />
    <glyph glyph-name="Ntilde" unicode="&#xd1;" 
d="M551 695h69l-123 -695h-69l-209 569l-100 -569h-69l123 695h69l209 -562zM398 859q-2 14 -16 21t-30 0q-34 -13 -26 -65l-54 -19q-13 38 6.5 78.5t62.5 55.5q37 13 70.5 -0.5t44.5 -50.5q5 -16 17.5 -23.5t26.5 -0.5q9 4 15 9t9 9.5t4.5 11t1.5 10.5t-1 12.5t-1 12.5
l56 21q9 -45 -7.5 -84.5t-62.5 -54.5q-36 -15 -70.5 -1.5t-45.5 58.5z" />
    <glyph glyph-name="Ograve" unicode="&#xd2;" 
d="M582 481l-47 -268q-16 -88 -95 -151t-169 -63q-89 0 -144 63t-39 151l47 268q16 88 93 151t166 63q90 0 147 -63t41 -151zM466 213l47 268q10 61 -29.5 104.5t-101.5 43.5t-115 -43.5t-63 -104.5l-47 -268q-11 -61 26 -104.5t99 -43.5t117.5 43.5t66.5 104.5zM526 796
l-57 -49l-145 175l57 49z" />
    <glyph glyph-name="Oacute" unicode="&#xd3;" 
d="M582 481l-47 -268q-16 -88 -95 -151t-169 -63q-89 0 -144 63t-39 151l47 268q16 88 93 151t166 63q90 0 147 -63t41 -151zM466 213l47 268q10 61 -29.5 104.5t-101.5 43.5t-115 -43.5t-63 -104.5l-47 -268q-11 -61 26 -104.5t99 -43.5t117.5 43.5t66.5 104.5zM342 747
l-41 49l207 175l41 -49z" />
    <glyph glyph-name="Ocircumflex" unicode="&#xd4;" 
d="M582 481l-47 -268q-16 -88 -95 -151t-169 -63q-89 0 -144 63t-39 151l47 268q16 88 93 151t166 63q90 0 147 -63t41 -151zM466 213l47 268q10 61 -29.5 104.5t-101.5 43.5t-115 -43.5t-63 -104.5l-47 -268q-11 -61 26 -104.5t99 -43.5t117.5 43.5t66.5 104.5zM285 787
l-41 49l207 175l145 -175l-57 -49l-105 126z" />
    <glyph glyph-name="Otilde" unicode="&#xd5;" 
d="M582 481l-47 -268q-16 -88 -95 -151t-169 -63q-89 0 -144 63t-39 151l47 268q16 88 93 151t166 63q90 0 147 -63t41 -151zM466 213l47 268q10 61 -29.5 104.5t-101.5 43.5t-115 -43.5t-63 -104.5l-47 -268q-11 -61 26 -104.5t99 -43.5t117.5 43.5t66.5 104.5zM398 859
q-2 14 -16 21t-30 0q-34 -13 -26 -65l-54 -19q-13 38 6.5 78.5t62.5 55.5q37 13 70.5 -0.5t44.5 -50.5q5 -16 17.5 -23.5t26.5 -0.5q9 4 15 9t9 9.5t4.5 11t1.5 10.5t-1 12.5t-1 12.5l56 21q9 -45 -7.5 -84.5t-62.5 -54.5q-36 -15 -70.5 -1.5t-45.5 58.5z" />
    <glyph glyph-name="Odieresis" unicode="&#xd6;" 
d="M582 481l-47 -268q-16 -88 -95 -151t-169 -63q-89 0 -144 63t-39 151l47 268q16 88 93 151t166 63q90 0 147 -63t41 -151zM466 213l47 268q10 61 -29.5 104.5t-101.5 43.5t-115 -43.5t-63 -104.5l-47 -268q-11 -61 26 -104.5t99 -43.5t117.5 43.5t66.5 104.5zM548 907
q22 0 34.5 -15t8.5 -37q-4 -21 -21.5 -36t-39.5 -15q-21 0 -33.5 15t-8.5 36q4 22 21.5 37t38.5 15zM319 907q22 0 34.5 -15t8.5 -37q-4 -21 -21.5 -36t-39.5 -15q-21 0 -33.5 15t-8.5 36q4 22 21.5 37t38.5 15z" />
    <glyph glyph-name="multiply" unicode="&#xd7;" 
d="M325 296l-132 -112l-38 47l131 112l-92 112l56 47l92 -112l132 112l38 -47l-132 -112l93 -112l-56 -47z" />
    <glyph glyph-name="Oslash" unicode="&#xd8;" 
d="M178 21l-72 -121h-74l96 161q-56 64 -40 152l47 268q16 88 93 151t166 63q52 0 95 -24l74 124h74l-97 -163q57 -63 42 -151l-47 -268q-16 -88 -95 -151t-169 -63q-51 0 -93 22zM466 213l47 268q8 46 -14 82l-285 -481q31 -17 68 -17q62 0 117.5 43.5t66.5 104.5zM382 629
q-62 0 -115 -43.5t-63 -104.5l-47 -268q-9 -45 11 -83l286 480q-33 19 -72 19z" />
    <glyph glyph-name="Ugrave" unicode="&#xd9;" 
d="M551 695h69l-85 -481q-16 -88 -95 -151t-169 -63q-89 0 -144 63t-39 151l85 481h69l-85 -481q-11 -61 26.5 -104.5t99.5 -43.5t117 43.5t66 104.5zM526 796l-57 -49l-145 175l57 49z" />
    <glyph glyph-name="Uacute" unicode="&#xda;" 
d="M551 695h69l-85 -481q-16 -88 -95 -151t-169 -63q-89 0 -144 63t-39 151l85 481h69l-85 -481q-11 -61 26.5 -104.5t99.5 -43.5t117 43.5t66 104.5zM342 747l-41 49l207 175l41 -49z" />
    <glyph glyph-name="Ucircumflex" unicode="&#xdb;" 
d="M551 695h69l-85 -481q-16 -88 -95 -151t-169 -63q-89 0 -144 63t-39 151l85 481h69l-85 -481q-11 -61 26.5 -104.5t99.5 -43.5t117 43.5t66 104.5zM285 787l-41 49l207 175l145 -175l-57 -49l-105 126z" />
    <glyph glyph-name="Udieresis" unicode="&#xdc;" 
d="M551 695h69l-85 -481q-16 -88 -95 -151t-169 -63q-89 0 -144 63t-39 151l85 481h69l-85 -481q-11 -61 26.5 -104.5t99.5 -43.5t117 43.5t66 104.5zM548 907q22 0 34.5 -15t8.5 -37q-4 -21 -21.5 -36t-39.5 -15q-21 0 -33.5 15t-8.5 36q4 22 21.5 37t38.5 15zM319 907
q22 0 34.5 -15t8.5 -37q-4 -21 -21.5 -36t-39.5 -15q-21 0 -33.5 15t-8.5 36q4 22 21.5 37t38.5 15z" />
    <glyph glyph-name="Yacute" unicode="&#xdd;" 
d="M620 695l-253 -348l-61 -347h-66l61 348l-128 347h69l105 -274l204 274h69zM342 747l-41 49l207 175l41 -49z" />
    <glyph glyph-name="germandbls" unicode="&#xdf;" 
d="M239 0l12 69h111q60 0 86 44q21 36 -2 64q-15 18 -46 21q-58 5 -88.5 41t-22.5 91q7 35 31.5 66.5t59.5 49.5l15 89q7 37 -15 64t-60 27t-69 -26.5t-38 -64.5l-94 -535h-69l94 535q12 66 67 113t122 47q66 0 104.5 -47t26.5 -113l-24 -139q-31 -2 -55 -20t-29 -47
q-4 -25 12 -43t45 -21q61 -7 87.5 -43.5t19.5 -90.5q-12 -60 -62 -95.5t-108 -35.5h-111z" />
    <glyph glyph-name="agrave" unicode="&#xe0;" 
d="M474 259l-21 -120q-5 -29 11.5 -50t44.5 -21l-12 -68q-40 0 -69.5 21.5t-40.5 55.5q-89 -77 -195 -77q-67 0 -98.5 32t-21.5 90q3 19 11.5 37t26.5 40t52 39t80 25q52 9 164 -1q7 48 -22.5 82t-78.5 34q-35 0 -68 -19t-53 -49l-56 29q31 49 82 78.5t107 29.5
q78 0 124 -55t33 -133zM387 153l9 50q-98 10 -147 2q-34 -6 -57.5 -17t-33 -25t-12.5 -20.5t-5 -17.5q0 -10 -1.5 -22.5t16 -24t53.5 -11.5q98 0 178 86zM405 548l-58 -49l-145 175l57 49z" />
    <glyph glyph-name="aacute" unicode="&#xe1;" 
d="M474 259l-21 -120q-5 -29 11.5 -50t44.5 -21l-12 -68q-40 0 -69.5 21.5t-40.5 55.5q-89 -77 -195 -77q-67 0 -98.5 32t-21.5 90q3 19 11.5 37t26.5 40t52 39t80 25q52 9 164 -1q7 48 -22.5 82t-78.5 34q-35 0 -68 -19t-53 -49l-56 29q31 49 82 78.5t107 29.5
q78 0 124 -55t33 -133zM387 153l9 50q-98 10 -147 2q-34 -6 -57.5 -17t-33 -25t-12.5 -20.5t-5 -17.5q0 -10 -1.5 -22.5t16 -24t53.5 -11.5q98 0 178 86zM298 499l-40 49l206 175l41 -49z" />
    <glyph glyph-name="acircumflex" unicode="&#xe2;" 
d="M474 259l-21 -120q-5 -29 11.5 -50t44.5 -21l-12 -68q-40 0 -69.5 21.5t-40.5 55.5q-89 -77 -195 -77q-67 0 -98.5 32t-21.5 90q3 19 11.5 37t26.5 40t52 39t80 25q52 9 164 -1q7 48 -22.5 82t-78.5 34q-35 0 -68 -19t-53 -49l-56 29q31 49 82 78.5t107 29.5
q78 0 124 -55t33 -133zM387 153l9 50q-98 10 -147 2q-34 -6 -57.5 -17t-33 -25t-12.5 -20.5t-5 -17.5q0 -10 -1.5 -22.5t16 -24t53.5 -11.5q98 0 178 86zM241 539l-40 49l207 175l145 -175l-58 -49l-105 126z" />
    <glyph glyph-name="atilde" unicode="&#xe3;" 
d="M474 259l-21 -120q-5 -29 11.5 -50t44.5 -21l-12 -68q-40 0 -69.5 21.5t-40.5 55.5q-89 -77 -195 -77q-67 0 -98.5 32t-21.5 90q3 19 11.5 37t26.5 40t52 39t80 25q52 9 164 -1q7 48 -22.5 82t-78.5 34q-35 0 -68 -19t-53 -49l-56 29q31 49 82 78.5t107 29.5
q78 0 124 -55t33 -133zM387 153l9 50q-98 10 -147 2q-34 -6 -57.5 -17t-33 -25t-12.5 -20.5t-5 -17.5q0 -10 -1.5 -22.5t16 -24t53.5 -11.5q98 0 178 86zM355 611q-3 14 -17 21t-30 0q-34 -13 -26 -65l-53 -19q-13 37 6 78t62 56q37 13 70.5 -0.5t44.5 -50.5q6 -16 18 -23
t26 -1q9 4 15 9t9 9.5t4.5 11t1.5 10.5t-1 12.5t-1 12.5l56 21q10 -44 -7 -84t-62 -55q-37 -15 -71 -1.5t-45 58.5z" />
    <glyph glyph-name="adieresis" unicode="&#xe4;" 
d="M474 259l-21 -120q-5 -29 11.5 -50t44.5 -21l-12 -68q-40 0 -69.5 21.5t-40.5 55.5q-89 -77 -195 -77q-67 0 -98.5 32t-21.5 90q3 19 11.5 37t26.5 40t52 39t80 25q52 9 164 -1q7 48 -22.5 82t-78.5 34q-35 0 -68 -19t-53 -49l-56 29q31 49 82 78.5t107 29.5
q78 0 124 -55t33 -133zM387 153l9 50q-98 10 -147 2q-34 -6 -57.5 -17t-33 -25t-12.5 -20.5t-5 -17.5q0 -10 -1.5 -22.5t16 -24t53.5 -11.5q98 0 178 86zM504 659q22 0 34.5 -15t8.5 -37q-4 -21 -21.5 -36t-39.5 -15q-21 0 -33.5 15t-8.5 36q4 22 21.5 37t38.5 15zM275 659
q22 0 34.5 -15t8.5 -37q-4 -21 -21.5 -36t-39.5 -15q-21 0 -33.5 15t-8.5 36q4 22 21.5 37t38.5 15z" />
    <glyph glyph-name="aring" unicode="&#xe5;" 
d="M474 259l-21 -120q-5 -29 11.5 -50t44.5 -21l-12 -68q-40 0 -69.5 21.5t-40.5 55.5q-89 -77 -195 -77q-67 0 -98.5 32t-21.5 90q3 19 11.5 37t26.5 40t52 39t80 25q52 9 164 -1q7 48 -22.5 82t-78.5 34q-35 0 -68 -19t-53 -49l-56 29q31 49 82 78.5t107 29.5
q78 0 124 -55t33 -133zM387 153l9 50q-98 10 -147 2q-34 -6 -57.5 -17t-33 -25t-12.5 -20.5t-5 -17.5q0 -10 -1.5 -22.5t16 -24t53.5 -11.5q98 0 178 86zM407 758q54 0 85 -38t22 -92q-10 -53 -54.5 -91t-98.5 -38q-53 0 -84.5 38t-21.5 91q9 54 54 92t98 38zM373 567
q26 0 47.5 18t25.5 43q5 26 -10.5 44t-40.5 18t-46 -18t-26 -44t10 -43.5t40 -17.5z" />
    <glyph glyph-name="ae" unicode="&#xe6;" 
d="M473 140l44 -28q-27 -52 -63.5 -82t-76.5 -30q-22 0 -38 3.5t-32 20t-22 45.5q-51 -76 -142 -69q-41 3 -61 34.5t-10 87.5q18 109 109 135q37 11 103 1q11 47 0 83.5t-44 36.5q-48 0 -75 -59l-55 20q20 45 53.5 73.5t67 34t64 -11.5t45.5 -57q23 39 50 54t63 15
q57 0 80 -56t3 -168q-3 -14 -8 -34h-187q-9 -53 6 -86.5t47 -33.5q25 0 43 17t36 54zM353 258h120q10 50 2 85t-34 35q-31 0 -55 -34t-33 -86zM141 125q-8 -47 30 -55q36 -8 67 22q20 18 25 44l9 53q-1 0 -15 1t-25 1t-27.5 -3t-28 -9.5t-22 -20.5t-13.5 -33z" />
    <glyph glyph-name="ccedilla" unicode="&#xe7;" 
d="M459 164l62 -27q-29 -47 -75.5 -81.5t-101.5 -47.5q32 -54 -5 -123q-33 -54 -91.5 -73.5t-109.5 1.5l37 65q57 -22 93 18q29 33 17 70q-10 30 -45 38q-79 14 -122 76t-29 143q16 93 96 158.5t176 65.5q71 0 123 -38t68 -99l-72 -27q-10 42 -45.5 68.5t-85.5 26.5
q-67 0 -122 -45.5t-66 -109.5t27.5 -109t105.5 -45q50 0 95 26.5t70 68.5z" />
    <glyph glyph-name="egrave" unicode="&#xe8;" 
d="M433 146l54 -34q-39 -51 -96 -81.5t-118 -30.5q-92 0 -146 65.5t-38 157.5q16 93 93.5 158.5t169.5 65.5q93 0 147 -65.5t37 -158.5q-3 -19 -9 -34h-371q2 -52 38.5 -86t90.5 -34q43 0 82.5 21t65.5 56zM168 258h301q-2 52 -38 86t-91 34q-54 0 -102.5 -34t-69.5 -86z
M405 548l-58 -49l-145 175l57 49z" />
    <glyph glyph-name="eacute" unicode="&#xe9;" 
d="M433 146l54 -34q-39 -51 -96 -81.5t-118 -30.5q-92 0 -146 65.5t-38 157.5q16 93 93.5 158.5t169.5 65.5q103 0 156 -81t19 -177h-371q2 -52 38.5 -86t90.5 -34q43 0 82.5 21t65.5 56zM168 258h301q-2 52 -38 86t-91 34q-54 0 -102.5 -34t-69.5 -86zM298 499l-40 49
l206 175l41 -49z" />
    <glyph glyph-name="ecircumflex" unicode="&#xea;" 
d="M433 146l54 -34q-39 -51 -96 -81.5t-118 -30.5q-92 0 -146 65.5t-38 157.5q16 93 93.5 158.5t169.5 65.5q93 0 147 -65.5t37 -158.5q-3 -19 -9 -34h-371q2 -52 38.5 -86t90.5 -34q43 0 82.5 21t65.5 56zM168 258h301q-2 52 -38 86t-91 34q-54 0 -102.5 -34t-69.5 -86z
M241 539l-40 49l207 175l145 -175l-58 -49l-105 126z" />
    <glyph glyph-name="edieresis" unicode="&#xeb;" 
d="M433 146l54 -34q-39 -51 -96 -81.5t-118 -30.5q-92 0 -146 65.5t-38 157.5q16 93 93.5 158.5t169.5 65.5q103 0 156 -81t19 -177h-371q2 -52 38.5 -86t90.5 -34q43 0 82.5 21t65.5 56zM168 258h301q-2 52 -38 86t-91 34q-54 0 -102.5 -34t-69.5 -86zM504 659
q22 0 34.5 -15t8.5 -37q-4 -21 -21.5 -36t-39.5 -15q-21 0 -33.5 15t-8.5 36q4 22 21.5 37t38.5 15zM275 659q22 0 34.5 -15t8.5 -37q-4 -21 -21.5 -36t-39.5 -15q-21 0 -33.5 15t-8.5 36q4 22 21.5 37t38.5 15z" />
    <glyph glyph-name="igrave" unicode="&#xec;" 
d="M387 447l-67 -378h189l-12 -69h-447l12 69h189l55 309h-141l12 69h210zM483 548l-58 -49l-145 175l57 49z" />
    <glyph glyph-name="iacute" unicode="&#xed;" 
d="M387 447l-67 -378h189l-12 -69h-447l12 69h189l55 309h-141l12 69h210zM298 499l-40 49l206 175l41 -49z" />
    <glyph glyph-name="icircumflex" unicode="&#xee;" 
d="M387 447l-67 -378h189l-12 -69h-447l12 69h189l55 309h-141l12 69h210zM241 539l-40 49l207 175l145 -175l-58 -49l-105 126z" />
    <glyph glyph-name="idieresis" unicode="&#xef;" 
d="M387 447l-67 -378h189l-12 -69h-447l12 69h189l55 309h-141l12 69h210zM504 659q22 0 34.5 -15t8.5 -37q-4 -21 -21.5 -36t-39.5 -15q-21 0 -33.5 15t-8.5 36q4 22 21.5 37t38.5 15zM275 659q22 0 34.5 -15t8.5 -37q-4 -21 -21.5 -36t-39.5 -15q-21 0 -33.5 15t-8.5 36
q4 22 21.5 37t38.5 15z" />
    <glyph glyph-name="ntilde" unicode="&#xf1;" 
d="M352 447q93 0 147 -65.5t37 -158.5l-39 -223h-69l39 223q11 65 -26 110t-101 45t-117.5 -45t-64.5 -109l-39 -224h-69l79 447h69l-11 -62q77 62 165 62zM355 611q-3 14 -17 21t-30 0q-34 -13 -26 -65l-53 -19q-13 37 6 78t62 56q37 13 70.5 -0.5t44.5 -50.5q6 -16 18 -23
t26 -1q9 4 15 9t9 9.5t4.5 11t1.5 10.5t-1 12.5t-1 12.5l56 21q10 -44 -7 -84t-62 -55q-37 -15 -71 -1.5t-45 58.5z" />
    <glyph glyph-name="ograve" unicode="&#xf2;" 
d="M352 447q93 0 147 -65.5t37 -158.5q-16 -92 -93 -157.5t-170 -65.5q-92 0 -146 65.5t-38 157.5q16 93 93.5 158.5t169.5 65.5zM285 69q64 0 117.5 45t64.5 109q11 65 -26 110t-101 45t-117.5 -45.5t-64.5 -109.5t26 -109t101 -45zM483 548l-58 -49l-145 175l57 49z" />
    <glyph glyph-name="oacute" unicode="&#xf3;" 
d="M352 447q93 0 147 -65.5t37 -158.5q-16 -92 -93 -157.5t-170 -65.5q-92 0 -146 65.5t-38 157.5q16 93 93.5 158.5t169.5 65.5zM285 69q64 0 117.5 45t64.5 109q11 65 -26 110t-101 45t-117.5 -45.5t-64.5 -109.5t26 -109t101 -45zM298 499l-40 49l206 175l41 -49z" />
    <glyph glyph-name="ocircumflex" unicode="&#xf4;" 
d="M352 447q93 0 147 -65.5t37 -158.5q-16 -92 -93 -157.5t-170 -65.5q-92 0 -146 65.5t-38 157.5q16 93 93.5 158.5t169.5 65.5zM285 69q64 0 117.5 45t64.5 109q11 65 -26 110t-101 45t-117.5 -45.5t-64.5 -109.5t26 -109t101 -45zM241 539l-40 49l207 175l145 -175
l-58 -49l-105 126z" />
    <glyph glyph-name="otilde" unicode="&#xf5;" 
d="M352 447q93 0 147 -65.5t37 -158.5q-16 -92 -93 -157.5t-170 -65.5q-92 0 -146 65.5t-38 157.5q16 93 93.5 158.5t169.5 65.5zM285 69q64 0 117.5 45t64.5 109q11 65 -26 110t-101 45t-117.5 -45.5t-64.5 -109.5t26 -109t101 -45zM354 611q-3 14 -17 21t-30 0
q-34 -13 -26 -65l-53 -19q-13 37 6 78t62 56q37 13 70.5 -0.5t44.5 -50.5q6 -16 18 -23t26 -1q9 4 15 9t9 9.5t4.5 11t1.5 10.5t-1 12.5t-1 12.5l56 21q10 -44 -7 -84t-62 -55q-37 -15 -71 -1.5t-45 58.5z" />
    <glyph glyph-name="odieresis" unicode="&#xf6;" 
d="M352 447q93 0 147 -65.5t37 -158.5q-16 -92 -93 -157.5t-170 -65.5q-92 0 -146 65.5t-38 157.5q16 93 93.5 158.5t169.5 65.5zM285 69q64 0 117.5 45t64.5 109q11 65 -26 110t-101 45t-117.5 -45.5t-64.5 -109.5t26 -109t101 -45zM504 659q22 0 34.5 -15t8.5 -37
q-4 -21 -21.5 -36t-39.5 -15q-21 0 -33.5 15t-8.5 36q4 22 21.5 37t38.5 15zM275 659q22 0 34.5 -15t8.5 -37q-4 -21 -21.5 -36t-39.5 -15q-21 0 -33.5 15t-8.5 36q4 22 21.5 37t38.5 15z" />
    <glyph glyph-name="divide" unicode="&#xf7;" 
d="M359 191q-4 -22 -21.5 -37t-39.5 -15q-21 0 -33.5 15t-8.5 37q4 21 21.5 36t38.5 15q22 0 34.5 -15t8.5 -36zM412 495q-4 -22 -21.5 -37t-39.5 -15q-21 0 -33.5 15t-8.5 37q4 21 21.5 36t38.5 15q22 0 34.5 -15t8.5 -36zM175 315l11 65h309l-11 -65h-309z" />
    <glyph glyph-name="oslash" unicode="&#xf8;" 
d="M188 18l-77 -94h-74l104 126q-70 67 -52 173q16 93 93.5 158.5t169.5 65.5q51 0 97 -24l62 76h74l-92 -111q61 -68 43 -165q-16 -92 -93 -157.5t-170 -65.5q-47 0 -85 18zM340 378q-64 0 -117.5 -45.5t-64.5 -109.5q-12 -68 31 -114l211 256q-28 13 -60 13zM285 69
q64 0 117.5 45t64.5 109q12 60 -23 106l-207 -252q24 -8 48 -8z" />
    <glyph glyph-name="ugrave" unicode="&#xf9;" 
d="M274 0q-93 0 -147 65.5t-38 158.5l40 223h69l-40 -223q-11 -64 26 -109.5t102 -45.5q64 0 117 45t64 109l40 224h69l-79 -447h-69l11 62q-77 -62 -165 -62zM483 548l-58 -49l-145 175l57 49z" />
    <glyph glyph-name="uacute" unicode="&#xfa;" 
d="M274 0q-93 0 -147 65.5t-38 158.5l40 223h69l-40 -223q-11 -64 26 -109.5t102 -45.5q64 0 117 45t64 109l40 224h69l-79 -447h-69l11 62q-77 -62 -165 -62zM298 499l-40 49l206 175l41 -49z" />
    <glyph glyph-name="ucircumflex" unicode="&#xfb;" 
d="M274 0q-93 0 -147 65.5t-38 158.5l40 223h69l-40 -223q-11 -64 26 -109.5t102 -45.5q64 0 117 45t64 109l40 224h69l-79 -447h-69l11 62q-77 -62 -165 -62zM241 539l-40 49l207 175l145 -175l-58 -49l-105 126z" />
    <glyph glyph-name="udieresis" unicode="&#xfc;" 
d="M274 0q-93 0 -147 65.5t-38 158.5l40 223h69l-40 -223q-11 -64 26 -109.5t102 -45.5q64 0 117 45t64 109l40 224h69l-79 -447h-69l11 62q-77 -62 -165 -62zM504 659q22 0 34.5 -15t8.5 -37q-4 -21 -21.5 -36t-39.5 -15q-21 0 -33.5 15t-8.5 36q4 22 21.5 37t38.5 15z
M275 659q22 0 34.5 -15t8.5 -37q-4 -21 -21.5 -36t-39.5 -15q-21 0 -33.5 15t-8.5 36q4 22 21.5 37t38.5 15z" />
    <glyph glyph-name="yacute" unicode="&#xfd;" 
d="M289 91l213 356h74l-417 -695h-73l152 252l-109 443h74zM298 499l-40 49l206 175l41 -49z" />
    <glyph glyph-name="ydieresis" unicode="&#xff;" 
d="M289 91l213 356h74l-417 -695h-73l152 252l-109 443h74zM275 659q22 0 34.5 -15t8.5 -37q-4 -21 -21.5 -36t-39.5 -15q-21 0 -33.5 15t-8.5 36q4 22 21.5 37t38.5 15zM504 659q22 0 34.5 -15t8.5 -37q-4 -21 -21.5 -36t-39.5 -15q-21 0 -33.5 15t-8.5 36q4 22 21.5 37
t38.5 15z" />
    <glyph glyph-name="Amacron" unicode="&#x100;" 
d="M497 0h-74l-16 181h-202l-80 -181h-73l310 694h69zM373 564l-139 -317h168zM268 845l11 65h309l-11 -65h-309z" />
    <glyph glyph-name="amacron" unicode="&#x101;" 
d="M474 259l-21 -120q-5 -29 11.5 -50t44.5 -21l-12 -68q-40 0 -69.5 21.5t-40.5 55.5q-89 -77 -195 -77q-67 0 -98.5 32t-21.5 90q3 19 11.5 37t26.5 40t52 39t80 25q52 9 164 -1q7 48 -22.5 82t-78.5 34q-35 0 -68 -19t-53 -49l-56 29q31 49 82 78.5t107 29.5
q78 0 124 -55t33 -133zM387 153l9 50q-98 10 -147 2q-34 -6 -57.5 -17t-33 -25t-12.5 -20.5t-5 -17.5q0 -10 -1.5 -22.5t16 -24t53.5 -11.5q98 0 178 86zM224 597l12 65h309l-12 -65h-309z" />
    <glyph glyph-name="Abreve" unicode="&#x102;" 
d="M497 0h-74l-16 181h-202l-80 -181h-73l310 694h69zM373 564l-139 -317h168zM498 926h68q-9 -53 -53.5 -91t-98.5 -38q-53 0 -84.5 38t-22.5 91h68q-4 -25 10.5 -43t40.5 -18t47 18t25 43z" />
    <glyph glyph-name="abreve" unicode="&#x103;" 
d="M474 259l-21 -120q-5 -29 11.5 -50t44.5 -21l-12 -68q-40 0 -69.5 21.5t-40.5 55.5q-89 -77 -195 -77q-67 0 -98.5 32t-21.5 90q3 19 11.5 37t26.5 40t52 39t80 25q52 9 164 -1q7 48 -22.5 82t-78.5 34q-35 0 -68 -19t-53 -49l-56 29q31 49 82 78.5t107 29.5
q78 0 124 -55t33 -133zM387 153l9 50q-98 10 -147 2q-34 -6 -57.5 -17t-33 -25t-12.5 -20.5t-5 -17.5q0 -10 -1.5 -22.5t16 -24t53.5 -11.5q98 0 178 86zM455 678h68q-10 -53 -54.5 -91t-98.5 -38q-53 0 -84.5 38t-21.5 91h68q-5 -26 10 -43.5t40 -17.5q26 0 47.5 18
t25.5 43z" />
    <glyph glyph-name="Aogonek" unicode="&#x104;" 
d="M497 0h-28q-41 -15 -55 -53.5t11 -62.5t78 -6l15 -65q-59 -21 -110 -1.5t-65 73.5q-9 46 11.5 87t64.5 68l-12 141h-202l-80 -181h-73l310 694h69zM373 564l-139 -317h168z" />
    <glyph glyph-name="aogonek" unicode="&#x105;" 
d="M474 259l-21 -120q-5 -29 11.5 -50t44.5 -21l-12 -68q-10 0 -14 1q-43 -14 -57.5 -52.5t10.5 -63.5t78 -7l15 -65q-59 -21 -110 -1.5t-65 73.5q-16 88 62 145q-21 18 -29 47q-89 -77 -195 -77q-67 0 -98.5 32t-21.5 90q3 19 11.5 37t26.5 40t52 39t80 25q52 9 164 -1
q7 48 -22.5 82t-78.5 34q-35 0 -68 -19t-53 -49l-56 29q31 49 82 78.5t107 29.5q78 0 124 -55t33 -133zM387 153l9 50q-98 10 -147 2q-34 -6 -57.5 -17t-33 -25t-12.5 -20.5t-5 -17.5q0 -10 -1.5 -22.5t16 -24t53.5 -11.5q98 0 178 86z" />
    <glyph glyph-name="Cacute" unicode="&#x106;" 
d="M284 66q64 0 117.5 43t64.5 105h69q-16 -88 -93 -151t-170 -63q-92 0 -146 62.5t-38 151.5l47 267q16 89 92 151.5t168 62.5q93 0 148 -63t39 -151h-69q10 61 -27.5 104.5t-102.5 43.5q-64 0 -116.5 -43.5t-62.5 -104.5l-47 -267q-11 -61 26 -104.5t101 -43.5zM342 747
l-41 49l207 175l41 -49z" />
    <glyph glyph-name="cacute" unicode="&#x107;" 
d="M459 164l62 -27q-37 -61 -102.5 -99t-136.5 -38q-96 0 -152.5 65.5t-40.5 157.5q16 93 96 158.5t176 65.5q71 0 123 -38t68 -99l-72 -27q-10 42 -45.5 68.5t-85.5 26.5q-67 0 -122 -45.5t-66 -109.5t27.5 -109t105.5 -45q50 0 95 26.5t70 68.5zM298 499l-40 49l206 175
l41 -49z" />
    <glyph glyph-name="Ccircumflex" unicode="&#x108;" 
d="M284 66q64 0 117.5 43t64.5 105h69q-16 -88 -93 -151t-170 -63q-92 0 -146 62.5t-38 151.5l47 267q16 89 92 151.5t168 62.5q93 0 148 -63t39 -151h-69q10 61 -27.5 104.5t-102.5 43.5q-64 0 -116.5 -43.5t-62.5 -104.5l-47 -267q-11 -61 26 -104.5t101 -43.5zM285 787
l-41 49l207 175l145 -175l-57 -49l-105 126z" />
    <glyph glyph-name="ccircumflex" unicode="&#x109;" 
d="M459 164l62 -27q-37 -61 -102.5 -99t-136.5 -38q-96 0 -152.5 65.5t-40.5 157.5q16 93 96 158.5t176 65.5q71 0 123 -38t68 -99l-72 -27q-10 42 -45.5 68.5t-85.5 26.5q-67 0 -122 -45.5t-66 -109.5t27.5 -109t105.5 -45q50 0 95 26.5t70 68.5zM241 539l-40 49l207 175
l145 -175l-58 -49l-105 126z" />
    <glyph glyph-name="Cdotaccent" unicode="&#x10a;" 
d="M284 66q64 0 117.5 43t64.5 105h69q-16 -88 -93 -151t-170 -63q-92 0 -146 62.5t-38 151.5l47 267q16 89 92 151.5t168 62.5q93 0 148 -63t39 -151h-69q10 61 -27.5 104.5t-102.5 43.5q-64 0 -116.5 -43.5t-62.5 -104.5l-47 -267q-11 -61 26 -104.5t101 -43.5zM435 917
q22 0 34.5 -15t8.5 -37q-4 -21 -21.5 -36t-39.5 -15q-21 0 -33.5 15t-8.5 36q4 22 21.5 37t38.5 15z" />
    <glyph glyph-name="cdotaccent" unicode="&#x10b;" 
d="M459 164l62 -27q-37 -61 -102.5 -99t-136.5 -38q-96 0 -152.5 65.5t-40.5 157.5q16 93 96 158.5t176 65.5q71 0 123 -38t68 -99l-72 -27q-10 42 -45.5 68.5t-85.5 26.5q-67 0 -122 -45.5t-66 -109.5t27.5 -109t105.5 -45q50 0 95 26.5t70 68.5zM391 669q22 0 34.5 -15
t8.5 -37q-4 -21 -21.5 -36t-39.5 -15q-21 0 -33.5 15t-8.5 36q4 22 21.5 37t38.5 15z" />
    <glyph glyph-name="Ccaron" unicode="&#x10c;" 
d="M284 66q64 0 117.5 43t64.5 105h69q-16 -88 -93 -151t-170 -63q-92 0 -146 62.5t-38 151.5l47 267q16 89 92 151.5t168 62.5q93 0 148 -63t39 -151h-69q10 61 -27.5 104.5t-102.5 43.5q-64 0 -116.5 -43.5t-62.5 -104.5l-47 -267q-11 -61 26 -104.5t101 -43.5zM267 962
l57 49l105 -126l149 126l41 -49l-207 -175z" />
    <glyph glyph-name="ccaron" unicode="&#x10d;" 
d="M459 164l62 -27q-37 -61 -102.5 -99t-136.5 -38q-96 0 -152.5 65.5t-40.5 157.5q16 93 96 158.5t176 65.5q71 0 123 -38t68 -99l-72 -27q-10 42 -45.5 68.5t-85.5 26.5q-67 0 -122 -45.5t-66 -109.5t27.5 -109t105.5 -45q50 0 95 26.5t70 68.5zM223 714l58 49l104 -126
l150 126l40 -49l-207 -175z" />
    <glyph glyph-name="Dcaron" unicode="&#x10e;" 
d="M173 695h165q133 0 191 -92.5t30 -252.5q-29 -161 -120 -255.5t-224 -94.5h-165zM131 66h96q101 0 170.5 78.5t91.5 203.5t-20 203t-143 78h-96zM267 962l57 49l105 -126l149 126l41 -49l-207 -175z" />
    <glyph glyph-name="Dcroat" unicode="&#x110;" 
d="M36 320l12 65h70l55 310h165q133 0 191 -92.5t30 -252.5q-29 -161 -120 -255.5t-224 -94.5h-165l56 320h-70zM131 66h96q101 0 170.5 78.5t91.5 203.5t-20 203t-143 78h-96l-43 -244h140l-12 -65h-140z" />
    <glyph glyph-name="dcroat" unicode="&#x111;" 
d="M403 537l11 65h120l17 93h69l-17 -93h120l-11 -65h-120l-95 -537h-69l11 62q-75 -62 -165 -62q-93 0 -147 65.5t-38 157.5q16 93 93.5 158.5t170.5 65.5q89 0 143 -62l27 152h-120zM286 69q64 0 117 45t64 109q12 66 -25.5 110.5t-100.5 44.5q-65 0 -118.5 -45.5
t-64.5 -109.5t26.5 -109t101.5 -45z" />
    <glyph glyph-name="Emacron" unicode="&#x112;" 
d="M50 0l123 695h447l-12 -66h-378l-44 -249h195l-11 -65h-195l-44 -249h378l-12 -66h-447zM268 845l11 65h309l-11 -65h-309z" />
    <glyph glyph-name="emacron" unicode="&#x113;" 
d="M433 146l54 -34q-39 -51 -96 -81.5t-118 -30.5q-92 0 -146 65.5t-38 157.5q16 93 93.5 158.5t169.5 65.5q103 0 156 -81t19 -177h-371q2 -52 38.5 -86t90.5 -34q43 0 82.5 21t65.5 56zM168 258h301q-2 52 -38 86t-91 34q-54 0 -102.5 -34t-69.5 -86zM224 597l12 65h309
l-12 -65h-309z" />
    <glyph glyph-name="Ebreve" unicode="&#x114;" 
d="M50 0l123 695h447l-12 -66h-378l-44 -249h195l-11 -65h-195l-44 -249h378l-12 -66h-447zM498 926h68q-9 -53 -53.5 -91t-98.5 -38q-53 0 -84.5 38t-22.5 91h68q-4 -25 10.5 -43t40.5 -18t47 18t25 43z" />
    <glyph glyph-name="ebreve" unicode="&#x115;" 
d="M433 146l54 -34q-39 -51 -96 -81.5t-118 -30.5q-92 0 -146 65.5t-38 157.5q16 93 93.5 158.5t169.5 65.5q103 0 156 -81t19 -177h-371q2 -52 38.5 -86t90.5 -34q43 0 82.5 21t65.5 56zM168 258h301q-2 52 -38 86t-91 34q-54 0 -102.5 -34t-69.5 -86zM455 678h68
q-10 -53 -54.5 -91t-98.5 -38q-53 0 -84.5 38t-21.5 91h68q-5 -26 10 -43.5t40 -17.5q26 0 47.5 18t25.5 43z" />
    <glyph glyph-name="Edotaccent" unicode="&#x116;" 
d="M50 0l123 695h447l-12 -66h-378l-44 -249h195l-11 -65h-195l-44 -249h378l-12 -66h-447zM435 917q22 0 34.5 -15t8.5 -37q-4 -21 -21.5 -36t-39.5 -15q-21 0 -33.5 15t-8.5 36q4 22 21.5 37t38.5 15z" />
    <glyph glyph-name="edotaccent" unicode="&#x117;" 
d="M433 146l54 -34q-39 -51 -96 -81.5t-118 -30.5q-92 0 -146 65.5t-38 157.5q16 93 93.5 158.5t169.5 65.5q93 0 147 -65.5t37 -158.5q-3 -19 -9 -34h-371q2 -52 38.5 -86t90.5 -34q43 0 82.5 21t65.5 56zM168 258h301q-2 52 -38 86t-91 34q-54 0 -102.5 -34t-69.5 -86z
M391 669q22 0 34.5 -15t8.5 -37q-4 -21 -21.5 -36t-39.5 -15q-21 0 -33.5 15t-8.5 36q4 22 21.5 37t38.5 15z" />
    <glyph glyph-name="Eogonek" unicode="&#x118;" 
d="M50 0l123 695h447l-12 -66h-378l-44 -249h195l-11 -65h-195l-44 -249h378l-12 -66h-82q-41 -15 -55 -53.5t11 -62.5t78 -6l15 -65q-59 -21 -110 -1.5t-65 73.5q-12 64 30 115h-269z" />
    <glyph glyph-name="eogonek" unicode="&#x119;" 
d="M433 146l54 -34q-36 -47 -88 -77.5t-108 -34.5q-42 -14 -56.5 -52.5t10.5 -63t78 -6.5l15 -65q-59 -21 -110 -1.5t-65 73.5q-14 72 40 127q-63 23 -95 80.5t-19 130.5q16 93 93.5 158.5t169.5 65.5q103 0 156 -81t19 -177h-371q2 -52 38.5 -86t90.5 -34q43 0 82.5 21
t65.5 56zM168 258h301q-2 52 -38 86t-91 34q-54 0 -102.5 -34t-69.5 -86z" />
    <glyph glyph-name="Ecaron" unicode="&#x11a;" 
d="M50 0l123 695h447l-12 -66h-378l-44 -249h195l-11 -65h-195l-44 -249h378l-12 -66h-447zM267 962l57 49l105 -126l149 126l41 -49l-207 -175z" />
    <glyph glyph-name="ecaron" unicode="&#x11b;" 
d="M433 146l54 -34q-39 -51 -96 -81.5t-118 -30.5q-92 0 -146 65.5t-38 157.5q16 93 93.5 158.5t169.5 65.5q93 0 147 -65.5t37 -158.5q-3 -19 -9 -34h-371q2 -52 38.5 -86t90.5 -34q43 0 82.5 21t65.5 56zM168 258h301q-2 52 -38 86t-91 34q-54 0 -102.5 -34t-69.5 -86z
M223 714l58 49l104 -126l150 126l40 -49l-207 -175z" />
    <glyph glyph-name="Gcircumflex" unicode="&#x11c;" 
d="M328 315l11 65h225l-29 -166q-16 -88 -93 -151t-170 -63q-92 0 -146 62.5t-38 151.5l47 267q16 89 92 151.5t168 62.5q93 0 148 -63t39 -151h-69q10 61 -27.5 104.5t-102.5 43.5q-64 0 -116.5 -43.5t-62.5 -104.5l-47 -267q-11 -61 26 -104.5t101 -43.5t117.5 43
t64.5 105l18 101h-156zM285 787l-41 49l207 175l145 -175l-57 -49l-105 126z" />
    <glyph glyph-name="gcircumflex" unicode="&#x11d;" 
d="M424 -25l15 87q-75 -62 -166 -62q-92 0 -146 65.5t-38 157.5q16 93 93.5 158.5t169.5 65.5q90 0 144 -62l11 62h69l-83 -472q-17 -92 -94 -157.5t-170 -65.5q-61 0 -106.5 30.5t-66.5 81.5l65 34q15 -35 46.5 -56t73.5 -21q65 0 118.5 45t64.5 109zM285 69q63 0 115 42.5
t66 104.5q12 69 -24.5 115.5t-101.5 46.5q-64 0 -117.5 -45.5t-64.5 -109.5t26 -109t101 -45zM241 539l-40 49l207 175l145 -175l-58 -49l-105 126z" />
    <glyph glyph-name="Gbreve" unicode="&#x11e;" 
d="M328 315l11 65h225l-29 -166q-16 -88 -93 -151t-170 -63q-92 0 -146 62.5t-38 151.5l47 267q16 89 92 151.5t168 62.5q93 0 148 -63t39 -151h-69q10 61 -27.5 104.5t-102.5 43.5q-64 0 -116.5 -43.5t-62.5 -104.5l-47 -267q-11 -61 26 -104.5t101 -43.5t117.5 43
t64.5 105l18 101h-156zM498 926h68q-9 -53 -53.5 -91t-98.5 -38q-53 0 -84.5 38t-22.5 91h68q-4 -25 10.5 -43t40.5 -18t47 18t25 43z" />
    <glyph glyph-name="gbreve" unicode="&#x11f;" 
d="M424 -25l15 87q-75 -62 -166 -62q-92 0 -146 65.5t-38 157.5q16 93 93.5 158.5t169.5 65.5q90 0 144 -62l11 62h69l-83 -472q-17 -92 -94 -157.5t-170 -65.5q-61 0 -106.5 30.5t-66.5 81.5l65 34q15 -35 46.5 -56t73.5 -21q65 0 118.5 45t64.5 109zM285 69q63 0 115 42.5
t66 104.5q12 69 -24.5 115.5t-101.5 46.5q-64 0 -117.5 -45.5t-64.5 -109.5t26 -109t101 -45zM455 678h68q-10 -53 -54.5 -91t-98.5 -38q-53 0 -84.5 38t-21.5 91h68q-5 -26 10 -43.5t40 -17.5q26 0 47.5 18t25.5 43z" />
    <glyph glyph-name="Gdotaccent" unicode="&#x120;" 
d="M328 315l11 65h225l-29 -166q-16 -88 -93 -151t-170 -63q-92 0 -146 62.5t-38 151.5l47 267q16 89 92 151.5t168 62.5q93 0 148 -63t39 -151h-69q10 61 -27.5 104.5t-102.5 43.5q-64 0 -116.5 -43.5t-62.5 -104.5l-47 -267q-11 -61 26 -104.5t101 -43.5t117.5 43
t64.5 105l18 101h-156zM435 917q22 0 34.5 -15t8.5 -37q-4 -21 -21.5 -36t-39.5 -15q-21 0 -33.5 15t-8.5 36q4 22 21.5 37t38.5 15z" />
    <glyph glyph-name="gdotaccent" unicode="&#x121;" 
d="M424 -25l15 87q-75 -62 -166 -62q-92 0 -146 65.5t-38 157.5q16 93 93.5 158.5t169.5 65.5q90 0 144 -62l11 62h69l-83 -472q-17 -92 -94 -157.5t-170 -65.5q-61 0 -106.5 30.5t-66.5 81.5l65 34q15 -35 46.5 -56t73.5 -21q65 0 118.5 45t64.5 109zM285 69q63 0 115 42.5
t66 104.5q12 69 -24.5 115.5t-101.5 46.5q-64 0 -117.5 -45.5t-64.5 -109.5t26 -109t101 -45zM391 669q22 0 34.5 -15t8.5 -37q-4 -21 -21.5 -36t-39.5 -15q-21 0 -33.5 15t-8.5 36q4 22 21.5 37t38.5 15z" />
    <glyph glyph-name="Gcommaaccent" unicode="&#x122;" 
d="M328 315l11 65h225l-29 -166q-16 -88 -93 -151t-170 -63q-92 0 -146 62.5t-38 151.5l47 267q16 89 92 151.5t168 62.5q93 0 148 -63t39 -151h-69q10 61 -27.5 104.5t-102.5 43.5q-64 0 -116.5 -43.5t-62.5 -104.5l-47 -267q-11 -61 26 -104.5t101 -43.5t117.5 43
t64.5 105l18 101h-156zM275 -283h-69l22 125q-32 12 -25 49q4 21 21.5 36t38.5 15q22 0 34.5 -15t8.5 -36z" />
    <glyph glyph-name="gcommaaccent" unicode="&#x123;" 
d="M355 757h69l-22 -125q32 -12 26 -49q-4 -21 -21.5 -36t-38.5 -15q-22 0 -34.5 15t-8.5 36zM424 -25l15 87q-75 -62 -166 -62q-92 0 -146 65.5t-38 157.5q16 93 93.5 158.5t169.5 65.5q90 0 144 -62l11 62h69l-83 -472q-17 -92 -94 -157.5t-170 -65.5q-61 0 -106.5 30.5
t-66.5 81.5l65 34q15 -35 46.5 -56t73.5 -21q65 0 118.5 45t64.5 109zM285 69q63 0 115 42.5t66 104.5q12 69 -24.5 115.5t-101.5 46.5q-64 0 -117.5 -45.5t-64.5 -109.5t26 -109t101 -45z" />
    <glyph glyph-name="Hcircumflex" unicode="&#x124;" 
d="M620 695l-123 -695h-69l56 315h-309l-56 -315h-69l123 695h69l-56 -315h309l56 315h69zM285 787l-41 49l207 175l145 -175l-57 -49l-105 126z" />
    <glyph glyph-name="hcircumflex" unicode="&#x125;" 
d="M536 223l-39 -223h-69l39 223q11 65 -26 110t-101 45q-62 0 -114.5 -43.5t-66.5 -105.5l-40 -229h-69l123 695h69l-55 -310q77 62 165 62q93 0 147 -65.5t37 -158.5zM285 787l-41 49l207 175l145 -175l-57 -49l-105 126z" />
    <glyph glyph-name="hbar" unicode="&#x127;" 
d="M25 537l11 65h120l17 93h69l-17 -93h120l-11 -65h-120l-27 -152q77 62 165 62q93 0 147 -65.5t37 -158.5l-39 -223h-69l39 223q11 65 -26 110t-101 45q-62 0 -114.5 -43.5t-66.5 -105.5l-40 -229h-69l95 537h-120z" />
    <glyph glyph-name="Itilde" unicode="&#x128;" 
d="M161 629l12 66h447l-12 -66h-191l-99 -563h191l-12 -66h-447l12 66h190l99 563h-190zM398 859q-2 14 -16 21t-30 0q-34 -13 -26 -65l-54 -19q-13 38 6.5 78.5t62.5 55.5q37 13 70.5 -0.5t44.5 -50.5q5 -16 17.5 -23.5t26.5 -0.5q9 4 15 9t9 9.5t4.5 11t1.5 10.5t-1 12.5
t-1 12.5l56 21q9 -45 -7.5 -84.5t-62.5 -54.5q-36 -15 -70.5 -1.5t-45.5 58.5z" />
    <glyph glyph-name="itilde" unicode="&#x129;" 
d="M387 447l-67 -378h189l-12 -69h-447l12 69h189l55 309h-141l12 69h210zM355 611q-3 14 -17 21t-30 0q-34 -13 -26 -65l-53 -19q-13 37 6 78t62 56q37 13 70.5 -0.5t44.5 -50.5q6 -16 18 -23t26 -1q9 4 15 9t9 9.5t4.5 11t1.5 10.5t-1 12.5t-1 12.5l56 21q10 -44 -7 -84
t-62 -55q-37 -15 -71 -1.5t-45 58.5z" />
    <glyph glyph-name="Imacron" unicode="&#x12a;" 
d="M161 629l12 66h447l-12 -66h-191l-99 -563h191l-12 -66h-447l12 66h190l99 563h-190zM268 845l11 65h309l-11 -65h-309z" />
    <glyph glyph-name="imacron" unicode="&#x12b;" 
d="M387 447l-67 -378h189l-12 -69h-447l12 69h189l55 309h-141l12 69h210zM224 597l12 65h309l-12 -65h-309z" />
    <glyph glyph-name="Ibreve" unicode="&#x12c;" 
d="M161 629l12 66h447l-12 -66h-191l-99 -563h191l-12 -66h-447l12 66h190l99 563h-190zM498 926h68q-9 -53 -53.5 -91t-98.5 -38q-53 0 -84.5 38t-22.5 91h68q-4 -25 10.5 -43t40.5 -18t47 18t25 43z" />
    <glyph glyph-name="ibreve" unicode="&#x12d;" 
d="M387 447l-67 -378h189l-12 -69h-447l12 69h189l55 309h-141l12 69h210zM455 678h68q-10 -53 -54.5 -91t-98.5 -38q-53 0 -84.5 38t-21.5 91h68q-5 -26 10 -43.5t40 -17.5q26 0 47.5 18t25.5 43z" />
    <glyph glyph-name="Iogonek" unicode="&#x12e;" 
d="M161 629l12 66h447l-12 -66h-191l-99 -563h191l-12 -66h-182q-41 -15 -55 -53.5t11 -62.5t78 -6l15 -65q-59 -21 -110 -1.5t-65 73.5q-12 64 30 115h-169l12 66h190l99 563h-190z" />
    <glyph glyph-name="iogonek" unicode="&#x12f;" 
d="M387 447l-67 -378h189l-12 -69h-190q-41 -15 -55 -53.5t11 -62.5t78 -6l15 -65q-59 -21 -110 -1.5t-65 73.5q-12 64 30 115h-161l12 69h189l55 309h-141l12 69h210zM433 614q-4 -22 -21.5 -37t-39.5 -15q-21 0 -33.5 15t-8.5 37q4 21 21.5 36t38.5 15q22 0 34.5 -15
t8.5 -36z" />
    <glyph glyph-name="Idotaccent" unicode="&#x130;" 
d="M161 629l12 66h447l-12 -66h-191l-99 -563h191l-12 -66h-447l12 66h190l99 563h-190zM435 917q22 0 34.5 -15t8.5 -37q-4 -21 -21.5 -36t-39.5 -15q-21 0 -33.5 15t-8.5 36q4 22 21.5 37t38.5 15z" />
    <glyph glyph-name="dotlessi" unicode="&#x131;" 
d="M387 447l-67 -378h189l-12 -69h-447l12 69h189l55 309h-141l12 69h210z" />
    <glyph glyph-name="Jcircumflex" unicode="&#x134;" 
d="M620 695l-85 -481q-15 -87 -97.5 -150.5t-172.5 -63.5q-72 0 -123 33t-71 84l62 33q15 -34 55.5 -59t88.5 -25q63 0 120.5 44t68.5 104l73 415h-277l12 66h346zM285 787l-41 49l207 175l145 -175l-57 -49l-105 126z" />
    <glyph glyph-name="jcircumflex" unicode="&#x135;" 
d="M214 378l12 69h321l-83 -472q-16 -93 -94 -158.5t-170 -65.5q-61 0 -107 30.5t-67 81.5l66 34q14 -35 45.5 -56t74.5 -21q64 0 117.5 45.5t65.5 109.5l71 403h-252zM241 539l-40 49l207 175l145 -175l-58 -49l-105 126z" />
    <glyph glyph-name="Kcommaaccent" unicode="&#x136;" 
d="M241 695l-56 -315h145l220 315h70l-242 -344l119 -351h-70l-106 314h-148l-55 -314h-68l123 695h68zM275 -283h-69l22 125q-32 12 -25 49q4 21 21.5 36t38.5 15q22 0 34.5 -15t8.5 -36z" />
    <glyph glyph-name="kcommaaccent" unicode="&#x137;" 
d="M576 447l-226 -158l147 -289h-78l-124 250l-151 -106l-25 -144h-69l123 695h69l-83 -469l322 221h95zM275 -283h-69l22 125q-32 12 -25 49q4 21 21.5 36t38.5 15q22 0 34.5 -15t8.5 -36z" />
    <glyph glyph-name="Lacute" unicode="&#x139;" 
d="M50 0l123 695h69l-111 -629h378l-12 -66h-447zM342 747l-41 49l207 175l41 -49z" />
    <glyph glyph-name="lacute" unicode="&#x13a;" 
d="M509 69l-12 -69h-447l12 69h189l99 560h-120l12 66h189l-111 -626h189zM342 747l-41 49l207 175l41 -49z" />
    <glyph glyph-name="Lcommaaccent" unicode="&#x13b;" 
d="M50 0l123 695h69l-111 -629h378l-12 -66h-447zM275 -283h-69l22 125q-32 12 -25 49q4 21 21.5 36t38.5 15q22 0 34.5 -15t8.5 -36z" />
    <glyph glyph-name="lcommaaccent" unicode="&#x13c;" 
d="M509 69l-12 -69h-447l12 69h189l99 560h-120l12 66h189l-111 -626h189zM275 -283h-69l22 125q-32 12 -25 49q4 21 21.5 36t38.5 15q22 0 34.5 -15t8.5 -36z" />
    <glyph glyph-name="Lcaron" unicode="&#x13d;" 
d="M509 66l-12 -66h-447l123 695h69l-111 -629h378zM78 962l57 49l105 -126l149 126l41 -49l-207 -175z" />
    <glyph glyph-name="lcaron" unicode="&#x13e;" 
d="M509 69l-12 -69h-447l12 69h189l99 560h-120l12 66h189l-111 -626h189zM585 499h-69l22 125q-32 12 -25 49q4 21 21.5 36t38.5 15q22 0 34.5 -15t8.5 -36z" />
    <glyph glyph-name="Ldot" unicode="&#x13f;" 
d="M50 0l123 695h69l-111 -629h378l-12 -66h-447zM436 434q22 0 34 -15t8 -37q-4 -21 -21.5 -36t-39.5 -15q-21 0 -33.5 15t-8.5 36q4 22 22 37t39 15z" />
    <glyph glyph-name="ldot" unicode="&#x140;" 
d="M509 69l-12 -69h-447l12 69h189l99 560h-120l12 66h189l-111 -626h189zM565 669q22 0 34.5 -15t8.5 -37q-4 -21 -21.5 -36t-39.5 -15q-21 0 -33.5 15t-8.5 36q4 22 21.5 37t38.5 15z" />
    <glyph glyph-name="Lslash" unicode="&#x141;" 
d="M50 0l35 196l-92 -48l-23 56l128 67l75 424h69l-68 -384l91 48l23 -56l-127 -67l-30 -170h378l-12 -66h-447z" />
    <glyph glyph-name="lslash" unicode="&#x142;" 
d="M182 148l-23 56l128 67l63 358h-120l12 66h189l-68 -384l91 48l23 -56l-127 -67l-30 -167h189l-12 -69h-447l12 69h189l23 127z" />
    <glyph glyph-name="Nacute" unicode="&#x143;" 
d="M551 695h69l-123 -695h-69l-209 569l-100 -569h-69l123 695h69l209 -562zM342 747l-41 49l207 175l41 -49z" />
    <glyph glyph-name="nacute" unicode="&#x144;" 
d="M352 447q93 0 147 -65.5t37 -158.5l-39 -223h-69l39 223q11 65 -26 110t-101 45t-117.5 -45t-64.5 -109l-39 -224h-69l79 447h69l-11 -62q77 62 165 62zM298 499l-40 49l206 175l41 -49z" />
    <glyph glyph-name="Ncommaaccent" unicode="&#x145;" 
d="M551 695h69l-123 -695h-69l-209 569l-100 -569h-69l123 695h69l209 -562zM275 -283h-69l22 125q-32 12 -25 49q4 21 21.5 36t38.5 15q22 0 34.5 -15t8.5 -36z" />
    <glyph glyph-name="ncommaaccent" unicode="&#x146;" 
d="M352 447q93 0 147 -65.5t37 -158.5l-39 -223h-69l39 223q11 65 -26 110t-101 45t-117.5 -45t-64.5 -109l-39 -224h-69l79 447h69l-11 -62q77 62 165 62zM275 -283h-69l22 125q-32 12 -25 49q4 21 21.5 36t38.5 15q22 0 34.5 -15t8.5 -36z" />
    <glyph glyph-name="Ncaron" unicode="&#x147;" 
d="M551 695h69l-123 -695h-69l-209 569l-100 -569h-69l123 695h69l209 -562zM267 962l57 49l105 -126l149 126l41 -49l-207 -175z" />
    <glyph glyph-name="ncaron" unicode="&#x148;" 
d="M352 447q93 0 147 -65.5t37 -158.5l-39 -223h-69l39 223q11 65 -26 110t-101 45t-117.5 -45t-64.5 -109l-39 -224h-69l79 447h69l-11 -62q77 62 165 62zM223 714l58 49l104 -126l150 126l40 -49l-207 -175z" />
    <glyph glyph-name="napostrophe" unicode="&#x149;" 
d="M352 447q93 0 147 -65.5t37 -158.5l-39 -223h-69l39 223q11 65 -26 110t-101 45t-117.5 -45t-64.5 -109l-39 -224h-69l79 447h69l-11 -62q77 62 165 62zM224 597h-69l22 125q-31 12 -25 49q4 21 21.5 36t38.5 15q22 0 34.5 -15t8.5 -36z" />
    <glyph glyph-name="Eng" unicode="&#x14a;" 
d="M620 695l-129 -729q-15 -87 -97.5 -150.5t-172.5 -63.5q-72 0 -122.5 33t-71.5 84l63 33q14 -34 54.5 -59t88.5 -25q63 0 121 44t68 104l6 34l-209 569l-100 -569h-69l123 695h69l209 -562l100 562h69z" />
    <glyph glyph-name="eng" unicode="&#x14b;" 
d="M536 223l-43 -247q-16 -93 -94 -158.5t-170 -65.5q-61 0 -107 30.5t-67 81.5l66 34q14 -35 45.5 -56t74.5 -21q64 0 118 45.5t65 109.5l44 253q8 63 -28.5 106t-99.5 43q-64 0 -117.5 -45t-64.5 -109l-39 -224h-69l79 447h69l-11 -62q77 62 165 62q93 0 147 -65.5
t37 -158.5z" />
    <glyph glyph-name="Omacron" unicode="&#x14c;" 
d="M582 481l-47 -268q-16 -88 -95 -151t-169 -63q-89 0 -144 63t-39 151l47 268q16 88 93 151t166 63q90 0 147 -63t41 -151zM466 213l47 268q10 61 -29.5 104.5t-101.5 43.5t-115 -43.5t-63 -104.5l-47 -268q-11 -61 26 -104.5t99 -43.5t117.5 43.5t66.5 104.5zM268 845
l11 65h309l-11 -65h-309z" />
    <glyph glyph-name="omacron" unicode="&#x14d;" 
d="M352 447q93 0 147 -65.5t37 -158.5q-16 -92 -93 -157.5t-170 -65.5q-92 0 -146 65.5t-38 157.5q16 93 93.5 158.5t169.5 65.5zM285 69q64 0 117.5 45t64.5 109q11 65 -26 110t-101 45t-117.5 -45.5t-64.5 -109.5t26 -109t101 -45zM224 597l12 65h309l-12 -65h-309z" />
    <glyph glyph-name="Obreve" unicode="&#x14e;" 
d="M582 481l-47 -268q-16 -88 -95 -151t-169 -63q-89 0 -144 63t-39 151l47 268q16 88 93 151t166 63q90 0 147 -63t41 -151zM466 213l47 268q10 61 -29.5 104.5t-101.5 43.5t-115 -43.5t-63 -104.5l-47 -268q-11 -61 26 -104.5t99 -43.5t117.5 43.5t66.5 104.5zM498 926h68
q-9 -53 -53.5 -91t-98.5 -38q-53 0 -84.5 38t-22.5 91h68q-4 -25 10.5 -43t40.5 -18t47 18t25 43z" />
    <glyph glyph-name="Ohungarumlaut" unicode="&#x150;" 
d="M582 481l-47 -268q-16 -88 -95 -151t-169 -63q-89 0 -144 63t-39 151l47 268q16 88 93 151t166 63q90 0 147 -63t41 -151zM466 213l47 268q10 61 -29.5 104.5t-101.5 43.5t-115 -43.5t-63 -104.5l-47 -268q-11 -61 26 -104.5t99 -43.5t117.5 43.5t66.5 104.5zM320 767
l-40 49l207 175l40 -49zM530 767l-40 49l207 175l40 -49z" />
    <glyph glyph-name="ohungarumlaut" unicode="&#x151;" 
d="M352 447q93 0 147 -65.5t37 -158.5q-16 -92 -93 -157.5t-170 -65.5q-92 0 -146 65.5t-38 157.5q16 93 93.5 158.5t169.5 65.5zM285 69q64 0 117.5 45t64.5 109q11 65 -26 110t-101 45t-117.5 -45.5t-64.5 -109.5t26 -109t101 -45zM258 529l-40 49l207 175l40 -49z
M468 529l-40 49l207 175l40 -49z" />
    <glyph glyph-name="OE" unicode="&#x152;" 
d="M88 213l47 268q16 88 94 151t167 63h224l-12 -66h-155l-44 -249h86l-11 -65h-86l-44 -246h155l-12 -69h-224q-89 0 -145 62.5t-40 150.5zM285 69l99 560q-62 0 -116 -43.5t-64 -104.5l-47 -268q-11 -61 27 -102.5t101 -41.5z" />
    <glyph glyph-name="oe" unicode="&#x153;" 
d="M466 132l43 -24q-25 -48 -62.5 -78t-70.5 -30q-73 0 -88 84q-43 -84 -118 -84q-51 0 -74 65t-7 158q17 94 64.5 159t103.5 65q34 0 53.5 -19.5t26.5 -65.5q45 85 110 85q39 0 62.5 -29t29 -71.5t2.5 -84.5t-13 -73l-186 2q-9 -52 3.5 -87t42.5 -35q43 0 78 63zM190 69
q25 0 51 44t37 110q12 67 2 111.5t-35 44.5t-50 -45.5t-37 -110.5q-11 -64 -2 -109t34 -45zM354 259h120q9 49 -4 83t-36 34t-47 -33.5t-33 -83.5z" />
    <glyph glyph-name="Racute" unicode="&#x154;" 
d="M173 695h233q87 0 139.5 -62.5t36.5 -149.5q-13 -70 -66 -126t-122 -76l103 -281h-78l-100 272h-152l-48 -272h-69zM394 629h-164l-51 -291h164q60 0 109.5 42.5t60.5 102.5q10 61 -24.5 103.5t-94.5 42.5zM342 747l-41 49l207 175l41 -49z" />
    <glyph glyph-name="racute" unicode="&#x155;" 
d="M454 378q-64 0 -117.5 -45t-64.5 -109l-27 -155h167l-12 -69h-350l12 69h114l55 309h-114l12 69h183l-11 -62q77 62 165 62q61 0 105 -29l-44 -60q-31 20 -73 20zM298 499l-40 49l206 175l41 -49z" />
    <glyph glyph-name="Rcommaaccent" unicode="&#x156;" 
d="M173 695h233q87 0 139.5 -62.5t36.5 -149.5q-13 -70 -66 -126t-122 -76l103 -281h-78l-100 272h-152l-48 -272h-69zM394 629h-164l-51 -291h164q60 0 109.5 42.5t60.5 102.5q10 61 -24.5 103.5t-94.5 42.5zM275 -283h-69l22 125q-32 12 -25 49q4 21 21.5 36t38.5 15
q22 0 34.5 -15t8.5 -36z" />
    <glyph glyph-name="rcommaaccent" unicode="&#x157;" 
d="M454 378q-64 0 -117.5 -45t-64.5 -109l-27 -155h167l-12 -69h-350l12 69h114l55 309h-114l12 69h183l-11 -62q77 62 165 62q61 0 105 -29l-44 -60q-31 20 -73 20zM275 -283h-69l22 125q-32 12 -25 49q4 21 21.5 36t38.5 15q22 0 34.5 -15t8.5 -36z" />
    <glyph glyph-name="Rcaron" unicode="&#x158;" 
d="M173 695h233q87 0 139.5 -62.5t36.5 -149.5q-13 -70 -66 -126t-122 -76l103 -281h-78l-100 272h-152l-48 -272h-69zM394 629h-164l-51 -291h164q60 0 109.5 42.5t60.5 102.5q10 61 -24.5 103.5t-94.5 42.5zM267 962l57 49l105 -126l149 126l41 -49l-207 -175z" />
    <glyph glyph-name="rcaron" unicode="&#x159;" 
d="M454 378q-64 0 -117.5 -45t-64.5 -109l-27 -155h167l-12 -69h-350l12 69h114l55 309h-114l12 69h183l-11 -62q77 62 165 62q61 0 105 -29l-44 -60q-31 20 -73 20zM223 714l58 49l104 -126l150 126l40 -49l-207 -175z" />
    <glyph glyph-name="Sacute" unicode="&#x15a;" 
d="M339 380q93 -14 149 -64.5t43 -125.5q-14 -79 -91 -134.5t-168 -55.5q-90 0 -146 56t-42 135h69q-9 -51 30 -87.5t101 -36.5q63 0 115.5 36t62.5 87q8 49 -31.5 82t-103.5 42q-91 13 -146.5 64t-41.5 126q14 79 90 135t166 56q91 0 148 -56t43 -135h-69q9 51 -31 88
t-103 37q-62 0 -114 -37t-61 -88q-9 -49 29.5 -82t101.5 -42zM342 747l-41 49l207 175l41 -49z" />
    <glyph glyph-name="sacute" unicode="&#x15b;" 
d="M318 257q112 0 161.5 -36.5t39.5 -94.5q-9 -52 -80.5 -89t-165.5 -37q-91 0 -150.5 37.5t-50.5 88.5h68q-5 -26 37 -44.5t107 -18.5t113.5 18.5t53.5 44.5q3 19 -6.5 32t-44 22t-94.5 9q-110 0 -160 36t-40 91q10 54 82.5 92.5t163.5 38.5q95 0 153 -38t48 -93h-68
q5 26 -37.5 47t-106.5 21t-113 -21t-54 -47q-3 -16 7.5 -28.5t45 -21.5t91.5 -9zM298 499l-40 49l206 175l41 -49z" />
    <glyph glyph-name="Scircumflex" unicode="&#x15c;" 
d="M339 380q93 -14 149 -64.5t43 -125.5q-14 -79 -91 -134.5t-168 -55.5q-90 0 -146 56t-42 135h69q-9 -51 30 -87.5t101 -36.5q63 0 115.5 36t62.5 87q8 49 -31.5 82t-103.5 42q-91 13 -146.5 64t-41.5 126q14 79 90 135t166 56q91 0 148 -56t43 -135h-69q9 51 -31 88
t-103 37q-62 0 -114 -37t-61 -88q-9 -49 29.5 -82t101.5 -42zM285 787l-41 49l207 175l145 -175l-57 -49l-105 126z" />
    <glyph glyph-name="scircumflex" unicode="&#x15d;" 
d="M318 257q112 0 161.5 -36.5t39.5 -94.5q-9 -52 -80.5 -89t-165.5 -37q-91 0 -150.5 37.5t-50.5 88.5h68q-5 -26 37 -44.5t107 -18.5t113.5 18.5t53.5 44.5q3 19 -6.5 32t-44 22t-94.5 9q-110 0 -160 36t-40 91q10 54 82.5 92.5t163.5 38.5q95 0 153 -38t48 -93h-68
q5 26 -37.5 47t-106.5 21t-113 -21t-54 -47q-3 -16 7.5 -28.5t45 -21.5t91.5 -9zM241 539l-40 49l207 175l145 -175l-58 -49l-105 126z" />
    <glyph glyph-name="Scedilla" unicode="&#x15e;" 
d="M339 380q93 -14 149 -64.5t43 -125.5q-11 -62 -64.5 -112t-124.5 -69q32 -52 -5 -124q-33 -54 -91.5 -73.5t-109.5 1.5l37 65q58 -22 94 19q29 34 15 70q-10 25 -37 34q-80 9 -127 63.5t-34 126.5h69q-9 -51 30 -87.5t101 -36.5q63 0 115.5 36t62.5 87q8 49 -31.5 82
t-103.5 42q-91 13 -146.5 64t-41.5 126q14 79 90 135t166 56q91 0 148 -56t43 -135h-69q9 51 -31 88t-103 37q-62 0 -114 -37t-61 -88q-9 -49 29.5 -82t101.5 -42z" />
    <glyph glyph-name="scedilla" unicode="&#x15f;" 
d="M318 257q112 0 161.5 -36.5t39.5 -94.5q-7 -41 -55.5 -74.5t-119.5 -45.5q28 -53 -7 -121q-33 -54 -91.5 -73.5t-109.5 1.5l37 65q58 -22 93 19q29 33 16 70q-9 24 -35 34q-81 5 -132 41.5t-43 83.5h68q-5 -26 37 -44.5t107 -18.5t113.5 18.5t53.5 44.5q3 19 -6.5 32
t-44 22t-94.5 9q-110 0 -160 36t-40 91q10 54 82.5 92.5t163.5 38.5q95 0 153 -38t48 -93h-68q5 26 -37.5 47t-106.5 21t-113 -21t-54 -47q-3 -16 7.5 -28.5t45 -21.5t91.5 -9z" />
    <glyph glyph-name="Scaron" unicode="&#x160;" 
d="M339 380q93 -14 149 -64.5t43 -125.5q-14 -79 -91 -134.5t-168 -55.5q-90 0 -146 56t-42 135h69q-9 -51 30 -87.5t101 -36.5q63 0 115.5 36t62.5 87q8 49 -31.5 82t-103.5 42q-91 13 -146.5 64t-41.5 126q14 79 90 135t166 56q91 0 148 -56t43 -135h-69q9 51 -31 88
t-103 37q-62 0 -114 -37t-61 -88q-9 -49 29.5 -82t101.5 -42zM267 962l57 49l105 -126l149 126l41 -49l-207 -175z" />
    <glyph glyph-name="scaron" unicode="&#x161;" 
d="M318 257q112 0 161.5 -36.5t39.5 -94.5q-9 -52 -80.5 -89t-165.5 -37q-91 0 -150.5 37.5t-50.5 88.5h68q-5 -26 37 -44.5t107 -18.5t113.5 18.5t53.5 44.5q3 19 -6.5 32t-44 22t-94.5 9q-110 0 -160 36t-40 91q10 54 82.5 92.5t163.5 38.5q95 0 153 -38t48 -93h-68
q5 26 -37.5 47t-106.5 21t-113 -21t-54 -47q-3 -16 7.5 -28.5t45 -21.5t91.5 -9zM223 714l58 49l104 -126l150 126l40 -49l-207 -175z" />
    <glyph glyph-name="Tcommaaccent" unicode="&#x162;" 
d="M161 629l12 66h447l-12 -66h-191l-111 -629h-66l111 629h-190zM275 -283h-69l22 125q-32 12 -25 49q4 21 21.5 36t38.5 15q22 0 34.5 -15t8.5 -36z" />
    <glyph glyph-name="tcommaaccent" unicode="&#x163;" 
d="M324 447h252l-12 -69h-252l-39 -218q-7 -38 15.5 -64.5t60.5 -26.5q37 0 68.5 26.5t38.5 64.5h69q-11 -66 -66.5 -113t-121.5 -47q-67 0 -105 47t-27 113l39 218h-127l12 69h127l22 127h68zM275 -283h-69l22 125q-32 12 -25 49q4 21 21.5 36t38.5 15q22 0 34.5 -15
t8.5 -36z" />
    <glyph glyph-name="Tcaron" unicode="&#x164;" 
d="M161 629l12 66h447l-12 -66h-191l-111 -629h-66l111 629h-190zM267 962l57 49l105 -126l149 126l41 -49l-207 -175z" />
    <glyph glyph-name="tcaron" unicode="&#x165;" 
d="M324 447h252l-12 -69h-252l-39 -218q-7 -38 15.5 -64.5t60.5 -26.5q37 0 68.5 26.5t38.5 64.5h69q-11 -66 -66.5 -113t-121.5 -47q-67 0 -105 47t-27 113l39 218h-127l12 69h127l22 127h68zM598 572h-69l22 125q-33 12 -25 49q3 21 21 36t39 15q22 0 34 -15t9 -36z" />
    <glyph glyph-name="Tbar" unicode="&#x166;" 
d="M172 301l12 65h121l46 263h-190l12 66h447l-12 -66h-191l-46 -263h122l-12 -65h-122l-53 -301h-66l53 301h-121z" />
    <glyph glyph-name="tbar" unicode="&#x167;" 
d="M91 235l12 65h127l14 78h-127l12 69h127l22 127h68l-22 -127h252l-12 -69h-252l-14 -78h114l-12 -65h-114l-13 -75q-7 -38 15.5 -64.5t60.5 -26.5q37 0 68.5 26.5t38.5 64.5h69q-11 -66 -66.5 -113t-121.5 -47q-67 0 -105 47t-27 113l13 75h-127z" />
    <glyph glyph-name="Utilde" unicode="&#x168;" 
d="M551 695h69l-85 -481q-16 -88 -95 -151t-169 -63q-89 0 -144 63t-39 151l85 481h69l-85 -481q-11 -61 26.5 -104.5t99.5 -43.5t117 43.5t66 104.5zM398 859q-2 14 -16 21t-30 0q-34 -13 -26 -65l-54 -19q-13 38 6.5 78.5t62.5 55.5q37 13 70.5 -0.5t44.5 -50.5
q5 -16 17.5 -23.5t26.5 -0.5q9 4 15 9t9 9.5t4.5 11t1.5 10.5t-1 12.5t-1 12.5l56 21q9 -45 -7.5 -84.5t-62.5 -54.5q-36 -15 -70.5 -1.5t-45.5 58.5z" />
    <glyph glyph-name="utilde" unicode="&#x169;" 
d="M274 0q-93 0 -147 65.5t-38 158.5l40 223h69l-40 -223q-11 -64 26 -109.5t102 -45.5q64 0 117 45t64 109l40 224h69l-79 -447h-69l11 62q-77 -62 -165 -62zM355 611q-3 14 -17 21t-30 0q-34 -13 -26 -65l-53 -19q-13 37 6 78t62 56q37 13 70.5 -0.5t44.5 -50.5
q6 -16 18 -23t26 -1q9 4 15 9t9 9.5t4.5 11t1.5 10.5t-1 12.5t-1 12.5l56 21q10 -44 -7 -84t-62 -55q-37 -15 -71 -1.5t-45 58.5z" />
    <glyph glyph-name="umacron" unicode="&#x16b;" 
d="M274 0q-93 0 -147 65.5t-38 158.5l40 223h69l-40 -223q-11 -64 26 -109.5t102 -45.5q64 0 117 45t64 109l40 224h69l-79 -447h-69l11 62q-77 -62 -165 -62zM224 597l12 65h309l-12 -65h-309z" />
    <glyph glyph-name="Ubreve" unicode="&#x16c;" 
d="M551 695h69l-85 -481q-16 -88 -95 -151t-169 -63q-89 0 -144 63t-39 151l85 481h69l-85 -481q-11 -61 26.5 -104.5t99.5 -43.5t117 43.5t66 104.5zM498 926h68q-9 -53 -53.5 -91t-98.5 -38q-53 0 -84.5 38t-22.5 91h68q-4 -25 10.5 -43t40.5 -18t47 18t25 43z" />
    <glyph glyph-name="ubreve" unicode="&#x16d;" 
d="M274 0q-93 0 -147 65.5t-38 158.5l40 223h69l-40 -223q-11 -64 26 -109.5t102 -45.5q64 0 117 45t64 109l40 224h69l-79 -447h-69l11 62q-77 -62 -165 -62zM455 678h68q-10 -53 -54.5 -91t-98.5 -38q-53 0 -84.5 38t-21.5 91h68q-5 -26 10 -43.5t40 -17.5q26 0 47.5 18
t25.5 43z" />
    <glyph glyph-name="Uring" unicode="&#x16e;" 
d="M551 695h69l-85 -481q-16 -88 -95 -151t-169 -63q-89 0 -144 63t-39 151l85 481h69l-85 -481q-11 -61 26.5 -104.5t99.5 -43.5t117 43.5t66 104.5zM450 1006q54 0 85.5 -38t21.5 -92q-9 -53 -53.5 -91t-98.5 -38q-53 0 -84.5 38t-22.5 91q10 54 54.5 92t97.5 38zM417 815
q26 0 47 18t25 43q5 26 -10.5 44t-40.5 18t-46 -18t-26 -44q-4 -25 10.5 -43t40.5 -18z" />
    <glyph glyph-name="uring" unicode="&#x16f;" 
d="M274 0q-93 0 -147 65.5t-38 158.5l40 223h69l-40 -223q-11 -64 26 -109.5t102 -45.5q64 0 117 45t64 109l40 224h69l-79 -447h-69l11 62q-77 -62 -165 -62zM407 758q54 0 85 -38t22 -92q-10 -53 -54.5 -91t-98.5 -38q-53 0 -84.5 38t-21.5 91q9 54 54 92t98 38zM373 567
q26 0 47.5 18t25.5 43q5 26 -10.5 44t-40.5 18t-46 -18t-26 -44t10 -43.5t40 -17.5z" />
    <glyph glyph-name="Uhungarumlaut" unicode="&#x170;" 
d="M551 695h69l-85 -481q-16 -88 -95 -151t-169 -63q-89 0 -144 63t-39 151l85 481h69l-85 -481q-11 -61 26.5 -104.5t99.5 -43.5t117 43.5t66 104.5zM237 747l-41 49l207 175l41 -49zM447 747l-41 49l207 175l41 -49z" />
    <glyph glyph-name="uhungarumlaut" unicode="&#x171;" 
d="M274 0q-93 0 -147 65.5t-38 158.5l40 223h69l-40 -223q-11 -64 26 -109.5t102 -45.5q64 0 117 45t64 109l40 224h69l-79 -447h-69l11 62q-77 -62 -165 -62zM268 529l-40 49l207 175l40 -49zM478 529l-40 49l207 175l40 -49z" />
    <glyph glyph-name="Uogonek" unicode="&#x172;" 
d="M551 695h69l-85 -481q-15 -82 -86.5 -143.5t-156.5 -69.5q-43 -14 -57.5 -52.5t10.5 -63.5t78 -7l15 -65q-59 -21 -110 -1.5t-65 73.5q-14 72 40 126q-62 22 -95 78t-20 125l85 481h69l-85 -481q-11 -61 26.5 -104.5t99.5 -43.5t117 43.5t66 104.5z" />
    <glyph glyph-name="uogonek" unicode="&#x173;" 
d="M507 447h69l-79 -447q-52 -11 -68 -57q-15 -40 11 -63.5t77 -5.5l14 -65q-58 -21 -109.5 -1.5t-65.5 73.5q-8 46 12.5 87.5t66.5 68.5l4 25q-77 -62 -165 -62q-93 0 -147 65.5t-38 158.5l40 223h69l-40 -223q-11 -64 26 -109.5t102 -45.5q64 0 117 45t64 109z" />
    <glyph glyph-name="Wcircumflex" unicode="&#x174;" 
d="M389 178l162 517h69l-230 -695h-57l-13 268l-119 -268h-52l24 695h69l-24 -517l85 177h66zM285 787l-41 49l207 175l145 -175l-57 -49l-105 126z" />
    <glyph glyph-name="wcircumflex" unicode="&#x175;" 
d="M361 91l142 356h73l-194 -447h-68l-8 187l-73 -187h-68l-36 447h73l16 -356l75 187h59zM241 539l-40 49l207 175l145 -175l-58 -49l-105 126z" />
    <glyph glyph-name="Ycircumflex" unicode="&#x176;" 
d="M620 695l-253 -348l-61 -347h-66l61 348l-128 347h69l105 -274l204 274h69zM285 787l-41 49l207 175l145 -175l-57 -49l-105 126z" />
    <glyph glyph-name="ycircumflex" unicode="&#x177;" 
d="M289 91l213 356h74l-417 -695h-73l152 252l-109 443h74zM241 539l-40 49l207 175l145 -175l-58 -49l-105 126z" />
    <glyph glyph-name="Ydieresis" unicode="&#x178;" 
d="M620 695l-253 -348l-61 -347h-66l61 348l-128 347h69l105 -274l204 274h69zM548 907q22 0 34.5 -15t8.5 -37q-4 -21 -21.5 -36t-39.5 -15q-21 0 -33.5 15t-8.5 36q4 22 21.5 37t38.5 15zM319 907q22 0 34.5 -15t8.5 -37q-4 -21 -21.5 -36t-39.5 -15q-21 0 -33.5 15
t-8.5 36q4 22 21.5 37t38.5 15z" />
    <glyph glyph-name="Zacute" unicode="&#x179;" 
d="M620 695l-12 -66l-467 -563h368l-12 -66h-447l12 66l467 563h-368l12 66h447zM342 747l-41 49l207 175l41 -49z" />
    <glyph glyph-name="zacute" unicode="&#x17a;" 
d="M576 447l-12 -69l-409 -309h354l-12 -69h-447l12 69l409 309h-354l12 69h447zM298 499l-40 49l206 175l41 -49z" />
    <glyph glyph-name="Zdotaccent" unicode="&#x17b;" 
d="M620 695l-12 -66l-467 -563h368l-12 -66h-447l12 66l467 563h-368l12 66h447zM435 917q22 0 34.5 -15t8.5 -37q-4 -21 -21.5 -36t-39.5 -15q-21 0 -33.5 15t-8.5 36q4 22 21.5 37t38.5 15z" />
    <glyph glyph-name="zdotaccent" unicode="&#x17c;" 
d="M576 447l-12 -69l-409 -309h354l-12 -69h-447l12 69l409 309h-354l12 69h447zM391 669q22 0 34.5 -15t8.5 -37q-4 -21 -21.5 -36t-39.5 -15q-21 0 -33.5 15t-8.5 36q4 22 21.5 37t38.5 15z" />
    <glyph glyph-name="Zcaron" unicode="&#x17d;" 
d="M620 695l-12 -66l-467 -563h368l-12 -66h-447l12 66l467 563h-368l12 66h447zM267 962l57 49l105 -126l149 126l41 -49l-207 -175z" />
    <glyph glyph-name="zcaron" unicode="&#x17e;" 
d="M576 447l-12 -69l-409 -309h354l-12 -69h-447l12 69l409 309h-354l12 69h447zM223 714l58 49l104 -126l150 126l40 -49l-207 -175z" />
    <glyph glyph-name="AEacute" unicode="&#x1fc;" 
d="M273 0l32 181h-100l-80 -181h-73l311 695h257l-12 -66h-155l-44 -249h86l-11 -65h-86l-44 -249h155l-12 -66h-224zM234 247h83l55 313zM342 747l-41 49l207 175l41 -49z" />
    <glyph glyph-name="aeacute" unicode="&#x1fd;" 
d="M473 140l44 -28q-27 -52 -63.5 -82t-76.5 -30q-22 0 -38 3.5t-32 20t-22 45.5q-51 -76 -142 -69q-41 3 -61 34.5t-10 87.5q18 109 109 135q37 11 103 1q11 47 0 83.5t-44 36.5q-48 0 -75 -59l-55 20q20 45 53.5 73.5t67 34t64 -11.5t45.5 -57q23 39 50 54t63 15
q41 0 64 -28.5t26.5 -71.5t-1 -84t-14.5 -74h-187q-9 -53 6 -86.5t47 -33.5q25 0 43 17t36 54zM353 258h120q10 50 2 85t-34 35q-31 0 -55 -34t-33 -86zM141 125q-8 -47 30 -55q36 -8 67 22q20 18 25 44l9 53q-1 0 -15 1t-25 1t-27.5 -3t-28 -9.5t-22 -20.5t-13.5 -33z
M298 499l-40 49l206 175l41 -49z" />
    <glyph glyph-name="Oslashacute" unicode="&#x1fe;" 
d="M178 21l-72 -121h-74l96 161q-56 64 -40 152l47 268q16 88 93 151t166 63q52 0 95 -24l74 124h74l-97 -163q57 -63 42 -151l-47 -268q-16 -88 -95 -151t-169 -63q-51 0 -93 22zM466 213l47 268q8 46 -14 82l-285 -481q31 -17 68 -17q62 0 117.5 43.5t66.5 104.5zM382 629
q-62 0 -115 -43.5t-63 -104.5l-47 -268q-9 -45 11 -83l286 480q-33 19 -72 19zM342 747l-41 49l207 175l41 -49z" />
    <glyph glyph-name="oslashacute" unicode="&#x1ff;" 
d="M188 18l-77 -94h-74l104 126q-70 67 -52 173q16 93 93.5 158.5t169.5 65.5q51 0 97 -24l62 76h74l-92 -111q61 -68 43 -165q-16 -92 -93 -157.5t-170 -65.5q-47 0 -85 18zM340 378q-64 0 -117.5 -45.5t-64.5 -109.5q-12 -68 31 -114l211 256q-28 13 -60 13zM285 69
q64 0 117.5 45t64.5 109q12 60 -23 106l-207 -252q24 -8 48 -8zM298 499l-40 49l206 175l41 -49z" />
    <glyph glyph-name="Scommaaccent" unicode="&#x218;" 
d="M339 380q93 -14 149 -64.5t43 -125.5q-14 -79 -91 -134.5t-168 -55.5q-90 0 -146 56t-42 135h69q-9 -51 30 -87.5t101 -36.5q63 0 115.5 36t62.5 87q8 49 -31.5 82t-103.5 42q-91 13 -146.5 64t-41.5 126q14 79 90 135t166 56q91 0 148 -56t43 -135h-69q9 51 -31 88
t-103 37q-62 0 -114 -37t-61 -88q-9 -49 29.5 -82t101.5 -42zM275 -283h-69l22 125q-32 12 -25 49q4 21 21.5 36t38.5 15q22 0 34.5 -15t8.5 -36z" />
    <glyph glyph-name="scommaaccent" unicode="&#x219;" 
d="M318 257q112 0 161.5 -36.5t39.5 -94.5q-9 -52 -80.5 -89t-165.5 -37q-91 0 -150.5 37.5t-50.5 88.5h68q-5 -26 37 -44.5t107 -18.5t113.5 18.5t53.5 44.5q3 19 -6.5 32t-44 22t-94.5 9q-110 0 -160 36t-40 91q10 54 82.5 92.5t163.5 38.5q95 0 153 -38t48 -93h-68
q5 26 -37.5 47t-106.5 21t-113 -21t-54 -47q-3 -16 7.5 -28.5t45 -21.5t91.5 -9zM275 -283h-69l22 125q-32 12 -25 49q4 21 21.5 36t38.5 15q22 0 34.5 -15t8.5 -36z" />
    <glyph glyph-name="dotlessj" unicode="&#x237;" 
d="M214 378l12 69h321l-83 -472q-16 -93 -94 -158.5t-170 -65.5q-61 0 -107 30.5t-67 81.5l66 34q14 -35 45.5 -56t74.5 -21q64 0 117.5 45.5t65.5 109.5l71 403h-252z" />
    <glyph glyph-name="circumflex" unicode="&#x2c6;" 
d="M241 539l-40 49l207 175l145 -175l-58 -49l-105 126z" />
    <glyph glyph-name="caron" unicode="&#x2c7;" 
d="M223 714l58 49l104 -126l150 126l40 -49l-207 -175z" />
    <glyph glyph-name="breve" unicode="&#x2d8;" 
d="M455 678h68q-10 -53 -54.5 -91t-98.5 -38q-53 0 -84.5 38t-21.5 91h68q-5 -26 10 -43.5t40 -17.5q26 0 47.5 18t25.5 43z" />
    <glyph glyph-name="dotaccent" unicode="&#x2d9;" 
d="M391 669q22 0 34.5 -15t8.5 -37q-4 -21 -21.5 -36t-39.5 -15q-21 0 -33.5 15t-8.5 36q4 22 21.5 37t38.5 15z" />
    <glyph glyph-name="ring" unicode="&#x2da;" 
d="M407 758q54 0 85 -38t22 -92q-10 -53 -54.5 -91t-98.5 -38q-53 0 -84.5 38t-21.5 91q9 54 54 92t98 38zM373 567q26 0 47.5 18t25.5 43q5 26 -10.5 44t-40.5 18t-46 -18t-26 -44t10 -43.5t40 -17.5z" />
    <glyph glyph-name="ogonek" unicode="&#x2db;" 
d="M253 41h69l-6 -37q-52 -11 -68 -57q-16 -41 11 -64q26 -22 76 -5l15 -65q-59 -21 -110 -1.5t-65 73.5q-9 46 12 87.5t66 68.5z" />
    <glyph glyph-name="tilde" unicode="&#x2dc;" 
d="M354 611q-3 14 -17 21t-30 0q-34 -13 -26 -65l-53 -19q-13 37 6 78t62 56q37 13 70.5 -0.5t44.5 -50.5q6 -16 18 -23t26 -1q9 4 15 9t9 9.5t4.5 11t1.5 10.5t-1 12.5t-1 12.5l56 21q10 -44 -7 -84t-62 -55q-37 -15 -71 -1.5t-45 58.5z" />
    <glyph glyph-name="hungarumlaut" unicode="&#x2dd;" 
d="M316 499l-40 49l206 175l41 -49zM526 499l-40 49l206 175l41 -49z" />
    <glyph glyph-name="Wgrave" unicode="&#x1e80;" 
d="M389 178l162 517h69l-230 -695h-57l-13 268l-119 -268h-52l24 695h69l-24 -517l85 177h66zM526 796l-57 -49l-145 175l57 49z" />
    <glyph glyph-name="wgrave" unicode="&#x1e81;" 
d="M361 91l142 356h73l-194 -447h-68l-8 187l-73 -187h-68l-36 447h73l16 -356l75 187h59zM483 548l-58 -49l-145 175l57 49z" />
    <glyph glyph-name="Wacute" unicode="&#x1e82;" 
d="M389 178l162 517h69l-230 -695h-57l-13 268l-119 -268h-52l24 695h69l-24 -517l85 177h66zM342 747l-41 49l207 175l41 -49z" />
    <glyph glyph-name="wacute" unicode="&#x1e83;" 
d="M361 91l142 356h73l-194 -447h-68l-8 187l-73 -187h-68l-36 447h73l16 -356l75 187h59zM298 499l-40 49l206 175l41 -49z" />
    <glyph glyph-name="Wdieresis" unicode="&#x1e84;" 
d="M389 178l162 517h69l-230 -695h-57l-13 268l-119 -268h-52l24 695h69l-24 -517l85 177h66zM319 907q22 0 34.5 -15t8.5 -37q-4 -21 -21.5 -36t-39.5 -15q-21 0 -33.5 15t-8.5 36q4 22 21.5 37t38.5 15zM548 907q22 0 34.5 -15t8.5 -37q-4 -21 -21.5 -36t-39.5 -15
q-21 0 -33.5 15t-8.5 36q4 22 21.5 37t38.5 15z" />
    <glyph glyph-name="wdieresis" unicode="&#x1e85;" 
d="M361 91l142 356h73l-194 -447h-68l-8 187l-73 -187h-68l-36 447h73l16 -356l75 187h59zM275 659q22 0 34.5 -15t8.5 -37q-4 -21 -21.5 -36t-39.5 -15q-21 0 -33.5 15t-8.5 36q4 22 21.5 37t38.5 15zM504 659q22 0 34.5 -15t8.5 -37q-4 -21 -21.5 -36t-39.5 -15
q-21 0 -33.5 15t-8.5 36q4 22 21.5 37t38.5 15z" />
    <glyph glyph-name="Ygrave" unicode="&#x1ef2;" 
d="M620 695l-253 -348l-61 -347h-66l61 348l-128 347h69l105 -274l204 274h69zM526 796l-57 -49l-145 175l57 49z" />
    <glyph glyph-name="ygrave" unicode="&#x1ef3;" 
d="M289 91l213 356h74l-417 -695h-73l152 252l-109 443h74zM483 548l-58 -49l-145 175l57 49z" />
    <glyph glyph-name="quoteleft" unicode="&#x2018;" 
d="M387 447h-69l44 248h69z" />
    <glyph glyph-name="quoteright" unicode="&#x2019;" 
d="M387 447h-69l44 248h69z" />
    <glyph glyph-name="quotedblleft" unicode="&#x201c;" 
d="M308 447h-69l44 248h69zM466 447h-69l44 248h69z" />
    <glyph glyph-name="quotedblright" unicode="&#x201d;" 
d="M308 447h-69l44 248h69zM466 447h-69l44 248h69z" />
    <glyph glyph-name="dagger" unicode="&#x2020;" 
d="M196 434l11 65h120l35 196h69l-35 -196h120l-11 -65h-120l-77 -434h-69l77 434h-120z" />
    <glyph glyph-name="bullet" unicode="&#x2022;" 
d="M398 256q-6 -33 -33.5 -56.5t-60.5 -23.5q-32 0 -51 23.5t-13 56.5q6 32 33.5 55t58.5 23q33 0 52.5 -23t13.5 -55z" />
    <glyph glyph-name="franc" unicode="&#x20a3;" 
d="M-44 137l12 65h118l87 493h447l-12 -66h-378l-44 -249h195l-11 -65h-195l-20 -113h122l-12 -65h-122l-24 -137h-69l24 137h-118z" />
    <glyph glyph-name="Euro" unicode="&#x20ac;" 
d="M91 234l12 65h69l17 97h-69l11 65h69l4 20q16 89 92 151.5t168 62.5q13 0 25 -1t21.5 -2.5t20 -4t17.5 -4.5t15.5 -6t12.5 -6t11.5 -6.5t9.5 -5.5t8 -5l6 -5l-40 -57q-53 37 -119 37q-64 0 -116.5 -43.5t-62.5 -104.5l-4 -20h240l-11 -65h-240l-17 -97h240l-12 -65h-240
l-3 -20q-11 -61 26 -104.5t101 -43.5q61 0 133 36l19 -54q-4 -2 -21.5 -10t-30.5 -13t-32 -11.5t-39.5 -10t-40.5 -3.5q-92 0 -146 62.5t-38 151.5l3 20h-69z" />
    <glyph glyph-name="minus" unicode="&#x2212;" 
d="M175 315l11 65h309l-11 -65h-309z" />
    <glyph glyph-name="approxequal" unicode="&#x2248;" 
d="M302 344q-8 25 -30.5 36t-49.5 0q-41 -14 -50 -62q-3 -13 2 -37l-66 -24q-8 34 -3 62q8 40 35.5 73.5t68.5 49.5q54 17 101.5 -2.5t57.5 -70.5q6 -26 29.5 -38t48.5 -2q43 15 52 64q2 7 -2 36l69 26q6 -34 2 -60q-8 -41 -37.5 -76.5t-69.5 -51.5q-55 -19 -99.5 3
t-58.5 74zM263 124q-7 25 -30 36t-50 0q-19 -7 -32.5 -24t-17.5 -38q-2 -17 2 -37l-65 -24q-9 33 -4 62q8 40 35.5 73.5t68.5 49.5q54 17 101.5 -2.5t57.5 -70.5q6 -26 29.5 -38t48.5 -2q44 16 53 64q1 7 -3 36l69 26q7 -30 2 -60q-8 -41 -37.5 -76.5t-69.5 -51.5
q-55 -19 -99 2.5t-59 74.5z" />
    <glyph glyph-name="notequal" unicode="&#x2260;" 
d="M273 156l-71 -87h-71l71 87h-55l11 65h96l53 66h-137l11 65h178l77 95h71l-77 -95h60l-11 -65h-101l-53 -66h142l-11 -65h-183z" />
    <glyph glyph-name="lessequal" unicode="&#x2264;" 
d="M125 32l11 65h197l-177 114l12 69l343 189l-14 -75l-259 -149l207 -148l-11 -65h-309z" />
    <glyph glyph-name="greaterequal" unicode="&#x2265;" 
d="M445 97l-11 -65h-309l11 65l259 148l-207 149l14 75l275 -189l-12 -69l-217 -114h197z" />
    <glyph glyph-name="commaaccent" unicode="&#xf6c3;" 
d="M275 -283h-69l22 125q-32 12 -25 49q4 21 21.5 36t38.5 15q22 0 34.5 -15t8.5 -36z" />
    <glyph glyph-name="NULL" horiz-adv-x="0" 
 />
    <glyph glyph-name="Q.alt" 
d="M582 481l-12 -69q-16 -88 -94 -151t-168 -63q-9 0 -29 2l-110 -93q55 2 97 -11q147 -54 246 -9l-11 -67q-110 -36 -202 -9q-149 55 -245 9l11 67l156 130q-55 25 -82.5 78t-15.5 117l12 69q16 88 94 151t167 63q90 0 146 -63t40 -151zM501 412l12 69q10 61 -28.5 104.5
t-100.5 43.5t-116 -43.5t-64 -104.5l-12 -69q-11 -61 27 -105t100 -44t116.5 44t65.5 105z" />
  </font>
</defs>
</svg>
