<?xml version="1.0" standalone="no"?>
<!DOCTYPE svg PUBLIC "-//W3C//DTD SVG 1.1//EN" "http://www.w3.org/Graphics/SVG/1.1/DTD/svg11.dtd" >
<svg xmlns="http://www.w3.org/2000/svg" xmlns:xlink="http://www.w3.org/1999/xlink" version="1.1">
<metadata>
Created by FontForge 20170731 at Sat Feb  6 19:25:39 2016
 By Aleksey,,,
Copyright (c) 2016 by Valerio Dell'Edera. All rights reserved.
</metadata>
<defs>
<font id="Monique-BoldObliqueRound40" horiz-adv-x="547" >
  <font-face 
    font-family="Monique Round 40"
    font-weight="400"
    font-style="oblique"
    font-stretch="normal"
    units-per-em="1000"
    panose-1="2 0 0 9 0 0 0 0 0 0"
    ascent="800"
    descent="-200"
    x-height="447"
    cap-height="695"
    bbox="-47.72 -268 1523.35 989"
    underline-thickness="50"
    underline-position="-200"
    unicode-range="U+000D-FB06"
  />
<missing-glyph 
 />
    <glyph glyph-name="ff" unicode="ff" horiz-adv-x="1094" 
d="M1059 343q-2 -17 -16 -28.5t-31 -11.5h-151q-16 0 -30 -11.5t-17 -28.5l-39 -223q-3 -17 -17 -28.5t-30 -11.5h-19q-17 0 -26.5 12t-6.5 28l39 223q3 17 -6.5 28.5t-26.5 11.5h-323q-16 0 -30 -11.5t-17 -28.5l-39 -223q-3 -17 -17 -28.5t-30 -11.5h-19q-17 0 -26.5 12
t-6.5 28l39 223q3 17 -6.5 28.5t-26.5 11.5h-37q-16 0 -25.5 11.5t-7.5 28.5l4 19q3 17 17 28.5t30 11.5h37q16 0 30 11.5t17 28.5l12 67q12 68 69 117t125 49q60 0 96.5 -41.5t38.5 -101.5q1 -19 -10.5 -30t-31.5 -11h-42q-6 0 -11.5 5.5t-5.5 11.5q0 27 -13.5 47t-38.5 20
q-27 0 -50 -19.5t-27 -46.5l-12 -67q-3 -16 6.5 -28t26.5 -12h323q16 0 30 11.5t17 28.5l12 67q12 68 69 117t125 49q60 0 96.5 -41.5t38.5 -101.5q1 -19 -10.5 -30t-31.5 -11h-42q-6 0 -11.5 5.5t-5.5 11.5q0 27 -13.5 47t-38.5 20q-27 0 -50 -19.5t-27 -46.5l-12 -67
q-3 -16 6.5 -28t26.5 -12h151q17 0 26.5 -12t6.5 -28z" />
    <glyph glyph-name="fi" unicode="fi" horiz-adv-x="1094" 
d="M851 140q-3 -16 6.5 -28t26.5 -12h93q16 0 25.5 -11.5t7.5 -28.5l-4 -20q-3 -17 -17 -28.5t-30 -11.5h-367q-17 0 -26.5 12t-6.5 28l4 20q2 16 16 28t31 12h94q16 0 30 11.5t17 28.5l21 123q3 17 -6.5 28.5t-26.5 11.5h-380q-16 0 -30 -11.5t-17 -28.5l-39 -223
q-3 -17 -17 -28.5t-30 -11.5h-19q-17 0 -26.5 12t-6.5 28l39 223q3 17 -6.5 28.5t-26.5 11.5h-37q-16 0 -25.5 11.5t-7.5 28.5l4 19q3 17 17 28.5t30 11.5h37q16 0 30 11.5t17 28.5l12 67q12 68 69 117t125 49q60 0 96.5 -41.5t38.5 -101.5q1 -19 -10.5 -30t-31.5 -11h-42
q-6 0 -11.5 5.5t-5.5 11.5q0 27 -13.5 47t-38.5 20q-27 0 -50 -19.5t-27 -46.5l-12 -67q-3 -16 6.5 -28t26.5 -12h480q17 0 26.5 -12t6.5 -28zM944 582q-5 -28 -27.5 -47t-50.5 -19q-27 0 -42.5 19.5t-10.5 46.5q4 27 26.5 46t49.5 19t43 -19t12 -46z" />
    <glyph glyph-name="ffi" unicode="ffi" horiz-adv-x="1641" 
d="M1364 140q-3 -16 6.5 -28t26.5 -12h93q16 0 25.5 -11.5t7.5 -28.5l-4 -20q-3 -17 -17 -28.5t-30 -11.5h-367q-17 0 -26.5 12t-6.5 28l4 20q2 16 16 28t31 12h94q16 0 30 11.5t17 28.5l21 123q3 17 -6.5 28.5t-26.5 11.5h-380q-16 0 -30 -11.5t-17 -28.5l-39 -223
q-3 -17 -17 -28.5t-30 -11.5h-19q-17 0 -26.5 12t-6.5 28l39 223q3 17 -6.5 28.5t-26.5 11.5h-323q-16 0 -30 -11.5t-17 -28.5l-39 -223q-3 -17 -17 -28.5t-30 -11.5h-19q-17 0 -26.5 12t-6.5 28l39 223q3 17 -6.5 28.5t-26.5 11.5h-37q-16 0 -25.5 11.5t-7.5 28.5l4 19
q3 17 17 28.5t30 11.5h37q16 0 30 11.5t17 28.5l12 67q12 68 69 117t125 49q60 0 96.5 -41.5t38.5 -101.5q1 -19 -10.5 -30t-31.5 -11h-42q-6 0 -11.5 5.5t-5.5 11.5q0 27 -13.5 47t-38.5 20q-27 0 -49.5 -19.5t-27.5 -46.5l-12 -67q-3 -16 6.5 -28t26.5 -12h323
q16 0 30 11.5t17 28.5l12 67q12 68 69 117t125 49q60 0 96.5 -41.5t38.5 -101.5q1 -19 -10.5 -30t-31.5 -11h-42q-6 0 -11.5 5.5t-5.5 11.5q0 27 -13.5 47t-38.5 20q-27 0 -49.5 -19.5t-27.5 -46.5l-12 -67q-3 -16 6.5 -28t26.5 -12h480q17 0 26.5 -12t6.5 -28zM1457 582
q-5 -28 -27.5 -47t-50.5 -19q-27 0 -42.5 20t-10.5 46t27.5 45.5t48.5 19.5q27 0 43 -19t12 -46z" />
    <glyph glyph-name="s_t" unicode="st" horiz-adv-x="1094" 
d="M1038 447q17 0 26.5 -12t6.5 -28l-4 -20q-3 -17 -17 -28.5t-30 -11.5h-151q-16 0 -30 -11.5t-17 -28.5l-25 -142q-4 -27 12 -46t43 -19q25 0 45 20t30 47q2 6 9.5 11.5t13.5 5.5h41q21 0 28.5 -11t0.5 -30q-24 -60 -75 -101.5t-111 -41.5q-68 0 -108 48.5t-28 116.5
l25 142q3 16 -6.5 28t-26.5 12h-356q-18 0 -43 -2t-55 -12t-33 -25q-6 -35 118 -35q38 0 72.5 -6t68 -20.5t50 -43.5t9.5 -69q-8 -46 -55.5 -78t-98 -44t-94.5 -12q-64 0 -125.5 31t-71.5 85q-3 20 7.5 28t33.5 8h36q4 0 13.5 -7.5t11.5 -10.5q10 -20 46 -29.5t66 -9.5
q34 0 81 9t51 30q3 18 -21.5 26.5t-62.5 10t-82.5 8t-81 16.5t-57.5 39t-13 74q6 35 34.5 63.5t67 44t76.5 23.5t70 8h356q16 0 30 11.5t17 28.5l6 37q3 17 17 28.5t30 11.5h19q17 0 26.5 -11.5t6.5 -28.5l-6 -37q-3 -16 6.5 -28t26.5 -12h151z" />
    <glyph glyph-name="c_k" unicode="ck" horiz-adv-x="1094" 
d="M732 675q17 0 26.5 -12t6.5 -28l-51 -290q-4 -27 15.5 -37.5t43.5 6.5l181 124q15 9 27 9h59q13 0 19 -8t3 -19t-14 -19l-141 -98q-14 -10 -19 -25.5t2 -28.5l101 -201q8 -16 -2.5 -32t-30.5 -16h-37q-7 0 -17 6t-13 12l-92 186q-9 17 -26 5q-13 -9 -39 -28t-39 -28
q-16 -12 -21 -31l-14 -82q-3 -17 -17 -28.5t-30 -11.5h-20q-17 0 -26.5 12t-6.5 28l94 532q0 3 -3 3h-3q-52 0 -96 -36t-53 -88q-6 -28 2 -53q1 0 3 -5l3 -5q28 -29 43 -76q7 -17 -14 -27l-57 -22q-9 -3 -20 2t-15 13q-14 31 -40.5 50t-60.5 19q-52 0 -96 -35.5t-54 -88.5
q-9 -52 23 -87.5t84 -35.5q69 0 124 69q7 8 20.5 13t20.5 2l32 -14q17 -8 18.5 -22.5t-11.5 -31.5q-43 -53 -102 -84.5t-120 -31.5q-94 0 -151 65t-41 158q16 89 91 154t164 70q12 1 35 16.5t27 27.5q30 81 102 132.5t157 51.5h66z" />
    <glyph glyph-name="f_t" unicode="ft" horiz-adv-x="1094" 
d="M1030 402q17 0 26.5 -12t6.5 -28l-4 -19q-2 -17 -16 -28.5t-31 -11.5h-151q-16 0 -30 -11.5t-17 -28.5l-17 -98q-4 -27 12 -46t43 -19q25 0 45 20t30 47q2 6 9.5 11.5t13.5 5.5h41q21 0 28.5 -11t0.5 -30q-24 -60 -75 -101.5t-111 -41.5q-68 0 -108 48.5t-28 116.5l17 98
q3 17 -6.5 28.5t-26.5 11.5h-323q-16 0 -30 -11.5t-17 -28.5l-39 -223q-3 -17 -17 -28.5t-30 -11.5h-19q-17 0 -26.5 12t-6.5 28l39 223q3 17 -6.5 28.5t-26.5 11.5h-37q-16 0 -25.5 11.5t-7.5 28.5l4 19q3 17 17 28.5t30 11.5h37q16 0 30 11.5t17 28.5l12 67q12 68 69 117
t125 49q60 0 96.5 -41.5t38.5 -101.5q1 -19 -10.5 -30t-31.5 -11h-42q-6 0 -11.5 5.5t-5.5 11.5q0 27 -13.5 47t-38.5 20q-27 0 -50 -19.5t-27 -46.5l-12 -67q-3 -16 6.5 -28t26.5 -12h323q16 0 30 11.5t17 28.5l14 82q3 17 17 28.5t30 11.5h19q17 0 26.5 -11.5t6.5 -28.5
l-14 -82q-3 -16 6.5 -28t26.5 -12h151z" />
    <glyph glyph-name=".notdef" 
 />
    <glyph glyph-name=".null" horiz-adv-x="0" 
 />
    <glyph glyph-name="nonmarkingreturn" horiz-adv-x="333" 
 />
    <glyph glyph-name="CR" unicode="&#xd;" 
 />
    <glyph glyph-name="CR" 
 />
    <glyph glyph-name="space" unicode=" " 
 />
    <glyph glyph-name="exclam" unicode="!" 
d="M330 655q3 17 17 28.5t31 11.5h21q16 0 25.5 -11.5t6.5 -28.5l-71 -406q-3 -17 -17 -28.5t-30 -11.5h-21q-17 0 -26.5 12t-6.5 28zM346 68q-5 -28 -28.5 -48t-51.5 -20t-44.5 20t-11.5 48t29 47.5t51 19.5t44 -20t12 -47z" />
    <glyph glyph-name="quotedbl" unicode="&#x22;" 
d="M255 423q-17 0 -26.5 12t-6.5 28l33 192q3 17 17 28.5t31 11.5h23q16 0 25.5 -11.5t6.5 -28.5l-33 -192q-3 -17 -17 -28.5t-30 -11.5h-23zM404 423q-17 0 -26.5 12t-6.5 28l33 192q3 17 17 28.5t31 11.5h23q16 0 25.5 -11.5t6.5 -28.5l-33 -192q-3 -17 -17 -28.5
t-30 -11.5h-23z" />
    <glyph glyph-name="numbersign" unicode="#" 
d="M247 120q5 10 0.5 18.5t-15.5 8.5t-23.5 -8t-17.5 -19l-43 -91q-5 -11 -18 -20t-25 -9h-22q-21 0 -30 15t0 35l37 80q3 7 0 12t-10 5q-8 0 -12 5.5t-3 12.5l9 50q2 13 13.5 22.5t24.5 9.5h3q12 0 24.5 7.5t17.5 18.5q9 18 18.5 38.5t21 45.5t17.5 39q5 10 1 18.5t-14 8.5
q-11 0 -16.5 7.5t-4.5 18.5l6 34q3 17 17 28.5t30 11.5h10q12 0 25.5 9.5t18.5 20.5q9 19 26.5 56.5t26.5 55.5q5 11 18.5 20.5t25.5 9.5h25q21 0 30 -15.5t-1 -35.5l-44 -93q-5 -11 0 -19.5t16 -8.5q12 0 24.5 8.5t17.5 19.5l54 115q5 11 18.5 20t25.5 9h22
q21 0 29.5 -15.5t-0.5 -34.5l-47 -101q-4 -8 0 -14.5t12 -6.5q9 0 14.5 -6.5t3.5 -15.5l-7 -41q-3 -16 -15.5 -26.5t-27.5 -10.5h-6q-12 0 -25 -8t-18 -19q-10 -20 -29 -61t-28 -61q-5 -11 0 -19t17 -8t19 -8.5t5 -20.5l-5 -31q-3 -17 -17 -28.5t-30 -11.5h-18q-12 0 -25 -9
t-18 -20l-42 -89q-5 -11 -18 -20t-25 -9h-26q-21 0 -30 15.5t1 35.5zM264 275q-5 -11 -0.5 -19.5t16.5 -8.5q11 0 23.5 8t17.5 18q58 122 59 124q5 11 0 18.5t-16 7.5q-12 0 -25 -8.5t-18 -19.5z" />
    <glyph glyph-name="dollar" unicode="$" 
d="M347 750q3 17 17 28.5t30 11.5h21q17 0 26.5 -12t6.5 -28l-5 -28q-2 -11 5 -24t17 -17q53 -20 85 -64.5t33 -101.5q1 -19 -11 -28.5t-32 -9.5h-39q-7 0 -14.5 8.5t-7.5 16.5q-3 46 -39 73q-8 5 -15.5 1.5t-9.5 -14.5l-25 -144q-2 -11 4 -23t16 -16q63 -24 97.5 -69.5
t23.5 -110.5q-11 -63 -61 -112.5t-117 -71.5q-12 -4 -26 -18t-16 -25l-5 -27q-3 -17 -17 -28.5t-30 -11.5h-21q-17 0 -26.5 12t-6.5 28l5 27q2 11 -5 24t-18 17q-53 20 -84 64.5t-32 102.5q0 38 43 38h39q8 0 15 -8.5t8 -16.5q2 -47 38 -72q8 -6 15.5 -2t9.5 15l24 141
q2 11 -4 23t-16 16q-63 23 -97 69t-23 112q11 62 61.5 112t116.5 73q11 4 25.5 18t15.5 24zM226 495q-8 -50 43 -77q7 -4 13.5 -0.5t8.5 11.5l24 136q1 9 -4.5 13t-13.5 -1q-61 -29 -71 -82zM428 199q8 49 -44 77q-7 4 -13 0t-8 -12l-24 -133q-1 -9 4.5 -12.5t13.5 0.5
q63 29 71 80z" />
    <glyph glyph-name="percent" unicode="%" 
d="M161 83q-5 -6 -17 -12t-19 -6h-37q-19 0 -25 15.5t8 32.5l421 495q5 6 17.5 12t19.5 6h36q20 0 25.5 -16t-8.5 -32zM195 472q-32 0 -50 22.5t-12 53.5q5 32 31 55t58 23t51 -23t14 -55q-6 -32 -33 -54t-59 -22zM430 65q-32 0 -50.5 22.5t-12.5 54.5q5 31 32 54t59 23
q31 0 49.5 -22.5t13.5 -54.5q-5 -31 -32 -54t-59 -23z" />
    <glyph glyph-name="ampersand" unicode="&#x26;" 
d="M396 16q1 6 -3 8.5t-10 0.5q-62 -25 -116 -25q-90 0 -150.5 56t-45.5 143q13 72 78 129q7 6 10 20t-2 20q-46 57 -34 128q16 87 97 143t170 56q82 0 137.5 -51t55.5 -130q1 -18 -11 -27t-32 -9h-29q-9 0 -20 11.5t-13 21.5q-6 37 -35.5 60.5t-70.5 23.5q-47 0 -92.5 -27
t-53.5 -72q-7 -42 27.5 -70.5t78.5 -28.5h194q17 0 26.5 -12t6.5 -28l-56 -317q-3 -17 -17 -28.5t-30 -11.5h-47q-7 0 -10.5 4.5t-2.5 11.5zM285 100q47 0 91 27t52 72l10 59q3 17 -6.5 28.5t-25.5 11.5h-86q-48 0 -93 -26.5t-53 -72.5t27.5 -72.5t83.5 -26.5z" />
    <glyph glyph-name="quotesingle" unicode="'" 
d="M330 423q-17 0 -26.5 12t-6.5 28l33 192q3 17 17 28.5t31 11.5h23q16 0 25.5 -11.5t6.5 -28.5l-33 -192q-3 -17 -17 -28.5t-30 -11.5h-23z" />
    <glyph glyph-name="parenleft" unicode="(" 
d="M545 780q9 -11 5 -30t-17 -31q-168 -162 -205 -367q-36 -204 77 -369q9 -13 5.5 -32t-17.5 -29l-18 -14q-14 -11 -30 -10t-25 14q-66 92 -92 205.5t-5 234.5t87.5 234.5t165.5 205.5q13 13 29.5 13.5t26.5 -10.5z" />
    <glyph glyph-name="parenright" unicode=")" 
d="M281 795q14 11 30 10.5t25 -13.5q66 -92 92 -206t5 -234q-44 -246 -252 -440q-14 -13 -30 -14t-26 10l-14 14q-10 11 -7 29.5t17 31.5q81 78 135 173.5t72 195.5q37 205 -76 367q-9 12 -6 31.5t16 29.5z" />
    <glyph glyph-name="asterisk" unicode="*" 
d="M150 278q3 17 17 28.5t30 11.5h35q16 0 30 11.5t17 28.5l5 26q3 17 17 28.5t30 11.5h20q17 0 26.5 -12t6.5 -28l-5 -26q-3 -16 6.5 -28t26.5 -12h35q17 0 26.5 -12t6.5 -28l-4 -21q-2 -16 -15.5 -27.5t-30.5 -11.5q-14 0 -22.5 -11t-3.5 -23l6 -19q5 -14 -2 -30.5
t-23 -23.5l-16 -8q-15 -8 -30 -3.5t-21 18.5l-15 37q-2 5 -7.5 5t-10.5 -5l-42 -57q-11 -14 -24 -7l-33 20q-13 8 -14.5 24t8.5 30l13 19q9 12 4 23t-19 11q-16 0 -25 11.5t-7 27.5z" />
    <glyph glyph-name="plus" unicode="+" 
d="M148 268q3 17 17 28.5t30 11.5h35q16 0 30 11.5t17 28.5l7 36q3 17 17 28.5t30 11.5h20q17 0 26.5 -12t6.5 -28l-7 -36q-3 -16 6.5 -28t26.5 -12h35q17 0 26.5 -12t6.5 -28l-3 -19q-3 -17 -17 -28.5t-30 -11.5h-35q-16 0 -30 -11.5t-17 -28.5l-6 -35q-3 -17 -17 -28.5
t-30 -11.5h-20q-17 0 -26.5 11.5t-6.5 28.5l6 35q3 16 -6.5 28t-26.5 12h-35q-17 0 -26.5 12t-6.5 28z" />
    <glyph glyph-name="comma" unicode="," 
d="M234 -115q-17 0 -26.5 12t-6.5 28l12 72q2 10 -6 18q-20 20 -13 53q5 28 28 47.5t51 19.5t44.5 -19.5t11.5 -47.5l-25 -143q-3 -17 -17 -28.5t-30 -11.5h-23z" />
    <glyph glyph-name="hyphen" unicode="-" 
d="M148 268q3 17 17 28.5t30 11.5h250q17 0 26.5 -12t6.5 -28l-3 -19q-3 -17 -17 -28.5t-30 -11.5h-250q-17 0 -26.5 12t-6.5 28z" />
    <glyph glyph-name="period" unicode="." 
d="M346 68q-5 -28 -28.5 -48t-51.5 -20t-44.5 20t-11.5 48t29 47.5t51 19.5t44 -20t12 -47z" />
    <glyph glyph-name="slash" unicode="/" 
d="M135 -70q-6 -10 -18.5 -17.5t-22.5 -7.5h-29q-22 0 -29.5 15.5t4.5 35.5l480 809q5 10 17.5 17.5t23.5 7.5h29q21 0 28.5 -16t-3.5 -35z" />
    <glyph glyph-name="zero" unicode="0" 
d="M389 695q46 0 81.5 -23.5t54 -61t30 -84.5t9.5 -92.5t-7 -86.5q-9 -52 -33 -110t-60 -112.5t-88.5 -90t-109.5 -35.5q-46 0 -82 23.5t-54.5 61t-30 84.5t-9.5 92.5t7 86.5q9 52 33 110t60 112.5t89 90t110 35.5zM283 98q35 0 66.5 28t52 70.5t34 81t18.5 69.5
q6 31 6.5 69.5t-5.5 80.5t-27.5 70t-56.5 28q-34 0 -65.5 -28t-52 -70.5t-34 -80.5t-19.5 -69q-4 -40 -5.5 -95.5t21.5 -104.5t67 -49z" />
    <glyph glyph-name="one" unicode="1" 
d="M503 40q-3 -17 -17 -28.5t-30 -11.5h-380q-17 0 -26.5 12t-6.5 28l4 23q3 17 17 28.5t30 11.5h99q16 0 30 11.5t17 28.5l73 412q3 16 -6.5 28t-26.5 12h-34q-17 0 -26.5 12t-6.5 28l3 20q3 17 17 28.5t31 11.5h137q16 0 25.5 -11.5t6.5 -28.5l-90 -512q-3 -16 6.5 -28
t26.5 -12h98q17 0 26.5 -12t6.5 -28z" />
    <glyph glyph-name="two" unicode="2" 
d="M386 695q95 0 152.5 -63.5t41.5 -157.5q-10 -59 -45.5 -103t-84 -71.5t-97.5 -49t-97.5 -48.5t-73.5 -58q-16 -22 -9.5 -33t32.5 -11h269q16 0 25.5 -11.5t7.5 -28.5l-4 -20q-3 -17 -17 -28.5t-30 -11.5h-380q-17 0 -26.5 12t-6.5 28l7 41q13 73 59 124t103.5 78.5
t114 51t99.5 57.5t51 82q9 53 -23.5 87t-85.5 34q-74 0 -129 -53q-7 -7 -21 -10t-21 1l-25 16q-35 21 -3 53q44 43 102 68t115 25z" />
    <glyph glyph-name="three" unicode="3" 
d="M389 695q89 0 149.5 -56t44.5 -143q-11 -70 -78 -128q-7 -6 -9 -20t3 -20q45 -55 32 -129q-15 -87 -95 -143t-170 -56q-83 0 -139 51t-56 130q0 36 43 36h29q9 0 20.5 -12t13.5 -22q5 -37 35.5 -60t71.5 -23q48 0 92 27t52 72q7 37 -12 60.5t-51.5 30t-71 9.5t-71.5 0
q-16 -1 -26 9.5t-7 25.5l5 28q2 15 12.5 25t24.5 9q31 -4 72 -1t77.5 10t65 30.5t34.5 60.5q8 45 -27 72t-82 27q-41 0 -79 -23t-57 -60q-6 -10 -21.5 -22t-24.5 -12h-29q-43 0 -30 36q27 78 102 129.5t157 51.5z" />
    <glyph glyph-name="four" unicode="4" 
d="M529 188q-3 -17 -17 -28.5t-30 -11.5h-21q-16 0 -30 -11.5t-17 -28.5l-12 -68q-3 -17 -17 -28.5t-30 -11.5h-23q-17 0 -26.5 12t-6.5 28l12 68q3 16 -6.5 28t-26.5 12h-176q-17 0 -26.5 12t-6.5 28l6 35q5 17 9 20l324 432q6 7 18.5 13.5t20.5 6.5h31q16 0 25.5 -11.5
t6.5 -28.5l-64 -367q-3 -16 6.5 -28t26.5 -12h21q17 0 26.5 -12t6.5 -28zM296 248q16 0 30 11.5t17 28.5l27 152q2 10 -6 13.5t-14 -4.5q-20 -27 -61 -79t-61 -79q-11 -14 -6.5 -28.5t20.5 -14.5h54z" />
    <glyph glyph-name="five" unicode="5" 
d="M534 213q-16 -90 -95.5 -151.5t-170.5 -61.5q-83 0 -139 56.5t-55 138.5q0 37 43 37h28q10 0 21 -12.5t13 -23.5q5 -41 34.5 -68.5t72.5 -27.5q49 0 92.5 32t52.5 81q8 48 -22 80t-78 32h-198q-17 0 -26.5 12t-6.5 28l51 290q3 17 17 28.5t31 11.5h380q16 0 25.5 -11.5
t6.5 -28.5l-3 -20q-3 -17 -17 -28.5t-30 -11.5h-277q-16 0 -30 -11.5t-17 -28.5l-16 -89q-3 -16 6.5 -28t26.5 -12h95q90 0 145.5 -62t39.5 -151z" />
    <glyph glyph-name="six" unicode="6" 
d="M91 311q13 74 37 137.5t63.5 121.5t101.5 91.5t140 33.5q72 0 132 -39q20 -12 1 -35l-32 -42q-10 -13 -24 -8q-54 24 -92 24q-70 0 -121.5 -47t-76.5 -119q-3 -7 2 -11t13 -1q55 23 109 23q95 0 151.5 -62.5t39.5 -156.5q-16 -91 -96 -156t-172 -65q-62 0 -104.5 28
t-58.5 72.5t-21 100t8 110.5zM321 337q-49 0 -87.5 -37.5t-47.5 -86.5q-8 -45 23.5 -77t76.5 -32q49 0 93 33.5t53 81.5q9 56 -23 87t-88 31z" />
    <glyph glyph-name="seven" unicode="7" 
d="M605 617q0 -4 -5 -14l-320 -577q-5 -10 -18 -18t-24 -8h-24q-21 0 -29 15t3 34l272 492q11 21 2.5 37.5t-30.5 16.5h-251q-17 0 -26.5 12t-6.5 28l3 20q3 17 17 28.5t31 11.5h380q16 0 25.5 -11.5t6.5 -28.5z" />
    <glyph glyph-name="eight" unicode="8" 
d="M583 496q-12 -73 -76 -129q-7 -6 -10 -20t2 -20q45 -55 32 -127q-15 -88 -94.5 -144t-169.5 -56t-150.5 56t-45.5 144q14 75 75 127q7 7 9.5 20.5t-2.5 19.5q-42 53 -30 129q16 87 96.5 143t170.5 56t149.5 -55.5t43.5 -143.5zM226 496q-8 -45 28 -72t83 -27t91 27t52 72
t-26.5 72t-81.5 27t-92.5 -27t-53.5 -72zM285 100q47 0 91 27.5t52 72.5q8 44 -27 71t-81 27q-47 0 -92.5 -26.5t-53.5 -71.5t27.5 -72.5t83.5 -27.5z" />
    <glyph glyph-name="nine" unicode="9" 
d="M564 384q-13 -74 -37 -137.5t-63.5 -121.5t-101.5 -91.5t-140 -33.5q-73 0 -133 39q-18 12 -1 35l32 42q11 13 25 8q54 -24 92 -24q70 0 121.5 47t76.5 119q2 7 -3 11t-12 1q-55 -23 -109 -23q-95 0 -151.5 62.5t-39.5 156.5q16 91 96 156t172 65q62 0 104 -28
t58.5 -72.5t21 -100t-7.5 -110.5zM333 358q50 0 88.5 37t47.5 87q8 45 -24 77t-77 32q-49 0 -92.5 -33.5t-52.5 -81.5q-10 -56 21.5 -87t88.5 -31z" />
    <glyph glyph-name="colon" unicode=":" 
d="M349 87q-4 -28 -28 -48t-52 -20t-44.5 20t-11.5 48t29 47.5t51 19.5t44 -20t12 -47zM400 374q-5 -28 -28.5 -48t-51.5 -20t-44.5 20t-11.5 48q4 28 28 48t52 20t44.5 -20t11.5 -48z" />
    <glyph glyph-name="semicolon" unicode=";" 
d="M400 374q-5 -28 -28.5 -48t-51.5 -20t-44.5 20t-11.5 48q4 28 28 48t52 20t44.5 -20t11.5 -48zM254 -96q-17 0 -26.5 12t-6.5 28l13 70q0 13 -8 21q-18 19 -13 52q5 28 29 47.5t51 19.5t44 -20t12 -47l-25 -143q-3 -17 -17 -28.5t-30 -11.5h-23z" />
    <glyph glyph-name="less" unicode="&#x3c;" 
d="M502 403q-1 -7 -9 -18t-15 -16l-147 -84q-22 -13 -25.5 -34t13.5 -34l117 -84q6 -4 10 -15t2 -19l-6 -35q-3 -20 -20.5 -29t-32.5 2l-234 159q-6 5 -10 16t-3 18l7 42q2 8 10 19t15 15l290 159q20 11 34 2t10 -29z" />
    <glyph glyph-name="equal" unicode="=" 
d="M159 331q3 17 17 28.5t30 11.5h250q17 0 26.5 -12t6.5 -28l-3 -20q-3 -17 -17 -28.5t-30 -11.5h-250q-17 0 -26.5 12t-6.5 28zM137 207q3 17 17 28.5t31 11.5h250q16 0 25.5 -11.5t6.5 -28.5l-3 -19q-3 -17 -17 -28.5t-30 -11.5h-250q-17 0 -26.5 12t-6.5 28z" />
    <glyph glyph-name="greater" unicode="&#x3e;" 
d="M178 438q4 20 21 29t33 -2l234 -159q6 -5 10 -16t3 -18l-7 -42q-1 -7 -9.5 -18t-16.5 -16l-290 -159q-19 -11 -33 -2t-11 29l6 35q2 8 10 19t15 15l147 84q22 13 25.5 34t-13.5 34l-117 84q-6 5 -10 16t-3 18z" />
    <glyph glyph-name="question" unicode="?" 
d="M286 171q-19 0 -27.5 11t-2.5 29q13 41 38 68t74 59q50 30 75 59t34 77q9 53 -23.5 87t-85.5 34q-72 0 -134 -65q-7 -7 -18.5 -9t-19.5 2l-26 17q-33 21 -3 53q46 46 104.5 74t114.5 28q95 0 152.5 -63.5t41.5 -157.5q-11 -60 -41.5 -105.5t-62 -67t-66.5 -47.5t-50 -48
q-6 -9 -25.5 -22t-28.5 -13h-20zM346 68q-5 -28 -28.5 -48t-51.5 -20t-44.5 20t-11.5 48t29 47.5t51 19.5t44 -20t12 -47z" />
    <glyph glyph-name="at" unicode="@" 
d="M245 190q3 -1 6 1.5t2 5.5v6.5v6.5t-0.5 5.5t-1 5.5t-2.5 4t-4.5 3t-6.5 2t-9 1q-11 0 -22 -8q-3 -3 -8 -3l-64 -7q-11 0 -20 3l-5 3q-15 7 -5 22q27 36 64.5 58.5t75.5 22.5q57 0 91.5 -41t24.5 -98q-1 -4 -4.5 -18.5t-6 -28t-3.5 -27.5t2.5 -22.5t12.5 -8.5
q23 0 38 23.5t20 50.5q14 82 -36.5 144.5t-132.5 62.5q-60 0 -141 -51q-7 -4 -13.5 0t-4.5 12l14 77q4 25 28 34q71 29 135 29q127 0 201.5 -90.5t52.5 -217.5q-13 -69 -63.5 -118.5t-117.5 -49.5q-45 0 -78 35q-10 10 -23 4q-45 -24 -82 -24q-49 0 -75.5 24.5t-17.5 72.5
q9 50 45 74.5t87 24.5q28 0 47 -5zM247 125q0 4 -4 4q-6 1 -18 1q-48 0 -53 -27q0 -4 2 -6t5 -3t7 -1q34 0 56 22q5 5 5 9v1z" />
    <glyph glyph-name="A" unicode="A" 
d="M424 0q-13 0 -22.5 9t-11.5 21l-9 111q-2 12 -11.5 21t-22.5 9h-101q-12 0 -25.5 -9t-18.5 -21l-49 -111q-5 -12 -18 -21t-26 -9h-25q-21 0 -29.5 15t0.5 35l274 614q5 12 18.5 21t25.5 9h33q12 0 22 -9t11 -21l58 -614q2 -20 -12 -35t-35 -15h-26zM282 321q-9 -20 0 -35
t30 -15h21q14 0 24 11.5t9 25.5q-2 23 -5.5 68t-5.5 67q-1 8 -8.5 8.5t-10.5 -6.5z" />
    <glyph glyph-name="B" unicode="B" 
d="M151 655q3 17 17 28.5t31 11.5h200q87 0 143 -56.5t41 -142.5q-12 -72 -73 -128q-7 -7 -9.5 -21t2.5 -20q41 -58 28 -128q-15 -86 -91.5 -142.5t-163.5 -56.5h-200q-17 0 -26.5 12t-6.5 28zM428 199q8 44 -23 71.5t-76 27.5h-97q-17 0 -31 -11.5t-17 -28.5l-20 -118
q-3 -16 6.5 -28t26.5 -12h97q45 0 85.5 27.5t48.5 71.5zM480 496q8 44 -23 71.5t-76 27.5h-97q-16 0 -30 -11.5t-17 -28.5l-21 -118q-3 -16 6.5 -28t26.5 -12h97q45 0 86 28t48 71z" />
    <glyph glyph-name="C" unicode="C" 
d="M283 100q45 0 83.5 29.5t57.5 73.5q5 11 20.5 24t26.5 13h27q43 0 31 -38q-28 -85 -102.5 -143.5t-161.5 -58.5q-93 0 -149.5 64t-40.5 157l45 253q16 93 95.5 157t172.5 64q86 0 140 -58.5t52 -143.5q-2 -38 -44 -38h-27q-11 0 -22 13t-12 24q-3 44 -31.5 73.5
t-73.5 29.5q-51 0 -94.5 -35t-52.5 -86l-45 -253q-9 -51 22.5 -86t82.5 -35z" />
    <glyph glyph-name="D" unicode="D" 
d="M334 695q59 0 104 -18.5t71.5 -50.5t42 -76t15 -94.5t-8.5 -105.5q-12 -71 -39.5 -132t-69 -111t-103 -78.5t-135.5 -28.5h-135q-17 0 -26.5 12t-6.5 28l108 615q3 17 17 28.5t31 11.5h135zM229 100q49 0 89.5 22t67 59t43.5 79t25 88q10 43 6 87t-16.5 79.5t-46 58
t-81.5 22.5h-36q-15 0 -27.5 -10.5t-14.5 -25.5l-75 -423q-3 -15 6 -25.5t24 -10.5h36z" />
    <glyph glyph-name="E" unicode="E" 
d="M151 655q3 17 17 28.5t31 11.5h380q16 0 25.5 -11.5t6.5 -28.5l-3 -20q-3 -17 -17 -28.5t-30 -11.5h-277q-16 0 -30 -11.5t-17 -28.5l-21 -118q-3 -16 6.5 -28t26.5 -12h104q17 0 26.5 -12t6.5 -28l-3 -19q-3 -17 -17 -28.5t-30 -11.5h-104q-17 0 -31 -11.5t-17 -28.5
l-20 -118q-3 -16 6.5 -28t26.5 -12h277q16 0 25.5 -11.5t7.5 -28.5l-4 -20q-3 -17 -17 -28.5t-30 -11.5h-380q-17 0 -26.5 12t-6.5 28z" />
    <glyph glyph-name="F" unicode="F" 
d="M151 655q3 17 17 28.5t31 11.5h380q16 0 25.5 -11.5t6.5 -28.5l-3 -20q-3 -17 -17 -28.5t-30 -11.5h-277q-16 0 -30 -11.5t-17 -28.5l-21 -118q-3 -16 6.5 -28t26.5 -12h104q17 0 26.5 -12t6.5 -28l-3 -19q-3 -17 -17 -28.5t-30 -11.5h-104q-17 0 -31 -11.5t-17 -28.5
l-38 -218q-3 -17 -17 -28.5t-30 -11.5h-23q-17 0 -26.5 12t-6.5 28z" />
    <glyph glyph-name="G" unicode="G" 
d="M309 357q3 17 17 28.5t30 11.5h170q17 0 26.5 -12t6.5 -28l-24 -136q-16 -93 -96 -157t-174 -64q-93 0 -149.5 64t-40.5 157l45 253q16 93 95.5 157t172.5 64q86 0 140 -58.5t52 -143.5q-2 -38 -44 -38h-27q-11 0 -22 13t-12 24q-3 44 -31.5 73.5t-73.5 29.5
q-51 0 -94.5 -35t-52.5 -86l-45 -253q-9 -51 22.5 -86t82.5 -35q52 0 96 35t53 86l7 39q3 16 -6.5 27t-25.5 11h-68q-17 0 -26.5 11.5t-6.5 28.5z" />
    <glyph glyph-name="H" unicode="H" 
d="M503 40q-3 -17 -17 -28.5t-30 -11.5h-23q-17 0 -26.5 12t-6.5 28l38 218q3 17 -6.5 28.5t-25.5 11.5h-174q-17 0 -31 -11.5t-17 -28.5l-38 -218q-3 -17 -17 -28.5t-30 -11.5h-23q-17 0 -26.5 12t-6.5 28l108 615q3 17 17 28.5t31 11.5h23q16 0 25.5 -11.5t6.5 -28.5
l-38 -218q-3 -16 6.5 -28t26.5 -12h174q16 0 30 11.5t17 28.5l38 218q3 17 17 28.5t31 11.5h23q16 0 25.5 -11.5t6.5 -28.5z" />
    <glyph glyph-name="I" unicode="I" 
d="M151 655q3 17 17 28.5t31 11.5h380q16 0 25.5 -11.5t6.5 -28.5l-3 -20q-3 -17 -17 -28.5t-30 -11.5h-100q-16 0 -30 -11.5t-17 -28.5l-73 -415q-3 -16 6.5 -28t26.5 -12h100q16 0 25.5 -11.5t7.5 -28.5l-4 -20q-3 -17 -17 -28.5t-30 -11.5h-380q-17 0 -26.5 12t-6.5 28
l4 20q2 16 16 28t31 12h99q16 0 30 11.5t17 28.5l73 415q3 16 -6.5 28t-26.5 12h-99q-17 0 -26.5 12t-6.5 28z" />
    <glyph glyph-name="J" unicode="J" 
d="M535 221q-16 -91 -100.5 -156t-176.5 -65q-59 0 -108 27t-79 74q-10 15 -4 30t24 25l31 16q9 5 20.5 3t16.5 -10q19 -29 50.5 -47t66.5 -18q51 0 99 35.5t57 85.5l59 334q3 16 -6.5 28t-26.5 12h-182q-17 0 -26.5 12t-6.5 28l3 20q3 17 17 28.5t31 11.5h285
q16 0 25.5 -11.5t6.5 -28.5z" />
    <glyph glyph-name="K" unicode="K" 
d="M215 437q-3 -16 6.5 -28t26.5 -12h42q23 0 35 15q30 43 91 129.5t91 130.5q5 8 18 15.5t22 7.5h30q20 0 26.5 -15.5t-5.5 -32.5l-195 -278q-13 -18 -7 -37l97 -284q6 -17 -6 -32.5t-32 -15.5h-31q-9 0 -19 7t-12 15l-86 253q-3 8 -13 15t-19 7h-45q-16 0 -30 -11.5
t-17 -28.5l-38 -217q-3 -17 -17 -28.5t-30 -11.5h-22q-17 0 -26.5 12t-6.5 28l108 615q3 17 17 28.5t31 11.5h22q16 0 25.5 -11.5t6.5 -28.5z" />
    <glyph glyph-name="L" unicode="L" 
d="M151 655q3 17 17 28.5t31 11.5h23q16 0 25.5 -11.5t6.5 -28.5l-90 -515q-3 -16 6.5 -28t26.5 -12h277q16 0 25.5 -11.5t7.5 -28.5l-4 -20q-3 -17 -17 -28.5t-30 -11.5h-380q-17 0 -26.5 12t-6.5 28z" />
    <glyph glyph-name="M" unicode="M" 
d="M579 695q16 0 25.5 -11.5t6.5 -28.5l-108 -615q-3 -17 -17 -28.5t-30 -11.5h-23q-17 0 -26.5 12t-6.5 28l61 344q0 4 -2.5 5.5t-6.5 0t-6 -4.5q-7 -11 -35.5 -56.5t-43.5 -70.5q-6 -9 -18.5 -16t-22.5 -7h-38q-10 0 -20 7.5t-12 15.5l-19 68q-4 15 -21.5 11t-20.5 -20
l-49 -277q-3 -17 -17 -28.5t-30 -11.5h-23q-17 0 -26.5 12t-6.5 28l108 615q3 17 17 28.5t31 11.5h29q10 0 20.5 -7.5t12.5 -16.5l60 -232q4 -15 20.5 -14t25.5 17q18 29 142 230q5 9 17.5 16t22.5 7h30z" />
    <glyph glyph-name="N" unicode="N" 
d="M579 695q16 0 25.5 -11.5t6.5 -28.5l-108 -615q-3 -17 -17 -28.5t-30 -11.5h-32q-9 0 -19 6.5t-13 14.5l-117 322q-7 18 -24.5 21t-34.5 -8.5t-20 -31.5l-50 -284q-3 -17 -17 -28.5t-30 -11.5h-23q-17 0 -26.5 12t-6.5 28l108 615q3 17 17 28.5t31 11.5h32q8 0 18.5 -7
t12.5 -14l119 -319q6 -17 24 -20t34.5 8t19.5 31l49 281q3 17 17 28.5t31 11.5h23z" />
    <glyph glyph-name="O" unicode="O" 
d="M535 220q-16 -92 -97.5 -156.5t-173.5 -64.5t-148.5 65t-40.5 156l45 254q16 91 95.5 156t171.5 65t150.5 -64.5t42.5 -156.5zM477 474q9 50 -24 85.5t-84 35.5q-50 0 -94 -35.5t-52 -85.5l-45 -254q-9 -50 22 -85.5t81 -35.5q51 0 96.5 35.5t54.5 85.5z" />
    <glyph glyph-name="P" unicode="P" 
d="M284 595q-16 0 -30 -11.5t-17 -28.5l-28 -158q-3 -16 6.5 -28t26.5 -12h96q49 0 89.5 35t49.5 84q8 49 -20 84t-77 35h-96zM398 695q90 0 144 -64.5t38 -154.5t-93 -154.5t-167 -64.5h-96q-16 0 -30 -11.5t-17 -28.5l-31 -177q-3 -17 -17 -28.5t-30 -11.5h-23
q-17 0 -26.5 12t-6.5 28l108 615q3 17 17 28.5t31 11.5h199z" />
    <glyph glyph-name="Q" unicode="Q" 
d="M349 -23q-5 21 -23 27q-6 2 -13 0q-27 -5 -48 -5q-92 0 -148.5 65t-40.5 156l45 254q16 91 95.5 156t171.5 65q91 0 150 -65t43 -156l-45 -254q-15 -85 -89 -148q-5 -5 -7 -14.5t0 -14.5q1 -4 5 -15t6 -15.5t7 -11t13 -9t19 -2.5q14 0 25 4q5 2 5 -3l18 -78q4 -11 -9 -15
q-37 -11 -60 -11q-44 0 -75.5 24.5t-44.5 65.5zM478 474q9 50 -24 85.5t-84 35.5t-94 -35.5t-52 -85.5l-45 -254q-9 -51 21.5 -86t81.5 -35t96.5 35.5t54.5 85.5z" />
    <glyph glyph-name="R" unicode="R" 
d="M398 695q90 0 144 -64.5t38 -154.5q-21 -115 -127 -180q-14 -9 -24 -29t-5 -32l67 -183q7 -19 -5.5 -35.5t-34.5 -16.5h-35q-9 0 -19 6.5t-13 14.5l-78 215q-3 8 -13 14.5t-19 6.5h-50q-16 0 -30 -11.5t-17 -28.5l-31 -177q-3 -17 -17 -28.5t-30 -11.5h-23
q-17 0 -26.5 12t-6.5 28l108 615q3 17 17 28.5t31 11.5h199zM284 595q-16 0 -30 -11.5t-17 -28.5l-28 -158q-3 -16 6.5 -28t26.5 -12h96q49 0 89.5 35t49.5 84q8 49 -20 84t-77 35h-96z" />
    <glyph glyph-name="S" unicode="S" 
d="M531 199q-15 -87 -96 -143t-170 -56q-82 0 -138 52t-56 130q0 36 43 36h30q9 0 20 -11.5t13 -21.5q5 -37 35 -60.5t71 -23.5q47 0 92 26.5t53 71.5q7 43 -29 66.5t-85 31.5q-90 16 -147.5 65t-43.5 133q15 86 95.5 143t169.5 57q82 0 138.5 -52t56.5 -130q0 -36 -43 -36
h-29q-9 0 -20 12t-13 22q-6 37 -36.5 60.5t-71.5 23.5q-46 0 -91 -27.5t-53 -72.5q-7 -42 28 -65.5t83 -32.5q41 -7 76.5 -21.5t66 -37.5t45 -59t6.5 -80z" />
    <glyph glyph-name="T" unicode="T" 
d="M151 655q3 17 17 28.5t31 11.5h380q16 0 25.5 -11.5t6.5 -28.5l-3 -20q-3 -17 -17 -28.5t-30 -11.5h-100q-16 0 -30 -11.5t-17 -28.5l-91 -515q-3 -17 -17 -28.5t-30 -11.5h-21q-17 0 -26.5 12t-6.5 28l91 515q3 16 -6.5 28t-26.5 12h-99q-17 0 -26.5 12t-6.5 28z" />
    <glyph glyph-name="U" unicode="U" 
d="M579 695q16 0 25.5 -11.5t6.5 -28.5l-76 -434q-16 -92 -97.5 -156.5t-173.5 -64.5t-148.5 65t-40.5 156l76 434q3 17 17 28.5t31 11.5h23q16 0 25.5 -11.5t6.5 -28.5l-76 -434q-9 -50 22.5 -85.5t81.5 -35.5q51 0 96 35.5t54 85.5l76 434q3 17 17 28.5t31 11.5h23z" />
    <glyph glyph-name="V" unicode="V" 
d="M507 666q5 11 18.5 20t25.5 9h22q21 0 30 -15t0 -35l-276 -615q-5 -12 -18 -21t-26 -9h-33q-13 0 -22.5 9t-11.5 21l-59 615q-2 20 12.5 35t35.5 15h21q12 0 22 -9t12 -20l32 -307q3 -29 33.5 -29t43.5 29z" />
    <glyph glyph-name="W" unicode="W" 
d="M507 660q5 14 18 24.5t28 10.5h22q19 0 28.5 -13.5t2.5 -32.5l-203 -615q-4 -14 -17.5 -24t-27.5 -10h-19q-13 0 -23 9t-10 22l-3 66q-1 19 -20.5 19.5t-26.5 -17.5l-31 -69q-5 -12 -18 -21t-26 -9h-15q-14 0 -24 10t-10 24l22 615q1 19 15 32.5t33 13.5h22
q15 0 25 -10.5t9 -24.5l-15 -332q0 -5 4 -7.5t9 -1t7 6.5l9 19q6 11 19 20t25 9h31q12 0 22 -9t11 -20l2 -19q1 -8 10 -7.5t11 9.5z" />
    <glyph glyph-name="X" unicode="X" 
d="M492 48q7 -17 -5 -32.5t-32 -15.5h-31q-9 0 -19 6.5t-13 14.5l-59 158q-9 22 -31.5 22t-38.5 -22l-116 -158q-5 -8 -17.5 -14.5t-21.5 -6.5h-30q-20 0 -26.5 15.5t5.5 32.5l203 283q13 20 7 38l-105 279q-6 17 5.5 32t31.5 15h30q8 0 18.5 -6.5t12.5 -13.5l71 -179
q5 -15 18.5 -16t24.5 13q25 34 72 96.5t65 87.5q14 18 37 18h31q20 0 26 -15t-7 -32l-202 -279q-5 -7 -7.5 -19t0.5 -19z" />
    <glyph glyph-name="Y" unicode="Y" 
d="M383 350q-1 -1 -3 -5t-4 -9l-2 -5l-51 -291q-3 -17 -17 -28.5t-30 -11.5h-21q-17 0 -26.5 12t-6.5 28l51 291q1 2 0.5 9.5t-1.5 9.5l-109 298q-7 17 4.5 32t31.5 15h30q8 0 18.5 -6.5t12.5 -13.5l71 -179q5 -15 18.5 -16t24.5 13q25 34 72 96.5t65 87.5q14 18 37 18h31
q20 0 26 -15t-7 -32z" />
    <glyph glyph-name="Z" unicode="Z" 
d="M605 620q0 -7 -10 -22l-362 -436q-18 -22 -10.5 -42t33.5 -20h218q16 0 25.5 -11.5t7.5 -28.5l-4 -20q-3 -17 -17 -28.5t-30 -11.5h-380q-17 0 -26.5 12t-6.5 28l6 35q4 15 11 22l362 436q17 22 9.5 42t-32.5 20h-218q-17 0 -26.5 12t-6.5 28l3 20q3 17 17 28.5t31 11.5
h380q16 0 25.5 -11.5t6.5 -28.5z" />
    <glyph glyph-name="bracketleft" unicode="[" 
d="M280 750q3 17 17 28.5t30 11.5h156q17 0 26.5 -12t6.5 -28l-3 -21q-3 -17 -17 -28.5t-31 -11.5h-55q-16 0 -30 -11.5t-17 -28.5l-106 -603q-3 -16 6.5 -28t26.5 -12h55q17 0 26.5 -12t6.5 -28l-4 -21q-3 -17 -17 -28.5t-30 -11.5h-156q-17 0 -26.5 12t-6.5 28z" />
    <glyph glyph-name="backslash" unicode="\" 
d="M178 739q-5 19 8.5 35t34.5 16h29q10 0 20 -7.5t12 -17.5l195 -809q5 -20 -8.5 -35.5t-34.5 -15.5h-29q-11 0 -21 7.5t-12 17.5z" />
    <glyph glyph-name="bracketright" unicode="]" 
d="M374 -55q-3 -17 -17 -28.5t-30 -11.5h-156q-17 0 -26.5 12t-6.5 28l4 21q3 17 17 28.5t30 11.5h56q16 0 30 11.5t17 28.5l106 603q3 17 -6.5 28.5t-26.5 11.5h-56q-16 0 -25.5 11.5t-6.5 28.5l3 21q3 17 17 28.5t30 11.5h156q17 0 26.5 -12t6.5 -28z" />
    <glyph glyph-name="asciicircum" unicode="^" 
d="M481 359q-8 0 -17.5 6t-12.5 13l-69 154q-6 13 -18.5 14t-23.5 -11q-49 -62 -124 -155q-6 -6 -19 -13.5t-20 -7.5h-35q-20 0 -26.5 16t7.5 33l207 268q17 19 38 19h41q8 0 18 -6t13 -13l113 -268q7 -17 -5 -33t-32 -16h-35z" />
    <glyph glyph-name="underscore" unicode="_" 
d="M47 63q3 17 17 28.5t30 11.5h380q17 0 26.5 -12t6.5 -28l-4 -23q-3 -17 -17 -28.5t-30 -11.5h-380q-17 0 -26.5 12t-6.5 28z" />
    <glyph glyph-name="grave" unicode="`" 
d="M365 492q-13 -11 -30 -11t-27 11l-112 136q-10 11 -7 28t17 28l19 17q14 11 30.5 11t26.5 -11l112 -136q10 -11 7 -28t-17 -28z" />
    <glyph glyph-name="a" unicode="a" 
d="M491 100q12 -2 10 -14l-11 -60q-1 -12 -10 -19t-21 -5q-53 7 -84 39q-6 5 -19 6t-20 -3q-74 -44 -149 -44q-66 0 -101 32.5t-24 97.5q7 40 32 70.5t60.5 48t73 26t74.5 8.5q28 0 56 -3q5 -1 7.5 2.5t1.5 7.5q-7 26 -27.5 41.5t-48.5 15.5q-48 0 -89 -50q-15 -17 -30 -10
l-33 17q-16 8 -17.5 22t11.5 30q79 91 176 91q79 0 125.5 -56t32.5 -135l-19 -110q-3 -18 10 -30.5t33 -15.5zM354 177q2 10 -9 12q-27 3 -54 3t-48 -4q-73 -13 -80 -53q-4 -23 8 -30t38 -7q69 0 134 58q9 8 11 21z" />
    <glyph glyph-name="b" unicode="b" 
d="M341 447q93 0 147 -65.5t37 -158.5q-16 -92 -93.5 -157.5t-169.5 -65.5q-57 0 -102 27q-5 2 -11 -0.5t-7 -7.5q-3 -19 -21 -19h-42q-17 0 -26.5 12t-6.5 28l105 595q3 17 17 28.5t30 11.5h20q17 0 26.5 -12t6.5 -28l-36 -204q-1 -7 5 -10.5t13 0.5q55 26 108 26zM280 100
q51 0 93.5 36t51.5 87q9 52 -20.5 88t-81.5 36q-51 0 -93.5 -36.5t-51.5 -87.5t21 -87t81 -36z" />
    <glyph glyph-name="c" unicode="c" 
d="M484 169q17 -7 19 -21.5t-11 -31.5q-43 -53 -102 -84.5t-120 -31.5q-94 0 -151 65t-41 158q17 94 97 159t174 65q61 0 108.5 -31.5t72.5 -84.5q7 -17 0 -31.5t-26 -22.5l-37 -14q-9 -3 -20 2t-15 13q-14 31 -40.5 50t-60.5 19q-52 0 -96 -36t-54 -88q-9 -52 23 -87.5
t84 -35.5q69 0 124 67q7 8 20.5 13.5t21.5 2.5z" />
    <glyph glyph-name="d" unicode="d" 
d="M342 447q52 0 99 -26q5 -4 12.5 -0.5t8.5 10.5l36 204q3 17 17 28.5t30 11.5h20q17 0 26.5 -12t6.5 -28l-105 -595q-3 -17 -17 -28.5t-30 -11.5h-41q-19 0 -16 19q1 5 -4 7.5t-11 0.5q-54 -27 -111 -27q-92 0 -146.5 65.5t-38.5 157.5q16 93 93.5 158.5t170.5 65.5z
M281 100q51 0 93 36t51 87t-20.5 87.5t-80.5 36.5q-52 0 -94.5 -36t-51.5 -88q-9 -51 21.5 -87t81.5 -36z" />
    <glyph glyph-name="e" unicode="e" 
d="M204 173q-10 0 -14.5 -7t-0.5 -14q29 -52 91 -52q48 0 93 37q4 3 17.5 9t17.5 6h33q8 0 18 -5l11 -6q8 -5 8.5 -15t-7.5 -18q-42 -49 -97 -78.5t-112 -29.5q-92 0 -146 65.5t-38 157.5q17 92 94 158t169 66q94 0 146 -68.5t35 -163.5q-3 -16 -9 -35q-2 -7 -10 -7h-299z
M400 274q10 0 14.5 7t-0.5 14q-28 52 -91 52q-61 0 -109 -51q-7 -9 -4.5 -15.5t12.5 -6.5h178z" />
    <glyph glyph-name="f" unicode="f" 
d="M546 343q-2 -17 -16 -28.5t-31 -11.5h-152q-16 0 -30 -11.5t-17 -28.5l-39 -223q-3 -17 -17 -28.5t-30 -11.5h-19q-17 0 -26.5 12t-6.5 28l39 223q3 17 -6.5 28.5t-26.5 11.5h-36q-16 0 -25.5 11.5t-7.5 28.5l4 19q3 17 17 28.5t30 11.5h36q16 0 30 11.5t17 28.5l12 67
q12 68 69.5 117t125.5 49q60 0 96.5 -41.5t38.5 -101.5q1 -19 -10.5 -30t-31.5 -11h-42q-7 0 -12 5.5t-5 11.5q0 27 -13.5 47t-38.5 20q-27 0 -50.5 -19.5t-27.5 -46.5l-12 -67q-3 -16 6.5 -28t26.5 -12h152q17 0 26.5 -12t6.5 -28z" />
    <glyph glyph-name="g" unicode="g" 
d="M387 12q2 7 -3.5 12t-12.5 1q-56 -25 -109 -25q-92 0 -146 65.5t-38 157.5q17 92 94 158t169 66q55 0 102 -28q5 -3 11 0t7 9q4 19 23 19h41q17 0 26.5 -12t6.5 -28l-73 -412q-16 -92 -93.5 -157.5t-169.5 -65.5q-52 0 -95 26.5t-69 70.5q-8 15 -2 28.5t24 22.5l34 18
q8 4 18 1t15 -10q34 -57 92 -57q116 0 148 140zM280 100q50 0 92 34.5t52 83.5q10 54 -18.5 91.5t-82.5 37.5q-51 0 -93.5 -36.5t-51.5 -87.5t21 -87t81 -36z" />
    <glyph glyph-name="h" unicode="h" 
d="M493 40q-3 -17 -17 -28.5t-30 -11.5h-20q-17 0 -26.5 12t-6.5 28l32 183q9 52 -20.5 88t-81.5 36q-48 0 -91.5 -35.5t-52.5 -83.5l-33 -188q-3 -17 -17 -28.5t-30 -11.5h-20q-17 0 -26.5 12t-6.5 28l105 595q3 17 17 28.5t30 11.5h20q17 0 26.5 -12t6.5 -28l-36 -204
q-1 -7 5 -10.5t13 0.5q55 26 108 26q93 0 147 -65.5t37 -158.5z" />
    <glyph glyph-name="i" unicode="i" 
d="M337 140q-3 -16 6.5 -28t26.5 -12h94q16 0 25.5 -11.5t7.5 -28.5l-4 -20q-3 -17 -17 -28.5t-30 -11.5h-367q-17 0 -26.5 12t-6.5 28l4 20q2 16 16 28t31 12h93q16 0 30 11.5t17 28.5l29 167q3 16 -6.5 28t-26.5 12h-49q-17 0 -26.5 12t-6.5 28l4 20q3 17 17 28.5t30 11.5
h149q17 0 26.5 -12t6.5 -28zM431 582q-5 -28 -27.5 -47t-50.5 -19q-27 0 -42.5 19.5t-10.5 46.5q4 27 26.5 46t49.5 19t43 -19t12 -46z" />
    <glyph glyph-name="j" unicode="j" 
d="M199 407q3 17 17 28.5t30 11.5h252q17 0 26.5 -12t6.5 -28l-73 -412q-17 -92 -94 -158t-169 -66q-108 0 -166 97q-18 30 23 52l34 17q8 4 18.5 1t14.5 -10q36 -57 93 -57q51 0 94 36.5t52 87.5l55 312q3 16 -6.5 28t-26.5 12h-152q-17 0 -26.5 12t-6.5 28zM577 582
q-5 -28 -27.5 -47t-50.5 -19q-27 0 -42.5 19.5t-10.5 46.5q4 27 26.5 46t49.5 19t43 -19t12 -46z" />
    <glyph glyph-name="k" unicode="k" 
d="M394 303q-34 -23 -23 -44q18 -35 105 -209q8 -16 -1.5 -33t-28.5 -17h-39q-7 0 -17 6t-13 12l-91 186q-10 17 -29 3l-75 -54q-5 -4 -12 -14.5t-8 -16.5l-15 -82q-3 -17 -17 -28.5t-30 -11.5h-20q-17 0 -26.5 12t-6.5 28l105 595q3 17 17 28.5t30 11.5h20q17 0 26.5 -12
t6.5 -28l-51 -290q-4 -27 15.5 -37.5t43.5 6.5l181 124q15 9 27 9h58q19 0 22 -17t-14 -28z" />
    <glyph glyph-name="l" unicode="l" 
d="M493 40q-3 -17 -17 -28.5t-30 -11.5h-367q-17 0 -26.5 12t-6.5 28l4 20q2 16 16 28t31 12h93q16 0 30 11.5t17 28.5l70 397q3 16 -6.5 28t-26.5 12h-30q-17 0 -26.5 12t-6.5 28l3 18q3 17 17 28.5t30 11.5h130q17 0 26.5 -12t6.5 -28l-87 -495q-3 -16 6.5 -28t26.5 -12
h94q16 0 25.5 -11.5t7.5 -28.5z" />
    <glyph glyph-name="m" unicode="m" 
d="M428 447q56 0 89.5 -40.5t23.5 -96.5l-48 -270q-3 -17 -17 -28.5t-30 -11.5h-18q-17 0 -26.5 12t-6.5 28l48 270q2 16 -7 27.5t-25 11.5t-29.5 -11.5t-15.5 -27.5l-48 -270q-3 -17 -17 -28.5t-30 -11.5h-20q-17 0 -26.5 12t-6.5 28l48 270q2 15 -6.5 26t-23.5 11
t-27.5 -11t-14.5 -26l-48 -270q-3 -17 -17 -28.5t-30 -11.5h-20q-17 0 -26.5 12t-6.5 28l65 367q3 17 17 28.5t30 11.5h57q3 0 2 -3q0 -3 2 -2q18 5 35 5q40 0 69 -21q3 -3 11.5 -3.5t13.5 2.5q37 22 80 22z" />
    <glyph glyph-name="n" unicode="n" 
d="M341 447q93 0 147 -65.5t37 -158.5l-32 -183q-3 -17 -17 -28.5t-30 -11.5h-20q-17 0 -26.5 12t-6.5 28l32 183q9 52 -20.5 88t-81.5 36q-51 0 -93.5 -36t-51.5 -87l-32 -184q-3 -17 -17 -28.5t-30 -11.5h-20q-17 0 -26.5 12t-6.5 28l65 367q3 17 17 28.5t30 11.5h41
q7 0 12 -5.5t3 -13.5q-1 -6 4.5 -9t11.5 0q54 28 111 28z" />
    <glyph glyph-name="o" unicode="o" 
d="M341 447q93 0 147 -65.5t37 -158.5q-16 -92 -93.5 -157.5t-169.5 -65.5t-146 65.5t-38 157.5q17 92 94 158t169 66zM280 100q51 0 93.5 36t51.5 87q9 52 -20.5 88t-81.5 36q-51 0 -93.5 -36.5t-51.5 -87.5t21 -87t81 -36z" />
    <glyph glyph-name="p" unicode="p" 
d="M525 224q-16 -93 -93 -158.5t-170 -65.5q-56 0 -99 25q-5 3 -12.5 0t-8.5 -10l-36 -203q-3 -17 -17 -28.5t-30 -11.5h-20q-17 0 -26.5 12t-6.5 28l105 595q3 17 17 28.5t30 11.5h41q7 0 12 -5.5t3 -13.5q-1 -6 4.5 -9t11.5 0q54 28 111 28q92 0 146 -65.5t38 -157.5z
M425 224q9 51 -21 87.5t-81 36.5q-49 0 -92 -35t-52 -84q-9 -53 19.5 -91t81.5 -38q52 0 94 36t51 88z" />
    <glyph glyph-name="q" unicode="q" 
d="M78 224q16 92 94 157.5t170 65.5q56 0 101 -28q5 -3 11 0t7 9q4 19 23 19h41q17 0 26.5 -12t6.5 -28l-105 -595q-3 -17 -17 -28.5t-30 -11.5h-20q-17 0 -26.5 12t-6.5 28l36 203q1 7 -5 10t-13 0q-51 -25 -108 -25q-93 0 -147 65.5t-38 158.5zM178 224q-9 -52 21 -88
t82 -36q53 0 94.5 38t50.5 91q9 49 -22 84t-80 35q-51 0 -94 -36.5t-52 -87.5z" />
    <glyph glyph-name="r" unicode="r" 
d="M428 347q-51 0 -93.5 -36t-51.5 -87l-14 -84q-3 -16 6.5 -28t26.5 -12h73q16 0 25.5 -11.5t7.5 -28.5l-4 -20q-3 -17 -17 -28.5t-30 -11.5h-278q-17 0 -26.5 12t-6.5 28l4 20q2 16 16 28t31 12h25q16 0 30 11.5t17 28.5l29 167q3 16 -6.5 28t-26.5 12h-25q-17 0 -26.5 12
t-6.5 28l4 20q3 17 17 28.5t30 11.5h146q7 0 12 -5.5t3 -13.5q-1 -6 4.5 -9t11.5 0q52 28 111 28q48 0 100 -28q18 -11 4 -30l-40 -56q-8 -12 -19 -5q-31 19 -63 19z" />
    <glyph glyph-name="s" unicode="s" 
d="M510 134q-8 -46 -55.5 -78t-98 -44t-94.5 -12q-64 0 -125.5 31t-71.5 85q-3 20 7.5 28t33.5 8h36q4 0 13.5 -7.5t11.5 -10.5q10 -20 46 -29.5t66 -9.5q34 0 81 9t51 30q3 18 -21.5 26.5t-63 10t-82.5 7.5t-81 16.5t-57.5 39.5t-12.5 74q6 35 34.5 63.5t67 44t76.5 23.5
t70 8q42 0 83.5 -12t74.5 -40t39 -67q3 -20 -7.5 -29t-33.5 -9h-35q-4 0 -14.5 7.5t-12.5 11.5q-10 21 -46 32t-65 11q-32 0 -80 -10.5t-52 -33.5q-6 -35 118 -35q38 0 72.5 -6t68 -20.5t50 -43.5t9.5 -69z" />
    <glyph glyph-name="t" unicode="t" 
d="M525 447q17 0 26.5 -12t6.5 -28l-4 -20q-3 -17 -17 -28.5t-30 -11.5h-152q-16 0 -30 -11.5t-17 -28.5l-25 -142q-4 -27 12.5 -46t43.5 -19q24 0 44.5 20t30.5 47q2 6 9 11.5t13 5.5h42q21 0 28.5 -11t0.5 -30q-24 -60 -75 -101.5t-111 -41.5q-68 0 -108.5 48.5
t-28.5 116.5l25 142q3 16 -6.5 28t-26.5 12h-36q-17 0 -26.5 12t-6.5 28l4 20q3 17 17 28.5t30 11.5h36q16 0 30 11.5t17 28.5l6 37q3 17 17 28.5t30 11.5h19q17 0 26.5 -11.5t6.5 -28.5l-6 -37q-3 -16 6.5 -28t26.5 -12h152z" />
    <glyph glyph-name="u" unicode="u" 
d="M263 0q-93 0 -147 65.5t-38 158.5l33 183q3 17 17 28.5t30 11.5h20q17 0 26.5 -12t6.5 -28l-33 -183q-9 -52 21 -88t82 -36q51 0 93 36t51 87l33 184q3 17 17 28.5t30 11.5h20q17 0 26.5 -12t6.5 -28l-65 -367q-3 -17 -17 -28.5t-30 -11.5h-41q-7 0 -12 5.5t-4 13.5
q1 6 -4 9t-11 0q-54 -28 -111 -28z" />
    <glyph glyph-name="v" unicode="v" 
d="M452 423q6 9 18.5 16.5t22.5 7.5h27q21 0 28 -15t-4 -34l-223 -374q-6 -9 -19 -16.5t-23 -7.5h-33q-10 0 -20.5 7.5t-12.5 16.5l-92 374q-5 19 8 34t33 15h27q10 0 20.5 -7.5t12.5 -16.5l45 -186q7 -25 32.5 -25t41.5 25z" />
    <glyph glyph-name="w" unicode="w" 
d="M452 416q5 13 18.5 22t26.5 9h20q21 0 30 -15t0 -35l-158 -367q-5 -12 -18 -21t-26 -9h-28q-13 0 -23 9.5t-10 22.5l-1 19q0 9 -9 9t-13 -9l-8 -19q-4 -13 -17.5 -22.5t-26.5 -9.5h-29q-13 0 -22.5 9t-10.5 21l-30 367q-1 20 13 35t34 15h23q13 0 22.5 -9t10.5 -22
l8 -177q0 -6 4.5 -8t10.5 0.5t8 8.5l8 21q5 13 18.5 22t26.5 9h20q13 0 22.5 -9t10.5 -22l1 -22q1 -9 10.5 -9t13.5 9z" />
    <glyph glyph-name="x" unicode="x" 
d="M522 447q20 0 25 -16.5t-10 -31.5l-151 -150q-10 -10 -13 -25.5t4 -25.5l98 -150q10 -15 -1 -31.5t-30 -16.5h-44q-6 0 -15.5 5t-12.5 10l-60 94q-10 15 -28 15t-34 -15l-93 -94q-15 -15 -34 -15h-42q-20 0 -25 16t10 32l150 150q10 10 13 25t-4 25l-97 151
q-10 16 0.5 32t30.5 16h43q6 0 15.5 -5t12.5 -10l61 -94q10 -15 28 -15t34 15l92 94q4 5 16 10t18 5h43z" />
    <glyph glyph-name="y" unicode="y" 
d="M452 423q6 9 18.5 16.5t22.5 7.5h27q21 0 28 -15t-4 -34l-361 -602q-5 -9 -18 -16.5t-23 -7.5h-26q-20 0 -27.5 15t3.5 34l112 186q9 18 6 26q-58 240 -88 361q-5 19 7.5 36t32.5 17h27q10 0 20.5 -7.5t12.5 -16.5l45 -186q7 -25 32.5 -25t41.5 25z" />
    <glyph glyph-name="z" unicode="z" 
d="M552 375q-3 -18 -19 -30l-232 -175q-16 -12 -20 -29t5.5 -29t28.5 -12h149q16 0 25.5 -11.5t7.5 -28.5l-4 -20q-3 -17 -17 -28.5t-30 -11.5h-367q-17 0 -26.5 12t-6.5 28l6 32q3 18 19 30l231 175q25 19 19.5 44.5t-33.5 25.5h-148q-17 0 -26.5 12t-6.5 28l4 20
q3 17 17 28.5t30 11.5h367q17 0 26.5 -12t6.5 -28z" />
    <glyph glyph-name="braceleft" unicode="{" 
d="M591 725q-2 -11 -17.5 -25t-27.5 -17q-48 -12 -85.5 -46t-45.5 -80q-19 -116 -85 -179q-10 -11 -13.5 -32t3.5 -31q24 -36 28 -83t-7 -98q-9 -47 19.5 -80.5t74.5 -43.5q11 -2 19 -14.5t6 -24.5l-5 -26q-7 -43 -44 -37q-87 12 -137.5 74.5t-34.5 151.5q24 139 -83 158
q-13 3 -22.5 16.5t-7.5 26.5l5 26q1 11 17 24.5t28 15.5q48 11 85.5 44.5t46.5 79.5l5 32q15 88 87.5 152.5t162.5 77.5q19 3 27.5 -7.5t4.5 -29.5z" />
    <glyph glyph-name="bar" unicode="|" 
d="M347 750q3 17 17 28.5t30 11.5h21q17 0 26.5 -12t6.5 -28l-142 -805q-3 -17 -17 -28.5t-30 -11.5h-21q-17 0 -26.5 12t-6.5 28z" />
    <glyph glyph-name="braceright" unicode="}" 
d="M201 750q9 43 45 37q86 -13 135 -77t34 -153l-5 -32q-9 -46 17 -79.5t71 -44.5q11 -2 21.5 -15.5t9.5 -24.5l-5 -26q-2 -13 -16.5 -26.5t-28.5 -16.5q-114 -19 -138 -158q-16 -88 -89 -151t-163 -75q-19 -3 -27 7.5t-5 29.5l5 26q2 12 14.5 24.5t24.5 14.5
q50 10 89.5 43.5t48.5 80.5q20 120 85 181q10 10 13.5 31t-3.5 31q-24 35 -28 82t7 98q8 46 -17 80t-69 46q-11 3 -21.5 17t-8.5 25z" />
    <glyph glyph-name="asciitilde" unicode="~" 
d="M224 260q-18 0 -31.5 -11.5t-16.5 -28.5q-3 -15 1 -43q0 -8 -8 -11l-73 -27q-15 -7 -19 9q-6 39 -1 73q10 60 56.5 98.5t106.5 38.5q42 0 69.5 -18.5t36.5 -40t22.5 -40t30.5 -18.5q16 0 28.5 12t15.5 28q2 19 -1 43q-2 7 7 11l80 30q14 5 16 -8q6 -36 -1 -73
q-11 -60 -56 -101.5t-104 -41.5q-40 0 -67.5 18.5t-38.5 41t-24.5 41t-28.5 18.5z" />
    <glyph glyph-name="exclamdown" unicode="&#xa1;" 
d="M324 40q-3 -17 -17 -28.5t-30 -11.5h-21q-17 0 -26.5 12t-6.5 28l72 406q3 17 17 28.5t30 11.5h21q17 0 26.5 -12t6.5 -28zM309 627q4 28 28 48t53 20q27 0 43.5 -20.5t11.5 -47.5t-28.5 -47t-50.5 -20q-28 0 -45 19.5t-12 47.5z" />
    <glyph glyph-name="cent" unicode="&#xa2;" 
d="M212 -25q1 10 -6.5 23.5t-17.5 17.5q-63 25 -93.5 83.5t-17.5 130.5t64 130.5t123 83.5q11 4 23.5 17.5t13.5 23.5l1 5q3 15 16 26t28 11h28q14 0 22.5 -10.5t6.5 -24.5l-1 -2q-2 -11 6 -24t18 -17q81 -28 118 -113q15 -33 -29 -50l-44 -17q-7 -3 -16 1t-11 11
q-17 42 -47 61q-7 5 -14.5 1t-8.5 -14l-35 -198q-2 -10 3.5 -13.5t15.5 1.5q39 21 68 60q5 8 15 12t17 1l38 -17q36 -17 11 -50q-69 -87 -158 -113q-12 -4 -24.5 -17.5t-13.5 -24.5v-1q-3 -14 -15 -24.5t-27 -10.5h-28q-15 0 -24 10.5t-6 25.5zM183 230q-12 -62 34 -102
q7 -6 14.5 -2.5t9.5 13.5l31 180q2 11 -4 15t-16 -3q-58 -37 -69 -101z" />
    <glyph glyph-name="sterling" unicode="&#xa3;" 
d="M419 300q-3 -17 -17 -28.5t-30 -11.5h-60q-7 0 -21 -7t-19 -13q-11 -13 -46.5 -48t-50.5 -58q-9 -14 -4.5 -22.5t21.5 -8.5h282q17 0 26.5 -12t6.5 -28l-4 -23q-3 -17 -17 -28.5t-30 -11.5h-380q-17 0 -26.5 12t-6.5 28l8 44q13 76 88 149q5 5 6 11.5t-2.5 11t-10.5 4.5
h-10q-17 0 -26.5 12t-6.5 28l5 30q2 12 12.5 20.5t22.5 8.5h7q7 0 10 6.5t-1 10.5q-34 50 -25 98q16 94 96.5 157.5t175.5 63.5q57 0 106 -24.5t78 -68.5q20 -31 -22 -53l-30 -16q-9 -4 -21.5 -1t-17.5 10q-37 53 -111 53q-53 0 -97.5 -34t-53.5 -87q-3 -15 3 -30.5
t13.5 -24.5t23 -25t20.5 -22q2 -3 13 -8t16 -5h77q17 0 26.5 -12t6.5 -28z" />
    <glyph glyph-name="yen" unicode="&#xa5;" 
d="M137 207q3 17 17 28.5t31 11.5h62q12 0 14 12t-10 12h-62q-17 0 -26.5 12t-6.5 28l3 20q3 17 17 28.5t30 11.5h10q18 0 28.5 13.5t4.5 29.5l-86 234q-6 17 5.5 32t30.5 15h30q8 0 18.5 -6.5t12.5 -13.5l71 -179q5 -15 18.5 -16t24.5 13q25 34 72 96.5t65 87.5
q14 18 37 18h31q20 0 26.5 -15.5t-6.5 -32.5l-170 -233q-11 -16 -5.5 -29.5t23.5 -13.5h9q17 0 26.5 -12t6.5 -28l-3 -20q-3 -17 -17 -28.5t-30 -11.5h-63q-12 0 -14 -12t10 -12h63q16 0 25.5 -11.5t6.5 -28.5l-3 -19q-3 -17 -17 -28.5t-30 -11.5h-35q-16 0 -30 -11.5
t-17 -28.5l-12 -68q-3 -17 -17 -28.5t-30 -11.5h-21q-17 0 -26.5 12t-6.5 28l12 68q3 16 -6.5 28t-26.5 12h-34q-17 0 -26.5 12t-6.5 28z" />
    <glyph glyph-name="section" unicode="&#xa7;" 
d="M453 752q62 0 100 -42t40 -104q1 -20 -11 -31.5t-32 -11.5h-55q-7 0 -7 7q3 17 2 32q-1 0 -2 -1l-99 -563q-13 -71 -71.5 -120.5t-128.5 -49.5q-62 0 -100.5 42t-40.5 104q-1 20 11 31.5t32 11.5h57q8 0 6 -6q-4 -23 -3 -34l1 -1q1 0 1 2l100 564q12 70 71 120t129 50z
M251 -6q-1 -4 3 -4q3 0 5 2q23 20 28 46l103 587q1 4 -2 4.5t-5 -1.5q-23 -20 -28 -46z" />
    <glyph glyph-name="dieresis" unicode="&#xa8;" 
d="M491 661q28 0 44.5 -19.5t11.5 -48.5q-5 -28 -28.5 -47.5t-51.5 -19.5t-44 19.5t-11 47.5t28 48t51 20zM275 661q28 0 44.5 -19.5t11.5 -48.5q-5 -28 -28.5 -47.5t-51.5 -19.5t-44 19.5t-11 47.5t28 48t51 20z" />
    <glyph glyph-name="guillemotleft" unicode="&#xab;" 
d="M375 401q-2 -6 -8.5 -16.5t-12.5 -14.5l-123 -88q-18 -13 -21 -31t10 -31l93 -88q11 -11 9 -31l-7 -40q-4 -19 -21 -27t-30 3l-178 160q-12 10 -10 32l8 44q1 7 8.5 17.5t12.5 14.5l234 160q17 11 31.5 3.5t11.5 -26.5zM568 401q-2 -6 -8.5 -16.5t-12.5 -14.5l-123 -88
q-18 -13 -21 -31t10 -31l93 -88q11 -11 9 -31l-7 -40q-4 -19 -21 -27t-30 3l-178 160q-12 10 -10 32l8 44q1 7 8.5 17.5t12.5 14.5l234 160q17 11 31.5 3.5t11.5 -26.5z" />
    <glyph glyph-name="macron" unicode="&#xaf;" 
d="M211 624q3 17 17 28.5t30 11.5h250q17 0 26.5 -12t6.5 -28l-3 -19q-3 -17 -17 -28.5t-30 -11.5h-250q-17 0 -26.5 12t-6.5 28z" />
    <glyph glyph-name="degree" unicode="&#xb0;" 
d="M390 705q59 0 92.5 -41.5t23.5 -99.5t-58 -99.5t-107 -41.5q-58 0 -92.5 41t-24.5 100q11 59 59.5 100t106.5 41zM359 525q16 0 29.5 11.5t15.5 27.5q3 16 -6.5 27.5t-25.5 11.5t-29.5 -11.5t-16.5 -27.5q-2 -17 7.5 -28t25.5 -11z" />
    <glyph glyph-name="plusminus" unicode="&#xb1;" 
d="M117 92q3 17 17 28.5t30 11.5h37q16 0 29 11.5t16 27.5t-6.5 27t-25.5 11h-36q-17 0 -26.5 12t-6.5 28l3 19q3 17 17 28.5t30 11.5h35q16 0 30 11.5t17 28.5l7 36q3 17 17 28.5t30 11.5h20q17 0 26.5 -12t6.5 -28l-7 -36q-3 -16 6.5 -28t26.5 -12h35q17 0 26.5 -12
t6.5 -28l-3 -19q-3 -17 -17 -28.5t-30 -11.5h-37q-16 0 -29 -11t-16 -27t6.5 -27.5t25.5 -11.5h36q17 0 26.5 -12t6.5 -28l-3 -19q-3 -17 -17 -28.5t-30 -11.5h-250q-17 0 -26.5 12t-6.5 28z" />
    <glyph glyph-name="acute" unicode="&#xb4;" 
d="M210 509q-10 11 -7 28t17 28l160 136q14 11 30.5 11t26.5 -11l13 -17q10 -11 7 -28t-17 -28l-160 -136q-13 -11 -30 -11t-26 11z" />
    <glyph glyph-name="paragraph" unicode="&#xb6;" 
d="M579 695q16 0 25.5 -11.5t6.5 -28.5l-108 -615q-3 -17 -17 -28.5t-30 -11.5h-23q-17 0 -26.5 12t-6.5 28l93 529q2 10 -4 18t-17 8q-10 0 -19.5 -7.5t-11.5 -18.5l-93 -529q-3 -17 -17 -28.5t-30 -11.5h-23q-17 0 -26.5 12t-6.5 28l32 183q2 12 -5.5 25t-18.5 16
q-69 20 -107.5 79.5t-25.5 132.5q16 90 93 154.5t167 64.5h199zM337 564q3 14 -4 20t-20 0q-35 -14 -59.5 -43t-30.5 -65q-7 -35 7.5 -64.5t43.5 -43.5q12 -6 21 0t11 20z" />
    <glyph glyph-name="cedilla" unicode="&#xb8;" 
d="M307 77q11 0 20 -6q54 -47 41 -114q-10 -60 -62 -101.5t-113 -41.5q-31 0 -65 12q-12 5 -5 18l45 78q4 5 8 4q30 -10 39 -10q18 0 32 11.5t17 29.5q6 31 -35 48q-11 4 -9 16l3 22q3 14 15 24t26 10h43z" />
    <glyph glyph-name="guillemotright" unicode="&#xbb;" 
d="M307 442q3 19 20.5 26.5t30.5 -3.5l177 -160q5 -4 8 -14.5t2 -17.5l-8 -44q-1 -7 -8 -17.5t-13 -14.5l-233 -160q-18 -11 -32.5 -3t-10.5 27l7 40q1 6 8 16.5t12 14.5l124 88q17 13 20.5 31t-9.5 31l-93 88q-4 4 -7 14.5t-2 16.5zM114 442q3 19 20.5 26.5t30.5 -3.5
l177 -160q5 -4 8 -14.5t2 -17.5l-8 -44q-1 -7 -8 -17.5t-13 -14.5l-233 -160q-18 -11 -32.5 -3t-10.5 27l7 40q1 6 8 16.5t12 14.5l124 88q18 13 21 31t-10 31l-93 88q-4 4 -7 14.5t-2 16.5z" />
    <glyph glyph-name="questiondown" unicode="&#xbf;" 
d="M379 524q20 0 28.5 -10.5t2.5 -29.5q-14 -41 -39 -68.5t-74 -58.5q-50 -30 -75 -59t-33 -77q-10 -53 22.5 -87t86.5 -34q34 0 70 18t63 47q8 7 19.5 9t19.5 -2l26 -17q33 -22 2 -53q-45 -46 -103.5 -74t-114.5 -28q-95 0 -153.5 63.5t-41.5 157.5q9 49 30 87.5t47.5 62.5
t53 42t52 37.5t37.5 38.5q6 9 25.5 22t28.5 13h20zM320 627q4 28 27.5 48t52.5 20q28 0 44 -20t11 -48t-28 -47.5t-51 -19.5t-44.5 19.5t-11.5 47.5z" />
    <glyph glyph-name="Agrave" unicode="&#xc0;" 
d="M424 0q-13 0 -22.5 9t-11.5 21l-9 111q-2 12 -11.5 21t-22.5 9h-101q-12 0 -25.5 -9t-18.5 -21l-49 -111q-5 -12 -18 -21t-26 -9h-25q-21 0 -29.5 15t0.5 35l274 614q5 12 18.5 21t25.5 9h33q12 0 22 -9t11 -21l58 -614q2 -20 -12 -35t-35 -15h-26zM282 321q-9 -20 0 -35
t30 -15h21q14 0 24 11.5t9 25.5q-2 23 -5.5 68.5t-5.5 67.5q-1 8 -8 8.5t-11 -6.5zM482 727q-14 -11 -30 -11t-26 11l-112 136q-10 11 -7 28t16 28l20 17q14 11 30 11t26 -11l113 -136q10 -11 7 -28t-17 -28z" />
    <glyph glyph-name="Aacute" unicode="&#xc1;" 
d="M424 0q-13 0 -22.5 9t-11.5 21l-9 111q-2 12 -11.5 21t-22.5 9h-101q-12 0 -25.5 -9t-18.5 -21l-49 -111q-5 -12 -18 -21t-26 -9h-25q-21 0 -29.5 15t0.5 35l274 614q5 12 18.5 21t25.5 9h33q12 0 22 -9t11 -21l58 -614q2 -20 -12 -35t-35 -15h-26zM282 321q-9 -20 0 -35
t30 -15h21q14 0 24 11.5t9 25.5q-2 23 -5.5 68.5t-5.5 67.5q-1 8 -8 8.5t-11 -6.5zM292 744q-9 11 -6 28t17 28l160 136q13 11 29.5 11t26.5 -11l14 -17q10 -11 7 -28t-17 -28l-161 -136q-14 -11 -30 -11t-26 11z" />
    <glyph glyph-name="Acircumflex" unicode="&#xc2;" 
d="M424 0q-13 0 -22.5 9t-11.5 21l-9 111q-2 12 -11.5 21t-22.5 9h-101q-12 0 -25.5 -9t-18.5 -21l-49 -111q-5 -12 -18 -21t-26 -9h-25q-21 0 -29.5 15t0.5 35l274 614q5 12 18.5 21t25.5 9h33q12 0 22 -9t11 -21l58 -614q2 -20 -12 -35t-35 -15h-26zM282 321q-9 -20 0 -35
t30 -15h21q14 0 24 11.5t9 25.5q-2 23 -5.5 68.5t-5.5 67.5q-1 8 -8 8.5t-11 -6.5zM239 781q-10 11 -7 28t17 28l160 136q14 11 30.5 11t26.5 -11l111 -136q10 -11 7 -28t-17 -28l-18 -16q-13 -11 -30 -11t-26 11l-53 63q-10 11 -26 11t-30 -11l-75 -63q-13 -12 -29.5 -12
t-26.5 12z" />
    <glyph glyph-name="Atilde" unicode="&#xc3;" 
d="M424 0q-13 0 -22.5 9t-11.5 21l-9 111q-2 12 -11.5 21t-22.5 9h-101q-12 0 -25.5 -9t-18.5 -21l-49 -111q-5 -12 -18 -21t-26 -9h-25q-21 0 -29.5 15t0.5 35l274 614q5 12 18.5 21t25.5 9h33q12 0 22 -9t11 -21l58 -614q2 -20 -12 -35t-35 -15h-26zM282 321q-9 -20 0 -35
t30 -15h21q14 0 24 11.5t9 25.5q-2 23 -5.5 68.5t-5.5 67.5q-1 8 -8 8.5t-11 -6.5zM369 825h-1q-2 10 -14 10q-15 0 -17 -14q-1 -9 1 -38q2 -6 -6 -8l-64 -23q-13 -4 -16 6q-11 33 -6 60q8 46 43.5 75.5t81.5 29.5q35 0 57.5 -19.5t32 -39.5t13.5 -20q15 0 17 18q2 10 0 31
q0 7 6 9l69 26q5 2 9.5 -0.5t5.5 -7.5q6 -41 2 -64q-9 -48 -43.5 -76t-83.5 -28q-67 0 -87 73z" />
    <glyph glyph-name="Adieresis" unicode="&#xc4;" 
d="M424 0q-13 0 -22.5 9t-11.5 21l-9 111q-2 12 -11.5 21t-22.5 9h-101q-12 0 -25.5 -9t-18.5 -21l-49 -111q-5 -12 -18 -21t-26 -9h-25q-21 0 -29.5 15t0.5 35l274 614q5 12 18.5 21t25.5 9h33q12 0 22 -9t11 -21l58 -614q2 -20 -12 -35t-35 -15h-26zM282 321q-9 -20 0 -35
t30 -15h21q14 0 24 11.5t9 25.5q-2 23 -5.5 68.5t-5.5 67.5q-1 8 -8 8.5t-11 -6.5zM532 895q29 0 45 -20t11 -48t-29 -47.5t-51 -19.5t-43.5 20t-11.5 47q5 28 28 48t51 20zM316 895q29 0 45 -20t11 -48t-29 -47.5t-51 -19.5t-43.5 20t-11.5 47q5 28 28 48t51 20z" />
    <glyph glyph-name="Aring" unicode="&#xc5;" 
d="M415 846q58 0 92.5 -41.5t23.5 -100.5q-11 -62 -63 -103q-7 -5 -14 -18t-6 -20l49 -512q2 -20 -12 -35.5t-35 -15.5h-26q-13 0 -22.5 9t-11.5 21l-9 111q-2 12 -11.5 21t-22.5 9h-101q-12 0 -25.5 -9t-18.5 -21l-49 -111q-5 -12 -18 -21t-26 -9h-25q-21 0 -29.5 15
t0.5 35l229 512q3 7 0.5 20t-7.5 18q-39 43 -28 104q11 59 59.5 100.5t106.5 41.5zM282 321q-9 -20 0 -35t30 -15h21q14 0 24 11.5t9 25.5q-2 23 -5.5 68.5t-5.5 67.5q-1 8 -8 8.5t-11 -6.5zM383 666q16 0 29.5 11t16.5 27t-6.5 28t-25.5 12t-29.5 -11.5t-16.5 -28.5
q-3 -16 6.5 -27t25.5 -11z" />
    <glyph glyph-name="AE" unicode="&#xc6;" 
d="M272 140q2 13 -5.5 22t-20.5 9q-12 0 -25.5 -9t-18.5 -21l-49 -111q-5 -12 -18 -21t-26 -9h-25q-21 0 -29.5 15t0.5 35l274 615q5 12 18.5 21t25.5 9h206q16 0 25.5 -11.5t6.5 -28.5l-3 -20q-3 -17 -17 -28.5t-30 -11.5h-66q-16 0 -30 -11.5t-17 -28.5l-21 -118
q-3 -16 6.5 -28t26.5 -12h1q17 0 26.5 -12t6.5 -28l-3 -19q-3 -17 -17 -28.5t-30 -11.5h-1q-17 0 -31 -11.5t-17 -28.5l-20 -118q-3 -16 6.5 -28t26.5 -12h66q16 0 25.5 -11.5t7.5 -28.5l-4 -20q-3 -17 -17 -28.5t-30 -11.5h-169q-17 0 -26.5 12t-6.5 28zM277 271
q17 0 21 18l17 96q0 4 -5 1q-1 0 -2 -2l-42 -96q-3 -7 0.5 -12t10.5 -5z" />
    <glyph glyph-name="Ccedilla" unicode="&#xc7;" 
d="M283 100q45 0 83.5 29.5t57.5 73.5q5 11 20.5 24t26.5 13h27q19 0 27.5 -11.5t2.5 -30.5q-20 -59 -61.5 -105.5t-98.5 -70.5q-8 -3 -5 -13q6 -27 1 -52q-11 -63 -61.5 -103t-113.5 -40q-30 0 -64 12q-12 5 -5 18l44 78q4 5 8 4q30 -10 40 -10q17 0 31 12t17 29
q3 15 -3.5 27t-20.5 17q-7 2 -29 7t-34 11q-55 27 -82.5 82t-15.5 120l45 253q16 93 95.5 157t172.5 64q86 0 140 -58.5t52 -143.5q-2 -38 -44 -38h-27q-11 0 -22 13t-12 24q-3 44 -31.5 73.5t-73.5 29.5q-51 0 -94.5 -35t-52.5 -86l-45 -253q-9 -51 22.5 -86t82.5 -35z" />
    <glyph glyph-name="Egrave" unicode="&#xc8;" 
d="M151 655q3 17 17 28.5t31 11.5h380q16 0 25.5 -11.5t6.5 -28.5l-3 -20q-3 -17 -17 -28.5t-30 -11.5h-277q-16 0 -30 -11.5t-17 -28.5l-21 -118q-3 -16 6.5 -28t26.5 -12h104q17 0 26.5 -12t6.5 -28l-3 -19q-3 -17 -17 -28.5t-30 -11.5h-104q-17 0 -31 -11.5t-17 -28.5
l-20 -118q-3 -16 6.5 -28t26.5 -12h277q16 0 25.5 -11.5t7.5 -28.5l-4 -20q-3 -17 -17 -28.5t-30 -11.5h-380q-17 0 -26.5 12t-6.5 28zM482 727q-14 -11 -30 -11t-26 11l-112 136q-10 11 -7 28t16 28l20 17q14 11 30 11t26 -11l113 -136q10 -11 7 -28t-17 -28z" />
    <glyph glyph-name="Eacute" unicode="&#xc9;" 
d="M151 655q3 17 17 28.5t31 11.5h380q16 0 25.5 -11.5t6.5 -28.5l-3 -20q-3 -17 -17 -28.5t-30 -11.5h-277q-16 0 -30 -11.5t-17 -28.5l-21 -118q-3 -16 6.5 -28t26.5 -12h104q17 0 26.5 -12t6.5 -28l-3 -19q-3 -17 -17 -28.5t-30 -11.5h-104q-17 0 -31 -11.5t-17 -28.5
l-20 -118q-3 -16 6.5 -28t26.5 -12h277q16 0 25.5 -11.5t7.5 -28.5l-4 -20q-3 -17 -17 -28.5t-30 -11.5h-380q-17 0 -26.5 12t-6.5 28zM292 744q-9 11 -6 28t17 28l160 136q13 11 29.5 11t26.5 -11l14 -17q10 -11 7 -28t-17 -28l-161 -136q-14 -11 -30 -11t-26 11z" />
    <glyph glyph-name="Ecircumflex" unicode="&#xca;" 
d="M151 655q3 17 17 28.5t31 11.5h380q16 0 25.5 -11.5t6.5 -28.5l-3 -20q-3 -17 -17 -28.5t-30 -11.5h-277q-16 0 -30 -11.5t-17 -28.5l-21 -118q-3 -16 6.5 -28t26.5 -12h104q17 0 26.5 -12t6.5 -28l-3 -19q-3 -17 -17 -28.5t-30 -11.5h-104q-17 0 -31 -11.5t-17 -28.5
l-20 -118q-3 -16 6.5 -28t26.5 -12h277q16 0 25.5 -11.5t7.5 -28.5l-4 -20q-3 -17 -17 -28.5t-30 -11.5h-380q-17 0 -26.5 12t-6.5 28zM239 781q-10 11 -7 28t17 28l160 136q14 11 30.5 11t26.5 -11l111 -136q10 -11 7 -28t-17 -28l-18 -16q-13 -11 -30 -11t-26 11l-53 63
q-10 12 -26 12t-30 -12l-76 -63q-14 -12 -30 -11.5t-26 11.5z" />
    <glyph glyph-name="Edieresis" unicode="&#xcb;" 
d="M151 655q3 17 17 28.5t31 11.5h380q16 0 25.5 -11.5t6.5 -28.5l-3 -20q-3 -17 -17 -28.5t-30 -11.5h-277q-16 0 -30 -11.5t-17 -28.5l-21 -118q-3 -16 6.5 -28t26.5 -12h104q17 0 26.5 -12t6.5 -28l-3 -19q-3 -17 -17 -28.5t-30 -11.5h-104q-17 0 -31 -11.5t-17 -28.5
l-20 -118q-3 -16 6.5 -28t26.5 -12h277q16 0 25.5 -11.5t7.5 -28.5l-4 -20q-3 -17 -17 -28.5t-30 -11.5h-380q-17 0 -26.5 12t-6.5 28zM532 895q29 0 45 -20t11 -48t-29 -47.5t-51 -19.5t-43.5 20t-11.5 47q5 28 28 48t51 20zM316 895q29 0 45 -20t11 -48t-29 -47.5
t-51 -19.5t-43.5 20t-11.5 47q5 28 28 48t51 20z" />
    <glyph glyph-name="Igrave" unicode="&#xcc;" 
d="M151 655q3 17 17 28.5t31 11.5h380q16 0 25.5 -11.5t6.5 -28.5l-3 -20q-3 -17 -17 -28.5t-30 -11.5h-100q-16 0 -30 -11.5t-17 -28.5l-73 -415q-3 -16 6.5 -28t26.5 -12h100q16 0 25.5 -11.5t7.5 -28.5l-4 -20q-3 -17 -17 -28.5t-30 -11.5h-380q-17 0 -26.5 12t-6.5 28
l4 20q2 16 16 28t31 12h99q16 0 30 11.5t17 28.5l73 415q3 16 -6.5 28t-26.5 12h-99q-17 0 -26.5 12t-6.5 28zM482 727q-14 -11 -30 -11t-26 11l-112 136q-10 11 -7 28t16 28l20 17q14 11 30 11t26 -11l113 -136q10 -11 7 -28t-17 -28z" />
    <glyph glyph-name="Iacute" unicode="&#xcd;" 
d="M151 655q3 17 17 28.5t31 11.5h380q16 0 25.5 -11.5t6.5 -28.5l-3 -20q-3 -17 -17 -28.5t-30 -11.5h-100q-16 0 -30 -11.5t-17 -28.5l-73 -415q-3 -16 6.5 -28t26.5 -12h100q16 0 25.5 -11.5t7.5 -28.5l-4 -20q-3 -17 -17 -28.5t-30 -11.5h-380q-17 0 -26.5 12t-6.5 28
l4 20q2 16 16 28t31 12h99q16 0 30 11.5t17 28.5l73 415q3 16 -6.5 28t-26.5 12h-99q-17 0 -26.5 12t-6.5 28zM292 744q-9 11 -6 28t17 28l160 136q13 11 29.5 11t26.5 -11l14 -17q10 -11 7 -28t-17 -28l-161 -136q-14 -11 -30 -11t-26 11z" />
    <glyph glyph-name="Icircumflex" unicode="&#xce;" 
d="M151 655q3 17 17 28.5t31 11.5h380q16 0 25.5 -11.5t6.5 -28.5l-3 -20q-3 -17 -17 -28.5t-30 -11.5h-100q-16 0 -30 -11.5t-17 -28.5l-73 -415q-3 -16 6.5 -28t26.5 -12h100q16 0 25.5 -11.5t7.5 -28.5l-4 -20q-3 -17 -17 -28.5t-30 -11.5h-380q-17 0 -26.5 12t-6.5 28
l4 20q2 16 16 28t31 12h99q16 0 30 11.5t17 28.5l73 415q3 16 -6.5 28t-26.5 12h-99q-17 0 -26.5 12t-6.5 28zM239 781q-10 11 -7 28t17 28l160 136q14 11 30.5 11t26.5 -11l111 -136q10 -11 7 -28t-17 -28l-18 -16q-13 -11 -30 -11t-26 11l-53 63q-10 12 -26 12t-30 -12
l-76 -63q-14 -12 -30 -11.5t-26 11.5z" />
    <glyph glyph-name="Idieresis" unicode="&#xcf;" 
d="M151 655q3 17 17 28.5t31 11.5h380q16 0 25.5 -11.5t6.5 -28.5l-3 -20q-3 -17 -17 -28.5t-30 -11.5h-100q-16 0 -30 -11.5t-17 -28.5l-73 -415q-3 -16 6.5 -28t26.5 -12h100q16 0 25.5 -11.5t7.5 -28.5l-4 -20q-3 -17 -17 -28.5t-30 -11.5h-380q-17 0 -26.5 12t-6.5 28
l4 20q2 16 16 28t31 12h99q16 0 30 11.5t17 28.5l73 415q3 16 -6.5 28t-26.5 12h-99q-17 0 -26.5 12t-6.5 28zM532 895q29 0 45 -20t11 -48t-29 -47.5t-51 -19.5t-43.5 20t-11.5 47q5 28 28 48t51 20zM316 895q29 0 45 -20t11 -48t-29 -47.5t-51 -19.5t-43.5 20t-11.5 47
q5 28 28 48t51 20z" />
    <glyph glyph-name="Ntilde" unicode="&#xd1;" 
d="M579 695q16 0 25.5 -11.5t6.5 -28.5l-108 -615q-3 -17 -17 -28.5t-30 -11.5h-32q-9 0 -19 6.5t-13 14.5l-117 322q-7 18 -24.5 21t-34.5 -8.5t-20 -31.5l-50 -284q-3 -17 -17 -28.5t-30 -11.5h-23q-17 0 -26.5 12t-6.5 28l108 615q3 17 17 28.5t31 11.5h32q8 0 18.5 -7
t12.5 -14l119 -319q6 -17 24 -20t34.5 8t19.5 31l49 281q3 17 17 28.5t31 11.5h23zM369 825h-1q-2 10 -14 10q-15 0 -17 -14q-1 -8 1 -38q2 -6 -6 -8l-64 -23q-13 -4 -16 6q-11 33 -6 60q8 46 43.5 75.5t81.5 29.5q35 0 57.5 -19.5t32 -39.5t13.5 -20q15 0 17 18q2 10 0 31
q0 7 6 9l69 26q5 2 9.5 -0.5t5.5 -7.5q6 -41 2 -64q-9 -48 -43.5 -76t-83.5 -28q-34 0 -56.5 20t-30.5 53z" />
    <glyph glyph-name="Ograve" unicode="&#xd2;" 
d="M535 220q-16 -92 -97.5 -156.5t-173.5 -64.5t-148.5 65t-40.5 156l45 254q16 91 95.5 156t171.5 65t150.5 -64.5t42.5 -156.5zM477 474q9 50 -24 85.5t-84 35.5q-50 0 -94 -35.5t-52 -85.5l-45 -254q-9 -50 22 -85.5t81 -35.5q51 0 96.5 35.5t54.5 85.5zM482 727
q-14 -11 -30 -11t-26 11l-112 136q-10 11 -7 28t16 28l20 17q14 11 30 11t26 -11l113 -136q10 -11 7 -28t-17 -28z" />
    <glyph glyph-name="Oacute" unicode="&#xd3;" 
d="M535 220q-16 -92 -97.5 -156.5t-173.5 -64.5t-148.5 65t-40.5 156l45 254q16 91 95.5 156t171.5 65t150.5 -64.5t42.5 -156.5zM477 474q9 50 -24 85.5t-84 35.5q-50 0 -94 -35.5t-52 -85.5l-45 -254q-9 -50 22 -85.5t81 -35.5q51 0 96.5 35.5t54.5 85.5zM292 744
q-9 11 -6 28t17 28l160 136q13 11 29.5 11t26.5 -11l14 -17q10 -11 7 -28t-17 -28l-161 -136q-14 -11 -30 -11t-26 11z" />
    <glyph glyph-name="Ocircumflex" unicode="&#xd4;" 
d="M535 220q-16 -92 -97.5 -156.5t-173.5 -64.5t-148.5 65t-40.5 156l45 254q16 91 95.5 156t171.5 65t150.5 -64.5t42.5 -156.5zM477 474q9 50 -24 85.5t-84 35.5q-50 0 -94 -35.5t-52 -85.5l-45 -254q-9 -50 22 -85.5t81 -35.5q51 0 96.5 35.5t54.5 85.5zM239 781
q-10 11 -7 28t17 28l160 136q14 11 30.5 11t26.5 -11l111 -136q10 -11 7 -28t-17 -28l-18 -16q-13 -11 -30 -11t-26 11l-53 63q-10 12 -26 12t-30 -12l-76 -63q-14 -12 -30 -11.5t-26 11.5z" />
    <glyph glyph-name="Otilde" unicode="&#xd5;" 
d="M535 220q-16 -92 -97.5 -156.5t-173.5 -64.5t-148.5 65t-40.5 156l45 254q16 91 95.5 156t171.5 65t150.5 -64.5t42.5 -156.5zM477 474q9 50 -24 85.5t-84 35.5q-50 0 -94 -35.5t-52 -85.5l-45 -254q-9 -50 22 -85.5t81 -35.5q51 0 96.5 35.5t54.5 85.5zM369 825h-1
q-2 10 -14 10q-15 0 -17 -14q-1 -8 1 -38q2 -6 -6 -8l-64 -23q-13 -4 -16 6q-11 33 -6 60q8 46 43.5 75.5t81.5 29.5q35 0 57.5 -19.5t32 -39.5t13.5 -20q15 0 17 18q2 10 0 31q0 7 6 9l69 26q5 2 9.5 -0.5t5.5 -7.5q6 -41 2 -64q-9 -48 -43.5 -76t-83.5 -28q-34 0 -56.5 20
t-30.5 53z" />
    <glyph glyph-name="Odieresis" unicode="&#xd6;" 
d="M535 220q-16 -92 -97.5 -156.5t-173.5 -64.5t-148.5 65t-40.5 156l45 254q16 91 95.5 156t171.5 65t150.5 -64.5t42.5 -156.5zM477 474q9 50 -24 85.5t-84 35.5q-50 0 -94 -35.5t-52 -85.5l-45 -254q-9 -50 22 -85.5t81 -35.5q51 0 96.5 35.5t54.5 85.5zM532 895
q29 0 45 -20t11 -48t-29 -47.5t-51 -19.5t-43.5 20t-11.5 47q5 28 28 48t51 20zM316 895q29 0 45 -20t11 -48t-29 -47.5t-51 -19.5t-43.5 20t-11.5 47q5 28 28 48t51 20z" />
    <glyph glyph-name="multiply" unicode="&#xd7;" 
d="M223 194q-14 -11 -30.5 -11t-26.5 11l-12 15q-10 11 -7 28t17 28l58 50q14 11 17 28t-7 28l-41 50q-9 11 -6 28t16 28l17 15q14 11 30.5 11t26.5 -11l41 -50q10 -11 26.5 -11t29.5 12l57 48q14 12 30.5 12t26.5 -11l12 -15q10 -11 7 -28t-17 -28l-58 -50q-14 -11 -17 -28
t7 -28l40 -50q10 -11 7 -28t-16 -28l-17 -15q-14 -11 -30.5 -11t-26.5 12l-40 48q-10 12 -26.5 12t-29.5 -11z" />
    <glyph glyph-name="Oslash" unicode="&#xd8;" 
d="M136 -70q-6 -10 -19 -17.5t-23 -7.5h-28q-22 0 -29.5 15.5t3.5 35.5l55 92q4 8 4.5 22t-3.5 21q-33 56 -21 129l45 254q16 91 95.5 156t171.5 65q35 0 68 -11q13 -5 21 9q41 67 47 77q12 20 32 20h35q21 0 28.5 -16t-3.5 -35l-55 -94q-4 -7 -5 -21.5t3 -20.5
q34 -60 22 -129l-45 -254q-16 -92 -97.5 -156.5t-173.5 -64.5q-34 0 -67 11q-13 4 -20 -9zM477 474q2 20 1 30v2q1 3 0 2q-29 -50 -109 -184.5t-123 -207.5q-8 -10 0 -12q14 -5 35 -5q51 0 96.5 35.5t54.5 85.5zM369 595q-50 0 -94 -35.5t-52 -85.5l-45 -254q-2 -10 -2 -27
q1 -2 4 -2l229 388q6 8 -4 10q-17 6 -36 6z" />
    <glyph glyph-name="Ugrave" unicode="&#xd9;" 
d="M579 695q16 0 25.5 -11.5t6.5 -28.5l-76 -434q-16 -92 -97.5 -156.5t-173.5 -64.5t-148.5 65t-40.5 156l76 434q3 17 17 28.5t31 11.5h23q16 0 25.5 -11.5t6.5 -28.5l-76 -434q-9 -50 22.5 -85.5t81.5 -35.5q51 0 96 35.5t54 85.5l76 434q3 17 17 28.5t31 11.5h23z
M482 727q-14 -11 -30 -11t-26 11l-112 136q-10 11 -7 28t16 28l20 17q14 11 30 11t26 -11l113 -136q10 -11 7 -28t-17 -28z" />
    <glyph glyph-name="Uacute" unicode="&#xda;" 
d="M579 695q16 0 25.5 -11.5t6.5 -28.5l-76 -434q-16 -92 -97.5 -156.5t-173.5 -64.5t-148.5 65t-40.5 156l76 434q3 17 17 28.5t31 11.5h23q16 0 25.5 -11.5t6.5 -28.5l-76 -434q-9 -50 22.5 -85.5t81.5 -35.5q51 0 96 35.5t54 85.5l76 434q3 17 17 28.5t31 11.5h23z
M292 744q-9 11 -6 28t17 28l160 136q13 11 29.5 11t26.5 -11l14 -17q10 -11 7 -28t-17 -28l-161 -136q-14 -11 -30 -11t-26 11z" />
    <glyph glyph-name="Ucircumflex" unicode="&#xdb;" 
d="M579 695q16 0 25.5 -11.5t6.5 -28.5l-76 -434q-16 -92 -97.5 -156.5t-173.5 -64.5t-148.5 65t-40.5 156l76 434q3 17 17 28.5t31 11.5h23q16 0 25.5 -11.5t6.5 -28.5l-76 -434q-9 -50 22.5 -85.5t81.5 -35.5q51 0 96 35.5t54 85.5l76 434q3 17 17 28.5t31 11.5h23z
M239 781q-10 11 -7 28t17 28l160 136q14 11 30.5 11t26.5 -11l111 -136q10 -11 7 -28t-17 -28l-18 -16q-13 -11 -30 -11t-26 11l-53 63q-10 12 -26 12t-30 -12l-76 -63q-14 -12 -30 -11.5t-26 11.5z" />
    <glyph glyph-name="Udieresis" unicode="&#xdc;" 
d="M579 695q16 0 25.5 -11.5t6.5 -28.5l-76 -434q-16 -92 -97.5 -156.5t-173.5 -64.5t-148.5 65t-40.5 156l76 434q3 17 17 28.5t31 11.5h23q16 0 25.5 -11.5t6.5 -28.5l-76 -434q-9 -50 22.5 -85.5t81.5 -35.5q51 0 96 35.5t54 85.5l76 434q3 17 17 28.5t31 11.5h23z
M532 895q29 0 45 -20t11 -48t-29 -47.5t-51 -19.5t-43.5 20t-11.5 47q5 28 28 48t51 20zM316 895q29 0 45 -20t11 -48t-29 -47.5t-51 -19.5t-43.5 20t-11.5 47q5 28 28 48t51 20z" />
    <glyph glyph-name="Yacute" unicode="&#xdd;" 
d="M383 350q-1 -1 -3 -5t-4 -9l-2 -5l-51 -291q-3 -17 -17 -28.5t-30 -11.5h-21q-17 0 -26.5 12t-6.5 28l51 291q1 2 0.5 9.5t-1.5 9.5l-109 298q-7 17 4.5 32t31.5 15h30q8 0 18.5 -6.5t12.5 -13.5l71 -179q5 -15 18.5 -16t24.5 13q25 34 72 96.5t65 87.5q14 18 37 18h31
q20 0 26 -15t-7 -32zM292 744q-9 11 -6 28t17 28l160 136q13 11 29.5 11t26.5 -11l14 -17q10 -11 7 -28t-17 -28l-161 -136q-14 -11 -30 -11t-26 11z" />
    <glyph glyph-name="germandbls" unicode="&#xdf;" 
d="M223 60q2 16 16 28t31 12h80q22 0 41.5 10.5t22.5 31.5q6 34 -38 40q-59 9 -92 44t-23 94q11 60 67 105q5 4 13 16.5t9 17.5l9 50q5 26 -11 46t-43 20t-49 -19.5t-27 -46.5l-83 -469q-3 -17 -17 -28.5t-30 -11.5h-20q-17 0 -26.5 12t-6.5 28l83 469q12 68 69 117t125 49
t108 -49t28 -117l-24 -132q-2 -12 -14 -14q-55 -9 -62 -43q-3 -17 14 -27t43 -18t50.5 -20.5t38.5 -41.5t6 -74q-11 -61 -64 -100t-115 -39h-80q-17 0 -26.5 12t-6.5 28z" />
    <glyph glyph-name="agrave" unicode="&#xe0;" 
d="M491 100q12 -2 10 -14l-11 -60q-1 -12 -10 -19t-21 -5q-53 7 -84 39q-6 5 -19 6t-20 -3q-74 -44 -149 -44q-66 0 -101 32.5t-24 97.5q7 40 32 70.5t60.5 48t73 26t74.5 8.5q28 0 56 -3q5 -1 7.5 2.5t1.5 7.5q-7 26 -27.5 41.5t-48.5 15.5q-48 0 -89 -50q-15 -17 -30 -10
l-33 17q-16 8 -17.5 22t11.5 30q79 91 176 91q79 0 125.5 -56t32.5 -135l-19 -110q-3 -18 10 -30.5t33 -15.5zM354 177q2 10 -9 12q-27 3 -54 3t-48 -4q-73 -13 -80 -53q-4 -23 8 -30t38 -7q69 0 134 58q9 8 11 21zM362 479q-14 -12 -30.5 -11.5t-26.5 11.5l-107 130
q-10 11 -7 28t16 28l17 14q13 12 29.5 12t26.5 -11l108 -131q10 -11 7 -28t-17 -28z" />
    <glyph glyph-name="aacute" unicode="&#xe1;" 
d="M491 100q12 -2 10 -14l-11 -60q-1 -12 -10 -19t-21 -5q-53 7 -84 39q-6 5 -19 6t-20 -3q-74 -44 -149 -44q-66 0 -101 32.5t-24 97.5q7 40 32 70.5t60.5 48t73 26t74.5 8.5q28 0 56 -3q5 -1 7.5 2.5t1.5 7.5q-7 26 -27.5 41.5t-48.5 15.5q-48 0 -89 -50q-15 -17 -30 -10
l-33 17q-16 8 -17.5 22t11.5 30q79 91 176 91q79 0 125.5 -56t32.5 -135l-19 -110q-3 -18 10 -30.5t33 -15.5zM354 177q2 10 -9 12q-27 3 -54 3t-48 -4q-73 -13 -80 -53q-4 -23 8 -30t38 -7q69 0 134 58q9 8 11 21zM249 493q-10 11 -7 28t17 28l153 131q14 11 30.5 11
t26.5 -12l11 -14q10 -11 7 -28t-17 -28l-153 -130q-14 -11 -30.5 -11.5t-26.5 11.5z" />
    <glyph glyph-name="acircumflex" unicode="&#xe2;" 
d="M491 100q12 -2 10 -14l-11 -60q-1 -12 -10 -19t-21 -5q-53 7 -84 39q-6 5 -19 6t-20 -3q-74 -44 -149 -44q-66 0 -101 32.5t-24 97.5q7 40 32 70.5t60.5 48t73 26t74.5 8.5q28 0 56 -3q5 -1 7.5 2.5t1.5 7.5q-7 26 -27.5 41.5t-48.5 15.5q-48 0 -89 -50q-15 -17 -30 -10
l-33 17q-16 8 -17.5 22t11.5 30q79 91 176 91q79 0 125.5 -56t32.5 -135l-19 -110q-3 -18 10 -30.5t33 -15.5zM354 177q2 10 -9 12q-27 3 -54 3t-48 -4q-73 -13 -80 -53q-4 -23 8 -30t38 -7q69 0 134 58q9 8 11 21zM196 530q-9 11 -6 28t17 28l153 130q14 11 30.5 11
t25.5 -11l108 -130q10 -11 7 -28t-17 -28l-17 -15q-13 -11 -30 -11t-26 11l-49 60q-10 11 -27 11t-30 -11l-71 -60q-13 -11 -29.5 -11t-26.5 12z" />
    <glyph glyph-name="atilde" unicode="&#xe3;" 
d="M491 100q12 -2 10 -14l-11 -60q-1 -12 -10 -19t-21 -5q-53 7 -84 39q-6 5 -19 6t-20 -3q-74 -44 -149 -44q-66 0 -101 32.5t-24 97.5q7 40 32 70.5t60.5 48t73 26t74.5 8.5q28 0 56 -3q5 -1 7.5 2.5t1.5 7.5q-7 26 -27.5 41.5t-48.5 15.5q-48 0 -89 -50q-15 -17 -30 -10
l-33 17q-16 8 -17.5 22t11.5 30q79 91 176 91q79 0 125.5 -56t32.5 -135l-19 -110q-3 -18 10 -30.5t33 -15.5zM354 177q2 10 -9 12q-27 3 -54 3t-48 -4q-73 -13 -80 -53q-4 -23 8 -30t38 -7q69 0 134 58q9 8 11 21zM322 569l-1 6q-3 8 -13 8q-14 0 -18 -14q-1 -6 2 -37
q2 -5 -5 -7l-63 -23q-13 -4 -15 6q-11 33 -6 58q8 46 42 74t79 28q25 0 45 -12t28.5 -26.5t16 -26.5t10.5 -12q12 0 17 19v30q-2 6 5 8l67 25q5 2 9.5 -0.5t5.5 -7.5q6 -38 1 -62q-8 -46 -42 -73.5t-80 -27.5q-64 0 -85 67z" />
    <glyph glyph-name="adieresis" unicode="&#xe4;" 
d="M491 100q12 -2 10 -14l-11 -60q-1 -12 -10 -19t-21 -5q-53 7 -84 39q-6 5 -19 6t-20 -3q-74 -44 -149 -44q-66 0 -101 32.5t-24 97.5q7 40 32 70.5t60.5 48t73 26t74.5 8.5q28 0 56 -3q5 -1 7.5 2.5t1.5 7.5q-7 26 -27.5 41.5t-48.5 15.5q-48 0 -89 -50q-15 -17 -30 -10
l-33 17q-16 8 -17.5 22t11.5 30q79 91 176 91q79 0 125.5 -56t32.5 -135l-19 -110q-3 -18 10 -30.5t33 -15.5zM354 177q2 10 -9 12q-27 3 -54 3t-48 -4q-73 -13 -80 -53q-4 -23 8 -30t38 -7q69 0 134 58q9 8 11 21zM480 642q27 0 43.5 -19.5t11.5 -46.5t-28 -46.5t-50 -19.5
q-26 0 -42 20t-11 46t27.5 46t48.5 20zM270 642q27 0 43.5 -19.5t11.5 -46.5t-28 -46.5t-50 -19.5t-42.5 20t-10.5 46q5 27 27 46.5t49 19.5z" />
    <glyph glyph-name="aring" unicode="&#xe5;" 
d="M491 100q12 -2 10 -14l-11 -60q-1 -12 -10 -19t-21 -5q-53 7 -84 39q-6 5 -19 6t-20 -3q-74 -44 -149 -44q-66 0 -101 32.5t-24 97.5q7 40 32 70.5t60.5 48t73 26t74.5 8.5q28 0 56 -3q5 -1 7.5 2.5t1.5 7.5q-7 26 -27.5 41.5t-48.5 15.5q-48 0 -89 -50q-15 -17 -30 -10
l-33 17q-16 8 -17.5 22t11.5 30q79 91 176 91q79 0 125.5 -56t32.5 -135l-19 -110q-3 -18 10 -30.5t33 -15.5zM354 177q2 10 -9 12q-27 3 -54 3t-48 -4q-73 -13 -80 -53q-4 -23 8 -30t38 -7q69 0 134 58q9 8 11 21zM391 732q57 0 90 -40t23 -97q-10 -56 -57.5 -96.5
t-103.5 -40.5t-89.5 40.5t-23.5 96.5t57.5 96.5t103.5 40.5zM360 557q16 0 29 11t16 27t-6 27t-25 11t-29 -11t-16 -27t6 -27t25 -11z" />
    <glyph glyph-name="ae" unicode="&#xe6;" 
d="M357 173q-14 0 -14 -13q0 -60 37 -60q22 0 47 43q4 8 14 8h25q9 0 19 -5l9 -6q19 -12 5 -33q-65 -107 -142 -107q-53 0 -79 29q-3 4 -11.5 5t-13.5 -3q-42 -31 -98 -31t-79.5 36t-13.5 94q13 76 61 113.5t121 33.5q15 0 17 11q5 59 -30 59q-29 0 -52 -48q-5 -11 -15 -7
l-45 16q-30 10 -14 37q61 102 141 102q45 0 74 -32q4 -4 12 -4t12 4q36 32 89 32q40 0 63.5 -21t30 -57t5.5 -69.5t-8 -71.5q-3 -24 -9 -46q-2 -9 -12 -9h-146zM162 133q-2 -14 4 -23.5t20 -9.5q17 0 32.5 13t18.5 30l4 24q2 6 -5 8h-7q-60 0 -67 -42zM425 274q10 0 10 8
q6 65 -20 65q-31 0 -51 -61q-3 -12 7 -12h54z" />
    <glyph glyph-name="ccedilla" unicode="&#xe7;" 
d="M490 167q13 -6 15 -18t-8 -26q-54 -71 -130 -103q-10 -4 -8 -12q6 -25 2 -50q-11 -60 -61 -99.5t-110 -39.5q-29 0 -63 12q-11 6 -5 17l44 77q2 6 7 3q27 -10 39 -10q17 0 31 11.5t17 28.5q6 37 -32 46q-78 14 -121 76t-29 143q17 94 97 159t174 65q61 0 108.5 -31.5
t72.5 -84.5q7 -17 0 -31.5t-26 -22.5l-37 -14q-9 -3 -20 2t-15 13q-14 31 -40.5 50t-60.5 19q-52 0 -96 -36t-54 -88q-9 -52 23 -87.5t84 -35.5q69 0 124 67q7 8 20.5 13.5t21.5 2.5z" />
    <glyph glyph-name="egrave" unicode="&#xe8;" 
d="M362 479q-14 -12 -30.5 -11.5t-26.5 11.5l-107 130q-10 11 -7 28t16 28l17 14q13 12 29.5 12t26.5 -11l108 -131q10 -11 7 -28t-17 -28zM204 173q-10 0 -14.5 -7t-0.5 -14q29 -52 91 -52q48 0 93 37q4 3 17.5 9t17.5 6h33q8 0 18 -5l11 -6q8 -5 8.5 -15t-7.5 -18
q-42 -49 -97 -78.5t-112 -29.5q-92 0 -146 65.5t-38 157.5q17 92 94 158t169 66q94 0 146 -68.5t35 -163.5q-3 -16 -9 -35q-2 -7 -10 -7h-299zM400 274q10 0 14.5 7t-0.5 14q-28 52 -91 52q-61 0 -109 -51q-7 -9 -4.5 -15.5t12.5 -6.5h178z" />
    <glyph glyph-name="eacute" unicode="&#xe9;" 
d="M249 493q-10 11 -7 28t17 28l153 131q14 11 30.5 11t26.5 -12l11 -14q10 -11 7 -28t-17 -28l-153 -130q-14 -11 -30.5 -11.5t-26.5 11.5zM204 173q-10 0 -14.5 -7t-0.5 -14q29 -52 91 -52q48 0 93 37q4 3 17.5 9t17.5 6h33q8 0 18 -5l11 -6q8 -5 8.5 -15t-7.5 -18
q-42 -49 -97 -78.5t-112 -29.5q-92 0 -146 65.5t-38 157.5q17 92 94 158t169 66q94 0 146 -68.5t35 -163.5q-3 -16 -9 -35q-2 -7 -10 -7h-299zM400 274q10 0 14.5 7t-0.5 14q-28 52 -91 52q-61 0 -109 -51q-7 -9 -4.5 -15.5t12.5 -6.5h178z" />
    <glyph glyph-name="ecircumflex" unicode="&#xea;" 
d="M196 530q-9 11 -6 28t17 28l153 130q14 11 30.5 11t25.5 -11l108 -130q10 -11 7 -28t-17 -28l-17 -15q-13 -11 -30 -11t-26 11l-49 60q-10 11 -27 11t-30 -11l-71 -60q-13 -11 -29.5 -11t-26.5 12zM204 173q-10 0 -14.5 -7t-0.5 -14q29 -52 91 -52q48 0 93 37q4 3 17.5 9
t17.5 6h33q8 0 18 -5l11 -6q8 -5 8.5 -15t-7.5 -18q-42 -49 -97 -78.5t-112 -29.5q-92 0 -146 65.5t-38 157.5q17 92 94 158t169 66q94 0 146 -68.5t35 -163.5q-3 -16 -9 -35q-2 -7 -10 -7h-299zM400 274q10 0 14.5 7t-0.5 14q-28 52 -91 52q-61 0 -109 -51
q-7 -9 -4.5 -15.5t12.5 -6.5h178z" />
    <glyph glyph-name="edieresis" unicode="&#xeb;" 
d="M480 642q27 0 43.5 -19.5t11.5 -46.5t-28 -46.5t-50 -19.5q-26 0 -42 20t-11 46t27.5 46t48.5 20zM270 642q27 0 43.5 -19.5t11.5 -46.5t-28 -46.5t-50 -19.5t-42.5 20t-10.5 46q5 27 27 46.5t49 19.5zM204 173q-10 0 -14.5 -7t-0.5 -14q29 -52 91 -52q48 0 93 37
q4 3 17.5 9t17.5 6h33q8 0 18 -5l11 -6q8 -5 8.5 -15t-7.5 -18q-42 -49 -97 -78.5t-112 -29.5q-92 0 -146 65.5t-38 157.5q17 92 94 158t169 66q94 0 146 -68.5t35 -163.5q-3 -16 -9 -35q-2 -7 -10 -7h-299zM400 274q10 0 14.5 7t-0.5 14q-28 52 -91 52q-61 0 -109 -51
q-7 -9 -4.5 -15.5t12.5 -6.5h178z" />
    <glyph glyph-name="igrave" unicode="&#xec;" 
d="M337 140q-3 -16 6.5 -28t26.5 -12h94q16 0 25.5 -11.5t7.5 -28.5l-4 -20q-3 -17 -17 -28.5t-30 -11.5h-367q-17 0 -26.5 12t-6.5 28l4 20q2 16 16 28t31 12h93q16 0 30 11.5t17 28.5l29 167q3 16 -6.5 28t-26.5 12h-49q-17 0 -26.5 12t-6.5 28l4 20q3 17 17 28.5t30 11.5
h149q17 0 26.5 -12t6.5 -28zM434 479q-14 -11 -30.5 -11t-26.5 11l-108 130q-10 11 -7 28t17 28l17 15q14 11 30 11t26 -11l108 -131q9 -11 6 -28t-16 -28z" />
    <glyph glyph-name="iacute" unicode="&#xed;" 
d="M337 140q-3 -16 6.5 -28t26.5 -12h94q16 0 25.5 -11.5t7.5 -28.5l-4 -20q-3 -17 -17 -28.5t-30 -11.5h-367q-17 0 -26.5 12t-6.5 28l4 20q2 16 16 28t31 12h93q16 0 30 11.5t17 28.5l29 167q3 16 -6.5 28t-26.5 12h-49q-17 0 -26.5 12t-6.5 28l4 20q3 17 17 28.5t30 11.5
h149q17 0 26.5 -12t6.5 -28zM249 493q-10 11 -7 28t17 28l153 131q14 11 30.5 11t26.5 -12l11 -14q10 -11 7 -28t-17 -28l-153 -130q-14 -11 -30.5 -11.5t-26.5 11.5z" />
    <glyph glyph-name="icircumflex" unicode="&#xee;" 
d="M337 140q-3 -16 6.5 -28t26.5 -12h94q16 0 25.5 -11.5t7.5 -28.5l-4 -20q-3 -17 -17 -28.5t-30 -11.5h-367q-17 0 -26.5 12t-6.5 28l4 20q2 16 16 28t31 12h93q16 0 30 11.5t17 28.5l29 167q3 16 -6.5 28t-26.5 12h-49q-17 0 -26.5 12t-6.5 28l4 20q3 17 17 28.5t30 11.5
h149q17 0 26.5 -12t6.5 -28zM196 530q-9 11 -6 28t17 28l153 130q14 11 30.5 11t25.5 -11l108 -130q10 -11 7 -28t-17 -28l-17 -15q-13 -11 -30 -11t-26 11l-49 60q-10 11 -27 11t-30 -11l-71 -60q-13 -11 -29.5 -11t-26.5 12z" />
    <glyph glyph-name="idieresis" unicode="&#xef;" 
d="M337 140q-3 -16 6.5 -28t26.5 -12h94q16 0 25.5 -11.5t7.5 -28.5l-4 -20q-3 -17 -17 -28.5t-30 -11.5h-367q-17 0 -26.5 12t-6.5 28l4 20q2 16 16 28t31 12h93q16 0 30 11.5t17 28.5l29 167q3 16 -6.5 28t-26.5 12h-49q-17 0 -26.5 12t-6.5 28l4 20q3 17 17 28.5t30 11.5
h149q17 0 26.5 -12t6.5 -28zM480 642q27 0 43.5 -19.5t11.5 -46.5t-28 -46.5t-50 -19.5q-26 0 -42 20t-11 46t27.5 46t48.5 20zM270 642q27 0 43.5 -19.5t11.5 -46.5t-28 -46.5t-50 -19.5t-42.5 20t-10.5 46q5 27 27 46.5t49 19.5z" />
    <glyph glyph-name="ntilde" unicode="&#xf1;" 
d="M341 447q93 0 147 -65.5t37 -158.5l-32 -183q-3 -17 -17 -28.5t-30 -11.5h-20q-17 0 -26.5 12t-6.5 28l32 183q9 52 -20.5 88t-81.5 36q-51 0 -93.5 -36t-51.5 -87l-32 -184q-3 -17 -17 -28.5t-30 -11.5h-20q-17 0 -26.5 12t-6.5 28l65 367q3 17 17 28.5t30 11.5h41
q7 0 12 -5.5t3 -13.5q-1 -6 4.5 -9t11.5 0q54 28 111 28zM322 569l-1 6q-3 8 -13 8q-14 0 -18 -14q-1 -6 2 -37q2 -5 -5 -7l-63 -23q-13 -4 -15 6q-11 33 -6 58q8 46 42 74t79 28q25 0 45 -12t28.5 -26.5t16 -26.5t10.5 -12q12 0 17 19v30q-2 6 5 8l67 25q5 2 9.5 -0.5
t5.5 -7.5q6 -38 1 -62q-8 -46 -42 -73.5t-80 -27.5q-64 0 -85 67z" />
    <glyph glyph-name="ograve" unicode="&#xf2;" 
d="M341 447q93 0 147 -65.5t37 -158.5q-16 -92 -93.5 -157.5t-169.5 -65.5t-146 65.5t-38 157.5q17 92 94 158t169 66zM280 100q51 0 93.5 36t51.5 87q9 52 -20.5 88t-81.5 36q-51 0 -93.5 -36.5t-51.5 -87.5t21 -87t81 -36zM434 479q-14 -11 -30.5 -11t-26.5 11l-108 130
q-10 11 -7 28t17 28l17 15q14 11 30 11t26 -11l108 -131q9 -11 6 -28t-16 -28z" />
    <glyph glyph-name="oacute" unicode="&#xf3;" 
d="M341 447q93 0 147 -65.5t37 -158.5q-16 -92 -93.5 -157.5t-169.5 -65.5t-146 65.5t-38 157.5q17 92 94 158t169 66zM280 100q51 0 93.5 36t51.5 87q9 52 -20.5 88t-81.5 36q-51 0 -93.5 -36.5t-51.5 -87.5t21 -87t81 -36zM249 493q-10 11 -7 28t17 28l153 131
q14 11 30.5 11t26.5 -12l11 -14q10 -11 7 -28t-17 -28l-153 -130q-14 -11 -30.5 -11.5t-26.5 11.5z" />
    <glyph glyph-name="ocircumflex" unicode="&#xf4;" 
d="M341 447q93 0 147 -65.5t37 -158.5q-16 -92 -93.5 -157.5t-169.5 -65.5t-146 65.5t-38 157.5q17 92 94 158t169 66zM280 100q51 0 93.5 36t51.5 87q9 52 -20.5 88t-81.5 36q-51 0 -93.5 -36.5t-51.5 -87.5t21 -87t81 -36zM196 530q-9 11 -6 28t17 28l153 130
q14 11 30.5 11t25.5 -11l108 -130q10 -11 7 -28t-17 -28l-17 -15q-13 -11 -30 -11t-26 11l-49 60q-10 11 -27 11t-30 -11l-71 -60q-13 -11 -29.5 -11t-26.5 12z" />
    <glyph glyph-name="otilde" unicode="&#xf5;" 
d="M341 447q93 0 147 -65.5t37 -158.5q-16 -92 -93.5 -157.5t-169.5 -65.5t-146 65.5t-38 157.5q17 92 94 158t169 66zM280 100q51 0 93.5 36t51.5 87q9 52 -20.5 88t-81.5 36q-51 0 -93.5 -36.5t-51.5 -87.5t21 -87t81 -36zM321 573q-3 10 -14 10q-15 0 -18 -14
q-1 -6 2 -37q2 -5 -5 -7l-63 -23q-13 -4 -15 6q-11 33 -6 58q8 46 42 74t79 28q33 0 55 -19t32 -38.5t13 -19.5q7 0 12 7t6 13q1 11 -1 29q-2 6 5 8l67 25q5 2 9.5 -0.5t5.5 -7.5q6 -38 1 -62q-8 -46 -42 -73.5t-80 -27.5q-66 0 -85 71z" />
    <glyph glyph-name="odieresis" unicode="&#xf6;" 
d="M341 447q93 0 147 -65.5t37 -158.5q-16 -92 -93.5 -157.5t-169.5 -65.5t-146 65.5t-38 157.5q17 92 94 158t169 66zM280 100q51 0 93.5 36t51.5 87q9 52 -20.5 88t-81.5 36q-51 0 -93.5 -36.5t-51.5 -87.5t21 -87t81 -36zM480 642q27 0 43.5 -19.5t11.5 -46.5t-28 -46.5
t-50 -19.5q-26 0 -42 20t-11 46t27.5 46t48.5 20zM270 642q27 0 43.5 -19.5t11.5 -46.5t-28 -46.5t-50 -19.5t-42.5 20t-10.5 46q5 27 27 46.5t49 19.5z" />
    <glyph glyph-name="divide" unicode="&#xf7;" 
d="M369 200q-5 -28 -28.5 -48.5t-51.5 -20.5t-44.5 20.5t-11.5 48.5q5 27 29 47t51 20t44 -20t12 -47zM420 487q-5 -28 -28.5 -48t-51.5 -20t-44.5 20t-11.5 48q4 27 28.5 47t51.5 20t43.5 -19.5t12.5 -47.5zM164 357q3 17 17 28.5t30 11.5h250q17 0 26.5 -12t6.5 -28
l-3 -19q-3 -17 -17 -28.5t-30 -11.5h-250q-17 0 -26.5 11.5t-6.5 28.5z" />
    <glyph glyph-name="oslash" unicode="&#xf8;" 
d="M138 -52q-5 -6 -17.5 -12t-19.5 -6h-34q-19 0 -25 15t8 32l49 59q7 8 7.5 24.5t-4.5 23.5q-38 62 -24 139q17 92 94 158t169 66q37 0 70 -12q4 -2 11 0.5t10 6.5q33 39 35 41q10 12 22 12h43q20 0 25.5 -15.5t-7.5 -31.5l-39 -47q-6 -8 -7.5 -24t2.5 -23q33 -59 19 -131
q-16 -92 -93.5 -157.5t-169.5 -65.5q-29 0 -59 8q-13 4 -22 -7zM323 347q-51 0 -93.5 -36.5t-51.5 -87.5q-7 -37 6 -64q5 -12 16 1l148 179q4 3 -1 5q-12 3 -24 3zM280 100q51 0 93.5 36t51.5 87q6 29 -3 55q-4 11 -8 5q-23 -29 -71.5 -86t-71.5 -86q-7 -10 0 -10z" />
    <glyph glyph-name="ugrave" unicode="&#xf9;" 
d="M263 0q-93 0 -147 65.5t-38 158.5l33 183q3 17 17 28.5t30 11.5h20q17 0 26.5 -12t6.5 -28l-33 -183q-9 -52 21 -88t82 -36q51 0 93 36t51 87l33 184q3 17 17 28.5t30 11.5h20q17 0 26.5 -12t6.5 -28l-65 -367q-3 -17 -17 -28.5t-30 -11.5h-41q-7 0 -12 5.5t-4 13.5
q1 6 -4 9t-11 0q-54 -28 -111 -28zM434 479q-14 -11 -30.5 -11t-26.5 11l-108 130q-10 11 -7 28t17 28l17 15q14 11 30 11t26 -11l108 -131q9 -11 6 -28t-16 -28z" />
    <glyph glyph-name="uacute" unicode="&#xfa;" 
d="M263 0q-93 0 -147 65.5t-38 158.5l33 183q3 17 17 28.5t30 11.5h20q17 0 26.5 -12t6.5 -28l-33 -183q-9 -52 21 -88t82 -36q51 0 93 36t51 87l33 184q3 17 17 28.5t30 11.5h20q17 0 26.5 -12t6.5 -28l-65 -367q-3 -17 -17 -28.5t-30 -11.5h-41q-7 0 -12 5.5t-4 13.5
q1 6 -4 9t-11 0q-54 -28 -111 -28zM249 493q-10 11 -7 28t17 28l153 131q14 11 30.5 11t26.5 -12l11 -14q10 -11 7 -28t-17 -28l-153 -130q-14 -11 -30.5 -11.5t-26.5 11.5z" />
    <glyph glyph-name="ucircumflex" unicode="&#xfb;" 
d="M263 0q-93 0 -147 65.5t-38 158.5l33 183q3 17 17 28.5t30 11.5h20q17 0 26.5 -12t6.5 -28l-33 -183q-9 -52 21 -88t82 -36q51 0 93 36t51 87l33 184q3 17 17 28.5t30 11.5h20q17 0 26.5 -12t6.5 -28l-65 -367q-3 -17 -17 -28.5t-30 -11.5h-41q-7 0 -12 5.5t-4 13.5
q1 6 -4 9t-11 0q-54 -28 -111 -28zM196 530q-9 11 -6 28t17 28l153 130q14 11 30.5 11t25.5 -11l108 -130q10 -11 7 -28t-17 -28l-17 -15q-13 -11 -30 -11t-26 11l-49 60q-10 11 -27 11t-30 -11l-71 -60q-13 -11 -29.5 -11t-26.5 12z" />
    <glyph glyph-name="udieresis" unicode="&#xfc;" 
d="M263 0q-93 0 -147 65.5t-38 158.5l33 183q3 17 17 28.5t30 11.5h20q17 0 26.5 -12t6.5 -28l-33 -183q-9 -52 21 -88t82 -36q51 0 93 36t51 87l33 184q3 17 17 28.5t30 11.5h20q17 0 26.5 -12t6.5 -28l-65 -367q-3 -17 -17 -28.5t-30 -11.5h-41q-7 0 -12 5.5t-4 13.5
q1 6 -4 9t-11 0q-54 -28 -111 -28zM480 642q27 0 43.5 -19.5t11.5 -46.5t-28 -46.5t-50 -19.5q-26 0 -42 20t-11 46t27.5 46t48.5 20zM270 642q27 0 43.5 -19.5t11.5 -46.5t-28 -46.5t-50 -19.5t-42.5 20t-10.5 46q5 27 27 46.5t49 19.5z" />
    <glyph glyph-name="yacute" unicode="&#xfd;" 
d="M452 423q6 9 18.5 16.5t22.5 7.5h27q21 0 28 -15t-4 -34l-361 -602q-5 -9 -18 -16.5t-23 -7.5h-26q-20 0 -27.5 15t3.5 34l112 186q9 18 6 26q-58 240 -88 361q-5 19 7.5 36t32.5 17h27q11 0 21 -7.5t12 -17.5l45 -185q6 -26 32 -26.5t42 25.5zM249 493q-10 11 -7 28
t17 28l153 131q14 11 30.5 11t26.5 -12l11 -14q10 -11 7 -28t-17 -28l-153 -130q-14 -11 -30.5 -11.5t-26.5 11.5z" />
    <glyph glyph-name="ydieresis" unicode="&#xff;" 
d="M452 423q6 9 18.5 16.5t22.5 7.5h27q21 0 28 -15t-4 -34l-361 -602q-5 -9 -18 -16.5t-23 -7.5h-26q-20 0 -27.5 15t3.5 34l112 186q9 18 6 26q-58 240 -88 361q-5 19 7.5 36t32.5 17h27q11 0 21 -7.5t12 -17.5l45 -185q6 -26 32 -26.5t42 25.5zM270 642q27 0 43.5 -19.5
t11.5 -46.5t-28 -46.5t-50 -19.5t-42.5 20t-10.5 46q5 27 27 46.5t49 19.5zM480 642q27 0 43.5 -19.5t11.5 -46.5t-28 -46.5t-50 -19.5q-26 0 -42 20t-11 46t27.5 46t48.5 20z" />
    <glyph glyph-name="Amacron" unicode="&#x100;" 
d="M424 0q-13 0 -22.5 9t-11.5 21l-9 111q-2 12 -11.5 21t-22.5 9h-101q-12 0 -25.5 -9t-18.5 -21l-49 -111q-5 -12 -18 -21t-26 -9h-25q-21 0 -29.5 15t0.5 35l274 614q5 12 18.5 21t25.5 9h33q12 0 22 -9t11 -21l58 -614q2 -20 -12 -35t-35 -15h-26zM282 321q-9 -20 0 -35
t30 -15h21q14 0 24 11.5t9 25.5q-2 23 -5.5 68.5t-5.5 67.5q-1 8 -8 8.5t-11 -6.5zM252 858q3 17 17 28.5t30 11.5h250q17 0 26.5 -12t6.5 -28l-3 -19q-3 -17 -17 -28.5t-30 -11.5h-250q-17 0 -26.5 12t-6.5 28z" />
    <glyph glyph-name="amacron" unicode="&#x101;" 
d="M491 100q12 -2 10 -14l-11 -60q-1 -12 -10 -19t-21 -5q-53 7 -84 39q-6 5 -19 6t-20 -3q-74 -44 -149 -44q-66 0 -101 32.5t-24 97.5q7 40 32 70.5t60.5 48t73 26t74.5 8.5q28 0 56 -3q5 -1 7.5 2.5t1.5 7.5q-7 26 -27.5 41.5t-48.5 15.5q-48 0 -89 -50q-15 -17 -30 -10
l-33 17q-16 8 -17.5 22t11.5 30q79 91 176 91q79 0 125.5 -56t32.5 -135l-19 -110q-3 -18 10 -30.5t33 -15.5zM354 177q2 10 -9 12q-27 3 -54 3t-48 -4q-73 -13 -80 -53q-4 -23 8 -30t38 -7q69 0 134 58q9 8 11 21zM209 604q2 17 16 28.5t31 11.5h240q16 0 25.5 -11.5
t7.5 -28.5l-3 -16q-3 -17 -17 -28.5t-30 -11.5h-240q-17 0 -26.5 12t-6.5 28z" />
    <glyph glyph-name="Abreve" unicode="&#x102;" 
d="M424 0q-13 0 -22.5 9t-11.5 21l-9 111q-2 12 -11.5 21t-22.5 9h-101q-12 0 -25.5 -9t-18.5 -21l-49 -111q-5 -12 -18 -21t-26 -9h-25q-21 0 -29.5 15t0.5 35l274 614q5 12 18.5 21t25.5 9h33q12 0 22 -9t11 -21l58 -614q2 -20 -12 -35t-35 -15h-26zM282 321q-9 -20 0 -35
t30 -15h21q14 0 24 11.5t9 25.5q-2 23 -5.5 68.5t-5.5 67.5q-1 8 -8 8.5t-11 -6.5zM528 913q21 0 28.5 -10.5t-0.5 -30.5q-21 -50 -64 -84t-93 -34q-51 0 -81.5 34t-33.5 84q-1 19 10 30t32 11h50q11 0 11 -12q-2 -45 30 -45q16 0 28 14t18 32q4 11 14 11h51z" />
    <glyph glyph-name="abreve" unicode="&#x103;" 
d="M491 100q12 -2 10 -14l-11 -60q-1 -12 -10 -19t-21 -5q-53 7 -84 39q-6 5 -19 6t-20 -3q-74 -44 -149 -44q-66 0 -101 32.5t-24 97.5q7 40 32 70.5t60.5 48t73 26t74.5 8.5q28 0 56 -3q5 -1 7.5 2.5t1.5 7.5q-7 26 -27.5 41.5t-48.5 15.5q-48 0 -89 -50q-15 -17 -30 -10
l-33 17q-16 8 -17.5 22t11.5 30q79 91 176 91q79 0 125.5 -56t32.5 -135l-19 -110q-3 -18 10 -30.5t33 -15.5zM354 177q2 10 -9 12q-27 3 -54 3t-48 -4q-73 -13 -80 -53q-4 -23 8 -30t38 -7q69 0 134 58q9 8 11 21zM477 659q20 0 27 -10.5t-1 -29.5q-21 -49 -62 -82t-90 -33
t-79 33t-33 82q-1 19 10 29.5t31 10.5h49q4 0 7 -3.5t3 -7.5q0 -45 29 -45q16 0 28 13.5t17 31.5q4 11 14 11h50z" />
    <glyph glyph-name="Aogonek" unicode="&#x104;" 
d="M464 0q-9 0 -17 -4q-23 -15 -28 -39q-3 -18 7 -29.5t28 -11.5q10 0 43 10q6 2 8 -4l17 -78q2 -13 -11 -18q-39 -12 -70 -12q-64 0 -100 40t-25 103q11 56 53 93q5 4 11.5 17t6.5 19l-5 55q-2 12 -11.5 21t-22.5 9h-101q-12 0 -25.5 -9t-18.5 -21l-49 -111q-5 -12 -18 -21
t-26 -9h-25q-21 0 -29.5 15t0.5 35l274 614q5 12 18.5 21t25.5 9h33q12 0 22 -9t11 -21l61 -641q1 -9 -5.5 -16t-16.5 -7h-15zM282 321q-9 -20 0 -35t30 -15h22q14 0 24 11.5t9 25.5q-2 23 -6 68.5t-6 67.5q-1 7 -8 7.5t-11 -6.5z" />
    <glyph glyph-name="aogonek" unicode="&#x105;" 
d="M492 100q12 -2 10 -14l-13 -72q-2 -14 -16 -14h-6q-9 0 -17 -4q-25 -14 -28 -38q-4 -18 6.5 -29t28.5 -11q8 0 41 10q5 2 7 -4l16 -76q2 -12 -11 -17q-38 -12 -67 -12q-60 0 -96 40t-25 99q8 50 40 79q8 10 3 16q-4 9 -12 1q-79 -54 -164 -54q-67 0 -102 32.5t-24 97.5
q9 52 50.5 88t90.5 50.5t99 14.5q28 0 56 -3q5 -1 7.5 2.5t1.5 7.5q-7 26 -27.5 41.5t-48.5 15.5q-48 0 -89 -50q-15 -17 -30 -10l-33 17q-16 8 -17.5 22t11.5 30q79 91 176 91q80 0 126.5 -56t32.5 -135l-19 -110q-3 -18 10 -30.5t32 -15.5zM356 177q2 10 -9 12
q-27 3 -54 3q-119 0 -130 -59q-3 -21 10.5 -28t37.5 -7q69 0 134 58q9 8 11 21z" />
    <glyph glyph-name="Cacute" unicode="&#x106;" 
d="M283 100q45 0 83.5 29.5t57.5 73.5q5 11 20.5 24t26.5 13h27q43 0 31 -38q-28 -85 -102.5 -143.5t-161.5 -58.5q-93 0 -149.5 64t-40.5 157l45 253q16 93 95.5 157t172.5 64q86 0 140 -58.5t52 -143.5q-2 -38 -44 -38h-27q-11 0 -22 13t-12 24q-3 44 -31.5 73.5
t-73.5 29.5q-51 0 -94.5 -35t-52.5 -86l-45 -253q-9 -51 22.5 -86t82.5 -35zM292 744q-9 11 -6 28t17 28l160 136q13 11 29.5 11t26.5 -11l14 -17q10 -11 7 -28t-17 -28l-161 -136q-14 -11 -30 -11t-26 11z" />
    <glyph glyph-name="cacute" unicode="&#x107;" 
d="M484 169q17 -7 19 -21.5t-11 -31.5q-43 -53 -102 -84.5t-120 -31.5q-94 0 -151 65t-41 158q17 94 97 159t174 65q61 0 108.5 -31.5t72.5 -84.5q7 -17 0 -31.5t-26 -22.5l-37 -14q-9 -3 -20 2t-15 13q-14 31 -40.5 50t-60.5 19q-52 0 -96 -36t-54 -88q-9 -52 23 -87.5
t84 -35.5q69 0 124 67q7 8 20.5 13.5t21.5 2.5zM249 493q-10 11 -7 28t17 28l153 131q14 11 30.5 11t26.5 -12l11 -14q10 -11 7 -28t-17 -28l-153 -130q-14 -11 -30.5 -11.5t-26.5 11.5z" />
    <glyph glyph-name="Ccircumflex" unicode="&#x108;" 
d="M283 100q45 0 83.5 29.5t57.5 73.5q5 11 20.5 24t26.5 13h27q43 0 31 -38q-28 -85 -102.5 -143.5t-161.5 -58.5q-93 0 -149.5 64t-40.5 157l45 253q16 93 95.5 157t172.5 64q86 0 140 -58.5t52 -143.5q-2 -38 -44 -38h-27q-11 0 -22 13t-12 24q-3 44 -31.5 73.5
t-73.5 29.5q-51 0 -94.5 -35t-52.5 -86l-45 -253q-9 -51 22.5 -86t82.5 -35zM239 781q-10 11 -7 28t17 28l160 136q14 11 30.5 11t26.5 -11l111 -136q10 -11 7 -28t-17 -28l-18 -16q-13 -11 -30 -11t-26 11l-53 63q-10 12 -26 12t-30 -12l-76 -63q-14 -12 -30 -11.5
t-26 11.5z" />
    <glyph glyph-name="ccircumflex" unicode="&#x109;" 
d="M484 169q17 -7 19 -21.5t-11 -31.5q-43 -53 -102 -84.5t-120 -31.5q-94 0 -151 65t-41 158q17 94 97 159t174 65q61 0 108.5 -31.5t72.5 -84.5q7 -17 0 -31.5t-26 -22.5l-37 -14q-9 -3 -20 2t-15 13q-14 31 -40.5 50t-60.5 19q-52 0 -96 -36t-54 -88q-9 -52 23 -87.5
t84 -35.5q69 0 124 67q7 8 20.5 13.5t21.5 2.5zM196 530q-9 11 -6 28t17 28l153 130q14 11 30.5 11t25.5 -11l108 -130q10 -11 7 -28t-17 -28l-16 -14q-13 -12 -30 -12t-27 11l-49 60q-10 11 -26.5 11t-30.5 -11l-71 -60q-13 -11 -29.5 -11t-26.5 12z" />
    <glyph glyph-name="Cdotaccent" unicode="&#x10a;" 
d="M283 100q45 0 83.5 29.5t57.5 73.5q5 11 20.5 24t26.5 13h27q43 0 31 -38q-28 -85 -102.5 -143.5t-161.5 -58.5q-93 0 -149.5 64t-40.5 157l45 253q16 93 95.5 157t172.5 64q86 0 140 -58.5t52 -143.5q-2 -38 -44 -38h-27q-11 0 -22 13t-12 24q-3 44 -31.5 73.5
t-73.5 29.5q-51 0 -94.5 -35t-52.5 -86l-45 -253q-9 -51 22.5 -86t82.5 -35zM426 905q28 0 44.5 -20t11.5 -48t-29 -47.5t-51 -19.5t-44 20t-12 47q4 28 28 48t52 20z" />
    <glyph glyph-name="cdotaccent" unicode="&#x10b;" 
d="M484 169q17 -7 19 -21.5t-11 -31.5q-43 -53 -102 -84.5t-120 -31.5q-94 0 -151 65t-41 158q17 94 97 159t174 65q61 0 108.5 -31.5t72.5 -84.5q7 -17 0 -31.5t-26 -22.5l-37 -14q-9 -3 -20 2t-15 13q-14 31 -40.5 50t-60.5 19q-52 0 -96 -36t-54 -88q-9 -52 23 -87.5
t84 -35.5q69 0 124 67q7 8 20.5 13.5t21.5 2.5zM377 651q27 0 43 -19.5t11 -46.5q-4 -27 -27 -46t-50 -19t-43 19t-11 46q5 26 27.5 46t49.5 20z" />
    <glyph glyph-name="Ccaron" unicode="&#x10c;" 
d="M283 100q45 0 83.5 29.5t57.5 73.5q5 11 20.5 24t26.5 13h27q43 0 31 -38q-28 -85 -102.5 -143.5t-161.5 -58.5q-93 0 -149.5 64t-40.5 157l45 253q16 93 95.5 157t172.5 64q86 0 140 -58.5t52 -143.5q-2 -38 -44 -38h-27q-11 0 -22 13t-12 24q-3 44 -31.5 73.5
t-73.5 29.5q-51 0 -94.5 -35t-52.5 -86l-45 -253q-9 -51 22.5 -86t82.5 -35zM289 973q14 11 30 11.5t26 -11.5l53 -63q10 -12 26 -12t30 12l75 63q14 11 30.5 11t26.5 -11l13 -16q9 -11 6 -28t-16 -28l-160 -136q-13 -11 -29.5 -11t-26.5 11l-113 136q-10 11 -7 28t17 28z
" />
    <glyph glyph-name="ccaron" unicode="&#x10d;" 
d="M484 169q17 -7 19 -21.5t-11 -31.5q-43 -53 -102 -84.5t-120 -31.5q-94 0 -151 65t-41 158q17 94 97 159t174 65q61 0 108.5 -31.5t72.5 -84.5q7 -17 0 -31.5t-26 -22.5l-37 -14q-9 -3 -20 2t-15 13q-14 31 -40.5 50t-60.5 19q-52 0 -96 -36t-54 -88q-9 -52 23 -87.5
t84 -35.5q69 0 124 67q7 8 20.5 13.5t21.5 2.5zM243 716q14 11 30.5 11.5t26.5 -11.5l50 -59q10 -12 26 -12t30 12l71 59q14 12 30.5 11.5t25.5 -11.5l12 -14q9 -11 6 -28t-16 -28l-154 -131q-13 -11 -30 -11t-26 11l-108 131q-10 11 -7 28t17 28z" />
    <glyph glyph-name="Dcaron" unicode="&#x10e;" 
d="M334 695q59 0 104 -18.5t71.5 -50.5t42 -76t15 -94.5t-8.5 -105.5q-12 -71 -39.5 -132t-69 -111t-103 -78.5t-135.5 -28.5h-135q-17 0 -26.5 12t-6.5 28l108 615q3 17 17 28.5t31 11.5h135zM229 100q49 0 89.5 22t67 59t43.5 79t25 88q10 43 6 87t-16.5 79.5t-46 58
t-81.5 22.5h-36q-15 0 -27.5 -10.5t-14.5 -25.5l-75 -423q-3 -15 6 -25.5t24 -10.5h36zM289 973q14 11 30 11.5t26 -11.5l53 -63q10 -12 26 -12t30 12l75 63q14 11 30.5 11t26.5 -11l13 -16q9 -11 6 -28t-16 -28l-160 -136q-13 -11 -29.5 -11t-26.5 11l-113 136
q-10 11 -7 28t17 28z" />
    <glyph glyph-name="Dcroat" unicode="&#x110;" 
d="M34 369q2 13 13.5 23t25.5 10q13 0 24.5 9.5t14.5 23.5l38 220q3 17 17 28.5t31 11.5h135q59 0 104 -18.5t71.5 -50.5t42 -76t15 -94.5t-8.5 -105.5q-12 -71 -39.5 -132t-69 -111t-103 -78.5t-135.5 -28.5h-135q-17 0 -26.5 12t-6.5 28l41 230q2 14 -6 23.5t-22 9.5
q-13 0 -21 9.5t-6 23.5zM228 100q49 0 89.5 22t67 59t43.5 79t25 88q10 43 6 87t-16.5 79.5t-46 58t-81.5 22.5h-36q-15 0 -27.5 -10.5t-14.5 -25.5l-21 -117q-3 -16 6.5 -28t26.5 -12h52q17 0 26.5 -12t6.5 -28l-4 -19q-2 -17 -16 -28.5t-31 -11.5h-52q-16 0 -30 -11.5
t-17 -28.5l-22 -127q-3 -15 6 -25.5t24 -10.5h36z" />
    <glyph glyph-name="dcroat" unicode="&#x111;" 
d="M375 549q3 17 17 28.5t30 11.5h30q16 0 30 11.5t17 28.5l1 6q3 17 17 28.5t30 11.5h20q17 0 26.5 -12t6.5 -28l-1 -6q-3 -16 6.5 -28t26.5 -12h30q17 0 26.5 -12t6.5 -28l-3 -16q-3 -17 -17 -28.5t-30 -11.5h-30q-16 0 -30 -11.5t-17 -28.5l-73 -413q-3 -17 -17 -28.5
t-30 -11.5h-41q-19 0 -16 19q1 5 -4 7.5t-11 0.5q-54 -27 -111 -27q-92 0 -146.5 65.5t-38.5 157.5q16 93 93.5 158.5t170.5 65.5q52 0 99 -26q5 -4 12.5 -0.5t8.5 10.5l4 22q3 16 -6.5 28t-26.5 12h-30q-17 0 -26.5 12t-6.5 28zM283 100q51 0 93 36t51 87t-20.5 87.5
t-80.5 36.5q-52 0 -94.5 -36t-51.5 -88q-9 -51 21.5 -87t81.5 -36z" />
    <glyph glyph-name="Emacron" unicode="&#x112;" 
d="M151 655q3 17 17 28.5t31 11.5h380q16 0 25.5 -11.5t6.5 -28.5l-3 -20q-3 -17 -17 -28.5t-30 -11.5h-277q-16 0 -30 -11.5t-17 -28.5l-21 -118q-3 -16 6.5 -28t26.5 -12h104q17 0 26.5 -12t6.5 -28l-3 -19q-3 -17 -17 -28.5t-30 -11.5h-104q-17 0 -31 -11.5t-17 -28.5
l-20 -118q-3 -16 6.5 -28t26.5 -12h277q16 0 25.5 -11.5t7.5 -28.5l-4 -20q-3 -17 -17 -28.5t-30 -11.5h-380q-17 0 -26.5 12t-6.5 28zM252 858q3 17 17 28.5t30 11.5h250q17 0 26.5 -12t6.5 -28l-3 -19q-3 -17 -17 -28.5t-30 -11.5h-250q-17 0 -26.5 12t-6.5 28z" />
    <glyph glyph-name="emacron" unicode="&#x113;" 
d="M209 604q2 17 16 28.5t31 11.5h240q16 0 25.5 -11.5t7.5 -28.5l-3 -16q-3 -17 -17 -28.5t-30 -11.5h-240q-17 0 -26.5 12t-6.5 28zM204 173q-10 0 -14.5 -7t-0.5 -14q29 -52 91 -52q48 0 93 37q4 3 17.5 9t17.5 6h33q8 0 18 -5l11 -6q8 -5 8.5 -15t-7.5 -18
q-42 -49 -97 -78.5t-112 -29.5q-92 0 -146 65.5t-38 157.5q17 92 94 158t169 66q94 0 146 -68.5t35 -163.5q-3 -16 -9 -35q-2 -7 -10 -7h-299zM400 274q10 0 14.5 7t-0.5 14q-28 52 -91 52q-61 0 -109 -51q-7 -9 -4.5 -15.5t12.5 -6.5h178z" />
    <glyph glyph-name="Ebreve" unicode="&#x114;" 
d="M151 655q3 17 17 28.5t31 11.5h380q16 0 25.5 -11.5t6.5 -28.5l-3 -20q-3 -17 -17 -28.5t-30 -11.5h-277q-16 0 -30 -11.5t-17 -28.5l-21 -118q-3 -16 6.5 -28t26.5 -12h104q17 0 26.5 -12t6.5 -28l-3 -19q-3 -17 -17 -28.5t-30 -11.5h-104q-17 0 -31 -11.5t-17 -28.5
l-20 -118q-3 -16 6.5 -28t26.5 -12h277q16 0 25.5 -11.5t7.5 -28.5l-4 -20q-3 -17 -17 -28.5t-30 -11.5h-380q-17 0 -26.5 12t-6.5 28zM528 913q21 0 28.5 -10.5t-0.5 -30.5q-21 -50 -64 -84t-93 -34q-51 0 -81.5 34t-33.5 84q-1 19 10 30t32 11h50q11 0 11 -12
q-2 -45 30 -45q16 0 28 14t18 32q4 11 14 11h51z" />
    <glyph glyph-name="ebreve" unicode="&#x115;" 
d="M477 659q20 0 27 -10.5t-1 -29.5q-21 -49 -62 -82t-90 -33t-79 33t-33 82q-1 19 10 29.5t31 10.5h49q4 0 7 -3.5t3 -7.5q0 -45 29 -45q16 0 28 13.5t17 31.5q4 11 14 11h50zM204 173q-10 0 -14.5 -7t-0.5 -14q29 -52 91 -52q48 0 93 37q4 3 17.5 9t17.5 6h33q8 0 18 -5
l11 -6q8 -5 8.5 -15t-7.5 -18q-42 -49 -97 -78.5t-112 -29.5q-92 0 -146 65.5t-38 157.5q17 92 94 158t169 66q94 0 146 -68.5t35 -163.5q-3 -16 -9 -35q-2 -7 -10 -7h-299zM400 274q10 0 14.5 7t-0.5 14q-28 52 -91 52q-61 0 -109 -51q-7 -9 -4.5 -15.5t12.5 -6.5h178z" />
    <glyph glyph-name="Edotaccent" unicode="&#x116;" 
d="M151 655q3 17 17 28.5t31 11.5h380q16 0 25.5 -11.5t6.5 -28.5l-3 -20q-3 -17 -17 -28.5t-30 -11.5h-277q-16 0 -30 -11.5t-17 -28.5l-21 -118q-3 -16 6.5 -28t26.5 -12h104q17 0 26.5 -12t6.5 -28l-3 -19q-3 -17 -17 -28.5t-30 -11.5h-104q-17 0 -31 -11.5t-17 -28.5
l-20 -118q-3 -16 6.5 -28t26.5 -12h277q16 0 25.5 -11.5t7.5 -28.5l-4 -20q-3 -17 -17 -28.5t-30 -11.5h-380q-17 0 -26.5 12t-6.5 28zM426 905q28 0 44.5 -20t11.5 -48t-29 -47.5t-51 -19.5t-44 20t-12 47q4 28 28 48t52 20z" />
    <glyph glyph-name="edotaccent" unicode="&#x117;" 
d="M377 651q27 0 43 -19.5t11 -46.5q-4 -27 -27 -46t-50 -19t-43 19t-11 46q5 26 27.5 46t49.5 20zM204 173q-10 0 -14.5 -7t-0.5 -14q29 -52 91 -52q48 0 93 37q4 3 17.5 9t17.5 6h33q8 0 18 -5l11 -6q8 -5 8.5 -15t-7.5 -18q-42 -49 -97 -78.5t-112 -29.5q-92 0 -146 65.5
t-38 157.5q17 92 94 158t169 66q94 0 146 -68.5t35 -163.5q-3 -16 -9 -35q-2 -7 -10 -7h-299zM400 274q10 0 14.5 7t-0.5 14q-28 52 -91 52q-61 0 -109 -51q-7 -9 -4.5 -15.5t12.5 -6.5h178z" />
    <glyph glyph-name="Eogonek" unicode="&#x118;" 
d="M151 655q3 17 17 28.5t31 11.5h380q16 0 25.5 -11.5t6.5 -28.5l-3 -20q-3 -17 -17 -28.5t-30 -11.5h-277q-16 0 -30 -11.5t-17 -28.5l-21 -118q-3 -16 6.5 -28t26.5 -12h104q17 0 26.5 -12t6.5 -28l-3 -19q-3 -17 -17 -28.5t-30 -11.5h-104q-17 0 -31 -11.5t-17 -28.5
l-20 -118q-3 -16 6.5 -28t26.5 -12h277q16 0 25.5 -11.5t7.5 -28.5l-4 -20q-3 -17 -17 -28.5t-30 -11.5h-43q-11 0 -17 -4q-25 -16 -29 -39q-3 -18 7 -29.5t28 -11.5q10 0 43 10q6 2 8 -4l17 -78q2 -13 -12 -18q-38 -12 -68 -12q-64 0 -100.5 40t-25.5 103q6 24 12 36
q2 7 -4 7h-196q-17 0 -26.5 12t-6.5 28z" />
    <glyph glyph-name="eogonek" unicode="&#x119;" 
d="M280 100q58 0 109 53q7 7 5 13.5t-11 6.5h-179q-10 0 -14.5 -7t-0.5 -14q29 -52 91 -52zM462 173q-10 0 -14 -8.5t4 -13.5l12 -7q11 -7 11.5 -19t-9.5 -24q-62 -69 -138 -92q-8 -3 -23.5 -5t-21.5 -4q-32 -11 -37 -41q-3 -17 7 -29t27 -12q8 0 41 10q5 2 7 -4l16 -76
q3 -11 -10 -17q-38 -12 -67 -12q-63 0 -97.5 39t-23.5 101q5 28 19 52q6 8 -4 16q-49 29 -71 81.5t-12 114.5q17 92 94 158t169 66q90 0 145 -66.5t39 -157.5q-1 -10 -11 -41q-4 -9 -12 -9h-40zM400 274q10 0 14.5 7t-0.5 14q-28 52 -91 52q-61 0 -109 -51q-7 -9 -4.5 -15.5
t12.5 -6.5h178z" />
    <glyph glyph-name="Ecaron" unicode="&#x11a;" 
d="M151 655q3 17 17 28.5t31 11.5h380q16 0 25.5 -11.5t6.5 -28.5l-3 -20q-3 -17 -17 -28.5t-30 -11.5h-277q-16 0 -30 -11.5t-17 -28.5l-21 -118q-3 -16 6.5 -28t26.5 -12h104q17 0 26.5 -12t6.5 -28l-3 -19q-3 -17 -17 -28.5t-30 -11.5h-104q-17 0 -31 -11.5t-17 -28.5
l-20 -118q-3 -16 6.5 -28t26.5 -12h277q16 0 25.5 -11.5t7.5 -28.5l-4 -20q-3 -17 -17 -28.5t-30 -11.5h-380q-17 0 -26.5 12t-6.5 28zM289 973q14 11 30 11.5t26 -11.5l53 -63q10 -12 26 -12t30 12l75 63q14 11 30.5 11t26.5 -11l13 -16q9 -11 6 -28t-16 -28l-160 -136
q-13 -11 -29.5 -11t-26.5 11l-113 136q-10 11 -7 28t17 28z" />
    <glyph glyph-name="ecaron" unicode="&#x11b;" 
d="M243 716q14 11 30.5 11.5t26.5 -11.5l50 -59q9 -12 25.5 -12t30.5 12l70 59q14 12 30.5 12t25.5 -12l12 -14q10 -11 7 -28t-17 -28l-153 -131q-13 -11 -30 -11t-26 11l-108 131q-10 11 -7 28t17 28zM204 173q-10 0 -14.5 -7t-0.5 -14q29 -52 91 -52q48 0 93 37
q4 3 17.5 9t17.5 6h33q8 0 18 -5l11 -6q8 -5 8.5 -15t-7.5 -18q-42 -49 -97 -78.5t-112 -29.5q-92 0 -146 65.5t-38 157.5q17 92 94 158t169 66q94 0 146 -68.5t35 -163.5q-3 -16 -9 -35q-2 -7 -10 -7h-299zM400 274q10 0 14.5 7t-0.5 14q-28 52 -91 52q-61 0 -109 -51
q-7 -9 -4.5 -15.5t12.5 -6.5h178z" />
    <glyph glyph-name="Gcircumflex" unicode="&#x11c;" 
d="M309 357q3 17 17 28.5t30 11.5h170q17 0 26.5 -12t6.5 -28l-24 -136q-16 -93 -96 -157t-174 -64q-93 0 -149.5 64t-40.5 157l45 253q16 93 95.5 157t172.5 64q86 0 140 -58.5t52 -143.5q-2 -38 -44 -38h-27q-11 0 -22 13t-12 24q-3 44 -31.5 73.5t-73.5 29.5
q-51 0 -94.5 -35t-52.5 -86l-45 -253q-9 -51 22.5 -86t82.5 -35q52 0 96 35t53 86l7 39q3 16 -6.5 27t-25.5 11h-68q-17 0 -26.5 11.5t-6.5 28.5zM239 781q-10 11 -7 28t17 28l160 136q14 11 30.5 11t26.5 -11l111 -136q10 -11 7 -28t-17 -28l-18 -16q-13 -11 -30 -11
t-26 11l-53 63q-10 12 -26 12t-30 -12l-76 -63q-14 -12 -30 -11.5t-26 11.5z" />
    <glyph glyph-name="gcircumflex" unicode="&#x11d;" 
d="M387 12q2 7 -3.5 12t-12.5 1q-56 -25 -109 -25q-92 0 -146 65.5t-38 157.5q17 92 94 158t169 66q55 0 102 -28q5 -3 11 0t7 9q4 19 23 19h41q17 0 26.5 -12t6.5 -28l-73 -412q-16 -92 -93.5 -157.5t-169.5 -65.5q-52 0 -95 26.5t-69 70.5q-8 15 -2 28.5t24 22.5l34 18
q8 4 18 1t15 -10q34 -57 92 -57q116 0 148 140zM280 100q50 0 92 34.5t52 83.5q10 54 -18.5 91.5t-82.5 37.5q-51 0 -93.5 -36.5t-51.5 -87.5t21 -87t81 -36zM196 530q-9 11 -6 28t17 28l153 130q14 11 30.5 11t25.5 -11l108 -130q10 -11 7 -28t-17 -28l-17 -15
q-13 -11 -30 -11t-26 11l-49 60q-10 11 -27 11t-30 -11l-71 -60q-13 -11 -29.5 -11t-26.5 12z" />
    <glyph glyph-name="Gbreve" unicode="&#x11e;" 
d="M309 357q3 17 17 28.5t30 11.5h170q17 0 26.5 -12t6.5 -28l-24 -136q-16 -93 -96 -157t-174 -64q-93 0 -149.5 64t-40.5 157l45 253q16 93 95.5 157t172.5 64q86 0 140 -58.5t52 -143.5q-2 -38 -44 -38h-27q-11 0 -22 13t-12 24q-3 44 -31.5 73.5t-73.5 29.5
q-51 0 -94.5 -35t-52.5 -86l-45 -253q-9 -51 22.5 -86t82.5 -35q52 0 96 35t53 86l7 39q3 16 -6.5 27t-25.5 11h-68q-17 0 -26.5 11.5t-6.5 28.5zM528 913q21 0 28.5 -10.5t-0.5 -30.5q-21 -50 -64 -84t-93 -34q-51 0 -81.5 34t-33.5 84q-1 19 10 30t32 11h50q11 0 11 -12
q-2 -45 30 -45q16 0 28 14t18 32q4 11 14 11h51z" />
    <glyph glyph-name="gbreve" unicode="&#x11f;" 
d="M387 12q2 7 -3.5 12t-12.5 1q-56 -25 -109 -25q-92 0 -146 65.5t-38 157.5q17 92 94 158t169 66q55 0 102 -28q5 -3 11 0t7 9q4 19 23 19h41q17 0 26.5 -12t6.5 -28l-73 -412q-16 -92 -93.5 -157.5t-169.5 -65.5q-52 0 -95 26.5t-69 70.5q-8 15 -2 28.5t24 22.5l34 18
q8 4 18 1t15 -10q34 -57 92 -57q116 0 148 140zM280 100q50 0 92 34.5t52 83.5q10 54 -18.5 91.5t-82.5 37.5q-51 0 -93.5 -36.5t-51.5 -87.5t21 -87t81 -36zM477 659q20 0 27 -10.5t-1 -29.5q-21 -49 -62 -82t-90 -33t-79 33t-33 82q-1 19 10 29.5t31 10.5h49q4 0 7 -3.5
t3 -7.5q0 -45 29 -45q16 0 28 13.5t17 31.5q4 11 14 11h50z" />
    <glyph glyph-name="Gdotaccent" unicode="&#x120;" 
d="M309 357q3 17 17 28.5t30 11.5h170q17 0 26.5 -12t6.5 -28l-24 -136q-16 -93 -96 -157t-174 -64q-93 0 -149.5 64t-40.5 157l45 253q16 93 95.5 157t172.5 64q86 0 140 -58.5t52 -143.5q-2 -38 -44 -38h-27q-11 0 -22 13t-12 24q-3 44 -31.5 73.5t-73.5 29.5
q-51 0 -94.5 -35t-52.5 -86l-45 -253q-9 -51 22.5 -86t82.5 -35q52 0 96 35t53 86l7 39q3 16 -6.5 27t-25.5 11h-68q-17 0 -26.5 11.5t-6.5 28.5zM426 905q28 0 44.5 -20t11.5 -48t-29 -47.5t-51 -19.5t-44 20t-12 47q4 28 28 48t52 20z" />
    <glyph glyph-name="gdotaccent" unicode="&#x121;" 
d="M387 12q2 7 -3.5 12t-12.5 1q-56 -25 -109 -25q-92 0 -146 65.5t-38 157.5q17 92 94 158t169 66q55 0 102 -28q5 -3 11 0t7 9q4 19 23 19h41q17 0 26.5 -12t6.5 -28l-73 -412q-16 -92 -93.5 -157.5t-169.5 -65.5q-52 0 -95 26.5t-69 70.5q-8 15 -2 28.5t24 22.5l34 18
q8 4 18 1t15 -10q34 -57 92 -57q116 0 148 140zM280 100q50 0 92 34.5t52 83.5q10 54 -18.5 91.5t-82.5 37.5q-51 0 -93.5 -36.5t-51.5 -87.5t21 -87t81 -36zM377 651q27 0 43 -19.5t11 -46.5q-4 -27 -27 -46t-50 -19t-43 19t-11 46q5 26 27.5 46t49.5 20z" />
    <glyph glyph-name="Gcommaaccent" unicode="&#x122;" 
d="M309 357q3 17 17 28.5t30 11.5h170q17 0 26.5 -12t6.5 -28l-24 -136q-16 -93 -96 -157t-174 -64q-93 0 -149.5 64t-40.5 157l45 253q16 93 95.5 157t172.5 64q86 0 140 -58.5t52 -143.5q-2 -38 -44 -38h-27q-11 0 -22 13t-12 24q-3 44 -31.5 73.5t-73.5 29.5
q-51 0 -94.5 -35t-52.5 -86l-45 -253q-9 -51 22.5 -86t82.5 -35q52 0 96 35t53 86l7 39q3 16 -6.5 27t-25.5 11h-68q-17 0 -26.5 11.5t-6.5 28.5zM224 -268q-17 0 -26.5 12t-6.5 28l12 71q1 3 -2 11t-5 10q-18 19 -13 52q5 28 29 47.5t51 19.5t44 -20t12 -47l-25 -144
q-3 -17 -17 -28.5t-30 -11.5h-23z" />
    <glyph glyph-name="gcommaaccent" unicode="&#x123;" 
d="M386 732q17 0 26.5 -12t6.5 -28l-12 -71q-2 -7 5 -18q19 -19 14 -50q-5 -26 -28 -45.5t-49 -19.5q-27 0 -43 19t-11 46l24 139q3 17 17 28.5t30 11.5h20zM387 12q2 7 -3.5 12t-12.5 1q-56 -25 -109 -25q-92 0 -146 65.5t-38 157.5q17 92 94 158t169 66q55 0 102 -28
q5 -3 11 0t7 9q4 19 23 19h41q17 0 26.5 -12t6.5 -28l-73 -412q-16 -92 -93.5 -157.5t-169.5 -65.5q-52 0 -95 26.5t-69 70.5q-8 15 -2 28.5t24 22.5l34 18q8 4 18 1t15 -10q34 -57 92 -57q116 0 148 140zM280 100q50 0 92 34.5t52 83.5q10 54 -18.5 91.5t-82.5 37.5
q-51 0 -93.5 -36.5t-51.5 -87.5t21 -87t81 -36z" />
    <glyph glyph-name="Hcircumflex" unicode="&#x124;" 
d="M503 40q-3 -17 -17 -28.5t-30 -11.5h-23q-17 0 -26.5 12t-6.5 28l38 218q3 17 -6.5 28.5t-25.5 11.5h-174q-17 0 -31 -11.5t-17 -28.5l-38 -218q-3 -17 -17 -28.5t-30 -11.5h-23q-17 0 -26.5 12t-6.5 28l108 615q3 17 17 28.5t31 11.5h23q16 0 25.5 -11.5t6.5 -28.5
l-38 -218q-3 -16 6.5 -28t26.5 -12h174q16 0 30 11.5t17 28.5l38 218q3 17 17 28.5t31 11.5h23q16 0 25.5 -11.5t6.5 -28.5zM239 781q-10 11 -7 28t17 28l160 136q14 11 30.5 11t26.5 -11l111 -136q10 -11 7 -28t-17 -28l-18 -16q-13 -11 -30 -11t-26 11l-53 63
q-10 12 -26 12t-30 -12l-76 -63q-14 -12 -30 -11.5t-26 11.5z" />
    <glyph glyph-name="hcircumflex" unicode="&#x125;" 
d="M493 40q-3 -17 -17 -28.5t-30 -11.5h-20q-17 0 -26.5 12t-6.5 28l32 183q9 52 -20.5 88t-81.5 36q-48 0 -91.5 -35.5t-52.5 -83.5l-33 -188q-3 -17 -17 -28.5t-30 -11.5h-20q-17 0 -26.5 12t-6.5 28l105 595q3 17 17 28.5t30 11.5h20q17 0 26.5 -12t6.5 -28l-36 -204
q-1 -7 5 -10.5t13 0.5q55 26 108 26q93 0 147 -65.5t37 -158.5zM237 758q-10 11 -7 28t17 28l153 130q14 11 30.5 11t26.5 -11l107 -130q10 -11 7 -28t-17 -28l-17 -15q-13 -11 -29.5 -11t-26.5 11l-49 60q-10 11 -26.5 11t-30.5 -11l-70 -60q-14 -11 -30.5 -11t-26.5 12z
" />
    <glyph glyph-name="hbar" unicode="&#x127;" 
d="M23 549q3 17 17 28.5t30 11.5h30q16 0 30 11.5t17 28.5l1 6q3 17 17 28.5t30 11.5h20q17 0 26.5 -12t6.5 -28l-1 -6q-3 -16 6.5 -28t26.5 -12h30q17 0 26.5 -12t6.5 -28l-3 -16q-3 -17 -17 -28.5t-30 -11.5h-30q-16 0 -30 -11.5t-17 -28.5l-4 -22q-1 -7 5 -10.5t13 0.5
q55 26 108 26q93 0 147 -65.5t37 -158.5l-32 -183q-3 -17 -17 -28.5t-30 -11.5h-20q-17 0 -26.5 12t-6.5 28l32 183q9 52 -20.5 88t-81.5 36q-48 0 -91.5 -35.5t-52.5 -83.5l-33 -188q-3 -17 -17 -28.5t-30 -11.5h-20q-17 0 -26.5 12t-6.5 28l73 413q3 16 -6.5 28t-26.5 12
h-30q-17 0 -26.5 12t-6.5 28z" />
    <glyph glyph-name="Itilde" unicode="&#x128;" 
d="M151 655q3 17 17 28.5t31 11.5h380q16 0 25.5 -11.5t6.5 -28.5l-3 -20q-3 -17 -17 -28.5t-30 -11.5h-100q-16 0 -30 -11.5t-17 -28.5l-73 -415q-3 -16 6.5 -28t26.5 -12h100q16 0 25.5 -11.5t7.5 -28.5l-4 -20q-3 -17 -17 -28.5t-30 -11.5h-380q-17 0 -26.5 12t-6.5 28
l4 20q2 16 16 28t31 12h99q16 0 30 11.5t17 28.5l73 415q3 16 -6.5 28t-26.5 12h-99q-17 0 -26.5 12t-6.5 28zM369 825h-1q-2 10 -14 10q-15 0 -17 -14q-1 -8 1 -38q2 -6 -6 -8l-64 -23q-13 -4 -16 6q-11 33 -6 60q8 46 43.5 75.5t81.5 29.5q35 0 57.5 -19.5t32 -39.5
t13.5 -20q15 0 17 18q2 10 0 31q0 7 6 9l69 26q5 2 9.5 -0.5t5.5 -7.5q6 -41 2 -64q-9 -48 -43.5 -76t-83.5 -28q-34 0 -56.5 20t-30.5 53z" />
    <glyph glyph-name="itilde" unicode="&#x129;" 
d="M337 140q-3 -16 6.5 -28t26.5 -12h94q16 0 25.5 -11.5t7.5 -28.5l-4 -20q-3 -17 -17 -28.5t-30 -11.5h-367q-17 0 -26.5 12t-6.5 28l4 20q2 16 16 28t31 12h93q16 0 30 11.5t17 28.5l29 167q3 16 -6.5 28t-26.5 12h-49q-17 0 -26.5 12t-6.5 28l4 20q3 17 17 28.5t30 11.5
h149q17 0 26.5 -12t6.5 -28zM322 569l-1 6q-3 8 -13 8q-14 0 -18 -14q-1 -6 2 -37q2 -5 -5 -7l-63 -23q-13 -4 -15 6q-11 33 -6 58q8 46 42 74t79 28q25 0 45 -12t28.5 -26.5t16 -26.5t10.5 -12q12 0 17 19v30q-2 6 5 8l67 25q5 2 9.5 -0.5t5.5 -7.5q6 -38 1 -62
q-8 -46 -42 -73.5t-80 -27.5q-64 0 -85 67z" />
    <glyph glyph-name="Imacron" unicode="&#x12a;" 
d="M151 655q3 17 17 28.5t31 11.5h380q16 0 25.5 -11.5t6.5 -28.5l-3 -20q-3 -17 -17 -28.5t-30 -11.5h-100q-16 0 -30 -11.5t-17 -28.5l-73 -415q-3 -16 6.5 -28t26.5 -12h100q16 0 25.5 -11.5t7.5 -28.5l-4 -20q-3 -17 -17 -28.5t-30 -11.5h-380q-17 0 -26.5 12t-6.5 28
l4 20q2 16 16 28t31 12h99q16 0 30 11.5t17 28.5l73 415q3 16 -6.5 28t-26.5 12h-99q-17 0 -26.5 12t-6.5 28zM252 858q3 17 17 28.5t30 11.5h250q17 0 26.5 -12t6.5 -28l-3 -19q-3 -17 -17 -28.5t-30 -11.5h-250q-17 0 -26.5 12t-6.5 28z" />
    <glyph glyph-name="imacron" unicode="&#x12b;" 
d="M337 140q-3 -16 6.5 -28t26.5 -12h94q16 0 25.5 -11.5t7.5 -28.5l-4 -20q-3 -17 -17 -28.5t-30 -11.5h-367q-17 0 -26.5 12t-6.5 28l4 20q2 16 16 28t31 12h93q16 0 30 11.5t17 28.5l29 167q3 16 -6.5 28t-26.5 12h-49q-17 0 -26.5 12t-6.5 28l4 20q3 17 17 28.5t30 11.5
h149q17 0 26.5 -12t6.5 -28zM211 624q3 17 17 28.5t30 11.5h250q17 0 26.5 -12t6.5 -28l-3 -19q-3 -17 -17 -28.5t-30 -11.5h-250q-17 0 -26.5 12t-6.5 28z" />
    <glyph glyph-name="Ibreve" unicode="&#x12c;" 
d="M151 655q3 17 17 28.5t31 11.5h380q16 0 25.5 -11.5t6.5 -28.5l-3 -20q-3 -17 -17 -28.5t-30 -11.5h-100q-16 0 -30 -11.5t-17 -28.5l-73 -415q-3 -16 6.5 -28t26.5 -12h100q16 0 25.5 -11.5t7.5 -28.5l-4 -20q-3 -17 -17 -28.5t-30 -11.5h-380q-17 0 -26.5 12t-6.5 28
l4 20q2 16 16 28t31 12h99q16 0 30 11.5t17 28.5l73 415q3 16 -6.5 28t-26.5 12h-99q-17 0 -26.5 12t-6.5 28zM528 913q21 0 28.5 -10.5t-0.5 -30.5q-21 -50 -64 -84t-93 -34q-51 0 -81.5 34t-33.5 84q-1 19 10 30t32 11h50q11 0 11 -12q-2 -45 30 -45q16 0 28 14t18 32
q4 11 14 11h51z" />
    <glyph glyph-name="ibreve" unicode="&#x12d;" 
d="M337 140q-3 -16 6.5 -28t26.5 -12h94q16 0 25.5 -11.5t7.5 -28.5l-4 -20q-3 -17 -17 -28.5t-30 -11.5h-367q-17 0 -26.5 12t-6.5 28l4 20q2 16 16 28t31 12h93q16 0 30 11.5t17 28.5l29 167q3 16 -6.5 28t-26.5 12h-49q-17 0 -26.5 12t-6.5 28l4 20q3 17 17 28.5t30 11.5
h149q17 0 26.5 -12t6.5 -28zM477 659q20 0 27 -10.5t-1 -29.5q-21 -49 -62 -82t-90 -33t-79 33t-33 82q-1 19 10 29.5t31 10.5h49q4 0 7 -3.5t3 -7.5q0 -45 29 -45q16 0 28 13.5t17 31.5q4 11 14 11h50z" />
    <glyph glyph-name="Iogonek" unicode="&#x12e;" 
d="M151 655q3 17 17 28.5t31 11.5h380q16 0 25.5 -11.5t6.5 -28.5l-3 -20q-3 -17 -17 -28.5t-30 -11.5h-100q-16 0 -30 -11.5t-17 -28.5l-73 -415q-3 -16 6.5 -28t26.5 -12h100q16 0 25.5 -11.5t7.5 -28.5l-4 -20q-3 -17 -17 -28.5t-30 -11.5h-138q-9 0 -17 -4
q-23 -15 -28 -39q-3 -18 6.5 -29.5t27.5 -11.5q16 0 44 10q6 2 8 -5l16 -77q2 -13 -12 -18q-38 -12 -68 -12q-64 0 -100 40t-25 103q6 24 11 36q3 7 -4 7h-101q-17 0 -26.5 12t-6.5 28l4 20q2 16 16 28t31 12h99q16 0 30 11.5t17 28.5l73 415q3 16 -6.5 28t-26.5 12h-99
q-17 0 -26.5 12t-6.5 28z" />
    <glyph glyph-name="iogonek" unicode="&#x12f;" 
d="M337 140q-3 -16 6.5 -28t26.5 -12h94q16 0 25.5 -11.5t7.5 -28.5l-4 -20q-3 -17 -17 -28.5t-30 -11.5h-140q-12 0 -17 -5q-24 -14 -27 -37q-3 -17 7 -28.5t27 -11.5q8 0 41 10q5 2 7 -4l16 -76q3 -11 -10 -17q-38 -12 -67 -12q-63 0 -97.5 39t-23.5 101q3 20 11 34
q2 7 -4 7h-90q-17 0 -26.5 12t-6.5 28l4 20q2 16 16 28t31 12h93q16 0 30 11.5t17 28.5l29 167q3 16 -6.5 28t-26.5 12h-49q-17 0 -26.5 12t-6.5 28l4 20q3 17 17 28.5t30 11.5h149q17 0 26.5 -12t6.5 -28zM431 582q-5 -28 -27.5 -47t-50.5 -19q-27 0 -42.5 19.5t-10.5 46.5
q4 27 26.5 46t49.5 19t43 -19t12 -46z" />
    <glyph glyph-name="Idotaccent" unicode="&#x130;" 
d="M151 655q3 17 17 28.5t31 11.5h380q16 0 25.5 -11.5t6.5 -28.5l-3 -20q-3 -17 -17 -28.5t-30 -11.5h-100q-16 0 -30 -11.5t-17 -28.5l-73 -415q-3 -16 6.5 -28t26.5 -12h100q16 0 25.5 -11.5t7.5 -28.5l-4 -20q-3 -17 -17 -28.5t-30 -11.5h-380q-17 0 -26.5 12t-6.5 28
l4 20q2 16 16 28t31 12h99q16 0 30 11.5t17 28.5l73 415q3 16 -6.5 28t-26.5 12h-99q-17 0 -26.5 12t-6.5 28zM426 905q28 0 44.5 -20t11.5 -48t-29 -47.5t-51 -19.5t-44 20t-12 47q4 28 28 48t52 20z" />
    <glyph glyph-name="dotlessi" unicode="&#x131;" 
d="M337 140q-3 -16 6.5 -28t26.5 -12h94q16 0 25.5 -11.5t7.5 -28.5l-4 -20q-3 -17 -17 -28.5t-30 -11.5h-367q-17 0 -26.5 12t-6.5 28l4 20q2 16 16 28t31 12h93q16 0 30 11.5t17 28.5l29 167q3 16 -6.5 28t-26.5 12h-49q-17 0 -26.5 12t-6.5 28l4 20q3 17 17 28.5t30 11.5
h149q17 0 26.5 -12t6.5 -28z" />
    <glyph glyph-name="Jcircumflex" unicode="&#x134;" 
d="M535 221q-16 -91 -100.5 -156t-176.5 -65q-59 0 -108 27t-79 74q-10 15 -4 30t24 25l31 16q9 5 20.5 3t16.5 -10q19 -29 50.5 -47t66.5 -18q51 0 99 35.5t57 85.5l59 334q3 16 -6.5 28t-26.5 12h-182q-17 0 -26.5 12t-6.5 28l3 20q3 17 17 28.5t31 11.5h285
q16 0 25.5 -11.5t6.5 -28.5zM239 781q-10 11 -7 28t17 28l159 136q14 11 30.5 11t26.5 -11l112 -136q10 -11 7 -28t-17 -28l-18 -16q-14 -11 -30.5 -11.5t-25.5 11.5l-54 63q-10 12 -26.5 12t-29.5 -12l-75 -63q-14 -11 -30 -11t-26 11z" />
    <glyph glyph-name="jcircumflex" unicode="&#x135;" 
d="M199 407q3 17 17 28.5t30 11.5h251q17 0 26.5 -12t6.5 -28l-73 -412q-17 -92 -94 -158t-169 -66q-107 0 -165 97q-18 30 23 52l34 17q8 4 18.5 1t14.5 -10q36 -57 92 -57q51 0 94 36.5t52 87.5l55 312q3 16 -6.5 28t-26.5 12h-151q-17 0 -26.5 12t-6.5 28zM195 530
q-9 11 -6 28t17 28l153 130q13 11 30 11t26 -11l108 -130q10 -11 7 -28t-17 -28l-16 -14q-13 -12 -30 -12t-27 11l-49 60q-10 11 -26.5 11t-30.5 -11l-71 -60q-13 -11 -29.5 -11t-26.5 12z" />
    <glyph glyph-name="Kcommaaccent" unicode="&#x136;" 
d="M215 437q-3 -16 6.5 -28t26.5 -12h42q23 0 35 15q30 43 91 129.5t91 130.5q5 8 18 15.5t22 7.5h30q20 0 26.5 -15.5t-5.5 -32.5l-195 -278q-13 -18 -7 -37l97 -284q6 -17 -6 -32.5t-32 -15.5h-31q-9 0 -19 7t-12 15l-86 253q-3 8 -13 15t-19 7h-45q-16 0 -30 -11.5
t-17 -28.5l-38 -217q-3 -17 -17 -28.5t-30 -11.5h-22q-17 0 -26.5 12t-6.5 28l108 615q3 17 17 28.5t31 11.5h22q16 0 25.5 -11.5t6.5 -28.5zM224 -268q-17 0 -26.5 12t-6.5 28l12 71q1 3 -2 11t-5 10q-17 18 -12 52q5 28 28 47.5t51 19.5t44.5 -19.5t11.5 -47.5l-25 -144
q-3 -17 -17 -28.5t-30 -11.5h-23z" />
    <glyph glyph-name="kcommaaccent" unicode="&#x137;" 
d="M394 303q-34 -23 -23 -44q18 -35 105 -209q8 -16 -1.5 -33t-28.5 -17h-39q-7 0 -17 6t-13 12l-91 186q-10 17 -29 3l-75 -54q-5 -4 -12 -14.5t-8 -16.5l-15 -82q-3 -17 -17 -28.5t-30 -11.5h-20q-17 0 -26.5 12t-6.5 28l105 595q3 17 17 28.5t30 11.5h20q17 0 26.5 -12
t6.5 -28l-51 -290q-4 -27 15.5 -37.5t43.5 6.5l181 124q15 9 27 9h58q19 0 22 -17t-14 -28zM223 -260q-17 0 -26.5 12t-6.5 28l12 68q1 3 -1.5 9.5t-4.5 8.5q-20 19 -13 52q4 27 27 46t50 19t43 -19t12 -46l-25 -138q-3 -17 -17 -28.5t-30 -11.5h-20z" />
    <glyph glyph-name="Lacute" unicode="&#x139;" 
d="M151 655q3 17 17 28.5t31 11.5h23q16 0 25.5 -11.5t6.5 -28.5l-90 -515q-3 -16 6.5 -28t26.5 -12h277q16 0 25.5 -11.5t7.5 -28.5l-4 -20q-3 -17 -17 -28.5t-30 -11.5h-380q-17 0 -26.5 12t-6.5 28zM292 744q-9 11 -6 28t17 28l160 136q13 11 29.5 11t26.5 -11l14 -17
q10 -11 7 -28t-17 -28l-161 -136q-14 -11 -30 -11t-26 11z" />
    <glyph glyph-name="lacute" unicode="&#x13a;" 
d="M493 40q-3 -17 -17 -28.5t-30 -11.5h-367q-17 0 -26.5 12t-6.5 28l4 20q2 16 16 28t31 12h93q16 0 30 11.5t17 28.5l70 397q3 16 -6.5 28t-26.5 12h-30q-17 0 -26.5 12t-6.5 28l3 18q3 17 17 28.5t30 11.5h130q17 0 26.5 -12t6.5 -28l-87 -495q-3 -16 6.5 -28t26.5 -12
h94q16 0 25.5 -11.5t7.5 -28.5zM288 721q-9 11 -6 28t17 28l154 130q13 11 29.5 11t26.5 -11l11 -14q10 -11 7 -28t-17 -28l-153 -131q-14 -11 -30.5 -11t-26.5 11z" />
    <glyph glyph-name="Lcommaaccent" unicode="&#x13b;" 
d="M151 655q3 17 17 28.5t31 11.5h23q16 0 25.5 -11.5t6.5 -28.5l-90 -515q-3 -16 6.5 -28t26.5 -12h277q16 0 25.5 -11.5t7.5 -28.5l-4 -20q-3 -17 -17 -28.5t-30 -11.5h-380q-17 0 -26.5 12t-6.5 28zM224 -268q-17 0 -26.5 12t-6.5 28l12 71q1 3 -2 11t-5 10
q-18 19 -13 52q5 28 29 47.5t51 19.5t44 -20t12 -47l-25 -144q-3 -17 -17 -28.5t-30 -11.5h-23z" />
    <glyph glyph-name="lcommaaccent" unicode="&#x13c;" 
d="M493 40q-3 -17 -17 -28.5t-30 -11.5h-367q-17 0 -26.5 12t-6.5 28l4 20q2 16 16 28t31 12h93q16 0 30 11.5t17 28.5l70 397q3 16 -6.5 28t-26.5 12h-30q-17 0 -26.5 12t-6.5 28l3 18q3 17 17 28.5t30 11.5h130q17 0 26.5 -12t6.5 -28l-87 -495q-3 -16 6.5 -28t26.5 -12
h94q16 0 25.5 -11.5t7.5 -28.5zM222 -260q-17 0 -26.5 12t-6.5 28l12 68q1 3 -1.5 9.5t-4.5 8.5q-19 19 -12 52q4 27 26.5 46t49.5 19t43 -19t12 -46l-25 -138q-3 -17 -17 -28.5t-30 -11.5h-20z" />
    <glyph glyph-name="Lcaron" unicode="&#x13d;" 
d="M501 40q-3 -17 -17 -28.5t-30 -11.5h-380q-17 0 -26.5 12t-6.5 28l108 615q3 17 17 28.5t31 11.5h23q16 0 25.5 -11.5t6.5 -28.5l-90 -515q-3 -16 6.5 -28t26.5 -12h277q16 0 25.5 -11.5t7.5 -28.5zM108 973q14 12 30.5 12t26.5 -12l52 -63q10 -11 26.5 -11t30.5 11
l75 63q13 12 29.5 12t26.5 -12l13 -16q10 -11 7 -28t-17 -28l-160 -136q-13 -11 -29.5 -11t-26.5 11l-113 136q-10 11 -6.5 28t17.5 28z" />
    <glyph glyph-name="lcaron" unicode="&#x13e;" 
d="M493 40q-3 -17 -17 -28.5t-30 -11.5h-367q-17 0 -26.5 12t-6.5 28l4 20q2 16 16 28t31 12h93q16 0 30 11.5t17 28.5l70 397q3 16 -6.5 28t-26.5 12h-30q-17 0 -26.5 12t-6.5 28l3 18q3 17 17 28.5t30 11.5h130q17 0 26.5 -12t6.5 -28l-87 -495q-3 -16 6.5 -28t26.5 -12
h94q16 0 25.5 -11.5t7.5 -28.5zM507 458q-17 0 -26.5 12t-6.5 28l12 68q2 10 -6 18q-19 18 -14 52q4 27 27.5 46t50.5 19q26 0 42 -19t12 -46l-24 -138q-3 -17 -17 -28.5t-30 -11.5h-20z" />
    <glyph glyph-name="Ldot" unicode="&#x13f;" 
d="M151 655q3 17 17 28.5t31 11.5h23q16 0 25.5 -11.5t6.5 -28.5l-90 -515q-3 -16 6.5 -28t26.5 -12h277q16 0 25.5 -11.5t7.5 -28.5l-4 -20q-3 -17 -17 -28.5t-30 -11.5h-380q-17 0 -26.5 12t-6.5 28zM426 448q29 0 45 -20t11 -48t-28.5 -47.5t-51.5 -19.5t-44 19.5
t-11 47.5t28 48t51 20z" />
    <glyph glyph-name="ldot" unicode="&#x140;" 
d="M493 40q-3 -17 -17 -28.5t-30 -11.5h-367q-17 0 -26.5 12t-6.5 28l4 20q2 16 16 28t31 12h93q16 0 30 11.5t17 28.5l70 397q3 16 -6.5 28t-26.5 12h-30q-17 0 -26.5 12t-6.5 28l3 18q3 17 17 28.5t30 11.5h130q17 0 26.5 -12t6.5 -28l-87 -495q-3 -16 6.5 -28t26.5 -12
h94q16 0 25.5 -11.5t7.5 -28.5zM537 651q27 0 43 -19.5t11 -46.5q-4 -27 -27 -46t-50 -19t-43 19t-12 46t27.5 46.5t50.5 19.5z" />
    <glyph glyph-name="Lslash" unicode="&#x141;" 
d="M57 133q3 13 -6.5 19.5t-22.5 -0.5q-15 -8 -30 -3.5t-20 17.5l-7 17q-6 15 1 31t23 24l68 36q8 5 16 16t9 19l61 346q3 17 17 28.5t31 11.5h23q16 0 25.5 -11.5t6.5 -28.5l-47 -271q-2 -14 7 -20t22 1q15 8 30 3.5t21 -17.5l7 -17q6 -14 -1 -30.5t-23 -24.5l-68 -35
q-8 -4 -16 -15.5t-10 -19.5l-12 -69q-3 -16 6.5 -28t26.5 -12h278q16 0 25.5 -11.5t7.5 -28.5l-4 -20q-3 -17 -17 -28.5t-30 -11.5h-381q-17 0 -26.5 12t-6.5 28z" />
    <glyph glyph-name="lslash" unicode="&#x142;" 
d="M151 177q-6 14 1 30.5t23 24.5l64 33q8 5 16.5 16t9.5 19l42 237q3 16 -6.5 28t-26.5 12h-30q-17 0 -26.5 12t-6.5 28l3 18q3 17 17 28.5t30 11.5h130q17 0 26.5 -12t6.5 -28l-46 -262q-2 -13 7 -19t22 1q15 7 29.5 3t19.5 -17l6 -16q6 -14 -1 -30.5t-23 -24.5l-64 -33
q-8 -4 -16 -15.5t-10 -19.5l-11 -62q-3 -16 6.5 -28t26.5 -12h94q16 0 25.5 -11.5t7.5 -28.5l-4 -20q-3 -17 -17 -28.5t-30 -11.5h-367q-17 0 -26.5 12t-6.5 28l4 20q2 16 16 28t31 12h100q13 0 24.5 9.5t13.5 23.5q2 12 -6 17t-19 -1l-4 -1q-14 -8 -28.5 -4.5t-19.5 17.5z
" />
    <glyph glyph-name="Nacute" unicode="&#x143;" 
d="M579 695q16 0 25.5 -11.5t6.5 -28.5l-108 -615q-3 -17 -17 -28.5t-30 -11.5h-32q-9 0 -19 6.5t-13 14.5l-117 322q-7 18 -24.5 21t-34.5 -8.5t-20 -31.5l-50 -284q-3 -17 -17 -28.5t-30 -11.5h-23q-17 0 -26.5 12t-6.5 28l108 615q3 17 17 28.5t31 11.5h32q8 0 18.5 -7
t12.5 -14l119 -319q6 -17 24 -20t34.5 8t19.5 31l49 281q3 17 17 28.5t31 11.5h23zM292 744q-9 11 -6 28t17 28l160 136q13 11 29.5 11t26.5 -11l14 -17q10 -11 7 -28t-17 -28l-161 -136q-14 -11 -30 -11t-26 11z" />
    <glyph glyph-name="nacute" unicode="&#x144;" 
d="M341 447q93 0 147 -65.5t37 -158.5l-32 -183q-3 -17 -17 -28.5t-30 -11.5h-20q-17 0 -26.5 12t-6.5 28l32 183q9 52 -20.5 88t-81.5 36q-51 0 -93.5 -36t-51.5 -87l-32 -184q-3 -17 -17 -28.5t-30 -11.5h-20q-17 0 -26.5 12t-6.5 28l65 367q3 17 17 28.5t30 11.5h41
q7 0 12 -5.5t3 -13.5q-1 -6 4.5 -9t11.5 0q54 28 111 28zM249 493q-10 11 -7 28t17 28l153 131q14 11 30.5 11t26.5 -12l11 -14q10 -11 7 -28t-17 -28l-153 -130q-14 -11 -30.5 -11.5t-26.5 11.5z" />
    <glyph glyph-name="Ncommaaccent" unicode="&#x145;" 
d="M579 695q16 0 25.5 -11.5t6.5 -28.5l-108 -615q-3 -17 -17 -28.5t-30 -11.5h-32q-9 0 -19 6.5t-13 14.5l-117 322q-7 18 -24.5 21t-34.5 -8.5t-20 -31.5l-50 -284q-3 -17 -17 -28.5t-30 -11.5h-23q-17 0 -26.5 12t-6.5 28l108 615q3 17 17 28.5t31 11.5h32q8 0 18.5 -7
t12.5 -14l119 -319q6 -17 24 -20t34.5 8t19.5 31l49 281q3 17 17 28.5t31 11.5h23zM224 -268q-17 0 -26.5 12t-6.5 28l12 71q1 3 -2 11t-5 10q-18 19 -13 52q5 28 29 47.5t51 19.5t44 -20t12 -47l-25 -144q-3 -17 -17 -28.5t-30 -11.5h-23z" />
    <glyph glyph-name="ncommaaccent" unicode="&#x146;" 
d="M341 447q93 0 147 -65.5t37 -158.5l-32 -183q-3 -17 -17 -28.5t-30 -11.5h-20q-17 0 -26.5 12t-6.5 28l32 183q9 52 -20.5 88t-81.5 36q-51 0 -93.5 -36t-51.5 -87l-32 -184q-3 -17 -17 -28.5t-30 -11.5h-20q-17 0 -26.5 12t-6.5 28l65 367q3 17 17 28.5t30 11.5h41
q7 0 12 -5.5t3 -13.5q-1 -6 4.5 -9t11.5 0q54 28 111 28zM222 -260q-17 0 -26.5 12t-6.5 28l12 68q1 3 -1.5 9.5t-4.5 8.5q-19 19 -12 52q4 27 26.5 46t49.5 19t43 -19t12 -46l-25 -138q-3 -17 -17 -28.5t-30 -11.5h-20z" />
    <glyph glyph-name="Ncaron" unicode="&#x147;" 
d="M579 695q16 0 25.5 -11.5t6.5 -28.5l-108 -615q-3 -17 -17 -28.5t-30 -11.5h-32q-9 0 -19 6.5t-13 14.5l-117 322q-7 18 -24.5 21t-34.5 -8.5t-20 -31.5l-50 -284q-3 -17 -17 -28.5t-30 -11.5h-23q-17 0 -26.5 12t-6.5 28l108 615q3 17 17 28.5t31 11.5h32q8 0 18.5 -7
t12.5 -14l119 -319q6 -17 24 -20t34.5 8t19.5 31l49 281q3 17 17 28.5t31 11.5h23zM289 973q14 11 30 11.5t26 -11.5l53 -63q10 -12 26 -12t30 12l75 63q14 11 30.5 11t26.5 -11l13 -16q9 -11 6 -28t-16 -28l-160 -136q-13 -11 -29.5 -11t-26.5 11l-113 136q-10 11 -7 28
t17 28z" />
    <glyph glyph-name="ncaron" unicode="&#x148;" 
d="M341 447q93 0 147 -65.5t37 -158.5l-32 -183q-3 -17 -17 -28.5t-30 -11.5h-20q-17 0 -26.5 12t-6.5 28l32 183q9 52 -20.5 88t-81.5 36q-51 0 -93.5 -36t-51.5 -87l-32 -184q-3 -17 -17 -28.5t-30 -11.5h-20q-17 0 -26.5 12t-6.5 28l65 367q3 17 17 28.5t30 11.5h41
q7 0 12 -5.5t3 -13.5q-1 -6 4.5 -9t11.5 0q54 28 111 28zM243 716q14 11 30.5 11.5t26.5 -11.5l50 -59q9 -12 25.5 -12t30.5 12l70 59q14 12 30.5 12t25.5 -12l12 -14q10 -11 7 -28t-17 -28l-153 -131q-13 -11 -30 -11t-26 11l-108 131q-10 11 -7 28t17 28z" />
    <glyph glyph-name="napostrophe" unicode="&#x149;" 
d="M340 447q93 0 147 -65.5t37 -158.5l-32 -183q-3 -17 -17 -28.5t-30 -11.5h-20q-17 0 -26.5 12t-6.5 28l32 183q9 52 -20.5 88t-81.5 36q-51 0 -93.5 -36t-51.5 -87l-32 -184q-3 -17 -17 -28.5t-30 -11.5h-20q-17 0 -26.5 12t-6.5 28l65 367q3 17 17 28.5t30 11.5h41
q7 0 12 -5.5t3 -13.5q-1 -6 4.5 -9t11.5 0q54 28 111 28zM175 548q-17 0 -26.5 12t-6.5 28l12 68q0 12 -6 18q-19 17 -13 52q4 27 26.5 46t49.5 19t43 -19t12 -46l-24 -138q-3 -17 -17 -28.5t-30 -11.5h-20z" />
    <glyph glyph-name="Eng" unicode="&#x14a;" 
d="M494 -13q-16 -91 -100.5 -156.5t-176.5 -65.5q-60 0 -109 27.5t-79 74.5q-9 15 -3 30t24 25l30 16q10 5 21 3t16 -10q19 -29 51 -47t66 -18q62 0 103.5 37t55.5 97q0 18 -2 24q-23 62 -68.5 187.5t-68.5 188.5q-5 16 -24 13.5t-22 -20.5l-62 -353q-3 -17 -17 -28.5
t-30 -11.5h-23q-17 0 -26.5 12t-6.5 28l108 615q3 17 17 28.5t31 11.5h32q8 0 18.5 -7t12.5 -14l119 -319q6 -17 24 -20t34.5 8t19.5 31l49 281q3 17 17 28.5t31 11.5h23q16 0 25.5 -11.5t6.5 -28.5z" />
    <glyph glyph-name="eng" unicode="&#x14b;" 
d="M485 -4q-16 -92 -93.5 -158t-169.5 -66q-108 0 -166 97q-18 30 23 52l34 17q8 4 18.5 1t15.5 -10q34 -57 92 -57q51 0 94 36.5t52 87.5l41 232q9 49 -22.5 84t-80.5 35q-51 0 -93.5 -36t-51.5 -87l-32 -184q-3 -17 -17 -28.5t-30 -11.5h-20q-17 0 -26.5 12t-6.5 28
l65 367q3 17 17 28.5t30 11.5h41q7 0 12 -5.5t3 -13.5q-1 -6 4.5 -9t11.5 0q54 28 111 28q93 0 147 -65.5t37 -158.5z" />
    <glyph glyph-name="Omacron" unicode="&#x14c;" 
d="M535 220q-16 -92 -97.5 -156.5t-173.5 -64.5t-148.5 65t-40.5 156l45 254q16 91 95.5 156t171.5 65t150.5 -64.5t42.5 -156.5zM477 474q9 50 -24 85.5t-84 35.5q-50 0 -94 -35.5t-52 -85.5l-45 -254q-9 -50 22 -85.5t81 -35.5q51 0 96.5 35.5t54.5 85.5zM252 858
q3 17 17 28.5t30 11.5h250q17 0 26.5 -12t6.5 -28l-3 -19q-3 -17 -17 -28.5t-30 -11.5h-250q-17 0 -26.5 12t-6.5 28z" />
    <glyph glyph-name="omacron" unicode="&#x14d;" 
d="M341 447q93 0 147 -65.5t37 -158.5q-16 -92 -93.5 -157.5t-169.5 -65.5t-146 65.5t-38 157.5q17 92 94 158t169 66zM280 100q51 0 93.5 36t51.5 87q9 52 -20.5 88t-81.5 36q-51 0 -93.5 -36.5t-51.5 -87.5t21 -87t81 -36zM209 604q2 17 16 28.5t31 11.5h240
q16 0 25.5 -11.5t7.5 -28.5l-3 -16q-3 -17 -17 -28.5t-30 -11.5h-240q-17 0 -26.5 12t-6.5 28z" />
    <glyph glyph-name="Obreve" unicode="&#x14e;" 
d="M535 220q-16 -92 -97.5 -156.5t-173.5 -64.5t-148.5 65t-40.5 156l45 254q16 91 95.5 156t171.5 65t150.5 -64.5t42.5 -156.5zM477 474q9 50 -24 85.5t-84 35.5q-50 0 -94 -35.5t-52 -85.5l-45 -254q-9 -50 22 -85.5t81 -35.5q51 0 96.5 35.5t54.5 85.5zM528 913
q21 0 28.5 -10.5t-0.5 -30.5q-21 -50 -64 -84t-93 -34q-51 0 -81.5 34t-33.5 84q-1 19 10 30t32 11h50q11 0 11 -12q-2 -45 30 -45q16 0 28 14t18 32q4 11 14 11h51z" />
    <glyph glyph-name="Ohungarumlaut" unicode="&#x150;" 
d="M536 220q-16 -92 -97.5 -156.5t-173.5 -64.5t-148.5 65t-40.5 156l45 254q16 91 95.5 156t171.5 65t150.5 -64.5t42.5 -156.5zM478 474q9 50 -24 85.5t-84 35.5q-50 0 -94 -35.5t-52 -85.5l-45 -254q-9 -50 22 -85.5t81 -35.5q51 0 96.5 35.5t54.5 85.5zM274 763
q-10 11 -7 28t17 28l160 135q14 11 30.5 11t25.5 -11l13 -16q10 -11 7 -28t-17 -28l-160 -136q-13 -11 -30 -11t-27 12zM472 763q-10 11 -7 28t17 28l160 135q14 12 30.5 12t25.5 -12l14 -16q10 -11 7 -28t-17 -28l-160 -136q-14 -11 -30.5 -11t-26.5 11z" />
    <glyph glyph-name="ohungarumlaut" unicode="&#x151;" 
d="M342 447q93 0 147 -65.5t37 -158.5q-16 -92 -93.5 -157.5t-169.5 -65.5t-146 65.5t-38 157.5q17 92 94 158t169 66zM281 100q51 0 93.5 36t51.5 87q9 52 -20.5 88t-81.5 36q-51 0 -93.5 -36.5t-51.5 -87.5t21 -87t81 -36zM213 521q-10 11 -7 28t17 28l154 130
q14 11 30.5 11t26.5 -11l11 -14q10 -11 7 -28t-17 -28l-153 -131q-14 -11 -30.5 -11t-26.5 11zM406 521q-10 11 -7 28t17 28l154 130q14 11 30 11.5t26 -11.5l12 -14q10 -11 7 -28t-17 -28l-153 -131q-14 -11 -30.5 -11t-26.5 11z" />
    <glyph glyph-name="OE" unicode="&#x152;" 
d="M120 474q16 91 96.5 156t172.5 65h190q16 0 25.5 -11.5t6.5 -28.5l-3 -20q-3 -17 -17 -28.5t-30 -11.5h-66q-16 0 -30 -11.5t-17 -28.5l-21 -118q-3 -16 6.5 -28t26.5 -12h1q17 0 26.5 -12t6.5 -28l-3 -19q-3 -17 -17 -28.5t-30 -11.5h-1q-17 0 -31 -11.5t-17 -28.5
l-20 -115q-3 -16 6.5 -28t26.5 -12h66q17 0 26.5 -12t6.5 -28l-4 -23q-3 -17 -17 -28.5t-30 -11.5h-190q-92 0 -149.5 64.5t-41.5 155.5zM346 564q3 14 -4.5 20t-20.5 0q-37 -14 -64.5 -44t-33.5 -66l-45 -254q-7 -36 10 -65t49 -43q27 -11 34 21z" />
    <glyph glyph-name="oe" unicode="&#x153;" 
d="M464 145q9 0 17 -4l9 -5q18 -9 5 -29q-27 -43 -64.5 -75t-74.5 -32q-52 0 -76 34q-3 4 -11.5 4t-12.5 -4q-38 -34 -89 -34q-34 0 -56.5 24.5t-29 59.5t-8.5 73.5t5 65.5q8 46 28 94t60 89t88 41t71 -37q3 -4 9.5 -3.5t11.5 4.5q38 36 82 36q39 0 63 -24t31 -62t6.5 -75
t-6.5 -73q-2 -11 -8 -33q-2 -7 -8 -7l-151 2q-12 0 -12 -12q0 -63 31 -63q20 0 45 37q8 8 14 8h31zM193 100q21 0 37 45.5t21 77.5q6 15 6 70t-21 55q-33 0 -58 -125q-18 -123 15 -123zM425 274q9 0 9 8q0 63 -24 63q-26 0 -46 -63q-3 -8 6 -8h55z" />
    <glyph glyph-name="Racute" unicode="&#x154;" 
d="M398 695q90 0 144 -64.5t38 -154.5q-21 -115 -127 -180q-14 -9 -24 -29t-5 -32l67 -183q7 -19 -5.5 -35.5t-34.5 -16.5h-35q-9 0 -19 6.5t-13 14.5l-78 215q-3 8 -13 14.5t-19 6.5h-50q-16 0 -30 -11.5t-17 -28.5l-31 -177q-3 -17 -17 -28.5t-30 -11.5h-23
q-17 0 -26.5 12t-6.5 28l108 615q3 17 17 28.5t31 11.5h199zM284 595q-16 0 -30 -11.5t-17 -28.5l-28 -158q-3 -16 6.5 -28t26.5 -12h96q49 0 89.5 35t49.5 84q8 49 -20 84t-77 35h-96zM292 744q-9 11 -6 28t17 28l160 136q13 11 29.5 11t26.5 -11l14 -17q10 -11 7 -28
t-17 -28l-161 -136q-14 -11 -30 -11t-26 11z" />
    <glyph glyph-name="racute" unicode="&#x155;" 
d="M428 347q-51 0 -93.5 -36t-51.5 -87l-14 -84q-3 -16 6.5 -28t26.5 -12h73q16 0 25.5 -11.5t7.5 -28.5l-4 -20q-3 -17 -17 -28.5t-30 -11.5h-278q-17 0 -26.5 12t-6.5 28l4 20q2 16 16 28t31 12h25q16 0 30 11.5t17 28.5l29 167q3 16 -6.5 28t-26.5 12h-25q-17 0 -26.5 12
t-6.5 28l4 20q3 17 17 28.5t30 11.5h146q7 0 12 -5.5t3 -13.5q-1 -6 4.5 -9t11.5 0q52 28 111 28q48 0 100 -28q18 -11 4 -30l-40 -56q-8 -12 -19 -5q-31 19 -63 19zM249 493q-10 11 -7 28t17 28l153 131q14 11 30.5 11t26.5 -12l11 -14q10 -11 7 -28t-17 -28l-153 -130
q-14 -11 -30.5 -11.5t-26.5 11.5z" />
    <glyph glyph-name="Rcommaaccent" unicode="&#x156;" 
d="M398 695q90 0 144 -64.5t38 -154.5q-21 -115 -127 -180q-14 -9 -24 -29t-5 -32l67 -183q7 -19 -5.5 -35.5t-34.5 -16.5h-35q-9 0 -19 6.5t-13 14.5l-78 215q-3 8 -13 14.5t-19 6.5h-50q-16 0 -30 -11.5t-17 -28.5l-31 -177q-3 -17 -17 -28.5t-30 -11.5h-23
q-17 0 -26.5 12t-6.5 28l108 615q3 17 17 28.5t31 11.5h199zM284 595q-16 0 -30 -11.5t-17 -28.5l-28 -158q-3 -16 6.5 -28t26.5 -12h96q49 0 89.5 35t49.5 84q8 49 -20 84t-77 35h-96zM224 -268q-17 0 -26.5 12t-6.5 28l12 71q1 3 -2 11t-5 10q-17 18 -12 52q5 28 28 47.5
t51 19.5t44.5 -19.5t11.5 -47.5l-25 -144q-3 -17 -17 -28.5t-30 -11.5h-23z" />
    <glyph glyph-name="rcommaaccent" unicode="&#x157;" 
d="M428 347q-51 0 -93.5 -36t-51.5 -87l-14 -84q-3 -16 6.5 -28t26.5 -12h73q16 0 25.5 -11.5t7.5 -28.5l-4 -20q-3 -17 -17 -28.5t-30 -11.5h-278q-17 0 -26.5 12t-6.5 28l4 20q2 16 16 28t31 12h25q16 0 30 11.5t17 28.5l29 167q3 16 -6.5 28t-26.5 12h-25q-17 0 -26.5 12
t-6.5 28l4 20q3 17 17 28.5t30 11.5h146q7 0 12 -5.5t3 -13.5q-1 -6 4.5 -9t11.5 0q52 28 111 28q48 0 100 -28q18 -11 4 -30l-40 -56q-8 -12 -19 -5q-31 19 -63 19zM222 -260q-17 0 -26.5 12t-6.5 28l12 68q1 3 -1.5 9.5t-4.5 8.5q-19 19 -12 52q4 27 26.5 46t49.5 19
t43 -19t12 -46l-25 -138q-3 -17 -17 -28.5t-30 -11.5h-20z" />
    <glyph glyph-name="Rcaron" unicode="&#x158;" 
d="M398 695q90 0 144 -64.5t38 -154.5q-21 -115 -127 -180q-14 -9 -24 -29t-5 -32l67 -183q7 -19 -5.5 -35.5t-34.5 -16.5h-35q-9 0 -19 6.5t-13 14.5l-78 215q-3 8 -13 14.5t-19 6.5h-50q-16 0 -30 -11.5t-17 -28.5l-31 -177q-3 -17 -17 -28.5t-30 -11.5h-23
q-17 0 -26.5 12t-6.5 28l108 615q3 17 17 28.5t31 11.5h199zM284 595q-16 0 -30 -11.5t-17 -28.5l-28 -158q-3 -16 6.5 -28t26.5 -12h96q49 0 89.5 35t49.5 84q8 49 -20 84t-77 35h-96zM289 973q14 12 30.5 12t26.5 -12l52 -63q10 -11 26.5 -11t30.5 11l75 63q14 12 30 12
t26 -12l13 -16q10 -11 7 -28t-17 -28l-160 -136q-13 -11 -29.5 -11t-26.5 11l-113 136q-10 11 -6.5 28t17.5 28z" />
    <glyph glyph-name="rcaron" unicode="&#x159;" 
d="M428 347q-51 0 -93.5 -36t-51.5 -87l-14 -84q-3 -16 6.5 -28t26.5 -12h73q16 0 25.5 -11.5t7.5 -28.5l-4 -20q-3 -17 -17 -28.5t-30 -11.5h-278q-17 0 -26.5 12t-6.5 28l4 20q2 16 16 28t31 12h25q16 0 30 11.5t17 28.5l29 167q3 16 -6.5 28t-26.5 12h-25q-17 0 -26.5 12
t-6.5 28l4 20q3 17 17 28.5t30 11.5h146q7 0 12 -5.5t3 -13.5q-1 -6 4.5 -9t11.5 0q52 28 111 28q48 0 100 -28q18 -11 4 -30l-40 -56q-8 -12 -19 -5q-31 19 -63 19zM243 716q14 11 30.5 11.5t26.5 -11.5l50 -59q10 -12 26 -12t30 12l71 59q14 12 30.5 11.5t25.5 -11.5
l12 -14q9 -11 6 -28t-16 -28l-154 -131q-13 -11 -30 -11t-26 11l-108 131q-10 11 -7 28t17 28z" />
    <glyph glyph-name="Sacute" unicode="&#x15a;" 
d="M531 199q-15 -87 -96 -143t-170 -56q-82 0 -138 52t-56 130q0 36 43 36h30q9 0 20 -11.5t13 -21.5q5 -37 35 -60.5t71 -23.5q47 0 92 26.5t53 71.5q7 43 -29 66.5t-85 31.5q-90 16 -147.5 65t-43.5 133q15 86 95.5 143t169.5 57q82 0 138.5 -52t56.5 -130q0 -36 -43 -36
h-29q-9 0 -20 12t-13 22q-6 37 -36.5 60.5t-71.5 23.5q-46 0 -91 -27.5t-53 -72.5q-7 -42 28 -65.5t83 -32.5q41 -7 76.5 -21.5t66 -37.5t45 -59t6.5 -80zM292 744q-9 11 -6 28t17 28l160 136q13 11 29.5 11t26.5 -11l14 -17q10 -11 7 -28t-17 -28l-161 -136
q-14 -11 -30 -11t-26 11z" />
    <glyph glyph-name="sacute" unicode="&#x15b;" 
d="M510 134q-8 -46 -55.5 -78t-98 -44t-94.5 -12q-64 0 -125.5 31t-71.5 85q-3 20 7.5 28t33.5 8h36q4 0 13.5 -7.5t11.5 -10.5q10 -20 46 -29.5t66 -9.5q34 0 81 9t51 30q3 18 -21.5 26.5t-63 10t-82.5 7.5t-81 16.5t-57.5 39.5t-12.5 74q6 35 34.5 63.5t67 44t76.5 23.5
t70 8q42 0 83.5 -12t74.5 -40t39 -67q3 -20 -7.5 -29t-33.5 -9h-35q-4 0 -14.5 7.5t-12.5 11.5q-10 21 -46 32t-65 11q-32 0 -80 -10.5t-52 -33.5q-6 -35 118 -35q38 0 72.5 -6t68 -20.5t50 -43.5t9.5 -69zM249 493q-10 11 -7 28t17 28l153 131q14 11 30.5 11t26.5 -12
l11 -14q10 -11 7 -28t-17 -28l-153 -130q-14 -11 -30.5 -11.5t-26.5 11.5z" />
    <glyph glyph-name="Scircumflex" unicode="&#x15c;" 
d="M531 199q-15 -87 -96 -143t-170 -56q-82 0 -138 52t-56 130q0 36 43 36h30q9 0 20 -11.5t13 -21.5q5 -37 35 -60.5t71 -23.5q47 0 92 26.5t53 71.5q7 43 -29 66.5t-85 31.5q-90 16 -147.5 65t-43.5 133q15 86 95.5 143t169.5 57q82 0 138.5 -52t56.5 -130q0 -36 -43 -36
h-29q-9 0 -20 12t-13 22q-6 37 -36.5 60.5t-71.5 23.5q-46 0 -91 -27.5t-53 -72.5q-7 -42 28 -65.5t83 -32.5q41 -7 76.5 -21.5t66 -37.5t45 -59t6.5 -80zM239 781q-10 11 -7 28t17 28l160 136q14 11 30.5 11t26.5 -11l111 -136q10 -11 7 -28t-17 -28l-18 -16
q-13 -11 -30 -11t-26 11l-53 63q-10 12 -26 12t-30 -12l-76 -63q-14 -12 -30 -11.5t-26 11.5z" />
    <glyph glyph-name="scircumflex" unicode="&#x15d;" 
d="M510 134q-8 -46 -55.5 -78t-98 -44t-94.5 -12q-64 0 -125.5 31t-71.5 85q-3 20 7.5 28t33.5 8h36q4 0 13.5 -7.5t11.5 -10.5q10 -20 46 -29.5t66 -9.5q34 0 81 9t51 30q3 18 -21.5 26.5t-63 10t-82.5 7.5t-81 16.5t-57.5 39.5t-12.5 74q6 35 34.5 63.5t67 44t76.5 23.5
t70 8q42 0 83.5 -12t74.5 -40t39 -67q3 -20 -7.5 -29t-33.5 -9h-35q-4 0 -14.5 7.5t-12.5 11.5q-10 21 -46 32t-65 11q-32 0 -80 -10.5t-52 -33.5q-6 -35 118 -35q38 0 72.5 -6t68 -20.5t50 -43.5t9.5 -69zM196 530q-9 11 -6 28t17 28l153 130q14 11 30.5 11t25.5 -11
l108 -130q10 -11 7 -28t-17 -28l-17 -15q-13 -11 -30 -11t-26 11l-49 60q-10 11 -27 11t-30 -11l-71 -60q-13 -11 -29.5 -11t-26.5 12z" />
    <glyph glyph-name="Scedilla" unicode="&#x15e;" 
d="M531 199q-10 -57 -54 -104.5t-104 -72.5q-11 -5 -9 -16q5 -20 0 -49q-11 -63 -61.5 -103t-113.5 -40q-30 0 -64 12q-12 5 -5 18l44 78q4 5 8 4q30 -10 40 -10q18 0 31.5 11.5t16.5 29.5q3 15 -4 27t-21 17q-7 2 -26.5 6.5t-29.5 8.5q-49 20 -78 63.5t-30 98.5q0 40 43 40
h30q9 0 20 -11.5t13 -21.5q5 -37 35 -60.5t71 -23.5q47 0 92 26.5t53 71.5q7 42 -29 66t-85 32q-89 15 -147 64.5t-44 133.5q15 86 95.5 143t169.5 57q82 0 138.5 -52t56.5 -130q0 -36 -43 -36h-29q-9 0 -20 12t-13 22q-6 37 -36.5 60.5t-71.5 23.5q-46 0 -91 -27.5
t-53 -72.5q-7 -42 28 -66t83 -32q41 -7 76.5 -21.5t66 -37.5t45 -59t6.5 -80z" />
    <glyph glyph-name="scedilla" unicode="&#x15f;" 
d="M510 134q-8 -43 -50.5 -73.5t-94.5 -46.5q-9 -2 -7 -11q4 -20 1 -45q-11 -60 -61 -99.5t-110 -39.5q-29 0 -63 12q-11 6 -5 17l44 77q2 6 7 3q27 -10 39 -10q17 0 31 11.5t17 28.5q2 13 -6 26.5t-20 17.5q-9 3 -28.5 5.5t-28.5 5.5q-40 14 -71.5 40.5t-37.5 62.5
q-7 36 36 36h40q4 0 13.5 -7.5t11.5 -10.5q11 -20 47 -29.5t65 -9.5q34 0 81 9t51 30q3 18 -21.5 26.5t-63 10t-82.5 7.5t-81 16.5t-57.5 39.5t-12.5 74q6 35 34.5 63.5t67 44t76.5 23.5t70 8q42 0 83.5 -12t74.5 -40t39 -67q3 -20 -7.5 -29t-33.5 -9h-36q-4 0 -13.5 7.5
t-11.5 11.5q-10 21 -47 32t-65 11q-33 0 -80.5 -10.5t-51.5 -33.5q-6 -35 118 -35q38 0 72.5 -6t68 -20.5t50 -43.5t9.5 -69z" />
    <glyph glyph-name="Scaron" unicode="&#x160;" 
d="M531 199q-15 -87 -96 -143t-170 -56q-82 0 -138 52t-56 130q0 36 43 36h30q9 0 20 -11.5t13 -21.5q5 -37 35 -60.5t71 -23.5q47 0 92 26.5t53 71.5q7 43 -29 66.5t-85 31.5q-90 16 -147.5 65t-43.5 133q15 86 95.5 143t169.5 57q82 0 138.5 -52t56.5 -130q0 -36 -43 -36
h-29q-9 0 -20 12t-13 22q-6 37 -36.5 60.5t-71.5 23.5q-46 0 -91 -27.5t-53 -72.5q-7 -42 28 -65.5t83 -32.5q41 -7 76.5 -21.5t66 -37.5t45 -59t6.5 -80zM289 973q14 11 30 11.5t26 -11.5l53 -63q10 -12 26 -12t30 12l75 63q14 11 30.5 11t26.5 -11l13 -16q9 -11 6 -28
t-16 -28l-160 -136q-13 -11 -29.5 -11t-26.5 11l-113 136q-10 11 -7 28t17 28z" />
    <glyph glyph-name="scaron" unicode="&#x161;" 
d="M510 134q-8 -46 -55.5 -78t-98 -44t-94.5 -12q-64 0 -125.5 31t-71.5 85q-3 20 7.5 28t33.5 8h36q4 0 13.5 -7.5t11.5 -10.5q10 -20 46 -29.5t66 -9.5q34 0 81 9t51 30q3 18 -21.5 26.5t-63 10t-82.5 7.5t-81 16.5t-57.5 39.5t-12.5 74q6 35 34.5 63.5t67 44t76.5 23.5
t70 8q42 0 83.5 -12t74.5 -40t39 -67q3 -20 -7.5 -29t-33.5 -9h-35q-4 0 -14.5 7.5t-12.5 11.5q-10 21 -46 32t-65 11q-32 0 -80 -10.5t-52 -33.5q-6 -35 118 -35q38 0 72.5 -6t68 -20.5t50 -43.5t9.5 -69zM243 716q14 11 30.5 11.5t26.5 -11.5l50 -59q9 -12 25.5 -12
t30.5 12l70 59q14 12 30.5 12t25.5 -12l12 -14q10 -11 7 -28t-17 -28l-153 -131q-13 -11 -30 -11t-26 11l-108 131q-10 11 -7 28t17 28z" />
    <glyph glyph-name="Tcommaaccent" unicode="&#x162;" 
d="M151 655q3 17 17 28.5t31 11.5h380q16 0 25.5 -11.5t6.5 -28.5l-3 -20q-3 -17 -17 -28.5t-30 -11.5h-100q-16 0 -30 -11.5t-17 -28.5l-91 -515q-3 -17 -17 -28.5t-30 -11.5h-21q-17 0 -26.5 12t-6.5 28l91 515q3 16 -6.5 28t-26.5 12h-99q-17 0 -26.5 12t-6.5 28z
M224 -268q-17 0 -26.5 12t-6.5 28l12 71q1 3 -2 11t-5 10q-18 19 -13 52q5 28 29 47.5t51 19.5t44 -20t12 -47l-25 -144q-3 -17 -17 -28.5t-30 -11.5h-23z" />
    <glyph glyph-name="tcommaaccent" unicode="&#x163;" 
d="M525 447q17 0 26.5 -12t6.5 -28l-4 -20q-3 -17 -17 -28.5t-30 -11.5h-152q-16 0 -30 -11.5t-17 -28.5l-25 -142q-4 -27 12.5 -46t43.5 -19q24 0 44.5 20t30.5 47q2 6 9 11.5t13 5.5h42q21 0 28.5 -11t0.5 -30q-24 -60 -75 -101.5t-111 -41.5q-68 0 -108.5 48.5
t-28.5 116.5l25 142q3 16 -6.5 28t-26.5 12h-36q-17 0 -26.5 12t-6.5 28l4 20q3 17 17 28.5t30 11.5h36q16 0 30 11.5t17 28.5l6 37q3 17 17 28.5t30 11.5h19q17 0 26.5 -11.5t6.5 -28.5l-6 -37q-3 -16 6.5 -28t26.5 -12h152zM222 -260q-17 0 -26.5 12t-6.5 28l12 68
q1 3 -1.5 9.5t-4.5 8.5q-19 19 -12 52q4 27 26.5 46t49.5 19t43 -19t12 -46l-25 -138q-3 -17 -17 -28.5t-30 -11.5h-20z" />
    <glyph glyph-name="Tcaron" unicode="&#x164;" 
d="M151 655q3 17 17 28.5t31 11.5h380q16 0 25.5 -11.5t6.5 -28.5l-3 -20q-3 -17 -17 -28.5t-30 -11.5h-100q-16 0 -30 -11.5t-17 -28.5l-91 -515q-3 -17 -17 -28.5t-30 -11.5h-21q-17 0 -26.5 12t-6.5 28l91 515q3 16 -6.5 28t-26.5 12h-99q-17 0 -26.5 12t-6.5 28z
M289 973q14 11 30 11.5t26 -11.5l53 -63q10 -12 26 -12t30 12l75 63q14 11 30.5 11t26.5 -11l13 -16q9 -11 6 -28t-16 -28l-160 -136q-13 -11 -29.5 -11t-26.5 11l-113 136q-10 11 -7 28t17 28z" />
    <glyph glyph-name="tcaron" unicode="&#x165;" 
d="M525 447q17 0 26.5 -12t6.5 -28l-4 -20q-3 -17 -17 -28.5t-30 -11.5h-152q-16 0 -30 -11.5t-17 -28.5l-25 -142q-4 -27 12.5 -46t43.5 -19q24 0 44.5 20t30.5 47q2 6 9 11.5t13 5.5h42q21 0 28.5 -11t0.5 -30q-24 -60 -75 -101.5t-111 -41.5q-68 0 -108.5 48.5
t-28.5 116.5l25 142q3 16 -6.5 28t-26.5 12h-36q-17 0 -26.5 12t-6.5 28l4 20q3 17 17 28.5t30 11.5h36q16 0 30 11.5t17 28.5l6 37q3 17 17 28.5t30 11.5h19q17 0 26.5 -11.5t6.5 -28.5l-6 -37q-3 -16 6.5 -28t26.5 -12h152zM519 525q-17 0 -26.5 11.5t-6.5 28.5l12 68
q0 12 -6 18q-19 18 -14 52q4 27 27 46t50 19t43 -19t12 -46l-24 -138q-3 -17 -17 -28.5t-30 -11.5h-20z" />
    <glyph glyph-name="Tbar" unicode="&#x166;" 
d="M162 344q3 17 17 28.5t30 11.5h34q16 0 30 11.5t17 28.5l23 131q3 16 -6.5 28t-26.5 12h-99q-17 0 -26.5 12t-6.5 28l3 20q3 17 17 28.5t31 11.5h380q16 0 25.5 -11.5t6.5 -28.5l-3 -20q-3 -17 -17 -28.5t-30 -11.5h-100q-16 0 -30 -11.5t-17 -28.5l-23 -131
q-3 -16 6.5 -28t26.5 -12h35q17 0 26.5 -12t6.5 -28l-4 -19q-3 -17 -17 -28.5t-30 -11.5h-35q-16 0 -30 -11.5t-17 -28.5l-36 -205q-3 -17 -17 -28.5t-30 -11.5h-21q-17 0 -26.5 12t-6.5 28l36 205q3 16 -6.5 28t-26.5 12h-34q-17 0 -26.5 12t-6.5 28z" />
    <glyph glyph-name="tbar" unicode="&#x167;" 
d="M87 272q3 17 17 28.5t30 11.5h59q16 0 20 18q1 7 -3 12t-11 5h-59q-17 0 -26.5 12t-6.5 28l4 20q3 17 17 28.5t30 11.5h36q16 0 30 11.5t17 28.5l6 37q3 17 17 28.5t30 11.5h19q17 0 26.5 -11.5t6.5 -28.5l-6 -37q-3 -16 6.5 -28t26.5 -12h152q17 0 26.5 -12t6.5 -28
l-4 -20q-3 -17 -17 -28.5t-30 -11.5h-174q-17 0 -21 -17q-1 -7 3 -12.5t12 -5.5h47q17 0 26.5 -12t6.5 -28l-3 -16q-3 -17 -17 -28.5t-30 -11.5h-39q-11 0 -20 -7.5t-10 -17.5l-5 -26q-4 -27 12.5 -46t43.5 -19q24 0 44.5 20t30.5 47q2 6 9 11.5t13 5.5h42q21 0 28.5 -11
t0.5 -30q-24 -60 -75 -101.5t-111 -41.5q-68 0 -108.5 48.5t-28.5 116.5l5 26q2 11 -4.5 18t-16.5 7h-51q-17 0 -26.5 12t-6.5 28z" />
    <glyph glyph-name="Utilde" unicode="&#x168;" 
d="M579 695q16 0 25.5 -11.5t6.5 -28.5l-76 -434q-16 -92 -97.5 -156.5t-173.5 -64.5t-148.5 65t-40.5 156l76 434q3 17 17 28.5t31 11.5h23q16 0 25.5 -11.5t6.5 -28.5l-76 -434q-9 -50 22.5 -85.5t81.5 -35.5q51 0 96 35.5t54 85.5l76 434q3 17 17 28.5t31 11.5h23z
M369 825h-1q-2 10 -14 10q-15 0 -17 -14q-1 -8 1 -38q2 -6 -6 -8l-64 -23q-13 -4 -16 6q-11 33 -6 60q8 46 43.5 75.5t81.5 29.5q35 0 57.5 -19.5t32 -39.5t13.5 -20q15 0 17 18q2 10 0 31q0 7 6 9l69 26q5 2 9.5 -0.5t5.5 -7.5q6 -41 2 -64q-9 -48 -43.5 -76t-83.5 -28
q-34 0 -56.5 20t-30.5 53z" />
    <glyph glyph-name="utilde" unicode="&#x169;" 
d="M263 0q-93 0 -147 65.5t-38 158.5l33 183q3 17 17 28.5t30 11.5h20q17 0 26.5 -12t6.5 -28l-33 -183q-9 -52 21 -88t82 -36q51 0 93 36t51 87l33 184q3 17 17 28.5t30 11.5h20q17 0 26.5 -12t6.5 -28l-65 -367q-3 -17 -17 -28.5t-30 -11.5h-41q-7 0 -12 5.5t-4 13.5
q1 6 -4 9t-11 0q-54 -28 -111 -28zM322 569l-1 6q-3 8 -13 8q-14 0 -18 -14q-1 -6 2 -37q2 -5 -5 -7l-63 -23q-13 -4 -15 6q-11 33 -6 58q8 46 42 74t79 28q25 0 45 -12t28.5 -26.5t16 -26.5t10.5 -12q12 0 17 19v30q-2 6 5 8l67 25q5 2 9.5 -0.5t5.5 -7.5q6 -38 1 -62
q-8 -46 -42 -73.5t-80 -27.5q-64 0 -85 67z" />
    <glyph glyph-name="umacron" unicode="&#x16b;" 
d="M263 0q-93 0 -147 65.5t-38 158.5l33 183q3 17 17 28.5t30 11.5h20q17 0 26.5 -12t6.5 -28l-33 -183q-9 -52 21 -88t82 -36q51 0 93 36t51 87l33 184q3 17 17 28.5t30 11.5h20q17 0 26.5 -12t6.5 -28l-65 -367q-3 -17 -17 -28.5t-30 -11.5h-41q-7 0 -12 5.5t-4 13.5
q1 6 -4 9t-11 0q-54 -28 -111 -28zM209 604q2 17 16 28.5t31 11.5h240q16 0 25.5 -11.5t7.5 -28.5l-3 -16q-3 -17 -17 -28.5t-30 -11.5h-240q-17 0 -26.5 12t-6.5 28z" />
    <glyph glyph-name="Ubreve" unicode="&#x16c;" 
d="M579 695q16 0 25.5 -11.5t6.5 -28.5l-76 -434q-16 -92 -97.5 -156.5t-173.5 -64.5t-148.5 65t-40.5 156l76 434q3 17 17 28.5t31 11.5h23q16 0 25.5 -11.5t6.5 -28.5l-76 -434q-9 -50 22.5 -85.5t81.5 -35.5q51 0 96 35.5t54 85.5l76 434q3 17 17 28.5t31 11.5h23z
M528 913q21 0 28.5 -10.5t-0.5 -30.5q-21 -50 -64 -84t-93 -34q-51 0 -81.5 34t-33.5 84q-1 19 10 30t32 11h50q11 0 11 -12q-2 -45 30 -45q16 0 28 14t18 32q4 11 14 11h51z" />
    <glyph glyph-name="ubreve" unicode="&#x16d;" 
d="M263 0q-93 0 -147 65.5t-38 158.5l33 183q3 17 17 28.5t30 11.5h20q17 0 26.5 -12t6.5 -28l-33 -183q-9 -52 21 -88t82 -36q51 0 93 36t51 87l33 184q3 17 17 28.5t30 11.5h20q17 0 26.5 -12t6.5 -28l-65 -367q-3 -17 -17 -28.5t-30 -11.5h-41q-7 0 -12 5.5t-4 13.5
q1 6 -4 9t-11 0q-54 -28 -111 -28zM477 659q20 0 27 -10.5t-1 -29.5q-21 -49 -62 -82t-90 -33t-79 33t-33 82q-1 19 10 29.5t31 10.5h49q4 0 7 -3.5t3 -7.5q0 -45 29 -45q16 0 28 13.5t17 31.5q4 11 14 11h50z" />
    <glyph glyph-name="Uring" unicode="&#x16e;" 
d="M579 695q16 0 25.5 -11.5t6.5 -28.5l-76 -434q-16 -92 -97.5 -156.5t-173.5 -64.5t-148.5 65t-40.5 156l76 434q3 17 17 28.5t31 11.5h23q16 0 25.5 -11.5t6.5 -28.5l-76 -434q-9 -50 22.5 -85.5t81.5 -35.5q51 0 96 35.5t54 85.5l76 434q3 17 17 28.5t31 11.5h23z
M440 989q58 0 92.5 -41.5t23.5 -100.5q-10 -58 -59 -99.5t-107 -41.5t-92 41.5t-24 99.5q11 59 59.5 100.5t106.5 41.5zM408 808q16 0 30 11.5t16 27.5q3 16 -6.5 28t-25.5 12t-29.5 -11.5t-16.5 -28.5q-3 -16 6 -27.5t26 -11.5z" />
    <glyph glyph-name="uring" unicode="&#x16f;" 
d="M263 0q-93 0 -147 65.5t-38 158.5l33 183q3 17 17 28.5t30 11.5h20q17 0 26.5 -12t6.5 -28l-33 -183q-9 -52 21 -88t82 -36q51 0 93 36t51 87l33 184q3 17 17 28.5t30 11.5h20q17 0 26.5 -12t6.5 -28l-65 -367q-3 -17 -17 -28.5t-30 -11.5h-41q-7 0 -12 5.5t-4 13.5
q1 6 -4 9t-11 0q-54 -28 -111 -28zM391 732q57 0 90 -40t23 -97q-10 -56 -57.5 -96.5t-103.5 -40.5t-89.5 40.5t-23.5 96.5t57.5 96.5t103.5 40.5zM360 557q16 0 29 11t16 27t-6 27t-25 11t-29 -11t-16 -27t6 -27t25 -11z" />
    <glyph glyph-name="Uhungarumlaut" unicode="&#x170;" 
d="M579 695q16 0 25.5 -11.5t6.5 -28.5l-76 -434q-16 -92 -97.5 -156.5t-173.5 -64.5t-148.5 65t-40.5 156l76 434q3 17 17 28.5t31 11.5h23q16 0 25.5 -11.5t6.5 -28.5l-76 -434q-9 -50 22.5 -85.5t81.5 -35.5q51 0 96 35.5t54 85.5l76 434q3 17 17 28.5t31 11.5h23z
M193 744q-9 11 -6 28t17 28l160 136q14 11 30 11t26 -11l14 -17q10 -11 7 -28t-17 -28l-161 -136q-13 -11 -29.5 -11t-26.5 11zM391 744q-9 11 -6 28t17 28l160 136q14 11 30 11t26 -11l14 -17q10 -11 7 -28t-17 -28l-161 -136q-13 -11 -29.5 -11t-26.5 11z" />
    <glyph glyph-name="uhungarumlaut" unicode="&#x171;" 
d="M264 0q-93 0 -147 65.5t-38 158.5l33 183q3 17 17 28.5t30 11.5h20q17 0 26.5 -12t6.5 -28l-33 -183q-9 -52 21 -88t82 -36q51 0 93 36t51 87l33 184q3 17 17 28.5t30 11.5h20q17 0 26.5 -12t6.5 -28l-65 -367q-3 -17 -17 -28.5t-30 -11.5h-41q-7 0 -12 5.5t-4 13.5
q1 6 -4 9t-11 0q-54 -28 -111 -28zM223 521q-10 11 -7 28t17 28l154 130q14 11 30 11.5t26 -11.5l11 -14q10 -11 7.5 -28t-16.5 -28l-154 -131q-14 -11 -30.5 -11t-26.5 12zM415 521q-10 11 -7 28t17 28l154 130q14 11 30.5 11t26.5 -11l11 -14q10 -11 7 -28t-17 -28
l-153 -131q-14 -11 -30.5 -11t-26.5 11z" />
    <glyph glyph-name="Uogonek" unicode="&#x172;" 
d="M579 695q16 0 25.5 -11.5t6.5 -28.5l-76 -434q-12 -67 -62.5 -123t-118.5 -81q-13 -5 -35 -9t-31 -7q-13 -4 -25 -17t-15 -27q-3 -18 7.5 -29.5t28.5 -11.5q8 0 43 10q5 2 7 -4l17 -78q2 -13 -11 -18q-39 -12 -70 -12q-61 0 -98 41t-27 102q6 28 21 53q6 11 -4 17
q-50 29 -74 81t-13 113l76 434q3 17 17 28.5t31 11.5h23q16 0 25.5 -11.5t6.5 -28.5l-76 -434q-9 -50 22.5 -85.5t81.5 -35.5q51 0 96 35.5t54 85.5l76 434q3 17 17 28.5t31 11.5h23z" />
    <glyph glyph-name="uogonek" unicode="&#x173;" 
d="M526 447q17 0 26.5 -12t6.5 -28l-69 -391q-1 -4 -6 -9.5t-9 -6.5q-45 -14 -50 -46q-3 -17 6.5 -28t26.5 -11q16 0 41 9q6 3 8 -4l16 -76q2 -12 -11 -17q-40 -11 -66 -11q-62 0 -97.5 38.5t-24.5 99.5q4 27 20 53q2 5 -4 6q-42 -13 -76 -13q-93 0 -147 65.5t-38 158.5
l33 183q3 17 17 28.5t30 11.5h20q17 0 26.5 -12t6.5 -28l-33 -183q-9 -52 21 -88t82 -36q51 0 93 36t51 87l33 184q3 17 17 28.5t30 11.5h20z" />
    <glyph glyph-name="Wcircumflex" unicode="&#x174;" 
d="M507 660q5 14 18 24.5t27 10.5h23q19 0 28.5 -13.5t2.5 -32.5l-203 -615q-4 -14 -17.5 -24t-27.5 -10h-19q-13 0 -23 9t-10 22l-3 66q-1 19 -20.5 19.5t-26.5 -17.5l-31 -69q-5 -12 -18 -21t-26 -9h-15q-14 0 -24 10t-10 24l22 615q1 19 15 32.5t33 13.5h22
q15 0 25 -10.5t9 -24.5l-15 -332q0 -5 4 -7.5t9 -1t7 6.5l9 19q6 11 19 20t25 9h31q12 0 21.5 -9t11.5 -20l2 -18q1 -8 9.5 -7.5t11.5 8.5zM239 781q-10 11 -7 28t17 28l160 136q14 11 30.5 11t26.5 -11l111 -136q10 -11 7 -28t-17 -28l-18 -16q-13 -11 -30 -11t-26 11
l-53 63q-10 12 -26 12t-30 -12l-76 -63q-14 -12 -30 -11.5t-26 11.5z" />
    <glyph glyph-name="wcircumflex" unicode="&#x175;" 
d="M452 416q5 13 18.5 22t26.5 9h20q21 0 30 -15t0 -35l-158 -367q-5 -12 -18 -21t-26 -9h-28q-13 0 -23 9.5t-10 22.5l-1 19q0 9 -9 9t-13 -9l-8 -19q-4 -13 -17.5 -22.5t-26.5 -9.5h-29q-13 0 -22.5 9t-10.5 21l-30 367q-1 20 13 35t34 15h23q13 0 22.5 -9t10.5 -22
l8 -177q0 -6 4.5 -8t10.5 0.5t8 8.5l8 21q5 13 18.5 22t26.5 9h20q13 0 22.5 -9t10.5 -22l1 -21q1 -10 10.5 -10t13.5 10zM196 530q-9 11 -6 28t17 28l153 130q14 11 30.5 11t25.5 -11l108 -130q10 -11 7 -28t-17 -28l-17 -15q-13 -11 -30 -11t-26 11l-49 60q-10 11 -27 11
t-30 -11l-71 -60q-13 -11 -29.5 -11t-26.5 12z" />
    <glyph glyph-name="Ycircumflex" unicode="&#x176;" 
d="M383 350q-1 -1 -3 -5t-4 -9l-2 -5l-51 -291q-3 -17 -17 -28.5t-30 -11.5h-21q-17 0 -26.5 12t-6.5 28l51 291q1 2 0.5 9.5t-1.5 9.5l-109 298q-7 17 4.5 32t31.5 15h30q8 0 18.5 -6.5t12.5 -13.5l71 -179q5 -15 18.5 -16t24.5 13q25 34 72 96.5t65 87.5q14 18 37 18h31
q20 0 26 -15t-7 -32zM239 781q-10 11 -7 28t17 28l160 136q14 11 30.5 11t26.5 -11l111 -136q10 -11 7 -28t-17 -28l-18 -16q-13 -11 -30 -11t-26 11l-53 63q-10 12 -26 12t-30 -12l-76 -63q-14 -12 -30 -11.5t-26 11.5z" />
    <glyph glyph-name="ycircumflex" unicode="&#x177;" 
d="M452 423q6 9 18.5 16.5t22.5 7.5h27q21 0 28 -15t-4 -34l-361 -602q-5 -9 -18 -16.5t-23 -7.5h-26q-20 0 -27.5 15t3.5 34l112 186q9 18 6 26q-58 240 -88 361q-5 19 7.5 36t32.5 17h27q11 0 21 -7.5t12 -17.5l45 -185q6 -26 32 -26.5t42 25.5zM196 530q-9 11 -6 28
t17 28l153 130q14 11 30.5 11t25.5 -11l108 -130q10 -11 7 -28t-17 -28l-17 -15q-13 -11 -30 -11t-26 11l-49 60q-10 11 -27 11t-30 -11l-71 -60q-13 -11 -29.5 -11t-26.5 12z" />
    <glyph glyph-name="Ydieresis" unicode="&#x178;" 
d="M383 350q-1 -1 -3 -5t-4 -9l-2 -5l-51 -291q-3 -17 -17 -28.5t-30 -11.5h-21q-17 0 -26.5 12t-6.5 28l51 291q1 2 0.5 9.5t-1.5 9.5l-109 298q-7 17 4.5 32t31.5 15h30q8 0 18.5 -6.5t12.5 -13.5l71 -179q5 -15 18.5 -16t24.5 13q25 34 72 96.5t65 87.5q14 18 37 18h31
q20 0 26 -15t-7 -32zM532 895q29 0 45 -20t11 -48t-29 -47.5t-51 -19.5t-43.5 20t-11.5 47q5 28 28 48t51 20zM316 895q29 0 45 -20t11 -48t-29 -47.5t-51 -19.5t-43.5 20t-11.5 47q5 28 28 48t51 20z" />
    <glyph glyph-name="Zacute" unicode="&#x179;" 
d="M605 620q0 -7 -10 -22l-362 -436q-18 -22 -10.5 -42t33.5 -20h218q16 0 25.5 -11.5t7.5 -28.5l-4 -20q-3 -17 -17 -28.5t-30 -11.5h-380q-17 0 -26.5 12t-6.5 28l6 35q4 15 11 22l362 436q17 22 9.5 42t-32.5 20h-218q-17 0 -26.5 12t-6.5 28l3 20q3 17 17 28.5t31 11.5
h380q16 0 25.5 -11.5t6.5 -28.5zM292 744q-9 11 -6 28t17 28l160 136q13 11 29.5 11t26.5 -11l14 -17q10 -11 7 -28t-17 -28l-161 -136q-14 -11 -30 -11t-26 11z" />
    <glyph glyph-name="zacute" unicode="&#x17a;" 
d="M552 375q-3 -18 -19 -30l-232 -175q-16 -12 -20 -29t5.5 -29t28.5 -12h149q16 0 25.5 -11.5t7.5 -28.5l-4 -20q-3 -17 -17 -28.5t-30 -11.5h-367q-17 0 -26.5 12t-6.5 28l6 32q3 18 19 30l231 175q25 19 19.5 44.5t-33.5 25.5h-148q-17 0 -26.5 12t-6.5 28l4 20
q3 17 17 28.5t30 11.5h367q17 0 26.5 -12t6.5 -28zM249 493q-10 11 -7 28t17 28l153 131q14 11 30.5 11t26.5 -12l11 -14q10 -11 7 -28t-17 -28l-153 -130q-14 -11 -30.5 -11.5t-26.5 11.5z" />
    <glyph glyph-name="Zdotaccent" unicode="&#x17b;" 
d="M605 620q0 -7 -10 -22l-362 -436q-18 -22 -10.5 -42t33.5 -20h218q16 0 25.5 -11.5t7.5 -28.5l-4 -20q-3 -17 -17 -28.5t-30 -11.5h-380q-17 0 -26.5 12t-6.5 28l6 35q4 15 11 22l362 436q17 22 9.5 42t-32.5 20h-218q-17 0 -26.5 12t-6.5 28l3 20q3 17 17 28.5t31 11.5
h380q16 0 25.5 -11.5t6.5 -28.5zM426 905q28 0 44.5 -20t11.5 -48t-29 -47.5t-51 -19.5t-44 20t-12 47q4 28 28 48t52 20z" />
    <glyph glyph-name="zdotaccent" unicode="&#x17c;" 
d="M552 375q-3 -18 -19 -30l-232 -175q-16 -12 -20 -29t5.5 -29t28.5 -12h149q16 0 25.5 -11.5t7.5 -28.5l-4 -20q-3 -17 -17 -28.5t-30 -11.5h-367q-17 0 -26.5 12t-6.5 28l6 32q3 18 19 30l231 175q25 19 19.5 44.5t-33.5 25.5h-148q-17 0 -26.5 12t-6.5 28l4 20
q3 17 17 28.5t30 11.5h367q17 0 26.5 -12t6.5 -28zM377 651q27 0 43 -19.5t11 -46.5q-4 -27 -27 -46t-50 -19t-43 19t-11 46q5 26 27.5 46t49.5 20z" />
    <glyph glyph-name="Zcaron" unicode="&#x17d;" 
d="M605 620q0 -7 -10 -22l-362 -436q-18 -22 -10.5 -42t33.5 -20h218q16 0 25.5 -11.5t7.5 -28.5l-4 -20q-3 -17 -17 -28.5t-30 -11.5h-380q-17 0 -26.5 12t-6.5 28l6 35q4 15 11 22l362 436q17 22 9.5 42t-32.5 20h-218q-17 0 -26.5 12t-6.5 28l3 20q3 17 17 28.5t31 11.5
h380q16 0 25.5 -11.5t6.5 -28.5zM289 973q14 11 30 11.5t26 -11.5l53 -63q10 -12 26 -12t30 12l75 63q14 11 30.5 11t26.5 -11l13 -16q9 -11 6 -28t-16 -28l-160 -136q-13 -11 -29.5 -11t-26.5 11l-113 136q-10 11 -7 28t17 28z" />
    <glyph glyph-name="zcaron" unicode="&#x17e;" 
d="M552 375q-3 -18 -19 -30l-232 -175q-16 -12 -20 -29t5.5 -29t28.5 -12h149q16 0 25.5 -11.5t7.5 -28.5l-4 -20q-3 -17 -17 -28.5t-30 -11.5h-367q-17 0 -26.5 12t-6.5 28l6 32q3 18 19 30l231 175q25 19 19.5 44.5t-33.5 25.5h-148q-17 0 -26.5 12t-6.5 28l4 20
q3 17 17 28.5t30 11.5h367q17 0 26.5 -12t6.5 -28zM243 716q14 11 30.5 11.5t26.5 -11.5l50 -59q9 -12 25.5 -12t30.5 12l70 59q14 12 30.5 12t25.5 -12l12 -14q10 -11 7 -28t-17 -28l-153 -131q-13 -11 -30 -11t-26 11l-108 131q-10 11 -7 28t17 28z" />
    <glyph glyph-name="AEacute" unicode="&#x1fc;" 
d="M272 140q2 13 -5.5 22t-20.5 9q-12 0 -25.5 -9t-18.5 -21l-49 -111q-5 -12 -18 -21t-26 -9h-25q-21 0 -29.5 15t0.5 35l274 615q5 12 18.5 21t25.5 9h206q16 0 25.5 -11.5t6.5 -28.5l-3 -20q-3 -17 -17 -28.5t-30 -11.5h-66q-16 0 -30 -11.5t-17 -28.5l-21 -118
q-3 -16 6.5 -28t26.5 -12h1q17 0 26.5 -12t6.5 -28l-3 -19q-3 -17 -17 -28.5t-30 -11.5h-1q-17 0 -31 -11.5t-17 -28.5l-20 -118q-3 -16 6.5 -28t26.5 -12h66q16 0 25.5 -11.5t7.5 -28.5l-4 -20q-3 -17 -17 -28.5t-30 -11.5h-169q-17 0 -26.5 12t-6.5 28zM277 271
q17 0 21 18l17 96q0 4 -5 1q-1 0 -2 -2l-42 -96q-3 -7 0.5 -12t10.5 -5zM292 744q-9 11 -6 28t17 28l160 136q13 11 29.5 11t26.5 -11l14 -17q10 -11 7 -28t-17 -28l-161 -136q-14 -11 -30 -11t-26 11z" />
    <glyph glyph-name="aeacute" unicode="&#x1fd;" 
d="M249 493q-10 11 -7 28t17 28l153 131q14 11 30.5 11t26.5 -12l11 -14q10 -11 7 -28t-17 -28l-153 -130q-14 -11 -30.5 -11.5t-26.5 11.5zM357 173q-14 0 -14 -13q0 -60 37 -60q22 0 47 43q4 8 14 8h25q9 0 19 -5l9 -6q19 -12 5 -33q-65 -107 -142 -107q-53 0 -79 29
q-3 4 -11.5 5t-13.5 -3q-42 -31 -98 -31t-79.5 36t-13.5 94q13 76 61 113.5t121 33.5q15 0 17 11q5 59 -30 59q-29 0 -52 -48q-5 -11 -15 -7l-45 16q-30 10 -14 37q61 102 141 102q45 0 74 -32q4 -4 12 -4t12 4q36 32 89 32q40 0 63.5 -21t30 -57t5.5 -69.5t-8 -71.5
q-3 -24 -9 -46q-2 -9 -12 -9h-146zM162 133q-2 -14 4 -23.5t20 -9.5q17 0 32.5 13t18.5 30l4 24q2 6 -5 8h-7q-60 0 -67 -42zM425 274q10 0 10 8q6 65 -20 65q-31 0 -51 -61q-3 -12 7 -12h54z" />
    <glyph glyph-name="Oslashacute" unicode="&#x1fe;" 
d="M136 -70q-6 -10 -19 -17.5t-23 -7.5h-28q-22 0 -29.5 15.5t3.5 35.5l55 92q4 8 4.5 22t-3.5 21q-33 56 -21 129l45 254q16 91 95.5 156t171.5 65q35 0 68 -11q13 -5 21 9q41 67 47 77q12 20 32 20h35q21 0 28.5 -16t-3.5 -35l-55 -94q-4 -7 -5 -21.5t3 -20.5
q34 -60 22 -129l-45 -254q-16 -92 -97.5 -156.5t-173.5 -64.5q-34 0 -67 11q-13 4 -20 -9zM477 474q2 20 1 30v2q1 3 0 2q-29 -50 -109 -184.5t-123 -207.5q-8 -10 0 -12q14 -5 35 -5q51 0 96.5 35.5t54.5 85.5zM369 595q-50 0 -94 -35.5t-52 -85.5l-45 -254q-2 -10 -2 -27
q1 -2 4 -2l229 388q6 8 -4 10q-17 6 -36 6zM292 744q-9 11 -6 28t17 28l160 136q13 11 29.5 11t26.5 -11l14 -17q10 -11 7 -28t-17 -28l-161 -136q-14 -11 -30 -11t-26 11z" />
    <glyph glyph-name="oslashacute" unicode="&#x1ff;" 
d="M138 -52q-5 -6 -17.5 -12t-19.5 -6h-34q-19 0 -25 15t8 32l49 59q7 8 7.5 24.5t-4.5 23.5q-38 62 -24 139q17 92 94 158t169 66q37 0 70 -12q4 -2 11 0.5t10 6.5q33 39 35 41q10 12 22 12h43q20 0 25.5 -15.5t-7.5 -31.5l-39 -47q-6 -8 -7.5 -24t2.5 -23q33 -59 19 -131
q-16 -92 -93.5 -157.5t-169.5 -65.5q-29 0 -59 8q-13 4 -22 -7zM323 347q-51 0 -93.5 -36.5t-51.5 -87.5q-7 -37 6 -64q5 -12 16 1l148 179q4 3 -1 5q-12 3 -24 3zM280 100q51 0 93.5 36t51.5 87q6 29 -3 55q-4 11 -8 5q-23 -29 -71.5 -86t-71.5 -86q-7 -10 0 -10zM249 493
q-10 11 -7 28t17 28l153 131q14 11 30.5 11t26.5 -12l11 -14q10 -11 7 -28t-17 -28l-153 -130q-14 -11 -30.5 -11.5t-26.5 11.5z" />
    <glyph glyph-name="Scommaaccent" unicode="&#x218;" 
d="M531 199q-15 -87 -96 -143t-170 -56q-82 0 -138 52t-56 130q0 36 43 36h30q9 0 20 -11.5t13 -21.5q5 -37 35 -60.5t71 -23.5q47 0 92 26.5t53 71.5q7 43 -29 66.5t-85 31.5q-90 16 -147.5 65t-43.5 133q15 86 95.5 143t169.5 57q82 0 138.5 -52t56.5 -130q0 -36 -43 -36
h-29q-9 0 -20 12t-13 22q-6 37 -36.5 60.5t-71.5 23.5q-46 0 -91 -27.5t-53 -72.5q-7 -42 28 -65.5t83 -32.5q41 -7 76.5 -21.5t66 -37.5t45 -59t6.5 -80zM224 -268q-17 0 -26.5 12t-6.5 28l12 71q1 3 -2 11t-5 10q-18 19 -13 52q5 28 29 47.5t51 19.5t44 -20t12 -47
l-25 -144q-3 -17 -17 -28.5t-30 -11.5h-23z" />
    <glyph glyph-name="scommaaccent" unicode="&#x219;" 
d="M510 134q-8 -46 -55.5 -78t-98 -44t-94.5 -12q-64 0 -125.5 31t-71.5 85q-3 20 7.5 28t33.5 8h36q4 0 13.5 -7.5t11.5 -10.5q10 -20 46 -29.5t66 -9.5q34 0 81 9t51 30q3 18 -21.5 26.5t-63 10t-82.5 7.5t-81 16.5t-57.5 39.5t-12.5 74q6 35 34.5 63.5t67 44t76.5 23.5
t70 8q42 0 83.5 -12t74.5 -40t39 -67q3 -20 -7.5 -29t-33.5 -9h-35q-4 0 -14.5 7.5t-12.5 11.5q-10 21 -46 32t-65 11q-32 0 -80 -10.5t-52 -33.5q-6 -35 118 -35q38 0 72.5 -6t68 -20.5t50 -43.5t9.5 -69zM222 -260q-17 0 -26.5 12t-6.5 28l12 68q1 3 -1.5 9.5t-4.5 8.5
q-19 19 -12 52q4 27 26.5 46t49.5 19t43 -19t12 -46l-25 -138q-3 -17 -17 -28.5t-30 -11.5h-20z" />
    <glyph glyph-name="dotlessj" unicode="&#x237;" 
d="M199 407q3 17 17 28.5t30 11.5h251q17 0 26.5 -12t6.5 -28l-73 -412q-17 -92 -94 -158t-169 -66q-107 0 -165 97q-18 30 23 52l34 17q8 4 18.5 1t14.5 -10q36 -57 92 -57q51 0 94 36.5t52 87.5l55 312q3 16 -6.5 28t-26.5 12h-151q-17 0 -26.5 12t-6.5 28z" />
    <glyph glyph-name="circumflex" unicode="&#x2c6;" 
d="M197 547q-9 11 -6 28t17 28l160 136q14 11 30.5 11t25.5 -11l112 -136q10 -11 7 -28t-16 -28l-19 -16q-14 -12 -30.5 -12t-26.5 11l-52 63q-10 12 -26.5 12t-30.5 -12l-75 -63q-14 -11 -30.5 -11t-26.5 11z" />
    <glyph glyph-name="caron" unicode="&#x2c7;" 
d="M247 739q14 11 30.5 11t26.5 -11l53 -63q10 -12 26.5 -12t29.5 12l75 63q13 11 30 11t26 -12l13 -16q10 -11 7 -28t-17 -28l-159 -136q-14 -11 -30.5 -11t-26.5 11l-112 136q-10 11 -7 28t16 28z" />
    <glyph glyph-name="breve" unicode="&#x2d8;" 
d="M487 679q20 0 27.5 -10.5t-0.5 -30.5q-21 -50 -63.5 -84.5t-92.5 -34.5q-51 0 -81.5 34t-34.5 85q-1 19 10.5 30t31.5 11h52q4 0 7 -3.5t3 -7.5q-1 -18 6 -32.5t23 -14.5t28.5 14.5t18.5 32.5q4 11 14 11h51z" />
    <glyph glyph-name="dotaccent" unicode="&#x2d9;" 
d="M384 670q28 0 44.5 -20t11.5 -48q-4 -27 -28.5 -47t-51.5 -20t-43.5 19.5t-12.5 47.5q5 28 28.5 48t51.5 20z" />
    <glyph glyph-name="ring" unicode="&#x2da;" 
d="M399 755q58 0 92.5 -41.5t23.5 -100.5t-59.5 -100t-106.5 -41q-59 0 -92.5 41.5t-23.5 99.5q11 59 59.5 100.5t106.5 41.5zM367 574q16 0 29.5 11.5t16.5 27.5t-6.5 27.5t-25.5 11.5t-29.5 -11.5t-16.5 -27.5t6 -27.5t26 -11.5z" />
    <glyph glyph-name="ogonek" unicode="&#x2db;" 
d="M304 77q14 0 22.5 -10t5.5 -24l-3 -22q-2 -12 -15 -16q-47 -16 -53 -48q-3 -18 6.5 -29.5t27.5 -11.5q11 0 43 10q6 2 8 -4l17 -78q2 -13 -11 -18q-39 -12 -70 -12q-64 0 -100 40t-25 103q13 68 81 113q9 7 22 7h44z" />
    <glyph glyph-name="tilde" unicode="&#x2dc;" 
d="M328 588l-2 4q-3 8 -13 8q-16 0 -19 -14q-1 -7 2 -37q0 -6 -5 -8l-65 -23q-12 -5 -16 7q-8 32 -2 63q7 45 40 72.5t77 27.5q29 0 50 -12.5t29.5 -27t15.5 -27t11 -12.5q13 0 18 19q2 16 0 31q0 7 6 9l68 26q13 5 15 -8q5 -37 0 -67q-8 -46 -42 -73.5t-81 -27.5
q-19 0 -34 5.5t-24 15.5t-14 18t-9.5 18.5t-5.5 12.5z" />
    <glyph glyph-name="hungarumlaut" unicode="&#x2dd;" 
d="M272 509q-10 11 -7 28t17 28l159 136q14 11 30.5 11t26.5 -11l13 -17q10 -11 7 -28t-17 -28l-160 -136q-13 -11 -30 -11t-26 12zM470 509q-10 11 -7 28t17 28l160 136q14 11 30.5 11t26.5 -11l13 -17q10 -11 7 -28t-17 -28l-160 -136q-14 -11 -30.5 -11t-25.5 11z" />
    <glyph glyph-name="Wgrave" unicode="&#x1e80;" 
d="M507 660q5 14 18 24.5t27 10.5h23q19 0 28.5 -13.5t2.5 -32.5l-203 -615q-4 -14 -17.5 -24t-27.5 -10h-19q-13 0 -23 9t-10 22l-3 66q-1 19 -20.5 19.5t-26.5 -17.5l-31 -69q-5 -12 -18 -21t-26 -9h-15q-14 0 -24 10t-10 24l22 615q1 19 15 32.5t33 13.5h22
q15 0 25 -10.5t9 -24.5l-15 -332q0 -5 4 -7.5t9 -1t7 6.5l9 19q6 11 19 20t25 9h31q12 0 21.5 -9t11.5 -20l2 -18q1 -8 9.5 -7.5t11.5 8.5zM482 727q-14 -11 -30 -11t-26 11l-112 136q-10 11 -7 28t16 28l20 17q14 11 30 11t26 -11l113 -136q10 -11 7 -28t-17 -28z" />
    <glyph glyph-name="wgrave" unicode="&#x1e81;" 
d="M452 416q5 13 18.5 22t26.5 9h20q21 0 30 -15t0 -35l-158 -367q-5 -12 -18 -21t-26 -9h-28q-13 0 -23 9.5t-10 22.5l-1 19q0 9 -9 9t-13 -9l-8 -19q-4 -13 -17.5 -22.5t-26.5 -9.5h-29q-13 0 -22.5 9t-10.5 21l-30 367q-1 20 13 35t34 15h23q13 0 22.5 -9t10.5 -22
l8 -177q0 -6 4.5 -8t10.5 0.5t8 8.5l8 21q5 13 18.5 22t26.5 9h20q13 0 22.5 -9t10.5 -22l1 -21q1 -10 10.5 -10t13.5 10zM434 479q-14 -11 -30.5 -11t-26.5 11l-108 130q-10 11 -7 28t17 28l17 15q14 11 30 11t26 -11l108 -131q9 -11 6 -28t-16 -28z" />
    <glyph glyph-name="Wacute" unicode="&#x1e82;" 
d="M507 660q5 14 18 24.5t27 10.5h23q19 0 28.5 -13.5t2.5 -32.5l-203 -615q-4 -14 -17.5 -24t-27.5 -10h-19q-13 0 -23 9t-10 22l-3 66q-1 19 -20.5 19.5t-26.5 -17.5l-31 -69q-5 -12 -18 -21t-26 -9h-15q-14 0 -24 10t-10 24l22 615q1 19 15 32.5t33 13.5h22
q15 0 25 -10.5t9 -24.5l-15 -332q0 -5 4 -7.5t9 -1t7 6.5l9 19q6 11 19 20t25 9h31q12 0 21.5 -9t11.5 -20l2 -18q1 -8 9.5 -7.5t11.5 8.5zM292 744q-9 11 -6 28t17 28l160 136q13 11 29.5 11t26.5 -11l14 -17q10 -11 7 -28t-17 -28l-161 -136q-14 -11 -30 -11t-26 11z" />
    <glyph glyph-name="wacute" unicode="&#x1e83;" 
d="M452 416q5 13 18.5 22t26.5 9h20q21 0 30 -15t0 -35l-158 -367q-5 -12 -18 -21t-26 -9h-28q-13 0 -23 9.5t-10 22.5l-1 19q0 9 -9 9t-13 -9l-8 -19q-4 -13 -17.5 -22.5t-26.5 -9.5h-29q-13 0 -22.5 9t-10.5 21l-30 367q-1 20 13 35t34 15h23q13 0 22.5 -9t10.5 -22
l8 -177q0 -6 4.5 -8t10.5 0.5t8 8.5l8 21q5 13 18.5 22t26.5 9h20q13 0 22.5 -9t10.5 -22l1 -21q1 -10 10.5 -10t13.5 10zM249 493q-10 11 -7 28t17 28l153 131q14 11 30.5 11t26.5 -12l11 -14q10 -11 7 -28t-17 -28l-153 -130q-14 -11 -30.5 -11.5t-26.5 11.5z" />
    <glyph glyph-name="Wdieresis" unicode="&#x1e84;" 
d="M507 660q5 14 18 24.5t27 10.5h23q19 0 28.5 -13.5t2.5 -32.5l-203 -615q-4 -14 -17.5 -24t-27.5 -10h-19q-13 0 -23 9t-10 22l-3 66q-1 19 -20.5 19.5t-26.5 -17.5l-31 -69q-5 -12 -18 -21t-26 -9h-15q-14 0 -24 10t-10 24l22 615q1 19 15 32.5t33 13.5h22
q15 0 25 -10.5t9 -24.5l-15 -332q0 -5 4 -7.5t9 -1t7 6.5l9 19q6 11 19 20t25 9h31q12 0 21.5 -9t11.5 -20l2 -18q1 -8 9.5 -7.5t11.5 8.5zM316 895q29 0 45 -20t11 -48t-29 -47.5t-51 -19.5t-43.5 20t-11.5 47q5 28 28 48t51 20zM532 895q29 0 45 -20t11 -48t-29 -47.5
t-51 -19.5t-43.5 20t-11.5 47q5 28 28 48t51 20z" />
    <glyph glyph-name="wdieresis" unicode="&#x1e85;" 
d="M452 416q5 13 18.5 22t26.5 9h20q21 0 30 -15t0 -35l-158 -367q-5 -12 -18 -21t-26 -9h-28q-13 0 -23 9.5t-10 22.5l-1 19q0 9 -9 9t-13 -9l-8 -19q-4 -13 -17.5 -22.5t-26.5 -9.5h-29q-13 0 -22.5 9t-10.5 21l-30 367q-1 20 13 35t34 15h23q13 0 22.5 -9t10.5 -22
l8 -177q0 -6 4.5 -8t10.5 0.5t8 8.5l8 21q5 13 18.5 22t26.5 9h20q13 0 22.5 -9t10.5 -22l1 -21q1 -10 10.5 -10t13.5 10zM270 642q27 0 43.5 -19.5t11.5 -46.5t-28 -46.5t-50 -19.5t-42.5 20t-10.5 46q5 27 27 46.5t49 19.5zM480 642q27 0 43.5 -19.5t11.5 -46.5t-28 -46.5
t-50 -19.5q-26 0 -42 20t-11 46t27.5 46t48.5 20z" />
    <glyph glyph-name="Ygrave" unicode="&#x1ef2;" 
d="M383 350q-1 -1 -3 -5t-4 -9l-2 -5l-51 -291q-3 -17 -17 -28.5t-30 -11.5h-21q-17 0 -26.5 12t-6.5 28l51 291q1 2 0.5 9.5t-1.5 9.5l-109 298q-7 17 4.5 32t31.5 15h30q8 0 18.5 -6.5t12.5 -13.5l71 -179q5 -15 18.5 -16t24.5 13q25 34 72 96.5t65 87.5q14 18 37 18h31
q20 0 26 -15t-7 -32zM482 727q-14 -11 -30 -11t-26 11l-112 136q-10 11 -7 28t16 28l20 17q14 11 30 11t26 -11l113 -136q10 -11 7 -28t-17 -28z" />
    <glyph glyph-name="ygrave" unicode="&#x1ef3;" 
d="M452 423q6 9 18.5 16.5t22.5 7.5h27q21 0 28 -15t-4 -34l-361 -602q-5 -9 -18 -16.5t-23 -7.5h-26q-20 0 -27.5 15t3.5 34l112 186q9 18 6 26q-58 240 -88 361q-5 19 7.5 36t32.5 17h27q11 0 21 -7.5t12 -17.5l45 -185q6 -26 32 -26.5t42 25.5zM434 479
q-14 -11 -30.5 -11t-26.5 11l-108 130q-10 11 -7 28t17 28l17 15q14 11 30 11t26 -11l108 -131q9 -11 6 -28t-16 -28z" />
    <glyph glyph-name="quoteleft" unicode="&#x2018;" 
d="M330 423q-17 0 -26.5 12t-6.5 28l33 192q3 17 17 28.5t31 11.5h23q16 0 25.5 -11.5t6.5 -28.5l-33 -192q-3 -17 -17 -28.5t-30 -11.5h-23z" />
    <glyph glyph-name="quoteright" unicode="&#x2019;" 
d="M330 423q-17 0 -26.5 12t-6.5 28l33 192q3 17 17 28.5t31 11.5h23q16 0 25.5 -11.5t6.5 -28.5l-33 -192q-3 -17 -17 -28.5t-30 -11.5h-23z" />
    <glyph glyph-name="quotedblleft" unicode="&#x201c;" 
d="M255 423q-17 0 -26.5 12t-6.5 28l33 192q3 17 17 28.5t31 11.5h23q16 0 25.5 -11.5t6.5 -28.5l-33 -192q-3 -17 -17 -28.5t-30 -11.5h-23zM404 423q-17 0 -26.5 12t-6.5 28l33 192q3 17 17 28.5t31 11.5h23q16 0 25.5 -11.5t6.5 -28.5l-33 -192q-3 -17 -17 -28.5
t-30 -11.5h-23z" />
    <glyph glyph-name="quotedblright" unicode="&#x201d;" 
d="M255 423q-17 0 -26.5 12t-6.5 28l33 192q3 17 17 28.5t31 11.5h23q16 0 25.5 -11.5t6.5 -28.5l-33 -192q-3 -17 -17 -28.5t-30 -11.5h-23zM404 423q-17 0 -26.5 12t-6.5 28l33 192q3 17 17 28.5t31 11.5h23q16 0 25.5 -11.5t6.5 -28.5l-33 -192q-3 -17 -17 -28.5
t-30 -11.5h-23z" />
    <glyph glyph-name="dagger" unicode="&#x2020;" 
d="M184 470q3 17 17 28.5t30 11.5h34q16 0 30 11.5t17 28.5l18 105q3 17 17 28.5t31 11.5h23q16 0 25.5 -11.5t6.5 -28.5l-18 -105q-3 -16 6.5 -28t26.5 -12h33q17 0 26.5 -12t6.5 -28l-4 -20q-3 -17 -17 -28.5t-30 -11.5h-33q-16 0 -30 -11.5t-17 -28.5l-58 -330
q-3 -17 -17 -28.5t-30 -11.5h-23q-17 0 -26.5 12t-6.5 28l58 330q3 16 -6.5 28t-26.5 12h-34q-17 0 -26.5 12t-6.5 28z" />
    <glyph glyph-name="bullet" unicode="&#x2022;" 
d="M406 261q-7 -39 -39.5 -67t-71.5 -28t-61 28t-15 67q7 38 39.5 65.5t69.5 27.5q38 0 61.5 -27.5t16.5 -65.5z" />
    <glyph glyph-name="franc" unicode="&#x20a3;" 
d="M-44 189q3 17 17 28.5t30 11.5h31q17 0 31 12t16 28l68 386q3 17 17 28.5t31 11.5h381q16 0 25.5 -11.5t6.5 -28.5l-3 -20q-3 -17 -17 -28.5t-30 -11.5h-278q-16 0 -30 -11.5t-17 -28.5l-21 -118q-3 -16 6.5 -28t26.5 -12h105q17 0 26.5 -12t6.5 -28l-3 -19
q-3 -17 -17 -28.5t-30 -11.5h-111q-14 0 -26 -10t-15 -24q-2 -15 6.5 -25t22.5 -10h41q17 0 26.5 -12t6.5 -28l-3 -19q-3 -17 -17 -28.5t-30 -11.5h-36q-16 0 -30 -11.5t-17 -28.5l-9 -50q-3 -17 -17 -28.5t-30 -11.5h-23q-17 0 -26.5 12t-6.5 28l9 50q3 16 -6.5 28
t-26.5 12h-31q-17 0 -26.5 12t-6.5 28z" />
    <glyph glyph-name="Euro" unicode="&#x20ac;" 
d="M87 289q2 13 13.5 22.5t24.5 9.5h6q11 0 20.5 8t10.5 19q2 11 -4.5 18.5t-17.5 7.5h-6q-13 0 -20.5 10t-5.5 23l6 35q2 13 13.5 22.5t24.5 9.5q11 0 24.5 12.5t17.5 24.5q28 79 102 131.5t157 52.5q43 0 71 -9t64 -29q12 -7 13.5 -20.5t-7.5 -26.5l-26 -38q-5 -8 -15 -10
t-17 2q-52 31 -101 31q-41 0 -79 -24t-57 -63q-18 -34 23 -34h153q16 0 25.5 -11.5t7.5 -28.5l-4 -20q-3 -17 -17 -28.5t-30 -11.5h-161q-10 0 -19.5 -7.5t-11.5 -18.5t4.5 -19t17.5 -8h161q16 0 25.5 -11.5t7.5 -28.5l-4 -20q-3 -17 -17 -28.5t-30 -11.5h-153
q-19 0 -28 -8.5t-7 -25.5q5 -39 34.5 -63t71.5 -24q46 0 112 31q9 4 18 1.5t12 -10.5l13 -38q4 -11 -2.5 -24t-19.5 -18q-95 -42 -151 -42q-83 0 -138.5 52.5t-54.5 131.5q0 12 -9.5 24.5t-20.5 12.5q-13 0 -20.5 10t-5.5 23z" />
    <glyph glyph-name="minus" unicode="&#x2212;" 
d="M164 357q3 17 17 28.5t30 11.5h250q17 0 26.5 -12t6.5 -28l-3 -19q-3 -17 -17 -28.5t-30 -11.5h-250q-17 0 -26.5 11.5t-6.5 28.5z" />
    <glyph glyph-name="approxequal" unicode="&#x2248;" 
d="M242 364q-19 0 -32.5 -12.5t-17.5 -31.5q-1 -11 4 -42q0 -6 -6 -7l-77 -29q-15 -6 -17 8q-10 43 -4 71q11 59 59.5 100.5t107.5 41.5q42 0 69 -18.5t36 -40.5t22.5 -40.5t30.5 -18.5q16 0 29.5 14.5t16.5 31.5q2 8 -5 43q0 2 3 3l86 32q14 5 16 -8q7 -39 2 -69
q-11 -61 -59.5 -104t-108.5 -43q-39 0 -66 18.5t-37.5 41t-23.5 41t-28 18.5zM206 156q-18 0 -32.5 -13t-17.5 -31q-2 -11 3 -42q0 -5 -5 -7l-78 -29q-14 -5 -17 8q-9 40 -4 71q11 59 59.5 100.5t107.5 41.5q42 0 69 -18.5t36 -40.5t22.5 -40.5t30.5 -18.5q16 0 29.5 14
t16.5 31q1 10 -4 42q-2 4 4 6l84 31q14 5 16 -8q8 -43 2 -69q-11 -61 -59 -104t-108 -43q-39 0 -66 18.5t-37.5 41t-23.5 41t-28 18.5z" />
    <glyph glyph-name="notequal" unicode="&#x2260;" 
d="M224 84q-17 -19 -38 -19h-40q-17 0 -22 13.5t6 28.5l21 25q4 6 2.5 11t-7.5 5q-18 0 -16 19l7 40q3 17 17 28.5t31 11.5h52q5 0 9 4q2 3 7 8l8 8q2 4 -2 4h-70q-17 0 -26.5 12t-6.5 28l3 20q3 17 17 28.5t30 11.5h116q20 0 36 18l43 53q5 6 17.5 12t19.5 6h37
q19 0 24.5 -14.5t-7.5 -29.5l-22 -28q-3 -4 -3.5 -8t2 -6.5t7.5 -2.5q8 0 13 -6t4 -14l-7 -40q-3 -17 -17 -28.5t-30 -11.5h-58q-6 0 -8 -4l-8 -8t-7 -8q-4 -4 2 -4h75q16 0 25.5 -11.5t6.5 -28.5l-3 -19q-3 -17 -17 -28.5t-30 -11.5h-120q-8 0 -20 -6t-17 -13z" />
    <glyph glyph-name="lessequal" unicode="&#x2264;" 
d="M117 90q3 17 17 28.5t30 11.5h28q14 0 20 13.5t-5 20.5l-51 32q-7 4 -11.5 15.5t-2.5 19.5l7 41q2 8 10 19t15 15l290 159q20 11 34 2t10 -29l-6 -35q-1 -7 -9 -18t-15 -16l-147 -84q-22 -13 -25.5 -34t13.5 -34l117 -84q6 -4 10 -15t2 -19l-5 -29q-3 -17 -17 -28.5
t-30 -11.5h-250q-17 0 -26.5 12t-6.5 28z" />
    <glyph glyph-name="greaterequal" unicode="&#x2265;" 
d="M443 70q-3 -17 -17 -28.5t-30 -11.5h-250q-17 0 -26.5 12t-6.5 28l5 29q2 8 10 19t15 15l147 84q22 13 25.5 34t-13.5 34l-117 84q-6 5 -10 16t-3 18l6 35q4 20 21 29t33 -2l234 -159q6 -5 10 -16t3 -18l-7 -41q-1 -8 -9.5 -19t-16.5 -16l-63 -32q-14 -7 -12.5 -20.5
t15.5 -13.5h28q17 0 26.5 -12t6.5 -28z" />
    <glyph glyph-name="commaaccent" unicode="&#xf6c3;" 
d="M224 -268q-17 0 -26.5 12t-6.5 28l12 71q1 3 -2 11t-5 10q-18 19 -13 52q5 28 29 47.5t51 19.5t44 -20t12 -47l-25 -144q-3 -17 -17 -28.5t-30 -11.5h-23z" />
    <glyph glyph-name="NULL" horiz-adv-x="0" 
 />
    <glyph glyph-name="Q.alt" 
d="M568 408q-16 -89 -99.5 -157.5t-171.5 -64.5q-6 0 -19 -4t-17 -8l-15 -13q-8 -7 -6 -17t11 -12q14 -3 46.5 -12.5t57 -14.5t49.5 -5q40 0 95 23q8 2 13 -1t4 -10l-12 -65q-2 -9 -9.5 -18t-17.5 -11q-59 -18 -110 -18q-39 0 -108 20t-107 20q-42 0 -95 -24q-7 -3 -12 0
t-4 10l11 66q2 14 17 29l74 62q15 12 17 33t-9 32q-38 40 -42.5 99.5t11.5 126.5q16 91 96.5 156t172.5 65q91 0 149 -65t42 -156zM477 474q9 50 -23.5 85.5t-82.5 35.5t-94.5 -35.5t-53.5 -85.5l-12 -66q-9 -50 23.5 -85.5t82.5 -35.5t94.5 35.5t53.5 85.5z" />
  </font>
</defs>
</svg>
