<?xml version="1.0" standalone="no"?>
<!DOCTYPE svg PUBLIC "-//W3C//DTD SVG 1.1//EN" "http://www.w3.org/Graphics/SVG/1.1/DTD/svg11.dtd" >
<svg xmlns="http://www.w3.org/2000/svg" xmlns:xlink="http://www.w3.org/1999/xlink" version="1.1">
<metadata>
Created by FontForge 20170731 at Sat Feb  6 19:25:37 2016
 By Aleksey,,,
Copyright (c) 2016 by Valerio Dell'Edera. All rights reserved.
</metadata>
<defs>
<font id="Monique-RegularObliqueRound20" horiz-adv-x="547" >
  <font-face 
    font-family="Monique Round 20"
    font-weight="400"
    font-style="oblique"
    font-stretch="normal"
    units-per-em="1000"
    panose-1="2 0 0 9 0 0 0 0 0 0"
    ascent="800"
    descent="-200"
    x-height="447"
    cap-height="695"
    bbox="-40.5714 -283 1600.17 1006"
    underline-thickness="50"
    underline-position="-200"
    unicode-range="U+000D-FB06"
  />
<missing-glyph 
 />
    <glyph glyph-name="ff" unicode="ff" horiz-adv-x="1094" 
d="M1094 398q8 0 13 -6t4 -14l-5 -28q-4 -20 -24 -20h-212q-19 0 -23 -20l-51 -290q-4 -20 -24 -20h-28q-8 0 -13 6t-3 14l51 290q1 8 -4 14t-13 6h-439q-19 0 -23 -20l-51 -290q-4 -20 -24 -20h-28q-8 0 -13 6t-3 14l51 290q1 8 -4 14t-13 6h-87q-8 0 -13 6t-3 14l5 28
q4 20 23 20h87q20 0 24 20l20 117q12 66 67 113t122 47q60 0 98.5 -40.5t35.5 -99.5q-2 -20 -23 -20h-29q-6 0 -12 6t-6 12q-2 32 -23 52.5t-54 20.5q-38 0 -69.5 -26.5t-38.5 -64.5l-20 -117q-2 -8 3 -14t13 -6h439q20 0 24 20l20 117q12 66 67 113t122 47q60 0 98.5 -40.5
t35.5 -99.5q-2 -20 -23 -20h-29q-6 0 -12 6t-6 12q-2 32 -23 52.5t-54 20.5q-38 0 -69.5 -26.5t-38.5 -64.5l-20 -117q-2 -8 3 -14t13 -6h212z" />
    <glyph glyph-name="fi" unicode="fi" horiz-adv-x="1094" 
d="M905 398q8 0 13 -6t4 -14l-51 -289q-2 -8 3 -14t13 -6h149q8 0 13 -6t4 -14l-5 -29q-4 -20 -24 -20h-407q-8 0 -13 6t-3 14l5 29q4 20 23 20h149q20 0 24 20l39 221q1 8 -4 14t-13 6h-501q-19 0 -23 -20l-51 -290q-4 -20 -24 -20h-28q-8 0 -13 6t-3 14l51 290q1 8 -4 14
t-13 6h-87q-8 0 -13 6t-3 14l5 28q4 20 23 20h87q20 0 24 20l20 117q12 66 67 113t122 47q60 0 98.5 -40.5t35.5 -99.5q-2 -20 -23 -20h-29q-6 0 -12 6t-6 12q-2 32 -23 52.5t-54 20.5q-38 0 -69.5 -26.5t-38.5 -64.5l-20 -117q-2 -8 3 -14t13 -6h570zM980 614
q-4 -22 -21.5 -37t-39.5 -15q-21 0 -33.5 15t-8.5 37q4 21 21.5 36t38.5 15q22 0 34.5 -15t8.5 -36z" />
    <glyph glyph-name="ffi" unicode="ffi" horiz-adv-x="1641" 
d="M1452 398q8 0 13 -6t4 -14l-51 -289q-2 -8 3 -14t13 -6h149q8 0 13 -6t4 -14l-5 -29q-4 -20 -24 -20h-407q-8 0 -13 6t-3 14l5 29q4 20 23 20h149q20 0 24 20l39 221q1 8 -4 14t-13 6h-501q-19 0 -23 -20l-51 -290q-4 -20 -24 -20h-28q-8 0 -13 6t-3 14l51 290q1 8 -4 14
t-13 6h-439q-19 0 -23 -20l-51 -290q-4 -20 -24 -20h-28q-8 0 -13 6t-3 14l51 290q1 8 -4 14t-13 6h-87q-8 0 -13 6t-3 14l5 28q4 20 23 20h87q20 0 24 20l20 117q12 66 67 113t122 47q60 0 98.5 -40.5t35.5 -99.5q-2 -20 -23 -20h-29q-6 0 -12 6t-6 12q-2 32 -23 52.5
t-54 20.5q-38 0 -69.5 -26.5t-38.5 -64.5l-20 -117q-2 -8 3 -14t13 -6h439q20 0 24 20l20 117q12 66 67 113t122 47q60 0 98.5 -40.5t35.5 -99.5q-2 -20 -23 -20h-29q-6 0 -12 6t-6 12q-2 32 -23 52.5t-54 20.5q-38 0 -69.5 -26.5t-38.5 -64.5l-20 -117q-2 -8 3 -14t13 -6
h570zM1527 614q-4 -22 -21.5 -37t-39.5 -15q-21 0 -33.5 15t-8.5 37q4 21 21.5 36t38.5 15q22 0 34.5 -15t8.5 -36z" />
    <glyph glyph-name="s_t" unicode="st" horiz-adv-x="1094" 
d="M874 467q-1 -8 4 -14t13 -6h212q8 0 13 -6t3 -14l-5 -29q-4 -20 -23 -20h-212q-20 0 -24 -20l-35 -198q-7 -38 15.5 -64.5t60.5 -26.5q33 0 61.5 20.5t40.5 52.5q2 6 10 12t15 6h29q21 0 16 -20q-18 -59 -71 -99.5t-113 -40.5q-67 0 -105 47t-27 113l35 198q2 8 -3 14
t-13 6h-431q-65 0 -113 -18t-53 -44q-3 -16 7.5 -28.5t45 -21.5t91.5 -9q112 0 161.5 -36.5t39.5 -94.5q-9 -52 -80.5 -89t-165.5 -37q-81 0 -138.5 30.5t-62.5 75.5q-3 20 20 20h31q3 0 10 -6t9 -9q9 -21 48.5 -34.5t93.5 -13.5q65 0 113.5 18.5t53.5 44.5q3 19 -6.5 32
t-44 22t-94.5 9q-110 0 -160 36t-40 91q10 54 82.5 92.5t163.5 38.5h431q19 0 23 20l16 87q4 20 23 20h28q8 0 13 -6t4 -14z" />
    <glyph glyph-name="c_k" unicode="ck" horiz-adv-x="1094" 
d="M694 695h75q8 0 13 -6t3 -14l-72 -408q-2 -13 8 -18.5t22 2.5l279 192q8 4 13 4h40q13 0 14.5 -11t-9.5 -19l-166 -116q-18 -13 -9 -27l123 -243q5 -11 -2 -21t-20 -10h-29q-11 0 -15 9l-111 223q-4 8 -12 9t-16 -5l-123 -86q-10 -8 -10 -16l-20 -114q-4 -20 -24 -20h-29
q-8 0 -13 6t-3 14l104 593q2 13 -11 13h-13q-67 0 -121.5 -45t-65.5 -110q-7 -39 7 -74q0 -1 1.5 -3t1.5 -3q29 -29 42 -64q7 -17 -12 -24l-34 -13q-19 -6 -25 9q-15 36 -48.5 57.5t-77.5 21.5q-67 0 -122 -45.5t-66 -109.5t27.5 -109t105.5 -45q44 0 85.5 21.5t68.5 57.5
q11 15 28 9l27 -12q19 -9 6 -26q-39 -54 -100 -86.5t-127 -32.5q-96 0 -152.5 65.5t-40.5 157.5q16 93 96 158.5t176 65.5q23 0 53 -7q4 0 4 3q2 20 4 28q16 93 96 158.5t176 65.5z" />
    <glyph glyph-name="f_t" unicode="ft" horiz-adv-x="1094" 
d="M866 418q-2 -8 3 -14t13 -6h212q8 0 13 -6t4 -14l-5 -28q-4 -20 -24 -20h-212q-19 0 -23 -20l-27 -150q-7 -38 15.5 -64.5t60.5 -26.5q33 0 61.5 20.5t40.5 52.5q2 6 10 12t15 6h29q21 0 16 -20q-18 -59 -71 -99.5t-113 -40.5q-67 0 -105 47t-27 113l27 150q1 8 -4 14
t-13 6h-439q-19 0 -23 -20l-51 -290q-4 -20 -24 -20h-28q-8 0 -13 6t-3 14l51 290q1 8 -4 14t-13 6h-87q-8 0 -13 6t-3 14l5 28q4 20 23 20h87q20 0 24 20l20 117q12 66 67 113t122 47q60 0 98.5 -40.5t35.5 -99.5q-2 -20 -23 -20h-29q-6 0 -12 6t-6 12q-2 32 -23 52.5
t-54 20.5q-38 0 -69.5 -26.5t-38.5 -64.5l-20 -117q-2 -8 3 -14t13 -6h439q20 0 24 20l24 136q4 20 23 20h28q8 0 13 -6t4 -14z" />
    <glyph glyph-name=".notdef" 
 />
    <glyph glyph-name=".null" horiz-adv-x="0" 
 />
    <glyph glyph-name="nonmarkingreturn" horiz-adv-x="333" 
 />
    <glyph glyph-name="CR" unicode="&#xd;" 
 />
    <glyph glyph-name="CR" 
 />
    <glyph glyph-name="space" unicode=" " 
 />
    <glyph glyph-name="exclam" unicode="!" 
d="M299 221q-8 0 -13 6t-4 14l77 434q4 20 24 20h26q8 0 13 -6t3 -14l-77 -434q-1 -8 -8 -14t-15 -6h-26zM334 52q-4 -22 -21.5 -37t-39.5 -15q-21 0 -33.5 15t-8.5 37q4 21 21.5 36t38.5 15q22 0 34.5 -15t8.5 -36z" />
    <glyph glyph-name="quotedbl" unicode="&#x22;" 
d="M311 467q-4 -20 -23 -20h-29q-8 0 -13 6t-4 14l37 208q4 20 24 20h29q8 0 13 -6t3 -14zM469 467q-4 -20 -23 -20h-29q-8 0 -13 6t-4 14l37 208q4 20 24 20h29q8 0 13 -6t3 -14z" />
    <glyph glyph-name="numbersign" unicode="#" 
d="M249 0q-11 0 -15 8t0 18l48 103q5 11 1 18.5t-15 7.5h-61q-15 0 -21 -14l-59 -127q-8 -14 -22 -14h-28q-11 0 -15 8t0 18l50 107q4 9 0.5 15.5t-12.5 6.5h-3q-8 0 -13 6t-3 14l4 26q4 20 24 20h29q14 0 22 14l87 186q4 10 0 18t-15 8h-14q-8 0 -13 6t-4 14l5 26
q4 20 23 20h45q16 0 22 14l72 154q6 14 22 14h31q11 0 15 -7.5t-1 -18.5l-61 -130q-5 -11 -1 -18.5t15 -7.5h61q15 0 21 14l73 154q6 14 21 14h29q11 0 15 -8t0 -18l-62 -131q-5 -10 0 -17.5t15 -7.5h6q8 0 13 -6t4 -14l-5 -26q-4 -20 -23 -20h-37q-14 0 -22 -14l-87 -186
q-4 -10 0 -18t15 -8h22q8 0 13 -6t3 -14l-4 -26q-4 -20 -24 -20h-53q-15 0 -21 -14l-59 -127q-8 -14 -22 -14h-31zM346 447q-14 0 -22 -14l-88 -186q-4 -10 0 -18t15 -8h60q14 0 22 14l88 186q4 10 0 18t-15 8h-60z" />
    <glyph glyph-name="dollar" unicode="$" 
d="M346 690q17 4 19 21l12 64q4 20 23 20h26q8 0 13 -6t4 -14l-12 -65q-2 -18 12 -21q66 -13 107 -58t38 -106q0 -9 -6.5 -15t-15.5 -6h-29q-6 0 -12 7.5t-7 14.5q-1 31 -22.5 56t-55.5 37q-10 4 -18 -1t-10 -16l-37 -212q-1 -6 2.5 -12t9.5 -8q74 -21 114.5 -68t29.5 -112
q-13 -67 -72 -119t-137 -66q-15 -3 -19 -21l-11 -64q-4 -20 -24 -20h-26q-8 0 -13 6t-3 14l11 64q2 7 -1.5 13t-10.5 7q-66 13 -106 58.5t-38 106.5q2 22 23 22h29q7 0 12.5 -5.5t5.5 -12.5q0 -33 21 -59t57 -38q23 -7 28 18l37 210q2 16 -12 20q-74 21 -114 68t-29 112
q12 67 71 119.5t136 66.5zM208 504q-13 -75 77 -110q10 -4 18 1t10 17l33 190q2 10 -4 15.5t-17 1.5q-46 -14 -78 -45t-39 -70zM462 190q6 37 -15.5 65t-62.5 44q-10 4 -18 -1.5t-10 -16.5l-33 -187q-2 -11 4 -16t17 -2q45 14 78 45t40 69z" />
    <glyph glyph-name="percent" unicode="%" 
d="M570 622q13 0 16.5 -10t-5.5 -21l-437 -513q-9 -9 -18 -9h-27q-13 0 -16.5 10.5t5.5 20.5l437 513q9 9 18 9h27zM199 499q-25 0 -40 17.5t-10 43.5t26 44t46 18t40.5 -18t10.5 -44q-4 -25 -25.5 -43t-47.5 -18zM447 69q-25 0 -40 17.5t-10 43.5t26 44t46 18t40.5 -18
t10.5 -44q-4 -25 -25.5 -43t-47.5 -18z" />
    <glyph glyph-name="ampersand" unicode="&#x26;" 
d="M448 0q-8 0 -13 6t-3 14l1 6q1 8 -6 11.5t-15 -1.5q-67 -36 -138 -36q-93 0 -148.5 55.5t-41.5 134.5q14 81 93 138q9 6 11.5 20t-3.5 20q-59 56 -46 137q14 79 90 134.5t168 55.5q83 0 138 -48t53 -119q0 -9 -6.5 -16t-15.5 -7h-29q-6 0 -12 7t-6 13q-2 44 -40 74
t-94 30q-63 0 -115.5 -36.5t-61.5 -87.5q-9 -50 28.5 -86.5t98.5 -38.5h209q8 0 13 -6t3 -14l-59 -340q-4 -20 -24 -20h-29zM286 66q63 0 114.5 36t61.5 88l18 105q2 8 -3 14t-13 6h-134q-65 0 -116.5 -36.5t-60.5 -88.5q-10 -52 29 -88t104 -36z" />
    <glyph glyph-name="quotesingle" unicode="'" 
d="M390 467q-4 -20 -23 -20h-29q-8 0 -13 6t-4 14l37 208q4 20 24 20h29q8 0 13 -6t3 -14z" />
    <glyph glyph-name="parenleft" unicode="(" 
d="M559 784q1 -1 2 -1.5l3 -1.5t2.5 -1.5t-1.5 -2.5q-132 -113 -200.5 -263t-59 -301.5t95.5 -267.5q3 -4 5.5 -12.5t-0.5 -12.5q-7 -5 -21.5 -14.5t-20.5 -14.5q-2 -1 -4 -4t-2.5 -3.5t-2.5 0.5q-103 124 -120 289.5t52 332t210 294.5q23 18 30 13q5 -5 16.5 -15t15.5 -14z
" />
    <glyph glyph-name="parenright" unicode=")" 
d="M270 759q-3 4 -5.5 12.5t0.5 12.5q6 5 21 14.5t21 14.5q2 1 4 4t3 3.5t3 -0.5q102 -124 119 -289.5t-52 -332t-210 -294.5q-5 -4 -16 -9.5t-13 -3.5q-4 4 -15.5 14t-16.5 15q-2 2 -6 3q-2 3 -1 4q132 113 200.5 263t59 301.5t-95.5 267.5z" />
    <glyph glyph-name="asterisk" unicode="*" 
d="M180 231q-8 0 -13 6t-4 14l5 25q4 20 23 20h82q20 0 24 20l12 72q4 20 24 20h25q8 0 13 -6t3 -14l-12 -72q-2 -8 3 -14t13 -6h82q8 0 13 -6t4 -14l-5 -25q-4 -20 -23 -20h-43q-12 0 -19.5 -9.5t-3.5 -19.5l21 -59q6 -16 -12 -27l-22 -11q-18 -10 -26 7l-24 57
q-4 11 -15 11t-19 -11l-42 -57q-13 -17 -29 -7l-19 11q-14 10 -3 27l41 59q8 10 4 19.5t-16 9.5h-42z" />
    <glyph glyph-name="plus" unicode="+" 
d="M178 221q-8 0 -13 6t-4 14l5 25q4 20 23 20h82q20 0 24 20l14 82q4 20 24 20h25q8 0 13 -6t3 -14l-14 -82q-2 -8 3 -14t13 -6h82q8 0 13 -6t4 -14l-5 -25q-1 -8 -8 -14t-15 -6h-82q-20 0 -24 -20l-14 -82q-4 -20 -24 -20h-25q-8 0 -13 6t-3 14l14 82q2 8 -3 14t-13 6h-82
z" />
    <glyph glyph-name="comma" unicode="," 
d="M290 -102q-4 -20 -24 -20h-29q-8 0 -13 6t-3 14l17 94q0 11 -7 16q-22 15 -17 44q4 21 21.5 36t38.5 15q22 0 34.5 -15t8.5 -36z" />
    <glyph glyph-name="hyphen" unicode="-" 
d="M178 221q-8 0 -13 6t-4 14l5 25q4 20 23 20h269q8 0 13 -6t4 -14l-5 -25q-1 -8 -8 -14t-15 -6h-269z" />
    <glyph glyph-name="period" unicode="." 
d="M334 52q-4 -22 -21.5 -37t-39.5 -15q-21 0 -33.5 15t-8.5 37q4 21 21.5 36t38.5 15q22 0 34.5 -15t8.5 -36z" />
    <glyph glyph-name="slash" unicode="/" 
d="M607 795q11 0 15.5 -8.5t-1.5 -19.5l-507 -855q-8 -12 -21 -12h-31q-11 0 -15.5 9t2.5 19l507 855q8 12 21 12h30z" />
    <glyph glyph-name="zero" unicode="0" 
d="M396 695q93 0 140.5 -102t21.5 -246t-109 -246t-176 -102q-92 0 -139.5 102t-22.5 246t109 246t176 102zM284 64q65 0 125 83t80 200q21 117 -9.5 199.5t-95.5 82.5q-63 0 -123 -82.5t-81 -199.5q-20 -117 10.5 -200t93.5 -83z" />
    <glyph glyph-name="one" unicode="1" 
d="M489 69q8 0 13 -6t4 -14l-5 -29q-4 -20 -24 -20h-407q-8 0 -13 6t-3 14l5 29q4 20 23 20h149q20 0 24 20l91 520q2 8 -3 14t-13 6h-80q-8 0 -13 6t-4 14l5 26q4 20 24 20h149q8 0 13 -6t3 -14l-103 -586q-2 -8 3 -14t13 -6h149z" />
    <glyph glyph-name="two" unicode="2" 
d="M393 695q96 0 150.5 -62.5t38.5 -151.5q-12 -65 -57.5 -112t-104 -75.5t-117.5 -55t-107 -65.5t-62 -92q-4 -15 17 -15h338q8 0 13 -6t3 -14l-4 -26q-4 -20 -24 -20h-407q-8 0 -13 6t-3 14l8 46q11 62 47 108.5t82.5 71.5t100 50.5t99 45.5t80 56t42.5 83
q11 62 -26.5 105t-105.5 43q-93 0 -150 -57q-5 -5 -15 -7.5t-15 1.5l-20 13q-7 5 -7 13t7 16q38 40 95 63.5t117 23.5z" />
    <glyph glyph-name="three" unicode="3" 
d="M396 695q92 0 148 -56t42 -134q-13 -79 -94 -137q-9 -6 -11 -20t4 -20q60 -56 46 -138q-14 -79 -89.5 -134.5t-168.5 -55.5q-85 0 -139.5 48t-52.5 119q0 9 6.5 16t16.5 7h29q6 0 12 -7t6 -13q2 -45 39.5 -74.5t94.5 -29.5q65 0 116 36t61 88q9 53 -29.5 89t-103.5 36
h-103q-8 0 -13 6t-4 14l4 25q4 20 24 20h109q62 2 112 38.5t59 86.5q9 51 -30.5 87.5t-102.5 36.5q-56 0 -104.5 -30t-65.5 -74q-3 -7 -11.5 -13.5t-14.5 -6.5h-29q-9 0 -13 7t-1 16q23 71 95 119t156 48z" />
    <glyph glyph-name="four" unicode="4" 
d="M516 222q8 0 13 -6t4 -14l-5 -26q-4 -20 -23 -20h-67q-20 0 -24 -20l-20 -116q-4 -20 -24 -20h-29q-8 0 -13 6t-3 14l20 116q2 8 -3 14t-13 6h-231q-9 0 -14 6t-3 14l7 41l5 10l343 458q8 10 19 10h38q8 0 13 -6t3 -14l-76 -433q-2 -8 3 -14t13 -6h67zM181 252
q-8 -10 -4.5 -20t16.5 -10h147q20 0 24 20l44 252q3 16 -11 20t-24 -10z" />
    <glyph glyph-name="five" unicode="5" 
d="M195 430q-2 -8 3 -14t13 -6h143q89 0 141.5 -60t37.5 -145t-91 -145t-166 -60q-85 0 -142 54.5t-50 133.5q1 17 22 17h29q8 0 13.5 -5t4.5 -12q-1 -51 38.5 -86.5t96.5 -35.5q62 0 114 41t62 98q11 58 -24.5 98.5t-96.5 40.5h-212q-8 0 -13 6t-4 14l55 311q4 20 24 20
h407q8 0 13 -6t3 -14l-5 -26q-4 -20 -23 -20h-338q-20 0 -24 -20z" />
    <glyph glyph-name="six" unicode="6" 
d="M96 248q24 207 113 327t234 120q37 0 71 -10.5t47 -18.5t17 -12t-2 -8q-7 -4 -9 -8l-16 -21l-12 -15q-58 27 -105 27q-91 0 -156.5 -68t-89.5 -172q-1 -7 5.5 -8t13.5 3q60 38 128 41q97 5 154.5 -53t47.5 -147q-11 -88 -85.5 -154t-166.5 -71t-147 63t-42 185zM331 356
q-62 -3 -110 -47.5t-56 -104.5q-7 -59 32 -98.5t100 -35.5q62 3 113 47.5t57 103.5q8 61 -30 100t-106 35z" />
    <glyph glyph-name="seven" unicode="7" 
d="M600 695q8 0 13 -6t3 -14l-7 -42l-3 -7l-340 -613q-7 -13 -21 -13h-25q-11 0 -15.5 8t1.5 19l318 575q6 10 1.5 18.5t-15.5 8.5h-329q-8 0 -13 6t-4 14l5 26q4 20 24 20h407z" />
    <glyph glyph-name="eight" unicode="8" 
d="M494 367q-9 -6 -11.5 -20t4.5 -20q58 -54 44 -136q-14 -79 -89 -135t-167 -56q-94 0 -149.5 55.5t-41.5 135.5q13 81 93 136q8 6 10.5 20t-3.5 20q-60 57 -45 138q14 79 89.5 134.5t169.5 55.5q92 0 147 -55.5t41 -134.5q-15 -82 -92 -138zM208 505q-9 -52 30.5 -88.5
t103.5 -36.5q63 0 114.5 36.5t60.5 88.5q9 51 -30 87.5t-101 36.5q-64 0 -116.5 -36.5t-61.5 -87.5zM287 66q63 0 114.5 36.5t60.5 88.5q9 51 -30 87.5t-101 36.5q-64 0 -116.5 -36.5t-61.5 -87.5q-9 -52 30.5 -88.5t103.5 -36.5z" />
    <glyph glyph-name="nine" unicode="9" 
d="M574 447q-25 -208 -113.5 -327.5t-233.5 -119.5q-75 0 -136 41q-4 4 3 8q6 4 9 8l16 21l11 15q59 -27 106 -27q91 0 156 68t89 172q2 7 -5 8t-13 -3q-62 -38 -128 -41q-98 -5 -155.5 53t-46.5 147q11 88 85 154t167 71q92 5 147 -63t42 -185zM339 339q61 3 109.5 47.5
t56.5 104.5q7 59 -32 98.5t-101 35.5q-62 -3 -112.5 -47.5t-56.5 -103.5q-8 -61 30 -100t106 -35z" />
    <glyph glyph-name="colon" unicode=":" 
d="M338 72q-4 -22 -21.5 -37t-39.5 -15q-21 0 -33.5 15t-8.5 37q4 21 21.5 36t38.5 15q22 0 34.5 -15t8.5 -36zM391 376q-4 -22 -21.5 -37t-39.5 -15q-21 0 -33.5 15t-8.5 37q4 21 21.5 36t38.5 15q22 0 34.5 -15t8.5 -36z" />
    <glyph glyph-name="semicolon" unicode=";" 
d="M391 376q-4 -22 -21.5 -37t-39.5 -15q-21 0 -33.5 15t-8.5 37q4 21 21.5 36t38.5 15q22 0 34.5 -15t8.5 -36zM311 -82q-4 -20 -24 -20h-29q-8 0 -13 6t-3 14l16 94q2 10 -7 16q-22 15 -16 44q4 21 21.5 36t38.5 15q22 0 34.5 -15t8.5 -36z" />
    <glyph glyph-name="less" unicode="&#x3c;" 
d="M477 450q12 7 20.5 1.5t6.5 -18.5l-5 -28q0 -10 -12 -17l-219 -126q-11 -7 -13 -17t7 -17l175 -125q8 -6 6 -17l-5 -28q-2 -13 -12.5 -18.5t-20.5 1.5l-240 164q-9 7 -7 17l8 47q2 10 13 17z" />
    <glyph glyph-name="equal" unicode="=" 
d="M190 287q-8 0 -13 6t-4 14l5 25q1 8 8 14t15 6h269q8 0 13 -6t4 -14l-5 -25q-4 -20 -23 -20h-269zM167 156q-9 0 -14 6t-3 14l4 25q4 20 24 20h269q8 0 13 -6t3 -14l-4 -25q-4 -20 -23 -20h-269z" />
    <glyph glyph-name="greater" unicode="&#x3e;" 
d="M197 388q-7 5 -7 17l5 28q2 13 13 18.5t21 -1.5l240 -164q8 -6 6 -17l-8 -47q-2 -11 -12 -17l-298 -164q-12 -7 -21 -1.5t-7 18.5l5 28q2 9 12 17l220 125q11 7 12.5 17t-6.5 17z" />
    <glyph glyph-name="question" unicode="?" 
d="M345 201q-3 -6 -12 -13t-15 -7h-26q-10 0 -14 6.5t-1 15.5q11 36 37 63t55.5 44.5t59 37t53 53t31.5 80.5q11 62 -26.5 105t-105.5 43q-41 0 -82.5 -19t-69.5 -48q-5 -5 -14.5 -7.5t-14.5 1.5l-21 13q-17 10 0 29q40 43 97.5 70t116.5 27q96 0 150.5 -62.5t38.5 -151.5
q-9 -52 -33 -92.5t-54 -65t-59.5 -43.5t-55 -39t-35.5 -40zM334 52q-4 -22 -21.5 -37t-39.5 -15q-21 0 -33.5 15t-8.5 37q4 21 21.5 36t38.5 15q22 0 34.5 -15t8.5 -36z" />
    <glyph glyph-name="at" unicode="@" 
d="M133 347q-8 -5 -14.5 -1.5t-5.5 11.5l8 44q2 12 12 17q66 29 137 29q126 0 200 -90t52 -216q-14 -78 -69 -120t-109 -38q-49 5 -71 46q-2 4 -9 4.5t-12 -3.5q-45 -31 -92 -31q-45 0 -67 21.5t-15 60.5q5 30 31.5 58t84.5 38q29 6 73 2q16 -2 16 14q0 23 -12.5 37
t-36.5 14q-32 0 -58 -29q-10 -10 -20 -6l-22 12q-18 8 -3 26q49 54 113 54q53 0 84.5 -37.5t22.5 -89.5l-16 -90q-4 -18 5 -29t27 -12q37 0 58.5 32t27.5 66q17 95 -42 167t-153 72q-65 0 -125 -33zM262 94q2 2 7 12l1 6q2 11 -9 13q-37 4 -60 0q-7 -1 -13 -3t-10.5 -4
t-8.5 -4.5t-6.5 -4t-4.5 -4.5t-3.5 -4.5t-2.5 -4t-1.5 -3.5t-0.5 -3l-1 -3q0 -5 -0.5 -11.5t8 -12t25.5 -5.5q44 0 80 36z" />
    <glyph glyph-name="A" unicode="A" 
d="M495 25q1 -10 -6.5 -17.5t-17.5 -7.5h-33q-6 0 -11 4.5t-5 10.5l-14 151q0 6 -5 10.5t-11 4.5h-172q-14 0 -22 -15l-66 -151q-8 -15 -22 -15h-32q-10 0 -15 7.5t0 17.5l293 654q6 15 22 15h38q15 0 17 -15zM380 491q-2 15 -17 15t-22 -15l-96 -219q-5 -10 0 -17.5
t15 -7.5h116q10 0 17 7.5t6 17.5z" />
    <glyph glyph-name="B" unicode="B" 
d="M70 0q-8 0 -13 6t-3 14l115 655q4 20 24 20h214q88 0 140.5 -55.5t38.5 -134.5q-15 -82 -90 -138q-8 -6 -10.5 -20t3.5 -20q56 -56 42 -137q-14 -79 -86.5 -134.5t-160.5 -55.5h-214zM462 190q9 52 -26.5 88.5t-95.5 36.5h-145q-20 0 -24 -20l-37 -209q-1 -8 4 -14t13 -6
h145q60 0 108 36t58 88zM517 505q9 51 -26.5 87.5t-95.5 36.5h-145q-20 0 -24 -20l-36 -209q-2 -8 3 -14t13 -6h145q60 0 108.5 36.5t57.5 88.5z" />
    <glyph glyph-name="C" unicode="C" 
d="M284 66q59 0 109.5 37t67.5 93q2 7 10 12.5t15 5.5h29q21 0 16 -18q-22 -82 -96.5 -139t-162.5 -57q-92 0 -146 62.5t-38 151.5l47 267q16 89 92 151.5t168 62.5q87 0 142 -57t47 -139q-2 -18 -22 -18h-29q-7 0 -13 5.5t-5 12.5q2 56 -35.5 93t-96.5 37
q-64 0 -116.5 -43.5t-62.5 -104.5l-47 -267q-11 -61 26 -104.5t101 -43.5z" />
    <glyph glyph-name="D" unicode="D" 
d="M169 675q4 20 24 20h145q133 0 191 -92.5t30 -252.5q-29 -161 -120 -255.5t-224 -94.5h-145q-8 0 -13 6t-3 14zM134 86q-1 -8 4 -14t13 -6h76q101 0 170.5 78.5t91.5 203.5t-20 203t-143 78h-76q-20 0 -24 -20z" />
    <glyph glyph-name="E" unicode="E" 
d="M70 0q-8 0 -13 6t-3 14l115 655q4 20 24 20h407q8 0 13 -6t3 -14l-5 -26q-4 -20 -23 -20h-338q-20 0 -24 -20l-36 -209q-2 -8 3 -14t13 -6h155q8 0 13 -6t3 -14l-4 -25q-4 -20 -23 -20h-155q-20 0 -24 -20l-37 -209q-1 -8 4 -14t13 -6h338q8 0 13 -6t3 -14l-4 -26
q-4 -20 -24 -20h-407z" />
    <glyph glyph-name="F" unicode="F" 
d="M70 0q-8 0 -13 6t-3 14l115 655q4 20 24 20h407q8 0 13 -6t3 -14l-5 -26q-4 -20 -23 -20h-338q-20 0 -24 -20l-36 -209q-2 -8 3 -14t13 -6h155q8 0 13 -6t3 -14l-4 -25q-4 -20 -23 -20h-155q-20 0 -24 -20l-48 -275q-4 -20 -24 -20h-29z" />
    <glyph glyph-name="G" unicode="G" 
d="M348 315q-8 0 -13 6t-4 14l4 25q4 20 24 20h185q8 0 13 -6t3 -14l-25 -146q-16 -88 -93 -151t-170 -63q-92 0 -146 62.5t-38 151.5l47 267q16 89 92 151.5t168 62.5q87 0 142 -57t47 -139q-2 -18 -22 -18h-29q-7 0 -13 5.5t-5 12.5q2 56 -35.5 93t-96.5 37
q-64 0 -116.5 -43.5t-62.5 -104.5l-47 -267q-11 -61 26 -104.5t101 -43.5t117.5 43t64.5 105l14 81q2 8 -3 14t-13 6h-116z" />
    <glyph glyph-name="H" unicode="H" 
d="M600 695q8 0 13 -6t3 -14l-115 -655q-4 -20 -24 -20h-29q-8 0 -13 6t-3 14l48 275q2 8 -3 14t-13 6h-269q-20 0 -24 -20l-48 -275q-4 -20 -24 -20h-29q-8 0 -13 6t-3 14l115 655q4 20 24 20h29q8 0 13 -6t3 -14l-48 -275q-2 -8 3 -14t13 -6h269q20 0 24 20l48 275
q4 20 24 20h29z" />
    <glyph glyph-name="I" unicode="I" 
d="M181 629q-8 0 -13 6t-4 14l5 26q4 20 24 20h407q8 0 13 -6t3 -14l-5 -26q-4 -20 -23 -20h-151q-20 0 -24 -20l-92 -523q-1 -8 4 -14t13 -6h151q8 0 13 -6t3 -14l-4 -26q-4 -20 -24 -20h-407q-8 0 -13 6t-3 14l4 26q4 20 24 20h150q19 0 23 20l92 523q2 8 -3 14t-13 6
h-150z" />
    <glyph glyph-name="J" unicode="J" 
d="M600 695q8 0 13 -6t3 -14l-81 -461q-15 -87 -97.5 -150.5t-172.5 -63.5q-65 0 -113 27t-72 71q-11 18 10 29l25 13q6 4 15 1.5t12 -7.5q20 -29 56.5 -48.5t78.5 -19.5q63 0 120.5 44t68.5 104l69 395q2 8 -3 14t-13 6h-237q-8 0 -13 6t-4 14l5 26q4 20 24 20h306z" />
    <glyph glyph-name="K" unicode="K" 
d="M221 695q8 0 13 -6t3 -14l-48 -275q-2 -8 3 -14t13 -6h113q13 0 20 11l204 293q7 11 20 11h24q13 0 17 -9.5t-4 -19.5l-215 -306q-6 -8 -3 -18l106 -313q4 -10 -3.5 -19.5t-19.5 -9.5h-25q-12 0 -16 11l-98 292q-4 11 -16 11h-116q-19 0 -23 -20l-48 -274q-4 -20 -24 -20
h-28q-8 0 -13 6t-3 14l115 655q4 20 24 20h28z" />
    <glyph glyph-name="L" unicode="L" 
d="M70 0q-8 0 -13 6t-3 14l115 655q4 20 24 20h29q8 0 13 -6t3 -14l-104 -589q-1 -8 4 -14t13 -6h338q8 0 13 -6t3 -14l-4 -26q-4 -20 -24 -20h-407z" />
    <glyph glyph-name="M" unicode="M" 
d="M543 683q8 12 21 12h36q8 0 13 -6t3 -14l-115 -655q-4 -20 -24 -20h-29q-8 0 -13 6t-3 14l70 400q3 16 -12.5 19t-24.5 -11l-106 -168q-8 -12 -20 -12h-43q-13 0 -17 12l-46 168q-5 14 -21 11t-19 -19l-70 -400q-4 -20 -24 -20h-29q-8 0 -13 6t-3 14l115 655q4 20 24 20
h35q13 0 17 -12l77 -302q3 -13 16 -13t21 13z" />
    <glyph glyph-name="N" unicode="N" 
d="M547 675q4 20 24 20h29q8 0 13 -6t3 -14l-115 -655q-4 -20 -24 -20h-37q-12 0 -16 10l-179 490q-5 14 -21 10t-19 -20l-82 -470q-4 -20 -24 -20h-29q-8 0 -13 6t-3 14l115 655q4 20 24 20h37q13 0 15 -10l181 -484q5 -14 21 -10t18 20z" />
    <glyph glyph-name="O" unicode="O" 
d="M582 481l-47 -268q-16 -88 -95 -151t-169 -63q-89 0 -144 63t-39 151l47 268q16 88 93 151t166 63q90 0 147 -63t41 -151zM466 213l47 268q10 61 -29.5 104.5t-101.5 43.5t-115 -43.5t-63 -104.5l-47 -268q-11 -61 26 -104.5t99 -43.5t117.5 43.5t66.5 104.5z" />
    <glyph glyph-name="P" unicode="P" 
d="M394 629h-144q-20 0 -24 -20l-44 -251q-1 -8 4 -14t13 -6h144q60 0 109.5 42.5t60.5 102.5q10 61 -24.5 103.5t-94.5 42.5zM169 675q4 20 24 20h213q87 0 139.5 -62.5t36.5 -149.5q-15 -87 -89.5 -149t-161.5 -62h-144q-20 0 -24 -20l-40 -232q-4 -20 -24 -20h-29
q-8 0 -13 6t-3 14z" />
    <glyph glyph-name="Q" unicode="Q" 
d="M377 -35q-11 35 -45 40h-8q-27 -6 -53 -6q-89 0 -144 63t-39 151l47 268q16 88 93 151t166 63q90 0 147 -63t41 -151l-47 -268q-18 -99 -113 -164q-4 -2 -4 -6.5t2 -6.5q17 -18 23 -46q5 -21 22.5 -33.5t38.5 -10.5q5 0 12.5 -4t8.5 -8l6 -27q5 -20 -17 -25
q-49 -9 -86.5 13.5t-50.5 69.5zM466 213l47 268q10 61 -29.5 104.5t-101.5 43.5t-115 -43.5t-63 -104.5l-47 -268q-11 -61 26 -104.5t99 -43.5t117.5 43.5t66.5 104.5z" />
    <glyph glyph-name="R" unicode="R" 
d="M169 675q4 20 24 20h213q87 0 139.5 -62.5t36.5 -149.5q-11 -63 -55.5 -115.5t-105.5 -77.5q-9 -3 -15.5 -13t-3.5 -18l84 -229q4 -11 -3 -20.5t-20 -9.5h-32q-12 0 -16 10l-92 252q-4 10 -16 10h-120q-20 0 -24 -20l-40 -232q-4 -20 -24 -20h-29q-8 0 -13 6t-3 14z
M394 629h-144q-20 0 -24 -20l-44 -251q-1 -8 4 -14t13 -6h144q60 0 109.5 42.5t60.5 102.5q10 61 -24.5 103.5t-94.5 42.5z" />
    <glyph glyph-name="S" unicode="S" 
d="M339 380q93 -14 149 -64.5t43 -125.5q-14 -79 -91 -134.5t-168 -55.5q-83 0 -138 48.5t-53 119.5q1 9 7.5 16t15.5 7h29q6 0 12 -7t6 -13q2 -44 40 -74t93 -30q63 0 115.5 36t62.5 87q8 49 -31.5 82t-103.5 42q-91 13 -146.5 64t-41.5 126q14 79 90 135t166 56
q83 0 139 -48.5t54 -119.5q0 -9 -6.5 -16t-15.5 -7h-29q-6 0 -12 7t-7 13q-1 45 -40 75t-95 30q-62 0 -114 -37t-61 -88q-9 -49 29.5 -82t101.5 -42z" />
    <glyph glyph-name="T" unicode="T" 
d="M181 629q-8 0 -13 6t-4 14l5 26q4 20 24 20h407q8 0 13 -6t3 -14l-5 -26q-4 -20 -23 -20h-151q-20 0 -24 -20l-103 -589q-4 -20 -24 -20h-26q-8 0 -13 6t-3 14l103 589q2 8 -3 14t-13 6h-150z" />
    <glyph glyph-name="U" unicode="U" 
d="M547 675q4 20 24 20h29q8 0 13 -6t3 -14l-81 -461q-16 -88 -95 -151t-169 -63q-89 0 -144 63t-39 151l81 461q4 20 24 20h29q8 0 13 -6t3 -14l-81 -461q-11 -61 26.5 -104.5t99.5 -43.5t117 43.5t66 104.5z" />
    <glyph glyph-name="V" unicode="V" 
d="M292 209q2 -15 16.5 -15t21.5 15l214 471q6 15 22 15h28q10 0 15 -7.5t0 -17.5l-293 -655q-8 -15 -22 -15h-40q-6 0 -11 4.5t-5 10.5l-63 655q-1 10 6.5 17.5t17.5 7.5h27q15 0 17 -15z" />
    <glyph glyph-name="W" unicode="W" 
d="M379 267q2 -15 18 -14t21 16l127 409q6 17 23 17h28q10 0 14.5 -6.5t1.5 -16.5l-216 -655q-6 -17 -23 -17h-24q-15 0 -17 16l-8 173q-1 15 -16.5 15.5t-22.5 -14.5l-77 -175q-8 -15 -22 -15h-20q-7 0 -12 5t-4 12l22 655q0 10 7 16.5t17 6.5h28q7 0 12 -5t5 -12l-19 -408
q0 -16 15.5 -17t22.5 14l36 74q6 14 21 14h37q14 0 16 -14z" />
    <glyph glyph-name="X" unicode="X" 
d="M377 361q-6 -10 -4 -20l113 -312q4 -10 -3 -19.5t-19 -9.5h-24q-12 0 -16 10l-90 237q-4 11 -15.5 11t-19.5 -11l-172 -237q-8 -10 -20 -10h-23q-13 0 -17 9t4 20l223 312q8 10 3 19l-113 305q-4 11 3 20.5t19 9.5h24q13 0 15 -10l90 -233q5 -11 16 -11t19 11l173 233
q8 10 19 10h24q12 0 16 -9.5t-4 -20.5z" />
    <glyph glyph-name="Y" unicode="Y" 
d="M586 695q12 0 16 -9.5t-4 -20.5l-228 -314q0 -5 -4 -9l-56 -322q-4 -20 -24 -20h-26q-8 0 -13 6t-3 14l56 323v9l-116 313q-4 11 3 20.5t19 9.5h24q13 0 15 -10l90 -233q5 -11 16 -11t19 11l173 233q8 10 19 10h24z" />
    <glyph glyph-name="Z" unicode="Z" 
d="M600 695q8 0 13 -6t3 -14l-7 -40q0 -1 -5 -11l-438 -527q-9 -11 -5 -21t17 -10h311q8 0 13 -6t3 -14l-4 -26q-4 -20 -24 -20h-407q-8 0 -13 6t-3 14l7 40q0 1 5 11l437 527q9 10 5.5 20.5t-16.5 10.5h-311q-8 0 -13 6t-4 14l5 26q4 20 24 20h407z" />
    <glyph glyph-name="bracketleft" unicode="[" 
d="M171 -100q-8 0 -13 6t-3 14l151 855q4 20 23 20h169q8 0 13 -6t4 -14l-5 -26q-4 -20 -23 -20h-103q-20 0 -24 -20l-127 -723q-2 -8 3 -14t13 -6h103q8 0 13 -6t3 -14l-4 -26q-4 -20 -24 -20h-169z" />
    <glyph glyph-name="backslash" unicode="\" 
d="M419 -100q-13 0 -17 12l-205 855q-3 10 4.5 19t18.5 9h31q14 0 16 -12l206 -855q2 -11 -5 -19.5t-19 -8.5h-30z" />
    <glyph glyph-name="bracketright" unicode="]" 
d="M498 795q8 0 13 -6t4 -14l-151 -855q-4 -20 -24 -20h-169q-8 0 -13 6t-3 14l4 26q4 20 24 20h103q20 0 24 20l127 723q2 8 -3 14t-13 6h-103q-8 0 -13 6t-4 14l5 26q4 20 23 20h169z" />
    <glyph glyph-name="asciicircum" unicode="^" 
d="M551 410q4 -10 -3 -20t-19 -10h-29q-10 0 -15 9l-91 203q-5 10 -15.5 10t-18.5 -10l-160 -203q-9 -9 -19 -9h-29q-12 0 -16 10t5 20l213 275q8 10 19 10h46q12 0 16 -10z" />
    <glyph glyph-name="underscore" unicode="_" 
d="M70 0q-8 0 -13 6t-3 14l5 29q4 20 23 20h407q8 0 13 -6t4 -14l-5 -29q-4 -20 -24 -20h-407z" />
    <glyph glyph-name="grave" unicode="`" 
d="M393 562q11 -14 -5 -28l-24 -21q-17 -14 -29 0l-121 147q-12 14 5 28l24 21q7 6 15 6t13 -6z" />
    <glyph glyph-name="a" unicode="a" 
d="M474 259l-21 -120q-4 -23 6.5 -42t30.5 -26q5 -2 11 -9.5t5 -12.5l-5 -29q-5 -20 -24 -19q-54 9 -81 54q-3 6 -14 7.5t-18 -3.5q-81 -59 -172 -59q-67 0 -98.5 32t-21.5 90q3 19 11.5 37t26.5 40t52 39t80 25q48 9 144 1q10 -1 16 4.5t5 16.5q-2 40 -31 66.5t-71 26.5
q-64 0 -108 -51q-15 -15 -30 -8l-23 11q-16 10 -3 28q33 41 79.5 65t96.5 24q78 0 124 -55t33 -133zM383 149q5 5 5 11l5 25q1 7 -3.5 13t-11.5 7q-83 8 -129 0q-34 -6 -57.5 -17t-33 -25t-12.5 -20.5t-5 -17.5q0 -10 -1.5 -22.5t16 -24t53.5 -11.5q97 0 174 82z" />
    <glyph glyph-name="b" unicode="b" 
d="M352 447q93 0 147 -65.5t37 -158.5q-16 -92 -93 -157.5t-170 -65.5q-73 0 -124 43q-5 5 -14 1.5t-10 -10.5l-2 -14q-4 -20 -24 -20h-29q-8 0 -13 6t-3 14l115 655q4 20 24 20h29q8 0 13 -6t3 -14l-46 -262q-1 -8 6 -11t14 2q67 43 140 43zM285 69q64 0 117.5 45t64.5 109
q11 65 -26 110t-101 45q-63 0 -116.5 -44.5t-65.5 -110.5q-11 -64 26 -109t101 -45z" />
    <glyph glyph-name="c" unicode="c" 
d="M448 148q11 15 28 9l27 -12q19 -9 6 -26q-39 -54 -100 -86.5t-127 -32.5q-96 0 -152.5 65.5t-40.5 157.5q16 93 96 158.5t176 65.5q66 0 115.5 -33t69.5 -86q6 -17 -15 -26l-31 -12q-19 -6 -25 9q-15 36 -48.5 57.5t-77.5 21.5q-67 0 -122 -45.5t-66 -109.5t27.5 -109
t105.5 -45q44 0 85.5 21.5t68.5 57.5z" />
    <glyph glyph-name="d" unicode="d" 
d="M353 447q73 0 124 -43q5 -5 14 -2t10 11l46 262q4 20 24 20h29q8 0 13 -6t3 -14l-115 -655q-4 -20 -24 -20h-29q-8 0 -13 6t-3 14l2 14q1 7 -6 10.5t-15 -1.5q-65 -43 -139 -43q-93 0 -147 65.5t-38 157.5q16 93 93.5 158.5t170.5 65.5zM286 69q64 0 117 45t64 109
q12 66 -25.5 110.5t-100.5 44.5q-65 0 -118.5 -45.5t-64.5 -109.5t26.5 -109t101.5 -45z" />
    <glyph glyph-name="e" unicode="e" 
d="M419 129q5 6 14.5 8.5t14.5 -1.5l23 -14q16 -10 4 -25q-39 -45 -92.5 -71t-109.5 -26q-92 0 -146 65.5t-38 157.5q16 93 93.5 158.5t169.5 65.5q98 0 151 -73.5t30 -165.5q-6 -19 -22 -19h-330q-11 0 -17.5 -7.5t-3.5 -17.5q10 -43 44 -69t81 -26q77 0 134 60zM181 283
q-7 -11 -3 -18t15 -7h252q11 0 17 7t4 18q-10 42 -44 68.5t-82 26.5t-91.5 -26.5t-67.5 -68.5z" />
    <glyph glyph-name="f" unicode="f" 
d="M547 398q8 0 13 -6t4 -14l-5 -28q-4 -20 -24 -20h-212q-19 0 -23 -20l-51 -290q-4 -20 -24 -20h-28q-8 0 -13 6t-3 14l51 290q1 8 -4 14t-13 6h-87q-8 0 -13 6t-3 14l5 28q4 20 23 20h87q20 0 24 20l20 117q12 66 67 113t122 47q60 0 98.5 -40.5t35.5 -99.5
q-2 -20 -23 -20h-29q-6 0 -12 6t-6 12q-2 32 -23 52.5t-54 20.5q-38 0 -69.5 -26.5t-38.5 -64.5l-20 -117q-2 -8 3 -14t13 -6h212z" />
    <glyph glyph-name="g" unicode="g" 
d="M424 -25l10 59q1 7 -6 10.5t-15 -1.5q-67 -43 -140 -43q-92 0 -146 65.5t-38 157.5q16 93 93.5 158.5t169.5 65.5q74 0 125 -43q5 -5 14 -2t10 11l2 14q4 20 24 20h29q8 0 13 -6t3 -14l-79 -452q-17 -92 -94 -157.5t-170 -65.5q-56 0 -99.5 26t-66.5 71q-7 14 12 25
l27 14q7 4 15.5 1.5t11.5 -8.5q37 -60 112 -60q65 0 118.5 45t64.5 109zM285 69q63 0 115 42.5t66 104.5q12 69 -24.5 115.5t-101.5 46.5q-64 0 -117.5 -45.5t-64.5 -109.5t26 -109t101 -45z" />
    <glyph glyph-name="h" unicode="h" 
d="M536 223l-35 -203q-4 -20 -24 -20h-29q-8 0 -13 6t-3 14l35 203q11 65 -26 110t-101 45q-62 0 -114.5 -43.5t-66.5 -105.5l-36 -209q-4 -20 -24 -20h-29q-8 0 -13 6t-3 14l115 655q4 20 24 20h29q8 0 13 -6t3 -14l-46 -262q-1 -8 6 -11t14 2q67 43 140 43q93 0 147 -65.5
t37 -158.5z" />
    <glyph glyph-name="i" unicode="i" 
d="M367 447q8 0 13 -6t3 -14l-59 -338q-2 -8 3 -14t13 -6h149q8 0 13 -6t4 -14l-5 -29q-4 -20 -24 -20h-407q-8 0 -13 6t-3 14l5 29q4 20 23 20h149q20 0 24 20l47 269q2 8 -3 14t-13 6h-101q-8 0 -13 6t-4 14l5 29q4 20 24 20h170zM433 614q-4 -22 -21.5 -37t-39.5 -15
q-21 0 -33.5 15t-8.5 37q4 21 21.5 36t38.5 15q22 0 34.5 -15t8.5 -36z" />
    <glyph glyph-name="j" unicode="j" 
d="M234 378q-8 0 -13 6t-4 14l5 29q4 20 24 20h281q8 0 13 -6t3 -14l-79 -452q-16 -93 -94 -158.5t-170 -65.5q-56 0 -100 26t-67 71q-7 14 12 25l28 14q17 9 27 -7q35 -60 112 -60q64 0 117.5 45.5t65.5 109.5l67 383q2 8 -3 14t-13 6h-212zM593 614q-4 -22 -21.5 -37
t-39.5 -15q-21 0 -33.5 15t-8.5 37q4 21 21.5 36t38.5 15q22 0 34.5 -15t8.5 -36z" />
    <glyph glyph-name="k" unicode="k" 
d="M528 447q13 0 14.5 -11t-9.5 -19l-166 -116q-18 -13 -9 -27l123 -243q5 -11 -2 -21t-20 -10h-29q-10 0 -15 9l-111 223q-4 8 -12 9t-16 -5l-123 -86q-10 -8 -10 -16l-20 -114q-4 -20 -24 -20h-29q-8 0 -13 6t-3 14l115 655q4 20 24 20h29q8 0 13 -6t3 -14l-72 -408
q-2 -13 8 -18.5t22 2.5l279 192q8 4 13 4h40z" />
    <glyph glyph-name="l" unicode="l" 
d="M489 69q8 0 13 -6t4 -14l-5 -29q-4 -20 -24 -20h-407q-8 0 -13 6t-3 14l5 29q4 20 23 20h149q20 0 24 20l91 520q2 8 -3 14t-13 6h-80q-8 0 -13 6t-4 14l5 26q4 20 24 20h149q8 0 13 -6t3 -14l-103 -586q-2 -8 3 -14t13 -6h149z" />
    <glyph glyph-name="m" unicode="m" 
d="M447 447q53 0 84.5 -38t21.5 -91l-52 -298q-4 -20 -24 -20h-27q-8 0 -13 6t-3 14l52 298q5 26 -10.5 44t-40.5 18t-46 -18t-26 -44l-52 -298q-4 -20 -24 -20h-29q-8 0 -13 6t-3 14l52 298q5 25 -9.5 42.5t-39.5 17.5t-45 -17.5t-25 -42.5l-52 -298q-4 -20 -24 -20h-29
q-8 0 -13 6t-3 14l71 407q4 20 24 20h41q8 0 6 -7q0 -6 6 -5q27 12 55 12q46 0 77 -29q3 -4 12.5 -4t13.5 4q42 29 87 29z" />
    <glyph glyph-name="n" unicode="n" 
d="M352 447q93 0 147 -65.5t37 -158.5l-35 -203q-4 -20 -24 -20h-29q-8 0 -13 6t-3 14l35 203q11 65 -26 110t-101 45t-117.5 -45t-64.5 -109l-35 -204q-4 -20 -24 -20h-29q-8 0 -13 6t-3 14l71 407q4 20 24 20h29q8 0 13 -6t3 -14l-2 -14q-1 -8 6 -11t14 2q67 43 140 43z
" />
    <glyph glyph-name="o" unicode="o" 
d="M352 447q93 0 147 -65.5t37 -158.5q-16 -92 -93 -157.5t-170 -65.5q-92 0 -146 65.5t-38 157.5q16 93 93.5 158.5t169.5 65.5zM285 69q64 0 117.5 45t64.5 109q11 65 -26 110t-101 45t-117.5 -45.5t-64.5 -109.5t26 -109t101 -45z" />
    <glyph glyph-name="p" unicode="p" 
d="M536 224q-16 -93 -93 -158.5t-170 -65.5q-73 0 -124 43q-5 5 -14 1.5t-10 -10.5l-46 -262q-4 -20 -24 -20h-29q-8 0 -13 6t-3 14l115 655q4 20 24 20h29q8 0 13 -6t3 -14l-2 -14q-1 -8 6 -11t14 2q67 43 140 43q93 0 147 -65.5t37 -157.5zM467 224q11 64 -26 109.5
t-101 45.5q-63 0 -116.5 -44t-63.5 -105q-13 -68 24 -114.5t101 -46.5t117.5 45t64.5 110z" />
    <glyph glyph-name="q" unicode="q" 
d="M89 224q17 92 94 157.5t170 65.5q73 0 124 -43q5 -5 14 -2t10 11l2 14q4 20 24 20h29q8 0 13 -6t3 -14l-115 -655q-4 -20 -24 -20h-29q-8 0 -13 6t-3 14l46 262q1 7 -6 10.5t-15 -1.5q-65 -43 -139 -43q-93 0 -147 65.5t-38 158.5zM158 224q-11 -64 26 -109.5t102 -45.5
q64 0 117 46t66 115q10 61 -28 105t-100 44q-64 0 -118 -45.5t-65 -109.5z" />
    <glyph glyph-name="r" unicode="r" 
d="M454 378q-64 0 -117.5 -45t-64.5 -109l-23 -135q-2 -8 3 -14t13 -6h127q8 0 13 -6t4 -14l-5 -29q-4 -20 -24 -20h-310q-8 0 -13 6t-3 14l5 29q4 20 23 20h74q20 0 24 20l47 269q2 8 -3 14t-13 6h-74q-8 0 -13 6t-4 14l5 29q4 20 24 20h143q8 0 13 -6t3 -14l-2 -14
q-1 -8 6 -11t14 2q67 43 140 43q49 0 89 -20q15 -9 4 -25l-24 -33q-8 -10 -19 -5q-26 14 -62 14z" />
    <glyph glyph-name="s" unicode="s" 
d="M318 257q112 0 161.5 -36.5t39.5 -94.5q-9 -52 -80.5 -89t-165.5 -37q-81 0 -138.5 30.5t-62.5 75.5q-3 20 20 20h31q3 0 10 -6t9 -9q9 -21 48.5 -34.5t93.5 -13.5q65 0 113.5 18.5t53.5 44.5q3 19 -6.5 32t-44 22t-94.5 9q-110 0 -160 36t-40 91q10 54 82.5 92.5
t163.5 38.5q85 0 141 -31t61 -79q2 -21 -21 -21h-31q-3 0 -10 6t-9 9q-9 22 -48.5 37.5t-93.5 15.5q-64 0 -113 -21t-54 -47q-3 -16 7.5 -28.5t45 -21.5t91.5 -9z" />
    <glyph glyph-name="t" unicode="t" 
d="M327 467q-1 -8 4 -14t13 -6h212q8 0 13 -6t3 -14l-5 -29q-4 -20 -23 -20h-212q-20 0 -24 -20l-35 -198q-7 -38 15.5 -64.5t60.5 -26.5q33 0 61.5 20.5t40.5 52.5q2 6 10 12t15 6h29q21 0 16 -20q-18 -59 -71 -99.5t-113 -40.5q-67 0 -105 47t-27 113l35 198q2 8 -3 14
t-13 6h-87q-8 0 -13 6t-4 14l5 29q4 20 24 20h87q19 0 23 20l16 87q4 20 23 20h28q8 0 13 -6t4 -14z" />
    <glyph glyph-name="u" unicode="u" 
d="M274 0q-93 0 -147 65.5t-38 158.5l36 203q4 20 24 20h29q8 0 13 -6t3 -14l-36 -203q-11 -64 26 -109.5t102 -45.5q64 0 117 45t64 109l36 204q4 20 24 20h29q8 0 13 -6t3 -14l-71 -407q-4 -20 -24 -20h-29q-8 0 -13 6t-3 14l2 14q1 8 -6 11t-15 -2q-65 -43 -139 -43z" />
    <glyph glyph-name="v" unicode="v" 
d="M278 135q4 -13 17 -13t20 13l180 300q6 12 20 12h31q11 0 15.5 -8.5t-2.5 -19.5l-244 -407q-6 -12 -20 -12h-43q-12 0 -16 12l-100 407q-3 10 4.5 19t18.5 9h31q12 0 16 -12z" />
    <glyph glyph-name="w" unicode="w" 
d="M357 178q1 -15 17 -15t22 15l101 253q5 16 22 16h31q10 0 15 -7.5t0 -17.5l-176 -407q-7 -15 -23 -15h-36q-15 0 -17 16l-3 81q-1 15 -17 15t-22 -15l-32 -81q-5 -16 -22 -16h-36q-7 0 -12 4.5t-5 10.5l-33 407q-1 10 6.5 17.5t17.5 7.5h31q15 0 17 -16l11 -253
q1 -15 17 -15t22 15l34 84q5 16 22 16h27q15 0 17 -16z" />
    <glyph glyph-name="x" unicode="x" 
d="M485 440q7 7 16 7h33q13 0 16.5 -11t-7.5 -21l-179 -179q-13 -13 -4 -26l116 -178q7 -10 -0.5 -21t-20.5 -11h-32q-10 0 -15 7l-92 147q-5 8 -14.5 8t-16.5 -8l-145 -147q-7 -7 -17 -7h-31q-14 0 -17 11t7 21l179 178q12 14 4 26l-115 179q-7 10 0 21t20 11h32q8 0 15 -7
l92 -147q5 -7 14 -7t17 7z" />
    <glyph glyph-name="y" unicode="y" 
d="M278 135q4 -13 17 -13t20 13l180 300q6 12 20 12h31q11 0 15.5 -8.5t-2.5 -19.5l-392 -655q-8 -12 -21 -12h-30q-11 0 -15.5 9t2.5 19l130 216q6 8 3 16l-100 407q-3 10 4.5 19t18.5 9h31q12 0 16 -12z" />
    <glyph glyph-name="z" unicode="z" 
d="M556 447q8 0 13 -6t3 -14l-7 -40q0 -6 -9 -15l-354 -268q-13 -10 -10.5 -22.5t16.5 -12.5h281q8 0 13 -6t4 -14l-5 -29q-4 -20 -24 -20h-407q-8 0 -13 6t-3 14l7 40q0 6 9 15l354 268q13 10 10.5 22.5t-17.5 12.5h-280q-8 0 -13 6t-4 14l5 29q4 20 24 20h407z" />
    <glyph glyph-name="braceleft" unicode="{" 
d="M584 794q9 1 13 -4.5t2 -14.5l-5 -27q-1 -7 -8 -13.5t-15 -7.5q-59 -8 -106.5 -53t-57.5 -105l-6 -34q-18 -104 -108 -169q-8 -7 -10.5 -20t3.5 -20q67 -66 49 -168l-6 -36q-10 -59 21.5 -102.5t88.5 -51.5q7 -1 12 -7t4 -14l-5 -27q-3 -21 -22 -19q-86 7 -134 70.5
t-32 150.5l6 36q10 62 -26 107t-98 48h-3q-3 0 -2 3l7 44q1 7 8 13.5t15 7.5q60 8 107.5 51.5t57.5 102.5l6 34q16 88 86.5 153t157.5 72z" />
    <glyph glyph-name="bar" unicode="|" 
d="M242 -100q-8 0 -13 6t-3 14l151 855q4 20 23 20h26q8 0 13 -6t4 -14l-151 -855q-4 -20 -24 -20h-26z" />
    <glyph glyph-name="braceright" unicode="}" 
d="M232 727q-7 1 -11.5 7.5t-3.5 13.5l5 27q3 21 21 19q85 -7 132.5 -72t31.5 -153l-6 -34q-10 -59 22 -102.5t89 -51.5q7 -1 12 -7t3 -14l-7 -44q-2 -3 -4 -3h-3q-63 -3 -115.5 -48t-62.5 -107l-6 -36q-16 -87 -86.5 -150.5t-158.5 -70.5q-9 -1 -13 4.5t-2 14.5l5 27
q1 7 8 13.5t14 7.5q60 8 108 51.5t58 102.5l6 36q18 103 108 168q8 7 10.5 20t-3.5 20q-67 66 -49 169l6 34q10 60 -21 105t-87 53z" />
    <glyph glyph-name="asciitilde" unicode="~" 
d="M282 234q-7 25 -29.5 36t-49.5 0q-41 -14 -50 -62q-2 -7 0 -29q2 -7 -7 -11l-45 -17q-12 -4 -14 8q-5 30 -1 50q7 40 35 73.5t69 49.5q53 17 100.5 -2.5t58.5 -70.5q5 -26 28.5 -38t49.5 -2q43 16 52 64q1 10 -2 28q0 7 7 11l50 19q12 3 14 -8q3 -27 -1 -48
q-7 -41 -36.5 -76.5t-69.5 -51.5q-55 -19 -99.5 2.5t-59.5 74.5z" />
    <glyph glyph-name="exclamdown" unicode="&#xa1;" 
d="M371 474q8 0 13 -6t3 -14l-76 -434q-4 -20 -24 -20h-26q-8 0 -13 6t-3 14l76 434q4 20 24 20h26zM335 643q4 22 22 37t40 15q21 0 33 -15t8 -37q-4 -21 -21.5 -36t-38.5 -15q-22 0 -34.5 15t-8.5 36z" />
    <glyph glyph-name="cent" unicode="&#xa2;" 
d="M248 -70q-8 0 -13 6t-4 14l7 36q2 16 -13 20q-72 19 -110.5 79.5t-25.5 137.5q14 77 74 137.5t139 79.5q6 2 12 8t7 12l7 37q4 20 23 20h26q8 0 13 -6t4 -14l-6 -33q-1 -6 4 -12.5t11 -8.5q51 -10 89 -41t55 -76q5 -15 -16 -24l-31 -12q-18 -5 -26 11q-22 54 -82 71
q-19 4 -24 -19l-46 -260q-2 -11 3 -16t15 -3q66 19 107 72q5 6 14 9.5t15 1.5l27 -12q19 -9 7 -24q-32 -46 -81 -77t-103 -40q-19 -4 -23 -21l-6 -33q-4 -20 -23 -20h-26zM161 223q-8 -46 11 -84t58 -56q10 -5 18 0t10 17l43 246q2 12 -4.5 17.5t-17.5 0.5
q-45 -18 -77.5 -56t-40.5 -85z" />
    <glyph glyph-name="sterling" unicode="&#xa3;" 
d="M399 340q8 0 13 -6t3 -14l-4 -25q-4 -20 -24 -20h-89q-14 0 -23 -14q-10 -16 -66 -71.5t-72 -99.5q-6 -21 15 -21h337q8 0 13 -6t4 -14l-5 -29q-4 -20 -24 -20h-407q-8 0 -13 6t-3 14l8 49q4 23 13.5 44.5t18.5 36.5t25.5 33.5t25.5 27t27.5 25t22.5 20.5q5 4 6 8.5
t-2 7.5t-9 3h-72q-8 0 -13 6t-3 14l4 25q4 20 24 20h48q7 0 11 6t-1 10q-20 23 -30 36t-19 38.5t-4 50.5q16 89 92.5 151.5t172.5 62.5q60 0 108.5 -23.5t72.5 -63.5q11 -18 -10 -29l-26 -13q-6 -4 -15 -1.5t-12 7.5q-17 26 -52 41.5t-78 15.5q-68 0 -120.5 -43t-63.5 -105
q-5 -29 7 -51t36 -45.5t32 -37.5q5 -7 15 -7h105z" />
    <glyph glyph-name="yen" unicode="&#xa5;" 
d="M167 156q-9 0 -14 6t-3 14l4 25q4 20 24 20h81q8 0 15 6t8 14l5 26q2 8 -3 14t-13 6h-81q-8 0 -13 6t-4 14l5 25q1 8 8 14t15 6h65q13 0 20 9.5t3 20.5l-105 283q-4 11 3 20.5t19 9.5h24q13 0 15 -10l90 -233q5 -11 16 -11t19 11l173 233q8 10 19 10h24q12 0 16 -9.5
t-4 -20.5l-206 -283q-8 -11 -4 -20.5t16 -9.5h66q8 0 13 -6t4 -14l-5 -25q-4 -20 -23 -20h-82q-20 0 -24 -20l-5 -26q-1 -8 4 -14t13 -6h82q8 0 13 -6t3 -14l-4 -25q-4 -20 -23 -20h-82q-20 0 -24 -20l-20 -116q-4 -20 -24 -20h-26q-8 0 -13 6t-3 14l20 116q2 8 -3 14t-13 6
h-81z" />
    <glyph glyph-name="section" unicode="&#xa7;" 
d="M149 -49q4 -4 8.5 -2t5.5 8l113 638q11 66 66 113t122 47q61 0 99 -40.5t35 -99.5q0 -20 -22 -20h-33q-5 0 -10 6t-5 11q0 31 -21 52q-5 4 -9 2t-6 -8l-112 -638q-12 -66 -67 -113t-122 -47q-60 0 -98.5 40.5t-35.5 99.5q2 20 23 20h32q5 0 10 -6t5 -11q0 -32 22 -52z
M344 595l-113 -643q-2 -9 3 -12.5t14 0.5q53 25 64 80l113 642q2 10 -3 13.5t-15 -0.5q-24 -11 -41.5 -32.5t-21.5 -47.5z" />
    <glyph glyph-name="dieresis" unicode="&#xa8;" 
d="M504 659q22 0 34.5 -15t8.5 -37q-4 -21 -21.5 -36t-39.5 -15q-21 0 -33.5 15t-8.5 36q4 22 21.5 37t38.5 15zM275 659q22 0 34.5 -15t8.5 -37q-4 -21 -21.5 -36t-39.5 -15q-21 0 -33.5 15t-8.5 36q4 22 21.5 37t38.5 15z" />
    <glyph glyph-name="guillemotleft" unicode="&#xab;" 
d="M343 446q11 7 20 2.5t7 -16.5l-5 -28q-2 -10 -10 -16l-180 -127q-21 -16 -5 -32l135 -126q6 -8 4 -16l-5 -27q-1 -13 -12.5 -18t-19.5 3l-178 160q-7 7 -5 16l9 49q0 8 10 16zM547 446q11 7 20 2.5t7 -16.5l-5 -28q-2 -10 -10 -16l-180 -127q-21 -16 -5 -32l135 -126
q6 -8 4 -16l-5 -27q-1 -13 -12.5 -18t-19.5 3l-178 160q-7 7 -5 16l9 49q0 8 10 16z" />
    <glyph glyph-name="macron" unicode="&#xaf;" 
d="M244 597q-8 0 -13 6t-3 14l4 25q4 20 24 20h269q8 0 13 -6t3 -14l-4 -25q-4 -20 -24 -20h-269z" />
    <glyph glyph-name="degree" unicode="&#xb0;" 
d="M397 706q54 0 85.5 -38t22.5 -92q-10 -53 -54.5 -91t-98.5 -38q-53 0 -84.5 38t-21.5 91q9 54 53.5 92t97.5 38zM364 515q26 0 47.5 18t25.5 43t-11 43.5t-41 18.5q-25 0 -45.5 -18t-25.5 -44t10 -43.5t40 -17.5z" />
    <glyph glyph-name="plusminus" unicode="&#xb1;" 
d="M145 35q-8 0 -13 6t-3 14l4 25q4 20 24 20h82q19 0 23 20l14 81q2 8 -3 14t-13 6h-82q-8 0 -13 6t-4 14l5 25q4 20 23 20h82q20 0 24 20l14 82q4 20 24 20h25q8 0 13 -6t3 -14l-14 -82q-2 -8 3 -14t13 -6h82q8 0 13 -6t4 -14l-5 -25q-1 -8 -8 -14t-15 -6h-82
q-20 0 -24 -20l-14 -81q-1 -8 4 -14t13 -6h82q8 0 13 -6t3 -14l-4 -25q-4 -20 -24 -20h-269z" />
    <glyph glyph-name="acute" unicode="&#xb4;" 
d="M273 513q-17 -14 -29 0l-17 21q-11 14 5 28l174 147q7 6 15 6t13 -6l17 -21q12 -13 -5 -28z" />
    <glyph glyph-name="paragraph" unicode="&#xb6;" 
d="M387 695h213q8 0 13 -6t3 -14l-115 -655q-4 -20 -24 -20h-29q-8 0 -13 6t-3 14l103 589q2 8 -3 14t-13 6h-55q-20 0 -24 -20l-103 -589q-4 -20 -24 -20h-29q-8 0 -13 6t-3 14l40 232q4 19 -13 21q-81 7 -127.5 67.5t-32.5 142.5q16 87 90.5 149.5t161.5 62.5zM306 339
q18 -1 21 19l44 251q2 9 -1.5 14.5t-12.5 4.5q-55 -7 -99 -48t-54 -97q-10 -55 19.5 -96t82.5 -48z" />
    <glyph glyph-name="cedilla" unicode="&#xb8;" 
d="M245 23q4 18 22 18h44q4 0 10 -3q33 -27 38.5 -68t-18.5 -85q-30 -49 -80 -69.5t-100 -8.5q-9 2 -12 9t2 16l16 28q9 17 26 13q42 -10 70.5 16t27 61.5t-35.5 49.5q-5 2 -8 8.5t-2 11.5v3z" />
    <glyph glyph-name="guillemotright" unicode="&#xbb;" 
d="M330 388q-7 7 -5 16l5 28q2 12 13 16.5t19 -2.5l179 -160q5 -5 5 -16l-9 -49q-2 -10 -11 -16l-234 -160q-11 -8 -20 -3t-8 18l5 27q2 9 11 16l179 126q9 7 11 16t-5 16zM126 388q-7 7 -5 16l5 28q2 12 13 16.5t19 -2.5l179 -160q5 -5 5 -16l-9 -49q-2 -10 -11 -16
l-234 -160q-11 -8 -20 -3t-8 18l5 27q2 9 11 16l179 126q9 7 11 16t-5 16z" />
    <glyph glyph-name="questiondown" unicode="&#xbf;" 
d="M336 494q3 6 12 13t15 7h26q9 0 13 -6.5t1 -15.5q-11 -37 -36.5 -63.5t-55 -44t-59 -37t-53 -53t-31.5 -80.5q-11 -62 26.5 -105t105.5 -43q41 0 82.5 19t68.5 48q17 15 30 6l21 -13q16 -11 0 -29q-40 -43 -98 -70t-116 -27q-96 0 -150.5 62.5t-38.5 151.5q9 52 33 92.5
t54 65t59.5 43.5t55 39t35.5 40zM346 643q4 22 22 37t40 15q21 0 33 -15t8 -37q-4 -21 -21.5 -36t-38.5 -15q-22 0 -34.5 15t-8.5 36z" />
    <glyph glyph-name="Agrave" unicode="&#xc0;" 
d="M495 25q1 -10 -6.5 -17.5t-17.5 -7.5h-33q-6 0 -11 4.5t-5 10.5l-14 151q0 6 -5 10.5t-11 4.5h-172q-14 0 -22 -15l-66 -151q-8 -15 -22 -15h-32q-10 0 -15 7.5t0 17.5l293 654q6 15 22 15h38q15 0 17 -15zM380 491q-2 15 -17 15t-22 -15l-96 -219q-5 -10 0 -17.5
t15 -7.5h116q10 0 17 7.5t6 17.5zM515 810q11 -14 -5 -28l-25 -21q-7 -6 -15.5 -6t-12.5 6l-122 147q-11 14 5 28l25 21q16 14 28 0z" />
    <glyph glyph-name="Aacute" unicode="&#xc1;" 
d="M495 25q1 -10 -6.5 -17.5t-17.5 -7.5h-33q-6 0 -11 4.5t-5 10.5l-14 151q0 6 -5 10.5t-11 4.5h-172q-14 0 -22 -15l-66 -151q-8 -15 -22 -15h-32q-10 0 -15 7.5t0 17.5l293 654q6 15 22 15h38q15 0 17 -15zM380 491q-2 15 -17 15t-22 -15l-96 -219q-5 -10 0 -17.5
t15 -7.5h116q10 0 17 7.5t6 17.5zM358 761q-16 -14 -28 0l-17 21q-11 14 5 28l174 147q16 14 28 0l17 -21q11 -14 -5 -28z" />
    <glyph glyph-name="Acircumflex" unicode="&#xc2;" 
d="M495 25q1 -10 -6.5 -17.5t-17.5 -7.5h-33q-6 0 -11 4.5t-5 10.5l-14 151q0 6 -5 10.5t-11 4.5h-172q-14 0 -22 -15l-66 -151q-8 -15 -22 -15h-32q-10 0 -15 7.5t0 17.5l293 654q6 15 22 15h38q15 0 17 -15zM380 491q-2 15 -17 15t-22 -15l-96 -219q-5 -10 0 -17.5
t15 -7.5h116q10 0 17 7.5t6 17.5zM301 801q-16 -14 -28 0l-17 21q-11 14 5 28l174 147q16 14 28 0l122 -147q11 -14 -5 -28l-25 -21q-16 -14 -28 0l-81 98q-12 14 -29 0z" />
    <glyph glyph-name="Atilde" unicode="&#xc3;" 
d="M495 25q1 -10 -6.5 -17.5t-17.5 -7.5h-33q-6 0 -11 4.5t-5 10.5l-14 151q0 6 -5 10.5t-11 4.5h-172q-14 0 -22 -15l-66 -151q-8 -15 -22 -15h-32q-10 0 -15 7.5t0 17.5l293 654q6 15 22 15h38q15 0 17 -15zM380 491q-2 15 -17 15t-22 -15l-96 -219q-5 -10 0 -17.5
t15 -7.5h116q10 0 17 7.5t6 17.5zM398 859q-2 14 -16 21t-30 0q-30 -11 -28 -53q2 -11 -11 -17l-23 -8q-20 -7 -21 9q-6 36 13.5 70.5t58.5 48.5q37 13 70.5 -0.5t44.5 -50.5q5 -16 17.5 -23.5t26.5 -0.5q15 7 21.5 16t7.5 15.5t0 20.5q-2 12 12 18l23 8q21 9 23 -13
q3 -39 -15 -72t-58 -46q-36 -15 -70.5 -1.5t-45.5 58.5z" />
    <glyph glyph-name="Adieresis" unicode="&#xc4;" 
d="M495 25q1 -10 -6.5 -17.5t-17.5 -7.5h-33q-6 0 -11 4.5t-5 10.5l-14 151q0 6 -5 10.5t-11 4.5h-172q-14 0 -22 -15l-66 -151q-8 -15 -22 -15h-32q-10 0 -15 7.5t0 17.5l293 654q6 15 22 15h38q15 0 17 -15zM380 491q-2 15 -17 15t-22 -15l-96 -219q-5 -10 0 -17.5
t15 -7.5h116q10 0 17 7.5t6 17.5zM548 907q22 0 34.5 -15t8.5 -37q-4 -21 -21.5 -36t-39.5 -15q-21 0 -33.5 15t-8.5 36q4 22 21.5 37t38.5 15zM319 907q22 0 34.5 -15t8.5 -37q-4 -21 -21.5 -36t-39.5 -15q-21 0 -33.5 15t-8.5 36q4 22 21.5 37t38.5 15z" />
    <glyph glyph-name="Aring" unicode="&#xc5;" 
d="M424 855q54 0 85.5 -38t21.5 -92q-12 -68 -75 -106q-6 -3 -11.5 -11.5t-4.5 -13.5l55 -569q1 -10 -6.5 -17.5t-17.5 -7.5h-33q-6 0 -11 4.5t-5 10.5l-14 151q0 6 -5 10.5t-11 4.5h-172q-14 0 -22 -15l-66 -151q-8 -15 -22 -15h-32q-10 0 -15 7.5t0 17.5l254 568
q2 5 0 13.5t-7 11.5q-50 38 -38 107q10 54 54.5 92t97.5 38zM380 491q-2 15 -17 15t-22 -15l-96 -219q-5 -10 0 -17.5t15 -7.5h116q10 0 17 7.5t6 17.5zM390 664q26 0 47.5 18t25.5 43q5 26 -10.5 44t-40.5 18t-46 -18t-26 -44t10 -43.5t40 -17.5z" />
    <glyph glyph-name="AE" unicode="&#xc6;" 
d="M293 0q-8 0 -13 6t-3 14l24 141q2 8 -3 14t-13 6h-65q-14 0 -22 -15l-66 -151q-8 -15 -22 -15h-32q-10 0 -15 7.5t0 17.5l293 655q6 15 22 15h222q8 0 13 -6t3 -14l-5 -26q-4 -20 -23 -20h-115q-20 0 -24 -20l-36 -209q-2 -8 3 -14t13 -6h46q8 0 13 -6t3 -14l-4 -25
q-4 -20 -23 -20h-46q-20 0 -24 -20l-37 -209q-1 -8 4 -14t13 -6h115q8 0 13 -6t3 -14l-4 -26q-4 -20 -24 -20h-184zM245 272q-5 -10 0 -17.5t15 -7.5h37q19 0 23 20l25 140q2 10 -5.5 15.5t-18 2.5t-15.5 -13z" />
    <glyph glyph-name="Ccedilla" unicode="&#xc7;" 
d="M284 66q59 0 109.5 37t67.5 93q2 7 10 12.5t15 5.5h29q20 0 15 -21q-16 -59 -61.5 -106t-105.5 -70q-7 -2 -10.5 -11t-1.5 -15q16 -49 -14 -106q-30 -49 -80 -69.5t-100 -8.5q-9 2 -12 9t2 16l16 28q9 17 25 13q42 -9 71 16t27.5 60t-34.5 50q-5 2 -6 2
q-82 10 -127.5 70.5t-30.5 142.5l47 267q16 89 92 151.5t168 62.5q87 0 142 -57t47 -139q-2 -18 -22 -18h-29q-7 0 -13 5.5t-5 12.5q2 56 -35.5 93t-96.5 37q-64 0 -116.5 -43.5t-62.5 -104.5l-47 -267q-11 -61 26 -104.5t101 -43.5z" />
    <glyph glyph-name="Egrave" unicode="&#xc8;" 
d="M70 0q-8 0 -13 6t-3 14l115 655q4 20 24 20h407q8 0 13 -6t3 -14l-5 -26q-4 -20 -23 -20h-338q-20 0 -24 -20l-36 -209q-2 -8 3 -14t13 -6h155q8 0 13 -6t3 -14l-4 -25q-4 -20 -23 -20h-155q-20 0 -24 -20l-37 -209q-1 -8 4 -14t13 -6h338q8 0 13 -6t3 -14l-4 -26
q-4 -20 -24 -20h-407zM515 810q11 -14 -5 -28l-25 -21q-7 -6 -15.5 -6t-12.5 6l-122 147q-11 14 5 28l25 21q16 14 28 0z" />
    <glyph glyph-name="Eacute" unicode="&#xc9;" 
d="M70 0q-8 0 -13 6t-3 14l115 655q4 20 24 20h407q8 0 13 -6t3 -14l-5 -26q-4 -20 -23 -20h-338q-20 0 -24 -20l-36 -209q-2 -8 3 -14t13 -6h155q8 0 13 -6t3 -14l-4 -25q-4 -20 -23 -20h-155q-20 0 -24 -20l-37 -209q-1 -8 4 -14t13 -6h338q8 0 13 -6t3 -14l-4 -26
q-4 -20 -24 -20h-407zM358 761q-16 -14 -28 0l-17 21q-11 14 5 28l174 147q16 14 28 0l17 -21q11 -14 -5 -28z" />
    <glyph glyph-name="Ecircumflex" unicode="&#xca;" 
d="M70 0q-8 0 -13 6t-3 14l115 655q4 20 24 20h407q8 0 13 -6t3 -14l-5 -26q-4 -20 -23 -20h-338q-20 0 -24 -20l-36 -209q-2 -8 3 -14t13 -6h155q8 0 13 -6t3 -14l-4 -25q-4 -20 -23 -20h-155q-20 0 -24 -20l-37 -209q-1 -8 4 -14t13 -6h338q8 0 13 -6t3 -14l-4 -26
q-4 -20 -24 -20h-407zM301 801q-16 -14 -28 0l-17 21q-11 14 5 28l174 147q16 14 28 0l122 -147q11 -14 -5 -28l-25 -21q-16 -14 -28 0l-81 98q-12 14 -29 0z" />
    <glyph glyph-name="Edieresis" unicode="&#xcb;" 
d="M70 0q-8 0 -13 6t-3 14l115 655q4 20 24 20h407q8 0 13 -6t3 -14l-5 -26q-4 -20 -23 -20h-338q-20 0 -24 -20l-36 -209q-2 -8 3 -14t13 -6h155q8 0 13 -6t3 -14l-4 -25q-4 -20 -23 -20h-155q-20 0 -24 -20l-37 -209q-1 -8 4 -14t13 -6h338q8 0 13 -6t3 -14l-4 -26
q-4 -20 -24 -20h-407zM548 907q22 0 34.5 -15t8.5 -37q-4 -21 -21.5 -36t-39.5 -15q-21 0 -33.5 15t-8.5 36q4 22 21.5 37t38.5 15zM319 907q22 0 34.5 -15t8.5 -37q-4 -21 -21.5 -36t-39.5 -15q-21 0 -33.5 15t-8.5 36q4 22 21.5 37t38.5 15z" />
    <glyph glyph-name="Igrave" unicode="&#xcc;" 
d="M181 629q-8 0 -13 6t-4 14l5 26q4 20 24 20h407q8 0 13 -6t3 -14l-5 -26q-4 -20 -23 -20h-151q-20 0 -24 -20l-92 -523q-1 -8 4 -14t13 -6h151q8 0 13 -6t3 -14l-4 -26q-4 -20 -24 -20h-407q-8 0 -13 6t-3 14l4 26q4 20 24 20h150q19 0 23 20l92 523q2 8 -3 14t-13 6
h-150zM515 810q11 -14 -5 -28l-25 -21q-7 -6 -15.5 -6t-12.5 6l-122 147q-11 14 5 28l25 21q16 14 28 0z" />
    <glyph glyph-name="Iacute" unicode="&#xcd;" 
d="M181 629q-8 0 -13 6t-4 14l5 26q4 20 24 20h407q8 0 13 -6t3 -14l-5 -26q-4 -20 -23 -20h-151q-20 0 -24 -20l-92 -523q-1 -8 4 -14t13 -6h151q8 0 13 -6t3 -14l-4 -26q-4 -20 -24 -20h-407q-8 0 -13 6t-3 14l4 26q4 20 24 20h150q19 0 23 20l92 523q2 8 -3 14t-13 6
h-150zM358 761q-16 -14 -28 0l-17 21q-11 14 5 28l174 147q16 14 28 0l17 -21q11 -14 -5 -28z" />
    <glyph glyph-name="Icircumflex" unicode="&#xce;" 
d="M181 629q-8 0 -13 6t-4 14l5 26q4 20 24 20h407q8 0 13 -6t3 -14l-5 -26q-4 -20 -23 -20h-151q-20 0 -24 -20l-92 -523q-1 -8 4 -14t13 -6h151q8 0 13 -6t3 -14l-4 -26q-4 -20 -24 -20h-407q-8 0 -13 6t-3 14l4 26q4 20 24 20h150q19 0 23 20l92 523q2 8 -3 14t-13 6
h-150zM301 801q-16 -14 -28 0l-17 21q-11 14 5 28l174 147q16 14 28 0l122 -147q11 -14 -5 -28l-25 -21q-16 -14 -28 0l-81 98q-12 14 -29 0z" />
    <glyph glyph-name="Idieresis" unicode="&#xcf;" 
d="M181 629q-8 0 -13 6t-4 14l5 26q4 20 24 20h407q8 0 13 -6t3 -14l-5 -26q-4 -20 -23 -20h-151q-20 0 -24 -20l-92 -523q-1 -8 4 -14t13 -6h151q8 0 13 -6t3 -14l-4 -26q-4 -20 -24 -20h-407q-8 0 -13 6t-3 14l4 26q4 20 24 20h150q19 0 23 20l92 523q2 8 -3 14t-13 6
h-150zM548 907q22 0 34.5 -15t8.5 -37q-4 -21 -21.5 -36t-39.5 -15q-21 0 -33.5 15t-8.5 36q4 22 21.5 37t38.5 15zM319 907q22 0 34.5 -15t8.5 -37q-4 -21 -21.5 -36t-39.5 -15q-21 0 -33.5 15t-8.5 36q4 22 21.5 37t38.5 15z" />
    <glyph glyph-name="Ntilde" unicode="&#xd1;" 
d="M547 675q4 20 24 20h29q8 0 13 -6t3 -14l-115 -655q-4 -20 -24 -20h-37q-12 0 -16 10l-179 490q-5 14 -21 10t-19 -20l-82 -470q-4 -20 -24 -20h-29q-8 0 -13 6t-3 14l115 655q4 20 24 20h37q13 0 15 -10l181 -484q5 -14 21 -10t18 20zM398 859q-2 14 -16 21t-30 0
q-30 -11 -28 -53q2 -11 -11 -17l-23 -8q-20 -7 -21 9q-6 36 13.5 70.5t58.5 48.5q37 13 70.5 -0.5t44.5 -50.5q5 -16 17.5 -23.5t26.5 -0.5q15 7 21.5 16t7.5 15.5t0 20.5q-2 12 12 18l23 8q21 9 23 -13q3 -39 -15 -72t-58 -46q-36 -15 -70.5 -1.5t-45.5 58.5z" />
    <glyph glyph-name="Ograve" unicode="&#xd2;" 
d="M582 481l-47 -268q-16 -88 -95 -151t-169 -63q-89 0 -144 63t-39 151l47 268q16 88 93 151t166 63q90 0 147 -63t41 -151zM466 213l47 268q10 61 -29.5 104.5t-101.5 43.5t-115 -43.5t-63 -104.5l-47 -268q-11 -61 26 -104.5t99 -43.5t117.5 43.5t66.5 104.5zM515 810
q11 -14 -5 -28l-25 -21q-7 -6 -15.5 -6t-12.5 6l-122 147q-11 14 5 28l25 21q16 14 28 0z" />
    <glyph glyph-name="Oacute" unicode="&#xd3;" 
d="M582 481l-47 -268q-16 -88 -95 -151t-169 -63q-89 0 -144 63t-39 151l47 268q16 88 93 151t166 63q90 0 147 -63t41 -151zM466 213l47 268q10 61 -29.5 104.5t-101.5 43.5t-115 -43.5t-63 -104.5l-47 -268q-11 -61 26 -104.5t99 -43.5t117.5 43.5t66.5 104.5zM358 761
q-16 -14 -28 0l-17 21q-11 14 5 28l174 147q16 14 28 0l17 -21q11 -14 -5 -28z" />
    <glyph glyph-name="Ocircumflex" unicode="&#xd4;" 
d="M582 481l-47 -268q-16 -88 -95 -151t-169 -63q-89 0 -144 63t-39 151l47 268q16 88 93 151t166 63q90 0 147 -63t41 -151zM466 213l47 268q10 61 -29.5 104.5t-101.5 43.5t-115 -43.5t-63 -104.5l-47 -268q-11 -61 26 -104.5t99 -43.5t117.5 43.5t66.5 104.5zM301 801
q-16 -14 -28 0l-17 21q-11 14 5 28l174 147q16 14 28 0l122 -147q11 -14 -5 -28l-25 -21q-16 -14 -28 0l-81 98q-12 14 -29 0z" />
    <glyph glyph-name="Otilde" unicode="&#xd5;" 
d="M582 481l-47 -268q-16 -88 -95 -151t-169 -63q-89 0 -144 63t-39 151l47 268q16 88 93 151t166 63q90 0 147 -63t41 -151zM466 213l47 268q10 61 -29.5 104.5t-101.5 43.5t-115 -43.5t-63 -104.5l-47 -268q-11 -61 26 -104.5t99 -43.5t117.5 43.5t66.5 104.5zM398 859
q-2 14 -16 21t-30 0q-30 -11 -28 -53q2 -11 -11 -17l-23 -8q-20 -7 -21 9q-6 36 13.5 70.5t58.5 48.5q37 13 70.5 -0.5t44.5 -50.5q5 -16 17.5 -23.5t26.5 -0.5q15 7 21.5 16t7.5 15.5t0 20.5q-2 12 12 18l23 8q21 9 23 -13q3 -39 -15 -72t-58 -46q-36 -15 -70.5 -1.5
t-45.5 58.5z" />
    <glyph glyph-name="Odieresis" unicode="&#xd6;" 
d="M582 481l-47 -268q-16 -88 -95 -151t-169 -63q-89 0 -144 63t-39 151l47 268q16 88 93 151t166 63q90 0 147 -63t41 -151zM466 213l47 268q10 61 -29.5 104.5t-101.5 43.5t-115 -43.5t-63 -104.5l-47 -268q-11 -61 26 -104.5t99 -43.5t117.5 43.5t66.5 104.5zM548 907
q22 0 34.5 -15t8.5 -37q-4 -21 -21.5 -36t-39.5 -15q-21 0 -33.5 15t-8.5 36q4 22 21.5 37t38.5 15zM319 907q22 0 34.5 -15t8.5 -37q-4 -21 -21.5 -36t-39.5 -15q-21 0 -33.5 15t-8.5 36q4 22 21.5 37t38.5 15z" />
    <glyph glyph-name="multiply" unicode="&#xd7;" 
d="M337 282q-12 14 -28 0l-99 -84q-7 -6 -15.5 -6t-12.5 6l-16 19q-11 14 5 28l99 84q16 14 5 28l-69 84q-12 13 5 28l22 19q7 6 15 6t13 -6l69 -84q12 -14 28 0l99 84q7 6 15 6t13 -6l16 -19q11 -14 -5 -28l-99 -84q-16 -14 -5 -28l69 -84q12 -13 -5 -28l-22 -19
q-7 -6 -15.5 -6t-12.5 6z" />
    <glyph glyph-name="Oslash" unicode="&#xd8;" 
d="M193 14q-17 6 -24 -8l-55 -94q-8 -12 -21 -12h-31q-11 0 -15.5 9t2.5 19l71 120q8 12 0 22q-47 61 -32 143l47 268q16 88 93 151t166 63q43 0 80 -17q15 -6 25 8l57 97q8 12 20 12h31q11 0 15.5 -8.5t-1.5 -19.5l-73 -122q-8 -12 0 -22q47 -62 34 -142l-47 -268
q-16 -88 -95 -151t-169 -63q-44 0 -78 15zM466 213l47 268q6 38 -8 71q-5 11 -14 -2l-270 -457q-6 -11 3 -16q26 -12 58 -12q62 0 117.5 43.5t66.5 104.5zM382 629q-62 0 -115 -43.5t-63 -104.5l-47 -268q-7 -37 6 -72q2 -4 6 -3.5t7 5.5l270 455q9 12 -4 18q-29 13 -60 13z
" />
    <glyph glyph-name="Ugrave" unicode="&#xd9;" 
d="M547 675q4 20 24 20h29q8 0 13 -6t3 -14l-81 -461q-16 -88 -95 -151t-169 -63q-89 0 -144 63t-39 151l81 461q4 20 24 20h29q8 0 13 -6t3 -14l-81 -461q-11 -61 26.5 -104.5t99.5 -43.5t117 43.5t66 104.5zM515 810q11 -14 -5 -28l-25 -21q-7 -6 -15.5 -6t-12.5 6
l-122 147q-11 14 5 28l25 21q16 14 28 0z" />
    <glyph glyph-name="Uacute" unicode="&#xda;" 
d="M547 675q4 20 24 20h29q8 0 13 -6t3 -14l-81 -461q-16 -88 -95 -151t-169 -63q-89 0 -144 63t-39 151l81 461q4 20 24 20h29q8 0 13 -6t3 -14l-81 -461q-11 -61 26.5 -104.5t99.5 -43.5t117 43.5t66 104.5zM358 761q-16 -14 -28 0l-17 21q-11 14 5 28l174 147q16 14 28 0
l17 -21q11 -14 -5 -28z" />
    <glyph glyph-name="Ucircumflex" unicode="&#xdb;" 
d="M547 675q4 20 24 20h29q8 0 13 -6t3 -14l-81 -461q-16 -88 -95 -151t-169 -63q-89 0 -144 63t-39 151l81 461q4 20 24 20h29q8 0 13 -6t3 -14l-81 -461q-11 -61 26.5 -104.5t99.5 -43.5t117 43.5t66 104.5zM301 801q-16 -14 -28 0l-17 21q-11 14 5 28l174 147q16 14 28 0
l122 -147q11 -14 -5 -28l-25 -21q-16 -14 -28 0l-81 98q-12 14 -29 0z" />
    <glyph glyph-name="Udieresis" unicode="&#xdc;" 
d="M547 675q4 20 24 20h29q8 0 13 -6t3 -14l-81 -461q-16 -88 -95 -151t-169 -63q-89 0 -144 63t-39 151l81 461q4 20 24 20h29q8 0 13 -6t3 -14l-81 -461q-11 -61 26.5 -104.5t99.5 -43.5t117 43.5t66 104.5zM548 907q22 0 34.5 -15t8.5 -37q-4 -21 -21.5 -36t-39.5 -15
q-21 0 -33.5 15t-8.5 36q4 22 21.5 37t38.5 15zM319 907q22 0 34.5 -15t8.5 -37q-4 -21 -21.5 -36t-39.5 -15q-21 0 -33.5 15t-8.5 36q4 22 21.5 37t38.5 15z" />
    <glyph glyph-name="Yacute" unicode="&#xdd;" 
d="M586 695q12 0 16 -9.5t-4 -20.5l-228 -314q0 -5 -4 -9l-56 -322q-4 -20 -24 -20h-26q-8 0 -13 6t-3 14l56 323v9l-116 313q-4 11 3 20.5t19 9.5h24q13 0 15 -10l90 -233q5 -11 16 -11t19 11l173 233q8 10 19 10h24zM358 761q-16 -14 -28 0l-17 21q-11 14 5 28l174 147
q16 14 28 0l17 -21q11 -14 -5 -28z" />
    <glyph glyph-name="germandbls" unicode="&#xdf;" 
d="M259 0q-8 0 -13 6t-3 14l5 29q4 20 23 20h91q60 0 86 44q21 36 -2 64q-15 18 -46 21q-58 5 -88.5 41t-22.5 91q15 70 80 110q11 6 13 18l13 77q7 37 -15 64t-60 27t-69 -26.5t-38 -64.5l-90 -515q-4 -20 -24 -20h-29q-8 0 -13 6t-3 14l90 515q12 66 67 113t122 47
q66 0 104.5 -47t26.5 -113l-21 -120q-1 -6 -9 -13t-14 -9q-24 -6 -42 -23t-22 -41q-4 -25 12 -43t45 -21q61 -7 87.5 -43.5t19.5 -90.5q-12 -60 -62 -95.5t-108 -35.5h-91z" />
    <glyph glyph-name="agrave" unicode="&#xe0;" 
d="M474 259l-21 -120q-4 -23 6.5 -42t30.5 -26q5 -2 11 -9.5t5 -12.5l-5 -29q-5 -20 -24 -19q-54 9 -81 54q-3 6 -14 7.5t-18 -3.5q-81 -59 -172 -59q-67 0 -98.5 32t-21.5 90q3 19 11.5 37t26.5 40t52 39t80 25q48 9 144 1q10 -1 16 4.5t5 16.5q-2 40 -31 66.5t-71 26.5
q-64 0 -108 -51q-15 -15 -30 -8l-23 11q-16 10 -3 28q33 41 79.5 65t96.5 24q78 0 124 -55t33 -133zM383 149q5 5 5 11l5 25q1 7 -3.5 13t-11.5 7q-83 8 -129 0q-34 -6 -57.5 -17t-33 -25t-12.5 -20.5t-5 -17.5q0 -10 -1.5 -22.5t16 -24t53.5 -11.5q97 0 174 82zM393 562
q11 -14 -5 -28l-24 -21q-17 -14 -29 0l-121 147q-12 14 5 28l24 21q7 6 15 6t13 -6z" />
    <glyph glyph-name="aacute" unicode="&#xe1;" 
d="M474 259l-21 -120q-4 -23 6.5 -42t30.5 -26q5 -2 11 -9.5t5 -12.5l-5 -29q-5 -20 -24 -19q-54 9 -81 54q-3 6 -14 7.5t-18 -3.5q-81 -59 -172 -59q-67 0 -98.5 32t-21.5 90q3 19 11.5 37t26.5 40t52 39t80 25q48 9 144 1q10 -1 16 4.5t5 16.5q-2 40 -31 66.5t-71 26.5
q-64 0 -108 -51q-15 -15 -30 -8l-23 11q-16 10 -3 28q33 41 79.5 65t96.5 24q78 0 124 -55t33 -133zM383 149q5 5 5 11l5 25q1 7 -3.5 13t-11.5 7q-83 8 -129 0q-34 -6 -57.5 -17t-33 -25t-12.5 -20.5t-5 -17.5q0 -10 -1.5 -22.5t16 -24t53.5 -11.5q97 0 174 82zM315 513
q-17 -14 -29 0l-17 21q-11 14 5 28l174 147q7 6 15 6t13 -6l17 -21q12 -13 -5 -28z" />
    <glyph glyph-name="acircumflex" unicode="&#xe2;" 
d="M474 259l-21 -120q-4 -23 6.5 -42t30.5 -26q5 -2 11 -9.5t5 -12.5l-5 -29q-5 -20 -24 -19q-54 9 -81 54q-3 6 -14 7.5t-18 -3.5q-81 -59 -172 -59q-67 0 -98.5 32t-21.5 90q3 19 11.5 37t26.5 40t52 39t80 25q48 9 144 1q10 -1 16 4.5t5 16.5q-2 40 -31 66.5t-71 26.5
q-64 0 -108 -51q-15 -15 -30 -8l-23 11q-16 10 -3 28q33 41 79.5 65t96.5 24q78 0 124 -55t33 -133zM383 149q5 5 5 11l5 25q1 7 -3.5 13t-11.5 7q-83 8 -129 0q-34 -6 -57.5 -17t-33 -25t-12.5 -20.5t-5 -17.5q0 -10 -1.5 -22.5t16 -24t53.5 -11.5q97 0 174 82zM258 553
q-17 -14 -29 0l-17 21q-11 14 5 28l174 147q7 6 15 6t13 -6l122 -147q11 -14 -5 -28l-24 -21q-17 -14 -29 0l-81 98q-12 14 -28 0z" />
    <glyph glyph-name="atilde" unicode="&#xe3;" 
d="M474 259l-21 -120q-4 -23 6.5 -42t30.5 -26q5 -2 11 -9.5t5 -12.5l-5 -29q-5 -20 -24 -19q-54 9 -81 54q-3 6 -14 7.5t-18 -3.5q-81 -59 -172 -59q-67 0 -98.5 32t-21.5 90q3 19 11.5 37t26.5 40t52 39t80 25q48 9 144 1q10 -1 16 4.5t5 16.5q-2 40 -31 66.5t-71 26.5
q-64 0 -108 -51q-15 -15 -30 -8l-23 11q-16 10 -3 28q33 41 79.5 65t96.5 24q78 0 124 -55t33 -133zM383 149q5 5 5 11l5 25q1 7 -3.5 13t-11.5 7q-83 8 -129 0q-34 -6 -57.5 -17t-33 -25t-12.5 -20.5t-5 -17.5q0 -10 -1.5 -22.5t16 -24t53.5 -11.5q97 0 174 82zM355 611
q-3 14 -17 21t-30 0q-31 -12 -27 -53q0 -12 -12 -17l-23 -8q-18 -7 -21 9q-5 36 14.5 70.5t57.5 48.5q37 13 70.5 -0.5t44.5 -50.5q6 -16 18 -23t26 -1q21 10 26 21.5t3 30.5q0 13 13 18l22 8q21 8 23 -13q3 -39 -14.5 -72t-57.5 -46q-37 -15 -71 -1.5t-45 58.5z" />
    <glyph glyph-name="adieresis" unicode="&#xe4;" 
d="M474 259l-21 -120q-4 -23 6.5 -42t30.5 -26q5 -2 11 -9.5t5 -12.5l-5 -29q-5 -20 -24 -19q-54 9 -81 54q-3 6 -14 7.5t-18 -3.5q-81 -59 -172 -59q-67 0 -98.5 32t-21.5 90q3 19 11.5 37t26.5 40t52 39t80 25q48 9 144 1q10 -1 16 4.5t5 16.5q-2 40 -31 66.5t-71 26.5
q-64 0 -108 -51q-15 -15 -30 -8l-23 11q-16 10 -3 28q33 41 79.5 65t96.5 24q78 0 124 -55t33 -133zM383 149q5 5 5 11l5 25q1 7 -3.5 13t-11.5 7q-83 8 -129 0q-34 -6 -57.5 -17t-33 -25t-12.5 -20.5t-5 -17.5q0 -10 -1.5 -22.5t16 -24t53.5 -11.5q97 0 174 82zM504 659
q22 0 34.5 -15t8.5 -37q-4 -21 -21.5 -36t-39.5 -15q-21 0 -33.5 15t-8.5 36q4 22 21.5 37t38.5 15zM275 659q22 0 34.5 -15t8.5 -37q-4 -21 -21.5 -36t-39.5 -15q-21 0 -33.5 15t-8.5 36q4 22 21.5 37t38.5 15z" />
    <glyph glyph-name="aring" unicode="&#xe5;" 
d="M474 259l-21 -120q-4 -23 6.5 -42t30.5 -26q5 -2 11 -9.5t5 -12.5l-5 -29q-5 -20 -24 -19q-54 9 -81 54q-3 6 -14 7.5t-18 -3.5q-81 -59 -172 -59q-67 0 -98.5 32t-21.5 90q3 19 11.5 37t26.5 40t52 39t80 25q48 9 144 1q10 -1 16 4.5t5 16.5q-2 40 -31 66.5t-71 26.5
q-64 0 -108 -51q-15 -15 -30 -8l-23 11q-16 10 -3 28q33 41 79.5 65t96.5 24q78 0 124 -55t33 -133zM383 149q5 5 5 11l5 25q1 7 -3.5 13t-11.5 7q-83 8 -129 0q-34 -6 -57.5 -17t-33 -25t-12.5 -20.5t-5 -17.5q0 -10 -1.5 -22.5t16 -24t53.5 -11.5q97 0 174 82zM407 758
q54 0 85 -38t22 -92q-10 -53 -54.5 -91t-98.5 -38q-53 0 -84.5 38t-21.5 91q9 54 54 92t98 38zM373 567q26 0 47.5 18t25.5 43q5 26 -10.5 44t-40.5 18t-46 -18t-26 -44t10 -43.5t40 -17.5z" />
    <glyph glyph-name="ae" unicode="&#xe6;" 
d="M461 118q5 8 14 11t17 -1l12 -8q13 -9 5 -23q-59 -97 -132 -97q-63 0 -83 41q-3 7 -13.5 7t-16.5 -6q-47 -48 -121 -42q-41 3 -61 34.5t-10 87.5q18 109 109 135q31 10 90 3q14 -2 16 12q6 46 -5.5 76t-41.5 30q-41 0 -65 -40q-4 -7 -12.5 -11t-15.5 -1l-21 7
q-16 7 -7 24q26 49 67 73t81 16t62 -46q4 -6 13.5 -4.5t14.5 8.5q35 43 96 43q57 0 80 -56t3 -168q0 -4 -1 -9t-2.5 -11.5t-2.5 -9.5q-1 -4 -7 -4h-162q-20 0 -22 -20q-4 -45 11 -72.5t44 -27.5q38 0 67 49zM358 278q-2 -9 2.5 -14.5t12.5 -5.5h80q21 0 23 20
q5 45 -3.5 72.5t-31.5 27.5q-28 0 -50 -27.5t-33 -72.5zM141 125q-8 -47 30 -55q36 -8 67 22q20 18 25 44l8 43q0 9 -9 11q-108 7 -121 -65z" />
    <glyph glyph-name="ccedilla" unicode="&#xe7;" 
d="M448 148q11 15 28 9l27 -12q20 -9 6 -26q-57 -76 -143 -105q-7 -2 -11 -10.5t-2 -14.5q16 -47 -14 -104q-30 -49 -80 -69.5t-100 -8.5q-9 2 -12 9t2 16l16 28q9 17 26 13q53 -12 83 30q25 36 8 71q-12 23 -42 30q-79 14 -122 76t-29 143q16 93 96 158.5t176 65.5
q66 0 115.5 -33t69.5 -86q6 -17 -15 -26l-31 -12q-19 -6 -25 9q-15 36 -48.5 57.5t-77.5 21.5q-67 0 -122 -45.5t-66 -109.5t27.5 -109t105.5 -45q44 0 85.5 21.5t68.5 57.5z" />
    <glyph glyph-name="egrave" unicode="&#xe8;" 
d="M419 129q5 6 14.5 8.5t14.5 -1.5l23 -14q16 -10 4 -25q-39 -45 -92.5 -71t-109.5 -26q-92 0 -146 65.5t-38 157.5q16 93 93.5 158.5t169.5 65.5q93 0 147 -65.5t37 -158.5q-1 -10 -7 -30q-1 -4 -7 -4h-341q-11 0 -17.5 -7.5t-3.5 -17.5q10 -43 44 -69t81 -26q77 0 134 60
zM181 283q-7 -11 -3 -18t15 -7h252q11 0 17 7t4 18q-10 42 -44 68.5t-82 26.5t-91.5 -26.5t-67.5 -68.5zM393 562q11 -14 -5 -28l-24 -21q-17 -14 -29 0l-121 147q-12 14 5 28l24 21q7 6 15 6t13 -6z" />
    <glyph glyph-name="eacute" unicode="&#xe9;" 
d="M419 129q5 6 14.5 8.5t14.5 -1.5l23 -14q16 -10 4 -25q-39 -45 -92.5 -71t-109.5 -26q-92 0 -146 65.5t-38 157.5q16 93 93.5 158.5t169.5 65.5q98 0 151 -73.5t30 -165.5q-6 -19 -22 -19h-330q-11 0 -17.5 -7.5t-3.5 -17.5q10 -43 44 -69t81 -26q77 0 134 60zM181 283
q-7 -11 -3 -18t15 -7h252q11 0 17 7t4 18q-10 42 -44 68.5t-82 26.5t-91.5 -26.5t-67.5 -68.5zM315 513q-17 -14 -29 0l-17 21q-11 14 5 28l174 147q7 6 15 6t13 -6l17 -21q12 -13 -5 -28z" />
    <glyph glyph-name="ecircumflex" unicode="&#xea;" 
d="M419 129q5 6 14.5 8.5t14.5 -1.5l23 -14q16 -10 4 -25q-39 -45 -92.5 -71t-109.5 -26q-92 0 -146 65.5t-38 157.5q16 93 93.5 158.5t169.5 65.5q93 0 147 -65.5t37 -158.5q-1 -10 -7 -30q-1 -4 -7 -4h-341q-11 0 -17.5 -7.5t-3.5 -17.5q10 -43 44 -69t81 -26q77 0 134 60
zM181 283q-7 -11 -3 -18t15 -7h252q11 0 17 7t4 18q-10 42 -44 68.5t-82 26.5t-91.5 -26.5t-67.5 -68.5zM258 553q-17 -14 -29 0l-17 21q-11 14 5 28l174 147q7 6 15 6t13 -6l122 -147q11 -14 -5 -28l-24 -21q-17 -14 -29 0l-81 98q-12 14 -28 0z" />
    <glyph glyph-name="edieresis" unicode="&#xeb;" 
d="M419 129q5 6 14.5 8.5t14.5 -1.5l23 -14q16 -10 4 -25q-39 -45 -92.5 -71t-109.5 -26q-92 0 -146 65.5t-38 157.5q16 93 93.5 158.5t169.5 65.5q98 0 151 -73.5t30 -165.5q-6 -19 -22 -19h-330q-11 0 -17.5 -7.5t-3.5 -17.5q10 -43 44 -69t81 -26q77 0 134 60zM181 283
q-7 -11 -3 -18t15 -7h252q11 0 17 7t4 18q-10 42 -44 68.5t-82 26.5t-91.5 -26.5t-67.5 -68.5zM504 659q22 0 34.5 -15t8.5 -37q-4 -21 -21.5 -36t-39.5 -15q-21 0 -33.5 15t-8.5 36q4 22 21.5 37t38.5 15zM275 659q22 0 34.5 -15t8.5 -37q-4 -21 -21.5 -36t-39.5 -15
q-21 0 -33.5 15t-8.5 36q4 22 21.5 37t38.5 15z" />
    <glyph glyph-name="igrave" unicode="&#xec;" 
d="M367 447q8 0 13 -6t3 -14l-59 -338q-2 -8 3 -14t13 -6h149q8 0 13 -6t4 -14l-5 -29q-4 -20 -24 -20h-407q-8 0 -13 6t-3 14l5 29q4 20 23 20h149q20 0 24 20l47 269q2 8 -3 14t-13 6h-101q-8 0 -13 6t-4 14l5 29q4 20 24 20h170zM471 562q11 -14 -5 -28l-24 -21
q-17 -14 -29 0l-121 147q-12 14 5 28l24 21q7 6 15 6t13 -6z" />
    <glyph glyph-name="iacute" unicode="&#xed;" 
d="M367 447q8 0 13 -6t3 -14l-59 -338q-2 -8 3 -14t13 -6h149q8 0 13 -6t4 -14l-5 -29q-4 -20 -24 -20h-407q-8 0 -13 6t-3 14l5 29q4 20 23 20h149q20 0 24 20l47 269q2 8 -3 14t-13 6h-101q-8 0 -13 6t-4 14l5 29q4 20 24 20h170zM315 513q-17 -14 -29 0l-17 21
q-11 14 5 28l174 147q7 6 15 6t13 -6l17 -21q12 -13 -5 -28z" />
    <glyph glyph-name="icircumflex" unicode="&#xee;" 
d="M367 447q8 0 13 -6t3 -14l-59 -338q-2 -8 3 -14t13 -6h149q8 0 13 -6t4 -14l-5 -29q-4 -20 -24 -20h-407q-8 0 -13 6t-3 14l5 29q4 20 23 20h149q20 0 24 20l47 269q2 8 -3 14t-13 6h-101q-8 0 -13 6t-4 14l5 29q4 20 24 20h170zM258 553q-17 -14 -29 0l-17 21
q-11 14 5 28l174 147q7 6 15 6t13 -6l122 -147q11 -14 -5 -28l-24 -21q-17 -14 -29 0l-81 98q-12 14 -28 0z" />
    <glyph glyph-name="idieresis" unicode="&#xef;" 
d="M367 447q8 0 13 -6t3 -14l-59 -338q-2 -8 3 -14t13 -6h149q8 0 13 -6t4 -14l-5 -29q-4 -20 -24 -20h-407q-8 0 -13 6t-3 14l5 29q4 20 23 20h149q20 0 24 20l47 269q2 8 -3 14t-13 6h-101q-8 0 -13 6t-4 14l5 29q4 20 24 20h170zM504 659q22 0 34.5 -15t8.5 -37
q-4 -21 -21.5 -36t-39.5 -15q-21 0 -33.5 15t-8.5 36q4 22 21.5 37t38.5 15zM275 659q22 0 34.5 -15t8.5 -37q-4 -21 -21.5 -36t-39.5 -15q-21 0 -33.5 15t-8.5 36q4 22 21.5 37t38.5 15z" />
    <glyph glyph-name="ntilde" unicode="&#xf1;" 
d="M352 447q93 0 147 -65.5t37 -158.5l-35 -203q-4 -20 -24 -20h-29q-8 0 -13 6t-3 14l35 203q11 65 -26 110t-101 45t-117.5 -45t-64.5 -109l-35 -204q-4 -20 -24 -20h-29q-8 0 -13 6t-3 14l71 407q4 20 24 20h29q8 0 13 -6t3 -14l-2 -14q-1 -8 6 -11t14 2q67 43 140 43z
M355 611q-3 14 -17 21t-30 0q-31 -12 -27 -53q0 -12 -12 -17l-23 -8q-18 -7 -21 9q-5 36 14.5 70.5t57.5 48.5q37 13 70.5 -0.5t44.5 -50.5q6 -16 18 -23t26 -1q21 10 26 21.5t3 30.5q0 13 13 18l22 8q21 8 23 -13q3 -39 -14.5 -72t-57.5 -46q-37 -15 -71 -1.5t-45 58.5z
" />
    <glyph glyph-name="ograve" unicode="&#xf2;" 
d="M352 447q93 0 147 -65.5t37 -158.5q-16 -92 -93 -157.5t-170 -65.5q-92 0 -146 65.5t-38 157.5q16 93 93.5 158.5t169.5 65.5zM285 69q64 0 117.5 45t64.5 109q11 65 -26 110t-101 45t-117.5 -45.5t-64.5 -109.5t26 -109t101 -45zM471 562q11 -14 -5 -28l-24 -21
q-17 -14 -29 0l-121 147q-12 14 5 28l24 21q7 6 15 6t13 -6z" />
    <glyph glyph-name="oacute" unicode="&#xf3;" 
d="M352 447q93 0 147 -65.5t37 -158.5q-16 -92 -93 -157.5t-170 -65.5q-92 0 -146 65.5t-38 157.5q16 93 93.5 158.5t169.5 65.5zM285 69q64 0 117.5 45t64.5 109q11 65 -26 110t-101 45t-117.5 -45.5t-64.5 -109.5t26 -109t101 -45zM315 513q-17 -14 -29 0l-17 21
q-11 14 5 28l174 147q7 6 15 6t13 -6l17 -21q12 -13 -5 -28z" />
    <glyph glyph-name="ocircumflex" unicode="&#xf4;" 
d="M352 447q93 0 147 -65.5t37 -158.5q-16 -92 -93 -157.5t-170 -65.5q-92 0 -146 65.5t-38 157.5q16 93 93.5 158.5t169.5 65.5zM285 69q64 0 117.5 45t64.5 109q11 65 -26 110t-101 45t-117.5 -45.5t-64.5 -109.5t26 -109t101 -45zM258 553q-17 -14 -29 0l-17 21
q-11 14 5 28l174 147q7 6 15 6t13 -6l122 -147q11 -14 -5 -28l-24 -21q-17 -14 -29 0l-81 98q-12 14 -28 0z" />
    <glyph glyph-name="otilde" unicode="&#xf5;" 
d="M352 447q93 0 147 -65.5t37 -158.5q-16 -92 -93 -157.5t-170 -65.5q-92 0 -146 65.5t-38 157.5q16 93 93.5 158.5t169.5 65.5zM285 69q64 0 117.5 45t64.5 109q11 65 -26 110t-101 45t-117.5 -45.5t-64.5 -109.5t26 -109t101 -45zM354 611q-3 14 -17 21t-30 0
q-31 -12 -27 -53q0 -12 -12 -17l-23 -8q-18 -7 -21 9q-5 36 14.5 70.5t57.5 48.5q37 13 70.5 -0.5t44.5 -50.5q6 -16 18 -23t26 -1q21 10 26 21.5t3 30.5q0 13 13 18l22 8q21 8 23 -13q3 -39 -14.5 -72t-57.5 -46q-37 -15 -71 -1.5t-45 58.5z" />
    <glyph glyph-name="odieresis" unicode="&#xf6;" 
d="M352 447q93 0 147 -65.5t37 -158.5q-16 -92 -93 -157.5t-170 -65.5q-92 0 -146 65.5t-38 157.5q16 93 93.5 158.5t169.5 65.5zM285 69q64 0 117.5 45t64.5 109q11 65 -26 110t-101 45t-117.5 -45.5t-64.5 -109.5t26 -109t101 -45zM504 659q22 0 34.5 -15t8.5 -37
q-4 -21 -21.5 -36t-39.5 -15q-21 0 -33.5 15t-8.5 36q4 22 21.5 37t38.5 15zM275 659q22 0 34.5 -15t8.5 -37q-4 -21 -21.5 -36t-39.5 -15q-21 0 -33.5 15t-8.5 36q4 22 21.5 37t38.5 15z" />
    <glyph glyph-name="divide" unicode="&#xf7;" 
d="M359 191q-4 -22 -21.5 -37t-39.5 -15q-21 0 -33.5 15t-8.5 37q4 21 21.5 36t38.5 15q22 0 34.5 -15t8.5 -36zM412 495q-4 -22 -21.5 -37t-39.5 -15q-21 0 -33.5 15t-8.5 37q4 21 21.5 36t38.5 15q22 0 34.5 -15t8.5 -36zM195 315q-8 0 -13 6t-4 14l4 25q4 20 24 20h269
q8 0 13 -6t3 -14l-4 -25q-4 -20 -23 -20h-269z" />
    <glyph glyph-name="oslash" unicode="&#xf8;" 
d="M202 12q-14 6 -24 -6l-60 -73q-7 -9 -18 -9h-27q-13 0 -16.5 10t5.5 21l66 80q5 5 5 14t-4 14q-57 65 -40 160q16 93 93.5 158.5t169.5 65.5q44 0 81 -17q16 -6 27 7l43 53q9 9 19 9h26q13 0 16.5 -10.5t-4.5 -20.5l-55 -66q-4 -5 -4.5 -14t3.5 -13q48 -66 32 -152
q-16 -92 -93 -157.5t-170 -65.5q-39 0 -71 12zM340 378q-64 0 -117.5 -45.5t-64.5 -109.5q-9 -57 19 -98q5 -7 12.5 -6.5t14.5 8.5l189 229q7 9 -2 13q-24 9 -51 9zM285 69q64 0 117.5 45t64.5 109q9 51 -13 90q-8 17 -23 0l-189 -229q-5 -6 3 -10q20 -5 40 -5z" />
    <glyph glyph-name="ugrave" unicode="&#xf9;" 
d="M274 0q-93 0 -147 65.5t-38 158.5l36 203q4 20 24 20h29q8 0 13 -6t3 -14l-36 -203q-11 -64 26 -109.5t102 -45.5q64 0 117 45t64 109l36 204q4 20 24 20h29q8 0 13 -6t3 -14l-71 -407q-4 -20 -24 -20h-29q-8 0 -13 6t-3 14l2 14q1 8 -6 11t-15 -2q-65 -43 -139 -43z
M471 562q11 -14 -5 -28l-24 -21q-17 -14 -29 0l-121 147q-12 14 5 28l24 21q7 6 15 6t13 -6z" />
    <glyph glyph-name="uacute" unicode="&#xfa;" 
d="M274 0q-93 0 -147 65.5t-38 158.5l36 203q4 20 24 20h29q8 0 13 -6t3 -14l-36 -203q-11 -64 26 -109.5t102 -45.5q64 0 117 45t64 109l36 204q4 20 24 20h29q8 0 13 -6t3 -14l-71 -407q-4 -20 -24 -20h-29q-8 0 -13 6t-3 14l2 14q1 8 -6 11t-15 -2q-65 -43 -139 -43z
M315 513q-17 -14 -29 0l-17 21q-11 14 5 28l174 147q7 6 15 6t13 -6l17 -21q12 -13 -5 -28z" />
    <glyph glyph-name="ucircumflex" unicode="&#xfb;" 
d="M274 0q-93 0 -147 65.5t-38 158.5l36 203q4 20 24 20h29q8 0 13 -6t3 -14l-36 -203q-11 -64 26 -109.5t102 -45.5q64 0 117 45t64 109l36 204q4 20 24 20h29q8 0 13 -6t3 -14l-71 -407q-4 -20 -24 -20h-29q-8 0 -13 6t-3 14l2 14q1 8 -6 11t-15 -2q-65 -43 -139 -43z
M258 553q-17 -14 -29 0l-17 21q-11 14 5 28l174 147q7 6 15 6t13 -6l122 -147q11 -14 -5 -28l-24 -21q-17 -14 -29 0l-81 98q-12 14 -28 0z" />
    <glyph glyph-name="udieresis" unicode="&#xfc;" 
d="M274 0q-93 0 -147 65.5t-38 158.5l36 203q4 20 24 20h29q8 0 13 -6t3 -14l-36 -203q-11 -64 26 -109.5t102 -45.5q64 0 117 45t64 109l36 204q4 20 24 20h29q8 0 13 -6t3 -14l-71 -407q-4 -20 -24 -20h-29q-8 0 -13 6t-3 14l2 14q1 8 -6 11t-15 -2q-65 -43 -139 -43z
M504 659q22 0 34.5 -15t8.5 -37q-4 -21 -21.5 -36t-39.5 -15q-21 0 -33.5 15t-8.5 36q4 22 21.5 37t38.5 15zM275 659q22 0 34.5 -15t8.5 -37q-4 -21 -21.5 -36t-39.5 -15q-21 0 -33.5 15t-8.5 36q4 22 21.5 37t38.5 15z" />
    <glyph glyph-name="yacute" unicode="&#xfd;" 
d="M278 135q4 -13 17 -13t20 13l180 300q6 12 20 12h31q11 0 15.5 -8.5t-2.5 -19.5l-392 -655q-8 -12 -21 -12h-30q-11 0 -15.5 9t2.5 19l130 216q6 8 3 16l-100 407q-3 10 4.5 19t18.5 9h31q12 0 16 -12zM315 513q-17 -14 -29 0l-17 21q-11 14 5 28l174 147q7 6 15 6t13 -6
l17 -21q12 -13 -5 -28z" />
    <glyph glyph-name="ydieresis" unicode="&#xff;" 
d="M278 135q4 -13 17 -13t20 13l180 300q6 12 20 12h31q11 0 15.5 -8.5t-2.5 -19.5l-392 -655q-8 -12 -21 -12h-30q-11 0 -15.5 9t2.5 19l130 216q6 8 3 16l-100 407q-3 10 4.5 19t18.5 9h31q12 0 16 -12zM275 659q22 0 34.5 -15t8.5 -37q-4 -21 -21.5 -36t-39.5 -15
q-21 0 -33.5 15t-8.5 36q4 22 21.5 37t38.5 15zM504 659q22 0 34.5 -15t8.5 -37q-4 -21 -21.5 -36t-39.5 -15q-21 0 -33.5 15t-8.5 36q4 22 21.5 37t38.5 15z" />
    <glyph glyph-name="Amacron" unicode="&#x100;" 
d="M495 25q1 -10 -6.5 -17.5t-17.5 -7.5h-33q-6 0 -11 4.5t-5 10.5l-14 151q0 6 -5 10.5t-11 4.5h-172q-14 0 -22 -15l-66 -151q-8 -15 -22 -15h-32q-10 0 -15 7.5t0 17.5l293 654q6 15 22 15h38q15 0 17 -15zM380 491q-2 15 -17 15t-22 -15l-96 -219q-5 -10 0 -17.5
t15 -7.5h116q10 0 17 7.5t6 17.5zM288 845q-8 0 -13 6t-3 14l4 25q4 20 23 20h269q8 0 13 -6t4 -14l-4 -25q-4 -20 -24 -20h-269z" />
    <glyph glyph-name="amacron" unicode="&#x101;" 
d="M474 259l-21 -120q-4 -23 6.5 -42t30.5 -26q5 -2 11 -9.5t5 -12.5l-5 -29q-5 -20 -24 -19q-54 9 -81 54q-3 6 -14 7.5t-18 -3.5q-81 -59 -172 -59q-67 0 -98.5 32t-21.5 90q3 19 11.5 37t26.5 40t52 39t80 25q48 9 144 1q10 -1 16 4.5t5 16.5q-2 40 -31 66.5t-71 26.5
q-64 0 -108 -51q-15 -15 -30 -8l-23 11q-16 10 -3 28q33 41 79.5 65t96.5 24q78 0 124 -55t33 -133zM383 149q5 5 5 11l5 25q1 7 -3.5 13t-11.5 7q-83 8 -129 0q-34 -6 -57.5 -17t-33 -25t-12.5 -20.5t-5 -17.5q0 -10 -1.5 -22.5t16 -24t53.5 -11.5q97 0 174 82zM244 597
q-8 0 -13 6t-3 14l4 25q4 20 24 20h269q8 0 13 -6t3 -14l-4 -25q-4 -20 -24 -20h-269z" />
    <glyph glyph-name="Abreve" unicode="&#x102;" 
d="M495 25q1 -10 -6.5 -17.5t-17.5 -7.5h-33q-6 0 -11 4.5t-5 10.5l-14 151q0 6 -5 10.5t-11 4.5h-172q-14 0 -22 -15l-66 -151q-8 -15 -22 -15h-32q-10 0 -15 7.5t0 17.5l293 654q6 15 22 15h38q15 0 17 -15zM380 491q-2 15 -17 15t-22 -15l-96 -219q-5 -10 0 -17.5
t15 -7.5h116q10 0 17 7.5t6 17.5zM493 909q2 5 10 11t12 6h31q21 0 15 -21q-16 -46 -57.5 -77t-89.5 -31t-78.5 31t-30.5 77q0 21 22 21h31q5 0 10.5 -6t6.5 -11q2 -20 15.5 -32t35.5 -12q21 0 39.5 12t27.5 32z" />
    <glyph glyph-name="abreve" unicode="&#x103;" 
d="M474 259l-21 -120q-4 -23 6.5 -42t30.5 -26q5 -2 11 -9.5t5 -12.5l-5 -29q-5 -20 -24 -19q-54 9 -81 54q-3 6 -14 7.5t-18 -3.5q-81 -59 -172 -59q-67 0 -98.5 32t-21.5 90q3 19 11.5 37t26.5 40t52 39t80 25q48 9 144 1q10 -1 16 4.5t5 16.5q-2 40 -31 66.5t-71 26.5
q-64 0 -108 -51q-15 -15 -30 -8l-23 11q-16 10 -3 28q33 41 79.5 65t96.5 24q78 0 124 -55t33 -133zM383 149q5 5 5 11l5 25q1 7 -3.5 13t-11.5 7q-83 8 -129 0q-34 -6 -57.5 -17t-33 -25t-12.5 -20.5t-5 -17.5q0 -10 -1.5 -22.5t16 -24t53.5 -11.5q97 0 174 82zM449 661
q2 5 10 11t13 6h31q20 0 14 -21q-16 -46 -57.5 -77t-89.5 -31t-78.5 31t-29.5 77q0 21 22 21h31q4 0 9.5 -6t6.5 -11q2 -20 16 -32t35 -12t39.5 12t27.5 32z" />
    <glyph glyph-name="Aogonek" unicode="&#x104;" 
d="M496 14q0 -14 -13 -14h-10q-7 0 -10 -3q-36 -16 -48.5 -51t7.5 -59t65 -14q17 3 21 -13l6 -28q2 -9 -3.5 -16.5t-15.5 -8.5q-55 -12 -97.5 8.5t-54.5 69.5q-17 88 63 147q12 8 12 22l-10 112q0 6 -5 10.5t-12 4.5h-171q-14 0 -22 -15l-66 -151q-8 -15 -22 -15h-32
q-10 0 -15 7.5t0 17.5l293 654q6 15 22 15h38q15 0 17 -15zM380 491q-2 15 -17 15t-22 -15l-96 -219q-5 -10 0 -17.5t15 -7.5h116q10 0 17 7.5t6 17.5z" />
    <glyph glyph-name="aogonek" unicode="&#x105;" 
d="M474 259l-21 -120q-4 -23 6.5 -42t30.5 -26q5 -2 11 -9.5t5 -12.5l-8 -42q0 -7 -8 -7l-3 1q-1 0 -5 -1t-5 -1q-38 -16 -51.5 -51t7 -59.5t65.5 -15.5q17 3 21 -13l6 -28q2 -9 -3.5 -16.5t-15.5 -8.5q-55 -12 -97.5 8.5t-54.5 69.5q-7 39 7.5 76t47.5 63q6 6 1 12
q-12 12 -21 33q-1 3 -4.5 3t-6.5 -2q-85 -70 -186 -70q-67 0 -98.5 32t-21.5 90q3 19 11.5 37t26.5 40t52 39t80 25q48 9 144 1q10 -1 16 4.5t5 16.5q-2 40 -31 66.5t-71 26.5q-64 0 -108 -51q-15 -15 -30 -8l-23 11q-16 10 -3 28q33 41 79.5 65t96.5 24q78 0 124 -55
t33 -133zM383 149q5 5 5 11l5 25q1 7 -3.5 13t-11.5 7q-83 8 -129 0q-34 -6 -57.5 -17t-33 -25t-12.5 -20.5t-5 -17.5q0 -10 -1.5 -22.5t16 -24t53.5 -11.5q97 0 174 82z" />
    <glyph glyph-name="Cacute" unicode="&#x106;" 
d="M284 66q59 0 109.5 37t67.5 93q2 7 10 12.5t15 5.5h29q21 0 16 -18q-22 -82 -96.5 -139t-162.5 -57q-92 0 -146 62.5t-38 151.5l47 267q16 89 92 151.5t168 62.5q87 0 142 -57t47 -139q-2 -18 -22 -18h-29q-7 0 -13 5.5t-5 12.5q2 56 -35.5 93t-96.5 37
q-64 0 -116.5 -43.5t-62.5 -104.5l-47 -267q-11 -61 26 -104.5t101 -43.5zM358 761q-16 -14 -28 0l-17 21q-11 14 5 28l174 147q16 14 28 0l17 -21q11 -14 -5 -28z" />
    <glyph glyph-name="cacute" unicode="&#x107;" 
d="M448 148q11 15 28 9l27 -12q19 -9 6 -26q-39 -54 -100 -86.5t-127 -32.5q-96 0 -152.5 65.5t-40.5 157.5q16 93 96 158.5t176 65.5q66 0 115.5 -33t69.5 -86q6 -17 -15 -26l-31 -12q-19 -6 -25 9q-15 36 -48.5 57.5t-77.5 21.5q-67 0 -122 -45.5t-66 -109.5t27.5 -109
t105.5 -45q44 0 85.5 21.5t68.5 57.5zM315 513q-17 -14 -29 0l-17 21q-11 14 5 28l174 147q7 6 15 6t13 -6l17 -21q12 -13 -5 -28z" />
    <glyph glyph-name="Ccircumflex" unicode="&#x108;" 
d="M284 66q59 0 109.5 37t67.5 93q2 7 10 12.5t15 5.5h29q21 0 16 -18q-22 -82 -96.5 -139t-162.5 -57q-92 0 -146 62.5t-38 151.5l47 267q16 89 92 151.5t168 62.5q87 0 142 -57t47 -139q-2 -18 -22 -18h-29q-7 0 -13 5.5t-5 12.5q2 56 -35.5 93t-96.5 37
q-64 0 -116.5 -43.5t-62.5 -104.5l-47 -267q-11 -61 26 -104.5t101 -43.5zM301 801q-16 -14 -28 0l-17 21q-11 14 5 28l174 147q16 14 28 0l122 -147q11 -14 -5 -28l-25 -21q-16 -14 -28 0l-81 98q-12 14 -29 0z" />
    <glyph glyph-name="ccircumflex" unicode="&#x109;" 
d="M448 148q11 15 28 9l27 -12q19 -9 6 -26q-39 -54 -100 -86.5t-127 -32.5q-96 0 -152.5 65.5t-40.5 157.5q16 93 96 158.5t176 65.5q66 0 115.5 -33t69.5 -86q6 -17 -15 -26l-31 -12q-19 -6 -25 9q-15 36 -48.5 57.5t-77.5 21.5q-67 0 -122 -45.5t-66 -109.5t27.5 -109
t105.5 -45q44 0 85.5 21.5t68.5 57.5zM258 553q-17 -14 -29 0l-17 21q-11 14 5 28l174 147q7 6 15 6t13 -6l122 -147q11 -14 -5 -28l-24 -21q-17 -14 -29 0l-81 98q-12 14 -28 0z" />
    <glyph glyph-name="Cdotaccent" unicode="&#x10a;" 
d="M284 66q59 0 109.5 37t67.5 93q2 7 10 12.5t15 5.5h29q21 0 16 -18q-22 -82 -96.5 -139t-162.5 -57q-92 0 -146 62.5t-38 151.5l47 267q16 89 92 151.5t168 62.5q87 0 142 -57t47 -139q-2 -18 -22 -18h-29q-7 0 -13 5.5t-5 12.5q2 56 -35.5 93t-96.5 37
q-64 0 -116.5 -43.5t-62.5 -104.5l-47 -267q-11 -61 26 -104.5t101 -43.5zM435 917q22 0 34.5 -15t8.5 -37q-4 -21 -21.5 -36t-39.5 -15q-21 0 -33.5 15t-8.5 36q4 22 21.5 37t38.5 15z" />
    <glyph glyph-name="cdotaccent" unicode="&#x10b;" 
d="M448 148q11 15 28 9l27 -12q19 -9 6 -26q-39 -54 -100 -86.5t-127 -32.5q-96 0 -152.5 65.5t-40.5 157.5q16 93 96 158.5t176 65.5q66 0 115.5 -33t69.5 -86q6 -17 -15 -26l-31 -12q-19 -6 -25 9q-15 36 -48.5 57.5t-77.5 21.5q-67 0 -122 -45.5t-66 -109.5t27.5 -109
t105.5 -45q44 0 85.5 21.5t68.5 57.5zM391 669q22 0 34.5 -15t8.5 -37q-4 -21 -21.5 -36t-39.5 -15q-21 0 -33.5 15t-8.5 36q4 22 21.5 37t38.5 15z" />
    <glyph glyph-name="Ccaron" unicode="&#x10c;" 
d="M284 66q59 0 109.5 37t67.5 93q2 7 10 12.5t15 5.5h29q21 0 16 -18q-22 -82 -96.5 -139t-162.5 -57q-92 0 -146 62.5t-38 151.5l47 267q16 89 92 151.5t168 62.5q87 0 142 -57t47 -139q-2 -18 -22 -18h-29q-7 0 -13 5.5t-5 12.5q2 56 -35.5 93t-96.5 37
q-64 0 -116.5 -43.5t-62.5 -104.5l-47 -267q-11 -61 26 -104.5t101 -43.5zM278 948q-11 14 5 28l25 21q16 14 28 0l81 -98q12 -14 29 0l116 98q16 14 28 0l17 -21q11 -14 -5 -28l-174 -147q-16 -14 -28 0z" />
    <glyph glyph-name="ccaron" unicode="&#x10d;" 
d="M448 148q11 15 28 9l27 -12q19 -9 6 -26q-39 -54 -100 -86.5t-127 -32.5q-96 0 -152.5 65.5t-40.5 157.5q16 93 96 158.5t176 65.5q66 0 115.5 -33t69.5 -86q6 -17 -15 -26l-31 -12q-19 -6 -25 9q-15 36 -48.5 57.5t-77.5 21.5q-67 0 -122 -45.5t-66 -109.5t27.5 -109
t105.5 -45q44 0 85.5 21.5t68.5 57.5zM235 700q-12 14 5 28l24 21q7 6 15 6t13 -6l82 -98q4 -6 12.5 -6t15.5 6l116 98q7 6 15.5 6t12.5 -6l17 -21q12 -13 -5 -28l-173 -147q-17 -14 -29 0z" />
    <glyph glyph-name="Dcaron" unicode="&#x10e;" 
d="M169 675q4 20 24 20h145q133 0 191 -92.5t30 -252.5q-29 -161 -120 -255.5t-224 -94.5h-145q-8 0 -13 6t-3 14zM134 86q-1 -8 4 -14t13 -6h76q101 0 170.5 78.5t91.5 203.5t-20 203t-143 78h-76q-20 0 -24 -20zM278 948q-11 14 5 28l25 21q16 14 28 0l81 -98q12 -14 29 0
l116 98q16 14 28 0l17 -21q11 -14 -5 -28l-174 -147q-16 -14 -28 0z" />
    <glyph glyph-name="Dcroat" unicode="&#x110;" 
d="M56 320q-8 0 -13 6t-3 14l4 25q4 20 24 20h30q19 0 23 20l48 270q4 20 24 20h145q133 0 191 -92.5t30 -252.5q-29 -161 -120 -255.5t-224 -94.5h-145q-8 0 -13 6t-3 14l49 280q1 8 -4 14t-13 6h-30zM134 86q-1 -8 4 -14t13 -6h76q101 0 170.5 78.5t91.5 203.5t-20 203
t-143 78h-76q-20 0 -24 -20l-36 -204q-1 -8 4 -14t13 -6h100q8 0 13 -6t3 -14l-4 -25q-4 -20 -24 -20h-100q-19 0 -23 -20z" />
    <glyph glyph-name="dcroat" unicode="&#x111;" 
d="M423 537q-8 0 -13 6t-4 14l5 25q4 20 23 20h80q20 0 24 20l9 53q4 20 24 20h29q8 0 13 -6t3 -14l-9 -53q-2 -8 3 -14t13 -6h80q8 0 13 -6t4 -14l-5 -25q-4 -20 -23 -20h-80q-20 0 -24 -20l-87 -497q-4 -20 -24 -20h-29q-8 0 -13 6t-3 14l2 14q1 7 -6 10.5t-15 -1.5
q-65 -43 -139 -43q-93 0 -147 65.5t-38 157.5q16 93 93.5 158.5t170.5 65.5q73 0 124 -43q5 -5 14 -2t10 11l18 104q2 8 -3 14t-13 6h-80zM286 69q64 0 117 45t64 109q12 66 -25.5 110.5t-100.5 44.5q-65 0 -118.5 -45.5t-64.5 -109.5t26.5 -109t101.5 -45z" />
    <glyph glyph-name="Emacron" unicode="&#x112;" 
d="M70 0q-8 0 -13 6t-3 14l115 655q4 20 24 20h407q8 0 13 -6t3 -14l-5 -26q-4 -20 -23 -20h-338q-20 0 -24 -20l-36 -209q-2 -8 3 -14t13 -6h155q8 0 13 -6t3 -14l-4 -25q-4 -20 -23 -20h-155q-20 0 -24 -20l-37 -209q-1 -8 4 -14t13 -6h338q8 0 13 -6t3 -14l-4 -26
q-4 -20 -24 -20h-407zM288 845q-8 0 -13 6t-3 14l4 25q4 20 23 20h269q8 0 13 -6t4 -14l-4 -25q-4 -20 -24 -20h-269z" />
    <glyph glyph-name="emacron" unicode="&#x113;" 
d="M419 129q5 6 14.5 8.5t14.5 -1.5l23 -14q16 -10 4 -25q-39 -45 -92.5 -71t-109.5 -26q-92 0 -146 65.5t-38 157.5q16 93 93.5 158.5t169.5 65.5q98 0 151 -73.5t30 -165.5q-6 -19 -22 -19h-330q-11 0 -17.5 -7.5t-3.5 -17.5q10 -43 44 -69t81 -26q77 0 134 60zM181 283
q-7 -11 -3 -18t15 -7h252q11 0 17 7t4 18q-10 42 -44 68.5t-82 26.5t-91.5 -26.5t-67.5 -68.5zM244 597q-8 0 -13 6t-3 14l4 25q4 20 24 20h269q8 0 13 -6t3 -14l-4 -25q-4 -20 -24 -20h-269z" />
    <glyph glyph-name="Ebreve" unicode="&#x114;" 
d="M70 0q-8 0 -13 6t-3 14l115 655q4 20 24 20h407q8 0 13 -6t3 -14l-5 -26q-4 -20 -23 -20h-338q-20 0 -24 -20l-36 -209q-2 -8 3 -14t13 -6h155q8 0 13 -6t3 -14l-4 -25q-4 -20 -23 -20h-155q-20 0 -24 -20l-37 -209q-1 -8 4 -14t13 -6h338q8 0 13 -6t3 -14l-4 -26
q-4 -20 -24 -20h-407zM493 909q2 5 10 11t12 6h31q21 0 15 -21q-16 -46 -57.5 -77t-89.5 -31t-78.5 31t-30.5 77q0 21 22 21h31q5 0 10.5 -6t6.5 -11q2 -20 15.5 -32t35.5 -12q21 0 39.5 12t27.5 32z" />
    <glyph glyph-name="ebreve" unicode="&#x115;" 
d="M419 129q5 6 14.5 8.5t14.5 -1.5l23 -14q16 -10 4 -25q-39 -45 -92.5 -71t-109.5 -26q-92 0 -146 65.5t-38 157.5q16 93 93.5 158.5t169.5 65.5q98 0 151 -73.5t30 -165.5q-6 -19 -22 -19h-330q-11 0 -17.5 -7.5t-3.5 -17.5q10 -43 44 -69t81 -26q77 0 134 60zM181 283
q-7 -11 -3 -18t15 -7h252q11 0 17 7t4 18q-10 42 -44 68.5t-82 26.5t-91.5 -26.5t-67.5 -68.5zM449 661q2 5 10 11t13 6h31q20 0 14 -21q-16 -46 -57.5 -77t-89.5 -31t-78.5 31t-29.5 77q0 21 22 21h31q4 0 9.5 -6t6.5 -11q2 -20 16 -32t35 -12t39.5 12t27.5 32z" />
    <glyph glyph-name="Edotaccent" unicode="&#x116;" 
d="M70 0q-8 0 -13 6t-3 14l115 655q4 20 24 20h407q8 0 13 -6t3 -14l-5 -26q-4 -20 -23 -20h-338q-20 0 -24 -20l-36 -209q-2 -8 3 -14t13 -6h155q8 0 13 -6t3 -14l-4 -25q-4 -20 -23 -20h-155q-20 0 -24 -20l-37 -209q-1 -8 4 -14t13 -6h338q8 0 13 -6t3 -14l-4 -26
q-4 -20 -24 -20h-407zM435 917q22 0 34.5 -15t8.5 -37q-4 -21 -21.5 -36t-39.5 -15q-21 0 -33.5 15t-8.5 36q4 22 21.5 37t38.5 15z" />
    <glyph glyph-name="edotaccent" unicode="&#x117;" 
d="M419 129q5 6 14.5 8.5t14.5 -1.5l23 -14q16 -10 4 -25q-39 -45 -92.5 -71t-109.5 -26q-92 0 -146 65.5t-38 157.5q16 93 93.5 158.5t169.5 65.5q93 0 147 -65.5t37 -158.5q-1 -10 -7 -30q-1 -4 -7 -4h-341q-11 0 -17.5 -7.5t-3.5 -17.5q10 -43 44 -69t81 -26q77 0 134 60
zM181 283q-7 -11 -3 -18t15 -7h252q11 0 17 7t4 18q-10 42 -44 68.5t-82 26.5t-91.5 -26.5t-67.5 -68.5zM391 669q22 0 34.5 -15t8.5 -37q-4 -21 -21.5 -36t-39.5 -15q-21 0 -33.5 15t-8.5 36q4 22 21.5 37t38.5 15z" />
    <glyph glyph-name="Eogonek" unicode="&#x118;" 
d="M70 0q-8 0 -13 6t-3 14l115 655q4 20 24 20h407q8 0 13 -6t3 -14l-5 -26q-4 -20 -23 -20h-338q-20 0 -24 -20l-36 -209q-2 -8 3 -14t13 -6h155q8 0 13 -6t3 -14l-4 -25q-4 -20 -23 -20h-155q-20 0 -24 -20l-37 -209q-1 -8 4 -14t13 -6h338q8 0 13 -6t3 -14l-4 -26
q-4 -20 -24 -20h-58q-7 0 -10 -3q-36 -16 -48.5 -51t7.5 -59t65 -14q17 3 21 -13l6 -28q2 -9 -3.5 -16.5t-15.5 -8.5q-55 -12 -97.5 8.5t-54.5 69.5q-10 51 17 97q4 6 2 12t-9 6h-229z" />
    <glyph glyph-name="eogonek" unicode="&#x119;" 
d="M419 129q5 6 14.5 8.5t14.5 -1.5l23 -14q16 -11 1 -28q-74 -84 -175 -93l-6 -1q-40 -14 -55 -49.5t5 -61.5t66 -16q17 3 21 -13l6 -28q2 -9 -3.5 -16.5t-15.5 -8.5q-55 -12 -97.5 8.5t-54.5 69.5q-11 60 24 108q5 6 4.5 15t-6.5 12q-54 27 -81 81.5t-15 121.5
q16 93 93.5 158.5t169.5 65.5q98 0 151 -73.5t30 -165.5q-6 -19 -22 -19h-330q-11 0 -17.5 -7.5t-3.5 -17.5q10 -43 44 -69t81 -26q77 0 134 60zM181 283q-7 -11 -3 -18t15 -7h252q11 0 17 7t4 18q-10 42 -44 68.5t-82 26.5t-91.5 -26.5t-67.5 -68.5z" />
    <glyph glyph-name="Ecaron" unicode="&#x11a;" 
d="M70 0q-8 0 -13 6t-3 14l115 655q4 20 24 20h407q8 0 13 -6t3 -14l-5 -26q-4 -20 -23 -20h-338q-20 0 -24 -20l-36 -209q-2 -8 3 -14t13 -6h155q8 0 13 -6t3 -14l-4 -25q-4 -20 -23 -20h-155q-20 0 -24 -20l-37 -209q-1 -8 4 -14t13 -6h338q8 0 13 -6t3 -14l-4 -26
q-4 -20 -24 -20h-407zM278 948q-11 14 5 28l25 21q16 14 28 0l81 -98q12 -14 29 0l116 98q16 14 28 0l17 -21q11 -14 -5 -28l-174 -147q-16 -14 -28 0z" />
    <glyph glyph-name="ecaron" unicode="&#x11b;" 
d="M419 129q5 6 14.5 8.5t14.5 -1.5l23 -14q16 -10 4 -25q-39 -45 -92.5 -71t-109.5 -26q-92 0 -146 65.5t-38 157.5q16 93 93.5 158.5t169.5 65.5q93 0 147 -65.5t37 -158.5q-1 -10 -7 -30q-1 -4 -7 -4h-341q-11 0 -17.5 -7.5t-3.5 -17.5q10 -43 44 -69t81 -26q77 0 134 60
zM181 283q-7 -11 -3 -18t15 -7h252q11 0 17 7t4 18q-10 42 -44 68.5t-82 26.5t-91.5 -26.5t-67.5 -68.5zM235 700q-12 14 5 28l24 21q7 6 15 6t13 -6l82 -98q4 -6 12.5 -6t15.5 6l116 98q7 6 15.5 6t12.5 -6l17 -21q12 -13 -5 -28l-173 -147q-17 -14 -29 0z" />
    <glyph glyph-name="Gcircumflex" unicode="&#x11c;" 
d="M348 315q-8 0 -13 6t-4 14l4 25q4 20 24 20h185q8 0 13 -6t3 -14l-25 -146q-16 -88 -93 -151t-170 -63q-92 0 -146 62.5t-38 151.5l47 267q16 89 92 151.5t168 62.5q87 0 142 -57t47 -139q-2 -18 -22 -18h-29q-7 0 -13 5.5t-5 12.5q2 56 -35.5 93t-96.5 37
q-64 0 -116.5 -43.5t-62.5 -104.5l-47 -267q-11 -61 26 -104.5t101 -43.5t117.5 43t64.5 105l14 81q2 8 -3 14t-13 6h-116zM301 801q-16 -14 -28 0l-17 21q-11 14 5 28l174 147q16 14 28 0l122 -147q11 -14 -5 -28l-25 -21q-16 -14 -28 0l-81 98q-12 14 -29 0z" />
    <glyph glyph-name="gcircumflex" unicode="&#x11d;" 
d="M424 -25l10 59q1 7 -6 10.5t-15 -1.5q-67 -43 -140 -43q-92 0 -146 65.5t-38 157.5q16 93 93.5 158.5t169.5 65.5q74 0 125 -43q5 -5 14 -2t10 11l2 14q4 20 24 20h29q8 0 13 -6t3 -14l-79 -452q-17 -92 -94 -157.5t-170 -65.5q-56 0 -99.5 26t-66.5 71q-7 14 12 25
l27 14q7 4 15.5 1.5t11.5 -8.5q37 -60 112 -60q65 0 118.5 45t64.5 109zM285 69q63 0 115 42.5t66 104.5q12 69 -24.5 115.5t-101.5 46.5q-64 0 -117.5 -45.5t-64.5 -109.5t26 -109t101 -45zM258 553q-17 -14 -29 0l-17 21q-11 14 5 28l174 147q7 6 15 6t13 -6l122 -147
q11 -14 -5 -28l-24 -21q-17 -14 -29 0l-81 98q-12 14 -28 0z" />
    <glyph glyph-name="Gbreve" unicode="&#x11e;" 
d="M348 315q-8 0 -13 6t-4 14l4 25q4 20 24 20h185q8 0 13 -6t3 -14l-25 -146q-16 -88 -93 -151t-170 -63q-92 0 -146 62.5t-38 151.5l47 267q16 89 92 151.5t168 62.5q87 0 142 -57t47 -139q-2 -18 -22 -18h-29q-7 0 -13 5.5t-5 12.5q2 56 -35.5 93t-96.5 37
q-64 0 -116.5 -43.5t-62.5 -104.5l-47 -267q-11 -61 26 -104.5t101 -43.5t117.5 43t64.5 105l14 81q2 8 -3 14t-13 6h-116zM493 909q2 5 10 11t12 6h31q21 0 15 -21q-16 -46 -57.5 -77t-89.5 -31t-78.5 31t-30.5 77q0 21 22 21h31q5 0 10.5 -6t6.5 -11q2 -20 15.5 -32
t35.5 -12q21 0 39.5 12t27.5 32z" />
    <glyph glyph-name="gbreve" unicode="&#x11f;" 
d="M424 -25l10 59q1 7 -6 10.5t-15 -1.5q-67 -43 -140 -43q-92 0 -146 65.5t-38 157.5q16 93 93.5 158.5t169.5 65.5q74 0 125 -43q5 -5 14 -2t10 11l2 14q4 20 24 20h29q8 0 13 -6t3 -14l-79 -452q-17 -92 -94 -157.5t-170 -65.5q-56 0 -99.5 26t-66.5 71q-7 14 12 25
l27 14q7 4 15.5 1.5t11.5 -8.5q37 -60 112 -60q65 0 118.5 45t64.5 109zM285 69q63 0 115 42.5t66 104.5q12 69 -24.5 115.5t-101.5 46.5q-64 0 -117.5 -45.5t-64.5 -109.5t26 -109t101 -45zM449 661q2 5 10 11t13 6h31q20 0 14 -21q-16 -46 -57.5 -77t-89.5 -31t-78.5 31
t-29.5 77q0 21 22 21h31q4 0 9.5 -6t6.5 -11q2 -20 16 -32t35 -12t39.5 12t27.5 32z" />
    <glyph glyph-name="Gdotaccent" unicode="&#x120;" 
d="M348 315q-8 0 -13 6t-4 14l4 25q4 20 24 20h185q8 0 13 -6t3 -14l-25 -146q-16 -88 -93 -151t-170 -63q-92 0 -146 62.5t-38 151.5l47 267q16 89 92 151.5t168 62.5q87 0 142 -57t47 -139q-2 -18 -22 -18h-29q-7 0 -13 5.5t-5 12.5q2 56 -35.5 93t-96.5 37
q-64 0 -116.5 -43.5t-62.5 -104.5l-47 -267q-11 -61 26 -104.5t101 -43.5t117.5 43t64.5 105l14 81q2 8 -3 14t-13 6h-116zM435 917q22 0 34.5 -15t8.5 -37q-4 -21 -21.5 -36t-39.5 -15q-21 0 -33.5 15t-8.5 36q4 22 21.5 37t38.5 15z" />
    <glyph glyph-name="gdotaccent" unicode="&#x121;" 
d="M424 -25l10 59q1 7 -6 10.5t-15 -1.5q-67 -43 -140 -43q-92 0 -146 65.5t-38 157.5q16 93 93.5 158.5t169.5 65.5q74 0 125 -43q5 -5 14 -2t10 11l2 14q4 20 24 20h29q8 0 13 -6t3 -14l-79 -452q-17 -92 -94 -157.5t-170 -65.5q-56 0 -99.5 26t-66.5 71q-7 14 12 25
l27 14q7 4 15.5 1.5t11.5 -8.5q37 -60 112 -60q65 0 118.5 45t64.5 109zM285 69q63 0 115 42.5t66 104.5q12 69 -24.5 115.5t-101.5 46.5q-64 0 -117.5 -45.5t-64.5 -109.5t26 -109t101 -45zM391 669q22 0 34.5 -15t8.5 -37q-4 -21 -21.5 -36t-39.5 -15q-21 0 -33.5 15
t-8.5 36q4 22 21.5 37t38.5 15z" />
    <glyph glyph-name="Gcommaaccent" unicode="&#x122;" 
d="M348 315q-8 0 -13 6t-4 14l4 25q4 20 24 20h185q8 0 13 -6t3 -14l-25 -146q-16 -88 -93 -151t-170 -63q-92 0 -146 62.5t-38 151.5l47 267q16 89 92 151.5t168 62.5q87 0 142 -57t47 -139q-2 -18 -22 -18h-29q-7 0 -13 5.5t-5 12.5q2 56 -35.5 93t-96.5 37
q-64 0 -116.5 -43.5t-62.5 -104.5l-47 -267q-11 -61 26 -104.5t101 -43.5t117.5 43t64.5 105l14 81q2 8 -3 14t-13 6h-116zM279 -263q-4 -20 -24 -20h-29q-8 0 -13 6t-3 14l16 94q2 10 -7 16q-22 15 -16 44q4 21 21.5 36t38.5 15q22 0 34.5 -15t8.5 -36z" />
    <glyph glyph-name="gcommaaccent" unicode="&#x123;" 
d="M352 737q4 20 23 20h29q9 0 14 -6t3 -14l-17 -94q0 -11 7 -16q22 -15 17 -44q-4 -21 -21.5 -36t-38.5 -15q-22 0 -34.5 15t-8.5 36zM424 -25l10 59q1 7 -6 10.5t-15 -1.5q-67 -43 -140 -43q-92 0 -146 65.5t-38 157.5q16 93 93.5 158.5t169.5 65.5q74 0 125 -43
q5 -5 14 -2t10 11l2 14q4 20 24 20h29q8 0 13 -6t3 -14l-79 -452q-17 -92 -94 -157.5t-170 -65.5q-56 0 -99.5 26t-66.5 71q-7 14 12 25l27 14q7 4 15.5 1.5t11.5 -8.5q37 -60 112 -60q65 0 118.5 45t64.5 109zM285 69q63 0 115 42.5t66 104.5q12 69 -24.5 115.5
t-101.5 46.5q-64 0 -117.5 -45.5t-64.5 -109.5t26 -109t101 -45z" />
    <glyph glyph-name="Hcircumflex" unicode="&#x124;" 
d="M600 695q8 0 13 -6t3 -14l-115 -655q-4 -20 -24 -20h-29q-8 0 -13 6t-3 14l48 275q2 8 -3 14t-13 6h-269q-20 0 -24 -20l-48 -275q-4 -20 -24 -20h-29q-8 0 -13 6t-3 14l115 655q4 20 24 20h29q8 0 13 -6t3 -14l-48 -275q-2 -8 3 -14t13 -6h269q20 0 24 20l48 275
q4 20 24 20h29zM301 801q-16 -14 -28 0l-17 21q-11 14 5 28l174 147q16 14 28 0l122 -147q11 -14 -5 -28l-25 -21q-16 -14 -28 0l-81 98q-12 14 -29 0z" />
    <glyph glyph-name="hcircumflex" unicode="&#x125;" 
d="M536 223l-35 -203q-4 -20 -24 -20h-29q-8 0 -13 6t-3 14l35 203q11 65 -26 110t-101 45q-62 0 -114.5 -43.5t-66.5 -105.5l-36 -209q-4 -20 -24 -20h-29q-8 0 -13 6t-3 14l115 655q4 20 24 20h29q8 0 13 -6t3 -14l-46 -262q-1 -8 6 -11t14 2q67 43 140 43q93 0 147 -65.5
t37 -158.5zM301 801q-16 -14 -28 0l-17 21q-11 14 5 28l174 147q16 14 28 0l122 -147q11 -14 -5 -28l-25 -21q-16 -14 -28 0l-81 98q-12 14 -29 0z" />
    <glyph glyph-name="hbar" unicode="&#x127;" 
d="M45 537q-8 0 -13 6t-4 14l5 25q4 20 23 20h80q20 0 24 20l9 53q4 20 24 20h29q8 0 13 -6t3 -14l-9 -53q-2 -8 3 -14t13 -6h80q8 0 13 -6t4 -14l-5 -25q-4 -20 -23 -20h-80q-20 0 -24 -20l-18 -104q-1 -8 6 -11t14 2q67 43 140 43q93 0 147 -65.5t37 -158.5l-35 -203
q-4 -20 -24 -20h-29q-8 0 -13 6t-3 14l35 203q11 65 -26 110t-101 45q-62 0 -114.5 -43.5t-66.5 -105.5l-36 -209q-4 -20 -24 -20h-29q-8 0 -13 6t-3 14l87 497q2 8 -3 14t-13 6h-80z" />
    <glyph glyph-name="Itilde" unicode="&#x128;" 
d="M181 629q-8 0 -13 6t-4 14l5 26q4 20 24 20h407q8 0 13 -6t3 -14l-5 -26q-4 -20 -23 -20h-151q-20 0 -24 -20l-92 -523q-1 -8 4 -14t13 -6h151q8 0 13 -6t3 -14l-4 -26q-4 -20 -24 -20h-407q-8 0 -13 6t-3 14l4 26q4 20 24 20h150q19 0 23 20l92 523q2 8 -3 14t-13 6
h-150zM398 859q-2 14 -16 21t-30 0q-30 -11 -28 -53q2 -11 -11 -17l-23 -8q-20 -7 -21 9q-6 36 13.5 70.5t58.5 48.5q37 13 70.5 -0.5t44.5 -50.5q5 -16 17.5 -23.5t26.5 -0.5q15 7 21.5 16t7.5 15.5t0 20.5q-2 12 12 18l23 8q21 9 23 -13q3 -39 -15 -72t-58 -46
q-36 -15 -70.5 -1.5t-45.5 58.5z" />
    <glyph glyph-name="itilde" unicode="&#x129;" 
d="M367 447q8 0 13 -6t3 -14l-59 -338q-2 -8 3 -14t13 -6h149q8 0 13 -6t4 -14l-5 -29q-4 -20 -24 -20h-407q-8 0 -13 6t-3 14l5 29q4 20 23 20h149q20 0 24 20l47 269q2 8 -3 14t-13 6h-101q-8 0 -13 6t-4 14l5 29q4 20 24 20h170zM355 611q-3 14 -17 21t-30 0
q-31 -12 -27 -53q0 -12 -12 -17l-23 -8q-18 -7 -21 9q-5 36 14.5 70.5t57.5 48.5q37 13 70.5 -0.5t44.5 -50.5q6 -16 18 -23t26 -1q21 10 26 21.5t3 30.5q0 13 13 18l22 8q21 8 23 -13q3 -39 -14.5 -72t-57.5 -46q-37 -15 -71 -1.5t-45 58.5z" />
    <glyph glyph-name="Imacron" unicode="&#x12a;" 
d="M181 629q-8 0 -13 6t-4 14l5 26q4 20 24 20h407q8 0 13 -6t3 -14l-5 -26q-4 -20 -23 -20h-151q-20 0 -24 -20l-92 -523q-1 -8 4 -14t13 -6h151q8 0 13 -6t3 -14l-4 -26q-4 -20 -24 -20h-407q-8 0 -13 6t-3 14l4 26q4 20 24 20h150q19 0 23 20l92 523q2 8 -3 14t-13 6
h-150zM288 845q-8 0 -13 6t-3 14l4 25q4 20 23 20h269q8 0 13 -6t4 -14l-4 -25q-4 -20 -24 -20h-269z" />
    <glyph glyph-name="imacron" unicode="&#x12b;" 
d="M367 447q8 0 13 -6t3 -14l-59 -338q-2 -8 3 -14t13 -6h149q8 0 13 -6t4 -14l-5 -29q-4 -20 -24 -20h-407q-8 0 -13 6t-3 14l5 29q4 20 23 20h149q20 0 24 20l47 269q2 8 -3 14t-13 6h-101q-8 0 -13 6t-4 14l5 29q4 20 24 20h170zM244 597q-8 0 -13 6t-3 14l4 25
q4 20 24 20h269q8 0 13 -6t3 -14l-4 -25q-4 -20 -24 -20h-269z" />
    <glyph glyph-name="Ibreve" unicode="&#x12c;" 
d="M181 629q-8 0 -13 6t-4 14l5 26q4 20 24 20h407q8 0 13 -6t3 -14l-5 -26q-4 -20 -23 -20h-151q-20 0 -24 -20l-92 -523q-1 -8 4 -14t13 -6h151q8 0 13 -6t3 -14l-4 -26q-4 -20 -24 -20h-407q-8 0 -13 6t-3 14l4 26q4 20 24 20h150q19 0 23 20l92 523q2 8 -3 14t-13 6
h-150zM493 909q2 5 10 11t12 6h31q21 0 15 -21q-16 -46 -57.5 -77t-89.5 -31t-78.5 31t-30.5 77q0 21 22 21h31q5 0 10.5 -6t6.5 -11q2 -20 15.5 -32t35.5 -12q21 0 39.5 12t27.5 32z" />
    <glyph glyph-name="ibreve" unicode="&#x12d;" 
d="M367 447q8 0 13 -6t3 -14l-59 -338q-2 -8 3 -14t13 -6h149q8 0 13 -6t4 -14l-5 -29q-4 -20 -24 -20h-407q-8 0 -13 6t-3 14l5 29q4 20 23 20h149q20 0 24 20l47 269q2 8 -3 14t-13 6h-101q-8 0 -13 6t-4 14l5 29q4 20 24 20h170zM449 661q2 5 10 11t13 6h31q20 0 14 -21
q-16 -46 -57.5 -77t-89.5 -31t-78.5 31t-29.5 77q0 21 22 21h31q4 0 9.5 -6t6.5 -11q2 -20 16 -32t35 -12t39.5 12t27.5 32z" />
    <glyph glyph-name="Iogonek" unicode="&#x12e;" 
d="M181 629q-8 0 -13 6t-4 14l5 26q4 20 24 20h407q8 0 13 -6t3 -14l-5 -26q-4 -20 -23 -20h-151q-20 0 -24 -20l-92 -523q-1 -8 4 -14t13 -6h151q8 0 13 -6t3 -14l-4 -26q-4 -20 -24 -20h-158q-7 0 -10 -3q-36 -16 -48.5 -51t7.5 -59t65 -14q17 3 21 -13l6 -28
q2 -9 -3.5 -16.5t-15.5 -8.5q-55 -12 -97.5 8.5t-54.5 69.5q-10 51 17 97q4 6 2 12t-9 6h-129q-8 0 -13 6t-3 14l4 26q4 20 24 20h150q19 0 23 20l92 523q2 8 -3 14t-13 6h-150z" />
    <glyph glyph-name="iogonek" unicode="&#x12f;" 
d="M367 447q8 0 13 -6t3 -14l-59 -338q-2 -8 3 -14t13 -6h149q8 0 13 -6t4 -14l-5 -29q-4 -20 -24 -20h-166q-7 0 -10 -3q-36 -16 -48.5 -51t7.5 -59t65 -14q17 3 21 -13l6 -28q2 -9 -3.5 -16.5t-15.5 -8.5q-55 -12 -97.5 8.5t-54.5 69.5q-10 51 17 97q4 6 2 12t-9 6h-121
q-8 0 -13 6t-3 14l5 29q4 20 23 20h149q20 0 24 20l47 269q2 8 -3 14t-13 6h-101q-8 0 -13 6t-4 14l5 29q4 20 24 20h170zM433 614q-4 -22 -21.5 -37t-39.5 -15q-21 0 -33.5 15t-8.5 37q4 21 21.5 36t38.5 15q22 0 34.5 -15t8.5 -36z" />
    <glyph glyph-name="Idotaccent" unicode="&#x130;" 
d="M181 629q-8 0 -13 6t-4 14l5 26q4 20 24 20h407q8 0 13 -6t3 -14l-5 -26q-4 -20 -23 -20h-151q-20 0 -24 -20l-92 -523q-1 -8 4 -14t13 -6h151q8 0 13 -6t3 -14l-4 -26q-4 -20 -24 -20h-407q-8 0 -13 6t-3 14l4 26q4 20 24 20h150q19 0 23 20l92 523q2 8 -3 14t-13 6
h-150zM435 917q22 0 34.5 -15t8.5 -37q-4 -21 -21.5 -36t-39.5 -15q-21 0 -33.5 15t-8.5 36q4 22 21.5 37t38.5 15z" />
    <glyph glyph-name="dotlessi" unicode="&#x131;" 
d="M367 447q8 0 13 -6t3 -14l-59 -338q-2 -8 3 -14t13 -6h149q8 0 13 -6t4 -14l-5 -29q-4 -20 -24 -20h-407q-8 0 -13 6t-3 14l5 29q4 20 23 20h149q20 0 24 20l47 269q2 8 -3 14t-13 6h-101q-8 0 -13 6t-4 14l5 29q4 20 24 20h170z" />
    <glyph glyph-name="Jcircumflex" unicode="&#x134;" 
d="M600 695q8 0 13 -6t3 -14l-81 -461q-15 -87 -97.5 -150.5t-172.5 -63.5q-65 0 -113 27t-72 71q-11 18 10 29l25 13q6 4 15 1.5t12 -7.5q20 -29 56.5 -48.5t78.5 -19.5q63 0 120.5 44t68.5 104l69 395q2 8 -3 14t-13 6h-237q-8 0 -13 6t-4 14l5 26q4 20 24 20h306z
M301 801q-16 -14 -28 0l-17 21q-11 14 5 28l174 147q16 14 28 0l122 -147q11 -14 -5 -28l-25 -21q-16 -14 -28 0l-81 98q-12 14 -29 0z" />
    <glyph glyph-name="jcircumflex" unicode="&#x135;" 
d="M234 378q-8 0 -13 6t-4 14l5 29q4 20 24 20h281q8 0 13 -6t3 -14l-79 -452q-16 -93 -94 -158.5t-170 -65.5q-56 0 -100 26t-67 71q-7 14 12 25l28 14q17 9 27 -7q35 -60 112 -60q64 0 117.5 45.5t65.5 109.5l67 383q2 8 -3 14t-13 6h-212zM258 553q-17 -14 -29 0l-17 21
q-11 14 5 28l174 147q7 6 15 6t13 -6l122 -147q11 -14 -5 -28l-24 -21q-17 -14 -29 0l-81 98q-12 14 -28 0z" />
    <glyph glyph-name="Kcommaaccent" unicode="&#x136;" 
d="M221 695q8 0 13 -6t3 -14l-48 -275q-2 -8 3 -14t13 -6h113q13 0 20 11l204 293q7 11 20 11h24q13 0 17 -9.5t-4 -19.5l-215 -306q-6 -8 -3 -18l106 -313q4 -10 -3.5 -19.5t-19.5 -9.5h-25q-12 0 -16 11l-98 292q-4 11 -16 11h-116q-19 0 -23 -20l-48 -274q-4 -20 -24 -20
h-28q-8 0 -13 6t-3 14l115 655q4 20 24 20h28zM279 -263q-4 -20 -24 -20h-29q-8 0 -13 6t-3 14l16 94q2 10 -7 16q-22 15 -16 44q4 21 21.5 36t38.5 15q22 0 34.5 -15t8.5 -36z" />
    <glyph glyph-name="kcommaaccent" unicode="&#x137;" 
d="M528 447q13 0 14.5 -11t-9.5 -19l-166 -116q-18 -13 -9 -27l123 -243q5 -11 -2 -21t-20 -10h-29q-10 0 -15 9l-111 223q-4 8 -12 9t-16 -5l-123 -86q-10 -8 -10 -16l-20 -114q-4 -20 -24 -20h-29q-8 0 -13 6t-3 14l115 655q4 20 24 20h29q8 0 13 -6t3 -14l-72 -408
q-2 -13 8 -18.5t22 2.5l279 192q8 4 13 4h40zM279 -263q-4 -20 -24 -20h-29q-8 0 -13 6t-3 14l16 94q2 10 -7 16q-22 15 -16 44q4 21 21.5 36t38.5 15q22 0 34.5 -15t8.5 -36z" />
    <glyph glyph-name="Lacute" unicode="&#x139;" 
d="M70 0q-8 0 -13 6t-3 14l115 655q4 20 24 20h29q8 0 13 -6t3 -14l-104 -589q-1 -8 4 -14t13 -6h338q8 0 13 -6t3 -14l-4 -26q-4 -20 -24 -20h-407zM358 761q-16 -14 -28 0l-17 21q-11 14 5 28l174 147q16 14 28 0l17 -21q11 -14 -5 -28z" />
    <glyph glyph-name="lacute" unicode="&#x13a;" 
d="M489 69q8 0 13 -6t4 -14l-5 -29q-4 -20 -24 -20h-407q-8 0 -13 6t-3 14l5 29q4 20 23 20h149q20 0 24 20l91 520q2 8 -3 14t-13 6h-80q-8 0 -13 6t-4 14l5 26q4 20 24 20h149q8 0 13 -6t3 -14l-103 -586q-2 -8 3 -14t13 -6h149zM358 761q-16 -14 -28 0l-17 21
q-11 14 5 28l174 147q16 14 28 0l17 -21q11 -14 -5 -28z" />
    <glyph glyph-name="Lcommaaccent" unicode="&#x13b;" 
d="M70 0q-8 0 -13 6t-3 14l115 655q4 20 24 20h29q8 0 13 -6t3 -14l-104 -589q-1 -8 4 -14t13 -6h338q8 0 13 -6t3 -14l-4 -26q-4 -20 -24 -20h-407zM279 -263q-4 -20 -24 -20h-29q-8 0 -13 6t-3 14l16 94q2 10 -7 16q-22 15 -16 44q4 21 21.5 36t38.5 15q22 0 34.5 -15
t8.5 -36z" />
    <glyph glyph-name="lcommaaccent" unicode="&#x13c;" 
d="M489 69q8 0 13 -6t4 -14l-5 -29q-4 -20 -24 -20h-407q-8 0 -13 6t-3 14l5 29q4 20 23 20h149q20 0 24 20l91 520q2 8 -3 14t-13 6h-80q-8 0 -13 6t-4 14l5 26q4 20 24 20h149q8 0 13 -6t3 -14l-103 -586q-2 -8 3 -14t13 -6h149zM279 -263q-4 -20 -24 -20h-29q-8 0 -13 6
t-3 14l16 94q2 10 -7 16q-22 15 -16 44q4 21 21.5 36t38.5 15q22 0 34.5 -15t8.5 -36z" />
    <glyph glyph-name="Lcaron" unicode="&#x13d;" 
d="M489 66q8 0 13 -6t3 -14l-4 -26q-4 -20 -24 -20h-407q-8 0 -13 6t-3 14l115 655q4 20 24 20h29q8 0 13 -6t3 -14l-104 -589q-1 -8 4 -14t13 -6h338zM89 948q-11 14 5 28l25 21q16 14 28 0l81 -98q12 -14 29 0l116 98q16 14 28 0l17 -21q11 -14 -5 -28l-174 -147
q-16 -14 -28 0z" />
    <glyph glyph-name="lcaron" unicode="&#x13e;" 
d="M489 69q8 0 13 -6t4 -14l-5 -29q-4 -20 -24 -20h-407q-8 0 -13 6t-3 14l5 29q4 20 23 20h149q20 0 24 20l91 520q2 8 -3 14t-13 6h-80q-8 0 -13 6t-4 14l5 26q4 20 24 20h149q8 0 13 -6t3 -14l-103 -586q-2 -8 3 -14t13 -6h149zM589 519q-4 -20 -24 -20h-29q-8 0 -13 6
t-3 14l16 94q2 10 -7 16q-22 15 -16 44q4 21 21.5 36t38.5 15q22 0 34.5 -15t8.5 -36z" />
    <glyph glyph-name="Ldot" unicode="&#x13f;" 
d="M70 0q-8 0 -13 6t-3 14l115 655q4 20 24 20h29q8 0 13 -6t3 -14l-104 -589q-1 -8 4 -14t13 -6h338q8 0 13 -6t3 -14l-4 -26q-4 -20 -24 -20h-407zM436 434q22 0 34 -15t8 -37q-4 -21 -21.5 -36t-39.5 -15q-21 0 -33.5 15t-8.5 36q4 22 22 37t39 15z" />
    <glyph glyph-name="ldot" unicode="&#x140;" 
d="M489 69q8 0 13 -6t4 -14l-5 -29q-4 -20 -24 -20h-407q-8 0 -13 6t-3 14l5 29q4 20 23 20h149q20 0 24 20l91 520q2 8 -3 14t-13 6h-80q-8 0 -13 6t-4 14l5 26q4 20 24 20h149q8 0 13 -6t3 -14l-103 -586q-2 -8 3 -14t13 -6h149zM565 669q22 0 34.5 -15t8.5 -37
q-4 -21 -21.5 -36t-39.5 -15q-21 0 -33.5 15t-8.5 36q4 22 21.5 37t38.5 15z" />
    <glyph glyph-name="Lslash" unicode="&#x141;" 
d="M70 0q-8 0 -13 6t-3 14l24 141q2 13 -6.5 18.5t-20.5 -0.5l-39 -21q-8 -4 -15.5 -2t-10.5 9l-9 22q-3 7 0.5 15t11.5 12l98 51q11 7 13 18l69 392q4 20 24 20h29q8 0 13 -6t3 -14l-58 -329q-2 -13 6.5 -18.5t20.5 0.5l39 21q18 10 26 -7l9 -22q3 -7 -0.5 -15t-11.5 -12
l-97 -51q-11 -5 -13 -18l-25 -138q-1 -8 4 -14t13 -6h338q8 0 13 -6t3 -14l-4 -26q-4 -20 -24 -20h-407z" />
    <glyph glyph-name="lslash" unicode="&#x142;" 
d="M201 158q-8 -4 -15.5 -2t-10.5 9l-9 22q-3 7 0.5 15t11.5 12l98 51q11 7 13 18l57 326q2 8 -3 14t-13 6h-80q-8 0 -13 6t-4 14l5 26q4 20 24 20h149q8 0 13 -6t3 -14l-58 -329q-2 -13 6.5 -18.5t20.5 0.5l39 21q18 10 26 -7l9 -22q3 -7 -0.5 -15t-11.5 -12l-97 -51
q-11 -5 -13 -18l-24 -135q-2 -8 3 -14t13 -6h149q8 0 13 -6t4 -14l-5 -29q-4 -20 -24 -20h-407q-8 0 -13 6t-3 14l5 29q4 20 23 20h149q20 0 24 20l12 72q2 13 -6.5 18.5t-20.5 -0.5z" />
    <glyph glyph-name="Nacute" unicode="&#x143;" 
d="M547 675q4 20 24 20h29q8 0 13 -6t3 -14l-115 -655q-4 -20 -24 -20h-37q-12 0 -16 10l-179 490q-5 14 -21 10t-19 -20l-82 -470q-4 -20 -24 -20h-29q-8 0 -13 6t-3 14l115 655q4 20 24 20h37q13 0 15 -10l181 -484q5 -14 21 -10t18 20zM358 761q-16 -14 -28 0l-17 21
q-11 14 5 28l174 147q16 14 28 0l17 -21q11 -14 -5 -28z" />
    <glyph glyph-name="nacute" unicode="&#x144;" 
d="M352 447q93 0 147 -65.5t37 -158.5l-35 -203q-4 -20 -24 -20h-29q-8 0 -13 6t-3 14l35 203q11 65 -26 110t-101 45t-117.5 -45t-64.5 -109l-35 -204q-4 -20 -24 -20h-29q-8 0 -13 6t-3 14l71 407q4 20 24 20h29q8 0 13 -6t3 -14l-2 -14q-1 -8 6 -11t14 2q67 43 140 43z
M315 513q-17 -14 -29 0l-17 21q-11 14 5 28l174 147q7 6 15 6t13 -6l17 -21q12 -13 -5 -28z" />
    <glyph glyph-name="Ncommaaccent" unicode="&#x145;" 
d="M547 675q4 20 24 20h29q8 0 13 -6t3 -14l-115 -655q-4 -20 -24 -20h-37q-12 0 -16 10l-179 490q-5 14 -21 10t-19 -20l-82 -470q-4 -20 -24 -20h-29q-8 0 -13 6t-3 14l115 655q4 20 24 20h37q13 0 15 -10l181 -484q5 -14 21 -10t18 20zM279 -263q-4 -20 -24 -20h-29
q-8 0 -13 6t-3 14l16 94q2 10 -7 16q-22 15 -16 44q4 21 21.5 36t38.5 15q22 0 34.5 -15t8.5 -36z" />
    <glyph glyph-name="ncommaaccent" unicode="&#x146;" 
d="M352 447q93 0 147 -65.5t37 -158.5l-35 -203q-4 -20 -24 -20h-29q-8 0 -13 6t-3 14l35 203q11 65 -26 110t-101 45t-117.5 -45t-64.5 -109l-35 -204q-4 -20 -24 -20h-29q-8 0 -13 6t-3 14l71 407q4 20 24 20h29q8 0 13 -6t3 -14l-2 -14q-1 -8 6 -11t14 2q67 43 140 43z
M279 -263q-4 -20 -24 -20h-29q-8 0 -13 6t-3 14l16 94q2 10 -7 16q-22 15 -16 44q4 21 21.5 36t38.5 15q22 0 34.5 -15t8.5 -36z" />
    <glyph glyph-name="Ncaron" unicode="&#x147;" 
d="M547 675q4 20 24 20h29q8 0 13 -6t3 -14l-115 -655q-4 -20 -24 -20h-37q-12 0 -16 10l-179 490q-5 14 -21 10t-19 -20l-82 -470q-4 -20 -24 -20h-29q-8 0 -13 6t-3 14l115 655q4 20 24 20h37q13 0 15 -10l181 -484q5 -14 21 -10t18 20zM278 948q-11 14 5 28l25 21
q16 14 28 0l81 -98q12 -14 29 0l116 98q16 14 28 0l17 -21q11 -14 -5 -28l-174 -147q-16 -14 -28 0z" />
    <glyph glyph-name="ncaron" unicode="&#x148;" 
d="M352 447q93 0 147 -65.5t37 -158.5l-35 -203q-4 -20 -24 -20h-29q-8 0 -13 6t-3 14l35 203q11 65 -26 110t-101 45t-117.5 -45t-64.5 -109l-35 -204q-4 -20 -24 -20h-29q-8 0 -13 6t-3 14l71 407q4 20 24 20h29q8 0 13 -6t3 -14l-2 -14q-1 -8 6 -11t14 2q67 43 140 43z
M235 700q-12 14 5 28l24 21q7 6 15 6t13 -6l82 -98q4 -6 12.5 -6t15.5 6l116 98q7 6 15.5 6t12.5 -6l17 -21q12 -13 -5 -28l-173 -147q-17 -14 -29 0z" />
    <glyph glyph-name="napostrophe" unicode="&#x149;" 
d="M352 447q93 0 147 -65.5t37 -158.5l-35 -203q-4 -20 -24 -20h-29q-8 0 -13 6t-3 14l35 203q11 65 -26 110t-101 45t-117.5 -45t-64.5 -109l-35 -204q-4 -20 -24 -20h-29q-8 0 -13 6t-3 14l71 407q4 20 24 20h29q8 0 13 -6t3 -14l-2 -14q-1 -8 6 -11t14 2q67 43 140 43z
M228 617q-4 -20 -24 -20h-29q-8 0 -13 6t-3 14l16 94q2 10 -7 16q-21 14 -16 44q4 21 21.5 36t38.5 15q22 0 34.5 -15t8.5 -36z" />
    <glyph glyph-name="Eng" unicode="&#x14a;" 
d="M600 695q8 0 13 -6t3 -14l-125 -709q-15 -87 -97.5 -150.5t-172.5 -63.5q-65 0 -112.5 27t-72.5 71q-11 18 10 29l25 13q7 4 15.5 1.5t11.5 -7.5q20 -29 56.5 -48.5t78.5 -19.5q63 0 121 44t68 104l5 29q0 8 -1 9l-181 496q-5 14 -21 10t-19 -20l-82 -470q-4 -20 -24 -20
h-29q-8 0 -13 6t-3 14l115 655q4 20 24 20h37q13 0 15 -10l181 -484q5 -14 21 -10t18 20l82 464q4 20 24 20h29z" />
    <glyph glyph-name="eng" unicode="&#x14b;" 
d="M536 223l-43 -247q-16 -93 -94 -158.5t-170 -65.5q-56 0 -100 26t-67 71q-7 14 12 25l28 14q7 4 15.5 1.5t11.5 -8.5q35 -60 112 -60q64 0 118 45.5t65 109.5l44 253q8 63 -28.5 106t-99.5 43q-64 0 -117.5 -45t-64.5 -109l-35 -204q-4 -20 -24 -20h-29q-8 0 -13 6t-3 14
l71 407q4 20 24 20h29q8 0 13 -6t3 -14l-2 -14q-1 -8 6 -11t14 2q67 43 140 43q93 0 147 -65.5t37 -158.5z" />
    <glyph glyph-name="Omacron" unicode="&#x14c;" 
d="M582 481l-47 -268q-16 -88 -95 -151t-169 -63q-89 0 -144 63t-39 151l47 268q16 88 93 151t166 63q90 0 147 -63t41 -151zM466 213l47 268q10 61 -29.5 104.5t-101.5 43.5t-115 -43.5t-63 -104.5l-47 -268q-11 -61 26 -104.5t99 -43.5t117.5 43.5t66.5 104.5zM288 845
q-8 0 -13 6t-3 14l4 25q4 20 23 20h269q8 0 13 -6t4 -14l-4 -25q-4 -20 -24 -20h-269z" />
    <glyph glyph-name="omacron" unicode="&#x14d;" 
d="M352 447q93 0 147 -65.5t37 -158.5q-16 -92 -93 -157.5t-170 -65.5q-92 0 -146 65.5t-38 157.5q16 93 93.5 158.5t169.5 65.5zM285 69q64 0 117.5 45t64.5 109q11 65 -26 110t-101 45t-117.5 -45.5t-64.5 -109.5t26 -109t101 -45zM244 597q-8 0 -13 6t-3 14l4 25
q4 20 24 20h269q8 0 13 -6t3 -14l-4 -25q-4 -20 -24 -20h-269z" />
    <glyph glyph-name="Obreve" unicode="&#x14e;" 
d="M582 481l-47 -268q-16 -88 -95 -151t-169 -63q-89 0 -144 63t-39 151l47 268q16 88 93 151t166 63q90 0 147 -63t41 -151zM466 213l47 268q10 61 -29.5 104.5t-101.5 43.5t-115 -43.5t-63 -104.5l-47 -268q-11 -61 26 -104.5t99 -43.5t117.5 43.5t66.5 104.5zM493 909
q2 5 10 11t12 6h31q21 0 15 -21q-16 -46 -57.5 -77t-89.5 -31t-78.5 31t-30.5 77q0 21 22 21h31q5 0 10.5 -6t6.5 -11q2 -20 15.5 -32t35.5 -12q21 0 39.5 12t27.5 32z" />
    <glyph glyph-name="Ohungarumlaut" unicode="&#x150;" 
d="M582 481l-47 -268q-16 -88 -95 -151t-169 -63q-89 0 -144 63t-39 151l47 268q16 88 93 151t166 63q90 0 147 -63t41 -151zM466 213l47 268q10 61 -29.5 104.5t-101.5 43.5t-115 -43.5t-63 -104.5l-47 -268q-11 -61 26 -104.5t99 -43.5t117.5 43.5t66.5 104.5zM337 781
q-7 -6 -15 -6t-13 6l-17 21q-12 14 5 28l173 147q7 6 15.5 6t12.5 -6l17 -21q12 -14 -5 -28zM547 781q-7 -6 -15 -6t-13 6l-17 21q-12 14 5 28l173 147q7 6 15.5 6t12.5 -6l17 -21q12 -14 -5 -28z" />
    <glyph glyph-name="ohungarumlaut" unicode="&#x151;" 
d="M352 447q93 0 147 -65.5t37 -158.5q-16 -92 -93 -157.5t-170 -65.5q-92 0 -146 65.5t-38 157.5q16 93 93.5 158.5t169.5 65.5zM285 69q64 0 117.5 45t64.5 109q11 65 -26 110t-101 45t-117.5 -45.5t-64.5 -109.5t26 -109t101 -45zM275 543q-7 -6 -15.5 -6t-12.5 6l-17 21
q-12 14 5 28l173 147q7 6 15 6t13 -6l17 -21q12 -14 -5 -28zM485 543q-7 -6 -15.5 -6t-12.5 6l-17 21q-12 14 5 28l173 147q7 6 15.5 6t12.5 -6l17 -21q12 -14 -5 -28z" />
    <glyph glyph-name="OE" unicode="&#x152;" 
d="M88 213l47 268q16 88 94 151t167 63h204q8 0 13 -6t3 -14l-5 -26q-4 -20 -23 -20h-115q-20 0 -24 -20l-36 -209q-2 -8 3 -14t13 -6h46q8 0 13 -6t3 -14l-4 -25q-4 -20 -23 -20h-46q-20 0 -24 -20l-36 -206q-2 -8 3 -14t13 -6h115q8 0 13 -6t4 -14l-5 -29q-4 -20 -24 -20
h-204q-89 0 -145 62.5t-40 150.5zM267 70q19 -2 22 19l91 520q2 9 -1.5 14.5t-13.5 4.5q-57 -7 -104 -49t-57 -98l-47 -268q-10 -56 22 -96.5t88 -46.5z" />
    <glyph glyph-name="oe" unicode="&#x153;" 
d="M454 113q5 7 14 10t15 0l12 -7q15 -9 6 -22q-26 -43 -60.5 -68.5t-64.5 -25.5q-60 0 -80 55q-3 6 -12.5 6t-13.5 -6q-39 -55 -100 -55q-51 0 -74 65t-7 158q17 94 64.5 159t103.5 65q55 0 73 -56q2 -6 11 -6t14 6q38 56 92 56q36 0 59 -25t30 -63.5t6 -77.5t-9 -73
q-1 -8 -7.5 -13.5t-14.5 -5.5l-149 2q-21 0 -23 -20q-4 -45 9.5 -73.5t39.5 -28.5q35 0 66 44zM190 69q25 0 51 44t37 110q12 67 2 111.5t-35 44.5t-50 -45.5t-37 -110.5q-11 -64 -2 -109t34 -45zM358 279q-5 -20 16 -20h80q20 0 22 20q4 42 -9 69.5t-33 27.5t-42 -27.5
t-34 -69.5z" />
    <glyph glyph-name="Racute" unicode="&#x154;" 
d="M169 675q4 20 24 20h213q87 0 139.5 -62.5t36.5 -149.5q-11 -63 -55.5 -115.5t-105.5 -77.5q-9 -3 -15.5 -13t-3.5 -18l84 -229q4 -11 -3 -20.5t-20 -9.5h-32q-12 0 -16 10l-92 252q-4 10 -16 10h-120q-20 0 -24 -20l-40 -232q-4 -20 -24 -20h-29q-8 0 -13 6t-3 14z
M394 629h-144q-20 0 -24 -20l-44 -251q-1 -8 4 -14t13 -6h144q60 0 109.5 42.5t60.5 102.5q10 61 -24.5 103.5t-94.5 42.5zM358 761q-16 -14 -28 0l-17 21q-11 14 5 28l174 147q16 14 28 0l17 -21q11 -14 -5 -28z" />
    <glyph glyph-name="racute" unicode="&#x155;" 
d="M454 378q-64 0 -117.5 -45t-64.5 -109l-23 -135q-2 -8 3 -14t13 -6h127q8 0 13 -6t4 -14l-5 -29q-4 -20 -24 -20h-310q-8 0 -13 6t-3 14l5 29q4 20 23 20h74q20 0 24 20l47 269q2 8 -3 14t-13 6h-74q-8 0 -13 6t-4 14l5 29q4 20 24 20h143q8 0 13 -6t3 -14l-2 -14
q-1 -8 6 -11t14 2q67 43 140 43q49 0 89 -20q15 -9 4 -25l-24 -33q-8 -10 -19 -5q-26 14 -62 14zM315 513q-17 -14 -29 0l-17 21q-11 14 5 28l174 147q7 6 15 6t13 -6l17 -21q12 -13 -5 -28z" />
    <glyph glyph-name="Rcommaaccent" unicode="&#x156;" 
d="M169 675q4 20 24 20h213q87 0 139.5 -62.5t36.5 -149.5q-11 -63 -55.5 -115.5t-105.5 -77.5q-9 -3 -15.5 -13t-3.5 -18l84 -229q4 -11 -3 -20.5t-20 -9.5h-32q-12 0 -16 10l-92 252q-4 10 -16 10h-120q-20 0 -24 -20l-40 -232q-4 -20 -24 -20h-29q-8 0 -13 6t-3 14z
M394 629h-144q-20 0 -24 -20l-44 -251q-1 -8 4 -14t13 -6h144q60 0 109.5 42.5t60.5 102.5q10 61 -24.5 103.5t-94.5 42.5zM279 -263q-4 -20 -24 -20h-29q-8 0 -13 6t-3 14l16 94q2 10 -7 16q-22 15 -16 44q4 21 21.5 36t38.5 15q22 0 34.5 -15t8.5 -36z" />
    <glyph glyph-name="rcommaaccent" unicode="&#x157;" 
d="M454 378q-64 0 -117.5 -45t-64.5 -109l-23 -135q-2 -8 3 -14t13 -6h127q8 0 13 -6t4 -14l-5 -29q-4 -20 -24 -20h-310q-8 0 -13 6t-3 14l5 29q4 20 23 20h74q20 0 24 20l47 269q2 8 -3 14t-13 6h-74q-8 0 -13 6t-4 14l5 29q4 20 24 20h143q8 0 13 -6t3 -14l-2 -14
q-1 -8 6 -11t14 2q67 43 140 43q49 0 89 -20q15 -9 4 -25l-24 -33q-8 -10 -19 -5q-26 14 -62 14zM279 -263q-4 -20 -24 -20h-29q-8 0 -13 6t-3 14l16 94q2 10 -7 16q-22 15 -16 44q4 21 21.5 36t38.5 15q22 0 34.5 -15t8.5 -36z" />
    <glyph glyph-name="Rcaron" unicode="&#x158;" 
d="M169 675q4 20 24 20h213q87 0 139.5 -62.5t36.5 -149.5q-11 -63 -55.5 -115.5t-105.5 -77.5q-9 -3 -15.5 -13t-3.5 -18l84 -229q4 -11 -3 -20.5t-20 -9.5h-32q-12 0 -16 10l-92 252q-4 10 -16 10h-120q-20 0 -24 -20l-40 -232q-4 -20 -24 -20h-29q-8 0 -13 6t-3 14z
M394 629h-144q-20 0 -24 -20l-44 -251q-1 -8 4 -14t13 -6h144q60 0 109.5 42.5t60.5 102.5q10 61 -24.5 103.5t-94.5 42.5zM278 948q-11 14 5 28l25 21q16 14 28 0l81 -98q12 -14 29 0l116 98q16 14 28 0l17 -21q11 -14 -5 -28l-174 -147q-16 -14 -28 0z" />
    <glyph glyph-name="rcaron" unicode="&#x159;" 
d="M454 378q-64 0 -117.5 -45t-64.5 -109l-23 -135q-2 -8 3 -14t13 -6h127q8 0 13 -6t4 -14l-5 -29q-4 -20 -24 -20h-310q-8 0 -13 6t-3 14l5 29q4 20 23 20h74q20 0 24 20l47 269q2 8 -3 14t-13 6h-74q-8 0 -13 6t-4 14l5 29q4 20 24 20h143q8 0 13 -6t3 -14l-2 -14
q-1 -8 6 -11t14 2q67 43 140 43q49 0 89 -20q15 -9 4 -25l-24 -33q-8 -10 -19 -5q-26 14 -62 14zM235 700q-12 14 5 28l24 21q7 6 15 6t13 -6l82 -98q4 -6 12.5 -6t15.5 6l116 98q7 6 15.5 6t12.5 -6l17 -21q12 -13 -5 -28l-173 -147q-17 -14 -29 0z" />
    <glyph glyph-name="Sacute" unicode="&#x15a;" 
d="M339 380q93 -14 149 -64.5t43 -125.5q-14 -79 -91 -134.5t-168 -55.5q-83 0 -138 48.5t-53 119.5q1 9 7.5 16t15.5 7h29q6 0 12 -7t6 -13q2 -44 40 -74t93 -30q63 0 115.5 36t62.5 87q8 49 -31.5 82t-103.5 42q-91 13 -146.5 64t-41.5 126q14 79 90 135t166 56
q83 0 139 -48.5t54 -119.5q0 -9 -6.5 -16t-15.5 -7h-29q-6 0 -12 7t-7 13q-1 45 -40 75t-95 30q-62 0 -114 -37t-61 -88q-9 -49 29.5 -82t101.5 -42zM358 761q-16 -14 -28 0l-17 21q-11 14 5 28l174 147q16 14 28 0l17 -21q11 -14 -5 -28z" />
    <glyph glyph-name="sacute" unicode="&#x15b;" 
d="M318 257q112 0 161.5 -36.5t39.5 -94.5q-9 -52 -80.5 -89t-165.5 -37q-81 0 -138.5 30.5t-62.5 75.5q-3 20 20 20h31q3 0 10 -6t9 -9q9 -21 48.5 -34.5t93.5 -13.5q65 0 113.5 18.5t53.5 44.5q3 19 -6.5 32t-44 22t-94.5 9q-110 0 -160 36t-40 91q10 54 82.5 92.5
t163.5 38.5q85 0 141 -31t61 -79q2 -21 -21 -21h-31q-3 0 -10 6t-9 9q-9 22 -48.5 37.5t-93.5 15.5q-64 0 -113 -21t-54 -47q-3 -16 7.5 -28.5t45 -21.5t91.5 -9zM315 513q-17 -14 -29 0l-17 21q-11 14 5 28l174 147q7 6 15 6t13 -6l17 -21q12 -13 -5 -28z" />
    <glyph glyph-name="Scircumflex" unicode="&#x15c;" 
d="M339 380q93 -14 149 -64.5t43 -125.5q-14 -79 -91 -134.5t-168 -55.5q-83 0 -138 48.5t-53 119.5q1 9 7.5 16t15.5 7h29q6 0 12 -7t6 -13q2 -44 40 -74t93 -30q63 0 115.5 36t62.5 87q8 49 -31.5 82t-103.5 42q-91 13 -146.5 64t-41.5 126q14 79 90 135t166 56
q83 0 139 -48.5t54 -119.5q0 -9 -6.5 -16t-15.5 -7h-29q-6 0 -12 7t-7 13q-1 45 -40 75t-95 30q-62 0 -114 -37t-61 -88q-9 -49 29.5 -82t101.5 -42zM301 801q-16 -14 -28 0l-17 21q-11 14 5 28l174 147q16 14 28 0l122 -147q11 -14 -5 -28l-25 -21q-16 -14 -28 0l-81 98
q-12 14 -29 0z" />
    <glyph glyph-name="scircumflex" unicode="&#x15d;" 
d="M318 257q112 0 161.5 -36.5t39.5 -94.5q-9 -52 -80.5 -89t-165.5 -37q-81 0 -138.5 30.5t-62.5 75.5q-3 20 20 20h31q3 0 10 -6t9 -9q9 -21 48.5 -34.5t93.5 -13.5q65 0 113.5 18.5t53.5 44.5q3 19 -6.5 32t-44 22t-94.5 9q-110 0 -160 36t-40 91q10 54 82.5 92.5
t163.5 38.5q85 0 141 -31t61 -79q2 -21 -21 -21h-31q-3 0 -10 6t-9 9q-9 22 -48.5 37.5t-93.5 15.5q-64 0 -113 -21t-54 -47q-3 -16 7.5 -28.5t45 -21.5t91.5 -9zM258 553q-17 -14 -29 0l-17 21q-11 14 5 28l174 147q7 6 15 6t13 -6l122 -147q11 -14 -5 -28l-24 -21
q-17 -14 -29 0l-81 98q-12 14 -28 0z" />
    <glyph glyph-name="Scedilla" unicode="&#x15e;" 
d="M339 380q93 -14 149 -64.5t43 -125.5q-10 -58 -57 -105t-112 -70q-7 -2 -10 -10.5t-1 -14.5q16 -48 -14 -105q-30 -49 -80 -69.5t-100 -8.5q-9 2 -12 9t2 16l16 28q9 17 25 13q42 -9 71 16t27.5 60t-35.5 50q-5 2 -6 2q-73 8 -119.5 55t-44.5 113q2 22 23 22h29
q6 0 12 -7t6 -13q2 -44 40 -74t93 -30q63 0 115.5 36t62.5 87q8 49 -31.5 82t-103.5 42q-91 13 -146.5 64t-41.5 126q14 79 90 135t166 56q83 0 139 -48.5t54 -119.5q0 -9 -6.5 -16t-15.5 -7h-29q-6 0 -12 7t-7 13q-1 45 -40 75t-95 30q-62 0 -114 -37t-61 -88
q-9 -49 29.5 -82t101.5 -42z" />
    <glyph glyph-name="scedilla" unicode="&#x15f;" 
d="M318 257q112 0 161.5 -36.5t39.5 -94.5q-7 -38 -49.5 -70t-104.5 -46q-7 -1 -11 -9t-2 -14q14 -47 -15 -102q-30 -49 -80 -69.5t-100 -8.5q-9 2 -12 9t2 16l16 28q9 17 25 13q41 -9 70 15.5t28 59.5t-33 51q-1 0 -3 1t-3 1q-72 4 -121.5 34.5t-53.5 71.5q-1 10 4 14.5
t16 4.5h31q3 0 10 -6t9 -9q9 -21 48.5 -34.5t93.5 -13.5q65 0 113.5 18.5t53.5 44.5q3 19 -6.5 32t-44 22t-94.5 9q-110 0 -160 36t-40 91q10 54 82.5 92.5t163.5 38.5q85 0 141 -31t61 -79q2 -21 -21 -21h-31q-3 0 -10 6t-9 9q-9 22 -48.5 37.5t-93.5 15.5q-64 0 -113 -21
t-54 -47q-3 -16 7.5 -28.5t45 -21.5t91.5 -9z" />
    <glyph glyph-name="Scaron" unicode="&#x160;" 
d="M339 380q93 -14 149 -64.5t43 -125.5q-14 -79 -91 -134.5t-168 -55.5q-83 0 -138 48.5t-53 119.5q1 9 7.5 16t15.5 7h29q6 0 12 -7t6 -13q2 -44 40 -74t93 -30q63 0 115.5 36t62.5 87q8 49 -31.5 82t-103.5 42q-91 13 -146.5 64t-41.5 126q14 79 90 135t166 56
q83 0 139 -48.5t54 -119.5q0 -9 -6.5 -16t-15.5 -7h-29q-6 0 -12 7t-7 13q-1 45 -40 75t-95 30q-62 0 -114 -37t-61 -88q-9 -49 29.5 -82t101.5 -42zM278 948q-11 14 5 28l25 21q16 14 28 0l81 -98q12 -14 29 0l116 98q16 14 28 0l17 -21q11 -14 -5 -28l-174 -147
q-16 -14 -28 0z" />
    <glyph glyph-name="scaron" unicode="&#x161;" 
d="M318 257q112 0 161.5 -36.5t39.5 -94.5q-9 -52 -80.5 -89t-165.5 -37q-81 0 -138.5 30.5t-62.5 75.5q-3 20 20 20h31q3 0 10 -6t9 -9q9 -21 48.5 -34.5t93.5 -13.5q65 0 113.5 18.5t53.5 44.5q3 19 -6.5 32t-44 22t-94.5 9q-110 0 -160 36t-40 91q10 54 82.5 92.5
t163.5 38.5q85 0 141 -31t61 -79q2 -21 -21 -21h-31q-3 0 -10 6t-9 9q-9 22 -48.5 37.5t-93.5 15.5q-64 0 -113 -21t-54 -47q-3 -16 7.5 -28.5t45 -21.5t91.5 -9zM235 700q-12 14 5 28l24 21q7 6 15 6t13 -6l82 -98q4 -6 12.5 -6t15.5 6l116 98q7 6 15.5 6t12.5 -6l17 -21
q12 -13 -5 -28l-173 -147q-17 -14 -29 0z" />
    <glyph glyph-name="Tcommaaccent" unicode="&#x162;" 
d="M181 629q-8 0 -13 6t-4 14l5 26q4 20 24 20h407q8 0 13 -6t3 -14l-5 -26q-4 -20 -23 -20h-151q-20 0 -24 -20l-103 -589q-4 -20 -24 -20h-26q-8 0 -13 6t-3 14l103 589q2 8 -3 14t-13 6h-150zM279 -263q-4 -20 -24 -20h-29q-8 0 -13 6t-3 14l16 94q2 10 -7 16
q-22 15 -16 44q4 21 21.5 36t38.5 15q22 0 34.5 -15t8.5 -36z" />
    <glyph glyph-name="tcommaaccent" unicode="&#x163;" 
d="M327 467q-1 -8 4 -14t13 -6h212q8 0 13 -6t3 -14l-5 -29q-4 -20 -23 -20h-212q-20 0 -24 -20l-35 -198q-7 -38 15.5 -64.5t60.5 -26.5q33 0 61.5 20.5t40.5 52.5q2 6 10 12t15 6h29q21 0 16 -20q-18 -59 -71 -99.5t-113 -40.5q-67 0 -105 47t-27 113l35 198q2 8 -3 14
t-13 6h-87q-8 0 -13 6t-4 14l5 29q4 20 24 20h87q19 0 23 20l16 87q4 20 23 20h28q8 0 13 -6t4 -14zM279 -263q-4 -20 -24 -20h-29q-8 0 -13 6t-3 14l16 94q2 10 -7 16q-22 15 -16 44q4 21 21.5 36t38.5 15q22 0 34.5 -15t8.5 -36z" />
    <glyph glyph-name="Tcaron" unicode="&#x164;" 
d="M181 629q-8 0 -13 6t-4 14l5 26q4 20 24 20h407q8 0 13 -6t3 -14l-5 -26q-4 -20 -23 -20h-151q-20 0 -24 -20l-103 -589q-4 -20 -24 -20h-26q-8 0 -13 6t-3 14l103 589q2 8 -3 14t-13 6h-150zM278 948q-11 14 5 28l25 21q16 14 28 0l81 -98q12 -14 29 0l116 98
q16 14 28 0l17 -21q11 -14 -5 -28l-174 -147q-16 -14 -28 0z" />
    <glyph glyph-name="tcaron" unicode="&#x165;" 
d="M327 467q-1 -8 4 -14t13 -6h212q8 0 13 -6t3 -14l-5 -29q-4 -20 -23 -20h-212q-20 0 -24 -20l-35 -198q-7 -38 15.5 -64.5t60.5 -26.5q33 0 61.5 20.5t40.5 52.5q2 6 10 12t15 6h29q21 0 16 -20q-18 -59 -71 -99.5t-113 -40.5q-67 0 -105 47t-27 113l35 198q2 8 -3 14
t-13 6h-87q-8 0 -13 6t-4 14l5 29q4 20 24 20h87q19 0 23 20l16 87q4 20 23 20h28q8 0 13 -6t4 -14zM601 592q-4 -20 -23 -20h-29q-8 0 -13 6t-4 14l17 94q2 10 -7 16q-22 15 -16 44q3 21 21 36t39 15q22 0 34 -15t9 -36z" />
    <glyph glyph-name="Tbar" unicode="&#x166;" 
d="M192 301q-8 0 -13 6t-3 14l4 25q4 20 24 20h81q19 0 23 20l39 223q2 8 -3 14t-13 6h-150q-8 0 -13 6t-4 14l5 26q4 20 24 20h407q8 0 13 -6t3 -14l-5 -26q-4 -20 -23 -20h-151q-20 0 -24 -20l-39 -223q-2 -8 3 -14t14 -6h82q8 0 13 -6t3 -14l-4 -25q-4 -20 -24 -20h-82
q-8 0 -15 -6t-8 -14l-46 -261q-4 -20 -24 -20h-26q-8 0 -13 6t-3 14l46 261q1 8 -4 14t-13 6h-81z" />
    <glyph glyph-name="tbar" unicode="&#x167;" 
d="M111 235q-8 0 -13 6t-3 14l4 25q4 20 24 20h87q19 0 23 20l7 38q2 8 -3 14t-13 6h-87q-8 0 -13 6t-4 14l5 29q4 20 24 20h87q19 0 23 20l16 87q4 20 23 20h28q8 0 13 -6t4 -14l-16 -87q-1 -8 4 -14t13 -6h212q8 0 13 -6t3 -14l-5 -29q-4 -20 -23 -20h-212q-20 0 -24 -20
l-7 -38q-1 -8 4 -14t13 -6h74q8 0 13 -6t3 -14l-4 -25q-4 -20 -24 -20h-74q-19 0 -23 -20l-10 -55q-7 -38 15.5 -64.5t60.5 -26.5q33 0 61.5 20.5t40.5 52.5q2 6 10 12t15 6h29q21 0 16 -20q-18 -59 -71 -99.5t-113 -40.5q-67 0 -105 47t-27 113l10 55q1 8 -4 14t-13 6h-87z
" />
    <glyph glyph-name="Utilde" unicode="&#x168;" 
d="M547 675q4 20 24 20h29q8 0 13 -6t3 -14l-81 -461q-16 -88 -95 -151t-169 -63q-89 0 -144 63t-39 151l81 461q4 20 24 20h29q8 0 13 -6t3 -14l-81 -461q-11 -61 26.5 -104.5t99.5 -43.5t117 43.5t66 104.5zM398 859q-2 14 -16 21t-30 0q-30 -11 -28 -53q2 -11 -11 -17
l-23 -8q-20 -7 -21 9q-6 36 13.5 70.5t58.5 48.5q37 13 70.5 -0.5t44.5 -50.5q5 -16 17.5 -23.5t26.5 -0.5q15 7 21.5 16t7.5 15.5t0 20.5q-2 12 12 18l23 8q21 9 23 -13q3 -39 -15 -72t-58 -46q-36 -15 -70.5 -1.5t-45.5 58.5z" />
    <glyph glyph-name="utilde" unicode="&#x169;" 
d="M274 0q-93 0 -147 65.5t-38 158.5l36 203q4 20 24 20h29q8 0 13 -6t3 -14l-36 -203q-11 -64 26 -109.5t102 -45.5q64 0 117 45t64 109l36 204q4 20 24 20h29q8 0 13 -6t3 -14l-71 -407q-4 -20 -24 -20h-29q-8 0 -13 6t-3 14l2 14q1 8 -6 11t-15 -2q-65 -43 -139 -43z
M355 611q-3 14 -17 21t-30 0q-31 -12 -27 -53q0 -12 -12 -17l-23 -8q-18 -7 -21 9q-5 36 14.5 70.5t57.5 48.5q37 13 70.5 -0.5t44.5 -50.5q6 -16 18 -23t26 -1q21 10 26 21.5t3 30.5q0 13 13 18l22 8q21 8 23 -13q3 -39 -14.5 -72t-57.5 -46q-37 -15 -71 -1.5t-45 58.5z
" />
    <glyph glyph-name="umacron" unicode="&#x16b;" 
d="M274 0q-93 0 -147 65.5t-38 158.5l36 203q4 20 24 20h29q8 0 13 -6t3 -14l-36 -203q-11 -64 26 -109.5t102 -45.5q64 0 117 45t64 109l36 204q4 20 24 20h29q8 0 13 -6t3 -14l-71 -407q-4 -20 -24 -20h-29q-8 0 -13 6t-3 14l2 14q1 8 -6 11t-15 -2q-65 -43 -139 -43z
M244 597q-8 0 -13 6t-3 14l4 25q4 20 24 20h269q8 0 13 -6t3 -14l-4 -25q-4 -20 -24 -20h-269z" />
    <glyph glyph-name="Ubreve" unicode="&#x16c;" 
d="M547 675q4 20 24 20h29q8 0 13 -6t3 -14l-81 -461q-16 -88 -95 -151t-169 -63q-89 0 -144 63t-39 151l81 461q4 20 24 20h29q8 0 13 -6t3 -14l-81 -461q-11 -61 26.5 -104.5t99.5 -43.5t117 43.5t66 104.5zM493 909q2 5 10 11t12 6h31q21 0 15 -21q-16 -46 -57.5 -77
t-89.5 -31t-78.5 31t-30.5 77q0 21 22 21h31q5 0 10.5 -6t6.5 -11q2 -20 15.5 -32t35.5 -12q21 0 39.5 12t27.5 32z" />
    <glyph glyph-name="ubreve" unicode="&#x16d;" 
d="M274 0q-93 0 -147 65.5t-38 158.5l36 203q4 20 24 20h29q8 0 13 -6t3 -14l-36 -203q-11 -64 26 -109.5t102 -45.5q64 0 117 45t64 109l36 204q4 20 24 20h29q8 0 13 -6t3 -14l-71 -407q-4 -20 -24 -20h-29q-8 0 -13 6t-3 14l2 14q1 8 -6 11t-15 -2q-65 -43 -139 -43z
M449 661q2 5 10 11t13 6h31q20 0 14 -21q-16 -46 -57.5 -77t-89.5 -31t-78.5 31t-29.5 77q0 21 22 21h31q4 0 9.5 -6t6.5 -11q2 -20 16 -32t35 -12t39.5 12t27.5 32z" />
    <glyph glyph-name="Uring" unicode="&#x16e;" 
d="M547 675q4 20 24 20h29q8 0 13 -6t3 -14l-81 -461q-16 -88 -95 -151t-169 -63q-89 0 -144 63t-39 151l81 461q4 20 24 20h29q8 0 13 -6t3 -14l-81 -461q-11 -61 26.5 -104.5t99.5 -43.5t117 43.5t66 104.5zM450 1006q54 0 85.5 -38t21.5 -92q-9 -53 -53.5 -91t-98.5 -38
q-53 0 -84.5 38t-22.5 91q10 54 54.5 92t97.5 38zM417 815q26 0 47 18t25 43q5 26 -10.5 44t-40.5 18t-46 -18t-26 -44q-4 -25 10.5 -43t40.5 -18z" />
    <glyph glyph-name="uring" unicode="&#x16f;" 
d="M274 0q-93 0 -147 65.5t-38 158.5l36 203q4 20 24 20h29q8 0 13 -6t3 -14l-36 -203q-11 -64 26 -109.5t102 -45.5q64 0 117 45t64 109l36 204q4 20 24 20h29q8 0 13 -6t3 -14l-71 -407q-4 -20 -24 -20h-29q-8 0 -13 6t-3 14l2 14q1 8 -6 11t-15 -2q-65 -43 -139 -43z
M407 758q54 0 85 -38t22 -92q-10 -53 -54.5 -91t-98.5 -38q-53 0 -84.5 38t-21.5 91q9 54 54 92t98 38zM373 567q26 0 47.5 18t25.5 43q5 26 -10.5 44t-40.5 18t-46 -18t-26 -44t10 -43.5t40 -17.5z" />
    <glyph glyph-name="Uhungarumlaut" unicode="&#x170;" 
d="M547 675q4 20 24 20h29q8 0 13 -6t3 -14l-81 -461q-16 -88 -95 -151t-169 -63q-89 0 -144 63t-39 151l81 461q4 20 24 20h29q8 0 13 -6t3 -14l-81 -461q-11 -61 26.5 -104.5t99.5 -43.5t117 43.5t66 104.5zM253 761q-16 -14 -28 0l-17 21q-11 14 5 28l174 147q16 14 28 0
l17 -21q11 -14 -5 -28zM463 761q-16 -14 -28 0l-17 21q-11 14 5 28l174 147q16 14 28 0l17 -21q11 -14 -5 -28z" />
    <glyph glyph-name="uhungarumlaut" unicode="&#x171;" 
d="M274 0q-93 0 -147 65.5t-38 158.5l36 203q4 20 24 20h29q8 0 13 -6t3 -14l-36 -203q-11 -64 26 -109.5t102 -45.5q64 0 117 45t64 109l36 204q4 20 24 20h29q8 0 13 -6t3 -14l-71 -407q-4 -20 -24 -20h-29q-8 0 -13 6t-3 14l2 14q1 8 -6 11t-15 -2q-65 -43 -139 -43z
M285 543q-7 -6 -15 -6t-13 6l-17 21q-12 14 5 28l173 147q7 6 15 6t13 -6l17 -21q12 -14 -5 -28zM495 543q-7 -6 -15.5 -6t-12.5 6l-17 21q-12 14 5 28l173 147q7 6 15 6t13 -6l17 -21q12 -14 -5 -28z" />
    <glyph glyph-name="Uogonek" unicode="&#x172;" 
d="M547 675q4 20 24 20h29q8 0 13 -6t3 -14l-81 -461q-14 -80 -82.5 -140.5t-151.5 -71.5l-9 -1q-41 -13 -56.5 -49t4.5 -62.5t67 -16.5q17 3 21 -13l6 -28q2 -9 -3.5 -16.5t-15.5 -8.5q-55 -12 -97.5 8.5t-54.5 69.5q-11 60 24 107q5 6 4.5 15t-6.5 11q-54 26 -81.5 79
t-15.5 117l81 461q4 20 24 20h29q8 0 13 -6t3 -14l-81 -461q-11 -61 26.5 -104.5t99.5 -43.5t117 43.5t66 104.5z" />
    <glyph glyph-name="uogonek" unicode="&#x173;" 
d="M503 427q4 20 24 20h29q8 0 13 -6t3 -14l-72 -411q-1 -5 -6.5 -12t-10.5 -8q-39 -14 -53.5 -49.5t5 -61.5t65.5 -16q7 2 13.5 -2t7.5 -11l6 -28q2 -9 -3.5 -16t-15.5 -9q-54 -12 -97 8.5t-55 69.5q-8 44 10.5 83.5t59.5 66.5q10 7 10 17l1 2q1 3 -2 4.5t-7 -0.5
q-74 -54 -154 -54q-93 0 -147 65.5t-38 158.5l36 203q4 20 24 20h29q8 0 13 -6t3 -14l-36 -203q-11 -64 26 -109.5t102 -45.5q64 0 117 45t64 109z" />
    <glyph glyph-name="Wcircumflex" unicode="&#x174;" 
d="M379 267q2 -15 18 -14t21 16l127 409q6 17 23 17h28q10 0 14.5 -6.5t1.5 -16.5l-216 -655q-6 -17 -23 -17h-24q-15 0 -17 16l-8 173q-1 15 -16.5 15.5t-22.5 -14.5l-77 -175q-8 -15 -22 -15h-20q-7 0 -12 5t-4 12l22 655q0 10 7 16.5t17 6.5h28q7 0 12 -5t5 -12l-19 -408
q0 -16 15.5 -17t22.5 14l36 74q6 14 21 14h37q14 0 16 -14zM301 801q-16 -14 -28 0l-17 21q-11 14 5 28l174 147q16 14 28 0l122 -147q11 -14 -5 -28l-25 -21q-16 -14 -28 0l-81 98q-12 14 -29 0z" />
    <glyph glyph-name="wcircumflex" unicode="&#x175;" 
d="M357 178q1 -15 17 -15t22 15l101 253q5 16 22 16h31q10 0 15 -7.5t0 -17.5l-176 -407q-7 -15 -23 -15h-36q-15 0 -17 16l-3 81q-1 15 -17 15t-22 -15l-32 -81q-5 -16 -22 -16h-36q-7 0 -12 4.5t-5 10.5l-33 407q-1 10 6.5 17.5t17.5 7.5h31q15 0 17 -16l11 -253
q1 -15 17 -15t22 15l34 84q5 16 22 16h27q15 0 17 -16zM258 553q-17 -14 -29 0l-17 21q-11 14 5 28l174 147q7 6 15 6t13 -6l122 -147q11 -14 -5 -28l-24 -21q-17 -14 -29 0l-81 98q-12 14 -28 0z" />
    <glyph glyph-name="Ycircumflex" unicode="&#x176;" 
d="M586 695q12 0 16 -9.5t-4 -20.5l-228 -314q0 -5 -4 -9l-56 -322q-4 -20 -24 -20h-26q-8 0 -13 6t-3 14l56 323v9l-116 313q-4 11 3 20.5t19 9.5h24q13 0 15 -10l90 -233q5 -11 16 -11t19 11l173 233q8 10 19 10h24zM301 801q-16 -14 -28 0l-17 21q-11 14 5 28l174 147
q16 14 28 0l122 -147q11 -14 -5 -28l-25 -21q-16 -14 -28 0l-81 98q-12 14 -29 0z" />
    <glyph glyph-name="ycircumflex" unicode="&#x177;" 
d="M278 135q4 -13 17 -13t20 13l180 300q6 12 20 12h31q11 0 15.5 -8.5t-2.5 -19.5l-392 -655q-8 -12 -21 -12h-30q-11 0 -15.5 9t2.5 19l130 216q6 8 3 16l-100 407q-3 10 4.5 19t18.5 9h31q12 0 16 -12zM258 553q-17 -14 -29 0l-17 21q-11 14 5 28l174 147q7 6 15 6t13 -6
l122 -147q11 -14 -5 -28l-24 -21q-17 -14 -29 0l-81 98q-12 14 -28 0z" />
    <glyph glyph-name="Ydieresis" unicode="&#x178;" 
d="M586 695q12 0 16 -9.5t-4 -20.5l-228 -314q0 -5 -4 -9l-56 -322q-4 -20 -24 -20h-26q-8 0 -13 6t-3 14l56 323v9l-116 313q-4 11 3 20.5t19 9.5h24q13 0 15 -10l90 -233q5 -11 16 -11t19 11l173 233q8 10 19 10h24zM548 907q22 0 34.5 -15t8.5 -37q-4 -21 -21.5 -36
t-39.5 -15q-21 0 -33.5 15t-8.5 36q4 22 21.5 37t38.5 15zM319 907q22 0 34.5 -15t8.5 -37q-4 -21 -21.5 -36t-39.5 -15q-21 0 -33.5 15t-8.5 36q4 22 21.5 37t38.5 15z" />
    <glyph glyph-name="Zacute" unicode="&#x179;" 
d="M600 695q8 0 13 -6t3 -14l-7 -40q0 -1 -5 -11l-438 -527q-9 -11 -5 -21t17 -10h311q8 0 13 -6t3 -14l-4 -26q-4 -20 -24 -20h-407q-8 0 -13 6t-3 14l7 40q0 1 5 11l437 527q9 10 5.5 20.5t-16.5 10.5h-311q-8 0 -13 6t-4 14l5 26q4 20 24 20h407zM358 761q-16 -14 -28 0
l-17 21q-11 14 5 28l174 147q16 14 28 0l17 -21q11 -14 -5 -28z" />
    <glyph glyph-name="zacute" unicode="&#x17a;" 
d="M556 447q8 0 13 -6t3 -14l-7 -40q0 -6 -9 -15l-354 -268q-13 -10 -10.5 -22.5t16.5 -12.5h281q8 0 13 -6t4 -14l-5 -29q-4 -20 -24 -20h-407q-8 0 -13 6t-3 14l7 40q0 6 9 15l354 268q13 10 10.5 22.5t-17.5 12.5h-280q-8 0 -13 6t-4 14l5 29q4 20 24 20h407zM315 513
q-17 -14 -29 0l-17 21q-11 14 5 28l174 147q7 6 15 6t13 -6l17 -21q12 -13 -5 -28z" />
    <glyph glyph-name="Zdotaccent" unicode="&#x17b;" 
d="M600 695q8 0 13 -6t3 -14l-7 -40q0 -1 -5 -11l-438 -527q-9 -11 -5 -21t17 -10h311q8 0 13 -6t3 -14l-4 -26q-4 -20 -24 -20h-407q-8 0 -13 6t-3 14l7 40q0 1 5 11l437 527q9 10 5.5 20.5t-16.5 10.5h-311q-8 0 -13 6t-4 14l5 26q4 20 24 20h407zM435 917q22 0 34.5 -15
t8.5 -37q-4 -21 -21.5 -36t-39.5 -15q-21 0 -33.5 15t-8.5 36q4 22 21.5 37t38.5 15z" />
    <glyph glyph-name="zdotaccent" unicode="&#x17c;" 
d="M556 447q8 0 13 -6t3 -14l-7 -40q0 -6 -9 -15l-354 -268q-13 -10 -10.5 -22.5t16.5 -12.5h281q8 0 13 -6t4 -14l-5 -29q-4 -20 -24 -20h-407q-8 0 -13 6t-3 14l7 40q0 6 9 15l354 268q13 10 10.5 22.5t-17.5 12.5h-280q-8 0 -13 6t-4 14l5 29q4 20 24 20h407zM391 669
q22 0 34.5 -15t8.5 -37q-4 -21 -21.5 -36t-39.5 -15q-21 0 -33.5 15t-8.5 36q4 22 21.5 37t38.5 15z" />
    <glyph glyph-name="Zcaron" unicode="&#x17d;" 
d="M600 695q8 0 13 -6t3 -14l-7 -40q0 -1 -5 -11l-438 -527q-9 -11 -5 -21t17 -10h311q8 0 13 -6t3 -14l-4 -26q-4 -20 -24 -20h-407q-8 0 -13 6t-3 14l7 40q0 1 5 11l437 527q9 10 5.5 20.5t-16.5 10.5h-311q-8 0 -13 6t-4 14l5 26q4 20 24 20h407zM278 948q-11 14 5 28
l25 21q16 14 28 0l81 -98q12 -14 29 0l116 98q16 14 28 0l17 -21q11 -14 -5 -28l-174 -147q-16 -14 -28 0z" />
    <glyph glyph-name="zcaron" unicode="&#x17e;" 
d="M556 447q8 0 13 -6t3 -14l-7 -40q0 -6 -9 -15l-354 -268q-13 -10 -10.5 -22.5t16.5 -12.5h281q8 0 13 -6t4 -14l-5 -29q-4 -20 -24 -20h-407q-8 0 -13 6t-3 14l7 40q0 6 9 15l354 268q13 10 10.5 22.5t-17.5 12.5h-280q-8 0 -13 6t-4 14l5 29q4 20 24 20h407zM235 700
q-12 14 5 28l24 21q7 6 15 6t13 -6l82 -98q4 -6 12.5 -6t15.5 6l116 98q7 6 15.5 6t12.5 -6l17 -21q12 -13 -5 -28l-173 -147q-17 -14 -29 0z" />
    <glyph glyph-name="AEacute" unicode="&#x1fc;" 
d="M293 0q-8 0 -13 6t-3 14l24 141q2 8 -3 14t-13 6h-65q-14 0 -22 -15l-66 -151q-8 -15 -22 -15h-32q-10 0 -15 7.5t0 17.5l293 655q6 15 22 15h222q8 0 13 -6t3 -14l-5 -26q-4 -20 -23 -20h-115q-20 0 -24 -20l-36 -209q-2 -8 3 -14t13 -6h46q8 0 13 -6t3 -14l-4 -25
q-4 -20 -23 -20h-46q-20 0 -24 -20l-37 -209q-1 -8 4 -14t13 -6h115q8 0 13 -6t3 -14l-4 -26q-4 -20 -24 -20h-184zM245 272q-5 -10 0 -17.5t15 -7.5h37q19 0 23 20l25 140q2 10 -5.5 15.5t-18 2.5t-15.5 -13zM358 761q-16 -14 -28 0l-17 21q-11 14 5 28l174 147q16 14 28 0
l17 -21q11 -14 -5 -28z" />
    <glyph glyph-name="aeacute" unicode="&#x1fd;" 
d="M461 118q5 8 14 11t17 -1l12 -8q13 -9 5 -23q-59 -97 -132 -97q-63 0 -83 41q-3 7 -13.5 7t-16.5 -6q-47 -48 -121 -42q-41 3 -61 34.5t-10 87.5q18 109 109 135q31 10 90 3q14 -2 16 12q6 46 -5.5 76t-41.5 30q-41 0 -65 -40q-4 -7 -12.5 -11t-15.5 -1l-21 7
q-16 7 -7 24q26 49 67 73t81 16t62 -46q4 -6 13.5 -4.5t14.5 8.5q35 43 96 43q38 0 60.5 -25t28 -63.5t3 -76.5t-11.5 -74q-4 -19 -22 -19h-150q-20 0 -22 -20q-4 -45 11 -72.5t44 -27.5q38 0 67 49zM358 278q-2 -9 2.5 -14.5t12.5 -5.5h80q21 0 23 20q5 45 -3.5 72.5
t-31.5 27.5q-28 0 -50 -27.5t-33 -72.5zM141 125q-8 -47 30 -55q36 -8 67 22q20 18 25 44l8 43q0 9 -9 11q-108 7 -121 -65zM315 513q-17 -14 -29 0l-17 21q-11 14 5 28l174 147q7 6 15 6t13 -6l17 -21q12 -13 -5 -28z" />
    <glyph glyph-name="Oslashacute" unicode="&#x1fe;" 
d="M193 14q-17 6 -24 -8l-55 -94q-8 -12 -21 -12h-31q-11 0 -15.5 9t2.5 19l71 120q8 12 0 22q-47 61 -32 143l47 268q16 88 93 151t166 63q43 0 80 -17q15 -6 25 8l57 97q8 12 20 12h31q11 0 15.5 -8.5t-1.5 -19.5l-73 -122q-8 -12 0 -22q47 -62 34 -142l-47 -268
q-16 -88 -95 -151t-169 -63q-44 0 -78 15zM466 213l47 268q6 38 -8 71q-5 11 -14 -2l-270 -457q-6 -11 3 -16q26 -12 58 -12q62 0 117.5 43.5t66.5 104.5zM382 629q-62 0 -115 -43.5t-63 -104.5l-47 -268q-7 -37 6 -72q2 -4 6 -3.5t7 5.5l270 455q9 12 -4 18q-29 13 -60 13z
M358 761q-16 -14 -28 0l-17 21q-11 14 5 28l174 147q16 14 28 0l17 -21q11 -14 -5 -28z" />
    <glyph glyph-name="oslashacute" unicode="&#x1ff;" 
d="M202 12q-14 6 -24 -6l-60 -73q-7 -9 -18 -9h-27q-13 0 -16.5 10t5.5 21l66 80q5 5 5 14t-4 14q-57 65 -40 160q16 93 93.5 158.5t169.5 65.5q44 0 81 -17q16 -6 27 7l43 53q9 9 19 9h26q13 0 16.5 -10.5t-4.5 -20.5l-55 -66q-4 -5 -4.5 -14t3.5 -13q48 -66 32 -152
q-16 -92 -93 -157.5t-170 -65.5q-39 0 -71 12zM340 378q-64 0 -117.5 -45.5t-64.5 -109.5q-9 -57 19 -98q5 -7 12.5 -6.5t14.5 8.5l189 229q7 9 -2 13q-24 9 -51 9zM285 69q64 0 117.5 45t64.5 109q9 51 -13 90q-8 17 -23 0l-189 -229q-5 -6 3 -10q20 -5 40 -5zM315 513
q-17 -14 -29 0l-17 21q-11 14 5 28l174 147q7 6 15 6t13 -6l17 -21q12 -13 -5 -28z" />
    <glyph glyph-name="Scommaaccent" unicode="&#x218;" 
d="M339 380q93 -14 149 -64.5t43 -125.5q-14 -79 -91 -134.5t-168 -55.5q-83 0 -138 48.5t-53 119.5q1 9 7.5 16t15.5 7h29q6 0 12 -7t6 -13q2 -44 40 -74t93 -30q63 0 115.5 36t62.5 87q8 49 -31.5 82t-103.5 42q-91 13 -146.5 64t-41.5 126q14 79 90 135t166 56
q83 0 139 -48.5t54 -119.5q0 -9 -6.5 -16t-15.5 -7h-29q-6 0 -12 7t-7 13q-1 45 -40 75t-95 30q-62 0 -114 -37t-61 -88q-9 -49 29.5 -82t101.5 -42zM279 -263q-4 -20 -24 -20h-29q-8 0 -13 6t-3 14l16 94q2 10 -7 16q-22 15 -16 44q4 21 21.5 36t38.5 15q22 0 34.5 -15
t8.5 -36z" />
    <glyph glyph-name="scommaaccent" unicode="&#x219;" 
d="M318 257q112 0 161.5 -36.5t39.5 -94.5q-9 -52 -80.5 -89t-165.5 -37q-81 0 -138.5 30.5t-62.5 75.5q-3 20 20 20h31q3 0 10 -6t9 -9q9 -21 48.5 -34.5t93.5 -13.5q65 0 113.5 18.5t53.5 44.5q3 19 -6.5 32t-44 22t-94.5 9q-110 0 -160 36t-40 91q10 54 82.5 92.5
t163.5 38.5q85 0 141 -31t61 -79q2 -21 -21 -21h-31q-3 0 -10 6t-9 9q-9 22 -48.5 37.5t-93.5 15.5q-64 0 -113 -21t-54 -47q-3 -16 7.5 -28.5t45 -21.5t91.5 -9zM279 -263q-4 -20 -24 -20h-29q-8 0 -13 6t-3 14l16 94q2 10 -7 16q-22 15 -16 44q4 21 21.5 36t38.5 15
q22 0 34.5 -15t8.5 -36z" />
    <glyph glyph-name="dotlessj" unicode="&#x237;" 
d="M234 378q-8 0 -13 6t-4 14l5 29q4 20 24 20h281q8 0 13 -6t3 -14l-79 -452q-16 -93 -94 -158.5t-170 -65.5q-56 0 -100 26t-67 71q-7 14 12 25l28 14q17 9 27 -7q35 -60 112 -60q64 0 117.5 45.5t65.5 109.5l67 383q2 8 -3 14t-13 6h-212z" />
    <glyph glyph-name="circumflex" unicode="&#x2c6;" 
d="M258 553q-17 -14 -29 0l-17 21q-11 14 5 28l174 147q7 6 15 6t13 -6l122 -147q11 -14 -5 -28l-24 -21q-17 -14 -29 0l-81 98q-12 14 -28 0z" />
    <glyph glyph-name="caron" unicode="&#x2c7;" 
d="M235 700q-12 14 5 28l24 21q7 6 15 6t13 -6l82 -98q4 -6 12.5 -6t15.5 6l116 98q7 6 15.5 6t12.5 -6l17 -21q12 -13 -5 -28l-173 -147q-17 -14 -29 0z" />
    <glyph glyph-name="breve" unicode="&#x2d8;" 
d="M449 661q2 5 10 11t13 6h31q20 0 14 -21q-16 -46 -57.5 -77t-89.5 -31t-78.5 31t-29.5 77q0 21 22 21h31q4 0 9.5 -6t6.5 -11q2 -20 16 -32t35 -12t39.5 12t27.5 32z" />
    <glyph glyph-name="dotaccent" unicode="&#x2d9;" 
d="M391 669q22 0 34.5 -15t8.5 -37q-4 -21 -21.5 -36t-39.5 -15q-21 0 -33.5 15t-8.5 36q4 22 21.5 37t38.5 15z" />
    <glyph glyph-name="ring" unicode="&#x2da;" 
d="M407 758q54 0 85 -38t22 -92q-10 -53 -54.5 -91t-98.5 -38q-53 0 -84.5 38t-21.5 91q9 54 54 92t98 38zM373 567q26 0 47.5 18t25.5 43q5 26 -10.5 44t-40.5 18t-46 -18t-26 -44t10 -43.5t40 -17.5z" />
    <glyph glyph-name="ogonek" unicode="&#x2db;" 
d="M249 38q6 3 10 3h45q8 0 12 -5.5t3 -12.5v-3q-5 -16 -18 -20q-39 -14 -53.5 -49.5t5.5 -61.5t65 -16q18 4 22 -13l6 -28q2 -9 -3.5 -16.5t-15.5 -8.5q-55 -12 -97.5 8.5t-54.5 69.5q-8 45 11.5 85.5t62.5 67.5z" />
    <glyph glyph-name="tilde" unicode="&#x2dc;" 
d="M354 611q-3 14 -17 21t-30 0q-31 -12 -27 -53q0 -12 -12 -17l-23 -8q-18 -7 -21 9q-5 36 14.5 70.5t57.5 48.5q37 13 70.5 -0.5t44.5 -50.5q6 -16 18 -23t26 -1q21 10 26 21.5t3 30.5q0 13 13 18l22 8q21 8 23 -13q3 -39 -14.5 -72t-57.5 -46q-37 -15 -71 -1.5t-45 58.5z
" />
    <glyph glyph-name="hungarumlaut" unicode="&#x2dd;" 
d="M333 513q-17 -14 -29 0l-17 21q-11 14 5 28l174 147q7 6 15 6t13 -6l17 -21q12 -13 -5 -28zM543 513q-17 -14 -29 0l-17 21q-11 14 5 28l174 147q7 6 15 6t13 -6l17 -21q12 -13 -5 -28z" />
    <glyph glyph-name="Wgrave" unicode="&#x1e80;" 
d="M379 267q2 -15 18 -14t21 16l127 409q6 17 23 17h28q10 0 14.5 -6.5t1.5 -16.5l-216 -655q-6 -17 -23 -17h-24q-15 0 -17 16l-8 173q-1 15 -16.5 15.5t-22.5 -14.5l-77 -175q-8 -15 -22 -15h-20q-7 0 -12 5t-4 12l22 655q0 10 7 16.5t17 6.5h28q7 0 12 -5t5 -12l-19 -408
q0 -16 15.5 -17t22.5 14l36 74q6 14 21 14h37q14 0 16 -14zM515 810q11 -14 -5 -28l-25 -21q-7 -6 -15.5 -6t-12.5 6l-122 147q-11 14 5 28l25 21q16 14 28 0z" />
    <glyph glyph-name="wgrave" unicode="&#x1e81;" 
d="M357 178q1 -15 17 -15t22 15l101 253q5 16 22 16h31q10 0 15 -7.5t0 -17.5l-176 -407q-7 -15 -23 -15h-36q-15 0 -17 16l-3 81q-1 15 -17 15t-22 -15l-32 -81q-5 -16 -22 -16h-36q-7 0 -12 4.5t-5 10.5l-33 407q-1 10 6.5 17.5t17.5 7.5h31q15 0 17 -16l11 -253
q1 -15 17 -15t22 15l34 84q5 16 22 16h27q15 0 17 -16zM471 562q11 -14 -5 -28l-24 -21q-17 -14 -29 0l-121 147q-12 14 5 28l24 21q7 6 15 6t13 -6z" />
    <glyph glyph-name="Wacute" unicode="&#x1e82;" 
d="M379 267q2 -15 18 -14t21 16l127 409q6 17 23 17h28q10 0 14.5 -6.5t1.5 -16.5l-216 -655q-6 -17 -23 -17h-24q-15 0 -17 16l-8 173q-1 15 -16.5 15.5t-22.5 -14.5l-77 -175q-8 -15 -22 -15h-20q-7 0 -12 5t-4 12l22 655q0 10 7 16.5t17 6.5h28q7 0 12 -5t5 -12l-19 -408
q0 -16 15.5 -17t22.5 14l36 74q6 14 21 14h37q14 0 16 -14zM358 761q-16 -14 -28 0l-17 21q-11 14 5 28l174 147q16 14 28 0l17 -21q11 -14 -5 -28z" />
    <glyph glyph-name="wacute" unicode="&#x1e83;" 
d="M357 178q1 -15 17 -15t22 15l101 253q5 16 22 16h31q10 0 15 -7.5t0 -17.5l-176 -407q-7 -15 -23 -15h-36q-15 0 -17 16l-3 81q-1 15 -17 15t-22 -15l-32 -81q-5 -16 -22 -16h-36q-7 0 -12 4.5t-5 10.5l-33 407q-1 10 6.5 17.5t17.5 7.5h31q15 0 17 -16l11 -253
q1 -15 17 -15t22 15l34 84q5 16 22 16h27q15 0 17 -16zM315 513q-17 -14 -29 0l-17 21q-11 14 5 28l174 147q7 6 15 6t13 -6l17 -21q12 -13 -5 -28z" />
    <glyph glyph-name="Wdieresis" unicode="&#x1e84;" 
d="M379 267q2 -15 18 -14t21 16l127 409q6 17 23 17h28q10 0 14.5 -6.5t1.5 -16.5l-216 -655q-6 -17 -23 -17h-24q-15 0 -17 16l-8 173q-1 15 -16.5 15.5t-22.5 -14.5l-77 -175q-8 -15 -22 -15h-20q-7 0 -12 5t-4 12l22 655q0 10 7 16.5t17 6.5h28q7 0 12 -5t5 -12l-19 -408
q0 -16 15.5 -17t22.5 14l36 74q6 14 21 14h37q14 0 16 -14zM319 907q22 0 34.5 -15t8.5 -37q-4 -21 -21.5 -36t-39.5 -15q-21 0 -33.5 15t-8.5 36q4 22 21.5 37t38.5 15zM548 907q22 0 34.5 -15t8.5 -37q-4 -21 -21.5 -36t-39.5 -15q-21 0 -33.5 15t-8.5 36q4 22 21.5 37
t38.5 15z" />
    <glyph glyph-name="wdieresis" unicode="&#x1e85;" 
d="M357 178q1 -15 17 -15t22 15l101 253q5 16 22 16h31q10 0 15 -7.5t0 -17.5l-176 -407q-7 -15 -23 -15h-36q-15 0 -17 16l-3 81q-1 15 -17 15t-22 -15l-32 -81q-5 -16 -22 -16h-36q-7 0 -12 4.5t-5 10.5l-33 407q-1 10 6.5 17.5t17.5 7.5h31q15 0 17 -16l11 -253
q1 -15 17 -15t22 15l34 84q5 16 22 16h27q15 0 17 -16zM275 659q22 0 34.5 -15t8.5 -37q-4 -21 -21.5 -36t-39.5 -15q-21 0 -33.5 15t-8.5 36q4 22 21.5 37t38.5 15zM504 659q22 0 34.5 -15t8.5 -37q-4 -21 -21.5 -36t-39.5 -15q-21 0 -33.5 15t-8.5 36q4 22 21.5 37
t38.5 15z" />
    <glyph glyph-name="Ygrave" unicode="&#x1ef2;" 
d="M586 695q12 0 16 -9.5t-4 -20.5l-228 -314q0 -5 -4 -9l-56 -322q-4 -20 -24 -20h-26q-8 0 -13 6t-3 14l56 323v9l-116 313q-4 11 3 20.5t19 9.5h24q13 0 15 -10l90 -233q5 -11 16 -11t19 11l173 233q8 10 19 10h24zM515 810q11 -14 -5 -28l-25 -21q-7 -6 -15.5 -6
t-12.5 6l-122 147q-11 14 5 28l25 21q16 14 28 0z" />
    <glyph glyph-name="ygrave" unicode="&#x1ef3;" 
d="M278 135q4 -13 17 -13t20 13l180 300q6 12 20 12h31q11 0 15.5 -8.5t-2.5 -19.5l-392 -655q-8 -12 -21 -12h-30q-11 0 -15.5 9t2.5 19l130 216q6 8 3 16l-100 407q-3 10 4.5 19t18.5 9h31q12 0 16 -12zM471 562q11 -14 -5 -28l-24 -21q-17 -14 -29 0l-121 147
q-12 14 5 28l24 21q7 6 15 6t13 -6z" />
    <glyph glyph-name="quoteleft" unicode="&#x2018;" 
d="M390 467q-4 -20 -23 -20h-29q-8 0 -13 6t-4 14l37 208q4 20 24 20h29q8 0 13 -6t3 -14z" />
    <glyph glyph-name="quoteright" unicode="&#x2019;" 
d="M390 467q-4 -20 -23 -20h-29q-8 0 -13 6t-4 14l37 208q4 20 24 20h29q8 0 13 -6t3 -14z" />
    <glyph glyph-name="quotedblleft" unicode="&#x201c;" 
d="M311 467q-4 -20 -23 -20h-29q-8 0 -13 6t-4 14l37 208q4 20 24 20h29q8 0 13 -6t3 -14zM469 467q-4 -20 -23 -20h-29q-8 0 -13 6t-4 14l37 208q4 20 24 20h29q8 0 13 -6t3 -14z" />
    <glyph glyph-name="quotedblright" unicode="&#x201d;" 
d="M311 467q-4 -20 -23 -20h-29q-8 0 -13 6t-4 14l37 208q4 20 24 20h29q8 0 13 -6t3 -14zM469 467q-4 -20 -23 -20h-29q-8 0 -13 6t-4 14l37 208q4 20 24 20h29q8 0 13 -6t3 -14z" />
    <glyph glyph-name="dagger" unicode="&#x2020;" 
d="M216 434q-9 0 -14 6t-3 14l4 25q4 20 24 20h80q20 0 24 20l27 156q4 20 24 20h29q8 0 13 -6t3 -14l-27 -156q-2 -8 3 -14t13 -6h80q8 0 13 -6t3 -14l-4 -25q-4 -20 -23 -20h-80q-20 0 -24 -20l-69 -394q-4 -20 -24 -20h-29q-8 0 -13 6t-3 14l69 394q2 8 -3 14t-13 6h-80z
" />
    <glyph glyph-name="bullet" unicode="&#x2022;" 
d="M398 256q-6 -33 -33.5 -56.5t-60.5 -23.5q-32 0 -51 23.5t-13 56.5q6 32 33.5 55t58.5 23q33 0 52.5 -23t13.5 -55z" />
    <glyph glyph-name="franc" unicode="&#x20a3;" 
d="M-24 137q-8 0 -13 6t-3 14l4 25q4 20 24 20h78q19 0 23 20l80 453q4 20 24 20h407q8 0 13 -6t3 -14l-5 -26q-4 -20 -23 -20h-338q-20 0 -24 -20l-36 -209q-2 -8 3 -14t13 -6h155q8 0 13 -6t3 -14l-4 -25q-4 -20 -23 -20h-155q-20 0 -24 -20l-13 -73q-1 -8 4 -14t13 -6h82
q8 0 13 -6t3 -14l-4 -25q-4 -20 -24 -20h-82q-19 0 -23 -20l-17 -97q-4 -20 -24 -20h-29q-8 0 -13 6t-3 14l17 97q1 8 -4 14t-13 6h-78z" />
    <glyph glyph-name="Euro" unicode="&#x20ac;" 
d="M111 234q-8 0 -13 6t-3 14l4 25q4 20 24 20h29q19 0 23 20l10 57q2 8 -3 14t-13 6h-29q-8 0 -13 6t-4 14l5 25q4 20 23 20h39q10 0 12 10l2 10q16 89 92 151.5t168 62.5q77 0 137 -39q10 -8 2 -18l-21 -31q-11 -14 -25 -6q-45 28 -105 28q-64 0 -116.5 -43.5
t-62.5 -104.5l-2 -10q-2 -10 8 -10h210q8 0 13 -6t4 -14l-5 -25q-4 -20 -23 -20h-200q-20 0 -24 -20l-10 -57q-1 -8 4 -14t13 -6h200q8 0 13 -6t3 -14l-4 -25q-4 -20 -24 -20h-210q-10 0 -12 -10l-1 -10q-11 -61 26 -104.5t101 -43.5q53 0 117 28q17 7 22 -8l8 -24
q2 -5 -1 -11.5t-10 -9.5q-87 -41 -148 -41q-92 0 -146 62.5t-38 151.5l1 10q2 10 -8 10h-39z" />
    <glyph glyph-name="minus" unicode="&#x2212;" 
d="M195 315q-8 0 -13 6t-4 14l4 25q4 20 24 20h269q8 0 13 -6t3 -14l-4 -25q-4 -20 -23 -20h-269z" />
    <glyph glyph-name="approxequal" unicode="&#x2248;" 
d="M302 344q-8 25 -30.5 36t-49.5 0q-41 -14 -50 -62q-2 -11 0 -29q2 -7 -6 -11l-46 -17q-12 -4 -14 8q-4 26 -1 50q8 40 35.5 73.5t68.5 49.5q54 17 101.5 -2.5t57.5 -70.5q6 -26 29.5 -38t48.5 -2q43 15 52 64q2 13 -1 28q-2 7 7 11l50 19q11 4 13 -8q3 -25 0 -48
q-8 -41 -37.5 -76.5t-69.5 -51.5q-55 -19 -99.5 3t-58.5 74zM263 124q-7 25 -30 36t-50 0q-19 -7 -32.5 -24t-17.5 -38q-2 -13 1 -29q0 -7 -7 -11l-46 -17q-12 -4 -14 8q-4 26 -1 50q8 40 35.5 73.5t68.5 49.5q54 17 101.5 -2.5t57.5 -70.5q6 -26 29.5 -38t48.5 -2
q44 16 53 64q1 10 -2 28q-2 7 7 11l50 19q5 1 9 -1t4 -7q4 -21 0 -48q-8 -41 -37.5 -76.5t-69.5 -51.5q-55 -19 -99 2.5t-59 74.5z" />
    <glyph glyph-name="notequal" unicode="&#x2260;" 
d="M284 156q-12 0 -19 -9l-55 -69q-9 -9 -19 -9h-24q-13 0 -16.5 9.5t4.5 20.5l28 34q6 8 3.5 15.5t-12.5 7.5h-7q-9 0 -14 6t-3 14l4 25q4 20 24 20h65q10 0 19 9l20 26q9 11 5.5 21t-16.5 10h-81q-8 0 -13 6t-4 14l5 25q1 8 8 14t15 6h147q10 0 19 9l61 77q9 9 19 9h24
q13 0 16.5 -9.5t-4.5 -20.5l-32 -40q-8 -8 -4.5 -16.5t13.5 -8.5h10q8 0 13 -6t4 -14l-5 -25q-4 -20 -23 -20h-70q-10 0 -19 -9l-21 -26q-8 -11 -4.5 -21t16.5 -10h86q8 0 13 -6t3 -14l-4 -25q-4 -20 -23 -20h-152z" />
    <glyph glyph-name="lessequal" unicode="&#x2264;" 
d="M145 32q-8 0 -13 6t-4 14l5 25q4 20 23 20h103q15 0 21.5 14.5t-5.5 22.5l-110 71q-9 7 -7 18l8 46q2 10 13 17l298 164q12 7 20.5 1.5t6.5 -18.5l-5 -28q0 -10 -12 -17l-219 -126q-11 -7 -13 -17t7 -17l175 -125q8 -6 6 -17l-6 -34q-4 -20 -23 -20h-269z" />
    <glyph glyph-name="greaterequal" unicode="&#x2265;" 
d="M425 97q8 0 13 -6t4 -14l-5 -25q-4 -20 -23 -20h-269q-8 0 -13 6t-4 14l6 34q2 9 12 17l220 125q11 7 12.5 17t-6.5 17l-175 126q-7 5 -7 17l5 28q2 13 13 18.5t21 -1.5l240 -164q8 -6 6 -17l-8 -46q-2 -11 -13 -18l-135 -71q-14 -8 -13 -22.5t17 -14.5h102z" />
    <glyph glyph-name="commaaccent" unicode="&#xf6c3;" 
d="M279 -263q-4 -20 -24 -20h-29q-8 0 -13 6t-3 14l16 94q2 10 -7 16q-22 15 -16 44q4 21 21.5 36t38.5 15q22 0 34.5 -15t8.5 -36z" />
    <glyph glyph-name="NULL" horiz-adv-x="0" 
 />
    <glyph glyph-name="Q.alt" 
d="M582 481l-12 -69q-16 -88 -94 -151t-168 -63q-8 0 -24 2q-5 0 -9 -4l-92 -77q-4 -3 -2.5 -7.5t6.5 -4.5q40 0 79 -11q126 -47 214 -21q11 3 19.5 -3.5t7.5 -16.5l-4 -21q-2 -13 -18 -19q-102 -30 -186 -4q-126 47 -214 21q-11 -3 -19 4t-7 17l5 26q0 6 8 14l124 103
q9 8 8.5 19t-8.5 16q-43 29 -63 77t-10 104l12 69q16 88 94 151t167 63q90 0 146 -63t40 -151zM501 412l12 69q10 61 -28.5 104.5t-100.5 43.5t-116 -43.5t-64 -104.5l-12 -69q-11 -61 27 -105t100 -44t116.5 44t65.5 105z" />
  </font>
</defs>
</svg>
