<?xml version="1.0" standalone="no"?>
<!DOCTYPE svg PUBLIC "-//W3C//DTD SVG 1.1//EN" "http://www.w3.org/Graphics/SVG/1.1/DTD/svg11.dtd" >
<svg xmlns="http://www.w3.org/2000/svg" xmlns:xlink="http://www.w3.org/1999/xlink" version="1.1">
<metadata>
Created by FontForge 20170731 at Sat Feb  6 19:25:35 2016
 By Aleksey,,,
Copyright (c) 2016 by Valerio Dell'Edera. All rights reserved.
</metadata>
<defs>
<font id="Monique-Regular" horiz-adv-x="547" >
  <font-face 
    font-family="Monique"
    font-weight="400"
    font-stretch="normal"
    units-per-em="1000"
    panose-1="2 0 0 9 0 0 0 0 0 0"
    ascent="800"
    descent="-200"
    x-height="447"
    cap-height="695"
    bbox="-92 -283 1591 1011"
    underline-thickness="50"
    underline-position="-200"
    unicode-range="U+000D-FB06"
  />
<missing-glyph 
 />
    <glyph glyph-name="ff" unicode="ff" horiz-adv-x="1094" 
d="M1044 398v-68h-252v-330h-68v330h-479v-330h-68v330h-127v68h127v137q0 66 46.5 113t113.5 47q66 0 113 -47t47 -113h-69q0 37 -27 64t-64 27q-38 0 -65 -26.5t-27 -64.5v-137h479v137q0 66 46.5 113t113.5 47q66 0 113 -47t47 -113h-69q0 37 -26.5 64t-64.5 27
t-65 -26.5t-27 -64.5v-137h252z" />
    <glyph glyph-name="fi" unicode="fi" horiz-adv-x="1094" 
d="M855 398v-329h189v-69h-447v69h189v261h-541v-330h-68v330h-127v68h127v137q0 66 46.5 113t113.5 47q66 0 113 -47t47 -113h-69q0 37 -27 64t-64 27q-38 0 -65 -26.5t-27 -64.5v-137h610zM872 614q0 -22 -15 -37t-37 -15q-21 0 -36 15t-15 37q0 21 15 36t36 15
q22 0 37 -15t15 -36z" />
    <glyph glyph-name="ffi" unicode="ffi" horiz-adv-x="1641" 
d="M1402 398v-329h189v-69h-447v69h189v261h-541v-330h-68v330h-479v-330h-68v330h-127v68h127v137q0 66 46.5 113t113.5 47q66 0 113 -47t47 -113h-69q0 37 -27 64t-64 27q-38 0 -65 -26.5t-27 -64.5v-137h479v137q0 66 46.5 113t113.5 47q66 0 113 -47t47 -113h-69
q0 37 -26.5 64t-64.5 27t-65 -26.5t-27 -64.5v-137h610zM1419 614q0 -22 -15 -37t-37 -15q-21 0 -36 15t-15 37q0 21 15 36t36 15q22 0 37 -15t15 -36z" />
    <glyph glyph-name="s_t" unicode="st" horiz-adv-x="1094" 
d="M792 447h252v-69h-252v-218q0 -38 27 -64.5t65 -26.5t64.5 26.5t26.5 64.5h69q0 -66 -47 -113t-113 -47q-67 0 -113.5 47t-46.5 113v218h-451q-65 0 -110 -18t-45 -44q0 -59 155 -59q112 0 168 -36.5t56 -94.5q0 -52 -65 -89t-159 -37q-91 0 -157 37.5t-66 88.5h68
q0 -26 45 -44.5t110 -18.5t110.5 18.5t45.5 44.5q0 63 -156 63q-110 0 -166.5 36t-56.5 91q0 54 66 92.5t157 38.5h451v127h68v-127z" />
    <glyph glyph-name="c_k" unicode="ck" horiz-adv-x="1094" 
d="M571 695h95v-469l283 221h95l-198 -158l198 -289h-78l-168 250l-132 -106v-144h-69v626h-26q-67 0 -113.5 -45t-46.5 -110q0 -42 22 -78q43 -35 64 -83l-67 -27q-17 42 -57.5 68.5t-90.5 26.5q-67 0 -113.5 -45t-46.5 -110q0 -64 46.5 -109t113.5 -45q50 0 90.5 26.5
t57.5 68.5l67 -27q-27 -61 -85.5 -99t-129.5 -38q-96 0 -164 65.5t-68 157.5q0 93 68 158.5t164 65.5q29 0 59 -8q-2 10 -2 32q0 93 68 158.5t164 65.5z" />
    <glyph glyph-name="f_t" unicode="ft" horiz-adv-x="1094" 
d="M792 398h252v-68h-252v-170q0 -38 27 -64.5t65 -26.5t64.5 26.5t26.5 64.5h69q0 -66 -47 -113t-113 -47q-67 0 -113.5 47t-46.5 113v170h-479v-330h-68v330h-127v68h127v137q0 66 46.5 113t113.5 47q66 0 113 -47t47 -113h-69q0 37 -27 64t-64 27q-38 0 -65 -26.5
t-27 -64.5v-137h479v176h68v-176z" />
    <glyph glyph-name=".notdef" 
 />
    <glyph glyph-name=".null" horiz-adv-x="0" 
 />
    <glyph glyph-name="nonmarkingreturn" horiz-adv-x="333" 
 />
    <glyph glyph-name="CR" unicode="&#xd;" 
 />
    <glyph glyph-name="CR" 
 />
    <glyph glyph-name="space" unicode=" " 
 />
    <glyph glyph-name="exclam" unicode="!" 
d="M240 221v474h66v-474h-66zM325 52q0 -22 -15 -37t-37 -15q-21 0 -36 15t-15 37q0 21 15 36t36 15q22 0 37 -15t15 -36z" />
    <glyph glyph-name="quotedbl" unicode="&#x22;" 
d="M229 447h-69v248h69v-248zM387 447h-69v248h69v-248z" />
    <glyph glyph-name="numbersign" unicode="#" 
d="M222 0l45 155h-102l-45 -155h-70l45 155h-45v66h64l66 226h-61v66h80l53 182h73l-54 -182h102l54 182h70l-53 -182h53v-66h-72l-66 -226h69v-66h-88l-45 -155h-73zM252 447l-67 -226h102l67 226h-102z" />
    <glyph glyph-name="dollar" unicode="$" 
d="M240 693v102h66v-103q80 -11 135.5 -64t55.5 -124h-69q0 44 -35 78t-87 44v-252q83 -19 137 -67.5t54 -116.5q0 -71 -55.5 -124t-135.5 -64v-102h-66v102q-80 10 -135 63.5t-55 125.5h69q0 -44 34.5 -78t86.5 -43v250q-83 18 -136.5 66.5t-53.5 117.5q0 71 55 124.5
t135 64.5zM119 504q0 -42 34 -73.5t87 -44.5v240q-52 -10 -86.5 -44t-34.5 -78zM428 190q0 42 -34 73t-88 44v-237q52 9 87 42.5t35 77.5z" />
    <glyph glyph-name="percent" unicode="%" 
d="M497 622l-373 -553h-74l373 553h74zM111 499q-25 0 -43 17.5t-18 43.5t18 44t43 18t43.5 -18t18.5 -44q0 -25 -18 -43t-44 -18zM435 69q-25 0 -43 17.5t-18 43.5t18 44t43 18t43.5 -18t18.5 -44q0 -25 -18 -43t-44 -18z" />
    <glyph glyph-name="ampersand" unicode="&#x26;" 
d="M428 0v52q-65 -52 -154 -52q-93 0 -158.5 55.5t-65.5 134.5q0 49 26.5 90.5t72.5 67.5q-45 26 -72 67.5t-27 89.5q0 78 66 134t158 56q91 0 157 -56t66 -134h-69q0 51 -45.5 87.5t-108.5 36.5t-109 -36.5t-46 -87.5q0 -50 44 -86.5t105 -38.5h229v-380h-69zM274 66
q63 0 108.5 36t45.5 88v125h-154q-65 0 -110 -36t-45 -89q0 -52 45 -88t110 -36z" />
    <glyph glyph-name="quotesingle" unicode="'" 
d="M308 447h-69v248h69v-248z" />
    <glyph glyph-name="parenleft" unicode="(" 
d="M428 777q-115 -116 -156 -270.5t0 -309t156 -270.5q-7 -7 -26.5 -21.5t-26.5 -21.5q-127 127 -172.5 297.5t0 341t172.5 297.5q7 -7 26.5 -21.5t26.5 -21.5z" />
    <glyph glyph-name="parenright" unicode=")" 
d="M119 777q7 7 26.5 21.5t26.5 21.5q127 -127 172.5 -297.5t0 -341t-172.5 -297.5q-7 7 -26.5 21.5t-26.5 21.5q115 116 156 270.5t0 309t-156 270.5z" />
    <glyph glyph-name="asterisk" unicode="*" 
d="M119 231v65h122v112h65v-112h122v-65h-96l56 -105l-54 -31l-61 104l-59 -104l-55 31l55 105h-95z" />
    <glyph glyph-name="plus" unicode="+" 
d="M119 221v65h122v122h65v-122h122v-65h-122v-122h-65v122h-122z" />
    <glyph glyph-name="comma" unicode="," 
d="M308 -122h-69v125q-34 12 -34 49q0 21 15 36t36 15q22 0 37 -15t15 -36v-174z" />
    <glyph glyph-name="hyphen" unicode="-" 
d="M119 221v65h309v-65h-309z" />
    <glyph glyph-name="period" unicode="." 
d="M325 52q0 -22 -15 -37t-37 -15q-21 0 -36 15t-15 37q0 21 15 36t36 15q22 0 37 -15t15 -36z" />
    <glyph glyph-name="slash" unicode="/" 
d="M497 795l-373 -895h-74l373 895h74z" />
    <glyph glyph-name="zero" unicode="0" 
d="M273 695q93 0 158.5 -102t65.5 -246t-65.5 -246t-158.5 -102q-92 0 -157.5 102t-65.5 246t65.5 246t157.5 102zM273 64q65 0 110 83t45 200t-45 199.5t-110 82.5q-63 0 -108.5 -82.5t-45.5 -199.5t45.5 -200t108.5 -83z" />
    <glyph glyph-name="one" unicode="1" 
d="M497 69v-69h-447v69h189v560h-120v66h189v-626h189z" />
    <glyph glyph-name="two" unicode="2" 
d="M270 695q96 0 161.5 -62.5t65.5 -151.5q0 -66 -39 -114t-94.5 -76.5t-111 -56t-94.5 -69t-39 -99.5h378v-66h-447v66q0 54 21 95.5t54 67.5t73.5 47t81 40t73.5 40t54 52.5t21 72.5q0 62 -45 105t-113 43q-49 0 -90.5 -20t-60.5 -53l-58 33q28 48 85 77t124 29z" />
    <glyph glyph-name="three" unicode="3" 
d="M273 695q92 0 158 -56t66 -134q0 -48 -27 -89.5t-72 -67.5q46 -26 72.5 -67.5t26.5 -90.5q0 -79 -65.5 -134.5t-158.5 -55.5q-92 0 -157.5 55.5t-65.5 134.5h69q0 -52 45.5 -88t108.5 -36q65 0 110 36t45 88q0 53 -45 89t-110 36h-123v65h129q61 2 105 38.5t44 86.5
q0 51 -46 87.5t-109 36.5t-108.5 -36.5t-45.5 -87.5h-69q0 78 66 134t157 56z" />
    <glyph glyph-name="four" unicode="4" 
d="M497 222v-66h-107v-156h-69v156h-271v66l271 473h69v-473h107zM119 222h202v346z" />
    <glyph glyph-name="five" unicode="5" 
d="M119 410h163q89 0 152 -60t63 -145t-65.5 -145t-155.5 -60t-158 60.5t-68 144.5h69q0 -57 47.5 -98t109.5 -41t107 41t45 98q0 58 -42.5 98.5t-103.5 40.5h-232v351h447v-66h-378v-219z" />
    <glyph glyph-name="six" unicode="6" 
d="M52 248q-12 208 55.5 327.5t212.5 119.5q39 0 74.5 -10.5t51.5 -20.5l17 -10l-30 -52q-63 27 -110 27q-96 0 -150 -75t-54 -186q57 52 141 57q96 5 164 -53t73 -147q4 -88 -58.5 -154t-153.5 -71t-158.5 63t-74.5 185zM268 356q-61 -3 -101.5 -47.5t-37.5 -104.5
q4 -59 49.5 -98.5t106.5 -35.5q62 3 104.5 47.5t38.5 103.5q-3 61 -47.5 100t-112.5 35z" />
    <glyph glyph-name="seven" unicode="7" 
d="M497 695v-66l-238 -629h-68l237 629h-378v66h447z" />
    <glyph glyph-name="eight" unicode="8" 
d="M400 347q45 -25 71 -66.5t26 -89.5q0 -79 -65 -135t-157 -56q-94 0 -159.5 55.5t-65.5 135.5q0 48 26.5 89.5t71.5 66.5q-45 26 -71.5 67.5t-26.5 90.5q0 79 65.5 134.5t159.5 55.5q92 0 157 -55.5t65 -134.5q0 -49 -26 -90.5t-71 -67.5zM119 505q0 -52 46 -88.5
t110 -36.5q63 0 108 36.5t45 88.5q0 51 -45.5 87.5t-107.5 36.5q-64 0 -110 -36.5t-46 -87.5zM275 66q63 0 108 36.5t45 88.5q0 51 -45.5 87.5t-107.5 36.5q-64 0 -110 -36.5t-46 -87.5q0 -52 46 -88.5t110 -36.5z" />
    <glyph glyph-name="nine" unicode="9" 
d="M495 447q12 -208 -55.5 -327.5t-212.5 -119.5q-39 0 -74.5 10t-52.5 20l-16 11l30 52q63 -27 110 -27q96 0 150 75t54 186q-57 -52 -141 -57q-96 -5 -164 53t-73 147q-4 88 58.5 154t153.5 71t158.5 -63t74.5 -185zM279 339q61 3 101.5 47.5t37.5 104.5q-4 59 -49.5 98.5
t-106.5 35.5q-62 -3 -104.5 -47.5t-38.5 -103.5q3 -61 47.5 -100t112.5 -35z" />
    <glyph glyph-name="colon" unicode=":" 
d="M325 72q0 -22 -15 -37t-37 -15q-21 0 -36 15t-15 37q0 21 15 36t36 15q22 0 37 -15t15 -36zM325 376q0 -22 -15 -37t-37 -15q-21 0 -36 15t-15 37q0 21 15 36t36 15q22 0 37 -15t15 -36z" />
    <glyph glyph-name="semicolon" unicode=";" 
d="M325 376q0 -22 -15 -37t-37 -15q-21 0 -36 15t-15 37q0 21 15 36t36 15q22 0 37 -15t15 -36zM325 -102h-69v125q-34 12 -34 49q0 21 15 36t36 15q22 0 37 -15t15 -36v-174z" />
    <glyph glyph-name="less" unicode="&#x3c;" 
d="M428 469v-75l-233 -149l233 -148v-75l-309 189v69z" />
    <glyph glyph-name="equal" unicode="=" 
d="M119 287v65h309v-65h-309zM119 156v65h309v-65h-309z" />
    <glyph glyph-name="greater" unicode="&#x3e;" 
d="M119 394v75l309 -189v-69l-309 -189v75l233 148z" />
    <glyph glyph-name="question" unicode="?" 
d="M306 181h-66q0 44 19.5 74.5t47 49t55 38.5t47 54.5t19.5 83.5q0 62 -45 105t-113 43q-47 0 -89 -24.5t-62 -58.5l-58 33q29 50 86.5 83t122.5 33q96 0 161.5 -62.5t65.5 -151.5q0 -56 -19.5 -98.5t-48 -67.5t-56.5 -44.5t-47.5 -41.5t-19.5 -48zM325 52q0 -22 -15 -37
t-37 -15q-21 0 -36 15t-15 37q0 21 15 36t36 15q22 0 37 -15t15 -36z" />
    <glyph glyph-name="at" unicode="@" 
d="M50 332v81q65 34 141 34q126 0 216 -90t90 -216q0 -78 -47.5 -120t-102.5 -38q-27 2 -51 19t-36 40q-44 -43 -100 -43q-45 0 -70.5 21.5t-25.5 60.5q0 30 21 58t78 38q29 6 88 0q-1 29 -16.5 48t-43.5 19q-41 0 -60 -40l-54 25q15 32 46 52t68 20q53 0 91 -37.5t38 -89.5
v-90q0 -39 39 -41q37 0 53 32t16 66q0 95 -71.5 167t-165.5 72q-79 0 -141 -48zM250 100v24q-52 4 -71 1q-21 -5 -32 -13.5t-12 -13t-1 -11.5q0 -29 38 -29q48 0 78 42z" />
    <glyph glyph-name="A" unicode="A" 
d="M497 0h-74l-48 181h-202l-48 -181h-73l188 694h69zM274 564l-84 -317h168z" />
    <glyph glyph-name="B" unicode="B" 
d="M50 0v695h234q88 0 150.5 -55.5t62.5 -134.5q0 -48 -25 -89.5t-68 -68.5q43 -26 68 -67t25 -90q0 -79 -62.5 -134.5t-150.5 -55.5h-234zM428 190q0 52 -42 88.5t-102 36.5h-165v-249h165q60 0 102 36t42 88zM428 505q0 51 -42 87.5t-102 36.5h-165v-249h165
q60 0 102 36.5t42 88.5z" />
    <glyph glyph-name="C" unicode="C" 
d="M272 66q65 0 110.5 43.5t45.5 104.5h69q0 -88 -66 -151t-159 -63q-92 0 -157 62.5t-65 151.5v267q0 89 65 151.5t157 62.5q93 0 159 -63t66 -151h-69q0 61 -45.5 104.5t-110.5 43.5q-64 0 -108.5 -43t-44.5 -105v-267q0 -62 44.5 -105t108.5 -43z" />
    <glyph glyph-name="D" unicode="D" 
d="M50 695h165q133 0 207.5 -92.5t74.5 -252.5q0 -161 -74.5 -255.5t-207.5 -94.5h-165v695zM119 66h96q101 0 157 78.5t56 203.5t-56 203t-157 78h-96v-563z" />
    <glyph glyph-name="E" unicode="E" 
d="M50 0v695h447v-66h-378v-249h195v-65h-195v-249h378v-66h-447z" />
    <glyph glyph-name="F" unicode="F" 
d="M50 0v695h447v-66h-378v-249h195v-65h-195v-315h-69z" />
    <glyph glyph-name="G" unicode="G" 
d="M272 315v65h225v-166q0 -88 -66 -151t-159 -63q-92 0 -157 62.5t-65 151.5v267q0 89 65 151.5t157 62.5q93 0 159 -63t66 -151h-69q0 61 -45.5 104.5t-110.5 43.5q-64 0 -108.5 -43t-44.5 -105v-267q0 -62 44.5 -105t108.5 -43q65 0 110.5 43.5t45.5 104.5v101h-156z" />
    <glyph glyph-name="H" unicode="H" 
d="M497 695v-695h-69v315h-309v-315h-69v695h69v-315h309v315h69z" />
    <glyph glyph-name="I" unicode="I" 
d="M50 629v66h447v-66h-191v-563h191v-66h-447v66h190v563h-190z" />
    <glyph glyph-name="J" unicode="J" 
d="M497 695v-481q0 -87 -71 -150.5t-161 -63.5q-72 0 -129 33t-86 84l57 33q20 -34 65 -59t93 -25q63 0 113 44t50 104v415h-277v66h346z" />
    <glyph glyph-name="K" unicode="K" 
d="M118 695v-315h145l164 315h70l-181 -344l181 -351h-70l-161 314h-148v-314h-68v695h68z" />
    <glyph glyph-name="L" unicode="L" 
d="M50 0v695h69v-629h378v-66h-447z" />
    <glyph glyph-name="M" unicode="M" 
d="M428 695h69v-695h-69v512l-120 -264h-69l-120 264v-512h-69v695h69l154 -356z" />
    <glyph glyph-name="N" unicode="N" 
d="M428 695h69v-695h-69l-309 569v-569h-69v695h69l309 -562v562z" />
    <glyph glyph-name="O" unicode="O" 
d="M497 481v-268q0 -88 -68 -151t-158 -63q-89 0 -155 63t-66 151v268q0 88 66 151t155 63q90 0 158 -63t68 -151zM428 213v268q0 61 -47.5 104.5t-109.5 43.5t-107 -43.5t-45 -104.5v-268q0 -61 45 -104.5t107 -43.5t109.5 43.5t47.5 104.5z" />
    <glyph glyph-name="P" unicode="P" 
d="M283 629h-164v-291h164q60 0 102.5 42.5t42.5 102.5q0 61 -42.5 103.5t-102.5 42.5zM50 695h233q87 0 150.5 -62.5t63.5 -149.5t-63.5 -149t-150.5 -62h-164v-272h-69v695z" />
    <glyph glyph-name="Q" unicode="Q" 
d="M383 -35q-18 38 -56 41q-25 -7 -56 -7q-89 0 -155 63t-66 151v268q0 88 66 151t155 63q90 0 158 -63t68 -151v-268q0 -105 -92 -170q27 -20 40 -53q10 -26 36 -38t49 -2l25 -62q-52 -19 -100 2.5t-72 74.5zM428 213v268q0 61 -47.5 104.5t-109.5 43.5t-107 -43.5
t-45 -104.5v-268q0 -61 45 -104.5t107 -43.5t109.5 43.5t47.5 104.5z" />
    <glyph glyph-name="R" unicode="R" 
d="M50 695h233q87 0 150.5 -62.5t63.5 -149.5q0 -70 -43.5 -126t-109.5 -76l153 -281h-78l-148 272h-152v-272h-69v695zM283 629h-164v-291h164q60 0 102.5 42.5t42.5 102.5q0 61 -42.5 103.5t-102.5 42.5z" />
    <glyph glyph-name="S" unicode="S" 
d="M272 380q96 -14 160.5 -64.5t64.5 -125.5q0 -79 -67 -134.5t-158 -55.5q-90 0 -156 56t-66 135h69q0 -51 45.5 -87.5t107.5 -36.5q63 0 109.5 36t46.5 87q0 49 -45 82t-111 42q-94 13 -158 64t-64 126q0 79 66 135t156 56q91 0 158 -56t67 -135h-69q0 51 -46.5 88
t-109.5 37q-62 0 -107.5 -37t-45.5 -88q0 -49 44.5 -82t108.5 -42z" />
    <glyph glyph-name="T" unicode="T" 
d="M50 629v66h447v-66h-191v-629h-66v629h-190z" />
    <glyph glyph-name="U" unicode="U" 
d="M428 695h69v-481q0 -88 -68 -151t-158 -63q-89 0 -155 63t-66 151v481h69v-481q0 -61 45 -104.5t107 -43.5t109.5 43.5t47.5 104.5v481z" />
    <glyph glyph-name="V" unicode="V" 
d="M274 140l154 555h70l-189 -695h-70l-189 695h69z" />
    <glyph glyph-name="W" unicode="W" 
d="M358 178l70 517h69l-107 -695h-57l-60 268l-72 -268h-52l-99 695h69l68 -517l53 177h66z" />
    <glyph glyph-name="X" unicode="X" 
d="M308 351l189 -351h-69l-155 279l-154 -279h-69l189 350v1l-189 344h69l154 -274l155 274h69z" />
    <glyph glyph-name="Y" unicode="Y" 
d="M497 695l-191 -348v-347h-66v348l-190 347h69l154 -274l155 274h69z" />
    <glyph glyph-name="Z" unicode="Z" 
d="M497 695v-66l-368 -563h368v-66h-447v66l368 563h-368v66h447z" />
    <glyph glyph-name="bracketleft" unicode="[" 
d="M169 -100v895h209v-66h-143v-763h143v-66h-209z" />
    <glyph glyph-name="backslash" unicode="\" 
d="M423 -100l-373 895h74l373 -895h-74z" />
    <glyph glyph-name="bracketright" unicode="]" 
d="M378 795v-895h-209v66h143v763h-143v66h209z" />
    <glyph glyph-name="asciicircum" unicode="^" 
d="M497 380h-75l-149 239l-148 -239h-75l189 315h69z" />
    <glyph glyph-name="underscore" unicode="_" 
d="M50 0v69h447v-69h-447z" />
    <glyph glyph-name="grave" unicode="`" 
d="M308 548l-49 -49l-176 175l49 49z" />
    <glyph glyph-name="a" unicode="a" 
d="M428 259v-120q0 -29 20.5 -50t48.5 -21v-68q-40 0 -73.5 21.5t-50.5 55.5q-75 -77 -181 -77q-67 0 -104.5 32t-37.5 90q0 19 5.5 37t19.5 40t45 39t76 25q50 9 164 -1q-1 48 -37 82t-85 34q-35 0 -65 -19t-44 -49l-61 29q23 49 69 78.5t101 29.5q78 0 134 -55t56 -133z
M360 153v50q-100 10 -147 2q-33 -6 -54.5 -17t-29 -25t-9 -21t-1.5 -17t1.5 -16.5t7.5 -18t23.5 -17.5t45.5 -6q99 0 163 86z" />
    <glyph glyph-name="b" unicode="b" 
d="M273 447q93 0 158.5 -65.5t65.5 -158.5q0 -92 -65.5 -157.5t-158.5 -65.5q-90 0 -154 62v-62h-69v695h69v-310q65 62 154 62zM273 69q64 0 109.5 45t45.5 109q0 65 -45 110t-110 45q-63 0 -108.5 -44.5t-45.5 -110.5q0 -64 45 -109t109 -45z" />
    <glyph glyph-name="c" unicode="c" 
d="M430 164l67 -27q-27 -61 -85.5 -99t-129.5 -38q-96 0 -164 65.5t-68 157.5q0 93 68 158.5t164 65.5q71 0 129.5 -38t85.5 -99l-67 -27q-17 42 -57.5 68.5t-90.5 26.5q-67 0 -113.5 -45t-46.5 -110q0 -64 46.5 -109t113.5 -45q50 0 90.5 26.5t57.5 68.5z" />
    <glyph glyph-name="d" unicode="d" 
d="M274 447q89 0 154 -62v310h69v-695h-69v62q-64 -62 -154 -62q-93 0 -158.5 65.5t-65.5 157.5q0 93 65.5 158.5t158.5 65.5zM274 69q64 0 109 45t45 109q0 66 -45.5 110.5t-108.5 44.5q-64 0 -109.5 -45t-45.5 -110q0 -64 45.5 -109t109.5 -45z" />
    <glyph glyph-name="e" unicode="e" 
d="M407 146l60 -34q-30 -51 -81.5 -81.5t-112.5 -30.5q-92 0 -157.5 65.5t-65.5 157.5q0 93 65.5 158.5t157.5 65.5q103 0 170.5 -81t50.5 -177h-371q11 -52 53.5 -86t96.5 -34q43 0 78.5 21t55.5 56zM123 258h301q-11 52 -53.5 86t-97.5 34q-54 0 -96.5 -34t-53.5 -86z" />
    <glyph glyph-name="f" unicode="f" 
d="M497 398v-68h-252v-330h-68v330h-127v68h127v137q0 66 46.5 113t113.5 47q66 0 113 -47t47 -113h-69q0 37 -27 64t-64 27q-38 0 -65 -26.5t-27 -64.5v-137h252z" />
    <glyph glyph-name="g" unicode="g" 
d="M428 -25v87q-64 -62 -155 -62q-92 0 -157.5 65.5t-65.5 157.5q0 93 65.5 158.5t157.5 65.5q90 0 155 -62v62h69v-472q0 -92 -65.5 -157.5t-158.5 -65.5q-61 0 -112 30.5t-81 81.5l59 34q21 -35 56.5 -56t77.5 -21q64 0 109.5 45t45.5 109zM273 69q63 0 107.5 42.5
t47.5 104.5q0 69 -45 115.5t-110 46.5q-64 0 -109 -45.5t-45 -109.5t45 -109t109 -45z" />
    <glyph glyph-name="h" unicode="h" 
d="M497 223v-223h-69v223q0 65 -45 110t-110 45q-62 0 -107 -43.5t-47 -105.5v-229h-69v695h69v-310q65 62 154 62q93 0 158.5 -65.5t65.5 -158.5z" />
    <glyph glyph-name="i" unicode="i" 
d="M308 447v-378h189v-69h-447v69h189v309h-141v69h210zM325 614q0 -22 -15 -37t-37 -15q-21 0 -36 15t-15 37q0 21 15 36t36 15q22 0 37 -15t15 -36z" />
    <glyph glyph-name="j" unicode="j" 
d="M147 378v69h321v-472q0 -93 -66 -158.5t-158 -65.5q-61 0 -112.5 30.5t-81.5 81.5l60 34q20 -35 55.5 -56t78.5 -21q64 0 109.5 45.5t45.5 109.5v403h-252zM485 614q0 -22 -15 -37t-37 -15q-21 0 -36 15t-15 37q0 21 15 36t36 15q22 0 37 -15t15 -36z" />
    <glyph glyph-name="k" unicode="k" 
d="M497 447l-198 -158l198 -289h-78l-168 250l-132 -106v-144h-69v695h69v-469l283 221h95z" />
    <glyph glyph-name="l" unicode="l" 
d="M497 69v-69h-447v69h189v560h-120v66h189v-626h189z" />
    <glyph glyph-name="m" unicode="m" 
d="M368 447q53 0 91 -38t38 -91v-318h-67v318q0 26 -18 44t-44 18q-25 0 -43 -18t-18 -44v-318h-69v318q0 25 -17.5 42.5t-42.5 17.5t-42 -17.5t-17 -42.5v-318h-69v447h69v-15q27 15 59 15q58 0 95 -42q39 42 95 42z" />
    <glyph glyph-name="n" unicode="n" 
d="M273 447q93 0 158.5 -65.5t65.5 -158.5v-223h-69v223q0 65 -45 110t-110 45q-64 0 -109 -45t-45 -109v-224h-69v447h69v-62q65 62 154 62z" />
    <glyph glyph-name="o" unicode="o" 
d="M273 447q93 0 158.5 -65.5t65.5 -158.5q0 -92 -65.5 -157.5t-158.5 -65.5q-92 0 -157.5 65.5t-65.5 157.5q0 93 65.5 158.5t157.5 65.5zM273 69q64 0 109.5 45t45.5 109q0 65 -45 110t-110 45q-64 0 -109 -45.5t-45 -109.5t45 -109t109 -45z" />
    <glyph glyph-name="p" unicode="p" 
d="M497 224q0 -93 -65.5 -158.5t-158.5 -65.5q-90 0 -154 62v-310h-69v695h69v-62q65 62 154 62q93 0 158.5 -65.5t65.5 -157.5zM428 224q0 64 -45.5 109.5t-109.5 45.5q-63 0 -108.5 -44t-45.5 -105q0 -68 45 -114.5t109 -46.5q65 0 110 45.5t45 109.5z" />
    <glyph glyph-name="q" unicode="q" 
d="M50 224q0 92 65.5 157.5t158.5 65.5q89 0 154 -62v62h69v-695h-69v310q-64 -62 -154 -62q-93 0 -158.5 65.5t-65.5 158.5zM119 224q0 -64 45.5 -109.5t109.5 -45.5t109 46.5t45 114.5q0 61 -45.5 105t-108.5 44q-64 0 -109.5 -45.5t-45.5 -109.5z" />
    <glyph glyph-name="r" unicode="r" 
d="M387 378q-64 0 -109 -45t-45 -109v-155h167v-69h-350v69h114v309h-114v69h183v-62q65 62 154 62q61 0 110 -29l-33 -60q-34 20 -77 20z" />
    <glyph glyph-name="s" unicode="s" 
d="M273 257q112 0 168 -36.5t56 -94.5q0 -52 -65 -89t-159 -37q-91 0 -157 37.5t-66 88.5h68q0 -26 45 -44.5t110 -18.5t110.5 18.5t45.5 44.5q0 63 -156 63q-110 0 -166.5 36t-56.5 91q0 54 66 92.5t157 38.5q95 0 159.5 -38t64.5 -93h-68q0 26 -46 47t-110 21t-109.5 -21
t-45.5 -47q0 -59 155 -59z" />
    <glyph glyph-name="t" unicode="t" 
d="M245 447h252v-69h-252v-218q0 -38 27 -64.5t65 -26.5q37 0 64 26.5t27 64.5h69q0 -66 -47 -113t-113 -47q-67 0 -113.5 47t-46.5 113v218h-127v69h127v127h68v-127z" />
    <glyph glyph-name="u" unicode="u" 
d="M274 0q-93 0 -158.5 65.5t-65.5 158.5v223h69v-223q0 -64 45.5 -109.5t109.5 -45.5t109 45t45 109v224h69v-447h-69v62q-65 -62 -154 -62z" />
    <glyph glyph-name="v" unicode="v" 
d="M273 91l150 356h74l-189 -447h-69l-189 447h74z" />
    <glyph glyph-name="w" unicode="w" 
d="M345 91l79 356h73l-115 -447h-68l-41 187l-40 -187h-68l-115 447h73l79 -356l42 187h59z" />
    <glyph glyph-name="x" unicode="x" 
d="M413 447h84l-185 -224l185 -223h-84l-140 173l-140 -173h-83l184 223l-184 224h83l140 -173z" />
    <glyph glyph-name="y" unicode="y" 
d="M273 91l150 356h74l-294 -695h-73l107 252l-187 443h74z" />
    <glyph glyph-name="z" unicode="z" 
d="M497 447v-69l-354 -309h354v-69h-447v69l354 309h-354v69h447z" />
    <glyph glyph-name="braceleft" unicode="{" 
d="M462 795v-67q-64 0 -109.5 -47t-45.5 -112v-34q0 -59 -28.5 -109t-76.5 -80q48 -30 76.5 -80t28.5 -108v-36q0 -64 46 -109.5t111 -45.5v-67q-93 0 -158.5 65t-65.5 157v36q0 62 -44 107t-107 48h-6v67q65 0 111 45.5t46 109.5v34q0 93 65 159.5t157 66.5z" />
    <glyph glyph-name="bar" unicode="|" 
d="M240 -100v895h66v-895h-66z" />
    <glyph glyph-name="braceright" unicode="}" 
d="M85 728v67q92 0 157 -66.5t65 -159.5v-34q0 -64 46 -109.5t111 -45.5v-67h-6q-63 -3 -107 -48t-44 -107v-36q0 -92 -65.5 -157t-158.5 -65v67q65 0 111 45.5t46 109.5v36q0 58 28.5 108t76.5 80q-48 30 -76.5 80t-28.5 109v34q0 65 -45.5 112t-109.5 47z" />
    <glyph glyph-name="asciitilde" unicode="~" 
d="M241 234q-11 25 -36 36t-50 0q-39 -15 -39 -62q0 -13 8 -37l-61 -24q-14 34 -14 62q0 40 22 73.5t60 49.5q50 17 101.5 -2.5t70.5 -70.5q10 -26 36 -38t49 -2q41 16 41 64q0 9 -9 36l65 26q12 -33 12 -60q0 -41 -23.5 -76.5t-60.5 -51.5q-52 -19 -100 2.5t-72 74.5z" />
    <glyph glyph-name="exclamdown" unicode="&#xa1;" 
d="M307 474v-474h-66v474h66zM222 643q0 22 15 37t37 15q21 0 36 -15t15 -37q0 -21 -15 -36t-36 -15q-22 0 -37 15t-15 36z" />
    <glyph glyph-name="cent" unicode="&#xa2;" 
d="M240 -70v73q-82 14 -136 76.5t-54 143.5q0 82 54 144t136 76v74h66v-71q64 -7 115.5 -44t75.5 -92l-67 -27q-15 37 -48.5 62t-75.5 31v-306q42 6 75.5 31.5t48.5 62.5l67 -27q-24 -56 -75.5 -93t-115.5 -43v-71h-66zM122 223q0 -53 33 -94t85 -55v298q-52 -13 -85 -54
t-33 -95z" />
    <glyph glyph-name="sterling" unicode="&#xa3;" 
d="M359 340v-65h-125q-5 -20 -24 -44.5t-38.5 -45t-35.5 -52t-17 -64.5h378v-69h-447v69q0 38 15 73.5t32.5 56t39.5 43.5t29 33h-116v65h93q-1 1 -22 20.5t-27.5 27t-20 25.5t-18.5 34t-5 34q0 89 65.5 151.5t161.5 62.5q67 0 124 -29t85 -77l-58 -33q-19 33 -60.5 53
t-90.5 20q-68 0 -113 -43t-45 -105q0 -30 18 -53.5t46.5 -47t39.5 -40.5h136z" />
    <glyph glyph-name="yen" unicode="&#xa5;" 
d="M119 156v65h121v66h-121v65h119l-188 343h69l154 -274l155 274h69l-189 -343h120v-65h-122v-66h122v-65h-122v-156h-66v156h-121z" />
    <glyph glyph-name="section" unicode="&#xa7;" 
d="M171 -59v654q0 66 46.5 113t113.5 47q66 0 113 -47t47 -113h-69q0 52 -46 79v-654q0 -66 -46.5 -113t-113.5 -47q-66 0 -113 47t-47 113h69q0 -53 46 -79zM239 595v-663q30 8 49.5 32.5t19.5 55.5v663q-30 -8 -49.5 -32.5t-19.5 -55.5z" />
    <glyph glyph-name="dieresis" unicode="&#xa8;" 
d="M388 659q22 0 37 -15t15 -37q0 -21 -15 -36t-37 -15q-21 0 -36 15t-15 36q0 22 15 37t36 15zM159 659q22 0 37 -15t15 -37q0 -21 -15 -36t-37 -15q-21 0 -36 15t-15 36q0 22 15 37t36 15z" />
    <glyph glyph-name="guillemotleft" unicode="&#xab;" 
d="M294 469v-75l-184 -149l184 -148v-75l-244 189v69zM498 469v-75l-184 -149l184 -148v-75l-244 189v69z" />
    <glyph glyph-name="macron" unicode="&#xaf;" 
d="M119 597v65h309v-65h-309z" />
    <glyph glyph-name="degree" unicode="&#xb0;" 
d="M273 706q54 0 92 -38t38 -92q0 -53 -38 -91t-92 -38q-53 0 -91 38t-38 91q0 54 38 92t91 38zM273 515q26 0 44 18t18 43q0 26 -18.5 44t-43.5 18t-43 -18t-18 -44t18 -43.5t43 -17.5z" />
    <glyph glyph-name="plusminus" unicode="&#xb1;" 
d="M119 35v65h122v121h-122v65h122v122h65v-122h122v-65h-122v-121h122v-65h-309z" />
    <glyph glyph-name="acute" unicode="&#xb4;" 
d="M168 499l-49 49l176 175l49 -49z" />
    <glyph glyph-name="paragraph" unicode="&#xb6;" 
d="M264 695h233v-695h-69v629h-95v-629h-69v272q-87 0 -150.5 62t-63.5 149t63.5 149.5t150.5 62.5zM264 338v291q-60 0 -102.5 -42.5t-42.5 -103.5q0 -60 42.5 -102.5t102.5 -42.5z" />
    <glyph glyph-name="cedilla" unicode="&#xb8;" 
d="M241 41h69q40 -27 54 -68.5t-3 -87.5q-23 -54 -78 -73.5t-110 1.5l26 65q52 -19 81.5 8.5t18 67.5t-57.5 50v37z" />
    <glyph glyph-name="guillemotright" unicode="&#xbb;" 
d="M254 394v75l244 -189v-69l-244 -189v75l184 148zM50 394v75l244 -189v-69l-244 -189v75l184 148z" />
    <glyph glyph-name="questiondown" unicode="&#xbf;" 
d="M252 514h66q0 -44 -19.5 -74.5t-47 -49t-55 -38.5t-47 -54.5t-19.5 -83.5q0 -62 45 -105t113 -43q47 0 89 24.5t62 58.5l58 -33q-29 -50 -86.5 -83t-122.5 -33q-96 0 -161.5 62.5t-65.5 151.5q0 56 19.5 98.5t48 67.5t56.5 44.5t47.5 41.5t19.5 48zM233 643q0 22 15 37
t37 15q21 0 36 -15t15 -37q0 -21 -15 -36t-36 -15q-22 0 -37 15t-15 36z" />
    <glyph glyph-name="Agrave" unicode="&#xc0;" 
d="M497 0h-74l-48 181h-202l-48 -181h-73l188 694h69zM274 564l-84 -317h168zM386 796l-49 -49l-176 175l49 49z" />
    <glyph glyph-name="Aacute" unicode="&#xc1;" 
d="M497 0h-74l-48 181h-202l-48 -181h-73l188 694h69zM274 564l-84 -317h168zM210 747l-49 49l176 175l49 -49z" />
    <glyph glyph-name="Acircumflex" unicode="&#xc2;" 
d="M497 0h-74l-48 181h-202l-48 -181h-73l188 694h69zM274 564l-84 -317h168zM146 787l-49 49l176 175l176 -175l-49 -49l-127 126z" />
    <glyph glyph-name="Atilde" unicode="&#xc3;" 
d="M497 0h-74l-48 181h-202l-48 -181h-73l188 694h69zM274 564l-84 -317h168zM247 859q-5 14 -20 21t-30 0q-32 -13 -15 -65l-50 -19q-20 35 -8 77t53 57q35 13 71 -0.5t53 -50.5q8 -16 21.5 -23t26.5 -1q23 11 23.5 29t-6.5 36l52 21q19 -39 8.5 -81.5t-53.5 -57.5
q-34 -15 -70.5 -1.5t-55.5 58.5z" />
    <glyph glyph-name="Adieresis" unicode="&#xc4;" 
d="M497 0h-74l-48 181h-202l-48 -181h-73l188 694h69zM274 564l-84 -317h168zM388 907q22 0 37 -15t15 -37q0 -21 -15 -36t-37 -15q-21 0 -36 15t-15 36q0 22 15 37t36 15zM159 907q22 0 37 -15t15 -37q0 -21 -15 -36t-37 -15q-21 0 -36 15t-15 36q0 22 15 37t36 15z" />
    <glyph glyph-name="Aring" unicode="&#xc5;" 
d="M273 855q54 0 92 -38t38 -92q0 -37 -19.5 -68t-52.5 -47l166 -610h-74l-48 181h-202l-48 -181h-73l165 609q-33 16 -53 47t-20 69q0 54 38 92t91 38zM274 564l-84 -317h168zM273 664q26 0 44 18t18 43t-18.5 43.5t-43.5 18.5t-43 -18t-18 -44q0 -25 18 -43t43 -18z" />
    <glyph glyph-name="AE" unicode="&#xc6;" 
d="M273 0v181h-100l-48 -181h-73l188 695h257v-66h-155v-249h86v-65h-86v-249h155v-66h-224zM190 247h83v313z" />
    <glyph glyph-name="Ccedilla" unicode="&#xc7;" 
d="M272 66q65 0 110.5 43.5t45.5 104.5h69q0 -71 -44 -127t-113 -77q42 -53 17 -125q-23 -54 -78 -73.5t-110 1.5l26 65q50 -18 79.5 7.5t21 64t-49.5 51.5q-84 10 -140 70.5t-56 142.5v267q0 89 65 151.5t157 62.5q93 0 159 -63t66 -151h-69q0 61 -45.5 104.5t-110.5 43.5
q-64 0 -108.5 -43t-44.5 -105v-267q0 -62 44.5 -105t108.5 -43z" />
    <glyph glyph-name="Egrave" unicode="&#xc8;" 
d="M50 0v695h447v-66h-378v-249h195v-65h-195v-249h378v-66h-447zM386 796l-49 -49l-176 175l49 49z" />
    <glyph glyph-name="Eacute" unicode="&#xc9;" 
d="M50 0v695h447v-66h-378v-249h195v-65h-195v-249h378v-66h-447zM210 747l-49 49l176 175l49 -49z" />
    <glyph glyph-name="Ecircumflex" unicode="&#xca;" 
d="M50 0v695h447v-66h-378v-249h195v-65h-195v-249h378v-66h-447zM146 787l-49 49l176 175l176 -175l-49 -49l-127 126z" />
    <glyph glyph-name="Edieresis" unicode="&#xcb;" 
d="M50 0v695h447v-66h-378v-249h195v-65h-195v-249h378v-66h-447zM388 907q22 0 37 -15t15 -37q0 -21 -15 -36t-37 -15q-21 0 -36 15t-15 36q0 22 15 37t36 15zM159 907q22 0 37 -15t15 -37q0 -21 -15 -36t-37 -15q-21 0 -36 15t-15 36q0 22 15 37t36 15z" />
    <glyph glyph-name="Igrave" unicode="&#xcc;" 
d="M50 629v66h447v-66h-191v-563h191v-66h-447v66h190v563h-190zM386 796l-49 -49l-176 175l49 49z" />
    <glyph glyph-name="Iacute" unicode="&#xcd;" 
d="M50 629v66h447v-66h-191v-563h191v-66h-447v66h190v563h-190zM210 747l-49 49l176 175l49 -49z" />
    <glyph glyph-name="Icircumflex" unicode="&#xce;" 
d="M50 629v66h447v-66h-191v-563h191v-66h-447v66h190v563h-190zM146 787l-49 49l176 175l176 -175l-49 -49l-127 126z" />
    <glyph glyph-name="Idieresis" unicode="&#xcf;" 
d="M50 629v66h447v-66h-191v-563h191v-66h-447v66h190v563h-190zM388 907q22 0 37 -15t15 -37q0 -21 -15 -36t-37 -15q-21 0 -36 15t-15 36q0 22 15 37t36 15zM159 907q22 0 37 -15t15 -37q0 -21 -15 -36t-37 -15q-21 0 -36 15t-15 36q0 22 15 37t36 15z" />
    <glyph glyph-name="Ntilde" unicode="&#xd1;" 
d="M428 695h69v-695h-69l-309 569v-569h-69v695h69l309 -562v562zM247 859q-5 14 -20 21t-30 0q-32 -13 -15 -65l-50 -19q-20 35 -8 77t53 57q35 13 71 -0.5t53 -50.5q8 -16 21.5 -23t26.5 -1q23 11 23.5 29t-6.5 36l52 21q19 -39 8.5 -81.5t-53.5 -57.5q-34 -15 -70.5 -1.5
t-55.5 58.5z" />
    <glyph glyph-name="Ograve" unicode="&#xd2;" 
d="M497 481v-268q0 -88 -68 -151t-158 -63q-89 0 -155 63t-66 151v268q0 88 66 151t155 63q90 0 158 -63t68 -151zM428 213v268q0 61 -47.5 104.5t-109.5 43.5t-107 -43.5t-45 -104.5v-268q0 -61 45 -104.5t107 -43.5t109.5 43.5t47.5 104.5zM386 796l-49 -49l-176 175
l49 49z" />
    <glyph glyph-name="Oacute" unicode="&#xd3;" 
d="M497 481v-268q0 -88 -68 -151t-158 -63q-89 0 -155 63t-66 151v268q0 88 66 151t155 63q90 0 158 -63t68 -151zM428 213v268q0 61 -47.5 104.5t-109.5 43.5t-107 -43.5t-45 -104.5v-268q0 -61 45 -104.5t107 -43.5t109.5 43.5t47.5 104.5zM210 747l-49 49l176 175l49 -49
z" />
    <glyph glyph-name="Ocircumflex" unicode="&#xd4;" 
d="M497 481v-268q0 -88 -68 -151t-158 -63q-89 0 -155 63t-66 151v268q0 88 66 151t155 63q90 0 158 -63t68 -151zM428 213v268q0 61 -47.5 104.5t-109.5 43.5t-107 -43.5t-45 -104.5v-268q0 -61 45 -104.5t107 -43.5t109.5 43.5t47.5 104.5zM146 787l-49 49l176 175
l176 -175l-49 -49l-127 126z" />
    <glyph glyph-name="Otilde" unicode="&#xd5;" 
d="M497 481v-268q0 -88 -68 -151t-158 -63q-89 0 -155 63t-66 151v268q0 88 66 151t155 63q90 0 158 -63t68 -151zM428 213v268q0 61 -47.5 104.5t-109.5 43.5t-107 -43.5t-45 -104.5v-268q0 -61 45 -104.5t107 -43.5t109.5 43.5t47.5 104.5zM247 859q-5 14 -20 21t-30 0
q-32 -13 -15 -65l-50 -19q-20 35 -8 77t53 57q35 13 71 -0.5t53 -50.5q8 -16 21.5 -23t26.5 -1q23 11 23.5 29t-6.5 36l52 21q19 -39 8.5 -81.5t-53.5 -57.5q-34 -15 -70.5 -1.5t-55.5 58.5z" />
    <glyph glyph-name="Odieresis" unicode="&#xd6;" 
d="M497 481v-268q0 -88 -68 -151t-158 -63q-89 0 -155 63t-66 151v268q0 88 66 151t155 63q90 0 158 -63t68 -151zM428 213v268q0 61 -47.5 104.5t-109.5 43.5t-107 -43.5t-45 -104.5v-268q0 -61 45 -104.5t107 -43.5t109.5 43.5t47.5 104.5zM388 907q22 0 37 -15t15 -37
q0 -21 -15 -36t-37 -15q-21 0 -36 15t-15 36q0 22 15 37t36 15zM159 907q22 0 37 -15t15 -37q0 -21 -15 -36t-37 -15q-21 0 -36 15t-15 36q0 22 15 37t36 15z" />
    <glyph glyph-name="multiply" unicode="&#xd7;" 
d="M273 296l-112 -112l-47 47l112 112l-112 112l47 47l112 -112l112 112l47 -47l-112 -112l112 -112l-47 -47z" />
    <glyph glyph-name="Oslash" unicode="&#xd8;" 
d="M174 21l-50 -121h-74l67 161q-67 64 -67 152v268q0 88 66 151t155 63q52 0 100 -24l52 124h74l-68 -163q68 -65 68 -151v-268q0 -88 -68 -151t-158 -63q-50 0 -97 22zM428 213v268q0 46 -28 82l-200 -481q32 -17 71 -17q62 0 109.5 43.5t47.5 104.5zM271 629
q-62 0 -107 -43.5t-45 -104.5v-268q0 -46 26 -83l201 480q-36 19 -75 19z" />
    <glyph glyph-name="Ugrave" unicode="&#xd9;" 
d="M428 695h69v-481q0 -88 -68 -151t-158 -63q-89 0 -155 63t-66 151v481h69v-481q0 -61 45 -104.5t107 -43.5t109.5 43.5t47.5 104.5v481zM386 796l-49 -49l-176 175l49 49z" />
    <glyph glyph-name="Uacute" unicode="&#xda;" 
d="M428 695h69v-481q0 -88 -68 -151t-158 -63q-89 0 -155 63t-66 151v481h69v-481q0 -61 45 -104.5t107 -43.5t109.5 43.5t47.5 104.5v481zM210 747l-49 49l176 175l49 -49z" />
    <glyph glyph-name="Ucircumflex" unicode="&#xdb;" 
d="M428 695h69v-481q0 -88 -68 -151t-158 -63q-89 0 -155 63t-66 151v481h69v-481q0 -61 45 -104.5t107 -43.5t109.5 43.5t47.5 104.5v481zM146 787l-49 49l176 175l176 -175l-49 -49l-127 126z" />
    <glyph glyph-name="Udieresis" unicode="&#xdc;" 
d="M428 695h69v-481q0 -88 -68 -151t-158 -63q-89 0 -155 63t-66 151v481h69v-481q0 -61 45 -104.5t107 -43.5t109.5 43.5t47.5 104.5v481zM388 907q22 0 37 -15t15 -37q0 -21 -15 -36t-37 -15q-21 0 -36 15t-15 36q0 22 15 37t36 15zM159 907q22 0 37 -15t15 -37
q0 -21 -15 -36t-37 -15q-21 0 -36 15t-15 36q0 22 15 37t36 15z" />
    <glyph glyph-name="Yacute" unicode="&#xdd;" 
d="M497 695l-191 -348v-347h-66v348l-190 347h69l154 -274l155 274h69zM210 747l-49 49l176 175l49 -49z" />
    <glyph glyph-name="germandbls" unicode="&#xdf;" 
d="M239 0v69h111q30 0 51 12.5t27 30.5t2.5 37t-21 33t-44.5 16q-58 5 -95.5 41t-38.5 91q1 35 20 66.5t50 49.5v89q0 37 -26.5 64t-64.5 27t-64.5 -26.5t-26.5 -64.5v-535h-69v535q0 66 46.5 113t113.5 47q66 0 113 -47t47 -113v-139q-30 -2 -51 -20t-21 -47
q0 -25 19.5 -43t48.5 -21q62 -7 95.5 -43.5t35.5 -90.5q-1 -59 -45 -95t-102 -36h-111z" />
    <glyph glyph-name="agrave" unicode="&#xe0;" 
d="M428 259v-120q0 -29 20.5 -50t48.5 -21v-68q-40 0 -73.5 21.5t-50.5 55.5q-75 -77 -181 -77q-67 0 -104.5 32t-37.5 90q0 19 5.5 37t19.5 40t45 39t76 25q50 9 164 -1q-1 48 -37 82t-85 34q-35 0 -65 -19t-44 -49l-61 29q23 49 69 78.5t101 29.5q78 0 134 -55t56 -133z
M360 153v50q-100 10 -147 2q-33 -6 -54.5 -17t-29 -25t-9 -21t-1.5 -17t1.5 -16.5t7.5 -18t23.5 -17.5t45.5 -6q99 0 163 86zM308 548l-49 -49l-176 175l49 49z" />
    <glyph glyph-name="aacute" unicode="&#xe1;" 
d="M428 259v-120q0 -29 20.5 -50t48.5 -21v-68q-40 0 -73.5 21.5t-50.5 55.5q-75 -77 -181 -77q-67 0 -104.5 32t-37.5 90q0 19 5.5 37t19.5 40t45 39t76 25q50 9 164 -1q-1 48 -37 82t-85 34q-35 0 -65 -19t-44 -49l-61 29q23 49 69 78.5t101 29.5q78 0 134 -55t56 -133z
M360 153v50q-100 10 -147 2q-33 -6 -54.5 -17t-29 -25t-9 -21t-1.5 -17t1.5 -16.5t7.5 -18t23.5 -17.5t45.5 -6q99 0 163 86zM210 499l-49 49l176 175l49 -49z" />
    <glyph glyph-name="acircumflex" unicode="&#xe2;" 
d="M428 259v-120q0 -29 20.5 -50t48.5 -21v-68q-40 0 -73.5 21.5t-50.5 55.5q-75 -77 -181 -77q-67 0 -104.5 32t-37.5 90q0 19 5.5 37t19.5 40t45 39t76 25q50 9 164 -1q-1 48 -37 82t-85 34q-35 0 -65 -19t-44 -49l-61 29q23 49 69 78.5t101 29.5q78 0 134 -55t56 -133z
M360 153v50q-100 10 -147 2q-33 -6 -54.5 -17t-29 -25t-9 -21t-1.5 -17t1.5 -16.5t7.5 -18t23.5 -17.5t45.5 -6q99 0 163 86zM146 539l-49 49l176 175l176 -175l-49 -49l-127 126z" />
    <glyph glyph-name="atilde" unicode="&#xe3;" 
d="M428 259v-120q0 -29 20.5 -50t48.5 -21v-68q-40 0 -73.5 21.5t-50.5 55.5q-75 -77 -181 -77q-67 0 -104.5 32t-37.5 90q0 19 5.5 37t19.5 40t45 39t76 25q50 9 164 -1q-1 48 -37 82t-85 34q-35 0 -65 -19t-44 -49l-61 29q23 49 69 78.5t101 29.5q78 0 134 -55t56 -133z
M360 153v50q-100 10 -147 2q-33 -6 -54.5 -17t-29 -25t-9 -21t-1.5 -17t1.5 -16.5t7.5 -18t23.5 -17.5t45.5 -6q99 0 163 86zM247 611q-5 14 -20 21t-30 0q-32 -13 -15 -65l-50 -19q-20 35 -8 77t53 57q35 13 71 -0.5t53 -50.5q8 -16 21.5 -23t26.5 -1q23 11 23.5 29
t-6.5 36l52 21q19 -39 8.5 -81.5t-53.5 -57.5q-34 -15 -70.5 -1.5t-55.5 58.5z" />
    <glyph glyph-name="adieresis" unicode="&#xe4;" 
d="M428 259v-120q0 -29 20.5 -50t48.5 -21v-68q-40 0 -73.5 21.5t-50.5 55.5q-75 -77 -181 -77q-67 0 -104.5 32t-37.5 90q0 19 5.5 37t19.5 40t45 39t76 25q50 9 164 -1q-1 48 -37 82t-85 34q-35 0 -65 -19t-44 -49l-61 29q23 49 69 78.5t101 29.5q78 0 134 -55t56 -133z
M360 153v50q-100 10 -147 2q-33 -6 -54.5 -17t-29 -25t-9 -21t-1.5 -17t1.5 -16.5t7.5 -18t23.5 -17.5t45.5 -6q99 0 163 86zM388 659q22 0 37 -15t15 -37q0 -21 -15 -36t-37 -15q-21 0 -36 15t-15 36q0 22 15 37t36 15zM159 659q22 0 37 -15t15 -37q0 -21 -15 -36t-37 -15
q-21 0 -36 15t-15 36q0 22 15 37t36 15z" />
    <glyph glyph-name="aring" unicode="&#xe5;" 
d="M428 259v-120q0 -29 20.5 -50t48.5 -21v-68q-40 0 -73.5 21.5t-50.5 55.5q-75 -77 -181 -77q-67 0 -104.5 32t-37.5 90q0 19 5.5 37t19.5 40t45 39t76 25q50 9 164 -1q-1 48 -37 82t-85 34q-35 0 -65 -19t-44 -49l-61 29q23 49 69 78.5t101 29.5q78 0 134 -55t56 -133z
M360 153v50q-100 10 -147 2q-33 -6 -54.5 -17t-29 -25t-9 -21t-1.5 -17t1.5 -16.5t7.5 -18t23.5 -17.5t45.5 -6q99 0 163 86zM273 758q54 0 92 -38t38 -92q0 -53 -38 -91t-92 -38q-53 0 -91 38t-38 91q0 54 38 92t91 38zM273 567q26 0 44 18t18 43q0 26 -18.5 44t-43.5 18
t-43 -18t-18 -44t18 -43.5t43 -17.5z" />
    <glyph glyph-name="ae" unicode="&#xe6;" 
d="M448 140l49 -28q-18 -52 -49 -82t-71 -30q-79 0 -104 69q-37 -76 -130 -69q-41 3 -67 34.5t-26 87.5q0 109 86 135q35 11 103 1q0 52 -16.5 86t-49.5 34q-48 0 -64 -59l-59 20q16 60 58 89t89 16t76 -66q16 39 40.5 54t60.5 15q57 0 90 -56t33 -168q0 -12 -2 -34h-187
q0 -52 21 -86t53 -34q25 0 39.5 17t26.5 54zM308 258h120q0 53 -14 86.5t-40 33.5q-31 0 -48.5 -34t-17.5 -86zM119 125q0 -40 30 -52.5t60 7t30 56.5v53q-1 0 -15.5 1t-25 1t-26.5 -3t-26.5 -9.5t-18.5 -20.5t-8 -33z" />
    <glyph glyph-name="ccedilla" unicode="&#xe7;" 
d="M430 164l67 -27q-45 -100 -154 -129q41 -53 16 -123q-23 -54 -78 -73.5t-110 1.5l26 65q52 -19 81.5 8.5t18 67.5t-57.5 50q-82 14 -135.5 76t-53.5 143q0 93 68 158.5t164 65.5q71 0 129.5 -38t85.5 -99l-67 -27q-17 42 -57.5 68.5t-90.5 26.5q-67 0 -113.5 -45
t-46.5 -110q0 -64 46.5 -109t113.5 -45q50 0 90.5 26.5t57.5 68.5z" />
    <glyph glyph-name="egrave" unicode="&#xe8;" 
d="M407 146l60 -34q-30 -51 -81.5 -81.5t-112.5 -30.5q-92 0 -157.5 65.5t-65.5 157.5q0 93 65.5 158.5t157.5 65.5q93 0 158.5 -65.5t65.5 -158.5q0 -17 -3 -34h-371q11 -52 53.5 -86t96.5 -34q43 0 78.5 21t55.5 56zM123 258h301q-11 52 -53.5 86t-97.5 34
q-54 0 -96.5 -34t-53.5 -86zM308 548l-49 -49l-176 175l49 49z" />
    <glyph glyph-name="eacute" unicode="&#xe9;" 
d="M407 146l60 -34q-30 -51 -81.5 -81.5t-112.5 -30.5q-92 0 -157.5 65.5t-65.5 157.5q0 93 65.5 158.5t157.5 65.5q103 0 170.5 -81t50.5 -177h-371q11 -52 53.5 -86t96.5 -34q43 0 78.5 21t55.5 56zM123 258h301q-11 52 -53.5 86t-97.5 34q-54 0 -96.5 -34t-53.5 -86z
M210 499l-49 49l176 175l49 -49z" />
    <glyph glyph-name="ecircumflex" unicode="&#xea;" 
d="M407 146l60 -34q-30 -51 -81.5 -81.5t-112.5 -30.5q-92 0 -157.5 65.5t-65.5 157.5q0 93 65.5 158.5t157.5 65.5q93 0 158.5 -65.5t65.5 -158.5q0 -17 -3 -34h-371q11 -52 53.5 -86t96.5 -34q43 0 78.5 21t55.5 56zM123 258h301q-11 52 -53.5 86t-97.5 34
q-54 0 -96.5 -34t-53.5 -86zM146 539l-49 49l176 175l176 -175l-49 -49l-127 126z" />
    <glyph glyph-name="edieresis" unicode="&#xeb;" 
d="M407 146l60 -34q-30 -51 -81.5 -81.5t-112.5 -30.5q-92 0 -157.5 65.5t-65.5 157.5q0 93 65.5 158.5t157.5 65.5q103 0 170.5 -81t50.5 -177h-371q11 -52 53.5 -86t96.5 -34q43 0 78.5 21t55.5 56zM123 258h301q-11 52 -53.5 86t-97.5 34q-54 0 -96.5 -34t-53.5 -86z
M388 659q22 0 37 -15t15 -37q0 -21 -15 -36t-37 -15q-21 0 -36 15t-15 36q0 22 15 37t36 15zM159 659q22 0 37 -15t15 -37q0 -21 -15 -36t-37 -15q-21 0 -36 15t-15 36q0 22 15 37t36 15z" />
    <glyph glyph-name="igrave" unicode="&#xec;" 
d="M308 447v-378h189v-69h-447v69h189v309h-141v69h210zM386 548l-49 -49l-176 175l49 49z" />
    <glyph glyph-name="iacute" unicode="&#xed;" 
d="M308 447v-378h189v-69h-447v69h189v309h-141v69h210zM210 499l-49 49l176 175l49 -49z" />
    <glyph glyph-name="icircumflex" unicode="&#xee;" 
d="M308 447v-378h189v-69h-447v69h189v309h-141v69h210zM146 539l-49 49l176 175l176 -175l-49 -49l-127 126z" />
    <glyph glyph-name="idieresis" unicode="&#xef;" 
d="M308 447v-378h189v-69h-447v69h189v309h-141v69h210zM388 659q22 0 37 -15t15 -37q0 -21 -15 -36t-37 -15q-21 0 -36 15t-15 36q0 22 15 37t36 15zM159 659q22 0 37 -15t15 -37q0 -21 -15 -36t-37 -15q-21 0 -36 15t-15 36q0 22 15 37t36 15z" />
    <glyph glyph-name="ntilde" unicode="&#xf1;" 
d="M273 447q93 0 158.5 -65.5t65.5 -158.5v-223h-69v223q0 65 -45 110t-110 45q-64 0 -109 -45t-45 -109v-224h-69v447h69v-62q65 62 154 62zM247 611q-5 14 -20 21t-30 0q-32 -13 -15 -65l-50 -19q-20 35 -8 77t53 57q35 13 71 -0.5t53 -50.5q8 -16 21.5 -23t26.5 -1
q23 11 23.5 29t-6.5 36l52 21q19 -39 8.5 -81.5t-53.5 -57.5q-34 -15 -70.5 -1.5t-55.5 58.5z" />
    <glyph glyph-name="ograve" unicode="&#xf2;" 
d="M273 447q93 0 158.5 -65.5t65.5 -158.5q0 -92 -65.5 -157.5t-158.5 -65.5q-92 0 -157.5 65.5t-65.5 157.5q0 93 65.5 158.5t157.5 65.5zM273 69q64 0 109.5 45t45.5 109q0 65 -45 110t-110 45q-64 0 -109 -45.5t-45 -109.5t45 -109t109 -45zM386 548l-49 -49l-176 175
l49 49z" />
    <glyph glyph-name="oacute" unicode="&#xf3;" 
d="M273 447q93 0 158.5 -65.5t65.5 -158.5q0 -92 -65.5 -157.5t-158.5 -65.5q-92 0 -157.5 65.5t-65.5 157.5q0 93 65.5 158.5t157.5 65.5zM273 69q64 0 109.5 45t45.5 109q0 65 -45 110t-110 45q-64 0 -109 -45.5t-45 -109.5t45 -109t109 -45zM210 499l-49 49l176 175
l49 -49z" />
    <glyph glyph-name="ocircumflex" unicode="&#xf4;" 
d="M273 447q93 0 158.5 -65.5t65.5 -158.5q0 -92 -65.5 -157.5t-158.5 -65.5q-92 0 -157.5 65.5t-65.5 157.5q0 93 65.5 158.5t157.5 65.5zM273 69q64 0 109.5 45t45.5 109q0 65 -45 110t-110 45q-64 0 -109 -45.5t-45 -109.5t45 -109t109 -45zM146 539l-49 49l176 175
l176 -175l-49 -49l-127 126z" />
    <glyph glyph-name="otilde" unicode="&#xf5;" 
d="M273 447q93 0 158.5 -65.5t65.5 -158.5q0 -92 -65.5 -157.5t-158.5 -65.5q-92 0 -157.5 65.5t-65.5 157.5q0 93 65.5 158.5t157.5 65.5zM273 69q64 0 109.5 45t45.5 109q0 65 -45 110t-110 45q-64 0 -109 -45.5t-45 -109.5t45 -109t109 -45zM246 611q-5 14 -20 21t-30 0
q-32 -13 -15 -65l-50 -19q-20 35 -8 77t53 57q35 13 71 -0.5t53 -50.5q8 -16 21.5 -23t26.5 -1q23 11 23.5 29t-6.5 36l52 21q19 -39 8.5 -81.5t-53.5 -57.5q-34 -15 -70.5 -1.5t-55.5 58.5z" />
    <glyph glyph-name="odieresis" unicode="&#xf6;" 
d="M273 447q93 0 158.5 -65.5t65.5 -158.5q0 -92 -65.5 -157.5t-158.5 -65.5q-92 0 -157.5 65.5t-65.5 157.5q0 93 65.5 158.5t157.5 65.5zM273 69q64 0 109.5 45t45.5 109q0 65 -45 110t-110 45q-64 0 -109 -45.5t-45 -109.5t45 -109t109 -45zM388 659q22 0 37 -15t15 -37
q0 -21 -15 -36t-37 -15q-21 0 -36 15t-15 36q0 22 15 37t36 15zM159 659q22 0 37 -15t15 -37q0 -21 -15 -36t-37 -15q-21 0 -36 15t-15 36q0 22 15 37t36 15z" />
    <glyph glyph-name="divide" unicode="&#xf7;" 
d="M325 191q0 -22 -15 -37t-37 -15q-21 0 -36 15t-15 37q0 21 15 36t36 15q22 0 37 -15t15 -36zM325 495q0 -22 -15 -37t-37 -15q-21 0 -36 15t-15 37q0 21 15 36t36 15q22 0 37 -15t15 -36zM119 315v65h309v-65h-309z" />
    <glyph glyph-name="oslash" unicode="&#xf8;" 
d="M185 18l-61 -94h-74l82 126q-82 67 -82 173q0 93 65.5 158.5t157.5 65.5q51 0 101 -24l49 76h74l-72 -111q72 -67 72 -165q0 -92 -65.5 -157.5t-158.5 -65.5q-47 0 -88 18zM273 378q-64 0 -109 -45.5t-45 -109.5q0 -68 51 -114l166 256q-31 13 -63 13zM273 69
q64 0 109.5 45t45.5 109q0 61 -42 106l-163 -252q26 -8 50 -8z" />
    <glyph glyph-name="ugrave" unicode="&#xf9;" 
d="M274 0q-93 0 -158.5 65.5t-65.5 158.5v223h69v-223q0 -64 45.5 -109.5t109.5 -45.5t109 45t45 109v224h69v-447h-69v62q-65 -62 -154 -62zM386 548l-49 -49l-176 175l49 49z" />
    <glyph glyph-name="uacute" unicode="&#xfa;" 
d="M274 0q-93 0 -158.5 65.5t-65.5 158.5v223h69v-223q0 -64 45.5 -109.5t109.5 -45.5t109 45t45 109v224h69v-447h-69v62q-65 -62 -154 -62zM210 499l-49 49l176 175l49 -49z" />
    <glyph glyph-name="ucircumflex" unicode="&#xfb;" 
d="M274 0q-93 0 -158.5 65.5t-65.5 158.5v223h69v-223q0 -64 45.5 -109.5t109.5 -45.5t109 45t45 109v224h69v-447h-69v62q-65 -62 -154 -62zM146 539l-49 49l176 175l176 -175l-49 -49l-127 126z" />
    <glyph glyph-name="udieresis" unicode="&#xfc;" 
d="M274 0q-93 0 -158.5 65.5t-65.5 158.5v223h69v-223q0 -64 45.5 -109.5t109.5 -45.5t109 45t45 109v224h69v-447h-69v62q-65 -62 -154 -62zM388 659q22 0 37 -15t15 -37q0 -21 -15 -36t-37 -15q-21 0 -36 15t-15 36q0 22 15 37t36 15zM159 659q22 0 37 -15t15 -37
q0 -21 -15 -36t-37 -15q-21 0 -36 15t-15 36q0 22 15 37t36 15z" />
    <glyph glyph-name="yacute" unicode="&#xfd;" 
d="M273 91l150 356h74l-294 -695h-73l107 252l-187 443h74zM210 499l-49 49l176 175l49 -49z" />
    <glyph glyph-name="ydieresis" unicode="&#xff;" 
d="M273 91l150 356h74l-294 -695h-73l107 252l-187 443h74zM159 659q22 0 37 -15t15 -37q0 -21 -15 -36t-37 -15q-21 0 -36 15t-15 36q0 22 15 37t36 15zM388 659q22 0 37 -15t15 -37q0 -21 -15 -36t-37 -15q-21 0 -36 15t-15 36q0 22 15 37t36 15z" />
    <glyph glyph-name="Amacron" unicode="&#x100;" 
d="M497 0h-74l-48 181h-202l-48 -181h-73l188 694h69zM274 564l-84 -317h168zM119 845v65h309v-65h-309z" />
    <glyph glyph-name="amacron" unicode="&#x101;" 
d="M428 259v-120q0 -29 20.5 -50t48.5 -21v-68q-40 0 -73.5 21.5t-50.5 55.5q-75 -77 -181 -77q-67 0 -104.5 32t-37.5 90q0 19 5.5 37t19.5 40t45 39t76 25q50 9 164 -1q-1 48 -37 82t-85 34q-35 0 -65 -19t-44 -49l-61 29q23 49 69 78.5t101 29.5q78 0 134 -55t56 -133z
M360 153v50q-100 10 -147 2q-33 -6 -54.5 -17t-29 -25t-9 -21t-1.5 -17t1.5 -16.5t7.5 -18t23.5 -17.5t45.5 -6q99 0 163 86zM119 597v65h309v-65h-309z" />
    <glyph glyph-name="Abreve" unicode="&#x102;" 
d="M497 0h-74l-48 181h-202l-48 -181h-73l188 694h69zM274 564l-84 -317h168zM335 926h68q0 -53 -38 -91t-92 -38q-53 0 -91 38t-38 91h68q0 -26 18 -43.5t43 -17.5q26 0 44 18t18 43z" />
    <glyph glyph-name="abreve" unicode="&#x103;" 
d="M428 259v-120q0 -29 20.5 -50t48.5 -21v-68q-40 0 -73.5 21.5t-50.5 55.5q-75 -77 -181 -77q-67 0 -104.5 32t-37.5 90q0 19 5.5 37t19.5 40t45 39t76 25q50 9 164 -1q-1 48 -37 82t-85 34q-35 0 -65 -19t-44 -49l-61 29q23 49 69 78.5t101 29.5q78 0 134 -55t56 -133z
M360 153v50q-100 10 -147 2q-33 -6 -54.5 -17t-29 -25t-9 -21t-1.5 -17t1.5 -16.5t7.5 -18t23.5 -17.5t45.5 -6q99 0 163 86zM335 678h68q0 -53 -38 -91t-92 -38q-53 0 -91 38t-38 91h68q0 -26 18 -43.5t43 -17.5q26 0 44 18t18 43z" />
    <glyph glyph-name="Aogonek" unicode="&#x104;" 
d="M497 0h-28q-39 -15 -45.5 -53.5t22.5 -62.5t79 -6l26 -65q-55 -21 -110 -1.5t-78 73.5q-17 46 -4 87t53 68l-37 141h-202l-48 -181h-73l188 694h69zM274 564l-84 -317h168z" />
    <glyph glyph-name="aogonek" unicode="&#x105;" 
d="M428 259v-120q0 -29 20.5 -50t48.5 -21v-68q-10 0 -14 1q-40 -14 -48 -52.5t21.5 -63.5t79.5 -7l26 -65q-55 -21 -110 -1.5t-78 73.5q-31 88 37 145q-23 17 -38 47q-75 -77 -181 -77q-67 0 -104.5 32t-37.5 90q0 19 5.5 37t19.5 40t45 39t76 25q50 9 164 -1q-1 48 -37 82
t-85 34q-35 0 -65 -19t-44 -49l-61 29q23 49 69 78.5t101 29.5q78 0 134 -55t56 -133zM360 153v50q-100 10 -147 2q-33 -6 -54.5 -17t-29 -25t-9 -21t-1.5 -17t1.5 -16.5t7.5 -18t23.5 -17.5t45.5 -6q99 0 163 86z" />
    <glyph glyph-name="Cacute" unicode="&#x106;" 
d="M272 66q65 0 110.5 43.5t45.5 104.5h69q0 -88 -66 -151t-159 -63q-92 0 -157 62.5t-65 151.5v267q0 89 65 151.5t157 62.5q93 0 159 -63t66 -151h-69q0 61 -45.5 104.5t-110.5 43.5q-64 0 -108.5 -43t-44.5 -105v-267q0 -62 44.5 -105t108.5 -43zM210 747l-49 49l176 175
l49 -49z" />
    <glyph glyph-name="cacute" unicode="&#x107;" 
d="M430 164l67 -27q-27 -61 -85.5 -99t-129.5 -38q-96 0 -164 65.5t-68 157.5q0 93 68 158.5t164 65.5q71 0 129.5 -38t85.5 -99l-67 -27q-17 42 -57.5 68.5t-90.5 26.5q-67 0 -113.5 -45t-46.5 -110q0 -64 46.5 -109t113.5 -45q50 0 90.5 26.5t57.5 68.5zM210 499l-49 49
l176 175l49 -49z" />
    <glyph glyph-name="Ccircumflex" unicode="&#x108;" 
d="M272 66q65 0 110.5 43.5t45.5 104.5h69q0 -88 -66 -151t-159 -63q-92 0 -157 62.5t-65 151.5v267q0 89 65 151.5t157 62.5q93 0 159 -63t66 -151h-69q0 61 -45.5 104.5t-110.5 43.5q-64 0 -108.5 -43t-44.5 -105v-267q0 -62 44.5 -105t108.5 -43zM146 787l-49 49l176 175
l176 -175l-49 -49l-127 126z" />
    <glyph glyph-name="ccircumflex" unicode="&#x109;" 
d="M430 164l67 -27q-27 -61 -85.5 -99t-129.5 -38q-96 0 -164 65.5t-68 157.5q0 93 68 158.5t164 65.5q71 0 129.5 -38t85.5 -99l-67 -27q-17 42 -57.5 68.5t-90.5 26.5q-67 0 -113.5 -45t-46.5 -110q0 -64 46.5 -109t113.5 -45q50 0 90.5 26.5t57.5 68.5zM146 539l-49 49
l176 175l176 -175l-49 -49l-127 126z" />
    <glyph glyph-name="Cdotaccent" unicode="&#x10a;" 
d="M272 66q65 0 110.5 43.5t45.5 104.5h69q0 -88 -66 -151t-159 -63q-92 0 -157 62.5t-65 151.5v267q0 89 65 151.5t157 62.5q93 0 159 -63t66 -151h-69q0 61 -45.5 104.5t-110.5 43.5q-64 0 -108.5 -43t-44.5 -105v-267q0 -62 44.5 -105t108.5 -43zM273 917q22 0 37 -15
t15 -37q0 -21 -15 -36t-37 -15q-21 0 -36 15t-15 36q0 22 15 37t36 15z" />
    <glyph glyph-name="cdotaccent" unicode="&#x10b;" 
d="M430 164l67 -27q-27 -61 -85.5 -99t-129.5 -38q-96 0 -164 65.5t-68 157.5q0 93 68 158.5t164 65.5q71 0 129.5 -38t85.5 -99l-67 -27q-17 42 -57.5 68.5t-90.5 26.5q-67 0 -113.5 -45t-46.5 -110q0 -64 46.5 -109t113.5 -45q50 0 90.5 26.5t57.5 68.5zM273 669
q22 0 37 -15t15 -37q0 -21 -15 -36t-37 -15q-21 0 -36 15t-15 36q0 22 15 37t36 15z" />
    <glyph glyph-name="Ccaron" unicode="&#x10c;" 
d="M272 66q65 0 110.5 43.5t45.5 104.5h69q0 -88 -66 -151t-159 -63q-92 0 -157 62.5t-65 151.5v267q0 89 65 151.5t157 62.5q93 0 159 -63t66 -151h-69q0 61 -45.5 104.5t-110.5 43.5q-64 0 -108.5 -43t-44.5 -105v-267q0 -62 44.5 -105t108.5 -43zM97 962l49 49l127 -126
l127 126l49 -49l-176 -175z" />
    <glyph glyph-name="ccaron" unicode="&#x10d;" 
d="M430 164l67 -27q-27 -61 -85.5 -99t-129.5 -38q-96 0 -164 65.5t-68 157.5q0 93 68 158.5t164 65.5q71 0 129.5 -38t85.5 -99l-67 -27q-17 42 -57.5 68.5t-90.5 26.5q-67 0 -113.5 -45t-46.5 -110q0 -64 46.5 -109t113.5 -45q50 0 90.5 26.5t57.5 68.5zM97 714l49 49
l127 -126l127 126l49 -49l-176 -175z" />
    <glyph glyph-name="Dcaron" unicode="&#x10e;" 
d="M50 695h165q133 0 207.5 -92.5t74.5 -252.5q0 -161 -74.5 -255.5t-207.5 -94.5h-165v695zM119 66h96q101 0 157 78.5t56 203.5t-56 203t-157 78h-96v-563zM97 962l49 49l127 -126l127 126l49 -49l-176 -175z" />
    <glyph glyph-name="Dcroat" unicode="&#x110;" 
d="M-20 320v65h70v310h165q133 0 207.5 -92.5t74.5 -252.5q0 -161 -74.5 -255.5t-207.5 -94.5h-165v320h-70zM119 66h96q101 0 157 78.5t56 203.5t-56 203t-157 78h-96v-244h140v-65h-140v-254z" />
    <glyph glyph-name="dcroat" unicode="&#x111;" 
d="M308 537v65h120v93h69v-93h120v-65h-120v-537h-69v62q-64 -62 -154 -62q-93 0 -158.5 65.5t-65.5 157.5q0 93 65.5 158.5t158.5 65.5q89 0 154 -62v152h-120zM274 69q64 0 109 45t45 109q0 66 -45.5 110.5t-108.5 44.5q-64 0 -109.5 -45t-45.5 -110q0 -64 45.5 -109
t109.5 -45z" />
    <glyph glyph-name="Emacron" unicode="&#x112;" 
d="M50 0v695h447v-66h-378v-249h195v-65h-195v-249h378v-66h-447zM119 845v65h309v-65h-309z" />
    <glyph glyph-name="emacron" unicode="&#x113;" 
d="M407 146l60 -34q-30 -51 -81.5 -81.5t-112.5 -30.5q-92 0 -157.5 65.5t-65.5 157.5q0 93 65.5 158.5t157.5 65.5q103 0 170.5 -81t50.5 -177h-371q11 -52 53.5 -86t96.5 -34q43 0 78.5 21t55.5 56zM123 258h301q-11 52 -53.5 86t-97.5 34q-54 0 -96.5 -34t-53.5 -86z
M119 597v65h309v-65h-309z" />
    <glyph glyph-name="Ebreve" unicode="&#x114;" 
d="M50 0v695h447v-66h-378v-249h195v-65h-195v-249h378v-66h-447zM335 926h68q0 -53 -38 -91t-92 -38q-53 0 -91 38t-38 91h68q0 -26 18 -43.5t43 -17.5q26 0 44 18t18 43z" />
    <glyph glyph-name="ebreve" unicode="&#x115;" 
d="M407 146l60 -34q-30 -51 -81.5 -81.5t-112.5 -30.5q-92 0 -157.5 65.5t-65.5 157.5q0 93 65.5 158.5t157.5 65.5q103 0 170.5 -81t50.5 -177h-371q11 -52 53.5 -86t96.5 -34q43 0 78.5 21t55.5 56zM123 258h301q-11 52 -53.5 86t-97.5 34q-54 0 -96.5 -34t-53.5 -86z
M335 678h68q0 -53 -38 -91t-92 -38q-53 0 -91 38t-38 91h68q0 -26 18 -43.5t43 -17.5q26 0 44 18t18 43z" />
    <glyph glyph-name="Edotaccent" unicode="&#x116;" 
d="M50 0v695h447v-66h-378v-249h195v-65h-195v-249h378v-66h-447zM273 917q22 0 37 -15t15 -37q0 -21 -15 -36t-37 -15q-21 0 -36 15t-15 36q0 22 15 37t36 15z" />
    <glyph glyph-name="edotaccent" unicode="&#x117;" 
d="M407 146l60 -34q-30 -51 -81.5 -81.5t-112.5 -30.5q-92 0 -157.5 65.5t-65.5 157.5q0 93 65.5 158.5t157.5 65.5q93 0 158.5 -65.5t65.5 -158.5q0 -17 -3 -34h-371q11 -52 53.5 -86t96.5 -34q43 0 78.5 21t55.5 56zM123 258h301q-11 52 -53.5 86t-97.5 34
q-54 0 -96.5 -34t-53.5 -86zM273 669q22 0 37 -15t15 -37q0 -21 -15 -36t-37 -15q-21 0 -36 15t-15 36q0 22 15 37t36 15z" />
    <glyph glyph-name="Eogonek" unicode="&#x118;" 
d="M50 0v695h447v-66h-378v-249h195v-65h-195v-249h378v-66h-82q-39 -15 -45.5 -53.5t22.5 -62.5t79 -6l26 -65q-55 -21 -110 -1.5t-78 73.5q-23 64 10 115h-269z" />
    <glyph glyph-name="eogonek" unicode="&#x119;" 
d="M407 146l60 -34q-27 -47 -74 -77.5t-102 -34.5q-40 -14 -47.5 -52.5t22 -63t79.5 -6.5l26 -65q-55 -21 -110 -1.5t-78 73.5q-26 72 18 127q-67 23 -109 80.5t-42 130.5q0 93 65.5 158.5t157.5 65.5q103 0 170.5 -81t50.5 -177h-371q11 -52 53.5 -86t96.5 -34
q43 0 78.5 21t55.5 56zM123 258h301q-11 52 -53.5 86t-97.5 34q-54 0 -96.5 -34t-53.5 -86z" />
    <glyph glyph-name="Ecaron" unicode="&#x11a;" 
d="M50 0v695h447v-66h-378v-249h195v-65h-195v-249h378v-66h-447zM97 962l49 49l127 -126l127 126l49 -49l-176 -175z" />
    <glyph glyph-name="ecaron" unicode="&#x11b;" 
d="M407 146l60 -34q-30 -51 -81.5 -81.5t-112.5 -30.5q-92 0 -157.5 65.5t-65.5 157.5q0 93 65.5 158.5t157.5 65.5q93 0 158.5 -65.5t65.5 -158.5q0 -17 -3 -34h-371q11 -52 53.5 -86t96.5 -34q43 0 78.5 21t55.5 56zM123 258h301q-11 52 -53.5 86t-97.5 34
q-54 0 -96.5 -34t-53.5 -86zM97 714l49 49l127 -126l127 126l49 -49l-176 -175z" />
    <glyph glyph-name="Gcircumflex" unicode="&#x11c;" 
d="M272 315v65h225v-166q0 -88 -66 -151t-159 -63q-92 0 -157 62.5t-65 151.5v267q0 89 65 151.5t157 62.5q93 0 159 -63t66 -151h-69q0 61 -45.5 104.5t-110.5 43.5q-64 0 -108.5 -43t-44.5 -105v-267q0 -62 44.5 -105t108.5 -43q65 0 110.5 43.5t45.5 104.5v101h-156z
M146 787l-49 49l176 175l176 -175l-49 -49l-127 126z" />
    <glyph glyph-name="gcircumflex" unicode="&#x11d;" 
d="M428 -25v87q-64 -62 -155 -62q-92 0 -157.5 65.5t-65.5 157.5q0 93 65.5 158.5t157.5 65.5q90 0 155 -62v62h69v-472q0 -92 -65.5 -157.5t-158.5 -65.5q-61 0 -112 30.5t-81 81.5l59 34q21 -35 56.5 -56t77.5 -21q64 0 109.5 45t45.5 109zM273 69q63 0 107.5 42.5
t47.5 104.5q0 69 -45 115.5t-110 46.5q-64 0 -109 -45.5t-45 -109.5t45 -109t109 -45zM146 539l-49 49l176 175l176 -175l-49 -49l-127 126z" />
    <glyph glyph-name="Gbreve" unicode="&#x11e;" 
d="M272 315v65h225v-166q0 -88 -66 -151t-159 -63q-92 0 -157 62.5t-65 151.5v267q0 89 65 151.5t157 62.5q93 0 159 -63t66 -151h-69q0 61 -45.5 104.5t-110.5 43.5q-64 0 -108.5 -43t-44.5 -105v-267q0 -62 44.5 -105t108.5 -43q65 0 110.5 43.5t45.5 104.5v101h-156z
M335 926h68q0 -53 -38 -91t-92 -38q-53 0 -91 38t-38 91h68q0 -26 18 -43.5t43 -17.5q26 0 44 18t18 43z" />
    <glyph glyph-name="gbreve" unicode="&#x11f;" 
d="M428 -25v87q-64 -62 -155 -62q-92 0 -157.5 65.5t-65.5 157.5q0 93 65.5 158.5t157.5 65.5q90 0 155 -62v62h69v-472q0 -92 -65.5 -157.5t-158.5 -65.5q-61 0 -112 30.5t-81 81.5l59 34q21 -35 56.5 -56t77.5 -21q64 0 109.5 45t45.5 109zM273 69q63 0 107.5 42.5
t47.5 104.5q0 69 -45 115.5t-110 46.5q-64 0 -109 -45.5t-45 -109.5t45 -109t109 -45zM335 678h68q0 -53 -38 -91t-92 -38q-53 0 -91 38t-38 91h68q0 -26 18 -43.5t43 -17.5q26 0 44 18t18 43z" />
    <glyph glyph-name="Gdotaccent" unicode="&#x120;" 
d="M272 315v65h225v-166q0 -88 -66 -151t-159 -63q-92 0 -157 62.5t-65 151.5v267q0 89 65 151.5t157 62.5q93 0 159 -63t66 -151h-69q0 61 -45.5 104.5t-110.5 43.5q-64 0 -108.5 -43t-44.5 -105v-267q0 -62 44.5 -105t108.5 -43q65 0 110.5 43.5t45.5 104.5v101h-156z
M273 917q22 0 37 -15t15 -37q0 -21 -15 -36t-37 -15q-21 0 -36 15t-15 36q0 22 15 37t36 15z" />
    <glyph glyph-name="gdotaccent" unicode="&#x121;" 
d="M428 -25v87q-64 -62 -155 -62q-92 0 -157.5 65.5t-65.5 157.5q0 93 65.5 158.5t157.5 65.5q90 0 155 -62v62h69v-472q0 -92 -65.5 -157.5t-158.5 -65.5q-61 0 -112 30.5t-81 81.5l59 34q21 -35 56.5 -56t77.5 -21q64 0 109.5 45t45.5 109zM273 69q63 0 107.5 42.5
t47.5 104.5q0 69 -45 115.5t-110 46.5q-64 0 -109 -45.5t-45 -109.5t45 -109t109 -45zM273 669q22 0 37 -15t15 -37q0 -21 -15 -36t-37 -15q-21 0 -36 15t-15 36q0 22 15 37t36 15z" />
    <glyph glyph-name="Gcommaaccent" unicode="&#x122;" 
d="M272 315v65h225v-166q0 -88 -66 -151t-159 -63q-92 0 -157 62.5t-65 151.5v267q0 89 65 151.5t157 62.5q93 0 159 -63t66 -151h-69q0 61 -45.5 104.5t-110.5 43.5q-64 0 -108.5 -43t-44.5 -105v-267q0 -62 44.5 -105t108.5 -43q65 0 110.5 43.5t45.5 104.5v101h-156z
M325 -283h-69v125q-34 12 -34 49q0 21 15 36t36 15q22 0 37 -15t15 -36v-174z" />
    <glyph glyph-name="gcommaaccent" unicode="&#x123;" 
d="M222 757h69v-125q34 -12 34 -49q0 -21 -15 -36t-36 -15q-22 0 -37 15t-15 36v174zM428 -25v87q-64 -62 -155 -62q-92 0 -157.5 65.5t-65.5 157.5q0 93 65.5 158.5t157.5 65.5q90 0 155 -62v62h69v-472q0 -92 -65.5 -157.5t-158.5 -65.5q-61 0 -112 30.5t-81 81.5l59 34
q21 -35 56.5 -56t77.5 -21q64 0 109.5 45t45.5 109zM273 69q63 0 107.5 42.5t47.5 104.5q0 69 -45 115.5t-110 46.5q-64 0 -109 -45.5t-45 -109.5t45 -109t109 -45z" />
    <glyph glyph-name="Hcircumflex" unicode="&#x124;" 
d="M497 695v-695h-69v315h-309v-315h-69v695h69v-315h309v315h69zM146 787l-49 49l176 175l176 -175l-49 -49l-127 126z" />
    <glyph glyph-name="hcircumflex" unicode="&#x125;" 
d="M497 223v-223h-69v223q0 65 -45 110t-110 45q-62 0 -107 -43.5t-47 -105.5v-229h-69v695h69v-310q65 62 154 62q93 0 158.5 -65.5t65.5 -158.5zM146 787l-49 49l176 175l176 -175l-49 -49l-127 126z" />
    <glyph glyph-name="hbar" unicode="&#x127;" 
d="M-70 537v65h120v93h69v-93h120v-65h-120v-152q65 62 154 62q93 0 158.5 -65.5t65.5 -158.5v-223h-69v223q0 65 -45 110t-110 45q-62 0 -107 -43.5t-47 -105.5v-229h-69v537h-120z" />
    <glyph glyph-name="Itilde" unicode="&#x128;" 
d="M50 629v66h447v-66h-191v-563h191v-66h-447v66h190v563h-190zM247 859q-5 14 -20 21t-30 0q-32 -13 -15 -65l-50 -19q-20 35 -8 77t53 57q35 13 71 -0.5t53 -50.5q8 -16 21.5 -23t26.5 -1q23 11 23.5 29t-6.5 36l52 21q19 -39 8.5 -81.5t-53.5 -57.5q-34 -15 -70.5 -1.5
t-55.5 58.5z" />
    <glyph glyph-name="itilde" unicode="&#x129;" 
d="M308 447v-378h189v-69h-447v69h189v309h-141v69h210zM247 611q-5 14 -20 21t-30 0q-32 -13 -15 -65l-50 -19q-20 35 -8 77t53 57q35 13 71 -0.5t53 -50.5q8 -16 21.5 -23t26.5 -1q23 11 23.5 29t-6.5 36l52 21q19 -39 8.5 -81.5t-53.5 -57.5q-34 -15 -70.5 -1.5
t-55.5 58.5z" />
    <glyph glyph-name="Imacron" unicode="&#x12a;" 
d="M50 629v66h447v-66h-191v-563h191v-66h-447v66h190v563h-190zM119 845v65h309v-65h-309z" />
    <glyph glyph-name="imacron" unicode="&#x12b;" 
d="M308 447v-378h189v-69h-447v69h189v309h-141v69h210zM119 597v65h309v-65h-309z" />
    <glyph glyph-name="Ibreve" unicode="&#x12c;" 
d="M50 629v66h447v-66h-191v-563h191v-66h-447v66h190v563h-190zM335 926h68q0 -53 -38 -91t-92 -38q-53 0 -91 38t-38 91h68q0 -26 18 -43.5t43 -17.5q26 0 44 18t18 43z" />
    <glyph glyph-name="ibreve" unicode="&#x12d;" 
d="M308 447v-378h189v-69h-447v69h189v309h-141v69h210zM335 678h68q0 -53 -38 -91t-92 -38q-53 0 -91 38t-38 91h68q0 -26 18 -43.5t43 -17.5q26 0 44 18t18 43z" />
    <glyph glyph-name="Iogonek" unicode="&#x12e;" 
d="M50 629v66h447v-66h-191v-563h191v-66h-182q-39 -15 -45.5 -53.5t22.5 -62.5t79 -6l26 -65q-55 -21 -110 -1.5t-78 73.5q-23 64 10 115h-169v66h190v563h-190z" />
    <glyph glyph-name="iogonek" unicode="&#x12f;" 
d="M308 447v-378h189v-69h-190q-39 -15 -45.5 -53.5t22.5 -62.5t79 -6l26 -65q-55 -21 -110 -1.5t-78 73.5q-23 64 10 115h-161v69h189v309h-141v69h210zM325 614q0 -22 -15 -37t-37 -15q-21 0 -36 15t-15 37q0 21 15 36t36 15q22 0 37 -15t15 -36z" />
    <glyph glyph-name="Idotaccent" unicode="&#x130;" 
d="M50 629v66h447v-66h-191v-563h191v-66h-447v66h190v563h-190zM273 917q22 0 37 -15t15 -37q0 -21 -15 -36t-37 -15q-21 0 -36 15t-15 36q0 22 15 37t36 15z" />
    <glyph glyph-name="dotlessi" unicode="&#x131;" 
d="M308 447v-378h189v-69h-447v69h189v309h-141v69h210z" />
    <glyph glyph-name="Jcircumflex" unicode="&#x134;" 
d="M497 695v-481q0 -87 -71 -150.5t-161 -63.5q-72 0 -129 33t-86 84l57 33q20 -34 65 -59t93 -25q63 0 113 44t50 104v415h-277v66h346zM146 787l-49 49l176 175l176 -175l-49 -49l-127 126z" />
    <glyph glyph-name="jcircumflex" unicode="&#x135;" 
d="M147 378v69h321v-472q0 -93 -66 -158.5t-158 -65.5q-61 0 -112.5 30.5t-81.5 81.5l60 34q20 -35 55.5 -56t78.5 -21q64 0 109.5 45.5t45.5 109.5v403h-252zM146 539l-49 49l176 175l176 -175l-49 -49l-127 126z" />
    <glyph glyph-name="Kcommaaccent" unicode="&#x136;" 
d="M118 695v-315h145l164 315h70l-181 -344l181 -351h-70l-161 314h-148v-314h-68v695h68zM325 -283h-69v125q-34 12 -34 49q0 21 15 36t36 15q22 0 37 -15t15 -36v-174z" />
    <glyph glyph-name="kcommaaccent" unicode="&#x137;" 
d="M497 447l-198 -158l198 -289h-78l-168 250l-132 -106v-144h-69v695h69v-469l283 221h95zM325 -283h-69v125q-34 12 -34 49q0 21 15 36t36 15q22 0 37 -15t15 -36v-174z" />
    <glyph glyph-name="Lacute" unicode="&#x139;" 
d="M50 0v695h69v-629h378v-66h-447zM210 747l-49 49l176 175l49 -49z" />
    <glyph glyph-name="lacute" unicode="&#x13a;" 
d="M497 69v-69h-447v69h189v560h-120v66h189v-626h189zM210 747l-49 49l176 175l49 -49z" />
    <glyph glyph-name="Lcommaaccent" unicode="&#x13b;" 
d="M50 0v695h69v-629h378v-66h-447zM325 -283h-69v125q-34 12 -34 49q0 21 15 36t36 15q22 0 37 -15t15 -36v-174z" />
    <glyph glyph-name="lcommaaccent" unicode="&#x13c;" 
d="M497 69v-69h-447v69h189v560h-120v66h189v-626h189zM325 -283h-69v125q-34 12 -34 49q0 21 15 36t36 15q22 0 37 -15t15 -36v-174z" />
    <glyph glyph-name="Lcaron" unicode="&#x13d;" 
d="M497 66v-66h-447v695h69v-629h378zM-92 962l49 49l127 -126l127 126l49 -49l-176 -175z" />
    <glyph glyph-name="lcaron" unicode="&#x13e;" 
d="M497 69v-69h-447v69h189v560h-120v66h189v-626h189zM497 499h-69v125q-34 12 -34 49q0 21 15 36t36 15q22 0 37 -15t15 -36v-174z" />
    <glyph glyph-name="Ldot" unicode="&#x13f;" 
d="M50 0v695h69v-629h378v-66h-447zM359 434q22 0 37 -15t15 -37q0 -21 -15 -36t-37 -15q-21 0 -36 15t-15 36q0 22 15 37t36 15z" />
    <glyph glyph-name="ldot" unicode="&#x140;" 
d="M497 69v-69h-447v69h189v560h-120v66h189v-626h189zM447 669q22 0 37 -15t15 -37q0 -21 -15 -36t-37 -15q-21 0 -36 15t-15 36q0 22 15 37t36 15z" />
    <glyph glyph-name="Lslash" unicode="&#x141;" 
d="M50 0v196l-83 -48l-33 56l116 67v424h69v-384l83 48l33 -56l-116 -67v-170h378v-66h-447z" />
    <glyph glyph-name="lslash" unicode="&#x142;" 
d="M156 148l-33 56l116 67v358h-120v66h189v-384l83 48l33 -56l-116 -67v-167h189v-69h-447v69h189v127z" />
    <glyph glyph-name="Nacute" unicode="&#x143;" 
d="M428 695h69v-695h-69l-309 569v-569h-69v695h69l309 -562v562zM210 747l-49 49l176 175l49 -49z" />
    <glyph glyph-name="nacute" unicode="&#x144;" 
d="M273 447q93 0 158.5 -65.5t65.5 -158.5v-223h-69v223q0 65 -45 110t-110 45q-64 0 -109 -45t-45 -109v-224h-69v447h69v-62q65 62 154 62zM210 499l-49 49l176 175l49 -49z" />
    <glyph glyph-name="Ncommaaccent" unicode="&#x145;" 
d="M428 695h69v-695h-69l-309 569v-569h-69v695h69l309 -562v562zM325 -283h-69v125q-34 12 -34 49q0 21 15 36t36 15q22 0 37 -15t15 -36v-174z" />
    <glyph glyph-name="ncommaaccent" unicode="&#x146;" 
d="M273 447q93 0 158.5 -65.5t65.5 -158.5v-223h-69v223q0 65 -45 110t-110 45q-64 0 -109 -45t-45 -109v-224h-69v447h69v-62q65 62 154 62zM325 -283h-69v125q-34 12 -34 49q0 21 15 36t36 15q22 0 37 -15t15 -36v-174z" />
    <glyph glyph-name="Ncaron" unicode="&#x147;" 
d="M428 695h69v-695h-69l-309 569v-569h-69v695h69l309 -562v562zM97 962l49 49l127 -126l127 126l49 -49l-176 -175z" />
    <glyph glyph-name="ncaron" unicode="&#x148;" 
d="M273 447q93 0 158.5 -65.5t65.5 -158.5v-223h-69v223q0 65 -45 110t-110 45q-64 0 -109 -45t-45 -109v-224h-69v447h69v-62q65 62 154 62zM97 714l49 49l127 -126l127 126l49 -49l-176 -175z" />
    <glyph glyph-name="napostrophe" unicode="&#x149;" 
d="M273 447q93 0 158.5 -65.5t65.5 -158.5v-223h-69v223q0 65 -45 110t-110 45q-64 0 -109 -45t-45 -109v-224h-69v447h69v-62q65 62 154 62zM119 597h-69v125q-34 12 -34 49q0 21 15 36t36 15q22 0 37 -15t15 -36v-174z" />
    <glyph glyph-name="Eng" unicode="&#x14a;" 
d="M497 695v-729q0 -87 -71 -150.5t-161 -63.5q-72 0 -129 33t-86 84l57 33q20 -34 65 -59t93 -25q63 0 113 44t50 104v34l-309 569v-569h-69v695h69l309 -562v562h69z" />
    <glyph glyph-name="eng" unicode="&#x14b;" 
d="M497 223v-247q0 -93 -66 -158.5t-158 -65.5q-61 0 -112.5 30.5t-81.5 81.5l60 34q20 -35 55.5 -56t78.5 -21q64 0 109.5 45.5t45.5 109.5v253q-3 63 -47.5 106t-107.5 43q-64 0 -109 -45t-45 -109v-224h-69v447h69v-62q65 62 154 62q93 0 158.5 -65.5t65.5 -158.5z" />
    <glyph glyph-name="Omacron" unicode="&#x14c;" 
d="M497 481v-268q0 -88 -68 -151t-158 -63q-89 0 -155 63t-66 151v268q0 88 66 151t155 63q90 0 158 -63t68 -151zM428 213v268q0 61 -47.5 104.5t-109.5 43.5t-107 -43.5t-45 -104.5v-268q0 -61 45 -104.5t107 -43.5t109.5 43.5t47.5 104.5zM119 845v65h309v-65h-309z" />
    <glyph glyph-name="omacron" unicode="&#x14d;" 
d="M273 447q93 0 158.5 -65.5t65.5 -158.5q0 -92 -65.5 -157.5t-158.5 -65.5q-92 0 -157.5 65.5t-65.5 157.5q0 93 65.5 158.5t157.5 65.5zM273 69q64 0 109.5 45t45.5 109q0 65 -45 110t-110 45q-64 0 -109 -45.5t-45 -109.5t45 -109t109 -45zM119 597v65h309v-65h-309z
" />
    <glyph glyph-name="Obreve" unicode="&#x14e;" 
d="M497 481v-268q0 -88 -68 -151t-158 -63q-89 0 -155 63t-66 151v268q0 88 66 151t155 63q90 0 158 -63t68 -151zM428 213v268q0 61 -47.5 104.5t-109.5 43.5t-107 -43.5t-45 -104.5v-268q0 -61 45 -104.5t107 -43.5t109.5 43.5t47.5 104.5zM335 926h68q0 -53 -38 -91
t-92 -38q-53 0 -91 38t-38 91h68q0 -26 18 -43.5t43 -17.5q26 0 44 18t18 43z" />
    <glyph glyph-name="Ohungarumlaut" unicode="&#x150;" 
d="M497 481v-268q0 -88 -68 -151t-158 -63q-89 0 -155 63t-66 151v268q0 88 66 151t155 63q90 0 158 -63t68 -151zM428 213v268q0 61 -47.5 104.5t-109.5 43.5t-107 -43.5t-45 -104.5v-268q0 -61 45 -104.5t107 -43.5t109.5 43.5t47.5 104.5zM185 767l-49 49l176 175l49 -49
zM395 767l-49 49l176 175l49 -49z" />
    <glyph glyph-name="ohungarumlaut" unicode="&#x151;" 
d="M273 447q93 0 158.5 -65.5t65.5 -158.5q0 -92 -65.5 -157.5t-158.5 -65.5q-92 0 -157.5 65.5t-65.5 157.5q0 93 65.5 158.5t157.5 65.5zM273 69q64 0 109.5 45t45.5 109q0 65 -45 110t-110 45q-64 0 -109 -45.5t-45 -109.5t45 -109t109 -45zM165 529l-49 49l176 175
l49 -49zM375 529l-49 49l176 175l49 -49z" />
    <glyph glyph-name="OE" unicode="&#x152;" 
d="M50 213v268q0 88 67 151t156 63h224v-66h-155v-249h86v-65h-86v-246h155v-69h-224q-89 0 -156 62.5t-67 150.5zM273 69v560q-62 0 -108 -43.5t-46 -104.5v-268q0 -61 46 -102.5t108 -41.5z" />
    <glyph glyph-name="oe" unicode="&#x153;" 
d="M443 132l47 -24q-17 -48 -49 -78t-65 -30q-74 0 -103 84q-28 -84 -103 -84q-51 0 -85.5 65t-34.5 158q0 94 36 159t92 65q67 0 95 -85q30 85 95 85q39 0 67.5 -29t41.5 -71.5t17.5 -84t0.5 -73.5l-187 2q0 -52 19 -87t49 -35q42 0 67 63zM178 69q25 0 43 44t18 110
q0 67 -18 111.5t-43 44.5t-42 -45.5t-17 -110.5q0 -64 17 -109t42 -45zM308 259h120q0 49 -18.5 83t-41.5 34t-41.5 -33.5t-18.5 -83.5z" />
    <glyph glyph-name="Racute" unicode="&#x154;" 
d="M50 695h233q87 0 150.5 -62.5t63.5 -149.5q0 -70 -43.5 -126t-109.5 -76l153 -281h-78l-148 272h-152v-272h-69v695zM283 629h-164v-291h164q60 0 102.5 42.5t42.5 102.5q0 61 -42.5 103.5t-102.5 42.5zM210 747l-49 49l176 175l49 -49z" />
    <glyph glyph-name="racute" unicode="&#x155;" 
d="M387 378q-64 0 -109 -45t-45 -109v-155h167v-69h-350v69h114v309h-114v69h183v-62q65 62 154 62q61 0 110 -29l-33 -60q-34 20 -77 20zM210 499l-49 49l176 175l49 -49z" />
    <glyph glyph-name="Rcommaaccent" unicode="&#x156;" 
d="M50 695h233q87 0 150.5 -62.5t63.5 -149.5q0 -70 -43.5 -126t-109.5 -76l153 -281h-78l-148 272h-152v-272h-69v695zM283 629h-164v-291h164q60 0 102.5 42.5t42.5 102.5q0 61 -42.5 103.5t-102.5 42.5zM325 -283h-69v125q-34 12 -34 49q0 21 15 36t36 15q22 0 37 -15
t15 -36v-174z" />
    <glyph glyph-name="rcommaaccent" unicode="&#x157;" 
d="M387 378q-64 0 -109 -45t-45 -109v-155h167v-69h-350v69h114v309h-114v69h183v-62q65 62 154 62q61 0 110 -29l-33 -60q-34 20 -77 20zM325 -283h-69v125q-34 12 -34 49q0 21 15 36t36 15q22 0 37 -15t15 -36v-174z" />
    <glyph glyph-name="Rcaron" unicode="&#x158;" 
d="M50 695h233q87 0 150.5 -62.5t63.5 -149.5q0 -70 -43.5 -126t-109.5 -76l153 -281h-78l-148 272h-152v-272h-69v695zM283 629h-164v-291h164q60 0 102.5 42.5t42.5 102.5q0 61 -42.5 103.5t-102.5 42.5zM97 962l49 49l127 -126l127 126l49 -49l-176 -175z" />
    <glyph glyph-name="rcaron" unicode="&#x159;" 
d="M387 378q-64 0 -109 -45t-45 -109v-155h167v-69h-350v69h114v309h-114v69h183v-62q65 62 154 62q61 0 110 -29l-33 -60q-34 20 -77 20zM97 714l49 49l127 -126l127 126l49 -49l-176 -175z" />
    <glyph glyph-name="Sacute" unicode="&#x15a;" 
d="M272 380q96 -14 160.5 -64.5t64.5 -125.5q0 -79 -67 -134.5t-158 -55.5q-90 0 -156 56t-66 135h69q0 -51 45.5 -87.5t107.5 -36.5q63 0 109.5 36t46.5 87q0 49 -45 82t-111 42q-94 13 -158 64t-64 126q0 79 66 135t156 56q91 0 158 -56t67 -135h-69q0 51 -46.5 88
t-109.5 37q-62 0 -107.5 -37t-45.5 -88q0 -49 44.5 -82t108.5 -42zM210 747l-49 49l176 175l49 -49z" />
    <glyph glyph-name="sacute" unicode="&#x15b;" 
d="M273 257q112 0 168 -36.5t56 -94.5q0 -52 -65 -89t-159 -37q-91 0 -157 37.5t-66 88.5h68q0 -26 45 -44.5t110 -18.5t110.5 18.5t45.5 44.5q0 63 -156 63q-110 0 -166.5 36t-56.5 91q0 54 66 92.5t157 38.5q95 0 159.5 -38t64.5 -93h-68q0 26 -46 47t-110 21t-109.5 -21
t-45.5 -47q0 -59 155 -59zM210 499l-49 49l176 175l49 -49z" />
    <glyph glyph-name="Scircumflex" unicode="&#x15c;" 
d="M272 380q96 -14 160.5 -64.5t64.5 -125.5q0 -79 -67 -134.5t-158 -55.5q-90 0 -156 56t-66 135h69q0 -51 45.5 -87.5t107.5 -36.5q63 0 109.5 36t46.5 87q0 49 -45 82t-111 42q-94 13 -158 64t-64 126q0 79 66 135t156 56q91 0 158 -56t67 -135h-69q0 51 -46.5 88
t-109.5 37q-62 0 -107.5 -37t-45.5 -88q0 -49 44.5 -82t108.5 -42zM146 787l-49 49l176 175l176 -175l-49 -49l-127 126z" />
    <glyph glyph-name="scircumflex" unicode="&#x15d;" 
d="M273 257q112 0 168 -36.5t56 -94.5q0 -52 -65 -89t-159 -37q-91 0 -157 37.5t-66 88.5h68q0 -26 45 -44.5t110 -18.5t110.5 18.5t45.5 44.5q0 63 -156 63q-110 0 -166.5 36t-56.5 91q0 54 66 92.5t157 38.5q95 0 159.5 -38t64.5 -93h-68q0 26 -46 47t-110 21t-109.5 -21
t-45.5 -47q0 -59 155 -59zM146 539l-49 49l176 175l176 -175l-49 -49l-127 126z" />
    <glyph glyph-name="Scedilla" unicode="&#x15e;" 
d="M272 380q96 -14 160.5 -64.5t64.5 -125.5q0 -62 -44.5 -112t-112.5 -69q42 -53 17 -124q-23 -54 -78 -73.5t-110 1.5l26 65q50 -18 79.5 7.5t21 64t-50.5 51.5q-81 9 -138 63t-57 127h69q0 -51 45.5 -87.5t107.5 -36.5q63 0 109.5 36t46.5 87q0 49 -45 82t-111 42
q-94 13 -158 64t-64 126q0 79 66 135t156 56q91 0 158 -56t67 -135h-69q0 51 -46.5 88t-109.5 37q-62 0 -107.5 -37t-45.5 -88q0 -49 44.5 -82t108.5 -42z" />
    <glyph glyph-name="scedilla" unicode="&#x15f;" 
d="M273 257q112 0 168 -36.5t56 -94.5q0 -41 -43 -74.5t-111 -45.5q38 -54 14 -121q-23 -54 -78 -73.5t-110 1.5l26 65q50 -18 79 7t21 63.5t-48 52.5q-82 5 -139.5 41.5t-57.5 83.5h68q0 -26 45 -44.5t110 -18.5t110.5 18.5t45.5 44.5q0 63 -156 63q-110 0 -166.5 36
t-56.5 91q0 54 66 92.5t157 38.5q95 0 159.5 -38t64.5 -93h-68q0 26 -46 47t-110 21t-109.5 -21t-45.5 -47q0 -59 155 -59z" />
    <glyph glyph-name="Scaron" unicode="&#x160;" 
d="M272 380q96 -14 160.5 -64.5t64.5 -125.5q0 -79 -67 -134.5t-158 -55.5q-90 0 -156 56t-66 135h69q0 -51 45.5 -87.5t107.5 -36.5q63 0 109.5 36t46.5 87q0 49 -45 82t-111 42q-94 13 -158 64t-64 126q0 79 66 135t156 56q91 0 158 -56t67 -135h-69q0 51 -46.5 88
t-109.5 37q-62 0 -107.5 -37t-45.5 -88q0 -49 44.5 -82t108.5 -42zM97 962l49 49l127 -126l127 126l49 -49l-176 -175z" />
    <glyph glyph-name="scaron" unicode="&#x161;" 
d="M273 257q112 0 168 -36.5t56 -94.5q0 -52 -65 -89t-159 -37q-91 0 -157 37.5t-66 88.5h68q0 -26 45 -44.5t110 -18.5t110.5 18.5t45.5 44.5q0 63 -156 63q-110 0 -166.5 36t-56.5 91q0 54 66 92.5t157 38.5q95 0 159.5 -38t64.5 -93h-68q0 26 -46 47t-110 21t-109.5 -21
t-45.5 -47q0 -59 155 -59zM97 714l49 49l127 -126l127 126l49 -49l-176 -175z" />
    <glyph glyph-name="Tcommaaccent" unicode="&#x162;" 
d="M50 629v66h447v-66h-191v-629h-66v629h-190zM325 -283h-69v125q-34 12 -34 49q0 21 15 36t36 15q22 0 37 -15t15 -36v-174z" />
    <glyph glyph-name="tcommaaccent" unicode="&#x163;" 
d="M245 447h252v-69h-252v-218q0 -38 27 -64.5t65 -26.5q37 0 64 26.5t27 64.5h69q0 -66 -47 -113t-113 -47q-67 0 -113.5 47t-46.5 113v218h-127v69h127v127h68v-127zM325 -283h-69v125q-34 12 -34 49q0 21 15 36t36 15q22 0 37 -15t15 -36v-174z" />
    <glyph glyph-name="Tcaron" unicode="&#x164;" 
d="M50 629v66h447v-66h-191v-629h-66v629h-190zM97 962l49 49l127 -126l127 126l49 -49l-176 -175z" />
    <glyph glyph-name="tcaron" unicode="&#x165;" 
d="M245 447h252v-69h-252v-218q0 -38 27 -64.5t65 -26.5q37 0 64 26.5t27 64.5h69q0 -66 -47 -113t-113 -47q-67 0 -113.5 47t-46.5 113v218h-127v69h127v127h68v-127zM497 572h-69v125q-34 12 -34 49q0 21 15 36t36 15q22 0 37 -15t15 -36v-174z" />
    <glyph glyph-name="Tbar" unicode="&#x166;" 
d="M119 301v65h121v263h-190v66h447v-66h-191v-263h122v-65h-122v-301h-66v301h-121z" />
    <glyph glyph-name="tbar" unicode="&#x167;" 
d="M50 235v65h127v78h-127v69h127v127h68v-127h252v-69h-252v-78h114v-65h-114v-75q0 -38 27 -64.5t65 -26.5q37 0 64 26.5t27 64.5h69q0 -66 -47 -113t-113 -47q-67 0 -113.5 47t-46.5 113v75h-127z" />
    <glyph glyph-name="Utilde" unicode="&#x168;" 
d="M428 695h69v-481q0 -88 -68 -151t-158 -63q-89 0 -155 63t-66 151v481h69v-481q0 -61 45 -104.5t107 -43.5t109.5 43.5t47.5 104.5v481zM247 859q-5 14 -20 21t-30 0q-32 -13 -15 -65l-50 -19q-20 35 -8 77t53 57q35 13 71 -0.5t53 -50.5q8 -16 21.5 -23t26.5 -1
q23 11 23.5 29t-6.5 36l52 21q19 -39 8.5 -81.5t-53.5 -57.5q-34 -15 -70.5 -1.5t-55.5 58.5z" />
    <glyph glyph-name="utilde" unicode="&#x169;" 
d="M274 0q-93 0 -158.5 65.5t-65.5 158.5v223h69v-223q0 -64 45.5 -109.5t109.5 -45.5t109 45t45 109v224h69v-447h-69v62q-65 -62 -154 -62zM247 611q-5 14 -20 21t-30 0q-32 -13 -15 -65l-50 -19q-20 35 -8 77t53 57q35 13 71 -0.5t53 -50.5q8 -16 21.5 -23t26.5 -1
q23 11 23.5 29t-6.5 36l52 21q19 -39 8.5 -81.5t-53.5 -57.5q-34 -15 -70.5 -1.5t-55.5 58.5z" />
    <glyph glyph-name="umacron" unicode="&#x16b;" 
d="M274 0q-93 0 -158.5 65.5t-65.5 158.5v223h69v-223q0 -64 45.5 -109.5t109.5 -45.5t109 45t45 109v224h69v-447h-69v62q-65 -62 -154 -62zM119 597v65h309v-65h-309z" />
    <glyph glyph-name="Ubreve" unicode="&#x16c;" 
d="M428 695h69v-481q0 -88 -68 -151t-158 -63q-89 0 -155 63t-66 151v481h69v-481q0 -61 45 -104.5t107 -43.5t109.5 43.5t47.5 104.5v481zM335 926h68q0 -53 -38 -91t-92 -38q-53 0 -91 38t-38 91h68q0 -26 18 -43.5t43 -17.5q26 0 44 18t18 43z" />
    <glyph glyph-name="ubreve" unicode="&#x16d;" 
d="M274 0q-93 0 -158.5 65.5t-65.5 158.5v223h69v-223q0 -64 45.5 -109.5t109.5 -45.5t109 45t45 109v224h69v-447h-69v62q-65 -62 -154 -62zM335 678h68q0 -53 -38 -91t-92 -38q-53 0 -91 38t-38 91h68q0 -26 18 -43.5t43 -17.5q26 0 44 18t18 43z" />
    <glyph glyph-name="Uring" unicode="&#x16e;" 
d="M428 695h69v-481q0 -88 -68 -151t-158 -63q-89 0 -155 63t-66 151v481h69v-481q0 -61 45 -104.5t107 -43.5t109.5 43.5t47.5 104.5v481zM273 1006q54 0 92 -38t38 -92q0 -53 -38 -91t-92 -38q-53 0 -91 38t-38 91q0 54 38 92t91 38zM273 815q26 0 44 18t18 43
q0 26 -18.5 44t-43.5 18t-43 -18t-18 -44t18 -43.5t43 -17.5z" />
    <glyph glyph-name="uring" unicode="&#x16f;" 
d="M274 0q-93 0 -158.5 65.5t-65.5 158.5v223h69v-223q0 -64 45.5 -109.5t109.5 -45.5t109 45t45 109v224h69v-447h-69v62q-65 -62 -154 -62zM273 758q54 0 92 -38t38 -92q0 -53 -38 -91t-92 -38q-53 0 -91 38t-38 91q0 54 38 92t91 38zM273 567q26 0 44 18t18 43
q0 26 -18.5 44t-43.5 18t-43 -18t-18 -44t18 -43.5t43 -17.5z" />
    <glyph glyph-name="Uhungarumlaut" unicode="&#x170;" 
d="M428 695h69v-481q0 -88 -68 -151t-158 -63q-89 0 -155 63t-66 151v481h69v-481q0 -61 45 -104.5t107 -43.5t109.5 43.5t47.5 104.5v481zM105 747l-49 49l176 175l49 -49zM315 747l-49 49l176 175l49 -49z" />
    <glyph glyph-name="uhungarumlaut" unicode="&#x171;" 
d="M274 0q-93 0 -158.5 65.5t-65.5 158.5v223h69v-223q0 -64 45.5 -109.5t109.5 -45.5t109 45t45 109v224h69v-447h-69v62q-65 -62 -154 -62zM175 529l-49 49l176 175l49 -49zM385 529l-49 49l176 175l49 -49z" />
    <glyph glyph-name="Uogonek" unicode="&#x172;" 
d="M428 695h69v-481q0 -82 -60.5 -143.5t-144.5 -69.5q-40 -14 -48 -52.5t21.5 -63.5t79.5 -7l26 -65q-55 -21 -110 -1.5t-78 73.5q-26 72 18 126q-66 22 -108.5 78t-42.5 125v481h69v-481q0 -61 45 -104.5t107 -43.5t109.5 43.5t47.5 104.5v481z" />
    <glyph glyph-name="uogonek" unicode="&#x173;" 
d="M428 447h69v-447q-46 -10 -57.5 -50t18 -67.5t81.5 -8.5l26 -65q-55 -21 -110 -1.5t-78 73.5q-17 46 -3 87.5t54 68.5v25q-65 -62 -154 -62q-93 0 -158.5 65.5t-65.5 158.5v223h69v-223q0 -64 45.5 -109.5t109.5 -45.5t109 45t45 109v224z" />
    <glyph glyph-name="Wcircumflex" unicode="&#x174;" 
d="M358 178l70 517h69l-107 -695h-57l-60 268l-72 -268h-52l-99 695h69l68 -517l53 177h66zM146 787l-49 49l176 175l176 -175l-49 -49l-127 126z" />
    <glyph glyph-name="wcircumflex" unicode="&#x175;" 
d="M345 91l79 356h73l-115 -447h-68l-41 187l-40 -187h-68l-115 447h73l79 -356l42 187h59zM146 539l-49 49l176 175l176 -175l-49 -49l-127 126z" />
    <glyph glyph-name="Ycircumflex" unicode="&#x176;" 
d="M497 695l-191 -348v-347h-66v348l-190 347h69l154 -274l155 274h69zM146 787l-49 49l176 175l176 -175l-49 -49l-127 126z" />
    <glyph glyph-name="ycircumflex" unicode="&#x177;" 
d="M273 91l150 356h74l-294 -695h-73l107 252l-187 443h74zM146 539l-49 49l176 175l176 -175l-49 -49l-127 126z" />
    <glyph glyph-name="Ydieresis" unicode="&#x178;" 
d="M497 695l-191 -348v-347h-66v348l-190 347h69l154 -274l155 274h69zM388 907q22 0 37 -15t15 -37q0 -21 -15 -36t-37 -15q-21 0 -36 15t-15 36q0 22 15 37t36 15zM159 907q22 0 37 -15t15 -37q0 -21 -15 -36t-37 -15q-21 0 -36 15t-15 36q0 22 15 37t36 15z" />
    <glyph glyph-name="Zacute" unicode="&#x179;" 
d="M497 695v-66l-368 -563h368v-66h-447v66l368 563h-368v66h447zM210 747l-49 49l176 175l49 -49z" />
    <glyph glyph-name="zacute" unicode="&#x17a;" 
d="M497 447v-69l-354 -309h354v-69h-447v69l354 309h-354v69h447zM210 499l-49 49l176 175l49 -49z" />
    <glyph glyph-name="Zdotaccent" unicode="&#x17b;" 
d="M497 695v-66l-368 -563h368v-66h-447v66l368 563h-368v66h447zM273 917q22 0 37 -15t15 -37q0 -21 -15 -36t-37 -15q-21 0 -36 15t-15 36q0 22 15 37t36 15z" />
    <glyph glyph-name="zdotaccent" unicode="&#x17c;" 
d="M497 447v-69l-354 -309h354v-69h-447v69l354 309h-354v69h447zM273 669q22 0 37 -15t15 -37q0 -21 -15 -36t-37 -15q-21 0 -36 15t-15 36q0 22 15 37t36 15z" />
    <glyph glyph-name="Zcaron" unicode="&#x17d;" 
d="M497 695v-66l-368 -563h368v-66h-447v66l368 563h-368v66h447zM97 962l49 49l127 -126l127 126l49 -49l-176 -175z" />
    <glyph glyph-name="zcaron" unicode="&#x17e;" 
d="M497 447v-69l-354 -309h354v-69h-447v69l354 309h-354v69h447zM97 714l49 49l127 -126l127 126l49 -49l-176 -175z" />
    <glyph glyph-name="AEacute" unicode="&#x1fc;" 
d="M273 0v181h-100l-48 -181h-73l188 695h257v-66h-155v-249h86v-65h-86v-249h155v-66h-224zM190 247h83v313zM210 747l-49 49l176 175l49 -49z" />
    <glyph glyph-name="aeacute" unicode="&#x1fd;" 
d="M448 140l49 -28q-18 -52 -49 -82t-71 -30q-79 0 -104 69q-37 -76 -130 -69q-41 3 -67 34.5t-26 87.5q0 109 86 135q35 11 103 1q0 52 -16.5 86t-49.5 34q-48 0 -64 -59l-59 20q16 60 58 89t89 16t76 -66q16 39 40.5 54t60.5 15q41 0 69.5 -29.5t38.5 -70.5t14.5 -85
t-1.5 -73h-187q0 -52 21 -86t53 -34q25 0 39.5 17t26.5 54zM308 258h120q0 53 -14 86.5t-40 33.5q-31 0 -48.5 -34t-17.5 -86zM119 125q0 -40 30 -52.5t60 7t30 56.5v53q-1 0 -15.5 1t-25 1t-26.5 -3t-26.5 -9.5t-18.5 -20.5t-8 -33zM210 499l-49 49l176 175l49 -49z" />
    <glyph glyph-name="Oslashacute" unicode="&#x1fe;" 
d="M174 21l-50 -121h-74l67 161q-67 64 -67 152v268q0 88 66 151t155 63q52 0 100 -24l52 124h74l-68 -163q68 -65 68 -151v-268q0 -88 -68 -151t-158 -63q-50 0 -97 22zM428 213v268q0 46 -28 82l-200 -481q32 -17 71 -17q62 0 109.5 43.5t47.5 104.5zM271 629
q-62 0 -107 -43.5t-45 -104.5v-268q0 -46 26 -83l201 480q-36 19 -75 19zM210 747l-49 49l176 175l49 -49z" />
    <glyph glyph-name="oslashacute" unicode="&#x1ff;" 
d="M185 18l-61 -94h-74l82 126q-82 67 -82 173q0 93 65.5 158.5t157.5 65.5q51 0 101 -24l49 76h74l-72 -111q72 -67 72 -165q0 -92 -65.5 -157.5t-158.5 -65.5q-47 0 -88 18zM273 378q-64 0 -109 -45.5t-45 -109.5q0 -68 51 -114l166 256q-31 13 -63 13zM273 69
q64 0 109.5 45t45.5 109q0 61 -42 106l-163 -252q26 -8 50 -8zM210 499l-49 49l176 175l49 -49z" />
    <glyph glyph-name="Scommaaccent" unicode="&#x218;" 
d="M272 380q96 -14 160.5 -64.5t64.5 -125.5q0 -79 -67 -134.5t-158 -55.5q-90 0 -156 56t-66 135h69q0 -51 45.5 -87.5t107.5 -36.5q63 0 109.5 36t46.5 87q0 49 -45 82t-111 42q-94 13 -158 64t-64 126q0 79 66 135t156 56q91 0 158 -56t67 -135h-69q0 51 -46.5 88
t-109.5 37q-62 0 -107.5 -37t-45.5 -88q0 -49 44.5 -82t108.5 -42zM325 -283h-69v125q-34 12 -34 49q0 21 15 36t36 15q22 0 37 -15t15 -36v-174z" />
    <glyph glyph-name="scommaaccent" unicode="&#x219;" 
d="M273 257q112 0 168 -36.5t56 -94.5q0 -52 -65 -89t-159 -37q-91 0 -157 37.5t-66 88.5h68q0 -26 45 -44.5t110 -18.5t110.5 18.5t45.5 44.5q0 63 -156 63q-110 0 -166.5 36t-56.5 91q0 54 66 92.5t157 38.5q95 0 159.5 -38t64.5 -93h-68q0 26 -46 47t-110 21t-109.5 -21
t-45.5 -47q0 -59 155 -59zM325 -283h-69v125q-34 12 -34 49q0 21 15 36t36 15q22 0 37 -15t15 -36v-174z" />
    <glyph glyph-name="dotlessj" unicode="&#x237;" 
d="M147 378v69h321v-472q0 -93 -66 -158.5t-158 -65.5q-61 0 -112.5 30.5t-81.5 81.5l60 34q20 -35 55.5 -56t78.5 -21q64 0 109.5 45.5t45.5 109.5v403h-252z" />
    <glyph glyph-name="circumflex" unicode="&#x2c6;" 
d="M146 539l-49 49l176 175l176 -175l-49 -49l-127 126z" />
    <glyph glyph-name="caron" unicode="&#x2c7;" 
d="M97 714l49 49l127 -126l127 126l49 -49l-176 -175z" />
    <glyph glyph-name="breve" unicode="&#x2d8;" 
d="M335 678h68q0 -53 -38 -91t-92 -38q-53 0 -91 38t-38 91h68q0 -26 18 -43.5t43 -17.5q26 0 44 18t18 43z" />
    <glyph glyph-name="dotaccent" unicode="&#x2d9;" 
d="M273 669q22 0 37 -15t15 -37q0 -21 -15 -36t-37 -15q-21 0 -36 15t-15 36q0 22 15 37t36 15z" />
    <glyph glyph-name="ring" unicode="&#x2da;" 
d="M273 758q54 0 92 -38t38 -92q0 -53 -38 -91t-92 -38q-53 0 -91 38t-38 91q0 54 38 92t91 38zM273 567q26 0 44 18t18 43q0 26 -18.5 44t-43.5 18t-43 -18t-18 -44t18 -43.5t43 -17.5z" />
    <glyph glyph-name="ogonek" unicode="&#x2db;" 
d="M246 41h69v-37q-46 -10 -57.5 -50t18 -67.5t81.5 -8.5l26 -65q-55 -21 -110 -1.5t-78 73.5q-17 46 -3 87.5t54 68.5z" />
    <glyph glyph-name="tilde" unicode="&#x2dc;" 
d="M246 611q-5 14 -20 21t-30 0q-32 -13 -15 -65l-50 -19q-20 35 -8 77t53 57q35 13 71 -0.5t53 -50.5q8 -16 21.5 -23t26.5 -1q23 11 23.5 29t-6.5 36l52 21q19 -39 8.5 -81.5t-53.5 -57.5q-34 -15 -70.5 -1.5t-55.5 58.5z" />
    <glyph glyph-name="hungarumlaut" unicode="&#x2dd;" 
d="M228 499l-49 49l176 175l49 -49zM438 499l-49 49l176 175l49 -49z" />
    <glyph glyph-name="Wgrave" unicode="&#x1e80;" 
d="M358 178l70 517h69l-107 -695h-57l-60 268l-72 -268h-52l-99 695h69l68 -517l53 177h66zM386 796l-49 -49l-176 175l49 49z" />
    <glyph glyph-name="wgrave" unicode="&#x1e81;" 
d="M345 91l79 356h73l-115 -447h-68l-41 187l-40 -187h-68l-115 447h73l79 -356l42 187h59zM386 548l-49 -49l-176 175l49 49z" />
    <glyph glyph-name="Wacute" unicode="&#x1e82;" 
d="M358 178l70 517h69l-107 -695h-57l-60 268l-72 -268h-52l-99 695h69l68 -517l53 177h66zM210 747l-49 49l176 175l49 -49z" />
    <glyph glyph-name="wacute" unicode="&#x1e83;" 
d="M345 91l79 356h73l-115 -447h-68l-41 187l-40 -187h-68l-115 447h73l79 -356l42 187h59zM210 499l-49 49l176 175l49 -49z" />
    <glyph glyph-name="Wdieresis" unicode="&#x1e84;" 
d="M358 178l70 517h69l-107 -695h-57l-60 268l-72 -268h-52l-99 695h69l68 -517l53 177h66zM159 907q22 0 37 -15t15 -37q0 -21 -15 -36t-37 -15q-21 0 -36 15t-15 36q0 22 15 37t36 15zM388 907q22 0 37 -15t15 -37q0 -21 -15 -36t-37 -15q-21 0 -36 15t-15 36q0 22 15 37
t36 15z" />
    <glyph glyph-name="wdieresis" unicode="&#x1e85;" 
d="M345 91l79 356h73l-115 -447h-68l-41 187l-40 -187h-68l-115 447h73l79 -356l42 187h59zM159 659q22 0 37 -15t15 -37q0 -21 -15 -36t-37 -15q-21 0 -36 15t-15 36q0 22 15 37t36 15zM388 659q22 0 37 -15t15 -37q0 -21 -15 -36t-37 -15q-21 0 -36 15t-15 36q0 22 15 37
t36 15z" />
    <glyph glyph-name="Ygrave" unicode="&#x1ef2;" 
d="M497 695l-191 -348v-347h-66v348l-190 347h69l154 -274l155 274h69zM386 796l-49 -49l-176 175l49 49z" />
    <glyph glyph-name="ygrave" unicode="&#x1ef3;" 
d="M273 91l150 356h74l-294 -695h-73l107 252l-187 443h74zM386 548l-49 -49l-176 175l49 49z" />
    <glyph glyph-name="quoteleft" unicode="&#x2018;" 
d="M308 447h-69v248h69v-248z" />
    <glyph glyph-name="quoteright" unicode="&#x2019;" 
d="M308 447h-69v248h69v-248z" />
    <glyph glyph-name="quotedblleft" unicode="&#x201c;" 
d="M229 447h-69v248h69v-248zM387 447h-69v248h69v-248z" />
    <glyph glyph-name="quotedblright" unicode="&#x201d;" 
d="M229 447h-69v248h69v-248zM387 447h-69v248h69v-248z" />
    <glyph glyph-name="dagger" unicode="&#x2020;" 
d="M119 434v65h120v196h69v-196h120v-65h-120v-434h-69v434h-120z" />
    <glyph glyph-name="bullet" unicode="&#x2022;" 
d="M353 256q0 -33 -23.5 -56.5t-56.5 -23.5q-32 0 -55 23.5t-23 56.5q0 32 23.5 55t54.5 23q33 0 56.5 -23t23.5 -55z" />
    <glyph glyph-name="franc" unicode="&#x20a3;" 
d="M-68 137v65h118v493h447v-66h-378v-249h195v-65h-195v-113h122v-65h-122v-137h-69v137h-118z" />
    <glyph glyph-name="Euro" unicode="&#x20ac;" 
d="M50 234v65h69v97h-69v65h69v20q0 89 65 151.5t157 62.5q39 0 76.5 -11t46.5 -16t33 -19l-30 -57q-62 37 -126 37t-108.5 -43t-44.5 -105v-20h240v-65h-240v-97h240v-65h-240v-20q0 -62 44.5 -105t108.5 -43q61 0 127 36l29 -54q-1 0 -25.5 -12t-38.5 -17.5t-41 -12
t-51 -6.5q-92 0 -157 62.5t-65 151.5v20h-69z" />
    <glyph glyph-name="minus" unicode="&#x2212;" 
d="M119 315v65h309v-65h-309z" />
    <glyph glyph-name="approxequal" unicode="&#x2248;" 
d="M241 344q-11 25 -36 36t-50 0q-39 -15 -39 -62q0 -13 8 -37l-61 -24q-14 34 -14 62q0 40 22 73.5t60 49.5q50 17 101.5 -2.5t70.5 -70.5q10 -26 36 -38t49 -2q41 16 41 64q0 9 -9 36l65 26q12 -33 12 -60q0 -41 -23.5 -76.5t-60.5 -51.5q-52 -19 -100 2.5t-72 74.5z
M241 124q-11 25 -36 36t-50 0q-39 -15 -39 -62q0 -13 8 -37l-61 -24q-14 34 -14 62q0 40 22 73.5t60 49.5q50 17 101.5 -2.5t70.5 -70.5q10 -26 36 -38t49 -2q41 16 41 64q0 9 -9 36l65 26q12 -33 12 -60q0 -41 -23.5 -76.5t-60.5 -51.5q-52 -19 -100 2.5t-72 74.5z" />
    <glyph glyph-name="notequal" unicode="&#x2260;" 
d="M245 156l-55 -87h-71l55 87h-55v65h96l41 66h-137v65h178l60 95h71l-60 -95h60v-65h-101l-41 -66h142v-65h-183z" />
    <glyph glyph-name="lessequal" unicode="&#x2264;" 
d="M119 32v65h197l-197 114v69l309 189v-75l-233 -149l233 -148v-65h-309z" />
    <glyph glyph-name="greaterequal" unicode="&#x2265;" 
d="M428 97v-65h-309v65l233 148l-233 149v75l309 -189v-69l-197 -114h197z" />
    <glyph glyph-name="commaaccent" unicode="&#xf6c3;" 
d="M325 -283h-69v125q-34 12 -34 49q0 21 15 36t36 15q22 0 37 -15t15 -36v-174z" />
    <glyph glyph-name="NULL" horiz-adv-x="0" 
 />
    <glyph glyph-name="Q.alt" 
d="M497 481v-69q0 -88 -67 -151t-157 -63q-9 0 -29 2l-94 -93q54 2 99 -11q157 -54 248 -9v-67q-103 -36 -200 -9q-159 55 -247 9v67l133 130q-59 25 -96 78t-37 117v69q0 88 67 151t156 63q90 0 157 -63t67 -151zM428 412v69q0 61 -46.5 104.5t-108.5 43.5t-108 -43.5
t-46 -104.5v-69q0 -61 46 -105t108 -44t108.5 44t46.5 105z" />
  </font>
</defs>
</svg>
