<?xml version="1.0" standalone="no"?>
<!DOCTYPE svg PUBLIC "-//W3C//DTD SVG 1.1//EN" "http://www.w3.org/Graphics/SVG/1.1/DTD/svg11.dtd" >
<svg xmlns="http://www.w3.org/2000/svg" xmlns:xlink="http://www.w3.org/1999/xlink" version="1.1">
<metadata>
Created by FontForge 20170731 at Sat Feb  6 19:25:38 2016
 By Aleksey,,,
Copyright (c) 2016 by Valerio Dell'Edera. All rights reserved.
</metadata>
<defs>
<font id="Monique-RegularRound40" horiz-adv-x="547" >
  <font-face 
    font-family="Monique Round 40"
    font-weight="400"
    font-stretch="normal"
    units-per-em="1000"
    panose-1="2 0 0 9 0 0 0 0 0 0"
    ascent="800"
    descent="-200"
    x-height="447"
    cap-height="695"
    bbox="-77.5238 -283 1591 1006"
    underline-thickness="50"
    underline-position="-200"
    unicode-range="U+000D-FB06"
  />
<missing-glyph 
 />
    <glyph glyph-name="ff" unicode="ff" horiz-adv-x="1094" 
d="M1010 398q14 0 24 -10t10 -24t-10 -24t-24 -10h-178q-16 0 -28 -12t-12 -28v-256q0 -14 -10 -24t-24 -10t-24 10t-10 24v256q0 16 -12 28t-28 12h-399q-17 0 -28.5 -12t-11.5 -28v-256q0 -14 -10 -24t-24 -10t-24 10t-10 24v256q0 16 -11.5 28t-28.5 12h-53q-14 0 -24 10
t-10 24t10 24t24 10h53q17 0 28.5 12t11.5 28v97q0 66 46.5 113t113.5 47q57 0 101.5 -36.5t55.5 -91.5q6 -32 -31 -32h-10q-7 0 -17 9t-12 16q-8 29 -32.5 47.5t-54.5 18.5q-38 0 -65 -26.5t-27 -64.5v-97q0 -16 11.5 -28t28.5 -12h399q16 0 28 12t12 28v97q0 66 46.5 113
t113.5 47q57 0 101.5 -36.5t55.5 -91.5q6 -32 -31 -32h-10q-7 0 -17 9t-12 16q-8 29 -32.5 47.5t-54.5 18.5q-38 0 -65 -26.5t-27 -64.5v-97q0 -16 12 -28t28 -12h178z" />
    <glyph glyph-name="fi" unicode="fi" horiz-adv-x="1094" 
d="M815 398q17 0 28.5 -12t11.5 -28v-249q0 -17 11.5 -28.5t28.5 -11.5h115q14 0 24 -10t10 -24q0 -15 -10 -25t-24 -10h-378q-15 0 -25 10t-10 25q0 14 10 24t25 10h114q16 0 28 11.5t12 28.5v181q0 16 -12 28t-28 12h-461q-17 0 -28.5 -12t-11.5 -28v-256q0 -14 -10 -24
t-24 -10t-24 10t-10 24v256q0 16 -11.5 28t-28.5 12h-53q-14 0 -24 10t-10 24t10 24t24 10h53q17 0 28.5 12t11.5 28v97q0 66 46.5 113t113.5 47q57 0 101.5 -36.5t55.5 -91.5q6 -32 -31 -32h-10q-7 0 -17 9t-12 16q-8 29 -32.5 47.5t-54.5 18.5q-38 0 -65 -26.5t-27 -64.5
v-97q0 -16 11.5 -28t28.5 -12h530zM872 614q0 -22 -15 -37t-37 -15q-21 0 -36 15t-15 37q0 21 15 36t36 15q22 0 37 -15t15 -36z" />
    <glyph glyph-name="ffi" unicode="ffi" horiz-adv-x="1641" 
d="M1362 398q16 0 28 -12t12 -28v-249q0 -17 12 -28.5t28 -11.5h115q14 0 24 -10t10 -24q0 -15 -10 -25t-24 -10h-378q-15 0 -25 10t-10 25q0 14 10 24t25 10h114q17 0 28.5 11.5t11.5 28.5v181q0 16 -11.5 28t-28.5 12h-461q-16 0 -28 -12t-12 -28v-256q0 -14 -10 -24
t-24 -10t-24 10t-10 24v256q0 16 -12 28t-28 12h-399q-17 0 -28.5 -12t-11.5 -28v-256q0 -14 -10 -24t-24 -10t-24 10t-10 24v256q0 16 -11.5 28t-28.5 12h-53q-14 0 -24 10t-10 24t10 24t24 10h53q17 0 28.5 12t11.5 28v97q0 66 46.5 113t113.5 47q57 0 101.5 -36.5
t55.5 -91.5q6 -32 -31 -32h-10q-7 0 -17 9t-12 16q-8 29 -32.5 47.5t-54.5 18.5q-38 0 -65 -26.5t-27 -64.5v-97q0 -16 11.5 -28t28.5 -12h399q16 0 28 12t12 28v97q0 66 46.5 113t113.5 47q57 0 101.5 -36.5t55.5 -91.5q6 -32 -31 -32h-10q-7 0 -17 9t-12 16
q-8 29 -32.5 47.5t-54.5 18.5q-38 0 -65 -26.5t-27 -64.5v-97q0 -16 12 -28t28 -12h530zM1419 614q0 -22 -15 -37t-37 -15q-21 0 -36 15t-15 37q0 21 15 36t36 15q22 0 37 -15t15 -36z" />
    <glyph glyph-name="s_t" unicode="st" horiz-adv-x="1094" 
d="M792 487q0 -17 12 -28.5t28 -11.5h178q14 0 24 -10t10 -24q0 -15 -10 -25t-24 -10h-178q-16 0 -28 -12t-12 -28v-178q0 -38 27 -64.5t65 -26.5q30 0 54.5 18.5t32.5 47.5q2 7 12 16t17 9h10q37 0 31 -32q-11 -55 -55.5 -91.5t-101.5 -36.5q-67 0 -113.5 47t-46.5 113v178
q0 16 -12 28t-28 12h-411q-65 0 -110 -18t-45 -44q0 -59 155 -59q112 0 168 -36.5t56 -94.5q0 -52 -65 -89t-159 -37q-76 0 -137 27.5t-79 68.5q-7 18 -0.5 24t27.5 6h17q4 0 11.5 -6t9.5 -9q13 -21 55 -34.5t96 -13.5q65 0 110.5 18.5t45.5 44.5q0 63 -156 63
q-110 0 -166.5 36t-56.5 91q0 54 66 92.5t157 38.5h411q16 0 28 11.5t12 28.5v53q0 14 10 24t24 10t24 -10t10 -24v-53z" />
    <glyph glyph-name="c_k" unicode="ck" horiz-adv-x="1094" 
d="M571 695h55q16 0 28 -11.5t12 -28.5v-347q0 -27 22 -37.5t43 5.5l207 163q16 8 25 8h34q12 0 16 -11t-6 -19l-132 -105q-12 -10 -14.5 -25.5t6.5 -28.5l155 -226q8 -10 2 -21t-19 -11h-18q-7 0 -17.5 6t-15.5 12l-132 196q-10 15 -27 17.5t-31 -8.5l-83 -67
q-5 -4 -10 -14.5t-5 -16.5v-90q0 -15 -10 -25t-24 -10q-15 0 -25 10t-10 25v578q0 13 -13 13h-13q-67 0 -113.5 -45t-46.5 -110q0 -39 19 -72q0 -2 9 -11q30 -25 50 -61q9 -17 -8 -24l-23 -9q-9 -4 -23.5 2t-19.5 15q-49 67 -133 67q-67 0 -113.5 -45t-46.5 -110
q0 -64 46.5 -109t113.5 -45q84 0 133 67q5 9 19.5 15t23.5 2l6 -2q36 -15 18 -43q-31 -49 -84.5 -78.5t-115.5 -29.5q-96 0 -164 65.5t-68 157.5q0 93 68 158.5t164 65.5q24 0 55 -7q5 0 3 3q-1 9 -1 28q0 93 68 158.5t164 65.5z" />
    <glyph glyph-name="f_t" unicode="ft" horiz-adv-x="1094" 
d="M792 438q0 -16 12 -28t28 -12h178q14 0 24 -10t10 -24t-10 -24t-24 -10h-178q-16 0 -28 -12t-12 -28v-130q0 -38 27 -64.5t65 -26.5q30 0 54.5 18.5t32.5 47.5q2 7 12 16t17 9h10q37 0 31 -32q-11 -55 -55.5 -91.5t-101.5 -36.5q-67 0 -113.5 47t-46.5 113v130
q0 16 -12 28t-28 12h-399q-17 0 -28.5 -12t-11.5 -28v-256q0 -14 -10 -24t-24 -10t-24 10t-10 24v256q0 16 -11.5 28t-28.5 12h-53q-14 0 -24 10t-10 24t10 24t24 10h53q17 0 28.5 12t11.5 28v97q0 66 46.5 113t113.5 47q57 0 101.5 -36.5t55.5 -91.5q6 -32 -31 -32h-10
q-7 0 -17 9t-12 16q-8 29 -32.5 47.5t-54.5 18.5q-38 0 -65 -26.5t-27 -64.5v-97q0 -16 11.5 -28t28.5 -12h399q16 0 28 12t12 28v102q0 14 10 24t24 10t24 -10t10 -24v-102z" />
    <glyph glyph-name=".notdef" 
 />
    <glyph glyph-name=".null" horiz-adv-x="0" 
 />
    <glyph glyph-name="nonmarkingreturn" horiz-adv-x="333" 
 />
    <glyph glyph-name="CR" unicode="&#xd;" 
 />
    <glyph glyph-name="CR" 
 />
    <glyph glyph-name="space" unicode=" " 
 />
    <glyph glyph-name="exclam" unicode="!" 
d="M273 221q-13 0 -23 9.5t-10 23.5v408q0 14 10 23.5t23 9.5t23 -9.5t10 -23.5v-408q0 -14 -10 -23.5t-23 -9.5zM325 52q0 -22 -15 -37t-37 -15q-21 0 -36 15t-15 37q0 21 15 36t36 15q22 0 37 -15t15 -36z" />
    <glyph glyph-name="quotedbl" unicode="&#x22;" 
d="M229 482q0 -15 -10 -25t-24 -10q-15 0 -25 10t-10 25v179q0 14 10 24t25 10q14 0 24 -10t10 -24v-179zM387 482q0 -15 -10 -25t-24 -10q-15 0 -25 10t-10 25v179q0 14 10 24t25 10q14 0 24 -10t10 -24v-179z" />
    <glyph glyph-name="numbersign" unicode="#" 
d="M259 0q-15 0 -23 10.5t-4 24.5l21 71q5 20 -6 34.5t-31 14.5h-21q-12 0 -23.5 -9t-14.5 -20l-29 -97q-3 -11 -14.5 -20t-23.5 -9h-5q-14 0 -21.5 10t-3.5 24l29 99q2 9 -3 15.5t-13 6.5q-10 0 -16.5 6.5t-6.5 16.5v11q0 13 9 22.5t23 9.5h2q12 0 23.5 9t14.5 20l49 168
q4 11 -2.5 20t-18.5 9q-13 0 -22 9t-9 22v2q0 14 9.5 23.5t23.5 9.5h17q12 0 23.5 9t14.5 20l37 124q3 11 14.5 20t23.5 9h7q14 0 22 -10.5t4 -24.5l-29 -98q-6 -19 5 -34t31 -15h21q12 0 23.5 8.5t14.5 20.5l38 124q3 12 14.5 20.5t23.5 8.5h5q14 0 21.5 -10t3.5 -24
l-36 -123q-3 -10 3 -17.5t17 -7.5t18.5 -7.5t7.5 -18.5v-7q0 -14 -9.5 -23.5t-23.5 -9.5h-9q-12 0 -23.5 -9t-14.5 -20l-48 -164q-4 -13 3.5 -23t21.5 -10h1q13 0 23 -9.5t10 -23.5t-10 -23.5t-23 -9.5h-25q-12 0 -23.5 -9t-14.5 -20l-29 -97q-3 -11 -14.5 -20t-23.5 -9h-6z
M282 447q-12 0 -23.5 -8.5t-14.5 -20.5l-45 -148q-5 -20 6 -34.5t31 -14.5h21q12 0 23.5 8.5t14.5 20.5l45 148q5 20 -6 34.5t-31 14.5h-21z" />
    <glyph glyph-name="dollar" unicode="$" 
d="M209 687q12 3 21.5 16t9.5 25v34q0 14 10 23.5t23 9.5t23 -9.5t10 -23.5v-35q0 -12 9.5 -25t21.5 -16q59 -15 101.5 -55t54.5 -92q8 -35 -30 -35h-5q-9 0 -20.5 10.5t-14.5 19.5q-17 56 -83 82q-15 6 -24.5 -1t-9.5 -24v-185q0 -11 10 -24t21 -16q71 -23 115.5 -68.5
t44.5 -107.5q0 -63 -45.5 -113.5t-114.5 -68.5q-12 -3 -21.5 -16t-9.5 -25v-34q0 -13 -10 -23t-23 -10t-23 10t-10 23v34q0 12 -9.5 25t-21.5 16q-59 15 -101 55t-54 93q-4 16 4.5 25.5t26.5 9.5h4q9 0 20.5 -10.5t14.5 -19.5q8 -27 30 -48.5t52 -32.5q15 -6 24.5 1t9.5 24
v183q0 11 -10 24t-21 16q-70 22 -114.5 68t-44.5 108q0 63 45 114t114 69zM119 504q0 -70 87 -107q14 -6 24 1t10 23v170q0 17 -9.5 24t-24.5 1q-39 -15 -63 -45t-24 -67zM428 190q0 35 -24 62.5t-64 43.5q-14 6 -24 -1t-10 -23v-167q0 -17 9.5 -24t24.5 -2q39 15 63.5 45
t24.5 66z" />
    <glyph glyph-name="percent" unicode="%" 
d="M460 622q13 0 18 -10t-2 -21l-340 -504q-5 -6 -15.5 -12t-17.5 -6h-16q-13 0 -18 10.5t2 20.5l340 504q5 6 15.5 12t17.5 6h16zM111 499q-25 0 -43 17.5t-18 43.5t18 44t43 18t43.5 -18t18.5 -44q0 -25 -18 -43t-44 -18zM435 69q-25 0 -43 17.5t-18 43.5t18 44t43 18
t43.5 -18t18.5 -44q0 -25 -18 -43t-44 -18z" />
    <glyph glyph-name="ampersand" unicode="&#x26;" 
d="M454 0q-10 0 -18 8t-8 18q0 8 -7.5 11.5t-14.5 -1.5q-61 -36 -132 -36q-93 0 -158.5 55.5t-65.5 134.5q0 81 70 138q8 6 8 20t-8 20q-70 57 -70 137q0 78 66 134t158 56q81 0 143.5 -45.5t76.5 -113.5q6 -31 -31 -31q-9 0 -23.5 12.5t-17.5 22.5q-14 39 -55.5 64
t-92.5 25q-63 0 -109 -36.5t-46 -87.5q0 -50 44 -86.5t105 -38.5h189q17 0 28.5 -12t11.5 -28v-305q0 -15 -10 -25t-24 -10h-9zM274 66q63 0 108.5 36t45.5 88v85q0 17 -12 28.5t-28 11.5h-114q-65 0 -110 -36t-45 -89q0 -52 45 -88t110 -36z" />
    <glyph glyph-name="quotesingle" unicode="'" 
d="M308 482q0 -15 -10 -25t-24 -10q-15 0 -25 10t-10 25v179q0 14 10 24t25 10q14 0 24 -10t10 -24v-179z" />
    <glyph glyph-name="parenleft" unicode="(" 
d="M420 784q2 -2 6 -3q4 -2 2 -4q-112 -113 -154 -263t-6 -301.5t143 -267.5q4 -4 8 -13t1 -12q-6 -6 -19 -15.5t-18 -13.5q-2 -1 -3 -4t-2 -3.5t-3 0.5q-124 124 -170.5 289.5t-6.5 332t158 294.5q4 4 14 9.5t13 3.5q5 -4 18 -13.5t19 -15.5z" />
    <glyph glyph-name="parenright" unicode=")" 
d="M136 759q-4 4 -8 13t-1 12q6 6 19 15.5t18 13.5q2 1 3 4t2 3.5t3 -0.5q124 -124 170.5 -289.5t6.5 -332t-158 -294.5q-4 -4 -14 -9.5t-13 -3.5q-5 4 -18 13.5t-19 15.5q-2 2 -6 3q-4 2 -2 4q112 113 154 263t6 301.5t-143 267.5z" />
    <glyph glyph-name="asterisk" unicode="*" 
d="M152 231q-14 0 -23.5 9.5t-9.5 23.5q0 13 10 22.5t23 9.5h49q17 0 28.5 12t11.5 28v40q0 13 10 22.5t23 9.5t22.5 -9.5t9.5 -22.5v-40q0 -16 12 -28t28 -12h50q13 0 22.5 -9.5t9.5 -22.5t-9.5 -23t-22.5 -10h-16q-17 0 -25 -13.5t0 -28.5l18 -36q6 -11 2.5 -23.5
t-14.5 -18.5q-11 -7 -23.5 -3.5t-19.5 14.5l-15 25q-11 19 -30 19t-29 -19l-14 -25q-7 -11 -19.5 -14.5t-23.5 3.5q-12 6 -15.5 19t2.5 24l18 35q8 15 0 28.5t-25 13.5h-15z" />
    <glyph glyph-name="plus" unicode="+" 
d="M152 221q-14 0 -23.5 9.5t-9.5 23.5q0 13 10 22.5t23 9.5h49q17 0 28.5 12t11.5 28v50q0 13 10 22.5t23 9.5t22.5 -9.5t9.5 -22.5v-50q0 -16 12 -28t28 -12h50q13 0 22.5 -9.5t9.5 -22.5t-9.5 -23t-22.5 -10h-50q-16 0 -28 -11.5t-12 -28.5v-49q0 -13 -9.5 -23t-22.5 -10
q-14 0 -23.5 9.5t-9.5 23.5v49q0 17 -11.5 28.5t-28.5 11.5h-49z" />
    <glyph glyph-name="comma" unicode="," 
d="M308 -88q0 -14 -10 -24t-24 -10q-15 0 -25 10t-10 24v80q0 11 -10 16q-24 15 -24 44q0 21 15 36t36 15q22 0 37 -15t15 -36v-140z" />
    <glyph glyph-name="hyphen" unicode="-" 
d="M152 221q-14 0 -23.5 9.5t-9.5 23.5q0 13 10 22.5t23 9.5h244q13 0 22.5 -9.5t9.5 -22.5t-9.5 -23t-22.5 -10h-244z" />
    <glyph glyph-name="period" unicode="." 
d="M325 52q0 -22 -15 -37t-37 -15q-21 0 -36 15t-15 37q0 21 15 36t36 15q22 0 37 -15t15 -36z" />
    <glyph glyph-name="slash" unicode="/" 
d="M460 795q14 0 21 -10.5t2 -23.5l-349 -836q-4 -10 -15 -17.5t-22 -7.5h-10q-14 0 -21 10.5t-2 23.5l349 836q4 10 15 17.5t22 7.5h10z" />
    <glyph glyph-name="zero" unicode="0" 
d="M273 695q93 0 158.5 -102t65.5 -246t-65.5 -246t-158.5 -102q-92 0 -157.5 102t-65.5 246t65.5 246t157.5 102zM273 64q65 0 110 83t45 200t-45 199.5t-110 82.5q-63 0 -108.5 -82.5t-45.5 -199.5t45.5 -200t108.5 -83z" />
    <glyph glyph-name="one" unicode="1" 
d="M463 69q14 0 24 -10t10 -24q0 -15 -10 -25t-24 -10h-378q-15 0 -25 10t-10 25q0 14 10 24t25 10h114q17 0 28.5 11.5t11.5 28.5v480q0 17 -11.5 28.5t-28.5 11.5h-47q-14 0 -23.5 9.5t-9.5 23.5t9.5 23.5t23.5 9.5h116q16 0 28 -11.5t12 -28.5v-546q0 -17 12 -28.5
t28 -11.5h115z" />
    <glyph glyph-name="two" unicode="2" 
d="M270 695q96 0 161.5 -62.5t65.5 -151.5q0 -62 -33.5 -107.5t-84 -73.5t-102 -52.5t-95.5 -59.5t-57 -79q-6 -20 3.5 -31.5t30.5 -11.5h305q14 0 23.5 -10t9.5 -23t-9.5 -23t-23.5 -10h-381q-13 0 -23 10t-10 23v33q0 54 21 95.5t54 67.5t73.5 47t81 40t73.5 40t54 52.5
t21 72.5q0 62 -45 105t-113 43q-41 0 -78 -14.5t-59 -39.5q-6 -6 -17 -8t-19 2l-7 4q-15 8 -17.5 19.5t8.5 23.5q32 37 82 58t107 21z" />
    <glyph glyph-name="three" unicode="3" 
d="M273 695q92 0 158 -56t66 -134q0 -80 -70 -137q-7 -6 -7 -20t7 -20q70 -57 70 -138q0 -79 -65.5 -134.5t-158.5 -55.5q-83 0 -145 45.5t-75 113.5q-3 16 5.5 23.5t26.5 7.5q9 0 23 -13t17 -22q14 -39 55.5 -64t92.5 -25q65 0 110 36t45 88q0 53 -45 89t-110 36h-90
q-13 0 -23 9.5t-10 23.5q0 13 10 22.5t23 9.5h96q61 2 105 38.5t44 86.5q0 51 -46 87.5t-109 36.5q-51 0 -92.5 -25t-55.5 -64q-3 -9 -17 -22t-23 -13q-18 0 -26.5 7.5t-5.5 23.5q14 68 76.5 113.5t143.5 45.5z" />
    <glyph glyph-name="four" unicode="4" 
d="M464 222q14 0 23.5 -10t9.5 -23t-9.5 -23t-23.5 -10h-34q-16 0 -28 -12t-12 -28v-81q0 -15 -10 -25t-24 -10q-15 0 -25 10t-10 25v81q0 16 -11.5 28t-28.5 12h-198q-13 0 -23 10t-10 23v22q0 10 5 20l254 444q4 7 15.5 13.5t19.5 6.5h12q14 0 24 -10t10 -24v-399
q0 -16 12 -28t28 -12h34zM154 282q-13 -22 -1.5 -41t36.5 -19h92q17 0 28.5 12t11.5 28v158q0 31 -29.5 39t-45.5 -19z" />
    <glyph glyph-name="five" unicode="5" 
d="M119 450q0 -16 11.5 -28t28.5 -12h123q89 0 152 -60t63 -145t-65.5 -145t-155.5 -60q-80 0 -144.5 49.5t-78.5 122.5q-6 33 32 33q9 0 22.5 -11.5t16.5 -21.5q14 -46 57 -76t95 -30q62 0 107 41t45 98q0 58 -42.5 98.5t-103.5 40.5h-192q-16 0 -28 12t-12 28v271
q0 17 12 28.5t28 11.5h374q14 0 23.5 -9.5t9.5 -23.5t-9.5 -23.5t-23.5 -9.5h-305q-17 0 -28.5 -11.5t-11.5 -28.5v-139z" />
    <glyph glyph-name="six" unicode="6" 
d="M52 248q-12 208 55.5 327.5t212.5 119.5q81 0 143 -41q5 -6 4 -8t-8.5 -7.5t-10.5 -10.5l-15 -26q-63 27 -110 27q-91 0 -144.5 -68t-58.5 -172q-1 -7 6 -8t13 3q54 38 121 41q96 5 164 -53t73 -147q4 -88 -58.5 -154t-153.5 -71t-158.5 63t-74.5 185zM268 356
q-61 -3 -101.5 -47.5t-37.5 -104.5q4 -59 49.5 -98.5t106.5 -35.5q62 3 104.5 47.5t38.5 103.5q-3 61 -47.5 100t-112.5 35z" />
    <glyph glyph-name="seven" unicode="7" 
d="M464 695q14 0 23.5 -9.5t9.5 -23.5v-26q0 -11 -3 -14l-225 -596q-4 -10 -15.5 -18t-22.5 -8h-6q-13 0 -20 9.5t-2 22.5l205 543q8 21 -4 37.5t-34 16.5h-287q-13 0 -23 9.5t-10 23.5t10 23.5t23 9.5h381z" />
    <glyph glyph-name="eight" unicode="8" 
d="M429 367q-7 -6 -7 -20t7 -20q68 -55 68 -136q0 -79 -65 -135t-157 -56q-94 0 -159.5 55.5t-65.5 135.5t69 136q7 6 7 20t-7 20q-69 57 -69 138q0 79 65.5 134.5t159.5 55.5q92 0 157 -55.5t65 -134.5q0 -81 -68 -138zM119 505q0 -52 46 -88.5t110 -36.5q63 0 108 36.5
t45 88.5q0 51 -45.5 87.5t-107.5 36.5q-64 0 -110 -36.5t-46 -87.5zM275 66q63 0 108 36.5t45 88.5q0 51 -45.5 87.5t-107.5 36.5q-64 0 -110 -36.5t-46 -87.5q0 -52 46 -88.5t110 -36.5z" />
    <glyph glyph-name="nine" unicode="9" 
d="M495 447q12 -208 -55.5 -327.5t-212.5 -119.5q-81 0 -143 41q-5 6 -4 8t8.5 7.5t10.5 10.5l15 26q63 -27 110 -27q91 0 144.5 68t58.5 172q1 7 -6 8t-13 -3q-54 -38 -121 -41q-96 -5 -164 53t-73 147q-4 88 58.5 154t153.5 71t158.5 -63t74.5 -185zM279 339
q61 3 101.5 47.5t37.5 104.5q-4 59 -49.5 98.5t-106.5 35.5q-62 -3 -104.5 -47.5t-38.5 -103.5q3 -61 47.5 -100t112.5 -35z" />
    <glyph glyph-name="colon" unicode=":" 
d="M325 72q0 -22 -15 -37t-37 -15q-21 0 -36 15t-15 37q0 21 15 36t36 15q22 0 37 -15t15 -36zM325 376q0 -22 -15 -37t-37 -15q-21 0 -36 15t-15 37q0 21 15 36t36 15q22 0 37 -15t15 -36z" />
    <glyph glyph-name="semicolon" unicode=";" 
d="M325 376q0 -22 -15 -37t-37 -15q-21 0 -36 15t-15 37q0 21 15 36t36 15q22 0 37 -15t15 -36zM325 -68q0 -14 -10 -24t-24 -10q-15 0 -25 10t-10 24v80q0 11 -10 16q-24 15 -24 44q0 21 15 36t36 15q22 0 37 -15t15 -36v-140z" />
    <glyph glyph-name="less" unicode="&#x3c;" 
d="M396 449q11 7 21.5 1.5t10.5 -18.5v-16q0 -7 -6 -18t-12 -16l-162 -103q-20 -13 -20 -34t20 -34l161 -102q7 -4 13 -15t6 -19v-15q0 -14 -10.5 -19.5t-21.5 1.5l-258 157q-7 4 -13 15t-6 19v25q0 8 6 19t13 15z" />
    <glyph glyph-name="equal" unicode="=" 
d="M152 287q-14 0 -23.5 9.5t-9.5 23.5q0 13 10 22.5t23 9.5h244q13 0 22.5 -9.5t9.5 -22.5t-9.5 -23t-22.5 -10h-244zM152 156q-14 0 -23.5 10t-9.5 23t10 22.5t23 9.5h244q13 0 22.5 -9.5t9.5 -22.5t-9.5 -23t-22.5 -10h-244z" />
    <glyph glyph-name="greater" unicode="&#x3e;" 
d="M137 382q-6 5 -12 16t-6 18v16q0 13 10.5 18.5t21.5 -1.5l258 -157q7 -4 13 -15t6 -19v-25q0 -8 -6 -19t-13 -15l-258 -157q-11 -7 -21.5 -1.5t-10.5 19.5v15q0 8 6 19t13 15l161 102q20 13 20 34t-20 34z" />
    <glyph glyph-name="question" unicode="?" 
d="M314 213q-3 -7 -18.5 -19.5t-22.5 -12.5q-36 0 -30 33q6 28 22 50.5t36.5 36t43 30.5t41 34t30.5 47t12 69q0 62 -45 105t-113 43q-40 0 -77 -18t-60 -46q-6 -6 -17 -8t-19 2l-7 4q-32 17 -9 44q33 39 83.5 63.5t105.5 24.5q96 0 161.5 -62.5t65.5 -151.5q0 -61 -24 -107
t-53.5 -68t-62 -47.5t-43.5 -45.5zM325 52q0 -22 -15 -37t-37 -15q-21 0 -36 15t-15 37q0 21 15 36t36 15q22 0 37 -15t15 -36z" />
    <glyph glyph-name="at" unicode="@" 
d="M71 347q-6 -5 -13.5 -1.5t-7.5 11.5v32q0 26 23 35q55 23 118 23q126 0 216 -90t90 -216q0 -78 -47.5 -120t-102.5 -38q-48 5 -79 46q-3 4 -10 4.5t-11 -3.5q-40 -31 -87 -31q-45 0 -70.5 21.5t-25.5 60.5q0 30 21 58t78 38q28 6 72 2q8 -1 11.5 3t2.5 11q-4 23 -19 37
t-39 14q-33 0 -53 -29q-8 -10 -19 -6l-21 10q-24 12 -8 31q38 51 101 51q53 0 91 -37.5t38 -89.5v-90q0 -39 39 -41q37 0 53 32t16 66q0 95 -71.5 167t-165.5 72q-63 0 -120 -33zM242 90q8 8 8 22q0 11 -11 13q-37 4 -60 0q-21 -5 -32 -13.5t-12 -13t-1 -11.5q0 -29 38 -29
q43 0 70 32z" />
    <glyph glyph-name="A" unicode="A" 
d="M487 36q4 -14 -4 -25t-23 -11h-6q-13 0 -24.5 9t-14.5 21l-32 121q-3 12 -14.5 21t-24.5 9h-140q-13 0 -24.5 -9t-14.5 -21l-32 -121q-3 -12 -14.5 -21t-24.5 -9h-5q-15 0 -23 10.5t-4 24.5l170 629q3 12 14.5 21t24.5 9h7q13 0 24.5 -9t14.5 -21zM313 418q-8 30 -39 30
t-39 -30l-32 -121q-5 -20 6.5 -35t32.5 -15h64q21 0 32.5 15t6.5 35z" />
    <glyph glyph-name="B" unicode="B" 
d="M90 0q-16 0 -28 12t-12 28v615q0 17 12 28.5t28 11.5h194q88 0 150.5 -55.5t62.5 -134.5q0 -81 -65 -138q-8 -6 -8 -20t8 -20q65 -55 65 -137q0 -79 -62.5 -134.5t-150.5 -55.5h-194zM428 190q0 52 -42 88.5t-102 36.5h-125q-17 0 -28.5 -11.5t-11.5 -28.5v-169
q0 -16 11.5 -28t28.5 -12h125q60 0 102 36t42 88zM428 505q0 51 -42 87.5t-102 36.5h-125q-17 0 -28.5 -11.5t-11.5 -28.5v-169q0 -16 11.5 -28t28.5 -12h125q60 0 102 36.5t42 88.5z" />
    <glyph glyph-name="C" unicode="C" 
d="M272 66q54 0 96.5 32t54.5 80q3 11 16 23.5t24 12.5q17 0 25.5 -9.5t5.5 -25.5q-13 -76 -76 -127.5t-146 -51.5q-92 0 -157 62.5t-65 151.5v267q0 89 65 151.5t157 62.5q83 0 146 -51.5t76 -127.5q3 -16 -5.5 -25.5t-25.5 -9.5q-11 0 -24 12.5t-16 23.5q-12 48 -54.5 80
t-96.5 32q-64 0 -108.5 -43t-44.5 -105v-267q0 -62 44.5 -105t108.5 -43z" />
    <glyph glyph-name="D" unicode="D" 
d="M50 655q0 17 12 28.5t28 11.5h125q133 0 207.5 -92.5t74.5 -252.5q0 -161 -74.5 -255.5t-207.5 -94.5h-125q-16 0 -28 12t-12 28v615zM119 106q0 -16 11.5 -28t28.5 -12h56q101 0 157 78.5t56 203.5t-56 203t-157 78h-56q-17 0 -28.5 -11.5t-11.5 -28.5v-483z" />
    <glyph glyph-name="E" unicode="E" 
d="M90 0q-16 0 -28 12t-12 28v615q0 17 12 28.5t28 11.5h374q14 0 23.5 -9.5t9.5 -23.5t-9.5 -23.5t-23.5 -9.5h-305q-17 0 -28.5 -11.5t-11.5 -28.5v-169q0 -16 11.5 -28t28.5 -12h123q13 0 22.5 -9.5t9.5 -22.5t-9.5 -23t-22.5 -10h-123q-17 0 -28.5 -11.5t-11.5 -28.5
v-169q0 -16 11.5 -28t28.5 -12h305q14 0 23.5 -10t9.5 -23t-9.5 -23t-23.5 -10h-374z" />
    <glyph glyph-name="F" unicode="F" 
d="M85 0q-15 0 -25 10t-10 25v620q0 17 12 28.5t28 11.5h374q14 0 23.5 -9.5t9.5 -23.5t-9.5 -23.5t-23.5 -9.5h-305q-17 0 -28.5 -11.5t-11.5 -28.5v-169q0 -16 11.5 -28t28.5 -12h123q13 0 22.5 -9.5t9.5 -22.5t-9.5 -23t-22.5 -10h-123q-17 0 -28.5 -11.5t-11.5 -28.5
v-240q0 -15 -10 -25t-24 -10z" />
    <glyph glyph-name="G" unicode="G" 
d="M305 315q-13 0 -23 9.5t-10 23.5q0 13 10 22.5t23 9.5h152q17 0 28.5 -12t11.5 -28v-126q0 -88 -66 -151t-159 -63q-92 0 -157 62.5t-65 151.5v267q0 89 65 151.5t157 62.5q83 0 146 -51.5t76 -127.5q3 -16 -5.5 -25.5t-25.5 -9.5q-11 0 -24 12.5t-16 23.5
q-12 48 -54.5 80t-96.5 32q-64 0 -108.5 -43t-44.5 -105v-267q0 -62 44.5 -105t108.5 -43q65 0 110.5 43.5t45.5 104.5v61q0 17 -12 28.5t-28 11.5h-83z" />
    <glyph glyph-name="H" unicode="H" 
d="M463 695q14 0 24 -10t10 -24v-626q0 -15 -10 -25t-24 -10q-15 0 -25 10t-10 25v240q0 17 -12 28.5t-28 11.5h-229q-17 0 -28.5 -11.5t-11.5 -28.5v-240q0 -15 -10 -25t-24 -10q-15 0 -25 10t-10 25v626q0 14 10 24t25 10q14 0 24 -10t10 -24v-241q0 -16 11.5 -28
t28.5 -12h229q16 0 28 12t12 28v241q0 14 10 24t25 10z" />
    <glyph glyph-name="I" unicode="I" 
d="M83 629q-13 0 -23 9.5t-10 23.5t10 23.5t23 9.5h381q14 0 23.5 -9.5t9.5 -23.5t-9.5 -23.5t-23.5 -9.5h-118q-16 0 -28 -11.5t-12 -28.5v-483q0 -16 12 -28t28 -12h118q14 0 23.5 -10t9.5 -23t-9.5 -23t-23.5 -10h-381q-13 0 -23 10t-10 23t10 23t23 10h117q16 0 28 12
t12 28v483q0 17 -12 28.5t-28 11.5h-117z" />
    <glyph glyph-name="J" unicode="J" 
d="M457 695q17 0 28.5 -11.5t11.5 -28.5v-441q0 -87 -71 -150.5t-161 -63.5q-123 0 -196 89q-10 12 -7 24.5t17 20.5l6 3q8 4 19.5 2t16.5 -8q25 -28 64 -46.5t80 -18.5q63 0 113 44t50 104v375q0 17 -12 28.5t-28 11.5h-204q-14 0 -23.5 9.5t-9.5 23.5t9.5 23.5t23.5 9.5
h273z" />
    <glyph glyph-name="K" unicode="K" 
d="M84 695q14 0 24 -10t10 -24v-241q0 -16 12 -28t28 -12h81q9 0 20 7t15 15l142 271q4 8 15 15t20 7h11q13 0 19 -10t0 -21l-155 -295q-4 -6 -4 -18t4 -19l155 -301q6 -11 0 -21t-19 -10h-11q-9 0 -20 7t-15 15l-139 270q-4 8 -15 15t-20 7h-84q-16 0 -28 -12t-12 -28v-240
q0 -14 -10 -24t-24 -10t-24 10t-10 24v627q0 14 10 24t24 10z" />
    <glyph glyph-name="L" unicode="L" 
d="M90 0q-16 0 -28 12t-12 28v621q0 14 10 24t25 10q14 0 24 -10t10 -24v-555q0 -16 11.5 -28t28.5 -12h305q14 0 23.5 -10t9.5 -23t-9.5 -23t-23.5 -10h-374z" />
    <glyph glyph-name="M" unicode="M" 
d="M418 671q4 9 15 16.5t21 7.5h9q14 0 24 -10t10 -24v-626q0 -15 -10 -25t-24 -10q-15 0 -25 10t-10 25v332q0 25 -25 30t-35 -17l-49 -109q-5 -8 -16 -15.5t-21 -7.5h-17q-10 0 -21 7.5t-16 15.5l-49 109q-11 22 -35.5 17t-24.5 -30v-332q0 -15 -10 -25t-24 -10
q-15 0 -25 10t-10 25v626q0 14 10 24t25 10h8q10 0 21 -7.5t15 -16.5l107 -247q11 -26 37 -26t37 26z" />
    <glyph glyph-name="N" unicode="N" 
d="M428 661q0 14 10 24t25 10q14 0 24 -10t10 -24v-626q0 -15 -10 -25t-24 -10h-11q-9 0 -20 6.5t-15 14.5l-223 410q-15 27 -45 19.5t-30 -38.5v-377q0 -15 -10 -25t-24 -10q-15 0 -25 10t-10 25v626q0 14 10 24t25 10h10q9 0 20 -6.5t15 -14.5l223 -404q10 -18 28 -21
t32.5 8.5t14.5 31.5v372z" />
    <glyph glyph-name="O" unicode="O" 
d="M497 481v-268q0 -88 -68 -151t-158 -63q-89 0 -155 63t-66 151v268q0 88 66 151t155 63q90 0 158 -63t68 -151zM428 213v268q0 61 -47.5 104.5t-109.5 43.5t-107 -43.5t-45 -104.5v-268q0 -61 45 -104.5t107 -43.5t109.5 43.5t47.5 104.5z" />
    <glyph glyph-name="P" unicode="P" 
d="M283 629h-124q-17 0 -28.5 -11.5t-11.5 -28.5v-211q0 -16 11.5 -28t28.5 -12h124q60 0 102.5 42.5t42.5 102.5q0 61 -42.5 103.5t-102.5 42.5zM50 655q0 17 12 28.5t28 11.5h193q87 0 150.5 -62.5t63.5 -149.5t-63.5 -149t-150.5 -62h-124q-17 0 -28.5 -12t-11.5 -28
v-197q0 -15 -10 -25t-24 -10q-15 0 -25 10t-10 25v620z" />
    <glyph glyph-name="Q" unicode="Q" 
d="M383 -35q-16 34 -50 40q-11 0 -13 -1q-27 -5 -49 -5q-89 0 -155 63t-66 151v268q0 88 66 151t155 63q90 0 158 -63t68 -151v-268q0 -100 -84 -164q-8 -6 1 -13q20 -19 31 -46q9 -21 28 -33.5t40 -10.5q5 0 13.5 -4t9.5 -8l7 -15q13 -35 -19 -38q-44 -6 -82.5 16.5
t-58.5 67.5zM428 213v268q0 61 -47.5 104.5t-109.5 43.5t-107 -43.5t-45 -104.5v-268q0 -61 45 -104.5t107 -43.5t109.5 43.5t47.5 104.5z" />
    <glyph glyph-name="R" unicode="R" 
d="M50 655q0 17 12 28.5t28 11.5h193q87 0 150.5 -62.5t63.5 -149.5q0 -57 -30 -106.5t-79 -77.5q-14 -7 -21.5 -26t-0.5 -32l112 -207q7 -12 0.5 -23t-20.5 -11h-15q-9 0 -20 6.5t-15 14.5l-126 230q-4 8 -15 14.5t-20 6.5h-88q-17 0 -28.5 -12t-11.5 -28v-197
q0 -15 -10 -25t-24 -10q-15 0 -25 10t-10 25v620zM283 629h-124q-17 0 -28.5 -11.5t-11.5 -28.5v-211q0 -16 11.5 -28t28.5 -12h124q60 0 102.5 42.5t42.5 102.5q0 61 -42.5 103.5t-102.5 42.5z" />
    <glyph glyph-name="S" unicode="S" 
d="M272 380q96 -14 160.5 -64.5t64.5 -125.5q0 -79 -67 -134.5t-158 -55.5q-80 0 -142.5 46t-76.5 114q-3 16 5.5 23.5t26.5 7.5q9 0 23 -13t17 -22q14 -39 55 -64t92 -25q63 0 109.5 36t46.5 87q0 49 -45 82t-111 42q-94 13 -158 64t-64 126q0 79 66 135t156 56
q81 0 145 -46t77 -114q6 -31 -31 -31q-9 0 -23.5 12.5t-17.5 22.5q-15 39 -57 64.5t-93 25.5q-62 0 -107.5 -37t-45.5 -88q0 -49 44.5 -82t108.5 -42z" />
    <glyph glyph-name="T" unicode="T" 
d="M83 629q-13 0 -23 9.5t-10 23.5t10 23.5t23 9.5h381q14 0 23.5 -9.5t9.5 -23.5t-9.5 -23.5t-23.5 -9.5h-118q-16 0 -28 -11.5t-12 -28.5v-556q0 -13 -10 -23t-23 -10t-23 10t-10 23v556q0 17 -12 28.5t-28 11.5h-117z" />
    <glyph glyph-name="U" unicode="U" 
d="M428 661q0 14 10 24t25 10q14 0 24 -10t10 -24v-447q0 -88 -68 -151t-158 -63q-89 0 -155 63t-66 151v447q0 14 10 24t25 10q14 0 24 -10t10 -24v-447q0 -61 45 -104.5t107 -43.5t109.5 43.5t47.5 104.5v447z" />
    <glyph glyph-name="V" unicode="V" 
d="M235 278q8 -29 38.5 -29t38.5 29l108 388q3 11 14.5 20t23.5 9h5q14 0 22 -10t4 -24l-172 -631q-3 -12 -14.5 -21t-24.5 -9h-8q-13 0 -24.5 9t-14.5 21l-172 632q-4 13 4 23t22 10h4q12 0 23.5 -9t14.5 -20z" />
    <glyph glyph-name="W" unicode="W" 
d="M332 267q5 -15 20.5 -14t17.5 16l53 392q2 14 14 24t26 10t22.5 -10t6.5 -24l-98 -633q-1 -11 -11 -19.5t-21 -8.5q-12 0 -22.5 8.5t-12.5 19.5l-24 106q-6 26 -32 26t-34 -25l-29 -110q-3 -10 -13 -17.5t-20 -7.5q-11 0 -20 8t-10 18l-90 635q-2 14 7 24t23 10t25.5 -10
t12.5 -24l52 -391q2 -16 18.5 -17t20.5 14l17 59q4 12 15.5 20.5t23.5 8.5h6q12 0 23.5 -9t14.5 -20z" />
    <glyph glyph-name="X" unicode="X" 
d="M318 370q-8 -19 0 -38l163 -302q6 -10 0 -20t-18 -10h-11q-9 0 -20 6.5t-15 14.5l-109 195q-12 22 -35 22t-35 -22l-108 -195q-4 -8 -15 -14.5t-20 -6.5h-10q-13 0 -19 9.5t0 20.5l163 301q3 7 3 19.5t-3 19.5l-162 295q-6 11 -0.5 20.5t18.5 9.5h11q8 0 19 -6.5
t15 -13.5l108 -192q13 -22 35 -22t35 22l109 192q4 7 15 13.5t19 6.5h12q12 0 17.5 -9.5t-0.5 -20.5z" />
    <glyph glyph-name="Y" unicode="Y" 
d="M463 695q12 0 17.5 -9.5t-0.5 -20.5l-169 -309q-5 -10 -5 -19v-304q0 -13 -10 -23t-23 -10t-23 10t-10 23v305q0 9 -5 19l-168 308q-6 11 -0.5 20.5t18.5 9.5h11q8 0 19 -6.5t15 -13.5l108 -192q13 -22 35 -22t35 22l109 192q4 7 15 13.5t19 6.5h12z" />
    <glyph glyph-name="Z" unicode="Z" 
d="M464 695q14 0 23.5 -9.5t9.5 -23.5v-21q0 -11 -7 -22l-321 -491q-14 -22 -2.5 -42t36.5 -20h261q14 0 23.5 -10t9.5 -23t-9.5 -23t-23.5 -10h-381q-13 0 -23 10t-10 23v21q0 12 7 22l321 491q14 22 2.5 42t-36.5 20h-261q-13 0 -23 9.5t-10 23.5t10 23.5t23 9.5h381z" />
    <glyph glyph-name="bracketleft" unicode="[" 
d="M209 -100q-17 0 -28.5 12t-11.5 28v815q0 17 11.5 28.5t28.5 11.5h136q13 0 23 -9.5t10 -23.5t-10 -23.5t-23 -9.5h-70q-17 0 -28.5 -11.5t-11.5 -28.5v-683q0 -16 11.5 -28t28.5 -12h70q13 0 23 -10t10 -23t-10 -23t-23 -10h-136z" />
    <glyph glyph-name="backslash" unicode="\" 
d="M450 -100q-11 0 -22 7.5t-15 17.5l-349 836q-5 13 2 23.5t21 10.5h10q11 0 22 -7.5t15 -17.5l349 -836q5 -13 -2 -23.5t-21 -10.5h-10z" />
    <glyph glyph-name="bracketright" unicode="]" 
d="M338 795q16 0 28 -11.5t12 -28.5v-815q0 -16 -12 -28t-28 -12h-136q-14 0 -23.5 10t-9.5 23t9.5 23t23.5 10h70q16 0 28 12t12 28v683q0 17 -12 28.5t-28 11.5h-70q-14 0 -23.5 9.5t-9.5 23.5t9.5 23.5t23.5 9.5h136z" />
    <glyph glyph-name="asciicircum" unicode="^" 
d="M478 412q7 -11 1 -21.5t-19 -10.5h-16q-8 0 -19 6t-15 13l-103 165q-13 20 -34 20t-34 -20l-102 -165q-4 -7 -15 -13t-19 -6h-15q-13 0 -19.5 10.5t0.5 21.5l158 264q5 7 16 13t19 6h23q8 0 19 -6t16 -13z" />
    <glyph glyph-name="underscore" unicode="_" 
d="M85 0q-15 0 -25 10t-10 25q0 14 10 24t25 10h378q14 0 24 -10t10 -24q0 -15 -10 -25t-24 -10h-378z" />
    <glyph glyph-name="grave" unicode="`" 
d="M283 572q10 -10 10.5 -24t-9.5 -24t-25 -10.5t-25 9.5l-126 127q-10 10 -10 24t10 25q10 10 24 10t25 -10z" />
    <glyph glyph-name="a" unicode="a" 
d="M428 259v-120q0 -23 14 -42t36 -26q5 -2 12 -9.5t7 -12.5v-22q0 -30 -28 -24q-50 11 -82 52q-5 6 -16 7.5t-17 -3.5q-71 -59 -162 -59q-67 0 -104.5 32t-37.5 90q0 19 5.5 37t19.5 40t45 39t76 25q51 9 135 2q14 -2 21.5 5t3.5 20q-11 38 -44 63t-74 25q-61 0 -97 -48
q-5 -6 -15.5 -10t-16.5 0l-10 5q-34 15 -15 41q56 81 154 81q78 0 134 -55t56 -133zM350 141q10 10 10 25v12q0 10 -7.5 18t-18.5 10q-83 6 -121 -1q-33 -6 -54.5 -17t-29 -25t-9 -21t-1.5 -17t1.5 -16.5t7.5 -18t23.5 -17.5t45.5 -6q90 0 153 74z" />
    <glyph glyph-name="b" unicode="b" 
d="M273 447q93 0 158.5 -65.5t65.5 -158.5q0 -92 -65.5 -157.5t-158.5 -65.5q-73 0 -132 43q-6 5 -14 1.5t-8 -10.5v-3q0 -13 -9 -22t-22 -9h-3q-15 0 -25 10t-10 25v626q0 14 10 24t25 10q14 0 24 -10t10 -24v-248q0 -8 8 -11t14 2q59 43 132 43zM273 69q64 0 109.5 45
t45.5 109q0 65 -45 110t-110 45q-63 0 -108.5 -44.5t-45.5 -110.5q0 -64 45 -109t109 -45z" />
    <glyph glyph-name="c" unicode="c" 
d="M415 136q5 9 19.5 15t23.5 2l6 -2q36 -15 18 -43q-31 -49 -84.5 -78.5t-115.5 -29.5q-96 0 -164 65.5t-68 157.5q0 93 68 158.5t164 65.5q62 0 115.5 -29.5t84.5 -78.5q18 -28 -18 -42l-6 -3q-9 -4 -23.5 2t-19.5 15q-49 67 -133 67q-67 0 -113.5 -45t-46.5 -110
q0 -64 46.5 -109t113.5 -45q84 0 133 67z" />
    <glyph glyph-name="d" unicode="d" 
d="M274 447q73 0 132 -43q6 -5 14 -2t8 11v248q0 14 10 24t25 10q14 0 24 -10t10 -24v-626q0 -15 -10 -25t-24 -10h-4q-13 0 -22 9t-9 22v3q0 7 -8 10.5t-14 -1.5q-59 -43 -132 -43q-93 0 -158.5 65.5t-65.5 157.5q0 93 65.5 158.5t158.5 65.5zM274 69q64 0 109 45t45 109
q0 66 -45.5 110.5t-108.5 44.5q-64 0 -109.5 -45t-45.5 -110q0 -64 45.5 -109t109.5 -45z" />
    <glyph glyph-name="e" unicode="e" 
d="M391 123q6 7 18.5 10.5t20.5 -0.5l7 -4q32 -19 10 -46q-68 -83 -174 -83q-92 0 -157.5 65.5t-65.5 157.5q0 93 65.5 158.5t157.5 65.5t157 -66.5t67 -153.5q0 -17 -10 -27.5t-27 -10.5h-302q-17 0 -23.5 -9.5t0.5 -24.5q19 -39 56.5 -62.5t81.5 -23.5q72 0 118 54z
M135 292q-7 -15 -0.5 -24.5t23.5 -9.5h231q17 0 23.5 9.5t-0.5 24.5q-19 39 -56.5 62.5t-82.5 23.5q-44 0 -81.5 -23.5t-56.5 -62.5z" />
    <glyph glyph-name="f" unicode="f" 
d="M463 398q14 0 24 -10t10 -24t-10 -24t-24 -10h-178q-17 0 -28.5 -12t-11.5 -28v-256q0 -14 -10 -24t-24 -10t-24 10t-10 24v256q0 16 -11.5 28t-28.5 12h-53q-14 0 -24 10t-10 24t10 24t24 10h53q17 0 28.5 12t11.5 28v97q0 66 46.5 113t113.5 47q57 0 101.5 -36.5
t55.5 -91.5q6 -32 -31 -32h-10q-7 0 -17 9t-12 16q-8 29 -32.5 47.5t-54.5 18.5q-38 0 -65 -26.5t-27 -64.5v-97q0 -16 11.5 -28t28.5 -12h178z" />
    <glyph glyph-name="g" unicode="g" 
d="M428 -25v59q0 7 -8 10.5t-14 -1.5q-59 -43 -133 -43q-92 0 -157.5 65.5t-65.5 157.5q0 93 65.5 158.5t157.5 65.5q74 0 133 -43q6 -5 14 -2t8 11v3q0 13 9 22t22 9h4q14 0 24 -10t10 -24v-438q0 -92 -65.5 -157.5t-158.5 -65.5q-105 0 -173 83q-22 27 10 46l6 4
q8 4 20.5 0.5t18.5 -10.5q47 -54 118 -54q64 0 109.5 45t45.5 109zM273 69q63 0 107.5 42.5t47.5 104.5q0 69 -45 115.5t-110 46.5q-64 0 -109 -45.5t-45 -109.5t45 -109t109 -45z" />
    <glyph glyph-name="h" unicode="h" 
d="M497 223v-188q0 -15 -10 -25t-24 -10q-15 0 -25 10t-10 25v188q0 65 -45 110t-110 45q-62 0 -107 -43.5t-47 -105.5v-194q0 -15 -10 -25t-24 -10q-15 0 -25 10t-10 25v626q0 14 10 24t25 10q14 0 24 -10t10 -24v-248q0 -8 8 -11t14 2q59 43 132 43q93 0 158.5 -65.5
t65.5 -158.5z" />
    <glyph glyph-name="i" unicode="i" 
d="M268 447q16 0 28 -11.5t12 -28.5v-298q0 -17 12 -28.5t28 -11.5h115q14 0 24 -10t10 -24q0 -15 -10 -25t-24 -10h-378q-15 0 -25 10t-10 25q0 14 10 24t25 10h114q17 0 28.5 11.5t11.5 28.5v229q0 16 -11.5 28t-28.5 12h-66q-15 0 -25 10t-10 25q0 14 10 24t25 10h135z
M325 614q0 -22 -15 -37t-37 -15q-21 0 -36 15t-15 37q0 21 15 36t36 15q22 0 37 -15t15 -36z" />
    <glyph glyph-name="j" unicode="j" 
d="M182 378q-15 0 -25 10t-10 25q0 14 10 24t25 10h246q16 0 28 -11.5t12 -28.5v-432q0 -93 -66 -158.5t-158 -65.5q-106 0 -174 83q-22 27 10 46l7 4q8 4 20.5 0.5t18.5 -10.5q46 -54 118 -54q64 0 109.5 45.5t45.5 109.5v363q0 16 -11.5 28t-28.5 12h-177zM485 614
q0 -22 -15 -37t-37 -15q-21 0 -36 15t-15 37q0 21 15 36t36 15q22 0 37 -15t15 -36z" />
    <glyph glyph-name="k" unicode="k" 
d="M450 447q12 0 16 -11t-6 -19l-132 -105q-12 -10 -14.5 -25.5t6.5 -28.5l155 -226q8 -10 2 -21t-19 -11h-18q-7 0 -17.5 6t-15.5 12l-132 196q-10 15 -27 17.5t-31 -8.5l-83 -67q-5 -4 -10 -14.5t-5 -16.5v-90q0 -15 -10 -25t-24 -10q-15 0 -25 10t-10 25v626q0 14 10 24
t25 10q14 0 24 -10t10 -24v-353q0 -27 22 -37.5t43 5.5l207 163q16 8 25 8h34z" />
    <glyph glyph-name="l" unicode="l" 
d="M463 69q14 0 24 -10t10 -24q0 -15 -10 -25t-24 -10h-378q-15 0 -25 10t-10 25q0 14 10 24t25 10h114q17 0 28.5 11.5t11.5 28.5v480q0 17 -11.5 28.5t-28.5 11.5h-47q-14 0 -23.5 9.5t-9.5 23.5t9.5 23.5t23.5 9.5h116q16 0 28 -11.5t12 -28.5v-546q0 -17 12 -28.5
t28 -11.5h115z" />
    <glyph glyph-name="m" unicode="m" 
d="M368 447q53 0 91 -38t38 -91v-284q0 -14 -9.5 -24t-23.5 -10t-24 10t-10 24v284q0 26 -18 44t-44 18q-25 0 -43 -18t-18 -44v-283q0 -15 -10 -25t-24 -10q-15 0 -25 10t-10 25v283q0 25 -17.5 42.5t-42.5 17.5t-42 -17.5t-17 -42.5v-283q0 -15 -10 -25t-24 -10
q-15 0 -25 10t-10 25v378q0 14 10 24t25 10h27q7 0 7 -7t6 -5q24 12 53 12q47 0 82 -29q4 -4 13 -4t13 4q37 29 82 29z" />
    <glyph glyph-name="n" unicode="n" 
d="M273 447q93 0 158.5 -65.5t65.5 -158.5v-188q0 -15 -10 -25t-24 -10q-15 0 -25 10t-10 25v188q0 65 -45 110t-110 45q-64 0 -109 -45t-45 -109v-189q0 -15 -10 -25t-24 -10q-15 0 -25 10t-10 25v378q0 14 10 24t25 10h3q13 0 22 -9t9 -22v-3q0 -8 8 -11t14 2
q59 43 132 43z" />
    <glyph glyph-name="o" unicode="o" 
d="M273 447q93 0 158.5 -65.5t65.5 -158.5q0 -92 -65.5 -157.5t-158.5 -65.5q-92 0 -157.5 65.5t-65.5 157.5q0 93 65.5 158.5t157.5 65.5zM273 69q64 0 109.5 45t45.5 109q0 65 -45 110t-110 45q-64 0 -109 -45.5t-45 -109.5t45 -109t109 -45z" />
    <glyph glyph-name="p" unicode="p" 
d="M497 224q0 -93 -65.5 -158.5t-158.5 -65.5q-73 0 -132 43q-6 5 -14 1.5t-8 -10.5v-248q0 -14 -10 -24t-24 -10q-15 0 -25 10t-10 24v627q0 14 10 24t25 10h3q13 0 22 -9t9 -22v-3q0 -8 8 -11t14 2q59 43 132 43q93 0 158.5 -65.5t65.5 -157.5zM428 224q0 64 -45.5 109.5
t-109.5 45.5q-63 0 -108.5 -44t-45.5 -105q0 -68 45 -114.5t109 -46.5q65 0 110 45.5t45 109.5z" />
    <glyph glyph-name="q" unicode="q" 
d="M50 224q0 92 65.5 157.5t158.5 65.5q73 0 132 -43q6 -5 14 -2t8 11v3q0 13 9 22t22 9h4q14 0 24 -10t10 -24v-627q0 -14 -10 -24t-24 -10q-15 0 -25 10t-10 24v248q0 7 -8 10.5t-14 -1.5q-59 -43 -132 -43q-93 0 -158.5 65.5t-65.5 158.5zM119 224q0 -64 45.5 -109.5
t109.5 -45.5t109 46.5t45 114.5q0 61 -45.5 105t-108.5 44q-64 0 -109.5 -45.5t-45.5 -109.5z" />
    <glyph glyph-name="r" unicode="r" 
d="M387 378q-64 0 -109 -45t-45 -109v-115q0 -17 11.5 -28.5t28.5 -11.5h93q14 0 24 -10t10 -24q0 -15 -10 -25t-24 -10h-281q-15 0 -25 10t-10 25q0 14 10 24t25 10h39q16 0 28 11.5t12 28.5v229q0 16 -12 28t-28 12h-39q-15 0 -25 10t-10 25q0 14 10 24t25 10h117
q13 0 22 -9t9 -22v-3q0 -8 8 -11t14 2q59 43 132 43q50 0 93 -20q16 -8 8 -25l-18 -33q-6 -11 -18 -5q-30 14 -65 14z" />
    <glyph glyph-name="s" unicode="s" 
d="M273 257q112 0 168 -36.5t56 -94.5q0 -52 -65 -89t-159 -37q-76 0 -137 27.5t-79 68.5q-7 18 -0.5 24t27.5 6h17q4 0 11.5 -6t9.5 -9q13 -21 55 -34.5t96 -13.5q65 0 110.5 18.5t45.5 44.5q0 63 -156 63q-110 0 -166.5 36t-56.5 91q0 54 66 92.5t157 38.5q80 0 140 -28
t78 -71q12 -32 -28 -32h-17q-4 0 -11.5 6t-9.5 9q-13 22 -55.5 37.5t-96.5 15.5q-64 0 -109.5 -21t-45.5 -47q0 -59 155 -59z" />
    <glyph glyph-name="t" unicode="t" 
d="M245 487q0 -17 11.5 -28.5t28.5 -11.5h178q14 0 24 -10t10 -24q0 -15 -10 -25t-24 -10h-178q-17 0 -28.5 -12t-11.5 -28v-178q0 -38 27 -64.5t65 -26.5q30 0 54.5 18.5t32.5 47.5q2 7 12 16t17 9h10q37 0 31 -32q-11 -55 -55.5 -91.5t-101.5 -36.5q-67 0 -113.5 47
t-46.5 113v178q0 16 -11.5 28t-28.5 12h-52q-15 0 -25 10t-10 25q0 14 10 24t25 10h52q17 0 28.5 11.5t11.5 28.5v53q0 14 10 24t24 10t24 -10t10 -24v-53z" />
    <glyph glyph-name="u" unicode="u" 
d="M274 0q-93 0 -158.5 65.5t-65.5 158.5v189q0 14 10 24t25 10q14 0 24 -10t10 -24v-189q0 -64 45.5 -109.5t109.5 -45.5t109 45t45 109v190q0 14 10 24t25 10q14 0 24 -10t10 -24v-378q0 -15 -10 -25t-24 -10h-4q-13 0 -22 9t-9 22v3q0 8 -8 11t-14 -2q-59 -43 -132 -43z
" />
    <glyph glyph-name="v" unicode="v" 
d="M236 179q11 -26 37 -26t37 26l103 244q4 9 15.5 16.5t21.5 7.5h10q14 0 21 -10.5t2 -23.5l-165 -389q-4 -9 -15.5 -16.5t-21.5 -7.5h-15q-10 0 -21.5 7.5t-15.5 16.5l-165 389q-5 13 2 23.5t21 10.5h10q11 0 22 -7.5t15 -17.5z" />
    <glyph glyph-name="w" unicode="w" 
d="M324 185q4 -17 21 -17t21 17l51 231q3 13 14.5 22t24.5 9h5q14 0 22.5 -10.5t4.5 -24.5l-98 -382q-3 -12 -14.5 -21t-24.5 -9h-5q-13 0 -24.5 9t-14.5 22l-14 63q-3 16 -19.5 16t-20.5 -16l-13 -62q-3 -13 -14.5 -22.5t-24.5 -9.5h-5q-13 0 -24.5 9t-14.5 21l-98 382
q-4 14 4.5 24.5t23.5 10.5h4q13 0 24.5 -9t14.5 -22l51 -231q4 -17 21 -17t21 17l15 64q2 12 13 20.5t23 8.5q11 0 22 -8.5t13 -20.5z" />
    <glyph glyph-name="x" unicode="x" 
d="M401 432q4 5 14.5 10t16.5 5h23q14 0 19 -11t-4 -21l-137 -166q-8 -11 -8 -26t8 -25l137 -166q9 -10 4 -21t-19 -11h-23q-6 0 -16.5 5t-14.5 10l-97 120q-13 15 -31 15t-31 -15l-97 -120q-4 -5 -14.5 -10t-16.5 -5h-22q-14 0 -19 11t3 21l137 166q8 10 8 25t-8 25
l-137 167q-8 11 -3 21.5t19 10.5h22q6 0 16.5 -5t14.5 -10l97 -120q13 -15 31 -15t31 15z" />
    <glyph glyph-name="y" unicode="y" 
d="M236 179q11 -26 37 -26t37 26l103 244q4 9 15.5 16.5t21.5 7.5h10q14 0 21 -10.5t2 -23.5l-270 -637q-4 -9 -15.5 -16.5t-21.5 -7.5h-9q-14 0 -21 10.5t-2 23.5l86 202q2 5 2 16t-2 16l-166 393q-5 13 2 23.5t21 10.5h10q11 0 22 -7.5t15 -17.5z" />
    <glyph glyph-name="z" unicode="z" 
d="M463 447q14 0 24 -10t10 -24v-17q0 -5 -5 -15.5t-9 -14.5l-260 -227q-22 -19 -12 -44.5t39 -25.5h213q14 0 24 -10t10 -24q0 -15 -10 -25t-24 -10h-378q-15 0 -25 10t-10 25v16q0 5 5 15.5t9 14.5l260 227q22 19 12 44.5t-39 25.5h-212q-15 0 -25 10t-10 25q0 14 10 24
t25 10h378z" />
    <glyph glyph-name="braceleft" unicode="{" 
d="M426 792q16 3 26 -5.5t10 -24.5q0 -11 -10 -23t-21 -14q-53 -11 -88.5 -55.5t-35.5 -100.5v-34q0 -99 -74 -166q-7 -7 -7 -23t7 -23q74 -67 74 -165v-36q0 -55 36 -98t90 -54q11 -2 21 -14t10 -23q0 -16 -10 -24.5t-26 -5.5q-81 13 -134.5 74.5t-53.5 144.5v36
q0 62 -44 107t-107 48h-3q-3 0 -3 3v31q0 10 10 22t21 14q54 11 90 54t36 98v34q0 83 53 146t133 77z" />
    <glyph glyph-name="bar" unicode="|" 
d="M273 -100q-13 0 -23 10t-10 23v829q0 14 10 23.5t23 9.5t23 -9.5t10 -23.5v-829q0 -13 -10 -23t-23 -10z" />
    <glyph glyph-name="braceright" unicode="}" 
d="M116 725q-11 2 -21 14t-10 23q0 16 10 24.5t26 5.5q80 -14 133 -77t53 -146v-34q0 -55 36 -98t90 -54q11 -2 21 -14t10 -22v-31q0 -3 -3 -3h-3q-63 -3 -107 -48t-44 -107v-36q0 -83 -53.5 -144.5t-134.5 -74.5q-16 -3 -26 5.5t-10 24.5q0 11 10 23t21 14q54 11 90 54
t36 98v36q0 98 74 165q8 7 8 23t-8 23q-74 67 -74 166v34q0 56 -35.5 100.5t-88.5 55.5z" />
    <glyph glyph-name="asciitilde" unicode="~" 
d="M241 234q-11 25 -36 36t-50 0q-39 -15 -39 -62q0 -12 6 -29q2 -8 -5 -11l-43 -17q-12 -4 -15 8q-10 26 -10 50q0 40 22 73.5t60 49.5q50 17 101.5 -2.5t70.5 -70.5q10 -26 36 -38t49 -2q41 16 41 64q0 6 -6 28q-4 7 4 11l47 19q11 4 15 -8q8 -27 8 -48q0 -41 -23.5 -76.5
t-60.5 -51.5q-52 -19 -100 2.5t-72 74.5z" />
    <glyph glyph-name="exclamdown" unicode="&#xa1;" 
d="M274 474q14 0 23.5 -10t9.5 -23v-408q0 -13 -9.5 -23t-23.5 -10t-23.5 10t-9.5 23v408q0 13 9.5 23t23.5 10zM222 643q0 22 15 37t37 15q21 0 36 -15t15 -37q0 -21 -15 -36t-36 -15q-22 0 -37 15t-15 36z" />
    <glyph glyph-name="cent" unicode="&#xa2;" 
d="M273 -70q-13 0 -23 10t-10 23v6q0 12 -10.5 25t-21.5 17q-70 23 -114 81t-44 131t44 131.5t114 80.5q11 4 21.5 17t10.5 25v7q0 14 10 23.5t23 9.5t23 -9.5t10 -23.5v-2q0 -12 12.5 -26t25.5 -17q86 -23 136 -98q9 -14 4.5 -26t-20.5 -18l-9 -4q-8 -3 -20 2t-18 12
q-29 45 -82 62q-13 4 -21 -2t-8 -19v-250q0 -14 8 -19.5t21 -1.5q51 17 82 62q6 8 18 13.5t20 1.5l9 -3q36 -15 16 -46q-50 -76 -136 -97q-13 -3 -25.5 -17t-12.5 -26v-2q0 -13 -10 -23t-23 -10zM122 223q0 -44 22.5 -80t61.5 -56q14 -8 24 -1t10 24v226q0 17 -9.5 23.5
t-24.5 -0.5q-38 -19 -61 -55.5t-23 -80.5z" />
    <glyph glyph-name="sterling" unicode="&#xa3;" 
d="M327 340q13 0 22.5 -9.5t9.5 -22.5t-9.5 -23t-22.5 -10h-62q-8 0 -23.5 -10t-19.5 -17t-44.5 -55t-51.5 -83q-13 -41 35 -41h302q14 0 24 -10t10 -24q0 -15 -10 -25t-24 -10h-378q-15 0 -25 10t-10 25v34q0 23 5.5 44.5t11.5 36t20 34t20 27t23.5 25.5t19.5 20
q6 7 3.5 13t-11.5 6h-59q-13 0 -23 9.5t-10 23.5q0 13 10 22.5t23 9.5h35q8 0 10.5 6t-2.5 10q-23 21 -36.5 35.5t-26.5 39.5t-13 50q0 89 65.5 151.5t161.5 62.5q57 0 107 -21t82 -58q11 -12 8.5 -23.5t-17.5 -19.5l-7 -4q-8 -4 -19 -2t-17 8q-22 25 -59 39.5t-78 14.5
q-68 0 -113 -43t-45 -105q0 -27 12.5 -47t41.5 -44.5t36 -32.5q4 -4 17 -10.5t18 -6.5h83z" />
    <glyph glyph-name="yen" unicode="&#xa5;" 
d="M152 156q-14 0 -23.5 10t-9.5 23t10 22.5t23 9.5h55q13 0 23 9.5t10 23.5t-10 23.5t-23 9.5h-55q-14 0 -23.5 9.5t-9.5 23.5q0 13 10 22.5t23 9.5h27q21 0 30.5 16.5t-0.5 35.5l-142 261q-6 11 -0.5 20.5t18.5 9.5h11q8 0 19 -6.5t15 -13.5l108 -192q13 -22 35 -22t35 22
l109 192q4 7 15 13.5t19 6.5h12q12 0 17.5 -9.5t-0.5 -20.5l-143 -260q-10 -19 -0.5 -36t31.5 -17h28q13 0 22.5 -9.5t9.5 -22.5t-9.5 -23t-22.5 -10h-57q-13 0 -23 -9.5t-10 -23.5t10 -23.5t23 -9.5h57q13 0 22.5 -9.5t9.5 -22.5t-9.5 -23t-22.5 -10h-50q-16 0 -28 -12
t-12 -28v-83q0 -13 -10 -23t-23 -10t-23 10t-10 23v83q0 16 -12 28t-28 12h-48z" />
    <glyph glyph-name="section" unicode="&#xa7;" 
d="M157 -49q5 -4 9.5 -2t4.5 8v638q0 66 46.5 113t113.5 47q57 0 101.5 -36.5t55.5 -91.5q6 -32 -31 -32h-18q-6 0 -11.5 5.5t-7.5 11.5q-6 32 -31 52q-5 4 -9 2t-4 -8v-638q0 -66 -46.5 -113t-113.5 -47q-57 0 -101.5 36.5t-55.5 91.5q-6 32 32 32h18q5 0 10.5 -5.5
t7.5 -11.5q6 -33 30 -52zM239 595v-643q0 -9 5.5 -12.5t14.5 0.5q49 25 49 80v642q0 10 -5.5 13.5t-14.5 -0.5q-49 -25 -49 -80z" />
    <glyph glyph-name="dieresis" unicode="&#xa8;" 
d="M388 659q22 0 37 -15t15 -37q0 -21 -15 -36t-37 -15q-21 0 -36 15t-15 36q0 22 15 37t36 15zM159 659q22 0 37 -15t15 -37q0 -21 -15 -36t-37 -15q-21 0 -36 15t-15 36q0 22 15 37t36 15z" />
    <glyph glyph-name="guillemotleft" unicode="&#xab;" 
d="M264 446q10 7 20 2.5t10 -16.5v-19q0 -6 -5 -16.5t-10 -14.5l-130 -106q-16 -13 -16 -31t16 -31l130 -105q5 -4 10 -14.5t5 -16.5v-18q0 -13 -10 -18t-20 3l-198 154q-5 4 -10.5 14.5t-5.5 17.5v29q0 7 5.5 17.5t10.5 14.5zM468 446q10 7 20 2.5t10 -16.5v-19
q0 -6 -5 -16.5t-10 -14.5l-130 -106q-16 -13 -16 -31t16 -31l130 -105q5 -4 10 -14.5t5 -16.5v-18q0 -13 -10 -18t-20 3l-198 154q-5 4 -10.5 14.5t-5.5 17.5v29q0 7 5.5 17.5t10.5 14.5z" />
    <glyph glyph-name="macron" unicode="&#xaf;" 
d="M152 597q-14 0 -23.5 9.5t-9.5 23.5q0 13 10 22.5t23 9.5h244q13 0 22.5 -9.5t9.5 -22.5t-9.5 -23t-22.5 -10h-244z" />
    <glyph glyph-name="degree" unicode="&#xb0;" 
d="M273 706q54 0 92 -38t38 -92q0 -53 -38 -91t-92 -38q-53 0 -91 38t-38 91q0 54 38 92t91 38zM273 515q26 0 44 18t18 43q0 26 -18.5 44t-43.5 18t-43 -18t-18 -44t18 -43.5t43 -17.5z" />
    <glyph glyph-name="plusminus" unicode="&#xb1;" 
d="M152 35q-14 0 -23.5 9.5t-9.5 23.5q0 13 10 22.5t23 9.5h49q17 0 28.5 12t11.5 28v41q0 17 -11.5 28.5t-28.5 11.5h-49q-14 0 -23.5 9.5t-9.5 23.5q0 13 10 22.5t23 9.5h49q17 0 28.5 12t11.5 28v50q0 13 10 22.5t23 9.5t22.5 -9.5t9.5 -22.5v-50q0 -16 12 -28t28 -12h50
q13 0 22.5 -9.5t9.5 -22.5t-9.5 -23t-22.5 -10h-50q-16 0 -28 -11.5t-12 -28.5v-41q0 -16 12 -28t28 -12h50q13 0 22.5 -9.5t9.5 -22.5t-9.5 -23t-22.5 -10h-244z" />
    <glyph glyph-name="acute" unicode="&#xb4;" 
d="M193 523q-10 -10 -24.5 -9.5t-24.5 10.5t-10 24t10 24l126 127q10 10 24.5 10t25.5 -10q10 -10 9.5 -24.5t-10.5 -24.5z" />
    <glyph glyph-name="paragraph" unicode="&#xb6;" 
d="M264 695h193q17 0 28.5 -11.5t11.5 -28.5v-620q0 -15 -10 -25t-24 -10q-15 0 -25 10t-10 25v554q0 17 -12 28.5t-28 11.5h-15q-17 0 -28.5 -11.5t-11.5 -28.5v-554q0 -15 -10 -25t-24 -10q-15 0 -25 10t-10 25v197q0 13 -14.5 27.5t-27.5 16.5q-74 15 -123 73.5
t-49 133.5q0 87 63.5 149.5t150.5 62.5zM224 344q40 -12 40 34v211q0 46 -40 34q-46 -13 -75.5 -51.5t-29.5 -88.5q0 -49 29.5 -87.5t75.5 -51.5z" />
    <glyph glyph-name="cedilla" unicode="&#xb8;" 
d="M241 23q0 8 5.5 13t13.5 5h38q13 0 24 -8q34 -28 44 -67t-5 -81q-20 -46 -62.5 -67t-91.5 -13q-35 5 -21 40q4 10 18.5 18.5t25.5 7.5q37 -3 57 22t12.5 57t-38.5 47q-6 2 -13 11t-7 15z" />
    <glyph glyph-name="guillemotright" unicode="&#xbb;" 
d="M269 382q-5 4 -10 14.5t-5 16.5v19q0 12 10 16.5t20 -2.5l198 -154q5 -4 10.5 -14.5t5.5 -17.5v-29q0 -7 -5.5 -17.5t-10.5 -14.5l-198 -154q-10 -8 -20 -3t-10 18v18q0 6 5 16.5t10 14.5l130 105q16 13 16 31t-16 31zM65 382q-5 4 -10 14.5t-5 16.5v19q0 12 10 16.5
t20 -2.5l198 -154q5 -4 10.5 -14.5t5.5 -17.5v-29q0 -7 -5.5 -17.5t-10.5 -14.5l-198 -154q-10 -8 -20 -3t-10 18v18q0 6 5 16.5t10 14.5l130 105q16 13 16 31t-16 31z" />
    <glyph glyph-name="questiondown" unicode="&#xbf;" 
d="M244 482q3 7 18.5 19.5t22.5 12.5q36 0 30 -33q-6 -28 -22 -50.5t-36.5 -36t-43 -30.5t-41 -34t-30.5 -47t-12 -69q0 -62 45 -105t113 -43q40 0 77 18t60 46q6 6 17 8t19 -2l7 -3q31 -18 9 -45q-33 -39 -83.5 -63.5t-105.5 -24.5q-96 0 -161.5 62.5t-65.5 151.5
q0 61 24 107t53.5 68t62 47.5t43.5 45.5zM233 643q0 22 15 37t37 15q21 0 36 -15t15 -37q0 -21 -15 -36t-36 -15q-22 0 -37 15t-15 36z" />
    <glyph glyph-name="Agrave" unicode="&#xc0;" 
d="M487 36q4 -14 -4 -25t-23 -11h-6q-13 0 -24.5 9t-14.5 21l-32 121q-3 12 -14.5 21t-24.5 9h-140q-13 0 -24.5 -9t-14.5 -21l-32 -121q-3 -12 -14.5 -21t-24.5 -9h-5q-15 0 -23 10.5t-4 24.5l170 629q3 12 14.5 21t24.5 9h7q13 0 24.5 -9t14.5 -21zM313 418q-8 30 -39 30
t-39 -30l-32 -121q-5 -20 6.5 -35t32.5 -15h64q21 0 32.5 15t6.5 35zM361 820q10 -10 10.5 -24t-9.5 -24t-25 -10.5t-25 9.5l-126 127q-10 10 -10 24t10 25q10 10 24.5 10t24.5 -10z" />
    <glyph glyph-name="Aacute" unicode="&#xc1;" 
d="M487 36q4 -14 -4 -25t-23 -11h-6q-13 0 -24.5 9t-14.5 21l-32 121q-3 12 -14.5 21t-24.5 9h-140q-13 0 -24.5 -9t-14.5 -21l-32 -121q-3 -12 -14.5 -21t-24.5 -9h-5q-15 0 -23 10.5t-4 24.5l170 629q3 12 14.5 21t24.5 9h7q13 0 24.5 -9t14.5 -21zM313 418q-8 30 -39 30
t-39 -30l-32 -121q-5 -20 6.5 -35t32.5 -15h64q21 0 32.5 15t6.5 35zM235 771q-10 -10 -24.5 -9.5t-24.5 10.5t-10 24t10 24l126 127q11 10 25 10t25 -10q10 -10 9.5 -24.5t-10.5 -24.5z" />
    <glyph glyph-name="Acircumflex" unicode="&#xc2;" 
d="M487 36q4 -14 -4 -25t-23 -11h-6q-13 0 -24.5 9t-14.5 21l-32 121q-3 12 -14.5 21t-24.5 9h-140q-13 0 -24.5 -9t-14.5 -21l-32 -121q-3 -12 -14.5 -21t-24.5 -9h-5q-15 0 -23 10.5t-4 24.5l170 629q3 12 14.5 21t24.5 9h7q13 0 24.5 -9t14.5 -21zM313 418q-8 30 -39 30
t-39 -30l-32 -121q-5 -20 6.5 -35t32.5 -15h64q21 0 32.5 15t6.5 35zM171 811q-10 -10 -24.5 -9.5t-24.5 10.5t-10 24t10 24l123 123q11 11 28 11t28 -11l123 -123q10 -10 10.5 -24t-9.5 -24t-25 -10.5t-25 9.5l-74 74q-11 11 -28 11t-28 -11z" />
    <glyph glyph-name="Atilde" unicode="&#xc3;" 
d="M487 36q4 -14 -4 -25t-23 -11h-6q-13 0 -24.5 9t-14.5 21l-32 121q-3 12 -14.5 21t-24.5 9h-140q-13 0 -24.5 -9t-14.5 -21l-32 -121q-3 -12 -14.5 -21t-24.5 -9h-5q-15 0 -23 10.5t-4 24.5l170 629q3 12 14.5 21t24.5 9h7q13 0 24.5 -9t14.5 -21zM313 418q-8 30 -39 30
t-39 -30l-32 -121q-5 -20 6.5 -35t32.5 -15h64q21 0 32.5 15t6.5 35zM247 859q-5 14 -20 21t-30 0q-28 -12 -19 -53q4 -11 -8 -17l-13 -4q-28 -11 -35 16q-7 34 7.5 65t47.5 43q35 13 71 -0.5t53 -50.5q8 -16 21.5 -23t26.5 -1q20 9 23 23t-3 29q-4 13 9 18l14 6
q28 11 34 -15q8 -39 -4 -70t-49 -44q-34 -15 -70.5 -1.5t-55.5 58.5z" />
    <glyph glyph-name="Adieresis" unicode="&#xc4;" 
d="M487 36q4 -14 -4 -25t-23 -11h-6q-13 0 -24.5 9t-14.5 21l-32 121q-3 12 -14.5 21t-24.5 9h-140q-13 0 -24.5 -9t-14.5 -21l-32 -121q-3 -12 -14.5 -21t-24.5 -9h-5q-15 0 -23 10.5t-4 24.5l170 629q3 12 14.5 21t24.5 9h7q13 0 24.5 -9t14.5 -21zM313 418q-8 30 -39 30
t-39 -30l-32 -121q-5 -20 6.5 -35t32.5 -15h64q21 0 32.5 15t6.5 35zM388 907q22 0 37 -15t15 -37q0 -21 -15 -36t-37 -15q-21 0 -36 15t-15 36q0 22 15 37t36 15zM159 907q22 0 37 -15t15 -37q0 -21 -15 -36t-37 -15q-21 0 -36 15t-15 36q0 22 15 37t36 15z" />
    <glyph glyph-name="Aring" unicode="&#xc5;" 
d="M273 855q54 0 92 -38t38 -92q0 -63 -51 -102q-6 -5 -11 -17t-4 -19l150 -551q4 -14 -4 -25t-23 -11h-6q-13 0 -24.5 9t-14.5 21l-32 121q-3 12 -14.5 21t-24.5 9h-140q-13 0 -24.5 -9t-14.5 -21l-32 -121q-3 -12 -14.5 -21t-24.5 -9h-5q-15 0 -23 10.5t-4 24.5l149 551
q1 7 -4 19t-11 17q-52 39 -52 103q0 54 38 92t91 38zM313 418q-8 30 -39 30t-39 -30l-32 -121q-5 -20 6.5 -35t32.5 -15h64q21 0 32.5 15t6.5 35zM273 664q26 0 44 18t18 43t-18.5 43.5t-43.5 18.5t-43 -18t-18 -44q0 -25 18 -43t43 -18z" />
    <glyph glyph-name="AE" unicode="&#xc6;" 
d="M313 0q-17 0 -28.5 12t-11.5 28v101q0 17 -11.5 28.5t-28.5 11.5h-29q-13 0 -24.5 -9t-14.5 -21l-32 -121q-3 -12 -14.5 -21t-24.5 -9h-5q-15 0 -23 10.5t-4 24.5l170 630q3 12 14.5 21t24.5 9h193q14 0 23.5 -9.5t9.5 -23.5t-9.5 -23.5t-23.5 -9.5h-82q-16 0 -28 -11.5
t-12 -28.5v-169q0 -16 12 -28t28 -12h14q13 0 22.5 -9.5t9.5 -22.5t-9.5 -23t-22.5 -10h-14q-16 0 -28 -11.5t-12 -28.5v-169q0 -16 12 -28t28 -12h82q14 0 23.5 -10t9.5 -23t-9.5 -23t-23.5 -10h-151zM201 287q-5 -16 4.5 -28t26.5 -12h1q17 0 28.5 11.5t11.5 28.5v117
q0 16 -17.5 18.5t-22.5 -13.5z" />
    <glyph glyph-name="Ccedilla" unicode="&#xc7;" 
d="M272 66q54 0 96.5 32t54.5 80q3 11 16 23.5t24 12.5q17 0 25.5 -9.5t5.5 -25.5q-10 -55 -45.5 -98t-88.5 -64q-6 -2 -8.5 -11t0.5 -15q25 -48 5 -106q-20 -46 -62.5 -67t-91.5 -13q-35 5 -21 40q4 10 18 18.5t25 7.5q38 -3 58 23t11.5 58.5t-42.5 46.5l-3 1l-3 1
q-84 10 -140 70.5t-56 142.5v267q0 89 65 151.5t157 62.5q83 0 146 -51.5t76 -127.5q3 -16 -5.5 -25.5t-25.5 -9.5q-11 0 -24 12.5t-16 23.5q-12 48 -54.5 80t-96.5 32q-64 0 -108.5 -43t-44.5 -105v-267q0 -62 44.5 -105t108.5 -43z" />
    <glyph glyph-name="Egrave" unicode="&#xc8;" 
d="M90 0q-16 0 -28 12t-12 28v615q0 17 12 28.5t28 11.5h374q14 0 23.5 -9.5t9.5 -23.5t-9.5 -23.5t-23.5 -9.5h-305q-17 0 -28.5 -11.5t-11.5 -28.5v-169q0 -16 11.5 -28t28.5 -12h123q13 0 22.5 -9.5t9.5 -22.5t-9.5 -23t-22.5 -10h-123q-17 0 -28.5 -11.5t-11.5 -28.5
v-169q0 -16 11.5 -28t28.5 -12h305q14 0 23.5 -10t9.5 -23t-9.5 -23t-23.5 -10h-374zM361 820q10 -10 10.5 -24t-9.5 -24t-25 -10.5t-25 9.5l-126 127q-10 10 -10 24t10 25q10 10 24.5 10t24.5 -10z" />
    <glyph glyph-name="Eacute" unicode="&#xc9;" 
d="M90 0q-16 0 -28 12t-12 28v615q0 17 12 28.5t28 11.5h374q14 0 23.5 -9.5t9.5 -23.5t-9.5 -23.5t-23.5 -9.5h-305q-17 0 -28.5 -11.5t-11.5 -28.5v-169q0 -16 11.5 -28t28.5 -12h123q13 0 22.5 -9.5t9.5 -22.5t-9.5 -23t-22.5 -10h-123q-17 0 -28.5 -11.5t-11.5 -28.5
v-169q0 -16 11.5 -28t28.5 -12h305q14 0 23.5 -10t9.5 -23t-9.5 -23t-23.5 -10h-374zM235 771q-10 -10 -24.5 -9.5t-24.5 10.5t-10 24t10 24l126 127q11 10 25 10t25 -10q10 -10 9.5 -24.5t-10.5 -24.5z" />
    <glyph glyph-name="Ecircumflex" unicode="&#xca;" 
d="M90 0q-16 0 -28 12t-12 28v615q0 17 12 28.5t28 11.5h374q14 0 23.5 -9.5t9.5 -23.5t-9.5 -23.5t-23.5 -9.5h-305q-17 0 -28.5 -11.5t-11.5 -28.5v-169q0 -16 11.5 -28t28.5 -12h123q13 0 22.5 -9.5t9.5 -22.5t-9.5 -23t-22.5 -10h-123q-17 0 -28.5 -11.5t-11.5 -28.5
v-169q0 -16 11.5 -28t28.5 -12h305q14 0 23.5 -10t9.5 -23t-9.5 -23t-23.5 -10h-374zM171 811q-10 -10 -24.5 -9.5t-24.5 10.5t-10 24t10 24l123 123q11 11 28 11t28 -11l123 -123q10 -10 10.5 -24t-9.5 -24t-25 -10.5t-25 9.5l-74 74q-11 11 -28 11t-28 -11z" />
    <glyph glyph-name="Edieresis" unicode="&#xcb;" 
d="M90 0q-16 0 -28 12t-12 28v615q0 17 12 28.5t28 11.5h374q14 0 23.5 -9.5t9.5 -23.5t-9.5 -23.5t-23.5 -9.5h-305q-17 0 -28.5 -11.5t-11.5 -28.5v-169q0 -16 11.5 -28t28.5 -12h123q13 0 22.5 -9.5t9.5 -22.5t-9.5 -23t-22.5 -10h-123q-17 0 -28.5 -11.5t-11.5 -28.5
v-169q0 -16 11.5 -28t28.5 -12h305q14 0 23.5 -10t9.5 -23t-9.5 -23t-23.5 -10h-374zM388 907q22 0 37 -15t15 -37q0 -21 -15 -36t-37 -15q-21 0 -36 15t-15 36q0 22 15 37t36 15zM159 907q22 0 37 -15t15 -37q0 -21 -15 -36t-37 -15q-21 0 -36 15t-15 36q0 22 15 37t36 15z
" />
    <glyph glyph-name="Igrave" unicode="&#xcc;" 
d="M83 629q-13 0 -23 9.5t-10 23.5t10 23.5t23 9.5h381q14 0 23.5 -9.5t9.5 -23.5t-9.5 -23.5t-23.5 -9.5h-118q-16 0 -28 -11.5t-12 -28.5v-483q0 -16 12 -28t28 -12h118q14 0 23.5 -10t9.5 -23t-9.5 -23t-23.5 -10h-381q-13 0 -23 10t-10 23t10 23t23 10h117q16 0 28 12
t12 28v483q0 17 -12 28.5t-28 11.5h-117zM361 820q10 -10 10.5 -24t-9.5 -24t-25 -10.5t-25 9.5l-126 127q-10 10 -10 24t10 25q10 10 24.5 10t24.5 -10z" />
    <glyph glyph-name="Iacute" unicode="&#xcd;" 
d="M83 629q-13 0 -23 9.5t-10 23.5t10 23.5t23 9.5h381q14 0 23.5 -9.5t9.5 -23.5t-9.5 -23.5t-23.5 -9.5h-118q-16 0 -28 -11.5t-12 -28.5v-483q0 -16 12 -28t28 -12h118q14 0 23.5 -10t9.5 -23t-9.5 -23t-23.5 -10h-381q-13 0 -23 10t-10 23t10 23t23 10h117q16 0 28 12
t12 28v483q0 17 -12 28.5t-28 11.5h-117zM235 771q-10 -10 -24.5 -9.5t-24.5 10.5t-10 24t10 24l126 127q11 10 25 10t25 -10q10 -10 9.5 -24.5t-10.5 -24.5z" />
    <glyph glyph-name="Icircumflex" unicode="&#xce;" 
d="M83 629q-13 0 -23 9.5t-10 23.5t10 23.5t23 9.5h381q14 0 23.5 -9.5t9.5 -23.5t-9.5 -23.5t-23.5 -9.5h-118q-16 0 -28 -11.5t-12 -28.5v-483q0 -16 12 -28t28 -12h118q14 0 23.5 -10t9.5 -23t-9.5 -23t-23.5 -10h-381q-13 0 -23 10t-10 23t10 23t23 10h117q16 0 28 12
t12 28v483q0 17 -12 28.5t-28 11.5h-117zM171 811q-10 -10 -24.5 -9.5t-24.5 10.5t-10 24t10 24l123 123q11 11 28 11t28 -11l123 -123q10 -10 10.5 -24t-9.5 -24t-25 -10.5t-25 9.5l-74 74q-11 11 -28 11t-28 -11z" />
    <glyph glyph-name="Idieresis" unicode="&#xcf;" 
d="M83 629q-13 0 -23 9.5t-10 23.5t10 23.5t23 9.5h381q14 0 23.5 -9.5t9.5 -23.5t-9.5 -23.5t-23.5 -9.5h-118q-16 0 -28 -11.5t-12 -28.5v-483q0 -16 12 -28t28 -12h118q14 0 23.5 -10t9.5 -23t-9.5 -23t-23.5 -10h-381q-13 0 -23 10t-10 23t10 23t23 10h117q16 0 28 12
t12 28v483q0 17 -12 28.5t-28 11.5h-117zM388 907q22 0 37 -15t15 -37q0 -21 -15 -36t-37 -15q-21 0 -36 15t-15 36q0 22 15 37t36 15zM159 907q22 0 37 -15t15 -37q0 -21 -15 -36t-37 -15q-21 0 -36 15t-15 36q0 22 15 37t36 15z" />
    <glyph glyph-name="Ntilde" unicode="&#xd1;" 
d="M428 661q0 14 10 24t25 10q14 0 24 -10t10 -24v-626q0 -15 -10 -25t-24 -10h-11q-9 0 -20 6.5t-15 14.5l-223 410q-15 27 -45 19.5t-30 -38.5v-377q0 -15 -10 -25t-24 -10q-15 0 -25 10t-10 25v626q0 14 10 24t25 10h10q9 0 20 -6.5t15 -14.5l223 -404q10 -18 28 -21
t32.5 8.5t14.5 31.5v372zM247 859q-5 14 -20 21t-30 0q-28 -12 -19 -53q4 -11 -8 -17l-13 -4q-28 -11 -35 16q-7 34 7.5 65t47.5 43q35 13 71 -0.5t53 -50.5q8 -16 21.5 -23t26.5 -1q20 9 23 23t-3 29q-4 13 9 18l14 6q28 11 34 -15q8 -39 -4 -70t-49 -44
q-34 -15 -70.5 -1.5t-55.5 58.5z" />
    <glyph glyph-name="Ograve" unicode="&#xd2;" 
d="M497 481v-268q0 -88 -68 -151t-158 -63q-89 0 -155 63t-66 151v268q0 88 66 151t155 63q90 0 158 -63t68 -151zM428 213v268q0 61 -47.5 104.5t-109.5 43.5t-107 -43.5t-45 -104.5v-268q0 -61 45 -104.5t107 -43.5t109.5 43.5t47.5 104.5zM361 820q10 -10 10.5 -24
t-9.5 -24t-25 -10.5t-25 9.5l-126 127q-10 10 -10 24t10 25q10 10 24.5 10t24.5 -10z" />
    <glyph glyph-name="Oacute" unicode="&#xd3;" 
d="M497 481v-268q0 -88 -68 -151t-158 -63q-89 0 -155 63t-66 151v268q0 88 66 151t155 63q90 0 158 -63t68 -151zM428 213v268q0 61 -47.5 104.5t-109.5 43.5t-107 -43.5t-45 -104.5v-268q0 -61 45 -104.5t107 -43.5t109.5 43.5t47.5 104.5zM235 771q-10 -10 -24.5 -9.5
t-24.5 10.5t-10 24t10 24l126 127q11 10 25 10t25 -10q10 -10 9.5 -24.5t-10.5 -24.5z" />
    <glyph glyph-name="Ocircumflex" unicode="&#xd4;" 
d="M497 481v-268q0 -88 -68 -151t-158 -63q-89 0 -155 63t-66 151v268q0 88 66 151t155 63q90 0 158 -63t68 -151zM428 213v268q0 61 -47.5 104.5t-109.5 43.5t-107 -43.5t-45 -104.5v-268q0 -61 45 -104.5t107 -43.5t109.5 43.5t47.5 104.5zM171 811q-10 -10 -24.5 -9.5
t-24.5 10.5t-10 24t10 24l123 123q11 11 28 11t28 -11l123 -123q10 -10 10.5 -24t-9.5 -24t-25 -10.5t-25 9.5l-74 74q-11 11 -28 11t-28 -11z" />
    <glyph glyph-name="Otilde" unicode="&#xd5;" 
d="M497 481v-268q0 -88 -68 -151t-158 -63q-89 0 -155 63t-66 151v268q0 88 66 151t155 63q90 0 158 -63t68 -151zM428 213v268q0 61 -47.5 104.5t-109.5 43.5t-107 -43.5t-45 -104.5v-268q0 -61 45 -104.5t107 -43.5t109.5 43.5t47.5 104.5zM247 859q-5 14 -20 21t-30 0
q-28 -12 -19 -53q4 -11 -8 -17l-13 -4q-28 -11 -35 16q-7 34 7.5 65t47.5 43q35 13 71 -0.5t53 -50.5q8 -16 21.5 -23t26.5 -1q20 9 23 23t-3 29q-4 13 9 18l14 6q28 11 34 -15q8 -39 -4 -70t-49 -44q-34 -15 -70.5 -1.5t-55.5 58.5z" />
    <glyph glyph-name="Odieresis" unicode="&#xd6;" 
d="M497 481v-268q0 -88 -68 -151t-158 -63q-89 0 -155 63t-66 151v268q0 88 66 151t155 63q90 0 158 -63t68 -151zM428 213v268q0 61 -47.5 104.5t-109.5 43.5t-107 -43.5t-45 -104.5v-268q0 -61 45 -104.5t107 -43.5t109.5 43.5t47.5 104.5zM388 907q22 0 37 -15t15 -37
q0 -21 -15 -36t-37 -15q-21 0 -36 15t-15 36q0 22 15 37t36 15zM159 907q22 0 37 -15t15 -37q0 -21 -15 -36t-37 -15q-21 0 -36 15t-15 36q0 22 15 37t36 15z" />
    <glyph glyph-name="multiply" unicode="&#xd7;" 
d="M301 268q-11 11 -28 11t-28 -11l-60 -60q-10 -10 -24 -10t-23 10q-10 9 -10 23t10 24l60 60q11 11 11 28t-11 28l-60 61q-10 9 -10 23t10 24q9 9 23 9t24 -9l60 -61q11 -11 28 -11t28 11l61 61q9 9 23 9t24 -9q9 -10 9 -24t-9 -23l-61 -61q-11 -11 -11 -28t11 -28l61 -60
q9 -10 9 -24t-9 -23q-10 -10 -24 -10t-23 10z" />
    <glyph glyph-name="Oslash" unicode="&#xd8;" 
d="M190 14q-17 6 -22 -8l-34 -81q-4 -10 -15 -17.5t-22 -7.5h-10q-14 0 -21 10.5t-2 23.5l42 102q4 8 1.5 22t-7.5 21q-50 60 -50 134v268q0 88 66 151t155 63q44 0 84 -17q6 -2 13 0.5t9 7.5l36 84q4 10 15 17.5t22 7.5h10q14 0 21 -10.5t2 -23.5l-43 -104q-4 -8 -1.5 -22
t7.5 -21q51 -61 51 -133v-268q0 -88 -68 -151t-158 -63q-42 0 -81 15zM428 213v268q0 39 -20 71q-7 11 -14 -2l-189 -457q-5 -11 5 -16q29 -12 61 -12q62 0 109.5 43.5t47.5 104.5zM271 629q-62 0 -107 -43.5t-45 -104.5v-268q0 -39 19 -72q2 -4 6 -3.5t6 5.5l191 455
q5 13 -7 18q-32 13 -63 13z" />
    <glyph glyph-name="Ugrave" unicode="&#xd9;" 
d="M428 661q0 14 10 24t25 10q14 0 24 -10t10 -24v-447q0 -88 -68 -151t-158 -63q-89 0 -155 63t-66 151v447q0 14 10 24t25 10q14 0 24 -10t10 -24v-447q0 -61 45 -104.5t107 -43.5t109.5 43.5t47.5 104.5v447zM361 820q10 -10 10.5 -24t-9.5 -24t-25 -10.5t-25 9.5
l-126 127q-10 10 -10 24t10 25q10 10 24.5 10t24.5 -10z" />
    <glyph glyph-name="Uacute" unicode="&#xda;" 
d="M428 661q0 14 10 24t25 10q14 0 24 -10t10 -24v-447q0 -88 -68 -151t-158 -63q-89 0 -155 63t-66 151v447q0 14 10 24t25 10q14 0 24 -10t10 -24v-447q0 -61 45 -104.5t107 -43.5t109.5 43.5t47.5 104.5v447zM235 771q-10 -10 -24.5 -9.5t-24.5 10.5t-10 24t10 24
l126 127q11 10 25 10t25 -10q10 -10 9.5 -24.5t-10.5 -24.5z" />
    <glyph glyph-name="Ucircumflex" unicode="&#xdb;" 
d="M428 661q0 14 10 24t25 10q14 0 24 -10t10 -24v-447q0 -88 -68 -151t-158 -63q-89 0 -155 63t-66 151v447q0 14 10 24t25 10q14 0 24 -10t10 -24v-447q0 -61 45 -104.5t107 -43.5t109.5 43.5t47.5 104.5v447zM171 811q-10 -10 -24.5 -9.5t-24.5 10.5t-10 24t10 24
l123 123q11 11 28 11t28 -11l123 -123q10 -10 10.5 -24t-9.5 -24t-25 -10.5t-25 9.5l-74 74q-11 11 -28 11t-28 -11z" />
    <glyph glyph-name="Udieresis" unicode="&#xdc;" 
d="M428 661q0 14 10 24t25 10q14 0 24 -10t10 -24v-447q0 -88 -68 -151t-158 -63q-89 0 -155 63t-66 151v447q0 14 10 24t25 10q14 0 24 -10t10 -24v-447q0 -61 45 -104.5t107 -43.5t109.5 43.5t47.5 104.5v447zM388 907q22 0 37 -15t15 -37q0 -21 -15 -36t-37 -15
q-21 0 -36 15t-15 36q0 22 15 37t36 15zM159 907q22 0 37 -15t15 -37q0 -21 -15 -36t-37 -15q-21 0 -36 15t-15 36q0 22 15 37t36 15z" />
    <glyph glyph-name="Yacute" unicode="&#xdd;" 
d="M463 695q12 0 17.5 -9.5t-0.5 -20.5l-169 -309q-5 -10 -5 -19v-304q0 -13 -10 -23t-23 -10t-23 10t-10 23v305q0 9 -5 19l-168 308q-6 11 -0.5 20.5t18.5 9.5h11q8 0 19 -6.5t15 -13.5l108 -192q13 -22 35 -22t35 22l109 192q4 7 15 13.5t19 6.5h12zM235 771
q-10 -10 -24.5 -9.5t-24.5 10.5t-10 24t10 24l126 127q11 10 25 10t25 -10q10 -10 9.5 -24.5t-10.5 -24.5z" />
    <glyph glyph-name="germandbls" unicode="&#xdf;" 
d="M274 0q-15 0 -25 10t-10 25q0 14 10 24t25 10h76q30 0 51 12.5t27 30.5t2.5 37t-21 33t-44.5 16q-58 5 -95.5 41t-38.5 91q2 63 52 104q5 4 11.5 16.5t6.5 18.5v66q0 37 -26.5 64t-64.5 27t-64.5 -26.5t-26.5 -64.5v-500q0 -15 -10 -25t-24 -10q-15 0 -25 10t-10 25v500
q0 66 46.5 113t113.5 47q66 0 113 -47t47 -113v-120q0 -6 -6.5 -13t-12.5 -9q-23 -6 -38 -23t-15 -41q0 -25 19.5 -43t48.5 -21q62 -7 95.5 -43.5t35.5 -90.5q-1 -59 -45 -95t-102 -36h-76z" />
    <glyph glyph-name="agrave" unicode="&#xe0;" 
d="M428 259v-120q0 -23 14 -42t36 -26q5 -2 12 -9.5t7 -12.5v-22q0 -30 -28 -24q-50 11 -82 52q-5 6 -16 7.5t-17 -3.5q-71 -59 -162 -59q-67 0 -104.5 32t-37.5 90q0 19 5.5 37t19.5 40t45 39t76 25q51 9 135 2q14 -2 21.5 5t3.5 20q-11 38 -44 63t-74 25q-61 0 -97 -48
q-5 -6 -15.5 -10t-16.5 0l-10 5q-34 15 -15 41q56 81 154 81q78 0 134 -55t56 -133zM350 141q10 10 10 25v12q0 10 -7.5 18t-18.5 10q-83 6 -121 -1q-33 -6 -54.5 -17t-29 -25t-9 -21t-1.5 -17t1.5 -16.5t7.5 -18t23.5 -17.5t45.5 -6q90 0 153 74zM283 572q10 -10 10.5 -24
t-9.5 -24t-25 -10.5t-25 9.5l-126 127q-10 10 -10 24t10 25q10 10 24 10t25 -10z" />
    <glyph glyph-name="aacute" unicode="&#xe1;" 
d="M428 259v-120q0 -23 14 -42t36 -26q5 -2 12 -9.5t7 -12.5v-22q0 -30 -28 -24q-50 11 -82 52q-5 6 -16 7.5t-17 -3.5q-71 -59 -162 -59q-67 0 -104.5 32t-37.5 90q0 19 5.5 37t19.5 40t45 39t76 25q51 9 135 2q14 -2 21.5 5t3.5 20q-11 38 -44 63t-74 25q-61 0 -97 -48
q-5 -6 -15.5 -10t-16.5 0l-10 5q-34 15 -15 41q56 81 154 81q78 0 134 -55t56 -133zM350 141q10 10 10 25v12q0 10 -7.5 18t-18.5 10q-83 6 -121 -1q-33 -6 -54.5 -17t-29 -25t-9 -21t-1.5 -17t1.5 -16.5t7.5 -18t23.5 -17.5t45.5 -6q90 0 153 74zM235 523
q-10 -10 -24.5 -9.5t-24.5 10.5t-10 24t10 24l126 127q10 10 24.5 10t25.5 -10q10 -10 9.5 -24.5t-10.5 -24.5z" />
    <glyph glyph-name="acircumflex" unicode="&#xe2;" 
d="M428 259v-120q0 -23 14 -42t36 -26q5 -2 12 -9.5t7 -12.5v-22q0 -30 -28 -24q-50 11 -82 52q-5 6 -16 7.5t-17 -3.5q-71 -59 -162 -59q-67 0 -104.5 32t-37.5 90q0 19 5.5 37t19.5 40t45 39t76 25q51 9 135 2q14 -2 21.5 5t3.5 20q-11 38 -44 63t-74 25q-61 0 -97 -48
q-5 -6 -15.5 -10t-16.5 0l-10 5q-34 15 -15 41q56 81 154 81q78 0 134 -55t56 -133zM350 141q10 10 10 25v12q0 10 -7.5 18t-18.5 10q-83 6 -121 -1q-33 -6 -54.5 -17t-29 -25t-9 -21t-1.5 -17t1.5 -16.5t7.5 -18t23.5 -17.5t45.5 -6q90 0 153 74zM171 563
q-10 -10 -24.5 -9.5t-24.5 10.5t-10 24t10 24l123 123q11 11 28 11t28 -11l123 -123q10 -10 10.5 -24t-9.5 -24t-25 -10.5t-25 9.5l-74 74q-11 11 -28 11t-28 -11z" />
    <glyph glyph-name="atilde" unicode="&#xe3;" 
d="M428 259v-120q0 -23 14 -42t36 -26q5 -2 12 -9.5t7 -12.5v-22q0 -30 -28 -24q-50 11 -82 52q-5 6 -16 7.5t-17 -3.5q-71 -59 -162 -59q-67 0 -104.5 32t-37.5 90q0 19 5.5 37t19.5 40t45 39t76 25q51 9 135 2q14 -2 21.5 5t3.5 20q-11 38 -44 63t-74 25q-61 0 -97 -48
q-5 -6 -15.5 -10t-16.5 0l-10 5q-34 15 -15 41q56 81 154 81q78 0 134 -55t56 -133zM350 141q10 10 10 25v12q0 10 -7.5 18t-18.5 10q-83 6 -121 -1q-33 -6 -54.5 -17t-29 -25t-9 -21t-1.5 -17t1.5 -16.5t7.5 -18t23.5 -17.5t45.5 -6q90 0 153 74zM247 611q-5 14 -20 21
t-30 0q-28 -12 -19 -53q4 -11 -8 -17l-13 -4q-28 -11 -35 16q-7 34 7.5 65t47.5 43q35 13 71 -0.5t53 -50.5q8 -16 21.5 -23t26.5 -1q20 9 23 23t-3 29q-4 13 9 18l14 6q28 11 34 -15q8 -39 -4 -70t-49 -44q-34 -15 -70.5 -1.5t-55.5 58.5z" />
    <glyph glyph-name="adieresis" unicode="&#xe4;" 
d="M428 259v-120q0 -23 14 -42t36 -26q5 -2 12 -9.5t7 -12.5v-22q0 -30 -28 -24q-50 11 -82 52q-5 6 -16 7.5t-17 -3.5q-71 -59 -162 -59q-67 0 -104.5 32t-37.5 90q0 19 5.5 37t19.5 40t45 39t76 25q51 9 135 2q14 -2 21.5 5t3.5 20q-11 38 -44 63t-74 25q-61 0 -97 -48
q-5 -6 -15.5 -10t-16.5 0l-10 5q-34 15 -15 41q56 81 154 81q78 0 134 -55t56 -133zM350 141q10 10 10 25v12q0 10 -7.5 18t-18.5 10q-83 6 -121 -1q-33 -6 -54.5 -17t-29 -25t-9 -21t-1.5 -17t1.5 -16.5t7.5 -18t23.5 -17.5t45.5 -6q90 0 153 74zM388 659q22 0 37 -15
t15 -37q0 -21 -15 -36t-37 -15q-21 0 -36 15t-15 36q0 22 15 37t36 15zM159 659q22 0 37 -15t15 -37q0 -21 -15 -36t-37 -15q-21 0 -36 15t-15 36q0 22 15 37t36 15z" />
    <glyph glyph-name="aring" unicode="&#xe5;" 
d="M428 259v-120q0 -23 14 -42t36 -26q5 -2 12 -9.5t7 -12.5v-22q0 -30 -28 -24q-50 11 -82 52q-5 6 -16 7.5t-17 -3.5q-71 -59 -162 -59q-67 0 -104.5 32t-37.5 90q0 19 5.5 37t19.5 40t45 39t76 25q51 9 135 2q14 -2 21.5 5t3.5 20q-11 38 -44 63t-74 25q-61 0 -97 -48
q-5 -6 -15.5 -10t-16.5 0l-10 5q-34 15 -15 41q56 81 154 81q78 0 134 -55t56 -133zM350 141q10 10 10 25v12q0 10 -7.5 18t-18.5 10q-83 6 -121 -1q-33 -6 -54.5 -17t-29 -25t-9 -21t-1.5 -17t1.5 -16.5t7.5 -18t23.5 -17.5t45.5 -6q90 0 153 74zM273 758q54 0 92 -38
t38 -92q0 -53 -38 -91t-92 -38q-53 0 -91 38t-38 91q0 54 38 92t91 38zM273 567q26 0 44 18t18 43q0 26 -18.5 44t-43.5 18t-43 -18t-18 -44t18 -43.5t43 -17.5z" />
    <glyph glyph-name="ae" unicode="&#xe6;" 
d="M440 118q4 8 12.5 11t16.5 -1l4 -2q26 -15 14 -38q-39 -88 -110 -88q-63 0 -90 41q-4 7 -15 7t-16 -6q-37 -49 -113 -42q-41 3 -67 34.5t-26 87.5q0 109 86 135q29 10 89 3q14 -2 14 12q-2 46 -19 76t-47 30q-41 0 -57 -40q-3 -7 -11.5 -11t-15.5 -1l-9 3q-32 10 -21 36
q30 70 93 81t107 -46q5 -6 13.5 -4.5t13.5 8.5q28 43 88 43q57 0 90 -56t33 -168q0 -10 -2 -30q0 -4 -6 -4h-146q-17 0 -26 -9.5t-6 -25.5q6 -38 25.5 -61.5t45.5 -23.5q38 0 58 49zM310 292q-2 -15 7 -24.5t25 -9.5h53q15 0 23.5 9t7.5 25q-9 86 -52 86q-25 0 -42 -23.5
t-22 -62.5zM119 125q0 -40 30 -52.5t60 7t30 56.5v43q0 9 -11 11q-109 7 -109 -65z" />
    <glyph glyph-name="ccedilla" unicode="&#xe7;" 
d="M415 136q5 9 19.5 15t23.5 2l7 -3q15 -6 19.5 -18.5t-4.5 -26.5q-43 -63 -117 -91q-6 -2 -8.5 -10.5t0.5 -14.5q24 -48 4 -104q-20 -46 -62.5 -67t-91.5 -13q-35 5 -21 40q4 10 18.5 18.5t25.5 7.5q40 -3 59.5 26t6 63.5t-54.5 43.5q-82 14 -135.5 76t-53.5 143
q0 93 68 158.5t164 65.5q62 0 115.5 -29.5t84.5 -78.5q18 -28 -18 -42l-6 -3q-9 -4 -23.5 2t-19.5 15q-49 67 -133 67q-67 0 -113.5 -45t-46.5 -110q0 -64 46.5 -109t113.5 -45q84 0 133 67z" />
    <glyph glyph-name="egrave" unicode="&#xe8;" 
d="M391 123q6 7 18.5 10.5t20.5 -0.5l7 -4q32 -19 10 -46q-68 -83 -174 -83q-92 0 -157.5 65.5t-65.5 157.5q0 93 65.5 158.5t157.5 65.5q93 0 158.5 -65.5t65.5 -158.5q0 -10 -2 -30q-1 -4 -7 -4h-330q-17 0 -23.5 -9.5t0.5 -24.5q19 -39 56.5 -62.5t81.5 -23.5
q72 0 118 54zM135 292q-7 -15 -0.5 -24.5t23.5 -9.5h231q17 0 23.5 9.5t-0.5 24.5q-19 39 -56.5 62.5t-82.5 23.5q-44 0 -81.5 -23.5t-56.5 -62.5zM283 572q10 -10 10.5 -24t-9.5 -24t-25 -10.5t-25 9.5l-126 127q-10 10 -10 24t10 25q10 10 24 10t25 -10z" />
    <glyph glyph-name="eacute" unicode="&#xe9;" 
d="M391 123q6 7 18.5 10.5t20.5 -0.5l7 -4q32 -19 10 -46q-68 -83 -174 -83q-92 0 -157.5 65.5t-65.5 157.5q0 93 65.5 158.5t157.5 65.5t157 -66.5t67 -153.5q0 -17 -10 -27.5t-27 -10.5h-302q-17 0 -23.5 -9.5t0.5 -24.5q19 -39 56.5 -62.5t81.5 -23.5q72 0 118 54z
M135 292q-7 -15 -0.5 -24.5t23.5 -9.5h231q17 0 23.5 9.5t-0.5 24.5q-19 39 -56.5 62.5t-82.5 23.5q-44 0 -81.5 -23.5t-56.5 -62.5zM235 523q-10 -10 -24.5 -9.5t-24.5 10.5t-10 24t10 24l126 127q10 10 24.5 10t25.5 -10q10 -10 9.5 -24.5t-10.5 -24.5z" />
    <glyph glyph-name="ecircumflex" unicode="&#xea;" 
d="M391 123q6 7 18.5 10.5t20.5 -0.5l7 -4q32 -19 10 -46q-68 -83 -174 -83q-92 0 -157.5 65.5t-65.5 157.5q0 93 65.5 158.5t157.5 65.5q93 0 158.5 -65.5t65.5 -158.5q0 -10 -2 -30q-1 -4 -7 -4h-330q-17 0 -23.5 -9.5t0.5 -24.5q19 -39 56.5 -62.5t81.5 -23.5
q72 0 118 54zM135 292q-7 -15 -0.5 -24.5t23.5 -9.5h231q17 0 23.5 9.5t-0.5 24.5q-19 39 -56.5 62.5t-82.5 23.5q-44 0 -81.5 -23.5t-56.5 -62.5zM171 563q-10 -10 -24.5 -9.5t-24.5 10.5t-10 24t10 24l123 123q11 11 28 11t28 -11l123 -123q10 -10 10.5 -24t-9.5 -24
t-25 -10.5t-25 9.5l-74 74q-11 11 -28 11t-28 -11z" />
    <glyph glyph-name="edieresis" unicode="&#xeb;" 
d="M391 123q6 7 18.5 10.5t20.5 -0.5l7 -4q32 -19 10 -46q-68 -83 -174 -83q-92 0 -157.5 65.5t-65.5 157.5q0 93 65.5 158.5t157.5 65.5t157 -66.5t67 -153.5q0 -17 -10 -27.5t-27 -10.5h-302q-17 0 -23.5 -9.5t0.5 -24.5q19 -39 56.5 -62.5t81.5 -23.5q72 0 118 54z
M135 292q-7 -15 -0.5 -24.5t23.5 -9.5h231q17 0 23.5 9.5t-0.5 24.5q-19 39 -56.5 62.5t-82.5 23.5q-44 0 -81.5 -23.5t-56.5 -62.5zM388 659q22 0 37 -15t15 -37q0 -21 -15 -36t-37 -15q-21 0 -36 15t-15 36q0 22 15 37t36 15zM159 659q22 0 37 -15t15 -37q0 -21 -15 -36
t-37 -15q-21 0 -36 15t-15 36q0 22 15 37t36 15z" />
    <glyph glyph-name="igrave" unicode="&#xec;" 
d="M268 447q16 0 28 -11.5t12 -28.5v-298q0 -17 12 -28.5t28 -11.5h115q14 0 24 -10t10 -24q0 -15 -10 -25t-24 -10h-378q-15 0 -25 10t-10 25q0 14 10 24t25 10h114q17 0 28.5 11.5t11.5 28.5v229q0 16 -11.5 28t-28.5 12h-66q-15 0 -25 10t-10 25q0 14 10 24t25 10h135z
M361 572q10 -10 10.5 -24t-9.5 -24t-25 -10.5t-25 9.5l-126 127q-10 10 -10 24t10 25q10 10 24.5 10t24.5 -10z" />
    <glyph glyph-name="iacute" unicode="&#xed;" 
d="M268 447q16 0 28 -11.5t12 -28.5v-298q0 -17 12 -28.5t28 -11.5h115q14 0 24 -10t10 -24q0 -15 -10 -25t-24 -10h-378q-15 0 -25 10t-10 25q0 14 10 24t25 10h114q17 0 28.5 11.5t11.5 28.5v229q0 16 -11.5 28t-28.5 12h-66q-15 0 -25 10t-10 25q0 14 10 24t25 10h135z
M235 523q-10 -10 -24.5 -9.5t-24.5 10.5t-10 24t10 24l126 127q10 10 24.5 10t25.5 -10q10 -10 9.5 -24.5t-10.5 -24.5z" />
    <glyph glyph-name="icircumflex" unicode="&#xee;" 
d="M268 447q16 0 28 -11.5t12 -28.5v-298q0 -17 12 -28.5t28 -11.5h115q14 0 24 -10t10 -24q0 -15 -10 -25t-24 -10h-378q-15 0 -25 10t-10 25q0 14 10 24t25 10h114q17 0 28.5 11.5t11.5 28.5v229q0 16 -11.5 28t-28.5 12h-66q-15 0 -25 10t-10 25q0 14 10 24t25 10h135z
M171 563q-10 -10 -24.5 -9.5t-24.5 10.5t-10 24t10 24l123 123q11 11 28 11t28 -11l123 -123q10 -10 10.5 -24t-9.5 -24t-25 -10.5t-25 9.5l-74 74q-11 11 -28 11t-28 -11z" />
    <glyph glyph-name="idieresis" unicode="&#xef;" 
d="M268 447q16 0 28 -11.5t12 -28.5v-298q0 -17 12 -28.5t28 -11.5h115q14 0 24 -10t10 -24q0 -15 -10 -25t-24 -10h-378q-15 0 -25 10t-10 25q0 14 10 24t25 10h114q17 0 28.5 11.5t11.5 28.5v229q0 16 -11.5 28t-28.5 12h-66q-15 0 -25 10t-10 25q0 14 10 24t25 10h135z
M388 659q22 0 37 -15t15 -37q0 -21 -15 -36t-37 -15q-21 0 -36 15t-15 36q0 22 15 37t36 15zM159 659q22 0 37 -15t15 -37q0 -21 -15 -36t-37 -15q-21 0 -36 15t-15 36q0 22 15 37t36 15z" />
    <glyph glyph-name="ntilde" unicode="&#xf1;" 
d="M273 447q93 0 158.5 -65.5t65.5 -158.5v-188q0 -15 -10 -25t-24 -10q-15 0 -25 10t-10 25v188q0 65 -45 110t-110 45q-64 0 -109 -45t-45 -109v-189q0 -15 -10 -25t-24 -10q-15 0 -25 10t-10 25v378q0 14 10 24t25 10h3q13 0 22 -9t9 -22v-3q0 -8 8 -11t14 2
q59 43 132 43zM247 611q-5 14 -20 21t-30 0q-28 -12 -19 -53q4 -11 -8 -17l-13 -4q-28 -11 -35 16q-7 34 7.5 65t47.5 43q35 13 71 -0.5t53 -50.5q8 -16 21.5 -23t26.5 -1q20 9 23 23t-3 29q-4 13 9 18l14 6q28 11 34 -15q8 -39 -4 -70t-49 -44q-34 -15 -70.5 -1.5
t-55.5 58.5z" />
    <glyph glyph-name="ograve" unicode="&#xf2;" 
d="M273 447q93 0 158.5 -65.5t65.5 -158.5q0 -92 -65.5 -157.5t-158.5 -65.5q-92 0 -157.5 65.5t-65.5 157.5q0 93 65.5 158.5t157.5 65.5zM273 69q64 0 109.5 45t45.5 109q0 65 -45 110t-110 45q-64 0 -109 -45.5t-45 -109.5t45 -109t109 -45zM361 572q10 -10 10.5 -24
t-9.5 -24t-25 -10.5t-25 9.5l-126 127q-10 10 -10 24t10 25q10 10 24.5 10t24.5 -10z" />
    <glyph glyph-name="oacute" unicode="&#xf3;" 
d="M273 447q93 0 158.5 -65.5t65.5 -158.5q0 -92 -65.5 -157.5t-158.5 -65.5q-92 0 -157.5 65.5t-65.5 157.5q0 93 65.5 158.5t157.5 65.5zM273 69q64 0 109.5 45t45.5 109q0 65 -45 110t-110 45q-64 0 -109 -45.5t-45 -109.5t45 -109t109 -45zM235 523q-10 -10 -24.5 -9.5
t-24.5 10.5t-10 24t10 24l126 127q10 10 24.5 10t25.5 -10q10 -10 9.5 -24.5t-10.5 -24.5z" />
    <glyph glyph-name="ocircumflex" unicode="&#xf4;" 
d="M273 447q93 0 158.5 -65.5t65.5 -158.5q0 -92 -65.5 -157.5t-158.5 -65.5q-92 0 -157.5 65.5t-65.5 157.5q0 93 65.5 158.5t157.5 65.5zM273 69q64 0 109.5 45t45.5 109q0 65 -45 110t-110 45q-64 0 -109 -45.5t-45 -109.5t45 -109t109 -45zM171 563q-10 -10 -24.5 -9.5
t-24.5 10.5t-10 24t10 24l123 123q11 11 28 11t28 -11l123 -123q10 -10 10.5 -24t-9.5 -24t-25 -10.5t-25 9.5l-74 74q-11 11 -28 11t-28 -11z" />
    <glyph glyph-name="otilde" unicode="&#xf5;" 
d="M273 447q93 0 158.5 -65.5t65.5 -158.5q0 -92 -65.5 -157.5t-158.5 -65.5q-92 0 -157.5 65.5t-65.5 157.5q0 93 65.5 158.5t157.5 65.5zM273 69q64 0 109.5 45t45.5 109q0 65 -45 110t-110 45q-64 0 -109 -45.5t-45 -109.5t45 -109t109 -45zM246 611q-5 14 -20 21t-30 0
q-28 -12 -19 -53q4 -11 -8 -17l-13 -4q-28 -11 -35 16q-7 34 7.5 65t47.5 43q35 13 71 -0.5t53 -50.5q8 -16 21.5 -23t26.5 -1q20 9 23 23t-3 29q-4 13 9 18l14 6q28 11 34 -15q8 -39 -4 -70t-49 -44q-34 -15 -70.5 -1.5t-55.5 58.5z" />
    <glyph glyph-name="odieresis" unicode="&#xf6;" 
d="M273 447q93 0 158.5 -65.5t65.5 -158.5q0 -92 -65.5 -157.5t-158.5 -65.5q-92 0 -157.5 65.5t-65.5 157.5q0 93 65.5 158.5t157.5 65.5zM273 69q64 0 109.5 45t45.5 109q0 65 -45 110t-110 45q-64 0 -109 -45.5t-45 -109.5t45 -109t109 -45zM388 659q22 0 37 -15t15 -37
q0 -21 -15 -36t-37 -15q-21 0 -36 15t-15 36q0 22 15 37t36 15zM159 659q22 0 37 -15t15 -37q0 -21 -15 -36t-37 -15q-21 0 -36 15t-15 36q0 22 15 37t36 15z" />
    <glyph glyph-name="divide" unicode="&#xf7;" 
d="M325 191q0 -22 -15 -37t-37 -15q-21 0 -36 15t-15 37q0 21 15 36t36 15q22 0 37 -15t15 -36zM325 495q0 -22 -15 -37t-37 -15q-21 0 -36 15t-15 37q0 21 15 36t36 15q22 0 37 -15t15 -36zM152 315q-14 0 -23.5 9.5t-9.5 23.5q0 13 10 22.5t23 9.5h244q13 0 22.5 -9.5
t9.5 -22.5t-9.5 -23t-22.5 -10h-244z" />
    <glyph glyph-name="oslash" unicode="&#xf8;" 
d="M199 12q-14 6 -22 -6l-41 -64q-5 -6 -16 -12t-18 -6h-15q-13 0 -18.5 10t1.5 21l44 68q6 9 3.5 25t-10.5 25q-57 65 -57 150q0 93 65.5 158.5t157.5 65.5q44 0 84 -17q18 -6 26 7l28 44q5 6 16 12t18 6h15q13 0 18.5 -10.5t-1.5 -20.5l-36 -55q-5 -8 -3 -24t9 -24
q50 -63 50 -142q0 -92 -65.5 -157.5t-158.5 -65.5q-39 0 -74 12zM273 378q-64 0 -109 -45.5t-45 -109.5q0 -55 36 -98q14 -17 26 2l149 229q7 9 -4 13q-26 9 -53 9zM273 69q64 0 109.5 45t45.5 109q0 50 -29 90q-12 17 -23 0l-148 -229q-5 -6 4 -10q22 -5 41 -5z" />
    <glyph glyph-name="ugrave" unicode="&#xf9;" 
d="M274 0q-93 0 -158.5 65.5t-65.5 158.5v189q0 14 10 24t25 10q14 0 24 -10t10 -24v-189q0 -64 45.5 -109.5t109.5 -45.5t109 45t45 109v190q0 14 10 24t25 10q14 0 24 -10t10 -24v-378q0 -15 -10 -25t-24 -10h-4q-13 0 -22 9t-9 22v3q0 8 -8 11t-14 -2q-59 -43 -132 -43z
M361 572q10 -10 10.5 -24t-9.5 -24t-25 -10.5t-25 9.5l-126 127q-10 10 -10 24t10 25q10 10 24.5 10t24.5 -10z" />
    <glyph glyph-name="uacute" unicode="&#xfa;" 
d="M274 0q-93 0 -158.5 65.5t-65.5 158.5v189q0 14 10 24t25 10q14 0 24 -10t10 -24v-189q0 -64 45.5 -109.5t109.5 -45.5t109 45t45 109v190q0 14 10 24t25 10q14 0 24 -10t10 -24v-378q0 -15 -10 -25t-24 -10h-4q-13 0 -22 9t-9 22v3q0 8 -8 11t-14 -2q-59 -43 -132 -43z
M235 523q-10 -10 -24.5 -9.5t-24.5 10.5t-10 24t10 24l126 127q10 10 24.5 10t25.5 -10q10 -10 9.5 -24.5t-10.5 -24.5z" />
    <glyph glyph-name="ucircumflex" unicode="&#xfb;" 
d="M274 0q-93 0 -158.5 65.5t-65.5 158.5v189q0 14 10 24t25 10q14 0 24 -10t10 -24v-189q0 -64 45.5 -109.5t109.5 -45.5t109 45t45 109v190q0 14 10 24t25 10q14 0 24 -10t10 -24v-378q0 -15 -10 -25t-24 -10h-4q-13 0 -22 9t-9 22v3q0 8 -8 11t-14 -2q-59 -43 -132 -43z
M171 563q-10 -10 -24.5 -9.5t-24.5 10.5t-10 24t10 24l123 123q11 11 28 11t28 -11l123 -123q10 -10 10.5 -24t-9.5 -24t-25 -10.5t-25 9.5l-74 74q-11 11 -28 11t-28 -11z" />
    <glyph glyph-name="udieresis" unicode="&#xfc;" 
d="M274 0q-93 0 -158.5 65.5t-65.5 158.5v189q0 14 10 24t25 10q14 0 24 -10t10 -24v-189q0 -64 45.5 -109.5t109.5 -45.5t109 45t45 109v190q0 14 10 24t25 10q14 0 24 -10t10 -24v-378q0 -15 -10 -25t-24 -10h-4q-13 0 -22 9t-9 22v3q0 8 -8 11t-14 -2q-59 -43 -132 -43z
M388 659q22 0 37 -15t15 -37q0 -21 -15 -36t-37 -15q-21 0 -36 15t-15 36q0 22 15 37t36 15zM159 659q22 0 37 -15t15 -37q0 -21 -15 -36t-37 -15q-21 0 -36 15t-15 36q0 22 15 37t36 15z" />
    <glyph glyph-name="yacute" unicode="&#xfd;" 
d="M236 179q11 -26 37 -26t37 26l103 244q4 9 15.5 16.5t21.5 7.5h10q14 0 21 -10.5t2 -23.5l-270 -637q-4 -9 -15.5 -16.5t-21.5 -7.5h-9q-14 0 -21 10.5t-2 23.5l86 202q2 5 2 16t-2 16l-166 393q-5 13 2 23.5t21 10.5h10q11 0 22 -7.5t15 -17.5zM235 523
q-10 -10 -24.5 -9.5t-24.5 10.5t-10 24t10 24l126 127q10 10 24.5 10t25.5 -10q10 -10 9.5 -24.5t-10.5 -24.5z" />
    <glyph glyph-name="ydieresis" unicode="&#xff;" 
d="M236 179q11 -26 37 -26t37 26l103 244q4 9 15.5 16.5t21.5 7.5h10q14 0 21 -10.5t2 -23.5l-270 -637q-4 -9 -15.5 -16.5t-21.5 -7.5h-9q-14 0 -21 10.5t-2 23.5l86 202q2 5 2 16t-2 16l-166 393q-5 13 2 23.5t21 10.5h10q11 0 22 -7.5t15 -17.5zM159 659q22 0 37 -15
t15 -37q0 -21 -15 -36t-37 -15q-21 0 -36 15t-15 36q0 22 15 37t36 15zM388 659q22 0 37 -15t15 -37q0 -21 -15 -36t-37 -15q-21 0 -36 15t-15 36q0 22 15 37t36 15z" />
    <glyph glyph-name="Amacron" unicode="&#x100;" 
d="M487 36q4 -14 -4 -25t-23 -11h-6q-13 0 -24.5 9t-14.5 21l-32 121q-3 12 -14.5 21t-24.5 9h-140q-13 0 -24.5 -9t-14.5 -21l-32 -121q-3 -12 -14.5 -21t-24.5 -9h-5q-15 0 -23 10.5t-4 24.5l170 629q3 12 14.5 21t24.5 9h7q13 0 24.5 -9t14.5 -21zM313 418q-8 30 -39 30
t-39 -30l-32 -121q-5 -20 6.5 -35t32.5 -15h64q21 0 32.5 15t6.5 35zM152 845q-14 0 -23.5 9.5t-9.5 23.5q0 13 10 22.5t23 9.5h244q13 0 22.5 -9.5t9.5 -22.5t-9.5 -23t-22.5 -10h-244z" />
    <glyph glyph-name="amacron" unicode="&#x101;" 
d="M428 259v-120q0 -23 14 -42t36 -26q5 -2 12 -9.5t7 -12.5v-22q0 -30 -28 -24q-50 11 -82 52q-5 6 -16 7.5t-17 -3.5q-71 -59 -162 -59q-67 0 -104.5 32t-37.5 90q0 19 5.5 37t19.5 40t45 39t76 25q51 9 135 2q14 -2 21.5 5t3.5 20q-11 38 -44 63t-74 25q-61 0 -97 -48
q-5 -6 -15.5 -10t-16.5 0l-10 5q-34 15 -15 41q56 81 154 81q78 0 134 -55t56 -133zM350 141q10 10 10 25v12q0 10 -7.5 18t-18.5 10q-83 6 -121 -1q-33 -6 -54.5 -17t-29 -25t-9 -21t-1.5 -17t1.5 -16.5t7.5 -18t23.5 -17.5t45.5 -6q90 0 153 74zM152 597q-14 0 -23.5 9.5
t-9.5 23.5q0 13 10 22.5t23 9.5h244q13 0 22.5 -9.5t9.5 -22.5t-9.5 -23t-22.5 -10h-244z" />
    <glyph glyph-name="Abreve" unicode="&#x102;" 
d="M487 36q4 -14 -4 -25t-23 -11h-6q-13 0 -24.5 9t-14.5 21l-32 121q-3 12 -14.5 21t-24.5 9h-140q-13 0 -24.5 -9t-14.5 -21l-32 -121q-3 -12 -14.5 -21t-24.5 -9h-5q-15 0 -23 10.5t-4 24.5l170 629q3 12 14.5 21t24.5 9h7q13 0 24.5 -9t14.5 -21zM313 418q-8 30 -39 30
t-39 -30l-32 -121q-5 -20 6.5 -35t32.5 -15h64q21 0 32.5 15t6.5 35zM333 909q1 5 7.5 11t11.5 6h17q38 0 30 -31q-11 -43 -46 -70.5t-80 -27.5t-79.5 28t-45.5 70q-8 31 30 31h17q5 0 11.5 -6t7.5 -11q14 -44 59 -44q21 0 37.5 12t22.5 32z" />
    <glyph glyph-name="abreve" unicode="&#x103;" 
d="M428 259v-120q0 -23 14 -42t36 -26q5 -2 12 -9.5t7 -12.5v-22q0 -30 -28 -24q-50 11 -82 52q-5 6 -16 7.5t-17 -3.5q-71 -59 -162 -59q-67 0 -104.5 32t-37.5 90q0 19 5.5 37t19.5 40t45 39t76 25q51 9 135 2q14 -2 21.5 5t3.5 20q-11 38 -44 63t-74 25q-61 0 -97 -48
q-5 -6 -15.5 -10t-16.5 0l-10 5q-34 15 -15 41q56 81 154 81q78 0 134 -55t56 -133zM350 141q10 10 10 25v12q0 10 -7.5 18t-18.5 10q-83 6 -121 -1q-33 -6 -54.5 -17t-29 -25t-9 -21t-1.5 -17t1.5 -16.5t7.5 -18t23.5 -17.5t45.5 -6q90 0 153 74zM333 661q1 5 7.5 11
t11.5 6h17q38 0 30 -31q-11 -43 -46 -70.5t-80 -27.5t-79.5 28t-45.5 70q-8 31 30 31h17q5 0 11.5 -6t7.5 -11q14 -44 59 -44q21 0 37.5 12t22.5 32z" />
    <glyph glyph-name="Aogonek" unicode="&#x104;" 
d="M493 14q3 -14 -10 -14h-6q-8 0 -14 -3q-30 -15 -38 -46t10.5 -55.5t53.5 -24.5q10 0 27.5 -9t21.5 -17q14 -35 -21 -40q-49 -8 -91.5 13t-62.5 67q-30 81 28 137q6 6 11 22t3 23l-22 84q-3 12 -14.5 21t-24.5 9h-140q-13 0 -24.5 -9t-14.5 -21l-32 -121q-3 -12 -14.5 -21
t-24.5 -9h-5q-15 0 -23 10.5t-4 24.5l170 629q3 12 14.5 21t24.5 9h7q13 0 24.5 -9t14.5 -21zM313 418q-8 30 -39 30t-39 -30l-32 -121q-5 -20 6.5 -35t32.5 -15h64q21 0 32.5 15t6.5 35z" />
    <glyph glyph-name="aogonek" unicode="&#x105;" 
d="M428 259v-120q0 -23 14 -42t36 -26q5 -2 12 -9.5t7 -12.5v-42q0 -7 -7 -7q-1 1 -7 0l-6 -1q-33 -15 -41 -47.5t12 -58t58 -22.5q11 1 25 -7.5t18 -18.5q14 -35 -21 -40q-49 -8 -91.5 13t-62.5 67q-30 83 31 139q5 6 -1 12q-15 12 -27 33q-1 3 -5 3t-6 -2
q-73 -70 -174 -70q-67 0 -104.5 32t-37.5 90q0 19 5.5 37t19.5 40t45 39t76 25q51 9 135 2q14 -2 21.5 5t3.5 20q-11 38 -44 63t-74 25q-61 0 -97 -48q-5 -6 -15.5 -10t-16.5 0l-10 5q-34 15 -15 41q56 81 154 81q78 0 134 -55t56 -133zM350 141q10 10 10 25v12
q0 10 -7.5 18t-18.5 10q-83 6 -121 -1q-33 -6 -54.5 -17t-29 -25t-9 -21t-1.5 -17t1.5 -16.5t7.5 -18t23.5 -17.5t45.5 -6q90 0 153 74z" />
    <glyph glyph-name="Cacute" unicode="&#x106;" 
d="M272 66q54 0 96.5 32t54.5 80q3 11 16 23.5t24 12.5q17 0 25.5 -9.5t5.5 -25.5q-13 -76 -76 -127.5t-146 -51.5q-92 0 -157 62.5t-65 151.5v267q0 89 65 151.5t157 62.5q83 0 146 -51.5t76 -127.5q3 -16 -5.5 -25.5t-25.5 -9.5q-11 0 -24 12.5t-16 23.5q-12 48 -54.5 80
t-96.5 32q-64 0 -108.5 -43t-44.5 -105v-267q0 -62 44.5 -105t108.5 -43zM235 771q-10 -10 -24.5 -9.5t-24.5 10.5t-10 24t10 24l126 127q11 10 25 10t25 -10q10 -10 9.5 -24.5t-10.5 -24.5z" />
    <glyph glyph-name="cacute" unicode="&#x107;" 
d="M415 136q5 9 19.5 15t23.5 2l6 -2q36 -15 18 -43q-31 -49 -84.5 -78.5t-115.5 -29.5q-96 0 -164 65.5t-68 157.5q0 93 68 158.5t164 65.5q62 0 115.5 -29.5t84.5 -78.5q18 -28 -18 -42l-6 -3q-9 -4 -23.5 2t-19.5 15q-49 67 -133 67q-67 0 -113.5 -45t-46.5 -110
q0 -64 46.5 -109t113.5 -45q84 0 133 67zM235 523q-10 -10 -24.5 -9.5t-24.5 10.5t-10 24t10 24l126 127q10 10 24.5 10t25.5 -10q10 -10 9.5 -24.5t-10.5 -24.5z" />
    <glyph glyph-name="Ccircumflex" unicode="&#x108;" 
d="M272 66q54 0 96.5 32t54.5 80q3 11 16 23.5t24 12.5q17 0 25.5 -9.5t5.5 -25.5q-13 -76 -76 -127.5t-146 -51.5q-92 0 -157 62.5t-65 151.5v267q0 89 65 151.5t157 62.5q83 0 146 -51.5t76 -127.5q3 -16 -5.5 -25.5t-25.5 -9.5q-11 0 -24 12.5t-16 23.5q-12 48 -54.5 80
t-96.5 32q-64 0 -108.5 -43t-44.5 -105v-267q0 -62 44.5 -105t108.5 -43zM171 811q-10 -10 -24.5 -9.5t-24.5 10.5t-10 24t10 24l123 123q11 11 28 11t28 -11l123 -123q10 -10 10.5 -24t-9.5 -24t-25 -10.5t-25 9.5l-74 74q-11 11 -28 11t-28 -11z" />
    <glyph glyph-name="ccircumflex" unicode="&#x109;" 
d="M415 136q5 9 19.5 15t23.5 2l6 -2q36 -15 18 -43q-31 -49 -84.5 -78.5t-115.5 -29.5q-96 0 -164 65.5t-68 157.5q0 93 68 158.5t164 65.5q62 0 115.5 -29.5t84.5 -78.5q18 -28 -18 -42l-6 -3q-9 -4 -23.5 2t-19.5 15q-49 67 -133 67q-67 0 -113.5 -45t-46.5 -110
q0 -64 46.5 -109t113.5 -45q84 0 133 67zM171 563q-10 -10 -24.5 -9.5t-24.5 10.5t-10 24t10 24l123 123q11 11 28 11t28 -11l123 -123q10 -10 10.5 -24t-9.5 -24t-25 -10.5t-25 9.5l-74 74q-11 11 -28 11t-28 -11z" />
    <glyph glyph-name="Cdotaccent" unicode="&#x10a;" 
d="M272 66q54 0 96.5 32t54.5 80q3 11 16 23.5t24 12.5q17 0 25.5 -9.5t5.5 -25.5q-13 -76 -76 -127.5t-146 -51.5q-92 0 -157 62.5t-65 151.5v267q0 89 65 151.5t157 62.5q83 0 146 -51.5t76 -127.5q3 -16 -5.5 -25.5t-25.5 -9.5q-11 0 -24 12.5t-16 23.5q-12 48 -54.5 80
t-96.5 32q-64 0 -108.5 -43t-44.5 -105v-267q0 -62 44.5 -105t108.5 -43zM273 917q22 0 37 -15t15 -37q0 -21 -15 -36t-37 -15q-21 0 -36 15t-15 36q0 22 15 37t36 15z" />
    <glyph glyph-name="cdotaccent" unicode="&#x10b;" 
d="M415 136q5 9 19.5 15t23.5 2l6 -2q36 -15 18 -43q-31 -49 -84.5 -78.5t-115.5 -29.5q-96 0 -164 65.5t-68 157.5q0 93 68 158.5t164 65.5q62 0 115.5 -29.5t84.5 -78.5q18 -28 -18 -42l-6 -3q-9 -4 -23.5 2t-19.5 15q-49 67 -133 67q-67 0 -113.5 -45t-46.5 -110
q0 -64 46.5 -109t113.5 -45q84 0 133 67zM273 669q22 0 37 -15t15 -37q0 -21 -15 -36t-37 -15q-21 0 -36 15t-15 36q0 22 15 37t36 15z" />
    <glyph glyph-name="Ccaron" unicode="&#x10c;" 
d="M272 66q54 0 96.5 32t54.5 80q3 11 16 23.5t24 12.5q17 0 25.5 -9.5t5.5 -25.5q-13 -76 -76 -127.5t-146 -51.5q-92 0 -157 62.5t-65 151.5v267q0 89 65 151.5t157 62.5q83 0 146 -51.5t76 -127.5q3 -16 -5.5 -25.5t-25.5 -9.5q-11 0 -24 12.5t-16 23.5q-12 48 -54.5 80
t-96.5 32q-64 0 -108.5 -43t-44.5 -105v-267q0 -62 44.5 -105t108.5 -43zM122 938q-10 10 -10 24t10 25q10 10 24 10t25 -10l74 -74q11 -11 28 -11t28 11l74 74q11 10 25 10t25 -10q10 -10 9.5 -24.5t-10.5 -24.5l-123 -123q-11 -11 -28 -11t-28 11z" />
    <glyph glyph-name="ccaron" unicode="&#x10d;" 
d="M415 136q5 9 19.5 15t23.5 2l6 -2q36 -15 18 -43q-31 -49 -84.5 -78.5t-115.5 -29.5q-96 0 -164 65.5t-68 157.5q0 93 68 158.5t164 65.5q62 0 115.5 -29.5t84.5 -78.5q18 -28 -18 -42l-6 -3q-9 -4 -23.5 2t-19.5 15q-49 67 -133 67q-67 0 -113.5 -45t-46.5 -110
q0 -64 46.5 -109t113.5 -45q84 0 133 67zM122 690q-10 10 -10 24t10 25q10 10 24 10t25 -10l74 -74q11 -11 28 -11t28 11l74 74q11 10 25 10t25 -10q10 -10 9.5 -24.5t-10.5 -24.5l-123 -123q-11 -11 -28 -11t-28 11z" />
    <glyph glyph-name="Dcaron" unicode="&#x10e;" 
d="M50 655q0 17 12 28.5t28 11.5h125q133 0 207.5 -92.5t74.5 -252.5q0 -161 -74.5 -255.5t-207.5 -94.5h-125q-16 0 -28 12t-12 28v615zM119 106q0 -16 11.5 -28t28.5 -12h56q101 0 157 78.5t56 203.5t-56 203t-157 78h-56q-17 0 -28.5 -11.5t-11.5 -28.5v-483zM122 938
q-10 10 -10 24t10 25q10 10 24 10t25 -10l74 -74q11 -11 28 -11t28 11l74 74q11 10 25 10t25 -10q10 -10 9.5 -24.5t-10.5 -24.5l-123 -123q-11 -11 -28 -11t-28 11z" />
    <glyph glyph-name="Dcroat" unicode="&#x110;" 
d="M13 320q-13 0 -23 10t-10 23t10 22.5t23 9.5h2q14 0 24.5 10.5t10.5 24.5v235q0 17 12 28.5t28 11.5h125q133 0 207.5 -92.5t74.5 -252.5q0 -161 -74.5 -255.5t-207.5 -94.5h-125q-16 0 -28 12t-12 28v245q0 14 -10.5 24.5t-24.5 10.5h-2zM119 106q0 -16 11.5 -28
t28.5 -12h56q101 0 157 78.5t56 203.5t-56 203t-157 78h-56q-17 0 -28.5 -11.5t-11.5 -28.5v-164q0 -17 11.5 -28.5t28.5 -11.5h68q13 0 22.5 -9.5t9.5 -22.5t-9.5 -23t-22.5 -10h-68q-17 0 -28.5 -12t-11.5 -28v-174z" />
    <glyph glyph-name="dcroat" unicode="&#x111;" 
d="M341 537q-13 0 -23 9.5t-10 23.5q0 13 10 22.5t23 9.5h47q16 0 28 12t12 28v19q0 14 10 24t25 10q14 0 24 -10t10 -24v-19q0 -16 11.5 -28t28.5 -12h48q13 0 22.5 -9.5t9.5 -22.5t-9.5 -23t-22.5 -10h-48q-17 0 -28.5 -11.5t-11.5 -28.5v-462q0 -15 -10 -25t-24 -10h-4
q-13 0 -22 9t-9 22v3q0 7 -8 10.5t-14 -1.5q-59 -43 -132 -43q-93 0 -158.5 65.5t-65.5 157.5q0 93 65.5 158.5t158.5 65.5q73 0 132 -43q6 -5 14 -2t8 11v84q0 17 -12 28.5t-28 11.5h-47zM274 69q64 0 109 45t45 109q0 66 -45.5 110.5t-108.5 44.5q-64 0 -109.5 -45
t-45.5 -110q0 -64 45.5 -109t109.5 -45z" />
    <glyph glyph-name="Emacron" unicode="&#x112;" 
d="M90 0q-16 0 -28 12t-12 28v615q0 17 12 28.5t28 11.5h374q14 0 23.5 -9.5t9.5 -23.5t-9.5 -23.5t-23.5 -9.5h-305q-17 0 -28.5 -11.5t-11.5 -28.5v-169q0 -16 11.5 -28t28.5 -12h123q13 0 22.5 -9.5t9.5 -22.5t-9.5 -23t-22.5 -10h-123q-17 0 -28.5 -11.5t-11.5 -28.5
v-169q0 -16 11.5 -28t28.5 -12h305q14 0 23.5 -10t9.5 -23t-9.5 -23t-23.5 -10h-374zM152 845q-14 0 -23.5 9.5t-9.5 23.5q0 13 10 22.5t23 9.5h244q13 0 22.5 -9.5t9.5 -22.5t-9.5 -23t-22.5 -10h-244z" />
    <glyph glyph-name="emacron" unicode="&#x113;" 
d="M391 123q6 7 18.5 10.5t20.5 -0.5l7 -4q32 -19 10 -46q-68 -83 -174 -83q-92 0 -157.5 65.5t-65.5 157.5q0 93 65.5 158.5t157.5 65.5t157 -66.5t67 -153.5q0 -17 -10 -27.5t-27 -10.5h-302q-17 0 -23.5 -9.5t0.5 -24.5q19 -39 56.5 -62.5t81.5 -23.5q72 0 118 54z
M135 292q-7 -15 -0.5 -24.5t23.5 -9.5h231q17 0 23.5 9.5t-0.5 24.5q-19 39 -56.5 62.5t-82.5 23.5q-44 0 -81.5 -23.5t-56.5 -62.5zM152 597q-14 0 -23.5 9.5t-9.5 23.5q0 13 10 22.5t23 9.5h244q13 0 22.5 -9.5t9.5 -22.5t-9.5 -23t-22.5 -10h-244z" />
    <glyph glyph-name="Ebreve" unicode="&#x114;" 
d="M90 0q-16 0 -28 12t-12 28v615q0 17 12 28.5t28 11.5h374q14 0 23.5 -9.5t9.5 -23.5t-9.5 -23.5t-23.5 -9.5h-305q-17 0 -28.5 -11.5t-11.5 -28.5v-169q0 -16 11.5 -28t28.5 -12h123q13 0 22.5 -9.5t9.5 -22.5t-9.5 -23t-22.5 -10h-123q-17 0 -28.5 -11.5t-11.5 -28.5
v-169q0 -16 11.5 -28t28.5 -12h305q14 0 23.5 -10t9.5 -23t-9.5 -23t-23.5 -10h-374zM333 909q1 5 7.5 11t11.5 6h17q38 0 30 -31q-11 -43 -46 -70.5t-80 -27.5t-79.5 28t-45.5 70q-8 31 30 31h17q5 0 11.5 -6t7.5 -11q14 -44 59 -44q21 0 37.5 12t22.5 32z" />
    <glyph glyph-name="ebreve" unicode="&#x115;" 
d="M391 123q6 7 18.5 10.5t20.5 -0.5l7 -4q32 -19 10 -46q-68 -83 -174 -83q-92 0 -157.5 65.5t-65.5 157.5q0 93 65.5 158.5t157.5 65.5t157 -66.5t67 -153.5q0 -17 -10 -27.5t-27 -10.5h-302q-17 0 -23.5 -9.5t0.5 -24.5q19 -39 56.5 -62.5t81.5 -23.5q72 0 118 54z
M135 292q-7 -15 -0.5 -24.5t23.5 -9.5h231q17 0 23.5 9.5t-0.5 24.5q-19 39 -56.5 62.5t-82.5 23.5q-44 0 -81.5 -23.5t-56.5 -62.5zM333 661q1 5 7.5 11t11.5 6h17q38 0 30 -31q-11 -43 -46 -70.5t-80 -27.5t-79.5 28t-45.5 70q-8 31 30 31h17q5 0 11.5 -6t7.5 -11
q14 -44 59 -44q21 0 37.5 12t22.5 32z" />
    <glyph glyph-name="Edotaccent" unicode="&#x116;" 
d="M90 0q-16 0 -28 12t-12 28v615q0 17 12 28.5t28 11.5h374q14 0 23.5 -9.5t9.5 -23.5t-9.5 -23.5t-23.5 -9.5h-305q-17 0 -28.5 -11.5t-11.5 -28.5v-169q0 -16 11.5 -28t28.5 -12h123q13 0 22.5 -9.5t9.5 -22.5t-9.5 -23t-22.5 -10h-123q-17 0 -28.5 -11.5t-11.5 -28.5
v-169q0 -16 11.5 -28t28.5 -12h305q14 0 23.5 -10t9.5 -23t-9.5 -23t-23.5 -10h-374zM273 917q22 0 37 -15t15 -37q0 -21 -15 -36t-37 -15q-21 0 -36 15t-15 36q0 22 15 37t36 15z" />
    <glyph glyph-name="edotaccent" unicode="&#x117;" 
d="M391 123q6 7 18.5 10.5t20.5 -0.5l7 -4q32 -19 10 -46q-68 -83 -174 -83q-92 0 -157.5 65.5t-65.5 157.5q0 93 65.5 158.5t157.5 65.5q93 0 158.5 -65.5t65.5 -158.5q0 -10 -2 -30q-1 -4 -7 -4h-330q-17 0 -23.5 -9.5t0.5 -24.5q19 -39 56.5 -62.5t81.5 -23.5
q72 0 118 54zM135 292q-7 -15 -0.5 -24.5t23.5 -9.5h231q17 0 23.5 9.5t-0.5 24.5q-19 39 -56.5 62.5t-82.5 23.5q-44 0 -81.5 -23.5t-56.5 -62.5zM273 669q22 0 37 -15t15 -37q0 -21 -15 -36t-37 -15q-21 0 -36 15t-15 36q0 22 15 37t36 15z" />
    <glyph glyph-name="Eogonek" unicode="&#x118;" 
d="M90 0q-16 0 -28 12t-12 28v615q0 17 12 28.5t28 11.5h374q14 0 23.5 -9.5t9.5 -23.5t-9.5 -23.5t-23.5 -9.5h-305q-17 0 -28.5 -11.5t-11.5 -28.5v-169q0 -16 11.5 -28t28.5 -12h123q13 0 22.5 -9.5t9.5 -22.5t-9.5 -23t-22.5 -10h-123q-17 0 -28.5 -11.5t-11.5 -28.5
v-169q0 -16 11.5 -28t28.5 -12h305q14 0 23.5 -10t9.5 -23t-9.5 -23t-23.5 -10h-41q-8 0 -14 -3q-30 -15 -38 -46t10.5 -55.5t53.5 -24.5q10 0 27.5 -9t21.5 -17q14 -35 -21 -40q-49 -8 -91.5 13t-62.5 67q-18 54 1 97q2 6 -1 12t-10 6h-209z" />
    <glyph glyph-name="eogonek" unicode="&#x119;" 
d="M391 123q6 7 18.5 10.5t20.5 -0.5l7 -4q32 -18 12 -44q-60 -75 -152 -84q-3 -3 -12 -3q-32 -14 -40 -45.5t10 -56.5t54 -25q10 0 27.5 -9t21.5 -17q14 -35 -21 -40q-49 -8 -91.5 13t-62.5 67q-21 59 5 108q4 6 2 15t-8 12q-60 27 -96 81.5t-36 121.5q0 93 65.5 158.5
t157.5 65.5t157 -66.5t67 -153.5q0 -17 -10 -27.5t-27 -10.5h-302q-17 0 -23.5 -9.5t0.5 -24.5q19 -39 56.5 -62.5t81.5 -23.5q72 0 118 54zM135 292q-7 -15 -0.5 -24.5t23.5 -9.5h231q17 0 23.5 9.5t-0.5 24.5q-19 39 -56.5 62.5t-82.5 23.5q-44 0 -81.5 -23.5t-56.5 -62.5
z" />
    <glyph glyph-name="Ecaron" unicode="&#x11a;" 
d="M90 0q-16 0 -28 12t-12 28v615q0 17 12 28.5t28 11.5h374q14 0 23.5 -9.5t9.5 -23.5t-9.5 -23.5t-23.5 -9.5h-305q-17 0 -28.5 -11.5t-11.5 -28.5v-169q0 -16 11.5 -28t28.5 -12h123q13 0 22.5 -9.5t9.5 -22.5t-9.5 -23t-22.5 -10h-123q-17 0 -28.5 -11.5t-11.5 -28.5
v-169q0 -16 11.5 -28t28.5 -12h305q14 0 23.5 -10t9.5 -23t-9.5 -23t-23.5 -10h-374zM122 938q-10 10 -10 24t10 25q10 10 24 10t25 -10l74 -74q11 -11 28 -11t28 11l74 74q11 10 25 10t25 -10q10 -10 9.5 -24.5t-10.5 -24.5l-123 -123q-11 -11 -28 -11t-28 11z" />
    <glyph glyph-name="ecaron" unicode="&#x11b;" 
d="M391 123q6 7 18.5 10.5t20.5 -0.5l7 -4q32 -19 10 -46q-68 -83 -174 -83q-92 0 -157.5 65.5t-65.5 157.5q0 93 65.5 158.5t157.5 65.5q93 0 158.5 -65.5t65.5 -158.5q0 -10 -2 -30q-1 -4 -7 -4h-330q-17 0 -23.5 -9.5t0.5 -24.5q19 -39 56.5 -62.5t81.5 -23.5
q72 0 118 54zM135 292q-7 -15 -0.5 -24.5t23.5 -9.5h231q17 0 23.5 9.5t-0.5 24.5q-19 39 -56.5 62.5t-82.5 23.5q-44 0 -81.5 -23.5t-56.5 -62.5zM122 690q-10 10 -10 24t10 25q10 10 24 10t25 -10l74 -74q11 -11 28 -11t28 11l74 74q11 10 25 10t25 -10q10 -10 9.5 -24.5
t-10.5 -24.5l-123 -123q-11 -11 -28 -11t-28 11z" />
    <glyph glyph-name="Gcircumflex" unicode="&#x11c;" 
d="M305 315q-13 0 -23 9.5t-10 23.5q0 13 10 22.5t23 9.5h152q17 0 28.5 -12t11.5 -28v-126q0 -88 -66 -151t-159 -63q-92 0 -157 62.5t-65 151.5v267q0 89 65 151.5t157 62.5q83 0 146 -51.5t76 -127.5q3 -16 -5.5 -25.5t-25.5 -9.5q-11 0 -24 12.5t-16 23.5
q-12 48 -54.5 80t-96.5 32q-64 0 -108.5 -43t-44.5 -105v-267q0 -62 44.5 -105t108.5 -43q65 0 110.5 43.5t45.5 104.5v61q0 17 -12 28.5t-28 11.5h-83zM171 811q-10 -10 -24.5 -9.5t-24.5 10.5t-10 24t10 24l123 123q11 11 28 11t28 -11l123 -123q10 -10 10.5 -24t-9.5 -24
t-25 -10.5t-25 9.5l-74 74q-11 11 -28 11t-28 -11z" />
    <glyph glyph-name="gcircumflex" unicode="&#x11d;" 
d="M428 -25v59q0 7 -8 10.5t-14 -1.5q-59 -43 -133 -43q-92 0 -157.5 65.5t-65.5 157.5q0 93 65.5 158.5t157.5 65.5q74 0 133 -43q6 -5 14 -2t8 11v3q0 13 9 22t22 9h4q14 0 24 -10t10 -24v-438q0 -92 -65.5 -157.5t-158.5 -65.5q-105 0 -173 83q-22 27 10 46l6 4
q8 4 20.5 0.5t18.5 -10.5q47 -54 118 -54q64 0 109.5 45t45.5 109zM273 69q63 0 107.5 42.5t47.5 104.5q0 69 -45 115.5t-110 46.5q-64 0 -109 -45.5t-45 -109.5t45 -109t109 -45zM171 563q-10 -10 -24.5 -9.5t-24.5 10.5t-10 24t10 24l123 123q11 11 28 11t28 -11l123 -123
q10 -10 10.5 -24t-9.5 -24t-25 -10.5t-25 9.5l-74 74q-11 11 -28 11t-28 -11z" />
    <glyph glyph-name="Gbreve" unicode="&#x11e;" 
d="M305 315q-13 0 -23 9.5t-10 23.5q0 13 10 22.5t23 9.5h152q17 0 28.5 -12t11.5 -28v-126q0 -88 -66 -151t-159 -63q-92 0 -157 62.5t-65 151.5v267q0 89 65 151.5t157 62.5q83 0 146 -51.5t76 -127.5q3 -16 -5.5 -25.5t-25.5 -9.5q-11 0 -24 12.5t-16 23.5
q-12 48 -54.5 80t-96.5 32q-64 0 -108.5 -43t-44.5 -105v-267q0 -62 44.5 -105t108.5 -43q65 0 110.5 43.5t45.5 104.5v61q0 17 -12 28.5t-28 11.5h-83zM333 909q1 5 7.5 11t11.5 6h17q38 0 30 -31q-11 -43 -46 -70.5t-80 -27.5t-79.5 28t-45.5 70q-8 31 30 31h17
q5 0 11.5 -6t7.5 -11q14 -44 59 -44q21 0 37.5 12t22.5 32z" />
    <glyph glyph-name="gbreve" unicode="&#x11f;" 
d="M428 -25v59q0 7 -8 10.5t-14 -1.5q-59 -43 -133 -43q-92 0 -157.5 65.5t-65.5 157.5q0 93 65.5 158.5t157.5 65.5q74 0 133 -43q6 -5 14 -2t8 11v3q0 13 9 22t22 9h4q14 0 24 -10t10 -24v-438q0 -92 -65.5 -157.5t-158.5 -65.5q-105 0 -173 83q-22 27 10 46l6 4
q8 4 20.5 0.5t18.5 -10.5q47 -54 118 -54q64 0 109.5 45t45.5 109zM273 69q63 0 107.5 42.5t47.5 104.5q0 69 -45 115.5t-110 46.5q-64 0 -109 -45.5t-45 -109.5t45 -109t109 -45zM333 661q1 5 7.5 11t11.5 6h17q38 0 30 -31q-11 -43 -46 -70.5t-80 -27.5t-79.5 28t-45.5 70
q-8 31 30 31h17q5 0 11.5 -6t7.5 -11q14 -44 59 -44q21 0 37.5 12t22.5 32z" />
    <glyph glyph-name="Gdotaccent" unicode="&#x120;" 
d="M305 315q-13 0 -23 9.5t-10 23.5q0 13 10 22.5t23 9.5h152q17 0 28.5 -12t11.5 -28v-126q0 -88 -66 -151t-159 -63q-92 0 -157 62.5t-65 151.5v267q0 89 65 151.5t157 62.5q83 0 146 -51.5t76 -127.5q3 -16 -5.5 -25.5t-25.5 -9.5q-11 0 -24 12.5t-16 23.5
q-12 48 -54.5 80t-96.5 32q-64 0 -108.5 -43t-44.5 -105v-267q0 -62 44.5 -105t108.5 -43q65 0 110.5 43.5t45.5 104.5v61q0 17 -12 28.5t-28 11.5h-83zM273 917q22 0 37 -15t15 -37q0 -21 -15 -36t-37 -15q-21 0 -36 15t-15 36q0 22 15 37t36 15z" />
    <glyph glyph-name="gdotaccent" unicode="&#x121;" 
d="M428 -25v59q0 7 -8 10.5t-14 -1.5q-59 -43 -133 -43q-92 0 -157.5 65.5t-65.5 157.5q0 93 65.5 158.5t157.5 65.5q74 0 133 -43q6 -5 14 -2t8 11v3q0 13 9 22t22 9h4q14 0 24 -10t10 -24v-438q0 -92 -65.5 -157.5t-158.5 -65.5q-105 0 -173 83q-22 27 10 46l6 4
q8 4 20.5 0.5t18.5 -10.5q47 -54 118 -54q64 0 109.5 45t45.5 109zM273 69q63 0 107.5 42.5t47.5 104.5q0 69 -45 115.5t-110 46.5q-64 0 -109 -45.5t-45 -109.5t45 -109t109 -45zM273 669q22 0 37 -15t15 -37q0 -21 -15 -36t-37 -15q-21 0 -36 15t-15 36q0 22 15 37t36 15z
" />
    <glyph glyph-name="Gcommaaccent" unicode="&#x122;" 
d="M305 315q-13 0 -23 9.5t-10 23.5q0 13 10 22.5t23 9.5h152q17 0 28.5 -12t11.5 -28v-126q0 -88 -66 -151t-159 -63q-92 0 -157 62.5t-65 151.5v267q0 89 65 151.5t157 62.5q83 0 146 -51.5t76 -127.5q3 -16 -5.5 -25.5t-25.5 -9.5q-11 0 -24 12.5t-16 23.5
q-12 48 -54.5 80t-96.5 32q-64 0 -108.5 -43t-44.5 -105v-267q0 -62 44.5 -105t108.5 -43q65 0 110.5 43.5t45.5 104.5v61q0 17 -12 28.5t-28 11.5h-83zM325 -249q0 -14 -10 -24t-24 -10q-15 0 -25 10t-10 24v80q0 11 -10 16q-24 15 -24 44q0 21 15 36t36 15q22 0 37 -15
t15 -36v-140z" />
    <glyph glyph-name="gcommaaccent" unicode="&#x123;" 
d="M222 723q0 14 10 24t25 10q14 0 24 -10t10 -24v-80q0 -11 10 -16q24 -15 24 -44q0 -21 -15 -36t-36 -15q-22 0 -37 15t-15 36v140zM428 -25v59q0 7 -8 10.5t-14 -1.5q-59 -43 -133 -43q-92 0 -157.5 65.5t-65.5 157.5q0 93 65.5 158.5t157.5 65.5q74 0 133 -43
q6 -5 14 -2t8 11v3q0 13 9 22t22 9h4q14 0 24 -10t10 -24v-438q0 -92 -65.5 -157.5t-158.5 -65.5q-105 0 -173 83q-22 27 10 46l6 4q8 4 20.5 0.5t18.5 -10.5q47 -54 118 -54q64 0 109.5 45t45.5 109zM273 69q63 0 107.5 42.5t47.5 104.5q0 69 -45 115.5t-110 46.5
q-64 0 -109 -45.5t-45 -109.5t45 -109t109 -45z" />
    <glyph glyph-name="Hcircumflex" unicode="&#x124;" 
d="M463 695q14 0 24 -10t10 -24v-626q0 -15 -10 -25t-24 -10q-15 0 -25 10t-10 25v240q0 17 -12 28.5t-28 11.5h-229q-17 0 -28.5 -11.5t-11.5 -28.5v-240q0 -15 -10 -25t-24 -10q-15 0 -25 10t-10 25v626q0 14 10 24t25 10q14 0 24 -10t10 -24v-241q0 -16 11.5 -28
t28.5 -12h229q16 0 28 12t12 28v241q0 14 10 24t25 10zM171 811q-10 -10 -24.5 -9.5t-24.5 10.5t-10 24t10 24l123 123q11 11 28 11t28 -11l123 -123q10 -10 10.5 -24t-9.5 -24t-25 -10.5t-25 9.5l-74 74q-11 11 -28 11t-28 -11z" />
    <glyph glyph-name="hcircumflex" unicode="&#x125;" 
d="M497 223v-188q0 -15 -10 -25t-24 -10q-15 0 -25 10t-10 25v188q0 65 -45 110t-110 45q-62 0 -107 -43.5t-47 -105.5v-194q0 -15 -10 -25t-24 -10q-15 0 -25 10t-10 25v626q0 14 10 24t25 10q14 0 24 -10t10 -24v-248q0 -8 8 -11t14 2q59 43 132 43q93 0 158.5 -65.5
t65.5 -158.5zM171 811q-10 -10 -24.5 -9.5t-24.5 10.5t-10 24t10 24l123 123q11 11 28 11t28 -11l123 -123q10 -10 10.5 -24t-9.5 -24t-25 -10.5t-25 9.5l-74 74q-11 11 -28 11t-28 -11z" />
    <glyph glyph-name="hbar" unicode="&#x127;" 
d="M-38 537q-13 0 -22.5 10t-9.5 23t9.5 22.5t22.5 9.5h48q16 0 28 12t12 28v19q0 14 10 24t25 10q14 0 24 -10t10 -24v-19q0 -16 11.5 -28t28.5 -12h48q13 0 22.5 -9.5t9.5 -22.5t-9.5 -23t-22.5 -10h-48q-17 0 -28.5 -11.5t-11.5 -28.5v-84q0 -8 8 -11t14 2q59 43 132 43
q93 0 158.5 -65.5t65.5 -158.5v-188q0 -15 -10 -25t-24 -10q-15 0 -25 10t-10 25v188q0 65 -45 110t-110 45q-62 0 -107 -43.5t-47 -105.5v-194q0 -15 -10 -25t-24 -10q-15 0 -25 10t-10 25v462q0 17 -12 28.5t-28 11.5h-48z" />
    <glyph glyph-name="Itilde" unicode="&#x128;" 
d="M83 629q-13 0 -23 9.5t-10 23.5t10 23.5t23 9.5h381q14 0 23.5 -9.5t9.5 -23.5t-9.5 -23.5t-23.5 -9.5h-118q-16 0 -28 -11.5t-12 -28.5v-483q0 -16 12 -28t28 -12h118q14 0 23.5 -10t9.5 -23t-9.5 -23t-23.5 -10h-381q-13 0 -23 10t-10 23t10 23t23 10h117q16 0 28 12
t12 28v483q0 17 -12 28.5t-28 11.5h-117zM247 859q-5 14 -20 21t-30 0q-28 -12 -19 -53q4 -11 -8 -17l-13 -4q-28 -11 -35 16q-7 34 7.5 65t47.5 43q35 13 71 -0.5t53 -50.5q8 -16 21.5 -23t26.5 -1q20 9 23 23t-3 29q-4 13 9 18l14 6q28 11 34 -15q8 -39 -4 -70t-49 -44
q-34 -15 -70.5 -1.5t-55.5 58.5z" />
    <glyph glyph-name="itilde" unicode="&#x129;" 
d="M268 447q16 0 28 -11.5t12 -28.5v-298q0 -17 12 -28.5t28 -11.5h115q14 0 24 -10t10 -24q0 -15 -10 -25t-24 -10h-378q-15 0 -25 10t-10 25q0 14 10 24t25 10h114q17 0 28.5 11.5t11.5 28.5v229q0 16 -11.5 28t-28.5 12h-66q-15 0 -25 10t-10 25q0 14 10 24t25 10h135z
M247 611q-5 14 -20 21t-30 0q-28 -12 -19 -53q4 -11 -8 -17l-13 -4q-28 -11 -35 16q-7 34 7.5 65t47.5 43q35 13 71 -0.5t53 -50.5q8 -16 21.5 -23t26.5 -1q20 9 23 23t-3 29q-4 13 9 18l14 6q28 11 34 -15q8 -39 -4 -70t-49 -44q-34 -15 -70.5 -1.5t-55.5 58.5z" />
    <glyph glyph-name="Imacron" unicode="&#x12a;" 
d="M83 629q-13 0 -23 9.5t-10 23.5t10 23.5t23 9.5h381q14 0 23.5 -9.5t9.5 -23.5t-9.5 -23.5t-23.5 -9.5h-118q-16 0 -28 -11.5t-12 -28.5v-483q0 -16 12 -28t28 -12h118q14 0 23.5 -10t9.5 -23t-9.5 -23t-23.5 -10h-381q-13 0 -23 10t-10 23t10 23t23 10h117q16 0 28 12
t12 28v483q0 17 -12 28.5t-28 11.5h-117zM152 845q-14 0 -23.5 9.5t-9.5 23.5q0 13 10 22.5t23 9.5h244q13 0 22.5 -9.5t9.5 -22.5t-9.5 -23t-22.5 -10h-244z" />
    <glyph glyph-name="imacron" unicode="&#x12b;" 
d="M268 447q16 0 28 -11.5t12 -28.5v-298q0 -17 12 -28.5t28 -11.5h115q14 0 24 -10t10 -24q0 -15 -10 -25t-24 -10h-378q-15 0 -25 10t-10 25q0 14 10 24t25 10h114q17 0 28.5 11.5t11.5 28.5v229q0 16 -11.5 28t-28.5 12h-66q-15 0 -25 10t-10 25q0 14 10 24t25 10h135z
M152 597q-14 0 -23.5 9.5t-9.5 23.5q0 13 10 22.5t23 9.5h244q13 0 22.5 -9.5t9.5 -22.5t-9.5 -23t-22.5 -10h-244z" />
    <glyph glyph-name="Ibreve" unicode="&#x12c;" 
d="M83 629q-13 0 -23 9.5t-10 23.5t10 23.5t23 9.5h381q14 0 23.5 -9.5t9.5 -23.5t-9.5 -23.5t-23.5 -9.5h-118q-16 0 -28 -11.5t-12 -28.5v-483q0 -16 12 -28t28 -12h118q14 0 23.5 -10t9.5 -23t-9.5 -23t-23.5 -10h-381q-13 0 -23 10t-10 23t10 23t23 10h117q16 0 28 12
t12 28v483q0 17 -12 28.5t-28 11.5h-117zM333 909q1 5 7.5 11t11.5 6h17q38 0 30 -31q-11 -43 -46 -70.5t-80 -27.5t-79.5 28t-45.5 70q-8 31 30 31h17q5 0 11.5 -6t7.5 -11q14 -44 59 -44q21 0 37.5 12t22.5 32z" />
    <glyph glyph-name="ibreve" unicode="&#x12d;" 
d="M268 447q16 0 28 -11.5t12 -28.5v-298q0 -17 12 -28.5t28 -11.5h115q14 0 24 -10t10 -24q0 -15 -10 -25t-24 -10h-378q-15 0 -25 10t-10 25q0 14 10 24t25 10h114q17 0 28.5 11.5t11.5 28.5v229q0 16 -11.5 28t-28.5 12h-66q-15 0 -25 10t-10 25q0 14 10 24t25 10h135z
M333 661q1 5 7.5 11t11.5 6h17q38 0 30 -31q-11 -43 -46 -70.5t-80 -27.5t-79.5 28t-45.5 70q-8 31 30 31h17q5 0 11.5 -6t7.5 -11q14 -44 59 -44q21 0 37.5 12t22.5 32z" />
    <glyph glyph-name="Iogonek" unicode="&#x12e;" 
d="M83 629q-13 0 -23 9.5t-10 23.5t10 23.5t23 9.5h381q14 0 23.5 -9.5t9.5 -23.5t-9.5 -23.5t-23.5 -9.5h-118q-16 0 -28 -11.5t-12 -28.5v-483q0 -16 12 -28t28 -12h118q14 0 23.5 -10t9.5 -23t-9.5 -23t-23.5 -10h-141q-8 0 -14 -3q-30 -15 -38 -46t10.5 -55.5
t53.5 -24.5q10 0 27.5 -9t21.5 -17q14 -35 -21 -40q-49 -8 -91.5 13t-62.5 67q-18 54 1 97q2 6 -1 12t-10 6h-116q-13 0 -23 10t-10 23t10 23t23 10h117q16 0 28 12t12 28v483q0 17 -12 28.5t-28 11.5h-117z" />
    <glyph glyph-name="iogonek" unicode="&#x12f;" 
d="M268 447q16 0 28 -11.5t12 -28.5v-298q0 -17 12 -28.5t28 -11.5h115q14 0 24 -10t10 -24q0 -15 -10 -25t-24 -10h-148q-8 0 -14 -3q-30 -15 -38 -46t10.5 -55.5t53.5 -24.5q10 0 27.5 -9t21.5 -17q14 -35 -21 -40q-49 -8 -91.5 13t-62.5 67q-18 54 1 97q2 6 -1 12t-10 6
h-106q-15 0 -25 10t-10 25q0 14 10 24t25 10h114q17 0 28.5 11.5t11.5 28.5v229q0 16 -11.5 28t-28.5 12h-66q-15 0 -25 10t-10 25q0 14 10 24t25 10h135zM325 614q0 -22 -15 -37t-37 -15q-21 0 -36 15t-15 37q0 21 15 36t36 15q22 0 37 -15t15 -36z" />
    <glyph glyph-name="Idotaccent" unicode="&#x130;" 
d="M83 629q-13 0 -23 9.5t-10 23.5t10 23.5t23 9.5h381q14 0 23.5 -9.5t9.5 -23.5t-9.5 -23.5t-23.5 -9.5h-118q-16 0 -28 -11.5t-12 -28.5v-483q0 -16 12 -28t28 -12h118q14 0 23.5 -10t9.5 -23t-9.5 -23t-23.5 -10h-381q-13 0 -23 10t-10 23t10 23t23 10h117q16 0 28 12
t12 28v483q0 17 -12 28.5t-28 11.5h-117zM273 917q22 0 37 -15t15 -37q0 -21 -15 -36t-37 -15q-21 0 -36 15t-15 36q0 22 15 37t36 15z" />
    <glyph glyph-name="dotlessi" unicode="&#x131;" 
d="M268 447q16 0 28 -11.5t12 -28.5v-298q0 -17 12 -28.5t28 -11.5h115q14 0 24 -10t10 -24q0 -15 -10 -25t-24 -10h-378q-15 0 -25 10t-10 25q0 14 10 24t25 10h114q17 0 28.5 11.5t11.5 28.5v229q0 16 -11.5 28t-28.5 12h-66q-15 0 -25 10t-10 25q0 14 10 24t25 10h135z
" />
    <glyph glyph-name="Jcircumflex" unicode="&#x134;" 
d="M457 695q17 0 28.5 -11.5t11.5 -28.5v-441q0 -87 -71 -150.5t-161 -63.5q-123 0 -196 89q-10 12 -7 24.5t17 20.5l6 3q8 4 19.5 2t16.5 -8q25 -28 64 -46.5t80 -18.5q63 0 113 44t50 104v375q0 17 -12 28.5t-28 11.5h-204q-14 0 -23.5 9.5t-9.5 23.5t9.5 23.5t23.5 9.5
h273zM171 811q-10 -10 -24.5 -9.5t-24.5 10.5t-10 24t10 24l123 123q11 11 28 11t28 -11l123 -123q10 -10 10.5 -24t-9.5 -24t-25 -10.5t-25 9.5l-74 74q-11 11 -28 11t-28 -11z" />
    <glyph glyph-name="jcircumflex" unicode="&#x135;" 
d="M182 378q-15 0 -25 10t-10 25q0 14 10 24t25 10h246q16 0 28 -11.5t12 -28.5v-432q0 -93 -66 -158.5t-158 -65.5q-106 0 -174 83q-22 27 10 46l7 4q8 4 20.5 0.5t18.5 -10.5q46 -54 118 -54q64 0 109.5 45.5t45.5 109.5v363q0 16 -11.5 28t-28.5 12h-177zM171 563
q-10 -10 -24.5 -9.5t-24.5 10.5t-10 24t10 24l123 123q11 11 28 11t28 -11l123 -123q10 -10 10.5 -24t-9.5 -24t-25 -10.5t-25 9.5l-74 74q-11 11 -28 11t-28 -11z" />
    <glyph glyph-name="Kcommaaccent" unicode="&#x136;" 
d="M84 695q14 0 24 -10t10 -24v-241q0 -16 12 -28t28 -12h81q9 0 20 7t15 15l142 271q4 8 15 15t20 7h11q13 0 19 -10t0 -21l-155 -295q-4 -6 -4 -18t4 -19l155 -301q6 -11 0 -21t-19 -10h-11q-9 0 -20 7t-15 15l-139 270q-4 8 -15 15t-20 7h-84q-16 0 -28 -12t-12 -28v-240
q0 -14 -10 -24t-24 -10t-24 10t-10 24v627q0 14 10 24t24 10zM325 -249q0 -14 -10 -24t-24 -10q-15 0 -25 10t-10 24v80q0 11 -10 16q-24 15 -24 44q0 21 15 36t36 15q22 0 37 -15t15 -36v-140z" />
    <glyph glyph-name="kcommaaccent" unicode="&#x137;" 
d="M450 447q12 0 16 -11t-6 -19l-132 -105q-12 -10 -14.5 -25.5t6.5 -28.5l155 -226q8 -10 2 -21t-19 -11h-18q-7 0 -17.5 6t-15.5 12l-132 196q-10 15 -27 17.5t-31 -8.5l-83 -67q-5 -4 -10 -14.5t-5 -16.5v-90q0 -15 -10 -25t-24 -10q-15 0 -25 10t-10 25v626q0 14 10 24
t25 10q14 0 24 -10t10 -24v-353q0 -27 22 -37.5t43 5.5l207 163q16 8 25 8h34zM325 -249q0 -14 -10 -24t-24 -10q-15 0 -25 10t-10 24v80q0 11 -10 16q-24 15 -24 44q0 21 15 36t36 15q22 0 37 -15t15 -36v-140z" />
    <glyph glyph-name="Lacute" unicode="&#x139;" 
d="M90 0q-16 0 -28 12t-12 28v621q0 14 10 24t25 10q14 0 24 -10t10 -24v-555q0 -16 11.5 -28t28.5 -12h305q14 0 23.5 -10t9.5 -23t-9.5 -23t-23.5 -10h-374zM235 771q-10 -10 -24.5 -9.5t-24.5 10.5t-10 24t10 24l126 127q11 10 25 10t25 -10q10 -10 9.5 -24.5
t-10.5 -24.5z" />
    <glyph glyph-name="lacute" unicode="&#x13a;" 
d="M463 69q14 0 24 -10t10 -24q0 -15 -10 -25t-24 -10h-378q-15 0 -25 10t-10 25q0 14 10 24t25 10h114q17 0 28.5 11.5t11.5 28.5v480q0 17 -11.5 28.5t-28.5 11.5h-47q-14 0 -23.5 9.5t-9.5 23.5t9.5 23.5t23.5 9.5h116q16 0 28 -11.5t12 -28.5v-546q0 -17 12 -28.5
t28 -11.5h115zM235 771q-10 -10 -24.5 -9.5t-24.5 10.5t-10 24t10 24l126 127q11 10 25 10t25 -10q10 -10 9.5 -24.5t-10.5 -24.5z" />
    <glyph glyph-name="Lcommaaccent" unicode="&#x13b;" 
d="M90 0q-16 0 -28 12t-12 28v621q0 14 10 24t25 10q14 0 24 -10t10 -24v-555q0 -16 11.5 -28t28.5 -12h305q14 0 23.5 -10t9.5 -23t-9.5 -23t-23.5 -10h-374zM325 -249q0 -14 -10 -24t-24 -10q-15 0 -25 10t-10 24v80q0 11 -10 16q-24 15 -24 44q0 21 15 36t36 15
q22 0 37 -15t15 -36v-140z" />
    <glyph glyph-name="lcommaaccent" unicode="&#x13c;" 
d="M463 69q14 0 24 -10t10 -24q0 -15 -10 -25t-24 -10h-378q-15 0 -25 10t-10 25q0 14 10 24t25 10h114q17 0 28.5 11.5t11.5 28.5v480q0 17 -11.5 28.5t-28.5 11.5h-47q-14 0 -23.5 9.5t-9.5 23.5t9.5 23.5t23.5 9.5h116q16 0 28 -11.5t12 -28.5v-546q0 -17 12 -28.5
t28 -11.5h115zM325 -249q0 -14 -10 -24t-24 -10q-15 0 -25 10t-10 24v80q0 11 -10 16q-24 15 -24 44q0 21 15 36t36 15q22 0 37 -15t15 -36v-140z" />
    <glyph glyph-name="Lcaron" unicode="&#x13d;" 
d="M464 66q14 0 23.5 -10t9.5 -23t-9.5 -23t-23.5 -10h-374q-16 0 -28 12t-12 28v621q0 14 10 24t25 10q14 0 24 -10t10 -24v-555q0 -16 11.5 -28t28.5 -12h305zM-67 938q-10 10 -10.5 24.5t9.5 24.5q11 10 25.5 10t24.5 -10l74 -74q11 -11 28 -11t28 11l74 74q11 10 25 10
t25 -10q10 -10 9.5 -24.5t-10.5 -24.5l-123 -123q-11 -11 -28 -11t-28 11z" />
    <glyph glyph-name="lcaron" unicode="&#x13e;" 
d="M463 69q14 0 24 -10t10 -24q0 -15 -10 -25t-24 -10h-378q-15 0 -25 10t-10 25q0 14 10 24t25 10h114q17 0 28.5 11.5t11.5 28.5v480q0 17 -11.5 28.5t-28.5 11.5h-47q-14 0 -23.5 9.5t-9.5 23.5t9.5 23.5t23.5 9.5h116q16 0 28 -11.5t12 -28.5v-546q0 -17 12 -28.5
t28 -11.5h115zM497 534q0 -15 -10 -25t-24 -10q-15 0 -25 10t-10 25v79q0 11 -10 16q-24 15 -24 44q0 21 15 36t36 15q22 0 37 -15t15 -36v-139z" />
    <glyph glyph-name="Ldot" unicode="&#x13f;" 
d="M90 0q-16 0 -28 12t-12 28v621q0 14 10 24t25 10q14 0 24 -10t10 -24v-555q0 -16 11.5 -28t28.5 -12h305q14 0 23.5 -10t9.5 -23t-9.5 -23t-23.5 -10h-374zM359 434q22 0 37 -15t15 -37q0 -21 -15 -36t-37 -15q-21 0 -36 15t-15 36q0 22 15 37t36 15z" />
    <glyph glyph-name="ldot" unicode="&#x140;" 
d="M463 69q14 0 24 -10t10 -24q0 -15 -10 -25t-24 -10h-378q-15 0 -25 10t-10 25q0 14 10 24t25 10h114q17 0 28.5 11.5t11.5 28.5v480q0 17 -11.5 28.5t-28.5 11.5h-47q-14 0 -23.5 9.5t-9.5 23.5t9.5 23.5t23.5 9.5h116q16 0 28 -11.5t12 -28.5v-546q0 -17 12 -28.5
t28 -11.5h115zM447 669q22 0 37 -15t15 -37q0 -21 -15 -36t-37 -15q-21 0 -36 15t-15 36q0 22 15 37t36 15z" />
    <glyph glyph-name="Lslash" unicode="&#x141;" 
d="M90 0q-16 0 -28 12t-12 28v108q0 17 -13.5 24.5t-27.5 -0.5l-14 -8q-11 -7 -24 -3t-21 15q-7 11 -3 24t15 20l68 39q7 4 13.5 15.5t6.5 19.5v367q0 14 10 24t25 10q14 0 24 -10t10 -24v-302q0 -17 13.5 -24.5t28.5 0.5l13 8q11 7 24 3t21 -15q7 -11 3 -24t-15 -20
l-68 -39q-7 -4 -13.5 -15.5t-6.5 -19.5v-107q0 -16 11.5 -28t28.5 -12h305q14 0 23.5 -10t9.5 -23t-9.5 -23t-23.5 -10h-374z" />
    <glyph glyph-name="lslash" unicode="&#x142;" 
d="M184 164q-11 -7 -24 -3t-20 15t-3.5 24t14.5 20l68 39q7 4 13.5 15.5t6.5 19.5v295q0 17 -11.5 28.5t-28.5 11.5h-47q-14 0 -23.5 9.5t-9.5 23.5t9.5 23.5t23.5 9.5h116q16 0 28 -11.5t12 -28.5v-296q0 -17 13.5 -24.5t28.5 0.5l13 8q11 7 24 3t21 -15q7 -11 3 -24
t-15 -20l-68 -39q-7 -4 -13.5 -15.5t-6.5 -19.5v-104q0 -17 12 -28.5t28 -11.5h115q14 0 24 -10t10 -24q0 -15 -10 -25t-24 -10h-378q-15 0 -25 10t-10 25q0 14 10 24t25 10h114q17 0 28.5 11.5t11.5 28.5v39q0 17 -13.5 24.5t-27.5 -0.5z" />
    <glyph glyph-name="Nacute" unicode="&#x143;" 
d="M428 661q0 14 10 24t25 10q14 0 24 -10t10 -24v-626q0 -15 -10 -25t-24 -10h-11q-9 0 -20 6.5t-15 14.5l-223 410q-15 27 -45 19.5t-30 -38.5v-377q0 -15 -10 -25t-24 -10q-15 0 -25 10t-10 25v626q0 14 10 24t25 10h10q9 0 20 -6.5t15 -14.5l223 -404q10 -18 28 -21
t32.5 8.5t14.5 31.5v372zM235 771q-10 -10 -24.5 -9.5t-24.5 10.5t-10 24t10 24l126 127q11 10 25 10t25 -10q10 -10 9.5 -24.5t-10.5 -24.5z" />
    <glyph glyph-name="nacute" unicode="&#x144;" 
d="M273 447q93 0 158.5 -65.5t65.5 -158.5v-188q0 -15 -10 -25t-24 -10q-15 0 -25 10t-10 25v188q0 65 -45 110t-110 45q-64 0 -109 -45t-45 -109v-189q0 -15 -10 -25t-24 -10q-15 0 -25 10t-10 25v378q0 14 10 24t25 10h3q13 0 22 -9t9 -22v-3q0 -8 8 -11t14 2
q59 43 132 43zM235 523q-10 -10 -24.5 -9.5t-24.5 10.5t-10 24t10 24l126 127q10 10 24.5 10t25.5 -10q10 -10 9.5 -24.5t-10.5 -24.5z" />
    <glyph glyph-name="Ncommaaccent" unicode="&#x145;" 
d="M428 661q0 14 10 24t25 10q14 0 24 -10t10 -24v-626q0 -15 -10 -25t-24 -10h-11q-9 0 -20 6.5t-15 14.5l-223 410q-15 27 -45 19.5t-30 -38.5v-377q0 -15 -10 -25t-24 -10q-15 0 -25 10t-10 25v626q0 14 10 24t25 10h10q9 0 20 -6.5t15 -14.5l223 -404q10 -18 28 -21
t32.5 8.5t14.5 31.5v372zM325 -249q0 -14 -10 -24t-24 -10q-15 0 -25 10t-10 24v80q0 11 -10 16q-24 15 -24 44q0 21 15 36t36 15q22 0 37 -15t15 -36v-140z" />
    <glyph glyph-name="ncommaaccent" unicode="&#x146;" 
d="M273 447q93 0 158.5 -65.5t65.5 -158.5v-188q0 -15 -10 -25t-24 -10q-15 0 -25 10t-10 25v188q0 65 -45 110t-110 45q-64 0 -109 -45t-45 -109v-189q0 -15 -10 -25t-24 -10q-15 0 -25 10t-10 25v378q0 14 10 24t25 10h3q13 0 22 -9t9 -22v-3q0 -8 8 -11t14 2
q59 43 132 43zM325 -249q0 -14 -10 -24t-24 -10q-15 0 -25 10t-10 24v80q0 11 -10 16q-24 15 -24 44q0 21 15 36t36 15q22 0 37 -15t15 -36v-140z" />
    <glyph glyph-name="Ncaron" unicode="&#x147;" 
d="M428 661q0 14 10 24t25 10q14 0 24 -10t10 -24v-626q0 -15 -10 -25t-24 -10h-11q-9 0 -20 6.5t-15 14.5l-223 410q-15 27 -45 19.5t-30 -38.5v-377q0 -15 -10 -25t-24 -10q-15 0 -25 10t-10 25v626q0 14 10 24t25 10h10q9 0 20 -6.5t15 -14.5l223 -404q10 -18 28 -21
t32.5 8.5t14.5 31.5v372zM122 938q-10 10 -10 24t10 25q10 10 24 10t25 -10l74 -74q11 -11 28 -11t28 11l74 74q11 10 25 10t25 -10q10 -10 9.5 -24.5t-10.5 -24.5l-123 -123q-11 -11 -28 -11t-28 11z" />
    <glyph glyph-name="ncaron" unicode="&#x148;" 
d="M273 447q93 0 158.5 -65.5t65.5 -158.5v-188q0 -15 -10 -25t-24 -10q-15 0 -25 10t-10 25v188q0 65 -45 110t-110 45q-64 0 -109 -45t-45 -109v-189q0 -15 -10 -25t-24 -10q-15 0 -25 10t-10 25v378q0 14 10 24t25 10h3q13 0 22 -9t9 -22v-3q0 -8 8 -11t14 2
q59 43 132 43zM122 690q-10 10 -10 24t10 25q10 10 24 10t25 -10l74 -74q11 -11 28 -11t28 11l74 74q11 10 25 10t25 -10q10 -10 9.5 -24.5t-10.5 -24.5l-123 -123q-11 -11 -28 -11t-28 11z" />
    <glyph glyph-name="napostrophe" unicode="&#x149;" 
d="M273 447q93 0 158.5 -65.5t65.5 -158.5v-188q0 -15 -10 -25t-24 -10q-15 0 -25 10t-10 25v188q0 65 -45 110t-110 45q-64 0 -109 -45t-45 -109v-189q0 -15 -10 -25t-24 -10q-15 0 -25 10t-10 25v378q0 14 10 24t25 10h3q13 0 22 -9t9 -22v-3q0 -8 8 -11t14 2
q59 43 132 43zM119 632q0 -15 -10 -25t-24 -10q-15 0 -25 10t-10 25v79q0 11 -10 16q-24 15 -24 44q0 21 15 36t36 15q22 0 37 -15t15 -36v-139z" />
    <glyph glyph-name="Eng" unicode="&#x14a;" 
d="M463 695q14 0 24 -10t10 -24v-695q0 -87 -71 -150.5t-161 -63.5q-123 0 -196 89q-10 12 -7 24.5t17 19.5l6 4q8 4 19.5 2t16.5 -8q25 -28 64 -46.5t80 -18.5q63 0 113 44t50 104v24q0 9 -5 19l-229 422q-15 27 -45 19.5t-30 -38.5v-377q0 -15 -10 -25t-24 -10
q-15 0 -25 10t-10 25v626q0 14 10 24t25 10h10q9 0 20 -6.5t15 -14.5l223 -404q10 -18 28 -21t32.5 8.5t14.5 31.5v372q0 14 10 24t25 10z" />
    <glyph glyph-name="eng" unicode="&#x14b;" 
d="M497 223v-247q0 -93 -66 -158.5t-158 -65.5q-106 0 -174 83q-22 27 10 46l7 4q8 4 20.5 0.5t18.5 -10.5q46 -54 118 -54q64 0 109.5 45.5t45.5 109.5v253q-3 63 -47.5 106t-107.5 43q-64 0 -109 -45t-45 -109v-189q0 -15 -10 -25t-24 -10q-15 0 -25 10t-10 25v378
q0 14 10 24t25 10h3q13 0 22 -9t9 -22v-3q0 -8 8 -11t14 2q59 43 132 43q93 0 158.5 -65.5t65.5 -158.5z" />
    <glyph glyph-name="Omacron" unicode="&#x14c;" 
d="M497 481v-268q0 -88 -68 -151t-158 -63q-89 0 -155 63t-66 151v268q0 88 66 151t155 63q90 0 158 -63t68 -151zM428 213v268q0 61 -47.5 104.5t-109.5 43.5t-107 -43.5t-45 -104.5v-268q0 -61 45 -104.5t107 -43.5t109.5 43.5t47.5 104.5zM152 845q-14 0 -23.5 9.5
t-9.5 23.5q0 13 10 22.5t23 9.5h244q13 0 22.5 -9.5t9.5 -22.5t-9.5 -23t-22.5 -10h-244z" />
    <glyph glyph-name="omacron" unicode="&#x14d;" 
d="M273 447q93 0 158.5 -65.5t65.5 -158.5q0 -92 -65.5 -157.5t-158.5 -65.5q-92 0 -157.5 65.5t-65.5 157.5q0 93 65.5 158.5t157.5 65.5zM273 69q64 0 109.5 45t45.5 109q0 65 -45 110t-110 45q-64 0 -109 -45.5t-45 -109.5t45 -109t109 -45zM152 597q-14 0 -23.5 9.5
t-9.5 23.5q0 13 10 22.5t23 9.5h244q13 0 22.5 -9.5t9.5 -22.5t-9.5 -23t-22.5 -10h-244z" />
    <glyph glyph-name="Obreve" unicode="&#x14e;" 
d="M497 481v-268q0 -88 -68 -151t-158 -63q-89 0 -155 63t-66 151v268q0 88 66 151t155 63q90 0 158 -63t68 -151zM428 213v268q0 61 -47.5 104.5t-109.5 43.5t-107 -43.5t-45 -104.5v-268q0 -61 45 -104.5t107 -43.5t109.5 43.5t47.5 104.5zM333 909q1 5 7.5 11t11.5 6h17
q38 0 30 -31q-11 -43 -46 -70.5t-80 -27.5t-79.5 28t-45.5 70q-8 31 30 31h17q5 0 11.5 -6t7.5 -11q14 -44 59 -44q21 0 37.5 12t22.5 32z" />
    <glyph glyph-name="Ohungarumlaut" unicode="&#x150;" 
d="M497 481v-268q0 -88 -68 -151t-158 -63q-89 0 -155 63t-66 151v268q0 88 66 151t155 63q90 0 158 -63t68 -151zM428 213v268q0 61 -47.5 104.5t-109.5 43.5t-107 -43.5t-45 -104.5v-268q0 -61 45 -104.5t107 -43.5t109.5 43.5t47.5 104.5zM210 791q-10 -10 -24.5 -9.5
t-24.5 10.5q-11 10 -11 24t11 24l126 127q11 10 25.5 10t24.5 -10t9.5 -24.5t-10.5 -24.5zM420 791q-10 -10 -24.5 -9.5t-24.5 10.5q-11 10 -11 24t11 24l126 127q11 10 25.5 10t24.5 -10t9.5 -24.5t-10.5 -24.5z" />
    <glyph glyph-name="ohungarumlaut" unicode="&#x151;" 
d="M273 447q93 0 158.5 -65.5t65.5 -158.5q0 -92 -65.5 -157.5t-158.5 -65.5q-92 0 -157.5 65.5t-65.5 157.5q0 93 65.5 158.5t157.5 65.5zM273 69q64 0 109.5 45t45.5 109q0 65 -45 110t-110 45q-64 0 -109 -45.5t-45 -109.5t45 -109t109 -45zM190 553q-10 -10 -24.5 -9.5
t-24.5 10.5q-11 10 -11 24t11 24l126 127q11 10 25 10t25 -10q10 -10 9.5 -24.5t-10.5 -24.5zM400 553q-10 -10 -24.5 -9.5t-24.5 10.5q-11 10 -11 24t11 24l126 127q11 10 25 10t25 -10q10 -10 9.5 -24.5t-10.5 -24.5z" />
    <glyph glyph-name="OE" unicode="&#x152;" 
d="M50 213v268q0 88 67 151t156 63h191q14 0 23.5 -9.5t9.5 -23.5t-9.5 -23.5t-23.5 -9.5h-82q-16 0 -28 -11.5t-12 -28.5v-169q0 -16 12 -28t28 -12h14q13 0 22.5 -9.5t9.5 -22.5t-9.5 -23t-22.5 -10h-14q-16 0 -28 -11.5t-12 -28.5v-166q0 -17 12 -28.5t28 -11.5h81
q14 0 24 -10t10 -24q0 -15 -10 -25t-24 -10h-190q-89 0 -156 62.5t-67 150.5zM237 73q19 -4 27.5 5.5t8.5 30.5v480q0 21 -8.5 30.5t-27.5 5.5q-51 -12 -84.5 -52t-33.5 -92v-268q0 -51 33.5 -89.5t84.5 -50.5z" />
    <glyph glyph-name="oe" unicode="&#x153;" 
d="M434 113q4 7 12 10t15 0l6 -3q24 -12 13 -35q-19 -39 -47 -62t-57 -23q-60 0 -90 55q-4 6 -13 6t-13 -6q-28 -55 -90 -55q-51 0 -85.5 65t-34.5 158q0 94 36 159t92 65t83 -56q4 -6 12.5 -6t12.5 6q29 56 82 56q45 0 76 -40t42 -88t11 -97q0 -33 -38 -33l-117 2
q-17 0 -25.5 -9t-6.5 -25q6 -39 24 -63.5t42 -24.5q34 0 58 44zM178 69q25 0 43 44t18 110q0 67 -18 111.5t-43 44.5t-42 -45.5t-17 -110.5q0 -64 17 -109t42 -45zM311 293q-6 -34 32 -34h51q37 0 31 34q-6 37 -22.5 60t-34.5 23t-34.5 -23t-22.5 -60z" />
    <glyph glyph-name="Racute" unicode="&#x154;" 
d="M50 655q0 17 12 28.5t28 11.5h193q87 0 150.5 -62.5t63.5 -149.5q0 -57 -30 -106.5t-79 -77.5q-14 -7 -21.5 -26t-0.5 -32l112 -207q7 -12 0.5 -23t-20.5 -11h-15q-9 0 -20 6.5t-15 14.5l-126 230q-4 8 -15 14.5t-20 6.5h-88q-17 0 -28.5 -12t-11.5 -28v-197
q0 -15 -10 -25t-24 -10q-15 0 -25 10t-10 25v620zM283 629h-124q-17 0 -28.5 -11.5t-11.5 -28.5v-211q0 -16 11.5 -28t28.5 -12h124q60 0 102.5 42.5t42.5 102.5q0 61 -42.5 103.5t-102.5 42.5zM235 771q-10 -10 -24.5 -9.5t-24.5 10.5t-10 24t10 24l126 127q11 10 25 10
t25 -10q10 -10 9.5 -24.5t-10.5 -24.5z" />
    <glyph glyph-name="racute" unicode="&#x155;" 
d="M387 378q-64 0 -109 -45t-45 -109v-115q0 -17 11.5 -28.5t28.5 -11.5h93q14 0 24 -10t10 -24q0 -15 -10 -25t-24 -10h-281q-15 0 -25 10t-10 25q0 14 10 24t25 10h39q16 0 28 11.5t12 28.5v229q0 16 -12 28t-28 12h-39q-15 0 -25 10t-10 25q0 14 10 24t25 10h117
q13 0 22 -9t9 -22v-3q0 -8 8 -11t14 2q59 43 132 43q50 0 93 -20q16 -8 8 -25l-18 -33q-6 -11 -18 -5q-30 14 -65 14zM235 523q-10 -10 -24.5 -9.5t-24.5 10.5t-10 24t10 24l126 127q10 10 24.5 10t25.5 -10q10 -10 9.5 -24.5t-10.5 -24.5z" />
    <glyph glyph-name="Rcommaaccent" unicode="&#x156;" 
d="M50 655q0 17 12 28.5t28 11.5h193q87 0 150.5 -62.5t63.5 -149.5q0 -57 -30 -106.5t-79 -77.5q-14 -7 -21.5 -26t-0.5 -32l112 -207q7 -12 0.5 -23t-20.5 -11h-15q-9 0 -20 6.5t-15 14.5l-126 230q-4 8 -15 14.5t-20 6.5h-88q-17 0 -28.5 -12t-11.5 -28v-197
q0 -15 -10 -25t-24 -10q-15 0 -25 10t-10 25v620zM283 629h-124q-17 0 -28.5 -11.5t-11.5 -28.5v-211q0 -16 11.5 -28t28.5 -12h124q60 0 102.5 42.5t42.5 102.5q0 61 -42.5 103.5t-102.5 42.5zM325 -249q0 -14 -10 -24t-24 -10q-15 0 -25 10t-10 24v80q0 11 -10 16
q-24 15 -24 44q0 21 15 36t36 15q22 0 37 -15t15 -36v-140z" />
    <glyph glyph-name="rcommaaccent" unicode="&#x157;" 
d="M387 378q-64 0 -109 -45t-45 -109v-115q0 -17 11.5 -28.5t28.5 -11.5h93q14 0 24 -10t10 -24q0 -15 -10 -25t-24 -10h-281q-15 0 -25 10t-10 25q0 14 10 24t25 10h39q16 0 28 11.5t12 28.5v229q0 16 -12 28t-28 12h-39q-15 0 -25 10t-10 25q0 14 10 24t25 10h117
q13 0 22 -9t9 -22v-3q0 -8 8 -11t14 2q59 43 132 43q50 0 93 -20q16 -8 8 -25l-18 -33q-6 -11 -18 -5q-30 14 -65 14zM325 -249q0 -14 -10 -24t-24 -10q-15 0 -25 10t-10 24v80q0 11 -10 16q-24 15 -24 44q0 21 15 36t36 15q22 0 37 -15t15 -36v-140z" />
    <glyph glyph-name="Rcaron" unicode="&#x158;" 
d="M50 655q0 17 12 28.5t28 11.5h193q87 0 150.5 -62.5t63.5 -149.5q0 -57 -30 -106.5t-79 -77.5q-14 -7 -21.5 -26t-0.5 -32l112 -207q7 -12 0.5 -23t-20.5 -11h-15q-9 0 -20 6.5t-15 14.5l-126 230q-4 8 -15 14.5t-20 6.5h-88q-17 0 -28.5 -12t-11.5 -28v-197
q0 -15 -10 -25t-24 -10q-15 0 -25 10t-10 25v620zM283 629h-124q-17 0 -28.5 -11.5t-11.5 -28.5v-211q0 -16 11.5 -28t28.5 -12h124q60 0 102.5 42.5t42.5 102.5q0 61 -42.5 103.5t-102.5 42.5zM122 938q-10 10 -10 24t10 25q10 10 24 10t25 -10l74 -74q11 -11 28 -11t28 11
l74 74q11 10 25 10t25 -10q10 -10 9.5 -24.5t-10.5 -24.5l-123 -123q-11 -11 -28 -11t-28 11z" />
    <glyph glyph-name="rcaron" unicode="&#x159;" 
d="M387 378q-64 0 -109 -45t-45 -109v-115q0 -17 11.5 -28.5t28.5 -11.5h93q14 0 24 -10t10 -24q0 -15 -10 -25t-24 -10h-281q-15 0 -25 10t-10 25q0 14 10 24t25 10h39q16 0 28 11.5t12 28.5v229q0 16 -12 28t-28 12h-39q-15 0 -25 10t-10 25q0 14 10 24t25 10h117
q13 0 22 -9t9 -22v-3q0 -8 8 -11t14 2q59 43 132 43q50 0 93 -20q16 -8 8 -25l-18 -33q-6 -11 -18 -5q-30 14 -65 14zM122 690q-10 10 -10 24t10 25q10 10 24 10t25 -10l74 -74q11 -11 28 -11t28 11l74 74q11 10 25 10t25 -10q10 -10 9.5 -24.5t-10.5 -24.5l-123 -123
q-11 -11 -28 -11t-28 11z" />
    <glyph glyph-name="Sacute" unicode="&#x15a;" 
d="M272 380q96 -14 160.5 -64.5t64.5 -125.5q0 -79 -67 -134.5t-158 -55.5q-80 0 -142.5 46t-76.5 114q-3 16 5.5 23.5t26.5 7.5q9 0 23 -13t17 -22q14 -39 55 -64t92 -25q63 0 109.5 36t46.5 87q0 49 -45 82t-111 42q-94 13 -158 64t-64 126q0 79 66 135t156 56
q81 0 145 -46t77 -114q6 -31 -31 -31q-9 0 -23.5 12.5t-17.5 22.5q-15 39 -57 64.5t-93 25.5q-62 0 -107.5 -37t-45.5 -88q0 -49 44.5 -82t108.5 -42zM235 771q-10 -10 -24.5 -9.5t-24.5 10.5t-10 24t10 24l126 127q11 10 25 10t25 -10q10 -10 9.5 -24.5t-10.5 -24.5z" />
    <glyph glyph-name="sacute" unicode="&#x15b;" 
d="M273 257q112 0 168 -36.5t56 -94.5q0 -52 -65 -89t-159 -37q-76 0 -137 27.5t-79 68.5q-7 18 -0.5 24t27.5 6h17q4 0 11.5 -6t9.5 -9q13 -21 55 -34.5t96 -13.5q65 0 110.5 18.5t45.5 44.5q0 63 -156 63q-110 0 -166.5 36t-56.5 91q0 54 66 92.5t157 38.5q80 0 140 -28
t78 -71q12 -32 -28 -32h-17q-4 0 -11.5 6t-9.5 9q-13 22 -55.5 37.5t-96.5 15.5q-64 0 -109.5 -21t-45.5 -47q0 -59 155 -59zM235 523q-10 -10 -24.5 -9.5t-24.5 10.5t-10 24t10 24l126 127q10 10 24.5 10t25.5 -10q10 -10 9.5 -24.5t-10.5 -24.5z" />
    <glyph glyph-name="Scircumflex" unicode="&#x15c;" 
d="M272 380q96 -14 160.5 -64.5t64.5 -125.5q0 -79 -67 -134.5t-158 -55.5q-80 0 -142.5 46t-76.5 114q-3 16 5.5 23.5t26.5 7.5q9 0 23 -13t17 -22q14 -39 55 -64t92 -25q63 0 109.5 36t46.5 87q0 49 -45 82t-111 42q-94 13 -158 64t-64 126q0 79 66 135t156 56
q81 0 145 -46t77 -114q6 -31 -31 -31q-9 0 -23.5 12.5t-17.5 22.5q-15 39 -57 64.5t-93 25.5q-62 0 -107.5 -37t-45.5 -88q0 -49 44.5 -82t108.5 -42zM171 811q-10 -10 -24.5 -9.5t-24.5 10.5t-10 24t10 24l123 123q11 11 28 11t28 -11l123 -123q10 -10 10.5 -24t-9.5 -24
t-25 -10.5t-25 9.5l-74 74q-11 11 -28 11t-28 -11z" />
    <glyph glyph-name="scircumflex" unicode="&#x15d;" 
d="M273 257q112 0 168 -36.5t56 -94.5q0 -52 -65 -89t-159 -37q-76 0 -137 27.5t-79 68.5q-7 18 -0.5 24t27.5 6h17q4 0 11.5 -6t9.5 -9q13 -21 55 -34.5t96 -13.5q65 0 110.5 18.5t45.5 44.5q0 63 -156 63q-110 0 -166.5 36t-56.5 91q0 54 66 92.5t157 38.5q80 0 140 -28
t78 -71q12 -32 -28 -32h-17q-4 0 -11.5 6t-9.5 9q-13 22 -55.5 37.5t-96.5 15.5q-64 0 -109.5 -21t-45.5 -47q0 -59 155 -59zM171 563q-10 -10 -24.5 -9.5t-24.5 10.5t-10 24t10 24l123 123q11 11 28 11t28 -11l123 -123q10 -10 10.5 -24t-9.5 -24t-25 -10.5t-25 9.5l-74 74
q-11 11 -28 11t-28 -11z" />
    <glyph glyph-name="Scedilla" unicode="&#x15e;" 
d="M272 380q96 -14 160.5 -64.5t64.5 -125.5q0 -58 -38 -105t-99 -70q-6 -2 -8.5 -10.5t0.5 -14.5q25 -47 5 -105q-20 -46 -62.5 -67t-91.5 -13q-35 5 -21 40q4 10 18 18.5t25 7.5q38 -3 58 23t11 58.5t-43 46.5q-5 2 -6 2q-71 8 -124.5 51t-66.5 103q-8 36 31 36
q9 0 23 -13t17 -22q14 -39 55 -64t92 -25q63 0 109.5 36t46.5 87q0 49 -45 82t-111 42q-94 13 -158 64t-64 126q0 79 66 135t156 56q81 0 145 -46t77 -114q6 -31 -31 -31q-9 0 -23.5 12.5t-17.5 22.5q-15 39 -57 64.5t-93 25.5q-62 0 -107.5 -37t-45.5 -88q0 -49 44.5 -82
t108.5 -42z" />
    <glyph glyph-name="scedilla" unicode="&#x15f;" 
d="M273 257q112 0 168 -36.5t56 -94.5q0 -38 -37 -70t-97 -46q-7 -1 -9.5 -9t0.5 -14q22 -48 3 -102q-20 -46 -62.5 -67t-91.5 -13q-35 5 -21 40q4 8 21.5 17t27.5 9q35 0 53 25.5t9.5 57t-40.5 45.5q-1 0 -7 1.5t-7 1.5q-66 5 -117 32t-66 64q-6 17 0 22.5t26 5.5h19
q4 0 11.5 -6t9.5 -9q13 -21 55 -34.5t96 -13.5q65 0 110.5 18.5t45.5 44.5q0 63 -156 63q-110 0 -166.5 36t-56.5 91q0 54 66 92.5t157 38.5q80 0 140 -28t78 -71q12 -32 -28 -32h-17q-4 0 -11.5 6t-9.5 9q-13 22 -55.5 37.5t-96.5 15.5q-64 0 -109.5 -21t-45.5 -47
q0 -59 155 -59z" />
    <glyph glyph-name="Scaron" unicode="&#x160;" 
d="M272 380q96 -14 160.5 -64.5t64.5 -125.5q0 -79 -67 -134.5t-158 -55.5q-80 0 -142.5 46t-76.5 114q-3 16 5.5 23.5t26.5 7.5q9 0 23 -13t17 -22q14 -39 55 -64t92 -25q63 0 109.5 36t46.5 87q0 49 -45 82t-111 42q-94 13 -158 64t-64 126q0 79 66 135t156 56
q81 0 145 -46t77 -114q6 -31 -31 -31q-9 0 -23.5 12.5t-17.5 22.5q-15 39 -57 64.5t-93 25.5q-62 0 -107.5 -37t-45.5 -88q0 -49 44.5 -82t108.5 -42zM122 938q-10 10 -10 24t10 25q10 10 24 10t25 -10l74 -74q11 -11 28 -11t28 11l74 74q11 10 25 10t25 -10
q10 -10 9.5 -24.5t-10.5 -24.5l-123 -123q-11 -11 -28 -11t-28 11z" />
    <glyph glyph-name="scaron" unicode="&#x161;" 
d="M273 257q112 0 168 -36.5t56 -94.5q0 -52 -65 -89t-159 -37q-76 0 -137 27.5t-79 68.5q-7 18 -0.5 24t27.5 6h17q4 0 11.5 -6t9.5 -9q13 -21 55 -34.5t96 -13.5q65 0 110.5 18.5t45.5 44.5q0 63 -156 63q-110 0 -166.5 36t-56.5 91q0 54 66 92.5t157 38.5q80 0 140 -28
t78 -71q12 -32 -28 -32h-17q-4 0 -11.5 6t-9.5 9q-13 22 -55.5 37.5t-96.5 15.5q-64 0 -109.5 -21t-45.5 -47q0 -59 155 -59zM122 690q-10 10 -10 24t10 25q10 10 24 10t25 -10l74 -74q11 -11 28 -11t28 11l74 74q11 10 25 10t25 -10q10 -10 9.5 -24.5t-10.5 -24.5
l-123 -123q-11 -11 -28 -11t-28 11z" />
    <glyph glyph-name="Tcommaaccent" unicode="&#x162;" 
d="M83 629q-13 0 -23 9.5t-10 23.5t10 23.5t23 9.5h381q14 0 23.5 -9.5t9.5 -23.5t-9.5 -23.5t-23.5 -9.5h-118q-16 0 -28 -11.5t-12 -28.5v-556q0 -13 -10 -23t-23 -10t-23 10t-10 23v556q0 17 -12 28.5t-28 11.5h-117zM325 -249q0 -14 -10 -24t-24 -10q-15 0 -25 10
t-10 24v80q0 11 -10 16q-24 15 -24 44q0 21 15 36t36 15q22 0 37 -15t15 -36v-140z" />
    <glyph glyph-name="tcommaaccent" unicode="&#x163;" 
d="M245 487q0 -17 11.5 -28.5t28.5 -11.5h178q14 0 24 -10t10 -24q0 -15 -10 -25t-24 -10h-178q-17 0 -28.5 -12t-11.5 -28v-178q0 -38 27 -64.5t65 -26.5q30 0 54.5 18.5t32.5 47.5q2 7 12 16t17 9h10q37 0 31 -32q-11 -55 -55.5 -91.5t-101.5 -36.5q-67 0 -113.5 47
t-46.5 113v178q0 16 -11.5 28t-28.5 12h-52q-15 0 -25 10t-10 25q0 14 10 24t25 10h52q17 0 28.5 11.5t11.5 28.5v53q0 14 10 24t24 10t24 -10t10 -24v-53zM325 -249q0 -14 -10 -24t-24 -10q-15 0 -25 10t-10 24v80q0 11 -10 16q-24 15 -24 44q0 21 15 36t36 15q22 0 37 -15
t15 -36v-140z" />
    <glyph glyph-name="Tcaron" unicode="&#x164;" 
d="M83 629q-13 0 -23 9.5t-10 23.5t10 23.5t23 9.5h381q14 0 23.5 -9.5t9.5 -23.5t-9.5 -23.5t-23.5 -9.5h-118q-16 0 -28 -11.5t-12 -28.5v-556q0 -13 -10 -23t-23 -10t-23 10t-10 23v556q0 17 -12 28.5t-28 11.5h-117zM122 938q-10 10 -10 24t10 25q10 10 24 10t25 -10
l74 -74q11 -11 28 -11t28 11l74 74q11 10 25 10t25 -10q10 -10 9.5 -24.5t-10.5 -24.5l-123 -123q-11 -11 -28 -11t-28 11z" />
    <glyph glyph-name="tcaron" unicode="&#x165;" 
d="M245 487q0 -17 11.5 -28.5t28.5 -11.5h178q14 0 24 -10t10 -24q0 -15 -10 -25t-24 -10h-178q-17 0 -28.5 -12t-11.5 -28v-178q0 -38 27 -64.5t65 -26.5q30 0 54.5 18.5t32.5 47.5q2 7 12 16t17 9h10q37 0 31 -32q-11 -55 -55.5 -91.5t-101.5 -36.5q-67 0 -113.5 47
t-46.5 113v178q0 16 -11.5 28t-28.5 12h-52q-15 0 -25 10t-10 25q0 14 10 24t25 10h52q17 0 28.5 11.5t11.5 28.5v53q0 14 10 24t24 10t24 -10t10 -24v-53zM497 607q0 -15 -10 -25t-24 -10q-15 0 -25 10t-10 25v79q0 11 -10 16q-24 15 -24 44q0 21 15 36t36 15q22 0 37 -15
t15 -36v-139z" />
    <glyph glyph-name="Tbar" unicode="&#x166;" 
d="M152 301q-14 0 -23.5 9.5t-9.5 23.5q0 13 10 22.5t23 9.5h48q16 0 28 12t12 28v183q0 17 -12 28.5t-28 11.5h-117q-13 0 -23 9.5t-10 23.5t10 23.5t23 9.5h381q14 0 23.5 -9.5t9.5 -23.5t-9.5 -23.5t-23.5 -9.5h-118q-16 0 -28 -11.5t-12 -28.5v-183q0 -16 12 -28t28 -12
h50q13 0 22.5 -9.5t9.5 -22.5t-9.5 -23t-22.5 -10h-50q-16 0 -28 -11.5t-12 -28.5v-228q0 -13 -10 -23t-23 -10t-23 10t-10 23v228q0 17 -12 28.5t-28 11.5h-48z" />
    <glyph glyph-name="tbar" unicode="&#x167;" 
d="M83 235q-13 0 -23 9.5t-10 23.5q0 13 10 22.5t23 9.5h55q16 0 27.5 11t11.5 28t-11.5 28t-27.5 11h-53q-15 0 -25 10t-10 25q0 14 10 24t25 10h52q17 0 28.5 11.5t11.5 28.5v53q0 14 10 24t24 10t24 -10t10 -24v-53q0 -17 11.5 -28.5t28.5 -11.5h178q14 0 24 -10t10 -24
q0 -15 -10 -25t-24 -10h-179q-16 0 -27.5 -11t-11.5 -28t11.5 -28t27.5 -11h43q13 0 22.5 -9.5t9.5 -22.5t-9.5 -23t-22.5 -10h-44q-16 0 -27 -11t-11 -26v-38q0 -38 27 -64.5t65 -26.5q30 0 54.5 18.5t32.5 47.5q2 7 12 16t17 9h10q37 0 31 -32q-11 -55 -55.5 -91.5
t-101.5 -36.5q-67 0 -113.5 47t-46.5 113v38q0 15 -11 26t-26 11h-57z" />
    <glyph glyph-name="Utilde" unicode="&#x168;" 
d="M428 661q0 14 10 24t25 10q14 0 24 -10t10 -24v-447q0 -88 -68 -151t-158 -63q-89 0 -155 63t-66 151v447q0 14 10 24t25 10q14 0 24 -10t10 -24v-447q0 -61 45 -104.5t107 -43.5t109.5 43.5t47.5 104.5v447zM247 859q-5 14 -20 21t-30 0q-28 -12 -19 -53q4 -11 -8 -17
l-13 -4q-28 -11 -35 16q-7 34 7.5 65t47.5 43q35 13 71 -0.5t53 -50.5q8 -16 21.5 -23t26.5 -1q20 9 23 23t-3 29q-4 13 9 18l14 6q28 11 34 -15q8 -39 -4 -70t-49 -44q-34 -15 -70.5 -1.5t-55.5 58.5z" />
    <glyph glyph-name="utilde" unicode="&#x169;" 
d="M274 0q-93 0 -158.5 65.5t-65.5 158.5v189q0 14 10 24t25 10q14 0 24 -10t10 -24v-189q0 -64 45.5 -109.5t109.5 -45.5t109 45t45 109v190q0 14 10 24t25 10q14 0 24 -10t10 -24v-378q0 -15 -10 -25t-24 -10h-4q-13 0 -22 9t-9 22v3q0 8 -8 11t-14 -2q-59 -43 -132 -43z
M247 611q-5 14 -20 21t-30 0q-28 -12 -19 -53q4 -11 -8 -17l-13 -4q-28 -11 -35 16q-7 34 7.5 65t47.5 43q35 13 71 -0.5t53 -50.5q8 -16 21.5 -23t26.5 -1q20 9 23 23t-3 29q-4 13 9 18l14 6q28 11 34 -15q8 -39 -4 -70t-49 -44q-34 -15 -70.5 -1.5t-55.5 58.5z" />
    <glyph glyph-name="umacron" unicode="&#x16b;" 
d="M274 0q-93 0 -158.5 65.5t-65.5 158.5v189q0 14 10 24t25 10q14 0 24 -10t10 -24v-189q0 -64 45.5 -109.5t109.5 -45.5t109 45t45 109v190q0 14 10 24t25 10q14 0 24 -10t10 -24v-378q0 -15 -10 -25t-24 -10h-4q-13 0 -22 9t-9 22v3q0 8 -8 11t-14 -2q-59 -43 -132 -43z
M152 597q-14 0 -23.5 9.5t-9.5 23.5q0 13 10 22.5t23 9.5h244q13 0 22.5 -9.5t9.5 -22.5t-9.5 -23t-22.5 -10h-244z" />
    <glyph glyph-name="Ubreve" unicode="&#x16c;" 
d="M428 661q0 14 10 24t25 10q14 0 24 -10t10 -24v-447q0 -88 -68 -151t-158 -63q-89 0 -155 63t-66 151v447q0 14 10 24t25 10q14 0 24 -10t10 -24v-447q0 -61 45 -104.5t107 -43.5t109.5 43.5t47.5 104.5v447zM333 909q1 5 7.5 11t11.5 6h17q38 0 30 -31
q-11 -43 -46 -70.5t-80 -27.5t-79.5 28t-45.5 70q-8 31 30 31h17q5 0 11.5 -6t7.5 -11q14 -44 59 -44q21 0 37.5 12t22.5 32z" />
    <glyph glyph-name="ubreve" unicode="&#x16d;" 
d="M274 0q-93 0 -158.5 65.5t-65.5 158.5v189q0 14 10 24t25 10q14 0 24 -10t10 -24v-189q0 -64 45.5 -109.5t109.5 -45.5t109 45t45 109v190q0 14 10 24t25 10q14 0 24 -10t10 -24v-378q0 -15 -10 -25t-24 -10h-4q-13 0 -22 9t-9 22v3q0 8 -8 11t-14 -2q-59 -43 -132 -43z
M333 661q1 5 7.5 11t11.5 6h17q38 0 30 -31q-11 -43 -46 -70.5t-80 -27.5t-79.5 28t-45.5 70q-8 31 30 31h17q5 0 11.5 -6t7.5 -11q14 -44 59 -44q21 0 37.5 12t22.5 32z" />
    <glyph glyph-name="Uring" unicode="&#x16e;" 
d="M428 661q0 14 10 24t25 10q14 0 24 -10t10 -24v-447q0 -88 -68 -151t-158 -63q-89 0 -155 63t-66 151v447q0 14 10 24t25 10q14 0 24 -10t10 -24v-447q0 -61 45 -104.5t107 -43.5t109.5 43.5t47.5 104.5v447zM273 1006q54 0 92 -38t38 -92q0 -53 -38 -91t-92 -38
q-53 0 -91 38t-38 91q0 54 38 92t91 38zM273 815q26 0 44 18t18 43q0 26 -18.5 44t-43.5 18t-43 -18t-18 -44t18 -43.5t43 -17.5z" />
    <glyph glyph-name="uring" unicode="&#x16f;" 
d="M274 0q-93 0 -158.5 65.5t-65.5 158.5v189q0 14 10 24t25 10q14 0 24 -10t10 -24v-189q0 -64 45.5 -109.5t109.5 -45.5t109 45t45 109v190q0 14 10 24t25 10q14 0 24 -10t10 -24v-378q0 -15 -10 -25t-24 -10h-4q-13 0 -22 9t-9 22v3q0 8 -8 11t-14 -2q-59 -43 -132 -43z
M273 758q54 0 92 -38t38 -92q0 -53 -38 -91t-92 -38q-53 0 -91 38t-38 91q0 54 38 92t91 38zM273 567q26 0 44 18t18 43q0 26 -18.5 44t-43.5 18t-43 -18t-18 -44t18 -43.5t43 -17.5z" />
    <glyph glyph-name="Uhungarumlaut" unicode="&#x170;" 
d="M428 661q0 14 10 24t25 10q14 0 24 -10t10 -24v-447q0 -88 -68 -151t-158 -63q-89 0 -155 63t-66 151v447q0 14 10 24t25 10q14 0 24 -10t10 -24v-447q0 -61 45 -104.5t107 -43.5t109.5 43.5t47.5 104.5v447zM130 771q-10 -10 -24.5 -9.5t-24.5 10.5q-11 10 -11 24t11 24
l126 127q11 10 25 10t25 -10q10 -10 9.5 -24.5t-10.5 -24.5zM340 771q-10 -10 -24.5 -9.5t-24.5 10.5q-11 10 -11 24t11 24l126 127q11 10 25 10t25 -10q10 -10 9.5 -24.5t-10.5 -24.5z" />
    <glyph glyph-name="uhungarumlaut" unicode="&#x171;" 
d="M274 0q-93 0 -158.5 65.5t-65.5 158.5v189q0 14 10 24t25 10q14 0 24 -10t10 -24v-189q0 -64 45.5 -109.5t109.5 -45.5t109 45t45 109v190q0 14 10 24t25 10q14 0 24 -10t10 -24v-378q0 -15 -10 -25t-24 -10h-4q-13 0 -22 9t-9 22v3q0 8 -8 11t-14 -2q-59 -43 -132 -43z
M200 553q-10 -10 -24.5 -9.5t-24.5 10.5q-11 10 -11 24t11 24l126 127q11 10 25 10t25 -10q10 -10 9.5 -24.5t-10.5 -24.5zM410 553q-10 -10 -24.5 -9.5t-24.5 10.5q-11 10 -11 24t11 24l126 127q11 10 25 10t25 -10q10 -10 9.5 -24.5t-10.5 -24.5z" />
    <glyph glyph-name="Uogonek" unicode="&#x172;" 
d="M428 661q0 14 10 24t25 10q14 0 24 -10t10 -24v-447q0 -80 -57.5 -140.5t-139.5 -71.5l-7 -2l-7 -1q-33 -15 -41 -47.5t12 -58t58 -22.5q11 1 25 -7.5t18 -18.5q14 -35 -21 -40q-49 -8 -91.5 13t-62.5 67q-21 59 5 107q4 6 2 15t-8 11q-58 26 -95 79t-37 117v447
q0 14 10 24t25 10q14 0 24 -10t10 -24v-447q0 -61 45 -104.5t107 -43.5t109.5 43.5t47.5 104.5v447z" />
    <glyph glyph-name="uogonek" unicode="&#x173;" 
d="M428 413q0 14 10 24t25 10q14 0 24 -10t10 -24v-381q0 -6 -12.5 -23.5t-18.5 -21.5q-25 -19 -28.5 -48.5t16 -51.5t54.5 -20q11 1 25.5 -7.5t18.5 -18.5q14 -35 -21 -40q-49 -8 -91.5 13t-62.5 67q-15 42 -5 81t44 67q3 2 7.5 9.5t4.5 11.5q0 3 -3.5 4.5t-5.5 -0.5
q-64 -54 -145 -54q-93 0 -158.5 65.5t-65.5 158.5v189q0 14 10 24t25 10q14 0 24 -10t10 -24v-189q0 -64 45.5 -109.5t109.5 -45.5t109 45t45 109v190z" />
    <glyph glyph-name="Wcircumflex" unicode="&#x174;" 
d="M332 267q5 -15 20.5 -14t17.5 16l53 392q2 14 14 24t26 10t22.5 -10t6.5 -24l-98 -633q-1 -11 -11 -19.5t-21 -8.5q-12 0 -22.5 8.5t-12.5 19.5l-24 106q-6 26 -32 26t-34 -25l-29 -110q-3 -10 -13 -17.5t-20 -7.5q-11 0 -20 8t-10 18l-90 635q-2 14 7 24t23 10t25.5 -10
t12.5 -24l52 -391q2 -16 18.5 -17t20.5 14l17 59q4 12 15.5 20.5t23.5 8.5h6q12 0 23.5 -9t14.5 -20zM171 811q-10 -10 -24.5 -9.5t-24.5 10.5t-10 24t10 24l123 123q11 11 28 11t28 -11l123 -123q10 -10 10.5 -24t-9.5 -24t-25 -10.5t-25 9.5l-74 74q-11 11 -28 11t-28 -11
z" />
    <glyph glyph-name="wcircumflex" unicode="&#x175;" 
d="M324 185q4 -17 21 -17t21 17l51 231q3 13 14.5 22t24.5 9h5q14 0 22.5 -10.5t4.5 -24.5l-98 -382q-3 -12 -14.5 -21t-24.5 -9h-5q-13 0 -24.5 9t-14.5 22l-14 63q-3 16 -19.5 16t-20.5 -16l-13 -62q-3 -13 -14.5 -22.5t-24.5 -9.5h-5q-13 0 -24.5 9t-14.5 21l-98 382
q-4 14 4.5 24.5t23.5 10.5h4q13 0 24.5 -9t14.5 -22l51 -231q4 -17 21 -17t21 17l15 64q2 12 13 20.5t23 8.5q11 0 22 -8.5t13 -20.5zM171 563q-10 -10 -24.5 -9.5t-24.5 10.5t-10 24t10 24l123 123q11 11 28 11t28 -11l123 -123q10 -10 10.5 -24t-9.5 -24t-25 -10.5
t-25 9.5l-74 74q-11 11 -28 11t-28 -11z" />
    <glyph glyph-name="Ycircumflex" unicode="&#x176;" 
d="M463 695q12 0 17.5 -9.5t-0.5 -20.5l-169 -309q-5 -10 -5 -19v-304q0 -13 -10 -23t-23 -10t-23 10t-10 23v305q0 9 -5 19l-168 308q-6 11 -0.5 20.5t18.5 9.5h11q8 0 19 -6.5t15 -13.5l108 -192q13 -22 35 -22t35 22l109 192q4 7 15 13.5t19 6.5h12zM171 811
q-10 -10 -24.5 -9.5t-24.5 10.5t-10 24t10 24l123 123q11 11 28 11t28 -11l123 -123q10 -10 10.5 -24t-9.5 -24t-25 -10.5t-25 9.5l-74 74q-11 11 -28 11t-28 -11z" />
    <glyph glyph-name="ycircumflex" unicode="&#x177;" 
d="M236 179q11 -26 37 -26t37 26l103 244q4 9 15.5 16.5t21.5 7.5h10q14 0 21 -10.5t2 -23.5l-270 -637q-4 -9 -15.5 -16.5t-21.5 -7.5h-9q-14 0 -21 10.5t-2 23.5l86 202q2 5 2 16t-2 16l-166 393q-5 13 2 23.5t21 10.5h10q11 0 22 -7.5t15 -17.5zM171 563
q-10 -10 -24.5 -9.5t-24.5 10.5t-10 24t10 24l123 123q11 11 28 11t28 -11l123 -123q10 -10 10.5 -24t-9.5 -24t-25 -10.5t-25 9.5l-74 74q-11 11 -28 11t-28 -11z" />
    <glyph glyph-name="Ydieresis" unicode="&#x178;" 
d="M463 695q12 0 17.5 -9.5t-0.5 -20.5l-169 -309q-5 -10 -5 -19v-304q0 -13 -10 -23t-23 -10t-23 10t-10 23v305q0 9 -5 19l-168 308q-6 11 -0.5 20.5t18.5 9.5h11q8 0 19 -6.5t15 -13.5l108 -192q13 -22 35 -22t35 22l109 192q4 7 15 13.5t19 6.5h12zM388 907q22 0 37 -15
t15 -37q0 -21 -15 -36t-37 -15q-21 0 -36 15t-15 36q0 22 15 37t36 15zM159 907q22 0 37 -15t15 -37q0 -21 -15 -36t-37 -15q-21 0 -36 15t-15 36q0 22 15 37t36 15z" />
    <glyph glyph-name="Zacute" unicode="&#x179;" 
d="M464 695q14 0 23.5 -9.5t9.5 -23.5v-21q0 -11 -7 -22l-321 -491q-14 -22 -2.5 -42t36.5 -20h261q14 0 23.5 -10t9.5 -23t-9.5 -23t-23.5 -10h-381q-13 0 -23 10t-10 23v21q0 12 7 22l321 491q14 22 2.5 42t-36.5 20h-261q-13 0 -23 9.5t-10 23.5t10 23.5t23 9.5h381z
M235 771q-10 -10 -24.5 -9.5t-24.5 10.5t-10 24t10 24l126 127q11 10 25 10t25 -10q10 -10 9.5 -24.5t-10.5 -24.5z" />
    <glyph glyph-name="zacute" unicode="&#x17a;" 
d="M463 447q14 0 24 -10t10 -24v-17q0 -5 -5 -15.5t-9 -14.5l-260 -227q-22 -19 -12 -44.5t39 -25.5h213q14 0 24 -10t10 -24q0 -15 -10 -25t-24 -10h-378q-15 0 -25 10t-10 25v16q0 5 5 15.5t9 14.5l260 227q22 19 12 44.5t-39 25.5h-212q-15 0 -25 10t-10 25q0 14 10 24
t25 10h378zM235 523q-10 -10 -24.5 -9.5t-24.5 10.5t-10 24t10 24l126 127q10 10 24.5 10t25.5 -10q10 -10 9.5 -24.5t-10.5 -24.5z" />
    <glyph glyph-name="Zdotaccent" unicode="&#x17b;" 
d="M464 695q14 0 23.5 -9.5t9.5 -23.5v-21q0 -11 -7 -22l-321 -491q-14 -22 -2.5 -42t36.5 -20h261q14 0 23.5 -10t9.5 -23t-9.5 -23t-23.5 -10h-381q-13 0 -23 10t-10 23v21q0 12 7 22l321 491q14 22 2.5 42t-36.5 20h-261q-13 0 -23 9.5t-10 23.5t10 23.5t23 9.5h381z
M273 917q22 0 37 -15t15 -37q0 -21 -15 -36t-37 -15q-21 0 -36 15t-15 36q0 22 15 37t36 15z" />
    <glyph glyph-name="zdotaccent" unicode="&#x17c;" 
d="M463 447q14 0 24 -10t10 -24v-17q0 -5 -5 -15.5t-9 -14.5l-260 -227q-22 -19 -12 -44.5t39 -25.5h213q14 0 24 -10t10 -24q0 -15 -10 -25t-24 -10h-378q-15 0 -25 10t-10 25v16q0 5 5 15.5t9 14.5l260 227q22 19 12 44.5t-39 25.5h-212q-15 0 -25 10t-10 25q0 14 10 24
t25 10h378zM273 669q22 0 37 -15t15 -37q0 -21 -15 -36t-37 -15q-21 0 -36 15t-15 36q0 22 15 37t36 15z" />
    <glyph glyph-name="Zcaron" unicode="&#x17d;" 
d="M464 695q14 0 23.5 -9.5t9.5 -23.5v-21q0 -11 -7 -22l-321 -491q-14 -22 -2.5 -42t36.5 -20h261q14 0 23.5 -10t9.5 -23t-9.5 -23t-23.5 -10h-381q-13 0 -23 10t-10 23v21q0 12 7 22l321 491q14 22 2.5 42t-36.5 20h-261q-13 0 -23 9.5t-10 23.5t10 23.5t23 9.5h381z
M122 938q-10 10 -10 24t10 25q10 10 24 10t25 -10l74 -74q11 -11 28 -11t28 11l74 74q11 10 25 10t25 -10q10 -10 9.5 -24.5t-10.5 -24.5l-123 -123q-11 -11 -28 -11t-28 11z" />
    <glyph glyph-name="zcaron" unicode="&#x17e;" 
d="M463 447q14 0 24 -10t10 -24v-17q0 -5 -5 -15.5t-9 -14.5l-260 -227q-22 -19 -12 -44.5t39 -25.5h213q14 0 24 -10t10 -24q0 -15 -10 -25t-24 -10h-378q-15 0 -25 10t-10 25v16q0 5 5 15.5t9 14.5l260 227q22 19 12 44.5t-39 25.5h-212q-15 0 -25 10t-10 25q0 14 10 24
t25 10h378zM122 690q-10 10 -10 24t10 25q10 10 24 10t25 -10l74 -74q11 -11 28 -11t28 11l74 74q11 10 25 10t25 -10q10 -10 9.5 -24.5t-10.5 -24.5l-123 -123q-11 -11 -28 -11t-28 11z" />
    <glyph glyph-name="AEacute" unicode="&#x1fc;" 
d="M313 0q-17 0 -28.5 12t-11.5 28v101q0 17 -11.5 28.5t-28.5 11.5h-29q-13 0 -24.5 -9t-14.5 -21l-32 -121q-3 -12 -14.5 -21t-24.5 -9h-5q-15 0 -23 10.5t-4 24.5l170 630q3 12 14.5 21t24.5 9h193q14 0 23.5 -9.5t9.5 -23.5t-9.5 -23.5t-23.5 -9.5h-82q-16 0 -28 -11.5
t-12 -28.5v-169q0 -16 12 -28t28 -12h14q13 0 22.5 -9.5t9.5 -22.5t-9.5 -23t-22.5 -10h-14q-16 0 -28 -11.5t-12 -28.5v-169q0 -16 12 -28t28 -12h82q14 0 23.5 -10t9.5 -23t-9.5 -23t-23.5 -10h-151zM201 287q-5 -16 4.5 -28t26.5 -12h1q17 0 28.5 11.5t11.5 28.5v117
q0 16 -17.5 18.5t-22.5 -13.5zM235 771q-10 -10 -24.5 -9.5t-24.5 10.5t-10 24t10 24l126 127q11 10 25 10t25 -10q10 -10 9.5 -24.5t-10.5 -24.5z" />
    <glyph glyph-name="aeacute" unicode="&#x1fd;" 
d="M440 118q4 8 12.5 11t16.5 -1l4 -2q26 -15 14 -38q-39 -88 -110 -88q-63 0 -90 41q-4 7 -15 7t-16 -6q-37 -49 -113 -42q-41 3 -67 34.5t-26 87.5q0 109 86 135q29 10 89 3q14 -2 14 12q-2 46 -19 76t-47 30q-41 0 -57 -40q-3 -7 -11.5 -11t-15.5 -1l-9 3q-32 10 -21 36
q30 70 93 81t107 -46q5 -6 13.5 -4.5t13.5 8.5q28 43 88 43q36 0 62.5 -22.5t39 -58t17.5 -72t4 -72.5q0 -15 -10.5 -24t-26.5 -9h-117q-17 0 -26 -9.5t-6 -25.5q6 -38 25.5 -61.5t45.5 -23.5q38 0 58 49zM310 292q-2 -15 7 -24.5t25 -9.5h53q15 0 23.5 9t7.5 25
q-9 86 -52 86q-25 0 -42 -23.5t-22 -62.5zM119 125q0 -40 30 -52.5t60 7t30 56.5v43q0 9 -11 11q-109 7 -109 -65zM235 523q-10 -10 -24.5 -9.5t-24.5 10.5t-10 24t10 24l126 127q10 10 24.5 10t25.5 -10q10 -10 9.5 -24.5t-10.5 -24.5z" />
    <glyph glyph-name="Oslashacute" unicode="&#x1fe;" 
d="M190 14q-17 6 -22 -8l-34 -81q-4 -10 -15 -17.5t-22 -7.5h-10q-14 0 -21 10.5t-2 23.5l42 102q4 8 1.5 22t-7.5 21q-50 60 -50 134v268q0 88 66 151t155 63q44 0 84 -17q6 -2 13 0.5t9 7.5l36 84q4 10 15 17.5t22 7.5h10q14 0 21 -10.5t2 -23.5l-43 -104q-4 -8 -1.5 -22
t7.5 -21q51 -61 51 -133v-268q0 -88 -68 -151t-158 -63q-42 0 -81 15zM428 213v268q0 39 -20 71q-7 11 -14 -2l-189 -457q-5 -11 5 -16q29 -12 61 -12q62 0 109.5 43.5t47.5 104.5zM271 629q-62 0 -107 -43.5t-45 -104.5v-268q0 -39 19 -72q2 -4 6 -3.5t6 5.5l191 455
q5 13 -7 18q-32 13 -63 13zM235 771q-10 -10 -24.5 -9.5t-24.5 10.5t-10 24t10 24l126 127q11 10 25 10t25 -10q10 -10 9.5 -24.5t-10.5 -24.5z" />
    <glyph glyph-name="oslashacute" unicode="&#x1ff;" 
d="M199 12q-14 6 -22 -6l-41 -64q-5 -6 -16 -12t-18 -6h-15q-13 0 -18.5 10t1.5 21l44 68q6 9 3.5 25t-10.5 25q-57 65 -57 150q0 93 65.5 158.5t157.5 65.5q44 0 84 -17q18 -6 26 7l28 44q5 6 16 12t18 6h15q13 0 18.5 -10.5t-1.5 -20.5l-36 -55q-5 -8 -3 -24t9 -24
q50 -63 50 -142q0 -92 -65.5 -157.5t-158.5 -65.5q-39 0 -74 12zM273 378q-64 0 -109 -45.5t-45 -109.5q0 -55 36 -98q14 -17 26 2l149 229q7 9 -4 13q-26 9 -53 9zM273 69q64 0 109.5 45t45.5 109q0 50 -29 90q-12 17 -23 0l-148 -229q-5 -6 4 -10q22 -5 41 -5zM235 523
q-10 -10 -24.5 -9.5t-24.5 10.5t-10 24t10 24l126 127q10 10 24.5 10t25.5 -10q10 -10 9.5 -24.5t-10.5 -24.5z" />
    <glyph glyph-name="Scommaaccent" unicode="&#x218;" 
d="M272 380q96 -14 160.5 -64.5t64.5 -125.5q0 -79 -67 -134.5t-158 -55.5q-80 0 -142.5 46t-76.5 114q-3 16 5.5 23.5t26.5 7.5q9 0 23 -13t17 -22q14 -39 55 -64t92 -25q63 0 109.5 36t46.5 87q0 49 -45 82t-111 42q-94 13 -158 64t-64 126q0 79 66 135t156 56
q81 0 145 -46t77 -114q6 -31 -31 -31q-9 0 -23.5 12.5t-17.5 22.5q-15 39 -57 64.5t-93 25.5q-62 0 -107.5 -37t-45.5 -88q0 -49 44.5 -82t108.5 -42zM325 -249q0 -14 -10 -24t-24 -10q-15 0 -25 10t-10 24v80q0 11 -10 16q-24 15 -24 44q0 21 15 36t36 15q22 0 37 -15
t15 -36v-140z" />
    <glyph glyph-name="scommaaccent" unicode="&#x219;" 
d="M273 257q112 0 168 -36.5t56 -94.5q0 -52 -65 -89t-159 -37q-76 0 -137 27.5t-79 68.5q-7 18 -0.5 24t27.5 6h17q4 0 11.5 -6t9.5 -9q13 -21 55 -34.5t96 -13.5q65 0 110.5 18.5t45.5 44.5q0 63 -156 63q-110 0 -166.5 36t-56.5 91q0 54 66 92.5t157 38.5q80 0 140 -28
t78 -71q12 -32 -28 -32h-17q-4 0 -11.5 6t-9.5 9q-13 22 -55.5 37.5t-96.5 15.5q-64 0 -109.5 -21t-45.5 -47q0 -59 155 -59zM325 -249q0 -14 -10 -24t-24 -10q-15 0 -25 10t-10 24v80q0 11 -10 16q-24 15 -24 44q0 21 15 36t36 15q22 0 37 -15t15 -36v-140z" />
    <glyph glyph-name="dotlessj" unicode="&#x237;" 
d="M182 378q-15 0 -25 10t-10 25q0 14 10 24t25 10h246q16 0 28 -11.5t12 -28.5v-432q0 -93 -66 -158.5t-158 -65.5q-106 0 -174 83q-22 27 10 46l7 4q8 4 20.5 0.5t18.5 -10.5q46 -54 118 -54q64 0 109.5 45.5t45.5 109.5v363q0 16 -11.5 28t-28.5 12h-177z" />
    <glyph glyph-name="circumflex" unicode="&#x2c6;" 
d="M171 563q-10 -10 -24.5 -9.5t-24.5 10.5t-10 24t10 24l123 123q11 11 28 11t28 -11l123 -123q10 -10 10.5 -24t-9.5 -24t-25 -10.5t-25 9.5l-74 74q-11 11 -28 11t-28 -11z" />
    <glyph glyph-name="caron" unicode="&#x2c7;" 
d="M122 690q-10 10 -10 24t10 25q10 10 24 10t25 -10l74 -74q11 -11 28 -11t28 11l74 74q11 10 25 10t25 -10q10 -10 9.5 -24.5t-10.5 -24.5l-123 -123q-11 -11 -28 -11t-28 11z" />
    <glyph glyph-name="breve" unicode="&#x2d8;" 
d="M333 661q1 5 7.5 11t11.5 6h17q38 0 30 -31q-11 -43 -46 -70.5t-80 -27.5t-79.5 28t-45.5 70q-8 31 30 31h17q5 0 11.5 -6t7.5 -11q14 -44 59 -44q21 0 37.5 12t22.5 32z" />
    <glyph glyph-name="dotaccent" unicode="&#x2d9;" 
d="M273 669q22 0 37 -15t15 -37q0 -21 -15 -36t-37 -15q-21 0 -36 15t-15 36q0 22 15 37t36 15z" />
    <glyph glyph-name="ring" unicode="&#x2da;" 
d="M273 758q54 0 92 -38t38 -92q0 -53 -38 -91t-92 -38q-53 0 -91 38t-38 91q0 54 38 92t91 38zM273 567q26 0 44 18t18 43q0 26 -18.5 44t-43.5 18t-43 -18t-18 -44t18 -43.5t43 -17.5z" />
    <glyph glyph-name="ogonek" unicode="&#x2db;" 
d="M234 33q11 8 24 8h39q7 0 12.5 -5.5t5.5 -12.5q0 -6 -7 -15t-13 -11q-31 -15 -38.5 -47t12.5 -57t57 -22q11 1 25.5 -7.5t18.5 -18.5q14 -35 -21 -40q-49 -8 -91.5 13t-62.5 67q-15 42 -5 81t44 67z" />
    <glyph glyph-name="tilde" unicode="&#x2dc;" 
d="M246 611q-5 14 -20 21t-30 0q-28 -12 -19 -53q4 -11 -8 -17l-13 -4q-28 -11 -35 16q-7 34 7.5 65t47.5 43q35 13 71 -0.5t53 -50.5q8 -16 21.5 -23t26.5 -1q20 9 23 23t-3 29q-4 13 9 18l14 6q28 11 34 -15q8 -39 -4 -70t-49 -44q-34 -15 -70.5 -1.5t-55.5 58.5z" />
    <glyph glyph-name="hungarumlaut" unicode="&#x2dd;" 
d="M253 523q-10 -10 -24.5 -9.5t-24.5 10.5t-10 24t10 24l126 127q10 10 25 10t25 -10t9.5 -24.5t-10.5 -24.5zM463 523q-10 -10 -24.5 -9.5t-24.5 10.5t-10 24t10 24l126 127q10 10 25 10t25 -10t9.5 -24.5t-10.5 -24.5z" />
    <glyph glyph-name="Wgrave" unicode="&#x1e80;" 
d="M332 267q5 -15 20.5 -14t17.5 16l53 392q2 14 14 24t26 10t22.5 -10t6.5 -24l-98 -633q-1 -11 -11 -19.5t-21 -8.5q-12 0 -22.5 8.5t-12.5 19.5l-24 106q-6 26 -32 26t-34 -25l-29 -110q-3 -10 -13 -17.5t-20 -7.5q-11 0 -20 8t-10 18l-90 635q-2 14 7 24t23 10t25.5 -10
t12.5 -24l52 -391q2 -16 18.5 -17t20.5 14l17 59q4 12 15.5 20.5t23.5 8.5h6q12 0 23.5 -9t14.5 -20zM361 820q10 -10 10.5 -24t-9.5 -24t-25 -10.5t-25 9.5l-126 127q-10 10 -10 24t10 25q10 10 24.5 10t24.5 -10z" />
    <glyph glyph-name="wgrave" unicode="&#x1e81;" 
d="M324 185q4 -17 21 -17t21 17l51 231q3 13 14.5 22t24.5 9h5q14 0 22.5 -10.5t4.5 -24.5l-98 -382q-3 -12 -14.5 -21t-24.5 -9h-5q-13 0 -24.5 9t-14.5 22l-14 63q-3 16 -19.5 16t-20.5 -16l-13 -62q-3 -13 -14.5 -22.5t-24.5 -9.5h-5q-13 0 -24.5 9t-14.5 21l-98 382
q-4 14 4.5 24.5t23.5 10.5h4q13 0 24.5 -9t14.5 -22l51 -231q4 -17 21 -17t21 17l15 64q2 12 13 20.5t23 8.5q11 0 22 -8.5t13 -20.5zM361 572q10 -10 10.5 -24t-9.5 -24t-25 -10.5t-25 9.5l-126 127q-10 10 -10 24t10 25q10 10 24.5 10t24.5 -10z" />
    <glyph glyph-name="Wacute" unicode="&#x1e82;" 
d="M332 267q5 -15 20.5 -14t17.5 16l53 392q2 14 14 24t26 10t22.5 -10t6.5 -24l-98 -633q-1 -11 -11 -19.5t-21 -8.5q-12 0 -22.5 8.5t-12.5 19.5l-24 106q-6 26 -32 26t-34 -25l-29 -110q-3 -10 -13 -17.5t-20 -7.5q-11 0 -20 8t-10 18l-90 635q-2 14 7 24t23 10t25.5 -10
t12.5 -24l52 -391q2 -16 18.5 -17t20.5 14l17 59q4 12 15.5 20.5t23.5 8.5h6q12 0 23.5 -9t14.5 -20zM235 771q-10 -10 -24.5 -9.5t-24.5 10.5t-10 24t10 24l126 127q11 10 25 10t25 -10q10 -10 9.5 -24.5t-10.5 -24.5z" />
    <glyph glyph-name="wacute" unicode="&#x1e83;" 
d="M324 185q4 -17 21 -17t21 17l51 231q3 13 14.5 22t24.5 9h5q14 0 22.5 -10.5t4.5 -24.5l-98 -382q-3 -12 -14.5 -21t-24.5 -9h-5q-13 0 -24.5 9t-14.5 22l-14 63q-3 16 -19.5 16t-20.5 -16l-13 -62q-3 -13 -14.5 -22.5t-24.5 -9.5h-5q-13 0 -24.5 9t-14.5 21l-98 382
q-4 14 4.5 24.5t23.5 10.5h4q13 0 24.5 -9t14.5 -22l51 -231q4 -17 21 -17t21 17l15 64q2 12 13 20.5t23 8.5q11 0 22 -8.5t13 -20.5zM235 523q-10 -10 -24.5 -9.5t-24.5 10.5t-10 24t10 24l126 127q10 10 24.5 10t25.5 -10q10 -10 9.5 -24.5t-10.5 -24.5z" />
    <glyph glyph-name="Wdieresis" unicode="&#x1e84;" 
d="M332 267q5 -15 20.5 -14t17.5 16l53 392q2 14 14 24t26 10t22.5 -10t6.5 -24l-98 -633q-1 -11 -11 -19.5t-21 -8.5q-12 0 -22.5 8.5t-12.5 19.5l-24 106q-6 26 -32 26t-34 -25l-29 -110q-3 -10 -13 -17.5t-20 -7.5q-11 0 -20 8t-10 18l-90 635q-2 14 7 24t23 10t25.5 -10
t12.5 -24l52 -391q2 -16 18.5 -17t20.5 14l17 59q4 12 15.5 20.5t23.5 8.5h6q12 0 23.5 -9t14.5 -20zM159 907q22 0 37 -15t15 -37q0 -21 -15 -36t-37 -15q-21 0 -36 15t-15 36q0 22 15 37t36 15zM388 907q22 0 37 -15t15 -37q0 -21 -15 -36t-37 -15q-21 0 -36 15t-15 36
q0 22 15 37t36 15z" />
    <glyph glyph-name="wdieresis" unicode="&#x1e85;" 
d="M324 185q4 -17 21 -17t21 17l51 231q3 13 14.5 22t24.5 9h5q14 0 22.5 -10.5t4.5 -24.5l-98 -382q-3 -12 -14.5 -21t-24.5 -9h-5q-13 0 -24.5 9t-14.5 22l-14 63q-3 16 -19.5 16t-20.5 -16l-13 -62q-3 -13 -14.5 -22.5t-24.5 -9.5h-5q-13 0 -24.5 9t-14.5 21l-98 382
q-4 14 4.5 24.5t23.5 10.5h4q13 0 24.5 -9t14.5 -22l51 -231q4 -17 21 -17t21 17l15 64q2 12 13 20.5t23 8.5q11 0 22 -8.5t13 -20.5zM159 659q22 0 37 -15t15 -37q0 -21 -15 -36t-37 -15q-21 0 -36 15t-15 36q0 22 15 37t36 15zM388 659q22 0 37 -15t15 -37q0 -21 -15 -36
t-37 -15q-21 0 -36 15t-15 36q0 22 15 37t36 15z" />
    <glyph glyph-name="Ygrave" unicode="&#x1ef2;" 
d="M463 695q12 0 17.5 -9.5t-0.5 -20.5l-169 -309q-5 -10 -5 -19v-304q0 -13 -10 -23t-23 -10t-23 10t-10 23v305q0 9 -5 19l-168 308q-6 11 -0.5 20.5t18.5 9.5h11q8 0 19 -6.5t15 -13.5l108 -192q13 -22 35 -22t35 22l109 192q4 7 15 13.5t19 6.5h12zM361 820
q10 -10 10.5 -24t-9.5 -24t-25 -10.5t-25 9.5l-126 127q-10 10 -10 24t10 25q10 10 24.5 10t24.5 -10z" />
    <glyph glyph-name="ygrave" unicode="&#x1ef3;" 
d="M236 179q11 -26 37 -26t37 26l103 244q4 9 15.5 16.5t21.5 7.5h10q14 0 21 -10.5t2 -23.5l-270 -637q-4 -9 -15.5 -16.5t-21.5 -7.5h-9q-14 0 -21 10.5t-2 23.5l86 202q2 5 2 16t-2 16l-166 393q-5 13 2 23.5t21 10.5h10q11 0 22 -7.5t15 -17.5zM361 572q10 -10 10.5 -24
t-9.5 -24t-25 -10.5t-25 9.5l-126 127q-10 10 -10 24t10 25q10 10 24.5 10t24.5 -10z" />
    <glyph glyph-name="quoteleft" unicode="&#x2018;" 
d="M308 482q0 -15 -10 -25t-24 -10q-15 0 -25 10t-10 25v179q0 14 10 24t25 10q14 0 24 -10t10 -24v-179z" />
    <glyph glyph-name="quoteright" unicode="&#x2019;" 
d="M308 482q0 -15 -10 -25t-24 -10q-15 0 -25 10t-10 25v179q0 14 10 24t25 10q14 0 24 -10t10 -24v-179z" />
    <glyph glyph-name="quotedblleft" unicode="&#x201c;" 
d="M229 482q0 -15 -10 -25t-24 -10q-15 0 -25 10t-10 25v179q0 14 10 24t25 10q14 0 24 -10t10 -24v-179zM387 482q0 -15 -10 -25t-24 -10q-15 0 -25 10t-10 25v179q0 14 10 24t25 10q14 0 24 -10t10 -24v-179z" />
    <glyph glyph-name="quotedblright" unicode="&#x201d;" 
d="M229 482q0 -15 -10 -25t-24 -10q-15 0 -25 10t-10 25v179q0 14 10 24t25 10q14 0 24 -10t10 -24v-179zM387 482q0 -15 -10 -25t-24 -10q-15 0 -25 10t-10 25v179q0 14 10 24t25 10q14 0 24 -10t10 -24v-179z" />
    <glyph glyph-name="dagger" unicode="&#x2020;" 
d="M152 434q-14 0 -23.5 10t-9.5 23t10 22.5t23 9.5h47q17 0 28.5 11.5t11.5 28.5v122q0 14 10 24t25 10q14 0 24 -10t10 -24v-122q0 -17 12 -28.5t28 -11.5h48q13 0 22.5 -9.5t9.5 -22.5t-9.5 -23t-22.5 -10h-48q-16 0 -28 -12t-12 -28v-359q0 -15 -10 -25t-24 -10
q-15 0 -25 10t-10 25v359q0 16 -11.5 28t-28.5 12h-47z" />
    <glyph glyph-name="bullet" unicode="&#x2022;" 
d="M353 256q0 -33 -23.5 -56.5t-56.5 -23.5q-32 0 -55 23.5t-23 56.5q0 32 23.5 55t54.5 23q33 0 56.5 -23t23.5 -55z" />
    <glyph glyph-name="franc" unicode="&#x20a3;" 
d="M-36 137q-13 0 -22.5 10t-9.5 23t9.5 22.5t22.5 9.5h46q16 0 28 12t12 28v413q0 17 12 28.5t28 11.5h374q14 0 23.5 -9.5t9.5 -23.5t-9.5 -23.5t-23.5 -9.5h-305q-17 0 -28.5 -11.5t-11.5 -28.5v-169q0 -16 11.5 -28t28.5 -12h123q13 0 22.5 -9.5t9.5 -22.5t-9.5 -23
t-22.5 -10h-123q-17 0 -28.5 -11.5t-11.5 -28.5v-33q0 -16 11.5 -28t28.5 -12h50q13 0 22.5 -9.5t9.5 -22.5t-9.5 -23t-22.5 -10h-50q-17 0 -28.5 -11.5t-11.5 -28.5v-62q0 -15 -10 -25t-24 -10q-15 0 -25 10t-10 25v62q0 17 -12 28.5t-28 11.5h-46z" />
    <glyph glyph-name="Euro" unicode="&#x20ac;" 
d="M83 234q-13 0 -23 10t-10 23t10 22.5t23 9.5h2q14 0 24 10t10 25v28q0 14 -10 24t-24 10h-2q-13 0 -23 10t-10 23t10 22.5t23 9.5h26q10 0 10 10v10q0 89 65 151.5t157 62.5q79 0 144 -39q11 -8 6 -18l-16 -31q-7 -14 -24 -6q-50 28 -110 28q-64 0 -108.5 -43t-44.5 -105
v-10q0 -10 10 -10h198q13 0 22.5 -9.5t9.5 -22.5t-9.5 -23t-22.5 -10h-168q-16 0 -28 -12t-12 -28v-17q0 -17 12 -28.5t28 -11.5h168q13 0 22.5 -9.5t9.5 -22.5t-9.5 -23t-22.5 -10h-198q-10 0 -10 -10v-10q0 -62 44.5 -105t108.5 -43q54 0 112 28q16 7 23 -8l13 -24
q8 -14 -7 -21q-79 -41 -141 -41q-92 0 -157 62.5t-65 151.5v10q0 10 -10 10h-26z" />
    <glyph glyph-name="minus" unicode="&#x2212;" 
d="M152 315q-14 0 -23.5 9.5t-9.5 23.5q0 13 10 22.5t23 9.5h244q13 0 22.5 -9.5t9.5 -22.5t-9.5 -23t-22.5 -10h-244z" />
    <glyph glyph-name="approxequal" unicode="&#x2248;" 
d="M241 344q-11 25 -36 36t-50 0q-39 -15 -39 -62q0 -12 6 -29q2 -8 -5 -11l-43 -17q-12 -4 -15 8q-10 26 -10 50q0 40 22 73.5t60 49.5q50 17 101.5 -2.5t70.5 -70.5q10 -26 36 -38t49 -2q41 16 41 64q0 6 -6 28q-4 7 4 11l47 19q11 4 15 -8q8 -27 8 -48q0 -41 -23.5 -76.5
t-60.5 -51.5q-52 -19 -100 2.5t-72 74.5zM241 124q-11 25 -36 36t-50 0q-39 -15 -39 -62q0 -12 6 -29q2 -8 -5 -11l-43 -17q-12 -4 -15 8q-10 26 -10 50q0 40 22 73.5t60 49.5q50 17 101.5 -2.5t70.5 -70.5q10 -26 36 -38t49 -2q41 16 41 64q0 6 -6 28q-4 7 4 11l47 19
q11 4 15 -8q8 -27 8 -48q0 -41 -23.5 -76.5t-60.5 -51.5q-52 -19 -100 2.5t-72 74.5z" />
    <glyph glyph-name="notequal" unicode="&#x2260;" 
d="M267 156q-8 0 -19 -6t-15 -13l-31 -49q-4 -7 -15 -13t-19 -6h-13q-13 0 -18.5 9.5t1.5 20.5l21 34q5 8 1 15.5t-13 7.5q-12 0 -20 8t-8 20v5q0 13 10 22.5t23 9.5h41q8 0 19 6t15 13l9 14q7 11 0.5 22t-19.5 11h-65q-14 0 -23.5 9.5t-9.5 23.5q0 13 10 22.5t23 9.5h123
q8 0 19 6t15 13l36 57q4 7 15 13t19 6h14q12 0 17.5 -9.5t-1.5 -20.5l-25 -40q-5 -8 -0.5 -16.5t14.5 -8.5q13 0 21.5 -8.5t8.5 -21.5v-2q0 -13 -9.5 -23t-22.5 -10h-47q-8 0 -19 -6t-15 -13l-8 -14q-7 -11 -1.5 -22t19.5 -11h71q13 0 22.5 -9.5t9.5 -22.5t-9.5 -23
t-22.5 -10h-129z" />
    <glyph glyph-name="lessequal" unicode="&#x2264;" 
d="M152 32q-14 0 -23.5 10t-9.5 23t10 22.5t23 9.5h66q20 0 25 19.5t-12 29.5l-92 53q-7 4 -13.5 15.5t-6.5 19.5v24q0 8 6 19t13 15l258 157q11 7 21.5 1.5t10.5 -18.5v-16q0 -7 -6 -18t-12 -16l-162 -103q-20 -13 -20 -34t20 -34l161 -102q7 -4 13 -15t6 -19v-10
q0 -13 -9.5 -23t-22.5 -10h-244z" />
    <glyph glyph-name="greaterequal" unicode="&#x2265;" 
d="M396 97q13 0 22.5 -9.5t9.5 -22.5t-9.5 -23t-22.5 -10h-244q-14 0 -23.5 10t-9.5 23v10q0 8 6 19t13 15l161 102q20 13 20 34t-20 34l-162 103q-6 5 -12 16t-6 18v16q0 13 10.5 18.5t21.5 -1.5l258 -157q7 -4 13 -15t6 -19v-24q0 -8 -6.5 -19.5t-13.5 -15.5l-92 -53
q-17 -10 -12 -29.5t26 -19.5h66z" />
    <glyph glyph-name="commaaccent" unicode="&#xf6c3;" 
d="M325 -249q0 -14 -10 -24t-24 -10q-15 0 -25 10t-10 24v80q0 11 -10 16q-24 15 -24 44q0 21 15 36t36 15q22 0 37 -15t15 -36v-140z" />
    <glyph glyph-name="NULL" horiz-adv-x="0" 
 />
    <glyph glyph-name="Q.alt" 
d="M497 481v-69q0 -88 -67 -151t-157 -63q-8 0 -24 2q-5 0 -9 -4l-78 -77q-3 -3 -1 -7.5t7 -4.5q40 0 81 -11q134 -47 218 -21q11 3 20.5 -4t9.5 -17v-6q0 -12 -8.5 -23t-20.5 -14q-90 -23 -171 0q-134 47 -217 21q-11 -3 -20.5 4t-9.5 18v16q0 17 12 29l91 89q9 10 6.5 26
t-14.5 24q-44 30 -69.5 75.5t-25.5 98.5v69q0 88 67 151t156 63q90 0 157 -63t67 -151zM428 412v69q0 61 -46.5 104.5t-108.5 43.5t-108 -43.5t-46 -104.5v-69q0 -61 46 -105t108 -44t108.5 44t46.5 105z" />
  </font>
</defs>
</svg>
