<?xml version="1.0" standalone="no"?>
<!DOCTYPE svg PUBLIC "-//W3C//DTD SVG 1.1//EN" "http://www.w3.org/Graphics/SVG/1.1/DTD/svg11.dtd" >
<svg xmlns="http://www.w3.org/2000/svg" xmlns:xlink="http://www.w3.org/1999/xlink" version="1.1">
<metadata>
Created by FontForge 20170731 at Sat Feb  6 19:25:36 2016
 By Aleksey,,,
Copyright (c) 2016 by Valerio Dell'Edera. All rights reserved.
</metadata>
<defs>
<font id="Monique-Bold" horiz-adv-x="547" >
  <font-face 
    font-family="Monique"
    font-weight="400"
    font-stretch="normal"
    units-per-em="1000"
    panose-1="2 0 0 9 0 0 0 0 0 0"
    ascent="800"
    descent="-200"
    x-height="447"
    cap-height="695"
    bbox="-108 -268 1512 1001"
    underline-thickness="50"
    underline-position="-200"
    unicode-range="U+000D-FB06"
  />
<missing-glyph 
 />
    <glyph glyph-name="ff" unicode="ff" horiz-adv-x="1094" 
d="M999 303h-231v-303h-99v303h-403v-303h-99v303h-117v99h117v107q0 68 48.5 117t116.5 49q71 0 118 -56t47 -128h-100q0 31 -18 57.5t-47 26.5q-27 0 -46.5 -19.5t-19.5 -46.5v-107h403v107q0 68 48.5 117t116.5 49q71 0 118 -56t47 -128h-100q0 31 -18 57.5t-47 26.5
q-27 0 -46.5 -19.5t-19.5 -46.5v-107h231v-99z" />
    <glyph glyph-name="fi" unicode="fi" horiz-adv-x="1094" 
d="M826 100h173v-100h-447v100h174v203h-460v-303h-99v303h-117v99h117v107q0 68 48.5 117t116.5 49q71 0 118 -56t47 -128h-100q0 31 -18 57.5t-47 26.5q-27 0 -46.5 -19.5t-19.5 -46.5v-107h560v-302zM841 582q0 -28 -19 -47t-47 -19q-27 0 -46 19.5t-19 46.5t19 46t46 19
t46.5 -19t19.5 -46z" />
    <glyph glyph-name="ffi" unicode="ffi" horiz-adv-x="1641" 
d="M1339 100h173v-100h-447v100h174v203h-460v-303h-99v303h-403v-303h-99v303h-117v99h117v107q0 68 48.5 117t116.5 49q71 0 118 -56t47 -128h-100q0 31 -18 57.5t-47 26.5q-27 0 -46.5 -19.5t-19.5 -46.5v-107h403v107q0 68 48.5 117t116.5 49q71 0 118 -56t47 -128h-100
q0 31 -18 57.5t-47 26.5q-27 0 -46.5 -19.5t-19.5 -46.5v-107h560v-302zM1354 582q0 -28 -19 -47t-47 -19q-27 0 -46 19.5t-19 46.5q0 26 19.5 45.5t45.5 19.5q27 0 46.5 -19t19.5 -46z" />
    <glyph glyph-name="s_t" unicode="st" horiz-adv-x="1094" 
d="M999 447v-100h-231v-182q0 -27 19.5 -46t46.5 -19q29 0 47 26.5t18 57.5h100q0 -72 -47 -128t-118 -56q-68 0 -116.5 48.5t-48.5 116.5v182h-396q-18 0 -42.5 -2t-53 -12t-28.5 -25q0 -35 124 -35q38 0 73.5 -6t71.5 -20.5t57.5 -43.5t21.5 -69q0 -46 -41.5 -78t-90 -44
t-92.5 -12q-46 0 -95.5 15.5t-88.5 52t-39 84.5h99q0 -30 43 -43.5t81 -13.5q34 0 79.5 9t45.5 30t-36 29t-87 11t-102 11.5t-87 39t-36 83.5q0 46 40.5 79.5t89 46.5t93.5 13h396v117h99v-117h231z" />
    <glyph glyph-name="c_k" unicode="ck" horiz-adv-x="1094" 
d="M653 675v-412l235 184h147l-210 -167l190 -280h-115l-149 221q-16 -13 -49 -40t-49 -40v-141h-100v575h-6q-52 0 -90 -36t-38 -88q0 -32 15 -59q43 -36 70 -99l-96 -40q-17 40 -51 67t-75 27q-53 0 -90.5 -35.5t-37.5 -88.5q0 -52 38 -87.5t90 -35.5q41 0 75 27t51 67
l96 -40q-29 -68 -89.5 -111t-132.5 -43q-94 0 -162.5 65t-68.5 158q0 103 82 171t183 50q0 98 66.5 164.5t164.5 66.5h106z" />
    <glyph glyph-name="f_t" unicode="ft" horiz-adv-x="1094" 
d="M999 402v-99h-231v-138q0 -27 19.5 -46t46.5 -19q29 0 47 26.5t18 57.5h100q0 -72 -47 -128t-118 -56q-68 0 -116.5 48.5t-48.5 116.5v138h-403v-303h-99v303h-117v99h117v107q0 68 48.5 117t116.5 49q71 0 118 -56t47 -128h-100q0 31 -18 57.5t-47 26.5
q-27 0 -46.5 -19.5t-19.5 -46.5v-107h403v162h99v-162h231z" />
    <glyph glyph-name=".notdef" 
 />
    <glyph glyph-name=".null" horiz-adv-x="0" 
 />
    <glyph glyph-name="nonmarkingreturn" horiz-adv-x="333" 
 />
    <glyph glyph-name="CR" unicode="&#xd;" 
 />
    <glyph glyph-name="CR" 
 />
    <glyph glyph-name="space" unicode=" " 
 />
    <glyph glyph-name="exclam" unicode="!" 
d="M215 695h101v-486h-101v486zM334 68q0 -28 -20 -48t-48 -20t-48 20t-20 48q0 27 20.5 47t47.5 20t47.5 -20t20.5 -47z" />
    <glyph glyph-name="quotedbl" unicode="&#x22;" 
d="M140 423v272h103v-272h-103zM289 423v272h103v-272h-103z" />
    <glyph glyph-name="numbersign" unicode="#" 
d="M234 147h-56l-43 -147h-105l42 147h-36v100h65q4 13 51 176h-51v100h80q3 10 21.5 74t29.5 98h108l-51 -172h58l50 172h105l-50 -172h44v-100h-73q-9 -30 -26 -88t-25 -88h59v-100h-88l-42 -147h-109zM207 247h58q41 135 53 176h-58z" />
    <glyph glyph-name="dollar" unicode="$" 
d="M215 790h101v-101q76 -15 128 -75t52 -137h-103q0 36 -21.5 66t-55.5 43v-199q76 -20 128 -68t52 -120t-53 -125.5t-127 -68.5v-100h-101v100q-77 15 -128 75t-51 138h103q0 -37 21 -66.5t55 -41.5v196q-77 19 -128 67t-51 122q0 71 53.5 125t125.5 70v100zM139 495
q0 -58 76 -86v177q-31 -10 -53.5 -35t-22.5 -56zM393 199q0 31 -22.5 52.5t-54.5 32.5v-174q32 11 54.5 34.5t22.5 54.5z" />
    <glyph glyph-name="percent" unicode="%" 
d="M135 65h-116l378 561h116zM112 472q-32 0 -54 22t-22 54t22 55t54 23t55 -23t23 -55t-23 -54t-55 -22zM419 65q-32 0 -54.5 22.5t-22.5 54.5t23 54.5t54 22.5t54 -22.5t23 -54.5t-23 -54.5t-54 -22.5z" />
    <glyph glyph-name="ampersand" unicode="&#x26;" 
d="M393 32q-62 -32 -126 -32q-90 0 -160.5 56t-70.5 143q0 88 78 149q-78 62 -78 148q0 87 71 143t160 56q92 0 160.5 -63t68.5 -154h-103q0 49 -38 83t-88 34q-47 0 -87.5 -27t-40.5 -72q0 -42 39.5 -70.5t83.5 -28.5h234v-397h-103v32zM267 100q47 0 86.5 27t39.5 72v99
h-126q-48 0 -88 -26.5t-40 -72.5t40 -72.5t88 -26.5z" />
    <glyph glyph-name="quotesingle" unicode="'" 
d="M215 423v272h103v-272h-103z" />
    <glyph glyph-name="parenleft" unicode="(" 
d="M438 752q-172 -170 -172 -400q0 -111 46 -216t127 -186l-76 -67q-95 95 -148.5 217t-53.5 252t54 252t148 217z" />
    <glyph glyph-name="parenright" unicode=")" 
d="M169 821q94 -95 148 -217t54 -252t-53.5 -252t-148.5 -217l-76 67q81 81 127 186t46 216q0 230 -172 400z" />
    <glyph glyph-name="asterisk" unicode="*" 
d="M101 318h115v106h100v-106h115v-100h-78l47 -88l-83 -46l-50 86q-34 -58 -50 -87l-85 47l47 88h-78v100z" />
    <glyph glyph-name="plus" unicode="+" 
d="M101 308h115v116h100v-116h115v-99h-115v-115h-100v115h-115v99z" />
    <glyph glyph-name="comma" unicode="," 
d="M214 -115v124q-32 16 -32 59q0 28 19.5 47.5t47.5 19.5t48 -19.5t20 -47.5v-183h-103z" />
    <glyph glyph-name="hyphen" unicode="-" 
d="M101 308h330v-99h-330v99z" />
    <glyph glyph-name="period" unicode="." 
d="M334 68q0 -28 -20 -48t-48 -20t-48 20t-20 48q0 27 20.5 47t47.5 20t47.5 -20t20.5 -47z" />
    <glyph glyph-name="slash" unicode="/" 
d="M137 -95h-111l369 885h111z" />
    <glyph glyph-name="zero" unicode="0" 
d="M266 695q57 0 103.5 -35.5t73 -90t40 -112.5t13.5 -110t-13.5 -110t-40 -112.5t-73 -90t-103.5 -35.5t-103.5 35.5t-73 90t-40 112.5t-13.5 110t13.5 110t40 112.5t73 90t103.5 35.5zM266 98q35 0 61.5 28t39.5 70.5t19.5 81t6.5 69.5t-6.5 69.5t-19.5 80.5t-39.5 70
t-61.5 28q-34 0 -60.5 -28t-40 -70t-20 -81t-6.5 -69t6.5 -69t20 -81t40 -70.5t60.5 -28.5z" />
    <glyph glyph-name="one" unicode="1" 
d="M496 0h-460v103h179v492h-114v100h217v-592h178v-103z" />
    <glyph glyph-name="two" unicode="2" 
d="M263 695q95 0 164 -63.5t69 -157.5q0 -65 -34 -112t-83.5 -74.5t-100.5 -52t-90.5 -58t-47.5 -77.5h356v-100h-460v81q0 73 37 124t89 78.5t104.5 51t89.5 57.5t37 82q0 53 -38.5 87t-91.5 34q-42 0 -79.5 -20.5t-56.5 -55.5l-87 50q33 58 94.5 92t128.5 34z" />
    <glyph glyph-name="three" unicode="3" 
d="M266 695q89 0 159.5 -56t70.5 -143q0 -86 -78 -148q78 -58 78 -149q0 -87 -70 -143t-160 -56q-93 0 -161.5 62.5t-68.5 154.5h103q0 -50 38.5 -83.5t88.5 -33.5q48 0 87.5 27t39.5 72q0 25 -10 44t-30 29.5t-40 17t-49.5 8.5t-49 2t-47.5 -1t-37 -1v99q6 0 30.5 -1
t40.5 -1t42.5 1t44.5 4.5t39.5 11t34.5 18t22 27.5t9 39q0 45 -40 72t-87 27q-50 0 -88.5 -33.5t-38.5 -83.5h-103q0 91 69 154t161 63z" />
    <glyph glyph-name="four" unicode="4" 
d="M496 148h-101v-148h-103v148h-256v86l265 461h94v-447h101v-100zM292 248v238q-23 -40 -70 -119t-70 -119h140z" />
    <glyph glyph-name="five" unicode="5" 
d="M496 213q0 -90 -68.5 -151.5t-159.5 -61.5q-94 0 -163 69t-69 163h103q0 -53 38 -92.5t91 -39.5q49 0 87 32t38 81q0 48 -35.5 80t-83.5 32h-238v370h460v-100h-357v-169h135q90 0 156 -62t66 -151z" />
    <glyph glyph-name="six" unicode="6" 
d="M36 311q0 74 13 137.5t42 121.5t85 91.5t134 33.5q39 0 84 -14.5t76 -37.5l-46 -78q-69 30 -111 30q-75 0 -119.5 -54.5t-52.5 -133.5q60 33 125 33q95 0 162.5 -62.5t67.5 -156.5q0 -91 -68.5 -156t-160.5 -65q-62 0 -109 27.5t-72.5 74t-37.5 99t-12 110.5zM262 337
q-49 0 -81.5 -37.5t-32.5 -86.5q0 -45 37.5 -77t82.5 -32q49 0 87 33.5t38 81.5q0 56 -37 87t-94 31z" />
    <glyph glyph-name="seven" unicode="7" 
d="M496 610l-230 -610h-105l224 595h-349v100h460v-85z" />
    <glyph glyph-name="eight" unicode="8" 
d="M496 496q0 -44 -20.5 -83t-56.5 -66q77 -59 77 -147t-69.5 -144t-159.5 -56q-91 0 -161 56t-70 144q0 93 76 147q-76 55 -76 149q0 87 70.5 143t160.5 56t159.5 -55.5t69.5 -143.5zM139 496q0 -45 40.5 -72t87.5 -27t86.5 27t39.5 72t-39.5 72t-86.5 27t-87.5 -27
t-40.5 -72zM267 100q47 0 86.5 27.5t39.5 72.5q0 44 -40 71t-86 27q-47 0 -87.5 -26.5t-40.5 -71.5t40 -72.5t88 -27.5z" />
    <glyph glyph-name="nine" unicode="9" 
d="M496 384q0 -74 -13 -137.5t-42 -121.5t-85 -91.5t-134 -33.5q-39 0 -84 14.5t-76 37.5l46 78q69 -30 111 -30q75 0 119.5 54.5t52.5 133.5q-60 -33 -125 -33q-95 0 -162.5 62.5t-67.5 156.5q0 91 68.5 156t160.5 65q62 0 109 -27.5t72.5 -74t37.5 -99t12 -110.5zM270 358
q49 0 81.5 37t32.5 87q0 45 -37.5 77t-82.5 32q-49 0 -87 -33.5t-38 -81.5q0 -56 37 -87t94 -31z" />
    <glyph glyph-name="colon" unicode=":" 
d="M334 87q0 -28 -20 -48t-48 -20t-48 20t-20 48q0 27 20.5 47t47.5 20t47.5 -20t20.5 -47zM334 374q0 -28 -20 -48t-48 -20t-48 20t-20 48t20 48t48 20t48 -20t20 -48z" />
    <glyph glyph-name="semicolon" unicode=";" 
d="M334 374q0 -28 -20 -48t-48 -20t-48 20t-20 48t20 48t48 20t48 -20t20 -48zM231 -96v123q-33 18 -33 60q0 27 20.5 47t47.5 20t47.5 -20t20.5 -47v-183h-103z" />
    <glyph glyph-name="less" unicode="&#x3c;" 
d="M431 381l-203 -130l203 -130v-114l-330 201v86l330 201v-114z" />
    <glyph glyph-name="equal" unicode="=" 
d="M101 371h330v-100h-330v100zM101 247h330v-99h-330v99z" />
    <glyph glyph-name="greater" unicode="&#x3e;" 
d="M101 495l330 -201v-86l-330 -201v114l203 130l-203 130v114z" />
    <glyph glyph-name="question" unicode="?" 
d="M216 171q0 61 20.5 95.5t72.5 71.5h-1q45 30 65 59t20 77q0 53 -38.5 87t-91.5 34q-40 0 -78 -24.5t-58 -60.5l-87 50q34 58 95.5 96.5t127.5 38.5q95 0 164 -63.5t69 -157.5q0 -56 -18.5 -97.5t-45 -65.5t-53 -44t-45 -43.5t-18.5 -52.5h-100zM334 68q0 -28 -20 -48
t-48 -20t-48 20t-20 48q0 27 20.5 47t47.5 20t47.5 -20t20.5 -47z" />
    <glyph glyph-name="at" unicode="@" 
d="M221 188q-2 5 -3.5 15t-3 15t-8 9t-18.5 4t-23 -11l-78 -8l-32 14q19 41 55 68.5t78 27.5q57 0 99 -41t42 -98q0 -4 -1 -19t-1.5 -27.5t1 -27t6.5 -23t14 -8.5q23 0 34 24t11 50q0 82 -61.5 144.5t-143.5 62.5q-69 0 -152 -65v127q76 39 152 39q127 0 217.5 -90.5
t90.5 -217.5q0 -69 -42 -118.5t-109 -49.5q-54 0 -96 46q-46 -31 -90 -31q-49 0 -79.5 24.5t-30.5 72.5q0 50 32 74.5t83 24.5q30 0 57 -7zM225 129q-8 1 -23 1q-48 0 -48 -27q0 -10 16 -10q36 0 55 26v10z" />
    <glyph glyph-name="A" unicode="A" 
d="M393 0l-45 171h-163l-45 -171h-108l188 694h94l188 -694h-109zM212 271h109q-49 191 -54 209z" />
    <glyph glyph-name="B" unicode="B" 
d="M36 695h240q87 0 153.5 -56.5t66.5 -142.5q0 -89 -73 -149q73 -58 73 -148q0 -86 -66.5 -142.5t-153.5 -56.5h-240v695zM393 199q0 44 -36 71.5t-81 27.5h-137v-198h137q45 0 81 27.5t36 71.5zM393 496q0 44 -36 71.5t-81 27.5h-137v-198h137q45 0 81 27.5t36 71.5z" />
    <glyph glyph-name="C" unicode="C" 
d="M265 100q55 0 91.5 42t36.5 98h103q0 -97 -67 -168.5t-164 -71.5q-93 0 -161 64t-68 157v253q0 93 68 157t161 64q97 0 164 -71.5t67 -168.5h-103q0 56 -36.5 98t-91.5 42q-51 0 -88.5 -35t-37.5 -86v-253q0 -51 37.5 -86t88.5 -35z" />
    <glyph glyph-name="D" unicode="D" 
d="M211 695q74 0 130 -28t89 -76.5t49.5 -109t16.5 -131.5t-16.5 -132t-49.5 -111t-89 -78.5t-130 -28.5h-175v695h175zM211 100q49 0 85.5 22t57 59t30 79t9.5 88q0 63 -16.5 116t-59 92t-106.5 39h-72v-495h72z" />
    <glyph glyph-name="E" unicode="E" 
d="M36 695h460v-100h-357v-198h184v-99h-184v-198h357v-100h-460v695z" />
    <glyph glyph-name="F" unicode="F" 
d="M36 695h460v-100h-357v-198h184v-99h-184v-298h-103v695z" />
    <glyph glyph-name="G" unicode="G" 
d="M246 397h250v-176q0 -93 -68.5 -157t-162.5 -64q-93 0 -161 64t-68 157v253q0 93 68 157t161 64q97 0 164 -71.5t67 -168.5h-103q0 56 -36.5 98t-91.5 42q-51 0 -88.5 -35t-37.5 -86v-253q0 -51 37.5 -86t88.5 -35t89.5 35t38.5 86v77h-147v99z" />
    <glyph glyph-name="H" unicode="H" 
d="M496 0h-103v298h-254v-298h-103v695h103v-298h254v298h103v-695z" />
    <glyph glyph-name="I" unicode="I" 
d="M36 695h460v-100h-180v-495h180v-100h-460v100h179v495h-179v100z" />
    <glyph glyph-name="J" unicode="J" 
d="M496 221q0 -91 -73 -156t-165 -65q-70 0 -131.5 37t-97.5 99l86 50q22 -36 62 -61t81 -25q51 0 93 35.5t42 85.5v374h-262v100h365v-474z" />
    <glyph glyph-name="K" unicode="K" 
d="M138 397h106q26 50 78.5 149t77.5 149h109l-181 -344l181 -351h-109l-153 297h-109v-297h-102v695h102v-298z" />
    <glyph glyph-name="L" unicode="L" 
d="M36 695h103v-595h357v-100h-460v695z" />
    <glyph glyph-name="M" unicode="M" 
d="M496 695v-695h-103v417q-28 -60 -82 -182h-90l-82 181v-416h-103v695h96l134 -307q24 56 69.5 159t64.5 148h96z" />
    <glyph glyph-name="N" unicode="N" 
d="M496 695v-695h-96l-261 482v-482h-103v695h96l261 -477v477h103z" />
    <glyph glyph-name="O" unicode="O" 
d="M496 220q0 -92 -70 -156.5t-162 -64.5t-160 65t-68 156v254q0 91 68 156t160 65t162 -64.5t70 -156.5v-254zM393 474q0 50 -39 85.5t-90 35.5q-50 0 -87.5 -35.5t-37.5 -85.5v-254q0 -50 37.5 -85.5t87.5 -35.5q51 0 90 35.5t39 85.5v254z" />
    <glyph glyph-name="P" unicode="P" 
d="M139 595v-238h136q49 0 83.5 35t34.5 84t-34.5 84t-83.5 35h-136zM275 695q90 0 155.5 -64.5t65.5 -154.5t-65.5 -154.5t-155.5 -64.5h-136v-257h-103v695h239z" />
    <glyph glyph-name="Q" unicode="Q" 
d="M353 -23q-10 24 -34 29q-25 -7 -54 -7q-92 0 -160 65t-68 156v254q0 91 68 156t160 65t162 -65t70 -156v-254q0 -96 -76 -161q8 -9 17.5 -29t21 -30t32.5 -10q14 0 28 6l38 -94q-41 -15 -69 -15q-44 0 -80 25t-56 66v-1zM394 474q0 50 -39 85.5t-90 35.5t-88 -35.5
t-37 -85.5v-254q0 -50 37 -85.5t88 -35.5t90 35.5t39 85.5v254z" />
    <glyph glyph-name="R" unicode="R" 
d="M275 695q90 0 155.5 -64.5t65.5 -154.5q0 -66 -37 -121.5t-98 -80.5l149 -274h-118l-139 257h-114v-257h-103v695h239zM139 595v-238h136q49 0 83.5 35t34.5 84t-34.5 84t-83.5 35h-136z" />
    <glyph glyph-name="S" unicode="S" 
d="M496 199q0 -87 -71 -143t-160 -56q-92 0 -160.5 63.5t-68.5 154.5h103q0 -49 38 -83t88 -34q47 0 87.5 26.5t40.5 71.5q0 43 -40.5 66.5t-90.5 31.5q-93 16 -159.5 65t-66.5 133q0 86 70 143t159 57q92 0 161.5 -63.5t69.5 -154.5h-103q0 50 -39 84t-89 34
q-47 0 -86.5 -27.5t-39.5 -72.5q0 -42 39 -65.5t89 -32.5q58 -10 106.5 -31t85.5 -65t37 -102z" />
    <glyph glyph-name="T" unicode="T" 
d="M36 695h460v-100h-180v-595h-101v595h-179v100z" />
    <glyph glyph-name="U" unicode="U" 
d="M496 695v-474q0 -92 -70 -156.5t-162 -64.5t-160 65t-68 156v474h103v-474q0 -50 37.5 -85.5t87.5 -35.5q51 0 90 35.5t39 85.5v474h103z" />
    <glyph glyph-name="V" unicode="V" 
d="M398 695h105l-189 -695h-95l-189 695h104l133 -474z" />
    <glyph glyph-name="W" unicode="W" 
d="M395 695h104l-107 -695h-85l-43 195l-52 -195h-81l-98 695h104l55 -417l28 96h91l28 -96z" />
    <glyph glyph-name="X" unicode="X" 
d="M510 0h-110l-134 242l-134 -242h-109l189 350l-190 345h108l136 -239q23 40 68 119.5t68 119.5h108l-190 -345z" />
    <glyph glyph-name="Y" unicode="Y" 
d="M316 341v-341h-101v341l-192 354h107l136 -239q23 40 68 119.5t68 119.5h108z" />
    <glyph glyph-name="Z" unicode="Z" 
d="M496 608l-332 -508h332v-100h-460v87l332 508h-332v100h460v-87z" />
    <glyph glyph-name="bracketleft" unicode="[" 
d="M148 790h236v-101h-135v-683h135v-101h-236v885z" />
    <glyph glyph-name="backslash" unicode="\" 
d="M26 790h111l369 -885h-111z" />
    <glyph glyph-name="bracketright" unicode="]" 
d="M384 -95h-236v101h136v683h-136v101h236v-885z" />
    <glyph glyph-name="asciicircum" unicode="^" 
d="M396 359l-130 208q-22 -35 -65 -104t-65 -104h-114l201 336h86l201 -336h-114z" />
    <glyph glyph-name="underscore" unicode="_" 
d="M36 103h460v-103h-460v103z" />
    <glyph glyph-name="grave" unicode="`" 
d="M250 464l-193 192l73 73l193 -192z" />
    <glyph glyph-name="a" unicode="a" 
d="M486 99v-99q-89 0 -137 60q-71 -60 -162 -60q-66 0 -107 32.5t-41 97.5q0 40 20 70.5t52 48t68 26t73 8.5q22 0 68 -4q-8 29 -33.5 48.5t-56.5 19.5q-29 0 -53 -19.5t-38 -48.5l-89 41q26 56 74 91.5t106 35.5q79 0 135.5 -56t56.5 -135v-110q0 -21 20.5 -34t43.5 -13z
M323 188q-44 4 -66 4q-27 0 -48 -4h1q-71 -13 -71 -53q0 -23 13.5 -30t39.5 -7q76 0 131 67v23z" />
    <glyph glyph-name="b" unicode="b" 
d="M262 447q93 0 158.5 -65.5t65.5 -158.5q0 -92 -66 -157.5t-158 -65.5q-70 0 -123 37v-37h-100v675h100v-266q57 38 123 38zM262 100q51 0 87.5 36t36.5 87q0 52 -36 88t-88 36q-51 0 -87 -36.5t-36 -87.5t36 -87t87 -36z" />
    <glyph glyph-name="c" unicode="c" 
d="M492 154q-29 -68 -89.5 -111t-132.5 -43q-94 0 -162.5 65t-68.5 158q0 94 68.5 159t162.5 65q72 0 132.5 -43t89.5 -111l-96 -40q-17 40 -51 67t-75 27q-52 0 -90 -36t-38 -88t38 -87.5t90 -35.5q41 0 75.5 26.5t50.5 66.5z" />
    <glyph glyph-name="d" unicode="d" 
d="M263 447q66 0 123 -38v266h100v-675h-100v37q-53 -37 -123 -37q-92 0 -158 65.5t-66 157.5q0 93 65.5 158.5t158.5 65.5zM263 100q51 0 87 36t36 87t-36 87.5t-87 36.5q-52 0 -88 -36t-36 -88q0 -51 36.5 -87t87.5 -36z" />
    <glyph glyph-name="e" unicode="e" 
d="M150 173q15 -33 45.5 -53t66.5 -20q58 0 100 52h62l42 -23q-33 -57 -87 -93t-117 -36q-92 0 -157.5 65.5t-65.5 157.5t65.5 158t157.5 66q94 0 158 -68.5t64 -163.5q0 -23 -4 -42h-330zM375 274q-15 32 -46 52.5t-67 20.5t-67 -20t-45 -53h225z" />
    <glyph glyph-name="f" unicode="f" 
d="M486 303h-232v-303h-99v303h-116v99h116v107q0 68 49 117t117 49q71 0 118 -56t47 -128h-100q0 30 -18 57t-47 27q-27 0 -47 -19.5t-20 -46.5v-107h232v-99z" />
    <glyph glyph-name="g" unicode="g" 
d="M386 37q-57 -37 -124 -37q-92 0 -157.5 65.5t-65.5 157.5t65.5 158t157.5 66q65 0 124 -38v38h100v-452q0 -92 -66 -157.5t-158 -65.5q-61 0 -115 35.5t-87 92.5l85 50q20 -33 51 -55.5t66 -22.5q124 0 124 165zM262 100q50 0 86 34.5t38 83.5v-1q0 54 -35 92t-89 38
q-51 0 -87 -36.5t-36 -87.5t36 -87t87 -36z" />
    <glyph glyph-name="h" unicode="h" 
d="M486 0h-100v223q0 52 -36 88t-88 36q-49 0 -86 -35.5t-37 -83.5v-228h-100v675h100v-266q57 38 123 38q93 0 158.5 -65.5t65.5 -158.5v-223z" />
    <glyph glyph-name="i" unicode="i" 
d="M312 100h174v-100h-447v100h173v247h-129v100h229v-347zM328 582q0 -28 -19 -47t-47 -19q-27 0 -46 19.5t-19 46.5t19 46t46 19t46.5 -19t19.5 -46z" />
    <glyph glyph-name="j" unicode="j" 
d="M127 447h332v-452q0 -92 -66 -158t-158 -66q-63 0 -117 36t-87 93l87 49q45 -78 117 -78q51 0 87.5 36.5t36.5 87.5v352h-232v100zM474 582q0 -28 -19 -47t-47 -19q-27 0 -46 19.5t-19 46.5t19 46t46 19t46.5 -19t19.5 -46z" />
    <glyph glyph-name="k" unicode="k" 
d="M311 280q32 -46 95.5 -140t95.5 -140h-116l-148 221q-6 -5 -98 -80v-141h-100v675h100v-412l235 184h145z" />
    <glyph glyph-name="l" unicode="l" 
d="M486 0h-447v100h173v477h-110v98h210v-575h174v-100z" />
    <glyph glyph-name="m" unicode="m" 
d="M349 447q56 0 96.5 -40.5t40.5 -96.5v-310h-98v310q0 16 -11.5 27.5t-27.5 11.5t-27 -11.5t-11 -27.5v-310h-100v310q0 15 -10.5 26t-25.5 11t-25.5 -11t-10.5 -26v-310h-100v447h100v-6q17 6 36 6q49 0 86 -31q37 31 88 31z" />
    <glyph glyph-name="n" unicode="n" 
d="M262 447q93 0 158.5 -65.5t65.5 -158.5v-223h-100v223q0 52 -36 88t-88 36q-51 0 -87 -36t-36 -87v-224h-100v447h100v-38q57 38 123 38z" />
    <glyph glyph-name="o" unicode="o" 
d="M262 447q93 0 158.5 -65.5t65.5 -158.5q0 -92 -66 -157.5t-158 -65.5t-157.5 65.5t-65.5 157.5t65.5 158t157.5 66zM262 100q51 0 87.5 36t36.5 87q0 52 -36 88t-88 36q-51 0 -87 -36.5t-36 -87.5t36 -87t87 -36z" />
    <glyph glyph-name="p" unicode="p" 
d="M486 224q0 -93 -65.5 -158.5t-158.5 -65.5q-70 0 -123 37v-265h-100v675h100v-38q57 38 123 38q92 0 158 -65.5t66 -157.5zM386 224q0 51 -36.5 87.5t-87.5 36.5q-49 0 -86 -35t-37 -84q0 -53 35 -91t88 -38q52 0 88 36t36 88z" />
    <glyph glyph-name="q" unicode="q" 
d="M39 224q0 92 66 157.5t158 65.5q66 0 123 -38v38h100v-675h-100v265q-53 -37 -123 -37q-93 0 -158.5 65.5t-65.5 158.5zM139 224q0 -52 36 -88t88 -36q53 0 88 38t35 91q0 49 -37 84t-86 35q-51 0 -87.5 -36.5t-36.5 -87.5z" />
    <glyph glyph-name="r" unicode="r" 
d="M367 347q-51 0 -87 -36t-36 -87v-124h153v-100h-358v100h105v247h-105v100h205v-38q55 38 123 38q59 0 125 -39l-47 -87q-43 26 -78 26z" />
    <glyph glyph-name="s" unicode="s" 
d="M486 134q0 -46 -41.5 -78t-90 -44t-92.5 -12q-46 0 -95.5 15.5t-88.5 52t-39 84.5h99q0 -30 43 -43.5t81 -13.5q34 0 79.5 9t45.5 30t-36 29t-87 11t-102 11.5t-87 39t-36 83.5q0 46 40.5 79.5t89 46.5t93.5 13q49 0 98 -15.5t87.5 -53t38.5 -88.5h-99q-1 31 -44.5 46.5
t-80.5 15.5q-32 0 -78 -10.5t-46 -33.5q0 -35 124 -35q38 0 73.5 -6t71.5 -20.5t57.5 -43.5t21.5 -69z" />
    <glyph glyph-name="t" unicode="t" 
d="M486 447v-100h-232v-182q0 -27 20 -46t47 -19q29 0 47 27t18 57h100q0 -72 -47 -128t-118 -56q-68 0 -117 48.5t-49 116.5v182h-116v100h116v117h99v-117h232z" />
    <glyph glyph-name="u" unicode="u" 
d="M263 0q-93 0 -158.5 65.5t-65.5 158.5v223h100v-223q0 -52 36 -88t88 -36q51 0 87 36t36 87v224h100v-447h-100v38q-57 -38 -123 -38z" />
    <glyph glyph-name="v" unicode="v" 
d="M388 447h107l-189 -447h-87l-189 447h107l125 -297z" />
    <glyph glyph-name="w" unicode="w" 
d="M386 447h104l-114 -447h-91l-22 102l-22 -102h-92l-115 447h106l57 -260l23 105h84l24 -106z" />
    <glyph glyph-name="x" unicode="x" 
d="M506 447l-185 -224l185 -223h-125l-119 147l-120 -147h-123l183 223l-183 224h123l120 -147l119 147h125z" />
    <glyph glyph-name="y" unicode="y" 
d="M388 447h107l-286 -675h-106l106 250q-34 82 -179 425h107l125 -297z" />
    <glyph glyph-name="z" unicode="z" 
d="M486 357l-296 -257h296v-100h-447v90l294 257h-294v100h447v-90z" />
    <glyph glyph-name="braceleft" unicode="{" 
d="M463 688q-57 0 -101.5 -37.5t-44.5 -93.5q0 -71 -18 -120t-67 -91q50 -41 67.5 -90t17.5 -122q0 -56 45.5 -91.5t102.5 -35.5v-102q-99 0 -174.5 65.5t-75.5 163.5q0 78 -34.5 119t-113.5 43v101q57 0 102.5 36t45.5 92v32q0 98 74 165.5t174 67.5v-102z" />
    <glyph glyph-name="bar" unicode="|" 
d="M215 790h101v-885h-101v885z" />
    <glyph glyph-name="braceright" unicode="}" 
d="M69 790q100 0 174 -67.5t74 -165.5v-32q0 -56 45.5 -92t102.5 -36v-101q-79 -2 -113.5 -43t-34.5 -119q0 -98 -75.5 -163.5t-174.5 -65.5v102q57 0 102.5 35.5t45.5 91.5q0 72 18 122t68 90q-51 40 -68.5 89t-17.5 122q0 56 -44.5 93.5t-101.5 37.5v102z" />
    <glyph glyph-name="asciitilde" unicode="~" 
d="M178 260q-18 0 -29.5 -11.5t-11.5 -28.5q0 -16 11 -51l-91 -36q-20 47 -20 88q0 60 39.5 98.5t99.5 38.5q42 0 72.5 -18.5t44 -40t30 -40t33.5 -18.5q16 0 26 12t10 28t-11 51l96 38q16 -43 16 -86q0 -60 -38 -101.5t-97 -41.5q-33 0 -59 12.5t-42 29.5t-28.5 34.5
t-25 30t-25.5 12.5z" />
    <glyph glyph-name="exclamdown" unicode="&#xa1;" 
d="M317 0h-101v486h101v-486zM198 627q0 28 20 48t49 20q27 0 47 -20.5t20 -47.5t-20 -47t-47 -20q-28 0 -48.5 19.5t-20.5 47.5z" />
    <glyph glyph-name="cent" unicode="&#xa2;" 
d="M216 7q-79 17 -129.5 79.5t-50.5 143.5t50.5 143t129.5 80v74h100v-70q61 -11 110.5 -53t76.5 -102l-99 -41q-29 70 -88 90v-242q60 22 88 91l98 -41q-26 -60 -75 -102.5t-111 -52.5v-70h-100v73zM142 230q0 -36 20.5 -67.5t53.5 -47.5v229q-34 -15 -54 -46t-20 -68z" />
    <glyph glyph-name="sterling" unicode="&#xa3;" 
d="M366 260h-125q-10 -20 -51.5 -70.5t-48.5 -86.5h355v-103h-460v84q0 52 21.5 91t64.5 85h-86v99h59q-59 61 -59 115q0 94 69 157.5t164 63.5q68 0 129 -34t95 -92l-87 -50q-20 35 -57.5 55.5t-79.5 20.5q-53 0 -91.5 -34t-38.5 -87q0 -22 15.5 -41.5t40.5 -41t34 -32.5
h137v-99z" />
    <glyph glyph-name="yen" unicode="&#xa5;" 
d="M101 247h114v24h-114v100h99l-177 324h107l136 -239q23 40 68 119.5t68 119.5h109l-179 -324h99v-100h-115v-24h115v-99h-115v-148h-101v148h-114v99z" />
    <glyph glyph-name="section" unicode="&#xa7;" 
d="M320 752q73 0 122 -57t49 -132h-103q0 28 -6 45v-570q0 -70 -50 -120t-120 -50q-73 0 -122 57t-49 132h104q0 -35 5 -46v571q0 70 50 120t120 50zM252 -16q28 23 28 54v597q-28 -21 -28 -53v-598z" />
    <glyph glyph-name="dieresis" unicode="&#xa8;" 
d="M374 661q28 0 48 -19.5t20 -48.5q0 -28 -20 -47.5t-48 -19.5t-47.5 19.5t-19.5 47.5t19.5 48t47.5 20zM158 661q28 0 48 -19.5t20 -48.5q0 -28 -20 -47.5t-48 -19.5t-47.5 19.5t-19.5 47.5t19.5 48t47.5 20z" />
    <glyph glyph-name="guillemotleft" unicode="&#xab;" 
d="M304 382l-161 -131l161 -131v-119l-268 208v84l268 208v-119zM497 382l-161 -131l161 -131v-119l-268 208v84l268 208v-119z" />
    <glyph glyph-name="macron" unicode="&#xaf;" 
d="M101 664h330v-99h-330v99z" />
    <glyph glyph-name="degree" unicode="&#xb0;" 
d="M266 705q58 0 99.5 -41.5t41.5 -99.5t-41.5 -99.5t-99.5 -41.5t-99.5 41.5t-41.5 99.5t41.5 99.5t99.5 41.5zM266 525q16 0 27.5 11.5t11.5 27.5t-11.5 27.5t-27.5 11.5t-27.5 -11.5t-11.5 -27.5t11.5 -27.5t27.5 -11.5z" />
    <glyph glyph-name="plusminus" unicode="&#xb1;" 
d="M101 132h115v77h-115v99h115v116h100v-116h115v-99h-115v-77h115v-99h-330v99z" />
    <glyph glyph-name="acute" unicode="&#xb4;" 
d="M92 537l193 192l73 -73l-193 -192z" />
    <glyph glyph-name="paragraph" unicode="&#xb6;" 
d="M496 695v-695h-103v595h-52v-595h-103v258q-82 10 -142 73t-60 145q0 90 65.5 154.5t155.5 64.5h239zM238 593q-43 -8 -71 -41t-28 -76t28 -76t71 -41v234z" />
    <glyph glyph-name="cedilla" unicode="&#xb8;" 
d="M306 77q70 -47 70 -120q0 -61 -44.5 -102t-105.5 -41q-38 0 -80 17l38 97q36 -12 46 -12q18 0 30 11.5t12 29.5q0 20 -17 33t-39 18v69h90z" />
    <glyph glyph-name="guillemotright" unicode="&#xbb;" 
d="M229 501l268 -208v-84l-268 -208v119l161 131l-161 131v119zM36 501l268 -208v-84l-268 -208v119l162 131l-162 131v119z" />
    <glyph glyph-name="questiondown" unicode="&#xbf;" 
d="M327 524q0 -61 -20.5 -95.5t-72.5 -71.5h1q-45 -30 -65 -59t-20 -77q0 -53 38 -87t92 -34q40 0 78 24.5t58 60.5l87 -50q-34 -58 -95.5 -96.5t-127.5 -38.5q-95 0 -164.5 63.5t-69.5 157.5q0 55 18.5 97t45 66.5t53.5 44.5t45.5 43.5t18.5 51.5h100zM209 627
q0 29 19.5 48.5t48.5 19.5q28 0 47.5 -20t19.5 -48t-19.5 -47.5t-47.5 -19.5t-48 19.5t-20 47.5z" />
    <glyph glyph-name="Agrave" unicode="&#xc0;" 
d="M393 0l-45 171h-163l-45 -171h-108l188 694h94l188 -694h-109zM212 271h109l-54 210zM326 699l-193 192l73 73l193 -192z" />
    <glyph glyph-name="Aacute" unicode="&#xc1;" 
d="M393 0l-45 171h-163l-45 -171h-108l188 694h94l188 -694h-109zM212 271h109l-54 210zM133 772l193 192l73 -73l-193 -192z" />
    <glyph glyph-name="Acircumflex" unicode="&#xc2;" 
d="M393 0l-45 171h-163l-45 -171h-108l188 694h94l188 -694h-109zM212 271h109l-54 210zM73 809l193 192l192 -192l-72 -72l-120 119l-120 -119z" />
    <glyph glyph-name="Atilde" unicode="&#xc3;" 
d="M393 0l-45 171h-163l-45 -171h-108l188 694h94l188 -694h-109zM212 271h109l-54 210zM223 825q-5 10 -16 10q-15 0 -15 -14q0 -1 10 -44l-78 -29q-22 38 -22 70q0 46 30 75.5t76 29.5q35 0 61 -19.5t39 -39.5t17 -20q14 0 14 18q0 10 -7 38l82 33q18 -48 18 -77
q0 -48 -30 -76t-79 -28q-67 0 -99 72z" />
    <glyph glyph-name="Adieresis" unicode="&#xc4;" 
d="M393 0l-45 171h-163l-45 -171h-108l188 694h94l188 -694h-109zM212 271h109l-54 210zM374 895q28 0 48 -19.5t20 -48.5q0 -27 -20.5 -47t-47.5 -20t-47 20t-20 47q0 28 19.5 48t47.5 20zM158 895q28 0 48 -19.5t20 -48.5q0 -27 -20.5 -47t-47.5 -20t-47 20t-20 47
q0 28 19.5 48t47.5 20z" />
    <glyph glyph-name="Aring" unicode="&#xc5;" 
d="M266 846q58 0 99.5 -41.5t41.5 -100.5q0 -77 -65 -118l160 -586h-109l-45 171h-163l-45 -171h-108l159 585q-66 42 -66 119q0 59 41.5 100.5t99.5 41.5zM212 271h109l-54 210zM266 666q16 0 27.5 11t11.5 27t-11.5 28t-27.5 12t-27.5 -11.5t-11.5 -28.5q0 -16 11.5 -27
t27.5 -11z" />
    <glyph glyph-name="AE" unicode="&#xc6;" 
d="M247 171h-62l-45 -171h-108l188 695h276v-100h-146v-198h81v-99h-81v-198h146v-100h-249v171zM247 271v137q-3 -9 -36 -137h36z" />
    <glyph glyph-name="Ccedilla" unicode="&#xc7;" 
d="M265 100q55 0 91.5 42t36.5 98h103q0 -73 -36.5 -133.5t-102.5 -87.5q15 -29 15 -62q0 -63 -43.5 -103t-106.5 -40q-36 0 -79 17l37 97q36 -12 47 -12q17 0 29 12t12 29q0 34 -32 44q-7 2 -30 7t-36 11q-60 26 -97 81t-37 121v253q0 93 68 157t161 64q97 0 164 -71.5
t67 -168.5h-103q0 56 -36.5 98t-91.5 42q-51 0 -88.5 -35t-37.5 -86v-253q0 -51 37.5 -86t88.5 -35z" />
    <glyph glyph-name="Egrave" unicode="&#xc8;" 
d="M36 695h460v-100h-357v-198h184v-99h-184v-198h357v-100h-460v695zM326 699l-193 192l73 73l193 -192z" />
    <glyph glyph-name="Eacute" unicode="&#xc9;" 
d="M36 695h460v-100h-357v-198h184v-99h-184v-198h357v-100h-460v695zM133 772l193 192l73 -73l-193 -192z" />
    <glyph glyph-name="Ecircumflex" unicode="&#xca;" 
d="M36 695h460v-100h-357v-198h184v-99h-184v-198h357v-100h-460v695zM73 809l193 192l192 -192l-72 -72l-120 119l-121 -119z" />
    <glyph glyph-name="Edieresis" unicode="&#xcb;" 
d="M36 695h460v-100h-357v-198h184v-99h-184v-198h357v-100h-460v695zM374 895q28 0 48 -19.5t20 -48.5q0 -27 -20.5 -47t-47.5 -20t-47 20t-20 47q0 28 19.5 48t47.5 20zM158 895q28 0 48 -19.5t20 -48.5q0 -27 -20.5 -47t-47.5 -20t-47 20t-20 47q0 28 19.5 48t47.5 20z
" />
    <glyph glyph-name="Igrave" unicode="&#xcc;" 
d="M36 695h460v-100h-180v-495h180v-100h-460v100h179v495h-179v100zM326 699l-193 192l73 73l193 -192z" />
    <glyph glyph-name="Iacute" unicode="&#xcd;" 
d="M36 695h460v-100h-180v-495h180v-100h-460v100h179v495h-179v100zM133 772l193 192l73 -73l-193 -192z" />
    <glyph glyph-name="Icircumflex" unicode="&#xce;" 
d="M36 695h460v-100h-180v-495h180v-100h-460v100h179v495h-179v100zM73 809l193 192l192 -192l-72 -72l-120 119l-121 -119z" />
    <glyph glyph-name="Idieresis" unicode="&#xcf;" 
d="M36 695h460v-100h-180v-495h180v-100h-460v100h179v495h-179v100zM374 895q28 0 48 -19.5t20 -48.5q0 -27 -20.5 -47t-47.5 -20t-47 20t-20 47q0 28 19.5 48t47.5 20zM158 895q28 0 48 -19.5t20 -48.5q0 -27 -20.5 -47t-47.5 -20t-47 20t-20 47q0 28 19.5 48t47.5 20z
" />
    <glyph glyph-name="Ntilde" unicode="&#xd1;" 
d="M496 695v-695h-96l-261 482v-482h-103v695h96l261 -477v477h103zM223 825q-5 10 -16 10q-15 0 -15 -14q0 -11 10 -44l-78 -29q-22 38 -22 70q0 46 30 75.5t76 29.5q35 0 61 -19.5t39 -39.5t17 -20q14 0 14 18q0 10 -7 38l82 33q18 -48 18 -77q0 -48 -30 -76t-79 -28
q-68 0 -99 72z" />
    <glyph glyph-name="Ograve" unicode="&#xd2;" 
d="M496 220q0 -92 -70 -156.5t-162 -64.5t-160 65t-68 156v254q0 91 68 156t160 65t162 -64.5t70 -156.5v-254zM393 474q0 50 -39 85.5t-90 35.5q-50 0 -87.5 -35.5t-37.5 -85.5v-254q0 -50 37.5 -85.5t87.5 -35.5q51 0 90 35.5t39 85.5v254zM326 699l-193 192l73 73
l193 -192z" />
    <glyph glyph-name="Oacute" unicode="&#xd3;" 
d="M496 220q0 -92 -70 -156.5t-162 -64.5t-160 65t-68 156v254q0 91 68 156t160 65t162 -64.5t70 -156.5v-254zM393 474q0 50 -39 85.5t-90 35.5q-50 0 -87.5 -35.5t-37.5 -85.5v-254q0 -50 37.5 -85.5t87.5 -35.5q51 0 90 35.5t39 85.5v254zM133 772l193 192l73 -73
l-193 -192z" />
    <glyph glyph-name="Ocircumflex" unicode="&#xd4;" 
d="M496 220q0 -92 -70 -156.5t-162 -64.5t-160 65t-68 156v254q0 91 68 156t160 65t162 -64.5t70 -156.5v-254zM393 474q0 50 -39 85.5t-90 35.5q-50 0 -87.5 -35.5t-37.5 -85.5v-254q0 -50 37.5 -85.5t87.5 -35.5q51 0 90 35.5t39 85.5v254zM73 809l193 192l192 -192
l-72 -72l-120 119l-121 -119z" />
    <glyph glyph-name="Otilde" unicode="&#xd5;" 
d="M496 220q0 -92 -70 -156.5t-162 -64.5t-160 65t-68 156v254q0 91 68 156t160 65t162 -64.5t70 -156.5v-254zM393 474q0 50 -39 85.5t-90 35.5q-50 0 -87.5 -35.5t-37.5 -85.5v-254q0 -50 37.5 -85.5t87.5 -35.5q51 0 90 35.5t39 85.5v254zM223 825q-5 10 -16 10
q-15 0 -15 -14q0 -11 10 -44l-78 -29q-22 38 -22 70q0 46 30 75.5t76 29.5q35 0 61 -19.5t39 -39.5t17 -20q14 0 14 18q0 10 -7 38l82 33q18 -48 18 -77q0 -48 -30 -76t-79 -28q-68 0 -99 72z" />
    <glyph glyph-name="Odieresis" unicode="&#xd6;" 
d="M496 220q0 -92 -70 -156.5t-162 -64.5t-160 65t-68 156v254q0 91 68 156t160 65t162 -64.5t70 -156.5v-254zM393 474q0 50 -39 85.5t-90 35.5q-50 0 -87.5 -35.5t-37.5 -85.5v-254q0 -50 37.5 -85.5t87.5 -35.5q51 0 90 35.5t39 85.5v254zM374 895q28 0 48 -19.5
t20 -48.5q0 -27 -20.5 -47t-47.5 -20t-47 20t-20 47q0 28 19.5 48t47.5 20zM158 895q28 0 48 -19.5t20 -48.5q0 -27 -20.5 -47t-47.5 -20t-47 20t-20 47q0 28 19.5 48t47.5 20z" />
    <glyph glyph-name="multiply" unicode="&#xd7;" 
d="M160 166l-71 71l106 106l-106 106l71 71l106 -106l105 106l71 -71l-106 -106l106 -106l-71 -71l-105 106z" />
    <glyph glyph-name="Oslash" unicode="&#xd8;" 
d="M138 -95h-111l69 167q-60 63 -60 148v254q0 91 68 156t160 65q41 0 84 -16q41 95 47 111h111l-70 -169q60 -63 60 -147v-254q0 -92 -70 -156.5t-162 -64.5q-39 0 -82 15zM393 474q0 16 -5 34q-28 -67 -83.5 -201t-83.5 -201q20 -7 43 -7q51 0 90 35.5t39 85.5v254z
M264 595q-50 0 -87.5 -35.5t-37.5 -85.5v-254q0 -16 5 -34l166 400q-22 9 -46 9z" />
    <glyph glyph-name="Ugrave" unicode="&#xd9;" 
d="M496 695v-474q0 -92 -70 -156.5t-162 -64.5t-160 65t-68 156v474h103v-474q0 -50 37.5 -85.5t87.5 -35.5q51 0 90 35.5t39 85.5v474h103zM326 699l-193 192l73 73l193 -192z" />
    <glyph glyph-name="Uacute" unicode="&#xda;" 
d="M496 695v-474q0 -92 -70 -156.5t-162 -64.5t-160 65t-68 156v474h103v-474q0 -50 37.5 -85.5t87.5 -35.5q51 0 90 35.5t39 85.5v474h103zM133 772l193 192l73 -73l-193 -192z" />
    <glyph glyph-name="Ucircumflex" unicode="&#xdb;" 
d="M496 695v-474q0 -92 -70 -156.5t-162 -64.5t-160 65t-68 156v474h103v-474q0 -50 37.5 -85.5t87.5 -35.5q51 0 90 35.5t39 85.5v474h103zM73 809l193 192l192 -192l-72 -72l-120 119l-121 -119z" />
    <glyph glyph-name="Udieresis" unicode="&#xdc;" 
d="M496 695v-474q0 -92 -70 -156.5t-162 -64.5t-160 65t-68 156v474h103v-474q0 -50 37.5 -85.5t87.5 -35.5q51 0 90 35.5t39 85.5v474h103zM374 895q28 0 48 -19.5t20 -48.5q0 -27 -20.5 -47t-47.5 -20t-47 20t-20 47q0 28 19.5 48t47.5 20zM158 895q28 0 48 -19.5
t20 -48.5q0 -27 -20.5 -47t-47.5 -20t-47 20t-20 47q0 28 19.5 48t47.5 20z" />
    <glyph glyph-name="Yacute" unicode="&#xdd;" 
d="M316 341v-341h-101v341l-192 354h107l136 -239q23 40 68 119.5t68 119.5h108zM133 772l193 192l73 -73l-193 -192z" />
    <glyph glyph-name="germandbls" unicode="&#xdf;" 
d="M212 100h120q22 0 39.5 10.5t17.5 31.5q0 34 -45 40q-61 9 -100 44t-39 94q0 35 17.5 66.5t46.5 51.5v71q0 27 -19 46.5t-46 19.5t-46 -19.5t-19 -46.5v-509h-100v509q0 68 48.5 117t116.5 49t116.5 -49t48.5 -117v-145q-24 -1 -45 -12t-21 -32q0 -17 19 -27t45.5 -18
t53.5 -20.5t46 -41.5t19 -74q0 -61 -46 -100t-108 -39h-120v100z" />
    <glyph glyph-name="agrave" unicode="&#xe0;" 
d="M486 99v-99q-89 0 -137 60q-71 -60 -162 -60q-66 0 -107 32.5t-41 97.5q0 40 20 70.5t52 48t68 26t73 8.5q22 0 68 -4q-8 29 -33.5 48.5t-56.5 19.5q-29 0 -53 -19.5t-38 -48.5l-89 41q26 56 74 91.5t106 35.5q79 0 135.5 -56t56.5 -135v-110q0 -21 20.5 -34t43.5 -13z
M323 188q-44 4 -66 4q-27 0 -48 -4h1q-71 -13 -71 -53q0 -23 13.5 -30t39.5 -7q76 0 131 67v23zM249 451l-187 186l70 71l188 -187z" />
    <glyph glyph-name="aacute" unicode="&#xe1;" 
d="M486 99v-99q-89 0 -137 60q-71 -60 -162 -60q-66 0 -107 32.5t-41 97.5q0 40 20 70.5t52 48t68 26t73 8.5q22 0 68 -4q-8 29 -33.5 48.5t-56.5 19.5q-29 0 -53 -19.5t-38 -48.5l-89 41q26 56 74 91.5t106 35.5q79 0 135.5 -56t56.5 -135v-110q0 -21 20.5 -34t43.5 -13z
M323 188q-44 4 -66 4q-27 0 -48 -4h1q-71 -13 -71 -53q0 -23 13.5 -30t39.5 -7q76 0 131 67v23zM133 521l188 187l70 -71l-187 -186z" />
    <glyph glyph-name="acircumflex" unicode="&#xe2;" 
d="M486 99v-99q-89 0 -137 60q-71 -60 -162 -60q-66 0 -107 32.5t-41 97.5q0 40 20 70.5t52 48t68 26t73 8.5q22 0 68 -4q-8 29 -33.5 48.5t-56.5 19.5q-29 0 -53 -19.5t-38 -48.5l-89 41q26 56 74 91.5t106 35.5q79 0 135.5 -56t56.5 -135v-110q0 -21 20.5 -34t43.5 -13z
M323 188q-44 4 -66 4q-27 0 -48 -4h1q-71 -13 -71 -53q0 -23 13.5 -30t39.5 -7q76 0 131 67v23zM75 558l187 186l187 -186l-71 -71l-116 116l-117 -116z" />
    <glyph glyph-name="atilde" unicode="&#xe3;" 
d="M486 99v-99q-89 0 -137 60q-71 -60 -162 -60q-66 0 -107 32.5t-41 97.5q0 40 20 70.5t52 48t68 26t73 8.5q22 0 68 -4q-8 29 -33.5 48.5t-56.5 19.5q-29 0 -53 -19.5t-38 -48.5l-89 41q26 56 74 91.5t106 35.5q79 0 135.5 -56t56.5 -135v-110q0 -21 20.5 -34t43.5 -13z
M323 188q-44 4 -66 4q-27 0 -48 -4h1q-71 -13 -71 -53q0 -23 13.5 -30t39.5 -7q76 0 131 67v23zM220 573q-3 10 -15 10q-15 0 -15 -14q0 -5 10 -42l-76 -29q-21 40 -21 68q0 45 29 73.5t74 28.5q25 0 47 -12t33.5 -26.5t21 -26.5t12.5 -12q13 0 13 19q0 10 -7 36l80 32
q17 -45 17 -75q0 -46 -29.5 -73.5t-75.5 -27.5q-66 0 -97 70z" />
    <glyph glyph-name="adieresis" unicode="&#xe4;" 
d="M486 99v-99q-89 0 -137 60q-71 -60 -162 -60q-66 0 -107 32.5t-41 97.5q0 40 20 70.5t52 48t68 26t73 8.5q22 0 68 -4q-8 29 -33.5 48.5t-56.5 19.5q-29 0 -53 -19.5t-38 -48.5l-89 41q26 56 74 91.5t106 35.5q79 0 135.5 -56t56.5 -135v-110q0 -21 20.5 -34t43.5 -13z
M323 188q-44 4 -66 4q-27 0 -48 -4h1q-71 -13 -71 -53q0 -23 13.5 -30t39.5 -7q76 0 131 67v23zM367 642q27 0 46.5 -19.5t19.5 -46.5t-19.5 -46.5t-46.5 -19.5q-26 0 -45.5 20t-19.5 46t19.5 46t45.5 20zM157 642q27 0 46.5 -19.5t19.5 -46.5t-19.5 -46.5t-46.5 -19.5
t-46 19.5t-19 46.5t19 46.5t46 19.5z" />
    <glyph glyph-name="aring" unicode="&#xe5;" 
d="M486 99v-99q-89 0 -137 60q-71 -60 -162 -60q-66 0 -107 32.5t-41 97.5q0 40 20 70.5t52 48t68 26t73 8.5q22 0 68 -4q-8 29 -33.5 48.5t-56.5 19.5q-29 0 -53 -19.5t-38 -48.5l-89 41q26 56 74 91.5t106 35.5q79 0 135.5 -56t56.5 -135v-110q0 -21 20.5 -34t43.5 -13z
M323 188q-44 4 -66 4q-27 0 -48 -4h1q-71 -13 -71 -53q0 -23 13.5 -30t39.5 -7q76 0 131 67v23zM262 732q57 0 97 -40t40 -97q0 -56 -40.5 -96.5t-96.5 -40.5t-96.5 40.5t-40.5 96.5t40.5 96.5t96.5 40.5zM262 557q16 0 27 11t11 27t-11 27t-27 11t-27 -11t-11 -27t11 -27
t27 -11z" />
    <glyph glyph-name="ae" unicode="&#xe6;" 
d="M313 173q2 -27 14 -50t35 -23t43 51h45l39 -22q-18 -53 -51.5 -91t-80.5 -38q-65 0 -97 44q-37 -44 -105 -44q-56 0 -86 36t-30 94q0 80 46 117t126 29q-3 71 -41 71q-31 0 -47 -59l-88 30q15 52 49.5 90.5t82.5 38.5q55 0 93 -45q31 45 94 45q32 0 56.5 -15t38 -37
t22 -53t11 -58t2.5 -56q0 -37 -2 -55h-169zM139 133q0 -14 7.5 -23.5t21.5 -9.5q17 0 30.5 13t13.5 30v31l-14 1q-59 0 -59 -42zM386 274q-4 73 -32 73q-20 0 -30 -24t-12 -49h74z" />
    <glyph glyph-name="ccedilla" unicode="&#xe7;" 
d="M491 154q-20 -47 -56 -83.5t-81 -54.5q14 -28 14 -58q0 -60 -43 -99.5t-103 -39.5q-31 0 -78 17l37 94q33 -12 45 -12q17 0 29 11.5t12 28.5q0 37 -40 46h1q-81 14 -135 76t-54 143q0 94 68.5 159t162.5 65q72 0 132.5 -43t89.5 -111l-96 -40q-17 40 -51 67t-75 27
q-52 0 -90 -36t-38 -88t38 -87.5t90 -35.5q41 0 75.5 26.5t50.5 66.5z" />
    <glyph glyph-name="egrave" unicode="&#xe8;" 
d="M249 451l-187 186l70 71l188 -187zM150 173q15 -33 45.5 -53t66.5 -20q58 0 100 52h62l42 -23q-33 -57 -87 -93t-117 -36q-92 0 -157.5 65.5t-65.5 157.5t65.5 158t157.5 66q94 0 158 -68.5t64 -163.5q0 -23 -4 -42h-330zM375 274q-15 32 -46 52.5t-67 20.5t-67 -20
t-45 -53h225z" />
    <glyph glyph-name="eacute" unicode="&#xe9;" 
d="M133 521l188 187l70 -71l-187 -186zM150 173q15 -33 45.5 -53t66.5 -20q58 0 100 52h62l42 -23q-33 -57 -87 -93t-117 -36q-92 0 -157.5 65.5t-65.5 157.5t65.5 158t157.5 66q94 0 158 -68.5t64 -163.5q0 -23 -4 -42h-330zM375 274q-15 32 -46 52.5t-67 20.5t-67 -20
t-45 -53h225z" />
    <glyph glyph-name="ecircumflex" unicode="&#xea;" 
d="M75 558l187 186l187 -186l-71 -71l-116 116l-117 -116zM150 173q15 -33 45.5 -53t66.5 -20q58 0 100 52h62l42 -23q-33 -57 -87 -93t-117 -36q-92 0 -157.5 65.5t-65.5 157.5t65.5 158t157.5 66q94 0 158 -68.5t64 -163.5q0 -23 -4 -42h-330zM375 274q-15 32 -46 52.5
t-67 20.5t-67 -20t-45 -53h225z" />
    <glyph glyph-name="edieresis" unicode="&#xeb;" 
d="M367 642q27 0 46.5 -19.5t19.5 -46.5t-19.5 -46.5t-46.5 -19.5q-26 0 -45.5 20t-19.5 46t19.5 46t45.5 20zM157 642q27 0 46.5 -19.5t19.5 -46.5t-19.5 -46.5t-46.5 -19.5t-46 19.5t-19 46.5t19 46.5t46 19.5zM150 173q15 -33 45.5 -53t66.5 -20q58 0 100 52h62l42 -23
q-33 -57 -87 -93t-117 -36q-92 0 -157.5 65.5t-65.5 157.5t65.5 158t157.5 66q94 0 158 -68.5t64 -163.5q0 -23 -4 -42h-330zM375 274q-15 32 -46 52.5t-67 20.5t-67 -20t-45 -53h225z" />
    <glyph glyph-name="igrave" unicode="&#xec;" 
d="M312 100h174v-100h-447v100h173v247h-129v100h229v-347zM321 451l-188 186l71 71l187 -187z" />
    <glyph glyph-name="iacute" unicode="&#xed;" 
d="M312 100h174v-100h-447v100h173v247h-129v100h229v-347zM133 521l188 187l70 -71l-187 -186z" />
    <glyph glyph-name="icircumflex" unicode="&#xee;" 
d="M312 100h174v-100h-447v100h173v247h-129v100h229v-347zM75 558l187 186l187 -186l-71 -71l-116 116l-117 -116z" />
    <glyph glyph-name="idieresis" unicode="&#xef;" 
d="M312 100h174v-100h-447v100h173v247h-129v100h229v-347zM367 642q27 0 46.5 -19.5t19.5 -46.5t-19.5 -46.5t-46.5 -19.5q-26 0 -45.5 20t-19.5 46t19.5 46t45.5 20zM157 642q27 0 46.5 -19.5t19.5 -46.5t-19.5 -46.5t-46.5 -19.5t-46 19.5t-19 46.5t19 46.5t46 19.5z" />
    <glyph glyph-name="ntilde" unicode="&#xf1;" 
d="M262 447q93 0 158.5 -65.5t65.5 -158.5v-223h-100v223q0 52 -36 88t-88 36q-51 0 -87 -36t-36 -87v-224h-100v447h100v-38q57 38 123 38zM220 573q-3 10 -15 10q-15 0 -15 -14q0 -5 10 -42l-76 -29q-21 40 -21 68q0 45 29 73.5t74 28.5q25 0 47 -12t33.5 -26.5t21 -26.5
t12.5 -12q13 0 13 19q0 10 -7 36l80 32q17 -45 17 -75q0 -46 -29.5 -73.5t-75.5 -27.5q-66 0 -97 70z" />
    <glyph glyph-name="ograve" unicode="&#xf2;" 
d="M262 447q93 0 158.5 -65.5t65.5 -158.5q0 -92 -66 -157.5t-158 -65.5t-157.5 65.5t-65.5 157.5t65.5 158t157.5 66zM262 100q51 0 87.5 36t36.5 87q0 52 -36 88t-88 36q-51 0 -87 -36.5t-36 -87.5t36 -87t87 -36zM321 451l-188 186l71 71l187 -187z" />
    <glyph glyph-name="oacute" unicode="&#xf3;" 
d="M262 447q93 0 158.5 -65.5t65.5 -158.5q0 -92 -66 -157.5t-158 -65.5t-157.5 65.5t-65.5 157.5t65.5 158t157.5 66zM262 100q51 0 87.5 36t36.5 87q0 52 -36 88t-88 36q-51 0 -87 -36.5t-36 -87.5t36 -87t87 -36zM133 521l188 187l70 -71l-187 -186z" />
    <glyph glyph-name="ocircumflex" unicode="&#xf4;" 
d="M262 447q93 0 158.5 -65.5t65.5 -158.5q0 -92 -66 -157.5t-158 -65.5t-157.5 65.5t-65.5 157.5t65.5 158t157.5 66zM262 100q51 0 87.5 36t36.5 87q0 52 -36 88t-88 36q-51 0 -87 -36.5t-36 -87.5t36 -87t87 -36zM75 558l187 186l187 -186l-71 -71l-116 116l-117 -116z
" />
    <glyph glyph-name="otilde" unicode="&#xf5;" 
d="M262 447q93 0 158.5 -65.5t65.5 -158.5q0 -92 -66 -157.5t-158 -65.5t-157.5 65.5t-65.5 157.5t65.5 158t157.5 66zM262 100q51 0 87.5 36t36.5 87q0 52 -36 88t-88 36q-51 0 -87 -36.5t-36 -87.5t36 -87t87 -36zM220 573q-5 10 -16 10q-15 0 -15 -14q0 -5 10 -42
l-76 -29q-21 40 -21 68q0 45 29 73.5t74 28.5q26 0 47.5 -12t33 -26.5t21 -26.5t12.5 -12q14 0 14 20q0 6 -8 35l80 32q17 -45 17 -75q0 -46 -29.5 -73.5t-75.5 -27.5q-66 0 -97 70v1z" />
    <glyph glyph-name="odieresis" unicode="&#xf6;" 
d="M262 447q93 0 158.5 -65.5t65.5 -158.5q0 -92 -66 -157.5t-158 -65.5t-157.5 65.5t-65.5 157.5t65.5 158t157.5 66zM262 100q51 0 87.5 36t36.5 87q0 52 -36 88t-88 36q-51 0 -87 -36.5t-36 -87.5t36 -87t87 -36zM367 642q27 0 46.5 -19.5t19.5 -46.5t-19.5 -46.5
t-46.5 -19.5q-26 0 -45.5 20t-19.5 46t19.5 46t45.5 20zM157 642q27 0 46.5 -19.5t19.5 -46.5t-19.5 -46.5t-46.5 -19.5t-46 19.5t-19 46.5t19 46.5t46 19.5z" />
    <glyph glyph-name="divide" unicode="&#xf7;" 
d="M334 200q0 -28 -20 -48.5t-48 -20.5t-48 20.5t-20 48.5q0 27 20.5 47t47.5 20t47.5 -20t20.5 -47zM334 487q0 -28 -20 -48t-48 -20t-48 20t-20 48q0 27 20.5 47t47.5 20t47.5 -20t20.5 -47zM101 397h330v-99h-330v99z" />
    <glyph glyph-name="oslash" unicode="&#xf8;" 
d="M135 -70h-112l86 131q-70 65 -70 162q0 92 65.5 158t157.5 66q43 0 85 -17q4 6 19 29t23 36h112l-76 -118q61 -64 61 -154q0 -92 -66 -157.5t-158 -65.5q-38 0 -74 12zM262 347q-51 0 -87 -36.5t-36 -87.5q0 -46 25 -75l127 195q-20 4 -29 4zM262 100q51 0 87.5 36
t36.5 87q0 37 -19 65q-20 -31 -61 -93t-61 -94z" />
    <glyph glyph-name="ugrave" unicode="&#xf9;" 
d="M263 0q-93 0 -158.5 65.5t-65.5 158.5v223h100v-223q0 -52 36 -88t88 -36q51 0 87 36t36 87v224h100v-447h-100v38q-57 -38 -123 -38zM321 451l-188 186l71 71l187 -187z" />
    <glyph glyph-name="uacute" unicode="&#xfa;" 
d="M263 0q-93 0 -158.5 65.5t-65.5 158.5v223h100v-223q0 -52 36 -88t88 -36q51 0 87 36t36 87v224h100v-447h-100v38q-57 -38 -123 -38zM133 521l188 187l70 -71l-187 -186z" />
    <glyph glyph-name="ucircumflex" unicode="&#xfb;" 
d="M263 0q-93 0 -158.5 65.5t-65.5 158.5v223h100v-223q0 -52 36 -88t88 -36q51 0 87 36t36 87v224h100v-447h-100v38q-57 -38 -123 -38zM75 558l187 186l187 -186l-71 -71l-116 116l-117 -116z" />
    <glyph glyph-name="udieresis" unicode="&#xfc;" 
d="M263 0q-93 0 -158.5 65.5t-65.5 158.5v223h100v-223q0 -52 36 -88t88 -36q51 0 87 36t36 87v224h100v-447h-100v38q-57 -38 -123 -38zM367 642q27 0 46.5 -19.5t19.5 -46.5t-19.5 -46.5t-46.5 -19.5q-26 0 -45.5 20t-19.5 46t19.5 46t45.5 20zM157 642q27 0 46.5 -19.5
t19.5 -46.5t-19.5 -46.5t-46.5 -19.5t-46 19.5t-19 46.5t19 46.5t46 19.5z" />
    <glyph glyph-name="yacute" unicode="&#xfd;" 
d="M388 447h107l-286 -675h-106l106 250q-34 82 -179 425h107l125 -298zM133 521l188 187l70 -71l-187 -186z" />
    <glyph glyph-name="ydieresis" unicode="&#xff;" 
d="M388 447h107l-286 -675h-106l106 250q-34 82 -179 425h107l125 -298zM157 642q27 0 46.5 -19.5t19.5 -46.5t-19.5 -46.5t-46.5 -19.5t-46 19.5t-19 46.5t19 46.5t46 19.5zM367 642q27 0 46.5 -19.5t19.5 -46.5t-19.5 -46.5t-46.5 -19.5q-26 0 -45.5 20t-19.5 46t19.5 46
t45.5 20z" />
    <glyph glyph-name="Amacron" unicode="&#x100;" 
d="M393 0l-45 171h-163l-45 -171h-108l188 694h94l188 -694h-109zM212 271h109l-54 210zM101 898h330v-99h-330v99z" />
    <glyph glyph-name="amacron" unicode="&#x101;" 
d="M486 99v-99q-89 0 -137 60q-71 -60 -162 -60q-66 0 -107 32.5t-41 97.5q0 40 20 70.5t52 48t68 26t73 8.5q22 0 68 -4q-8 29 -33.5 48.5t-56.5 19.5q-29 0 -53 -19.5t-38 -48.5l-89 41q26 56 74 91.5t106 35.5q79 0 135.5 -56t56.5 -135v-110q0 -21 20.5 -34t43.5 -13z
M323 188q-44 4 -66 4q-27 0 -48 -4h1q-71 -13 -71 -53q0 -23 13.5 -30t39.5 -7q76 0 131 67v23zM102 644h320v-96h-320v96z" />
    <glyph glyph-name="Abreve" unicode="&#x102;" 
d="M393 0l-45 171h-163l-45 -171h-108l188 694h94l188 -694h-109zM212 271h109l-54 210zM407 913q0 -63 -40 -111t-101 -48t-101 48t-40 111h102q0 -21 10 -39t29 -18q18 0 28.5 18.5t10.5 38.5h102z" />
    <glyph glyph-name="abreve" unicode="&#x103;" 
d="M486 99v-99q-89 0 -137 60q-71 -60 -162 -60q-66 0 -107 32.5t-41 97.5q0 40 20 70.5t52 48t68 26t73 8.5q22 0 68 -4q-8 29 -33.5 48.5t-56.5 19.5q-29 0 -53 -19.5t-38 -48.5l-89 41q26 56 74 91.5t106 35.5q79 0 135.5 -56t56.5 -135v-110q0 -21 20.5 -34t43.5 -13z
M323 188q-44 4 -66 4q-27 0 -48 -4h1q-71 -13 -71 -53q0 -23 13.5 -30t39.5 -7q76 0 131 67v23zM399 659q0 -61 -38.5 -108t-98.5 -47q-59 0 -98 47t-39 108h99q0 -20 10 -38t28 -18t28 18t10 38h99z" />
    <glyph glyph-name="Aogonek" unicode="&#x104;" 
d="M455 0q-28 -14 -28 -43q0 -18 12 -29.5t30 -11.5q8 0 47 12l38 -97q-42 -17 -80 -17q-64 0 -107 40t-43 103q0 67 53 108l-28 106h-163l-45 -171h-108l188 694h94l188 -694h-48zM212 271h110q-36 140 -55 209z" />
    <glyph glyph-name="aogonek" unicode="&#x105;" 
d="M487 99v-99h-28q-30 -12 -30 -42q0 -18 12 -29t30 -11q9 0 45 12l36 -94q-45 -17 -77 -17q-60 0 -103 40t-43 99q0 54 33 87l-12 15q-71 -60 -161 -60q-67 0 -108 32.5t-41 97.5q0 52 35 88t81.5 50.5t96.5 14.5q22 0 68 -4q-8 29 -33.5 48.5t-56.5 19.5q-29 0 -53 -19.5
t-38 -48.5l-89 41q26 56 74 91.5t106 35.5q80 0 136.5 -56t56.5 -135v-110q0 -21 20.5 -34t42.5 -13zM325 188q-44 4 -66 4q-119 0 -119 -59q0 -35 54 -35q76 0 131 67v23z" />
    <glyph glyph-name="Cacute" unicode="&#x106;" 
d="M265 100q55 0 91.5 42t36.5 98h103q0 -97 -67 -168.5t-164 -71.5q-93 0 -161 64t-68 157v253q0 93 68 157t161 64q97 0 164 -71.5t67 -168.5h-103q0 56 -36.5 98t-91.5 42q-51 0 -88.5 -35t-37.5 -86v-253q0 -51 37.5 -86t88.5 -35zM133 772l193 192l73 -73l-193 -192z
" />
    <glyph glyph-name="cacute" unicode="&#x107;" 
d="M492 154q-29 -68 -89.5 -111t-132.5 -43q-94 0 -162.5 65t-68.5 158q0 94 68.5 159t162.5 65q72 0 132.5 -43t89.5 -111l-96 -40q-17 40 -51 67t-75 27q-52 0 -90 -36t-38 -88t38 -87.5t90 -35.5q41 0 75.5 26.5t50.5 66.5zM133 521l188 187l70 -71l-187 -186z" />
    <glyph glyph-name="Ccircumflex" unicode="&#x108;" 
d="M265 100q55 0 91.5 42t36.5 98h103q0 -97 -67 -168.5t-164 -71.5q-93 0 -161 64t-68 157v253q0 93 68 157t161 64q97 0 164 -71.5t67 -168.5h-103q0 56 -36.5 98t-91.5 42q-51 0 -88.5 -35t-37.5 -86v-253q0 -51 37.5 -86t88.5 -35zM73 809l193 192l192 -192l-72 -72
l-120 119l-121 -119z" />
    <glyph glyph-name="ccircumflex" unicode="&#x109;" 
d="M492 154q-29 -68 -89.5 -111t-132.5 -43q-94 0 -162.5 65t-68.5 158q0 94 68.5 159t162.5 65q72 0 132.5 -43t89.5 -111l-96 -40q-17 40 -51 67t-75 27q-52 0 -90 -36t-38 -88t38 -87.5t90 -35.5q41 0 75.5 26.5t50.5 66.5zM75 558l187 186l187 -186l-70 -71l-117 116
l-117 -116z" />
    <glyph glyph-name="Cdotaccent" unicode="&#x10a;" 
d="M265 100q55 0 91.5 42t36.5 98h103q0 -97 -67 -168.5t-164 -71.5q-93 0 -161 64t-68 157v253q0 93 68 157t161 64q97 0 164 -71.5t67 -168.5h-103q0 56 -36.5 98t-91.5 42q-51 0 -88.5 -35t-37.5 -86v-253q0 -51 37.5 -86t88.5 -35zM266 905q28 0 48 -20t20 -48
q0 -27 -20.5 -47t-47.5 -20t-47.5 20t-20.5 47q0 28 20 48t48 20z" />
    <glyph glyph-name="cdotaccent" unicode="&#x10b;" 
d="M492 154q-29 -68 -89.5 -111t-132.5 -43q-94 0 -162.5 65t-68.5 158q0 94 68.5 159t162.5 65q72 0 132.5 -43t89.5 -111l-96 -40q-17 40 -51 67t-75 27q-52 0 -90 -36t-38 -88t38 -87.5t90 -35.5q41 0 75.5 26.5t50.5 66.5zM262 651q27 0 46.5 -19.5t19.5 -46.5
t-19.5 -46t-46.5 -19t-46 19t-19 46t19 46.5t46 19.5z" />
    <glyph glyph-name="Ccaron" unicode="&#x10c;" 
d="M265 100q55 0 91.5 42t36.5 98h103q0 -97 -67 -168.5t-164 -71.5q-93 0 -161 64t-68 157v253q0 93 68 157t161 64q97 0 164 -71.5t67 -168.5h-103q0 56 -36.5 98t-91.5 42q-51 0 -88.5 -35t-37.5 -86v-253q0 -51 37.5 -86t88.5 -35zM145 1001l121 -119l120 119l72 -72
l-192 -192l-193 192z" />
    <glyph glyph-name="ccaron" unicode="&#x10d;" 
d="M492 154q-29 -68 -89.5 -111t-132.5 -43q-94 0 -162.5 65t-68.5 158q0 94 68.5 159t162.5 65q72 0 132.5 -43t89.5 -111l-96 -40q-17 40 -51 67t-75 27q-52 0 -90 -36t-38 -88t38 -87.5t90 -35.5q41 0 75.5 26.5t50.5 66.5zM145 744l117 -115l117 115l70 -70l-187 -187
l-187 187z" />
    <glyph glyph-name="Dcaron" unicode="&#x10e;" 
d="M211 695q74 0 130 -28t89 -76.5t49.5 -109t16.5 -131.5t-16.5 -132t-49.5 -111t-89 -78.5t-130 -28.5h-175v695h175zM211 100q49 0 85.5 22t57 59t30 79t9.5 88q0 63 -16.5 116t-59 92t-106.5 39h-72v-495h72zM145 1001l121 -119l120 119l72 -72l-192 -192l-193 192z" />
    <glyph glyph-name="Dcroat" unicode="&#x110;" 
d="M-31 402h66v293h175q74 0 130 -28t89 -76.5t49.5 -109t16.5 -131.5t-16.5 -132t-49.5 -111t-89 -78.5t-130 -28.5h-175v303h-66v99zM210 100q49 0 85.5 22t57 59t30 79t9.5 88q0 63 -16.5 116t-59 92t-106.5 39h-72v-193h132v-99h-132v-203h72z" />
    <glyph glyph-name="dcroat" unicode="&#x111;" 
d="M278 589h110v86h100v-86h110v-96h-110v-493h-100v37q-53 -37 -123 -37q-92 0 -158 65.5t-66 157.5q0 93 65.5 158.5t158.5 65.5q66 0 123 -38v84h-110v96zM265 100q51 0 87 36t36 87t-36 87.5t-87 36.5q-52 0 -88 -36t-36 -88q0 -51 36.5 -87t87.5 -36z" />
    <glyph glyph-name="Emacron" unicode="&#x112;" 
d="M36 695h460v-100h-357v-198h184v-99h-184v-198h357v-100h-460v695zM101 898h330v-99h-330v99z" />
    <glyph glyph-name="emacron" unicode="&#x113;" 
d="M102 644h320v-96h-320v96zM150 173q15 -33 45.5 -53t66.5 -20q58 0 100 52h62l42 -23q-33 -57 -87 -93t-117 -36q-92 0 -157.5 65.5t-65.5 157.5t65.5 158t157.5 66q94 0 158 -68.5t64 -163.5q0 -23 -4 -42h-330zM375 274q-15 32 -46 52.5t-67 20.5t-67 -20t-45 -53h225z
" />
    <glyph glyph-name="Ebreve" unicode="&#x114;" 
d="M36 695h460v-100h-357v-198h184v-99h-184v-198h357v-100h-460v695zM407 913q0 -63 -40 -111t-101 -48t-101 48t-40 111h102q0 -21 10 -39t29 -18q18 0 28.5 18.5t10.5 38.5h102z" />
    <glyph glyph-name="ebreve" unicode="&#x115;" 
d="M399 659q0 -61 -38.5 -108t-98.5 -47q-59 0 -98 47t-39 108h99q0 -20 10 -38t28 -18t28 18t10 38h99zM150 173q15 -33 45.5 -53t66.5 -20q58 0 100 52h62l42 -23q-33 -57 -87 -93t-117 -36q-92 0 -157.5 65.5t-65.5 157.5t65.5 158t157.5 66q94 0 158 -68.5t64 -163.5
q0 -23 -4 -42h-330zM375 274q-15 32 -46 52.5t-67 20.5t-67 -20t-45 -53h225z" />
    <glyph glyph-name="Edotaccent" unicode="&#x116;" 
d="M36 695h460v-100h-357v-198h184v-99h-184v-198h357v-100h-460v695zM266 905q28 0 48 -20t20 -48q0 -27 -20.5 -47t-47.5 -20t-47.5 20t-20.5 47q0 28 20 48t48 20z" />
    <glyph glyph-name="edotaccent" unicode="&#x117;" 
d="M262 651q27 0 46.5 -19.5t19.5 -46.5t-19.5 -46t-46.5 -19t-46 19t-19 46t19 46.5t46 19.5zM150 173q15 -33 45.5 -53t66.5 -20q58 0 100 52h62l42 -23q-33 -57 -87 -93t-117 -36q-92 0 -157.5 65.5t-65.5 157.5t65.5 158t157.5 66q94 0 158 -68.5t64 -163.5
q0 -23 -4 -42h-330zM375 274q-15 32 -46 52.5t-67 20.5t-67 -20t-45 -53h225z" />
    <glyph glyph-name="Eogonek" unicode="&#x118;" 
d="M36 695h460v-100h-357v-198h184v-99h-184v-198h357v-100h-92q-29 -14 -29 -43q0 -18 12 -29.5t30 -11.5q8 0 47 12l38 -97q-42 -17 -79 -17q-64 0 -107.5 40t-43.5 103q0 23 7 43h-243v695z" />
    <glyph glyph-name="eogonek" unicode="&#x119;" 
d="M262 100q70 0 114 73h-226q15 -33 45.5 -53t66.5 -20zM385 173l81 -44q-53 -92 -140 -120q-8 -3 -22.5 -5t-20.5 -4q-30 -11 -30 -41q0 -17 12 -29t29 -12q9 0 45 12l37 -94q-45 -17 -77 -17q-63 0 -104.5 39t-41.5 101q0 33 15 62q-59 28 -94 82.5t-35 119.5
q0 92 65.5 158t157.5 66q90 0 157 -66.5t67 -157.5q0 -18 -6 -50h-95zM375 274q-15 32 -46 52.5t-67 20.5t-67 -20t-45 -53h225z" />
    <glyph glyph-name="Ecaron" unicode="&#x11a;" 
d="M36 695h460v-100h-357v-198h184v-99h-184v-198h357v-100h-460v695zM145 1001l121 -119l120 119l72 -72l-192 -192l-193 192z" />
    <glyph glyph-name="ecaron" unicode="&#x11b;" 
d="M145 744l117 -115l116 115l71 -70l-187 -187l-187 187zM150 173q15 -33 45.5 -53t66.5 -20q58 0 100 52h62l42 -23q-33 -57 -87 -93t-117 -36q-92 0 -157.5 65.5t-65.5 157.5t65.5 158t157.5 66q94 0 158 -68.5t64 -163.5q0 -23 -4 -42h-330zM375 274q-15 32 -46 52.5
t-67 20.5t-67 -20t-45 -53h225z" />
    <glyph glyph-name="Gcircumflex" unicode="&#x11c;" 
d="M246 397h250v-176q0 -93 -68.5 -157t-162.5 -64q-93 0 -161 64t-68 157v253q0 93 68 157t161 64q97 0 164 -71.5t67 -168.5h-103q0 56 -36.5 98t-91.5 42q-51 0 -88.5 -35t-37.5 -86v-253q0 -51 37.5 -86t88.5 -35t89.5 35t38.5 86v77h-147v99zM73 809l193 192l192 -192
l-72 -72l-120 119l-121 -119z" />
    <glyph glyph-name="gcircumflex" unicode="&#x11d;" 
d="M386 37q-57 -37 -124 -37q-92 0 -157.5 65.5t-65.5 157.5t65.5 158t157.5 66q65 0 124 -38v38h100v-452q0 -92 -66 -157.5t-158 -65.5q-61 0 -115 35.5t-87 92.5l85 50q20 -33 51 -55.5t66 -22.5q124 0 124 165zM262 100q50 0 86 34.5t38 83.5v-1q0 54 -35 92t-89 38
q-51 0 -87 -36.5t-36 -87.5t36 -87t87 -36zM75 558l187 186l187 -186l-71 -71l-116 116l-117 -116z" />
    <glyph glyph-name="Gbreve" unicode="&#x11e;" 
d="M246 397h250v-176q0 -93 -68.5 -157t-162.5 -64q-93 0 -161 64t-68 157v253q0 93 68 157t161 64q97 0 164 -71.5t67 -168.5h-103q0 56 -36.5 98t-91.5 42q-51 0 -88.5 -35t-37.5 -86v-253q0 -51 37.5 -86t88.5 -35t89.5 35t38.5 86v77h-147v99zM407 913q0 -63 -40 -111
t-101 -48t-101 48t-40 111h102q0 -21 10 -39t29 -18q18 0 28.5 18.5t10.5 38.5h102z" />
    <glyph glyph-name="gbreve" unicode="&#x11f;" 
d="M386 37q-57 -37 -124 -37q-92 0 -157.5 65.5t-65.5 157.5t65.5 158t157.5 66q65 0 124 -38v38h100v-452q0 -92 -66 -157.5t-158 -65.5q-61 0 -115 35.5t-87 92.5l85 50q20 -33 51 -55.5t66 -22.5q124 0 124 165zM262 100q50 0 86 34.5t38 83.5v-1q0 54 -35 92t-89 38
q-51 0 -87 -36.5t-36 -87.5t36 -87t87 -36zM399 659q0 -61 -38.5 -108t-98.5 -47q-59 0 -98 47t-39 108h99q0 -20 10 -38t28 -18t28 18t10 38h99z" />
    <glyph glyph-name="Gdotaccent" unicode="&#x120;" 
d="M246 397h250v-176q0 -93 -68.5 -157t-162.5 -64q-93 0 -161 64t-68 157v253q0 93 68 157t161 64q97 0 164 -71.5t67 -168.5h-103q0 56 -36.5 98t-91.5 42q-51 0 -88.5 -35t-37.5 -86v-253q0 -51 37.5 -86t88.5 -35t89.5 35t38.5 86v77h-147v99zM266 905q28 0 48 -20
t20 -48q0 -27 -20.5 -47t-47.5 -20t-47.5 20t-20.5 47q0 28 20 48t48 20z" />
    <glyph glyph-name="gdotaccent" unicode="&#x121;" 
d="M386 37q-57 -37 -124 -37q-92 0 -157.5 65.5t-65.5 157.5t65.5 158t157.5 66q65 0 124 -38v38h100v-452q0 -92 -66 -157.5t-158 -65.5q-61 0 -115 35.5t-87 92.5l85 50q20 -33 51 -55.5t66 -22.5q124 0 124 165zM262 100q50 0 86 34.5t38 83.5v-1q0 54 -35 92t-89 38
q-51 0 -87 -36.5t-36 -87.5t36 -87t87 -36zM262 651q27 0 46.5 -19.5t19.5 -46.5t-19.5 -46t-46.5 -19t-46 19t-19 46t19 46.5t46 19.5z" />
    <glyph glyph-name="Gcommaaccent" unicode="&#x122;" 
d="M246 397h250v-176q0 -93 -68.5 -157t-162.5 -64q-93 0 -161 64t-68 157v253q0 93 68 157t161 64q97 0 164 -71.5t67 -168.5h-103q0 56 -36.5 98t-91.5 42q-51 0 -88.5 -35t-37.5 -86v-253q0 -51 37.5 -86t88.5 -35t89.5 35t38.5 86v77h-147v99zM231 -268v124
q-33 18 -33 60q0 27 20.5 47t47.5 20t47.5 -20t20.5 -47v-184h-103z" />
    <glyph glyph-name="gcommaaccent" unicode="&#x123;" 
d="M297 732v-122q31 -20 31 -57q0 -26 -19.5 -45.5t-45.5 -19.5q-27 0 -46.5 19t-19.5 46v179h100zM386 37q-57 -37 -124 -37q-92 0 -157.5 65.5t-65.5 157.5t65.5 158t157.5 66q65 0 124 -38v38h100v-452q0 -92 -66 -157.5t-158 -65.5q-61 0 -115 35.5t-87 92.5l85 50
q20 -33 51 -55.5t66 -22.5q124 0 124 165zM262 100q50 0 86 34.5t38 83.5v-1q0 54 -35 92t-89 38q-51 0 -87 -36.5t-36 -87.5t36 -87t87 -36z" />
    <glyph glyph-name="Hcircumflex" unicode="&#x124;" 
d="M496 0h-103v298h-254v-298h-103v695h103v-298h254v298h103v-695zM73 809l193 192l192 -192l-72 -72l-120 119l-121 -119z" />
    <glyph glyph-name="hcircumflex" unicode="&#x125;" 
d="M486 0h-100v223q0 52 -36 88t-88 36q-49 0 -86 -35.5t-37 -83.5v-228h-100v675h100v-266q57 38 123 38q93 0 158.5 -65.5t65.5 -158.5v-223zM75 786l187 186l187 -186l-71 -71l-116 116l-117 -116z" />
    <glyph glyph-name="hbar" unicode="&#x127;" 
d="M-74 589h110v86h100v-86h110v-96h-110v-84q57 38 123 38q93 0 158.5 -65.5t65.5 -158.5v-223h-100v223q0 52 -36 88t-88 36q-49 0 -86 -35.5t-37 -83.5v-228h-100v493h-110v96z" />
    <glyph glyph-name="Itilde" unicode="&#x128;" 
d="M36 695h460v-100h-180v-495h180v-100h-460v100h179v495h-179v100zM223 825q-5 10 -16 10q-15 0 -15 -14q0 -11 10 -44l-78 -29q-22 38 -22 70q0 46 30 75.5t76 29.5q35 0 61 -19.5t39 -39.5t17 -20q14 0 14 18q0 10 -7 38l82 33q18 -48 18 -77q0 -48 -30 -76t-79 -28
q-68 0 -99 72z" />
    <glyph glyph-name="itilde" unicode="&#x129;" 
d="M312 100h174v-100h-447v100h173v247h-129v100h229v-347zM220 573q-3 10 -15 10q-15 0 -15 -14q0 -5 10 -42l-76 -29q-21 40 -21 68q0 45 29 73.5t74 28.5q25 0 47 -12t33.5 -26.5t21 -26.5t12.5 -12q13 0 13 19q0 10 -7 36l80 32q17 -45 17 -75q0 -46 -29.5 -73.5
t-75.5 -27.5q-66 0 -97 70z" />
    <glyph glyph-name="Imacron" unicode="&#x12a;" 
d="M36 695h460v-100h-180v-495h180v-100h-460v100h179v495h-179v100zM101 898h330v-99h-330v99z" />
    <glyph glyph-name="imacron" unicode="&#x12b;" 
d="M312 100h174v-100h-447v100h173v247h-129v100h229v-347zM101 664h330v-99h-330v99z" />
    <glyph glyph-name="Ibreve" unicode="&#x12c;" 
d="M36 695h460v-100h-180v-495h180v-100h-460v100h179v495h-179v100zM407 913q0 -63 -40 -111t-101 -48t-101 48t-40 111h102q0 -21 10 -39t29 -18q18 0 28.5 18.5t10.5 38.5h102z" />
    <glyph glyph-name="ibreve" unicode="&#x12d;" 
d="M312 100h174v-100h-447v100h173v247h-129v100h229v-347zM399 659q0 -61 -38.5 -108t-98.5 -47q-59 0 -98 47t-39 108h99q0 -20 10 -38t28 -18t28 18t10 38h99z" />
    <glyph glyph-name="Iogonek" unicode="&#x12e;" 
d="M36 695h460v-100h-180v-495h180v-100h-187q-28 -14 -28 -43q0 -18 11.5 -29.5t29.5 -11.5q14 0 48 12l37 -97q-43 -17 -79 -17q-64 0 -107 40t-43 103q0 22 6 43h-148v100h179v495h-179v100z" />
    <glyph glyph-name="iogonek" unicode="&#x12f;" 
d="M312 100h174v-100h-189q-28 -14 -28 -42q0 -17 12 -28.5t29 -11.5q9 0 45 12l37 -94q-45 -17 -77 -17q-63 0 -104.5 39t-41.5 101q0 23 7 41h-137v100h173v247h-129v100h229v-347zM328 582q0 -28 -19 -47t-47 -19q-27 0 -46 19.5t-19 46.5t19 46t46 19t46.5 -19t19.5 -46
z" />
    <glyph glyph-name="Idotaccent" unicode="&#x130;" 
d="M36 695h460v-100h-180v-495h180v-100h-460v100h179v495h-179v100zM266 905q28 0 48 -20t20 -48q0 -27 -20.5 -47t-47.5 -20t-47.5 20t-20.5 47q0 28 20 48t48 20z" />
    <glyph glyph-name="dotlessi" unicode="&#x131;" 
d="M312 100h174v-100h-447v100h173v247h-129v100h229v-347z" />
    <glyph glyph-name="Jcircumflex" unicode="&#x134;" 
d="M496 221q0 -91 -73 -156t-165 -65q-70 0 -131.5 37t-97.5 99l86 50q22 -36 62 -61t81 -25q51 0 93 35.5t42 85.5v374h-262v100h365v-474zM73 809l192 192l193 -192l-72 -72l-121 119l-120 -119z" />
    <glyph glyph-name="jcircumflex" unicode="&#x135;" 
d="M127 447h331v-452q0 -92 -66 -158t-158 -66q-62 0 -116 36t-87 93l87 49q45 -78 116 -78q51 0 87.5 36.5t36.5 87.5v352h-231v100zM74 558l187 186l187 -186l-70 -71l-117 116l-117 -116z" />
    <glyph glyph-name="Kcommaaccent" unicode="&#x136;" 
d="M138 397h106q26 50 78.5 149t77.5 149h109l-181 -344l181 -351h-109l-153 297h-109v-297h-102v695h102v-298zM231 -268v124q-32 17 -32 60q0 28 19.5 47.5t47.5 19.5t48 -19.5t20 -47.5v-184h-103z" />
    <glyph glyph-name="kcommaaccent" unicode="&#x137;" 
d="M311 280q32 -46 95.5 -140t95.5 -140h-116l-148 221q-6 -5 -98 -80v-141h-100v675h100v-412l235 184h145zM229 -260v120q-32 17 -32 58q0 27 19.5 46t46.5 19t46.5 -19t19.5 -46v-178h-100z" />
    <glyph glyph-name="Lacute" unicode="&#x139;" 
d="M36 695h103v-595h357v-100h-460v695zM133 772l193 192l73 -73l-193 -192z" />
    <glyph glyph-name="lacute" unicode="&#x13a;" 
d="M486 0h-447v100h173v477h-110v98h210v-575h174v-100zM133 749l188 186l70 -70l-187 -187z" />
    <glyph glyph-name="Lcommaaccent" unicode="&#x13b;" 
d="M36 695h103v-595h357v-100h-460v695zM231 -268v124q-33 18 -33 60q0 27 20.5 47t47.5 20t47.5 -20t20.5 -47v-184h-103z" />
    <glyph glyph-name="lcommaaccent" unicode="&#x13c;" 
d="M486 0h-447v100h173v477h-110v98h210v-575h174v-100zM228 -260v120q-31 16 -31 58q0 27 19 46t46 19t46.5 -19t19.5 -46v-178h-100z" />
    <glyph glyph-name="Lcaron" unicode="&#x13d;" 
d="M494 0h-460v695h103v-595h357v-100zM-35 1001l120 -119l120 119l73 -72l-193 -192l-193 192z" />
    <glyph glyph-name="lcaron" unicode="&#x13e;" 
d="M486 0h-447v100h173v477h-110v98h210v-575h174v-100zM386 458v120q-32 17 -32 58q0 27 19.5 46t46.5 19t46.5 -19t19.5 -46v-178h-100z" />
    <glyph glyph-name="Ldot" unicode="&#x13f;" 
d="M36 695h103v-595h357v-100h-460v695zM347 448q29 0 48.5 -20t19.5 -48t-20 -47.5t-48 -19.5t-47.5 19.5t-19.5 47.5t19.5 48t47.5 20z" />
    <glyph glyph-name="ldot" unicode="&#x140;" 
d="M486 0h-447v100h173v477h-110v98h210v-575h174v-100zM422 651q27 0 46.5 -19.5t19.5 -46.5t-19.5 -46t-46.5 -19t-46.5 19t-19.5 46t19.5 46.5t46.5 19.5z" />
    <glyph glyph-name="Lslash" unicode="&#x141;" 
d="M34 171l-66 -38l-50 85l116 68v409h103v-349l66 38l51 -85l-117 -67v-132h358v-100h-461v171z" />
    <glyph glyph-name="lslash" unicode="&#x142;" 
d="M99 212l113 65v300h-110v98h210v-339l65 37l48 -83l-113 -65v-125h174v-100h-447v100h173v66l-64 -37z" />
    <glyph glyph-name="Nacute" unicode="&#x143;" 
d="M496 695v-695h-96l-261 482v-482h-103v695h96l261 -477v477h103zM133 772l193 192l73 -73l-193 -192z" />
    <glyph glyph-name="nacute" unicode="&#x144;" 
d="M262 447q93 0 158.5 -65.5t65.5 -158.5v-223h-100v223q0 52 -36 88t-88 36q-51 0 -87 -36t-36 -87v-224h-100v447h100v-38q57 38 123 38zM133 521l188 187l70 -71l-187 -186z" />
    <glyph glyph-name="Ncommaaccent" unicode="&#x145;" 
d="M496 695v-695h-96l-261 482v-482h-103v695h96l261 -477v477h103zM231 -268v124q-33 18 -33 60q0 27 20.5 47t47.5 20t47.5 -20t20.5 -47v-184h-103z" />
    <glyph glyph-name="ncommaaccent" unicode="&#x146;" 
d="M262 447q93 0 158.5 -65.5t65.5 -158.5v-223h-100v223q0 52 -36 88t-88 36q-51 0 -87 -36t-36 -87v-224h-100v447h100v-38q57 38 123 38zM228 -260v120q-31 16 -31 58q0 27 19 46t46 19t46.5 -19t19.5 -46v-178h-100z" />
    <glyph glyph-name="Ncaron" unicode="&#x147;" 
d="M496 695v-695h-96l-261 482v-482h-103v695h96l261 -477v477h103zM145 1001l121 -119l120 119l72 -72l-192 -192l-193 192z" />
    <glyph glyph-name="ncaron" unicode="&#x148;" 
d="M262 447q93 0 158.5 -65.5t65.5 -158.5v-223h-100v223q0 52 -36 88t-88 36q-51 0 -87 -36t-36 -87v-224h-100v447h100v-38q57 38 123 38zM145 744l117 -115l116 115l71 -70l-187 -187l-187 187z" />
    <glyph glyph-name="napostrophe" unicode="&#x149;" 
d="M261 447q93 0 158.5 -65.5t65.5 -158.5v-223h-100v223q0 52 -36 88t-88 36q-51 0 -87 -36t-36 -87v-224h-100v447h100v-38q57 38 123 38zM38 548v120q-31 16 -31 58q0 27 19 46t46 19t46.5 -19t19.5 -46v-178h-100z" />
    <glyph glyph-name="Eng" unicode="&#x14a;" 
d="M496 -13q0 -91 -73 -156.5t-165 -65.5q-70 0 -131.5 37.5t-97.5 99.5l86 50q22 -36 62 -61t81 -25q64 0 99.5 41t35.5 105q-27 50 -116 215t-138 255v-482h-103v695h96l261 -477v477h103v-708z" />
    <glyph glyph-name="eng" unicode="&#x14b;" 
d="M486 -4q0 -92 -66 -158t-158 -66q-63 0 -117 36t-87 93l87 49q45 -78 117 -78q51 0 87.5 36.5t36.5 87.5v232q0 49 -37.5 84t-86.5 35q-51 0 -87 -36t-36 -87v-224h-100v447h100v-38q57 38 123 38q93 0 158.5 -65.5t65.5 -158.5v-227z" />
    <glyph glyph-name="Omacron" unicode="&#x14c;" 
d="M496 220q0 -92 -70 -156.5t-162 -64.5t-160 65t-68 156v254q0 91 68 156t160 65t162 -64.5t70 -156.5v-254zM393 474q0 50 -39 85.5t-90 35.5q-50 0 -87.5 -35.5t-37.5 -85.5v-254q0 -50 37.5 -85.5t87.5 -35.5q51 0 90 35.5t39 85.5v254zM101 898h330v-99h-330v99z" />
    <glyph glyph-name="omacron" unicode="&#x14d;" 
d="M262 447q93 0 158.5 -65.5t65.5 -158.5q0 -92 -66 -157.5t-158 -65.5t-157.5 65.5t-65.5 157.5t65.5 158t157.5 66zM262 100q51 0 87.5 36t36.5 87q0 52 -36 88t-88 36q-51 0 -87 -36.5t-36 -87.5t36 -87t87 -36zM102 644h320v-96h-320v96z" />
    <glyph glyph-name="Obreve" unicode="&#x14e;" 
d="M496 220q0 -92 -70 -156.5t-162 -64.5t-160 65t-68 156v254q0 91 68 156t160 65t162 -64.5t70 -156.5v-254zM393 474q0 50 -39 85.5t-90 35.5q-50 0 -87.5 -35.5t-37.5 -85.5v-254q0 -50 37.5 -85.5t87.5 -35.5q51 0 90 35.5t39 85.5v254zM407 913q0 -63 -40 -111
t-101 -48t-101 48t-40 111h102q0 -21 10 -39t29 -18q18 0 28.5 18.5t10.5 38.5h102z" />
    <glyph glyph-name="Ohungarumlaut" unicode="&#x150;" 
d="M497 220q0 -92 -70 -156.5t-162 -64.5t-160 65t-68 156v254q0 91 68 156t160 65t162 -64.5t70 -156.5v-254zM394 474q0 50 -39 85.5t-90 35.5q-50 0 -87.5 -35.5t-37.5 -85.5v-254q0 -50 37.5 -85.5t87.5 -35.5q51 0 90 35.5t39 85.5v254zM111 791l193 191l72 -72
l-193 -192zM309 791l193 191l73 -72l-193 -192z" />
    <glyph glyph-name="ohungarumlaut" unicode="&#x151;" 
d="M263 447q93 0 158.5 -65.5t65.5 -158.5q0 -92 -66 -157.5t-158 -65.5t-157.5 65.5t-65.5 157.5t65.5 158t157.5 66zM263 100q51 0 87.5 36t36.5 87q0 52 -36 88t-88 36q-51 0 -87 -36.5t-36 -87.5t36 -87t87 -36zM93 549l188 186l70 -70l-187 -187zM286 549l187 186
l71 -70l-187 -187z" />
    <glyph glyph-name="OE" unicode="&#x152;" 
d="M36 474q0 91 69.5 156t160.5 65h230v-100h-146v-198h81v-99h-81v-195h146v-103h-230q-91 0 -160.5 64.5t-69.5 155.5v254zM247 593q-45 -8 -76.5 -41t-31.5 -78v-254q0 -44 31.5 -76.5t76.5 -39.5v489z" />
    <glyph glyph-name="oe" unicode="&#x153;" 
d="M448 145l36 -18q-17 -47 -51.5 -87t-76.5 -40q-63 0 -94 51q-32 -51 -95 -51q-34 0 -60 24t-40 60.5t-21 72t-7 66.5q0 46 11.5 94t44 89t80.5 41q58 0 87 -51q32 51 87 51q39 0 67 -24t42 -62t20 -74.5t6 -73.5q0 -14 -2 -40l-169 2q2 -25 12.5 -50t30.5 -25q22 0 43 45
h49zM175 100q14 0 23.5 28.5t11.5 53t2 41.5q0 34 -8.5 79.5t-28.5 45.5t-28 -45t-8 -80q0 -12 1.5 -28.5t4.5 -40t11 -39t19 -15.5zM385 274q-8 71 -36 71q-11 0 -19.5 -15t-12 -29.5t-4.5 -26.5h72z" />
    <glyph glyph-name="Racute" unicode="&#x154;" 
d="M275 695q90 0 155.5 -64.5t65.5 -154.5q0 -66 -37 -121.5t-98 -80.5l149 -274h-118l-139 257h-114v-257h-103v695h239zM139 595v-238h136q49 0 83.5 35t34.5 84t-34.5 84t-83.5 35h-136zM133 772l193 192l73 -73l-193 -192z" />
    <glyph glyph-name="racute" unicode="&#x155;" 
d="M367 347q-51 0 -87 -36t-36 -87v-124h153v-100h-358v100h105v247h-105v100h205v-38q55 38 123 38q59 0 125 -39l-47 -87q-43 26 -78 26zM133 521l188 187l70 -71l-187 -186z" />
    <glyph glyph-name="Rcommaaccent" unicode="&#x156;" 
d="M275 695q90 0 155.5 -64.5t65.5 -154.5q0 -66 -37 -121.5t-98 -80.5l149 -274h-118l-139 257h-114v-257h-103v695h239zM139 595v-238h136q49 0 83.5 35t34.5 84t-34.5 84t-83.5 35h-136zM231 -268v124q-32 17 -32 60q0 28 19.5 47.5t47.5 19.5t48 -19.5t20 -47.5v-184
h-103z" />
    <glyph glyph-name="rcommaaccent" unicode="&#x157;" 
d="M367 347q-51 0 -87 -36t-36 -87v-124h153v-100h-358v100h105v247h-105v100h205v-38q55 38 123 38q59 0 125 -39l-47 -87q-43 26 -78 26zM228 -260v120q-31 16 -31 58q0 27 19 46t46 19t46.5 -19t19.5 -46v-178h-100z" />
    <glyph glyph-name="Rcaron" unicode="&#x158;" 
d="M275 695q90 0 155.5 -64.5t65.5 -154.5q0 -66 -37 -121.5t-98 -80.5l149 -274h-118l-139 257h-114v-257h-103v695h239zM139 595v-238h136q49 0 83.5 35t34.5 84t-34.5 84t-83.5 35h-136zM146 1001l120 -119l120 119l73 -72l-193 -192l-193 192z" />
    <glyph glyph-name="rcaron" unicode="&#x159;" 
d="M367 347q-51 0 -87 -36t-36 -87v-124h153v-100h-358v100h105v247h-105v100h205v-38q55 38 123 38q59 0 125 -39l-47 -87q-43 26 -78 26zM145 744l117 -115l117 115l70 -70l-187 -187l-187 187z" />
    <glyph glyph-name="Sacute" unicode="&#x15a;" 
d="M496 199q0 -87 -71 -143t-160 -56q-92 0 -160.5 63.5t-68.5 154.5h103q0 -49 38 -83t88 -34q47 0 87.5 26.5t40.5 71.5q0 43 -40.5 66.5t-90.5 31.5q-93 16 -159.5 65t-66.5 133q0 86 70 143t159 57q92 0 161.5 -63.5t69.5 -154.5h-103q0 50 -39 84t-89 34
q-47 0 -86.5 -27.5t-39.5 -72.5q0 -42 39 -65.5t89 -32.5q58 -10 106.5 -31t85.5 -65t37 -102zM133 772l193 192l73 -73l-193 -192z" />
    <glyph glyph-name="sacute" unicode="&#x15b;" 
d="M486 134q0 -46 -41.5 -78t-90 -44t-92.5 -12q-46 0 -95.5 15.5t-88.5 52t-39 84.5h99q0 -30 43 -43.5t81 -13.5q34 0 79.5 9t45.5 30t-36 29t-87 11t-102 11.5t-87 39t-36 83.5q0 46 40.5 79.5t89 46.5t93.5 13q49 0 98 -15.5t87.5 -53t38.5 -88.5h-99q-1 31 -44.5 46.5
t-80.5 15.5q-32 0 -78 -10.5t-46 -33.5q0 -35 124 -35q38 0 73.5 -6t71.5 -20.5t57.5 -43.5t21.5 -69zM133 521l188 187l70 -71l-187 -186z" />
    <glyph glyph-name="Scircumflex" unicode="&#x15c;" 
d="M496 199q0 -87 -71 -143t-160 -56q-92 0 -160.5 63.5t-68.5 154.5h103q0 -49 38 -83t88 -34q47 0 87.5 26.5t40.5 71.5q0 43 -40.5 66.5t-90.5 31.5q-93 16 -159.5 65t-66.5 133q0 86 70 143t159 57q92 0 161.5 -63.5t69.5 -154.5h-103q0 50 -39 84t-89 34
q-47 0 -86.5 -27.5t-39.5 -72.5q0 -42 39 -65.5t89 -32.5q58 -10 106.5 -31t85.5 -65t37 -102zM73 809l193 192l192 -192l-72 -72l-120 119l-121 -119z" />
    <glyph glyph-name="scircumflex" unicode="&#x15d;" 
d="M486 134q0 -46 -41.5 -78t-90 -44t-92.5 -12q-46 0 -95.5 15.5t-88.5 52t-39 84.5h99q0 -30 43 -43.5t81 -13.5q34 0 79.5 9t45.5 30t-36 29t-87 11t-102 11.5t-87 39t-36 83.5q0 46 40.5 79.5t89 46.5t93.5 13q49 0 98 -15.5t87.5 -53t38.5 -88.5h-99q-1 31 -44.5 46.5
t-80.5 15.5q-32 0 -78 -10.5t-46 -33.5q0 -35 124 -35q38 0 73.5 -6t71.5 -20.5t57.5 -43.5t21.5 -69zM75 558l187 186l187 -186l-71 -71l-116 116l-117 -116z" />
    <glyph glyph-name="Scedilla" unicode="&#x15e;" 
d="M496 199q0 -60 -39.5 -109t-98.5 -73q14 -27 14 -60q0 -63 -43.5 -103t-106.5 -40q-36 0 -79 17l37 97q36 -12 47 -12q18 0 29.5 11.5t11.5 29.5q0 15 -9.5 27t-23.5 17q-8 2 -28 6.5t-31 8.5q-62 24 -101 79.5t-39 122.5h103q0 -49 38 -83t88 -34q47 0 87.5 26.5
t40.5 71.5q0 42 -40.5 66t-90.5 32q-92 15 -159 64.5t-67 133.5q0 86 70 143t159 57q92 0 161.5 -63.5t69.5 -154.5h-103q0 50 -39 84t-89 34q-47 0 -86.5 -27.5t-39.5 -72.5q0 -42 39.5 -66t88.5 -32q92 -15 160.5 -64.5t68.5 -133.5z" />
    <glyph glyph-name="scedilla" unicode="&#x15f;" 
d="M486 134q0 -45 -40.5 -76.5t-91.5 -45.5q12 -26 12 -54q0 -60 -43 -99.5t-103 -39.5q-31 0 -78 17l37 94q33 -12 45 -12q17 0 29 11.5t12 28.5q0 13 -10 26.5t-23 17.5q-9 3 -29.5 5.5t-29.5 5.5q-53 17 -93.5 53t-40.5 86h99q0 -29 43.5 -43t80.5 -14q34 0 79.5 9
t45.5 30t-36 29t-87 11t-102 11.5t-87 39t-36 83.5q0 46 40.5 79.5t89 46.5t93.5 13q49 0 98 -15.5t87.5 -53t38.5 -88.5h-99q0 30 -44 46t-81 16q-33 0 -78.5 -10.5t-45.5 -33.5q0 -35 124 -35q38 0 73.5 -6t71.5 -20.5t57.5 -43.5t21.5 -69z" />
    <glyph glyph-name="Scaron" unicode="&#x160;" 
d="M496 199q0 -87 -71 -143t-160 -56q-92 0 -160.5 63.5t-68.5 154.5h103q0 -49 38 -83t88 -34q47 0 87.5 26.5t40.5 71.5q0 43 -40.5 66.5t-90.5 31.5q-93 16 -159.5 65t-66.5 133q0 86 70 143t159 57q92 0 161.5 -63.5t69.5 -154.5h-103q0 50 -39 84t-89 34
q-47 0 -86.5 -27.5t-39.5 -72.5q0 -42 39 -65.5t89 -32.5q58 -10 106.5 -31t85.5 -65t37 -102zM145 1001l121 -119l120 119l72 -72l-192 -192l-193 192z" />
    <glyph glyph-name="scaron" unicode="&#x161;" 
d="M486 134q0 -46 -41.5 -78t-90 -44t-92.5 -12q-46 0 -95.5 15.5t-88.5 52t-39 84.5h99q0 -30 43 -43.5t81 -13.5q34 0 79.5 9t45.5 30t-36 29t-87 11t-102 11.5t-87 39t-36 83.5q0 46 40.5 79.5t89 46.5t93.5 13q49 0 98 -15.5t87.5 -53t38.5 -88.5h-99q-1 31 -44.5 46.5
t-80.5 15.5q-32 0 -78 -10.5t-46 -33.5q0 -35 124 -35q38 0 73.5 -6t71.5 -20.5t57.5 -43.5t21.5 -69zM145 744l117 -115l116 115l71 -70l-187 -187l-187 187z" />
    <glyph glyph-name="Tcommaaccent" unicode="&#x162;" 
d="M36 695h460v-100h-180v-595h-101v595h-179v100zM231 -268v124q-33 18 -33 60q0 27 20.5 47t47.5 20t47.5 -20t20.5 -47v-184h-103z" />
    <glyph glyph-name="tcommaaccent" unicode="&#x163;" 
d="M486 447v-100h-232v-182q0 -27 20 -46t47 -19q29 0 47 27t18 57h100q0 -72 -47 -128t-118 -56q-68 0 -117 48.5t-49 116.5v182h-116v100h116v117h99v-117h232zM228 -260v120q-31 16 -31 58q0 27 19 46t46 19t46.5 -19t19.5 -46v-178h-100z" />
    <glyph glyph-name="Tcaron" unicode="&#x164;" 
d="M36 695h460v-100h-180v-595h-101v595h-179v100zM145 1001l121 -119l120 119l72 -72l-192 -192l-193 192z" />
    <glyph glyph-name="tcaron" unicode="&#x165;" 
d="M486 447v-100h-232v-182q0 -27 20 -46t47 -19q29 0 47 27t18 57h100q0 -72 -47 -128t-118 -56q-68 0 -117 48.5t-49 116.5v182h-116v100h116v117h99v-117h232zM386 525v120q-32 17 -32 58q0 27 19.5 46t46.5 19t46.5 -19t19.5 -46v-178h-100z" />
    <glyph glyph-name="Tbar" unicode="&#x166;" 
d="M101 384h114v211h-179v100h460v-100h-180v-211h115v-99h-115v-285h-101v285h-114v99z" />
    <glyph glyph-name="tbar" unicode="&#x167;" 
d="M39 312h116v35h-116v100h116v117h99v-117h232v-100h-232v-35h105v-96h-105v-51q0 -27 20 -46t47 -19q29 0 47 27t18 57h100q0 -72 -47 -128t-118 -56q-68 0 -117 48.5t-49 116.5v51h-116v96z" />
    <glyph glyph-name="Utilde" unicode="&#x168;" 
d="M496 695v-474q0 -92 -70 -156.5t-162 -64.5t-160 65t-68 156v474h103v-474q0 -50 37.5 -85.5t87.5 -35.5q51 0 90 35.5t39 85.5v474h103zM223 825q-5 10 -16 10q-15 0 -15 -14q0 -11 10 -44l-78 -29q-22 38 -22 70q0 46 30 75.5t76 29.5q35 0 61 -19.5t39 -39.5t17 -20
q14 0 14 18q0 10 -7 38l82 33q18 -48 18 -77q0 -48 -30 -76t-79 -28q-68 0 -99 72z" />
    <glyph glyph-name="utilde" unicode="&#x169;" 
d="M263 0q-93 0 -158.5 65.5t-65.5 158.5v223h100v-223q0 -52 36 -88t88 -36q51 0 87 36t36 87v224h100v-447h-100v38q-57 -38 -123 -38zM220 573q-3 10 -15 10q-15 0 -15 -14q0 -5 10 -42l-76 -29q-21 40 -21 68q0 45 29 73.5t74 28.5q25 0 47 -12t33.5 -26.5t21 -26.5
t12.5 -12q13 0 13 19q0 10 -7 36l80 32q17 -45 17 -75q0 -46 -29.5 -73.5t-75.5 -27.5q-66 0 -97 70z" />
    <glyph glyph-name="umacron" unicode="&#x16b;" 
d="M263 0q-93 0 -158.5 65.5t-65.5 158.5v223h100v-223q0 -52 36 -88t88 -36q51 0 87 36t36 87v224h100v-447h-100v38q-57 -38 -123 -38zM102 644h320v-96h-320v96z" />
    <glyph glyph-name="Ubreve" unicode="&#x16c;" 
d="M496 695v-474q0 -92 -70 -156.5t-162 -64.5t-160 65t-68 156v474h103v-474q0 -50 37.5 -85.5t87.5 -35.5q51 0 90 35.5t39 85.5v474h103zM407 913q0 -63 -40 -111t-101 -48t-101 48t-40 111h102q0 -21 10 -39t29 -18q18 0 28.5 18.5t10.5 38.5h102z" />
    <glyph glyph-name="ubreve" unicode="&#x16d;" 
d="M263 0q-93 0 -158.5 65.5t-65.5 158.5v223h100v-223q0 -52 36 -88t88 -36q51 0 87 36t36 87v224h100v-447h-100v38q-57 -38 -123 -38zM399 659q0 -61 -38.5 -108t-98.5 -47q-59 0 -98 47t-39 108h99q0 -20 10 -38t28 -18t28 18t10 38h99z" />
    <glyph glyph-name="Uring" unicode="&#x16e;" 
d="M496 695v-474q0 -92 -70 -156.5t-162 -64.5t-160 65t-68 156v474h103v-474q0 -50 37.5 -85.5t87.5 -35.5q51 0 90 35.5t39 85.5v474h103zM266 989q58 0 99.5 -41.5t41.5 -100.5q0 -58 -41.5 -99.5t-99.5 -41.5t-99.5 41.5t-41.5 99.5q0 59 41.5 100.5t99.5 41.5zM266 808
q16 0 27.5 11.5t11.5 27.5t-11.5 28t-27.5 12t-27.5 -11.5t-11.5 -28.5t11.5 -28t27.5 -11z" />
    <glyph glyph-name="uring" unicode="&#x16f;" 
d="M263 0q-93 0 -158.5 65.5t-65.5 158.5v223h100v-223q0 -52 36 -88t88 -36q51 0 87 36t36 87v224h100v-447h-100v38q-57 -38 -123 -38zM262 732q57 0 97 -40t40 -97q0 -56 -40.5 -96.5t-96.5 -40.5t-96.5 40.5t-40.5 96.5t40.5 96.5t96.5 40.5zM262 557q16 0 27 11t11 27
t-11 27t-27 11t-27 -11t-11 -27t11 -27t27 -11z" />
    <glyph glyph-name="Uhungarumlaut" unicode="&#x170;" 
d="M496 695v-474q0 -92 -70 -156.5t-162 -64.5t-160 65t-68 156v474h103v-474q0 -50 37.5 -85.5t87.5 -35.5q51 0 90 35.5t39 85.5v474h103zM34 772l193 192l73 -73l-193 -192zM232 772l193 192l73 -73l-193 -192z" />
    <glyph glyph-name="uhungarumlaut" unicode="&#x171;" 
d="M264 0q-93 0 -158.5 65.5t-65.5 158.5v223h100v-223q0 -52 36 -88t88 -36q51 0 87 36t36 87v224h100v-447h-100v38q-57 -38 -123 -38zM103 549l187 186l71 -70l-188 -187zM295 549l188 186l70 -70l-187 -187z" />
    <glyph glyph-name="Uogonek" unicode="&#x172;" 
d="M496 695v-474q0 -67 -40.5 -123t-104.5 -81q-12 -5 -33 -9t-30 -7q-13 -5 -22.5 -18t-9.5 -26q0 -18 12.5 -29.5t30.5 -11.5q10 0 46 12l38 -97q-42 -17 -80 -17q-61 0 -105.5 41t-44.5 102q0 32 16 64q-59 27 -96 81.5t-37 118.5v474h103v-474q0 -50 37.5 -85.5
t87.5 -35.5q51 0 90 35.5t39 85.5v474h103z" />
    <glyph glyph-name="uogonek" unicode="&#x173;" 
d="M487 447v-443q-54 -14 -54 -50q0 -17 11.5 -28t28.5 -11t45 12l37 -95q-43 -16 -77 -16q-62 0 -104 38.5t-42 99.5q0 31 16 63q-42 -17 -84 -17q-93 0 -158.5 65.5t-65.5 158.5v223h100v-223q0 -52 36 -88t88 -36q51 0 87 36t36 87v224h100z" />
    <glyph glyph-name="Wcircumflex" unicode="&#x174;" 
d="M395 695h104l-107 -695h-85l-43 195l-52 -195h-81l-98 695h104l55 -417l28 96h91l27 -95zM73 809l193 192l192 -192l-72 -72l-120 119l-121 -119z" />
    <glyph glyph-name="wcircumflex" unicode="&#x175;" 
d="M386 447h104l-114 -447h-91l-22 102l-22 -102h-92l-115 447h106l57 -260l23 105h84l24 -105zM75 558l187 186l187 -186l-71 -71l-116 116l-117 -116z" />
    <glyph glyph-name="Ycircumflex" unicode="&#x176;" 
d="M316 341v-341h-101v341l-192 354h107l136 -239q23 40 68 119.5t68 119.5h108zM73 809l193 192l192 -192l-72 -72l-120 119l-121 -119z" />
    <glyph glyph-name="ycircumflex" unicode="&#x177;" 
d="M388 447h107l-286 -675h-106l106 250q-34 82 -179 425h107l125 -298zM75 558l187 186l187 -186l-71 -71l-116 116l-117 -116z" />
    <glyph glyph-name="Ydieresis" unicode="&#x178;" 
d="M316 341v-341h-101v341l-192 354h107l136 -239q23 40 68 119.5t68 119.5h108zM374 895q28 0 48 -19.5t20 -48.5q0 -27 -20.5 -47t-47.5 -20t-47 20t-20 47q0 28 19.5 48t47.5 20zM158 895q28 0 48 -19.5t20 -48.5q0 -27 -20.5 -47t-47.5 -20t-47 20t-20 47q0 28 19.5 48
t47.5 20z" />
    <glyph glyph-name="Zacute" unicode="&#x179;" 
d="M496 608l-332 -508h332v-100h-460v87l332 508h-332v100h460v-87zM133 772l193 192l73 -73l-193 -192z" />
    <glyph glyph-name="zacute" unicode="&#x17a;" 
d="M486 357l-296 -257h296v-100h-447v90l294 257h-294v100h447v-90zM133 521l188 187l70 -71l-187 -186z" />
    <glyph glyph-name="Zdotaccent" unicode="&#x17b;" 
d="M496 608l-332 -508h332v-100h-460v87l332 508h-332v100h460v-87zM266 905q28 0 48 -20t20 -48q0 -27 -20.5 -47t-47.5 -20t-47.5 20t-20.5 47q0 28 20 48t48 20z" />
    <glyph glyph-name="zdotaccent" unicode="&#x17c;" 
d="M486 357l-296 -257h296v-100h-447v90l294 257h-294v100h447v-90zM262 651q27 0 46.5 -19.5t19.5 -46.5t-19.5 -46t-46.5 -19t-46 19t-19 46t19 46.5t46 19.5z" />
    <glyph glyph-name="Zcaron" unicode="&#x17d;" 
d="M496 608l-332 -508h332v-100h-460v87l332 508h-332v100h460v-87zM145 1001l121 -119l120 119l72 -72l-192 -192l-193 192z" />
    <glyph glyph-name="zcaron" unicode="&#x17e;" 
d="M486 357l-296 -257h296v-100h-447v90l294 257h-294v100h447v-90zM145 744l117 -115l116 115l71 -70l-187 -187l-187 187z" />
    <glyph glyph-name="AEacute" unicode="&#x1fc;" 
d="M247 171h-62l-45 -171h-108l188 695h276v-100h-146v-198h81v-99h-81v-198h146v-100h-249v171zM247 271v137q-3 -9 -36 -137h36zM133 772l193 192l73 -73l-193 -192z" />
    <glyph glyph-name="aeacute" unicode="&#x1fd;" 
d="M133 521l188 187l70 -71l-187 -186zM313 173q2 -27 14 -50t35 -23t43 51h45l39 -22q-18 -53 -51.5 -91t-80.5 -38q-65 0 -97 44q-37 -44 -105 -44q-56 0 -86 36t-30 94q0 80 46 117t126 29q-3 71 -41 71q-31 0 -47 -59l-88 30q15 52 49.5 90.5t82.5 38.5q55 0 93 -45
q31 45 94 45q32 0 56.5 -15t38 -37t22 -53t11 -58t2.5 -56q0 -37 -2 -55h-169zM139 133q0 -14 7.5 -23.5t21.5 -9.5q17 0 30.5 13t13.5 30v31l-14 1q-59 0 -59 -42zM386 274q-4 73 -32 73q-20 0 -30 -24t-12 -49h74z" />
    <glyph glyph-name="Oslashacute" unicode="&#x1fe;" 
d="M138 -95h-111l69 167q-60 63 -60 148v254q0 91 68 156t160 65q41 0 84 -16q41 95 47 111h111l-70 -169q60 -63 60 -147v-254q0 -92 -70 -156.5t-162 -64.5q-39 0 -82 15zM393 474q0 16 -5 34q-28 -67 -83.5 -201t-83.5 -201q20 -7 43 -7q51 0 90 35.5t39 85.5v254z
M264 595q-50 0 -87.5 -35.5t-37.5 -85.5v-254q0 -16 5 -34l166 400q-22 9 -46 9zM133 772l193 192l73 -73l-193 -192z" />
    <glyph glyph-name="oslashacute" unicode="&#x1ff;" 
d="M135 -70h-112l86 131q-70 65 -70 162q0 92 65.5 158t157.5 66q43 0 85 -17q4 6 19 29t23 36h112l-76 -118q61 -64 61 -154q0 -92 -66 -157.5t-158 -65.5q-38 0 -74 12zM262 347q-51 0 -87 -36.5t-36 -87.5q0 -46 25 -75l127 195q-20 4 -29 4zM262 100q51 0 87.5 36
t36.5 87q0 37 -19 65q-20 -31 -61 -93t-61 -94zM133 521l188 187l70 -71l-187 -186z" />
    <glyph glyph-name="Scommaaccent" unicode="&#x218;" 
d="M496 199q0 -87 -71 -143t-160 -56q-92 0 -160.5 63.5t-68.5 154.5h103q0 -49 38 -83t88 -34q47 0 87.5 26.5t40.5 71.5q0 43 -40.5 66.5t-90.5 31.5q-93 16 -159.5 65t-66.5 133q0 86 70 143t159 57q92 0 161.5 -63.5t69.5 -154.5h-103q0 50 -39 84t-89 34
q-47 0 -86.5 -27.5t-39.5 -72.5q0 -42 39 -65.5t89 -32.5q58 -10 106.5 -31t85.5 -65t37 -102zM231 -268v124q-33 18 -33 60q0 27 20.5 47t47.5 20t47.5 -20t20.5 -47v-184h-103z" />
    <glyph glyph-name="scommaaccent" unicode="&#x219;" 
d="M486 134q0 -46 -41.5 -78t-90 -44t-92.5 -12q-46 0 -95.5 15.5t-88.5 52t-39 84.5h99q0 -30 43 -43.5t81 -13.5q34 0 79.5 9t45.5 30t-36 29t-87 11t-102 11.5t-87 39t-36 83.5q0 46 40.5 79.5t89 46.5t93.5 13q49 0 98 -15.5t87.5 -53t38.5 -88.5h-99q-1 31 -44.5 46.5
t-80.5 15.5q-32 0 -78 -10.5t-46 -33.5q0 -35 124 -35q38 0 73.5 -6t71.5 -20.5t57.5 -43.5t21.5 -69zM228 -260v120q-31 16 -31 58q0 27 19 46t46 19t46.5 -19t19.5 -46v-178h-100z" />
    <glyph glyph-name="dotlessj" unicode="&#x237;" 
d="M127 447h331v-452q0 -92 -66 -158t-158 -66q-62 0 -116 36t-87 93l87 49q45 -78 116 -78q51 0 87.5 36.5t36.5 87.5v352h-231v100z" />
    <glyph glyph-name="circumflex" unicode="&#x2c6;" 
d="M73 575l193 192l192 -192l-72 -73l-120 119l-121 -119z" />
    <glyph glyph-name="caron" unicode="&#x2c7;" 
d="M145 767l121 -119l120 119l72 -73l-192 -192l-193 192z" />
    <glyph glyph-name="breve" unicode="&#x2d8;" 
d="M407 679q0 -62 -40 -111t-101 -49t-101 49t-40 111h102q0 -20 10 -39t29 -19q18 0 28.5 19t10.5 39h102z" />
    <glyph glyph-name="dotaccent" unicode="&#x2d9;" 
d="M266 670q28 0 48 -20t20 -48q0 -27 -20.5 -47t-47.5 -20t-47.5 20t-20.5 47q0 28 20 48t48 20z" />
    <glyph glyph-name="ring" unicode="&#x2da;" 
d="M266 755q58 0 99.5 -41.5t41.5 -100.5t-41.5 -100t-99.5 -41t-99.5 41t-41.5 100t41.5 100.5t99.5 41.5zM266 574q16 0 27.5 11.5t11.5 27.5t-11.5 27.5t-27.5 11.5t-27.5 -11.5t-11.5 -27.5q0 -17 11.5 -28t27.5 -11z" />
    <glyph glyph-name="ogonek" unicode="&#x2db;" 
d="M325 77v-69q-22 -5 -39 -18t-17 -33q0 -18 11.5 -29.5t29.5 -11.5q8 0 47 12l38 -97q-43 -17 -80 -17q-64 0 -107 40t-43 103q0 72 69 120h91z" />
    <glyph glyph-name="tilde" unicode="&#x2dc;" 
d="M222 590q-3 10 -15 10q-16 0 -16 -14q0 -6 10 -43l-78 -30q-19 36 -19 75q0 45 28 72.5t72 27.5q29 0 52 -12.5t34 -27t20.5 -27t13.5 -12.5q14 0 14 19q0 10 -7 38l82 33q16 -44 16 -80q0 -46 -29 -73.5t-76 -27.5q-25 0 -45.5 10.5t-29.5 23t-17 25t-10 13.5z" />
    <glyph glyph-name="hungarumlaut" unicode="&#x2dd;" 
d="M154 537l192 192l73 -73l-193 -192zM352 537l193 192l73 -73l-193 -192z" />
    <glyph glyph-name="Wgrave" unicode="&#x1e80;" 
d="M395 695h104l-107 -695h-85l-43 195l-52 -195h-81l-98 695h104l55 -417l28 96h91l27 -95zM326 699l-193 192l73 73l193 -192z" />
    <glyph glyph-name="wgrave" unicode="&#x1e81;" 
d="M386 447h104l-114 -447h-91l-22 102l-22 -102h-92l-115 447h106l57 -260l23 105h84l24 -105zM321 451l-188 186l71 71l187 -187z" />
    <glyph glyph-name="Wacute" unicode="&#x1e82;" 
d="M395 695h104l-107 -695h-85l-43 195l-52 -195h-81l-98 695h104l55 -417l28 96h91l27 -95zM133 772l193 192l73 -73l-193 -192z" />
    <glyph glyph-name="wacute" unicode="&#x1e83;" 
d="M386 447h104l-114 -447h-91l-22 102l-22 -102h-92l-115 447h106l57 -260l23 105h84l24 -105zM133 521l188 187l70 -71l-187 -186z" />
    <glyph glyph-name="Wdieresis" unicode="&#x1e84;" 
d="M395 695h104l-107 -695h-85l-43 195l-52 -195h-81l-98 695h104l55 -417l28 96h91l27 -95zM158 895q28 0 48 -19.5t20 -48.5q0 -27 -20.5 -47t-47.5 -20t-47 20t-20 47q0 28 19.5 48t47.5 20zM374 895q28 0 48 -19.5t20 -48.5q0 -27 -20.5 -47t-47.5 -20t-47 20t-20 47
q0 28 19.5 48t47.5 20z" />
    <glyph glyph-name="wdieresis" unicode="&#x1e85;" 
d="M386 447h104l-114 -447h-91l-22 102l-22 -102h-92l-115 447h106l57 -260l23 105h84l24 -105zM157 642q27 0 46.5 -19.5t19.5 -46.5t-19.5 -46.5t-46.5 -19.5t-46 19.5t-19 46.5t19 46.5t46 19.5zM367 642q27 0 46.5 -19.5t19.5 -46.5t-19.5 -46.5t-46.5 -19.5
q-26 0 -45.5 20t-19.5 46t19.5 46t45.5 20z" />
    <glyph glyph-name="Ygrave" unicode="&#x1ef2;" 
d="M316 341v-341h-101v341l-192 354h107l136 -239q23 40 68 119.5t68 119.5h108zM326 699l-193 192l73 73l193 -192z" />
    <glyph glyph-name="ygrave" unicode="&#x1ef3;" 
d="M388 447h107l-286 -675h-106l106 250q-34 82 -179 425h107l125 -298zM321 451l-188 186l71 71l187 -187z" />
    <glyph glyph-name="quoteleft" unicode="&#x2018;" 
d="M215 423v272h103v-272h-103z" />
    <glyph glyph-name="quoteright" unicode="&#x2019;" 
d="M215 423v272h103v-272h-103z" />
    <glyph glyph-name="quotedblleft" unicode="&#x201c;" 
d="M140 423v272h103v-272h-103zM289 423v272h103v-272h-103z" />
    <glyph glyph-name="quotedblright" unicode="&#x201d;" 
d="M140 423v272h103v-272h-103zM289 423v272h103v-272h-103z" />
    <glyph glyph-name="dagger" unicode="&#x2020;" 
d="M101 510h114v185h103v-185h113v-100h-113v-410h-103v410h-114v100z" />
    <glyph glyph-name="bullet" unicode="&#x2022;" 
d="M360 261q0 -39 -27.5 -67t-66.5 -28t-66 28t-27 67q0 37 27.5 65t65.5 28t66 -27.5t28 -65.5z" />
    <glyph glyph-name="franc" unicode="&#x20a3;" 
d="M-77 229h111v466h461v-100h-358v-198h185v-99h-185v-69h116v-99h-116v-130h-103v130h-111v99z" />
    <glyph glyph-name="Euro" unicode="&#x20ac;" 
d="M36 321h65v53h-65v100h65q0 93 68 157t161 64q14 0 27 -1t22.5 -2.5t22 -5.5t19 -6t20.5 -8t19 -8.5t21 -11t22 -11.5l-46 -89q-70 43 -127 43q-51 0 -88.5 -35t-37.5 -86h227v-100h-227v-53h227v-100h-227q0 -51 37.5 -86t88.5 -35q54 0 128 42l45 -86
q-6 -3 -23.5 -11.5t-25 -12t-22.5 -10t-25 -9.5t-23.5 -6.5t-26.5 -5t-27 -1.5q-93 0 -161 64t-68 157h-65v100z" />
    <glyph glyph-name="minus" unicode="&#x2212;" 
d="M101 397h330v-99h-330v99z" />
    <glyph glyph-name="approxequal" unicode="&#x2248;" 
d="M178 364q-19 0 -30.5 -12.5t-11.5 -31.5q0 -3 12 -47l-91 -36q-22 52 -22 84q0 59 41.5 100.5t100.5 41.5q42 0 72 -18.5t43.5 -40.5t30 -40.5t33.5 -18.5q16 0 27 14.5t11 31.5q0 13 -13 45l96 38q19 -49 19 -82q0 -61 -41 -104t-101 -43q-32 0 -57.5 12.5t-41 30
t-28 34.5t-24.5 29.5t-25 12.5zM178 156q-18 0 -30 -13t-12 -31q0 -3 12 -47l-91 -36q-22 52 -22 84q0 59 41.5 100.5t100.5 41.5q42 0 72 -18.5t43.5 -40.5t30 -40.5t33.5 -18.5q16 0 27 14t11 31q0 7 -13 46l96 38q19 -49 19 -82q0 -61 -41 -104t-101 -43
q-32 0 -57.5 12.5t-41 29.5t-28 34.5t-24.5 30t-25 12.5z" />
    <glyph glyph-name="notequal" unicode="&#x2260;" 
d="M197 65h-112l53 83h-37v99h98q2 5 8.5 12t8.5 12h-115v100h177l57 89h112l-57 -89h41v-100h-103q-3 -5 -8.5 -12t-8.5 -12h120v-99h-182z" />
    <glyph glyph-name="lessequal" unicode="&#x2264;" 
d="M101 130h136l-136 78v86l330 201v-114l-203 -130l203 -130v-91h-330v100z" />
    <glyph glyph-name="greaterequal" unicode="&#x2265;" 
d="M431 30h-330v91l203 130l-203 130v114l330 -201v-86l-136 -78h136v-100z" />
    <glyph glyph-name="commaaccent" unicode="&#xf6c3;" 
d="M231 -268v124q-33 18 -33 60q0 27 20.5 47t47.5 20t47.5 -20t20.5 -47v-184h-103z" />
    <glyph glyph-name="NULL" horiz-adv-x="0" 
 />
    <glyph glyph-name="Q.alt" 
d="M496 408q0 -94 -79 -164.5t-172 -55.5l-51 -50q26 -3 90.5 -20.5t101.5 -17.5q44 0 110 31v-106q-68 -25 -129 -25q-39 0 -111 20t-111 20q-49 0 -109 -33v102l112 110q-38 22 -61.5 49t-34 61.5t-13.5 65t-3 79.5q0 91 69.5 156t160.5 65t160.5 -65t69.5 -156v-66z
M393 474q0 50 -38.5 85.5t-88.5 35.5t-88.5 -35.5t-38.5 -85.5v-66q0 -50 38.5 -85.5t88.5 -35.5t88.5 35.5t38.5 85.5v66z" />
  </font>
</defs>
</svg>
