<svg xmlns="http://www.w3.org/2000/svg" viewBox="0 0 448 448">
  <path fill="#000" d="M447.66,153.79l-.16-.84c-.12-.55-.17-1.06-.34-1.62a6.45,6.45,0,0,1-.28-1c-.17-.44-.28-.95-.5-1.4a9,9,0,0,0-.45-.95c-.22-.44-.45-.83-.67-1.28a8.83,8.83,0,0,0-.56-.9c-.45-.67-.95-1.34-1.46-2-.28-.33-.61-.73-.95-1.06a4.92,4.92,0,0,0-.78-.73c-.34-.33-.73-.61-1.07-.89a10.87,10.87,0,0,0-.89-.67c-.11-.06-.23-.17-.34-.23L234.63,4.23a19.19,19.19,0,0,0-21.32,0L8.62,140.37c-.11.06-.22.17-.34.23-.28.22-.56.45-.89.67s-.73.61-1.07.89-.5.51-.78.73a9.58,9.58,0,0,0-1,1.06,13.51,13.51,0,0,0-1.46,2c-.16.28-.39.55-.56.89s-.44.84-.67,1.29c-.16.28-.28.61-.44.95s-.34,1-.51,1.39a7.25,7.25,0,0,0-.28.95c-.11.51-.22,1.07-.33,1.63l-.17.84A19.13,19.13,0,0,0,0,156.42V292.57a19.36,19.36,0,0,0,.17,2.51l.17.84.33,1.62c.11.34.17.62.28.95.17.51.34.95.51,1.4a7.38,7.38,0,0,0,.44.95c.23.45.39.84.67,1.29a8.71,8.71,0,0,0,.56.89c.28.39.51.78.84,1.18l.68.83c.28.34.61.73.95,1.07a4.45,4.45,0,0,0,.78.72c.34.34.73.62,1.06.9s.56.45.9.67c.11.05.22.17.34.22L213.31,444.76a19.26,19.26,0,0,0,21.38,0L439.32,308.61c.12-.05.23-.17.34-.22.28-.22.56-.45.9-.67s.72-.62,1.06-.9.5-.5.78-.72a8.07,8.07,0,0,0,1-1.07l.68-.83.84-1.18c.16-.28.39-.56.56-.89s.44-.84.67-1.29c.16-.28.28-.61.44-.95s.34-.95.51-1.4a5,5,0,0,0,.28-.95,12.88,12.88,0,0,0,.33-1.62l.17-.84a19.36,19.36,0,0,0,.17-2.51V156.31C447.83,155.47,447.78,154.63,447.66,153.79ZM243.2,56.06,394,156.37l-67.34,44.95-83.4-55.69V56.06Zm-38.51,0v89.57l-83.4,55.69L54,156.37ZM38.51,192.26l48.13,32.15L38.51,256.56ZM204.69,392.7,54,292.4l67.33-44.95,83.4,55.68V392.7Zm19.25-122.89-68.06-45.4L223.94,179,292,224.35ZM243.2,392.7V303.13l83.4-55.68,67.33,44.95L243.2,392.7ZM409.38,256.5l-48.14-32.15,48.14-32.15Z"/>
</svg>
