<svg xmlns="http://www.w3.org/2000/svg" viewBox="0 0 406.72 406.72">
  <g>
    <circle cx="203.36" cy="203.36" r="203.36" fill="#60569d"/>
    <path d="M187.36,202.63c-25-2.48-49.7-6.6-73.64-14.44-11.86-3.88-23.48-8.41-33.51-16.1-5.49-4.2-10.9-9-9.84-16.76s7.39-11.15,13.83-13.65c18.77-7.3,38.06-6.86,57.41-2.9,16,3.28,30.69,9.66,43.43,20.41-18.32-30.76-43.33-56.37-66.13-85,3.57,0,5,1.49,6.39,2.68,29.43,25.12,54.13,53.94,69.91,89.68,1.79,4.05,3.73,8.15,4.07,12.7-2.85.52-1.72-2.69-3.05-3.06a81.48,81.48,0,0,1,5.68,13.3c3.1,5.4,2.84,5.92-3.39,6.51-.88.08-1.69.17-2,1.14a2,2,0,0,0,.88,2.17c4,2.73,3.38,5.27.26,8.43-2.66,2.7-1.82,3.88,3.39,5.6a2.52,2.52,0,0,1,.9,1.21c-.46,4.5-1.45,8.81-4.33,12.46-1.91.46-3.59-.34-3.94-2-.7-3.31-2.89-5.34-5-7.64-3.34-3.62-3.3-8.37-.34-12.48A2.05,2.05,0,0,0,187.36,202.63Z" fill="#fefefe"/>
    <path d="M208.33,177.47c.22-5.13,2.71-9.54,4.74-14,13.45-29.73,33.87-54.31,57.17-76.7,5-4.81,10.05-9.62,17.13-13.62-1.72,4.93-4.72,7.77-7.27,10.82-17.58,21-35.92,41.48-51.61,64.05-2.44,3.5-4.71,7.12-7.06,10.69,1.53,1.11,2.08-.16,2.72-.71,13.87-11.82,30.3-17.73,48-20.43,17.13-2.62,34.16-2.39,50.56,4.11,17,6.73,18.78,19,4.38,30.14-11.47,8.91-25,13.74-38.68,17.89a335.53,335.53,0,0,1-67.9,12.74c-2.09.18-4.32,0-6.27,1.1a.45.45,0,0,0-.13.41c0,.15.16.28.25.42,7.18,3.59,8.16,8,2.78,13.88a6.47,6.47,0,0,0-1.76,5.82c.4,3.13.18,6.19-4.18,6.36-3.34-2.34-3.28-6.41-4.85-9.65-.93-1.9-1.1-4.07-1.86-6a2.74,2.74,0,0,1,0-2.21,2.65,2.65,0,0,1,2.52-1.26c1.39,0,3.17.91,3.74-1.18.41-1.5-.85-2.39-1.91-3.19-3.11-2.35-3.45-4.66-.05-7.08,1.07-.76,2.29-1.67,1.6-3.23-.57-1.32-1.92-.84-3-1-3.69-.48-4.76-2.4-2.82-5.73,2.55-5.22,3.92-11,7.79-16.28C210.8,175.29,210.79,177.61,208.33,177.47Z" fill="#fefefe"/>
    <path d="M191.36,204.37c-4.53,6.33-4,9,3,13.21a3.19,3.19,0,0,1,1.64,3.75c-.36,1.87-.57,3.64,1.13,5,1,2.95-1.82,4.64-2.17,6.75a32.54,32.54,0,0,1,2.84-5.3c.75-1,1.66-1.1,1.74.58-9.57,30-27.82,54.56-48.71,77.45a210.5,210.5,0,0,1-25.71,24.33c-1.41,1.11-3,2-5.24,3.58.81-4.1,3.17-6.23,5.06-8.52,14.9-18.11,30.66-35.5,44.72-54.3,5.54-7.39,11-14.85,15.1-23.45-2.25,1.72-4.43,3.54-6.74,5.16-20.35,14.22-43.24,18.89-67.61,17.95-8.87-.34-17.57-1.69-25.8-5.12-6.38-2.64-12.87-5.75-14.21-13.37-1.41-8,4.12-13,9.79-17.24,13.13-9.83,28.47-14.88,44-19.32,20.66-5.91,41.86-8.92,63.14-11.39C188.75,203.36,190.1,203.08,191.36,204.37Z" fill="#fefefe"/>
    <path d="M211.36,229.34c2.58-2.18,2.15-4.53.48-7-.87-1.32-2.2-2.65,0-4.17,7.7-5.3,7.87-6.41,2.51-13.78,12-.07,23.82,2.05,35.62,4,19.69,3.27,39,7.91,57.5,15.74,8.29,3.52,16.34,7.51,22.89,13.85,9.65,9.36,8.37,18.92-3.49,25.34-11.62,6.27-24.38,7.64-37.27,7.46-22.23-.31-43.12-5.41-61.53-18.6-1.91-1.37-3.28-3.79-6.46-3.76,19,30.53,43.92,56.06,66.38,84.4-7.94-1.56-31.92-25-48.18-45.94-13.67-17.56-25.05-36.34-32.42-57.43,1.21-1.21,2.09-.54,2.73.58.9,1.57,1.68,3.2,2.61,4.58C212.15,233,209.85,231.67,211.36,229.34Z" fill="#fefefe"/>
    <path d="M205.3,190.26v4.12c3.22-2.2,6.91-4.47,8.93-.08,2.27,4.94-2.24,6.77-6,8.67,2.55,3.21,9.61,4.79,5.3,10.57-2.57,3.45-5.92,1.17-8.19-1.75-2,.3-3.48,1.51-5.15,2.4-2.81,1.17-6.08,1.79-7.53-1.27-2.52-5.35,3-6.82,5.87-9.78-2.54-1.79-5.93-2.64-6.38-6.27-.14-1.17-.2-2.42.71-3.3,3.42-3.32,6.2-1,9.54,1.79-.63-2.49-1.06-4.21-1.49-5.93a1,1,0,0,1,1.51-.05h1.78C205.19,188.94,205.52,189.27,205.3,190.26Z" fill="#62589f"/>
    <path d="M199.58,228.37c-2.76.71-2.42,3.66-3.82,5.38s-2.34,4.16-5.32,6.49l6.73-13.9a61.27,61.27,0,0,0,4.45-12c0-1.23.19-2.38,1.73-2.37,1.28,0,1.48,1,1.49,2.07a1.76,1.76,0,0,1-.52,1.44c-2.9,2.05-2.27,5.51-3.29,8.31C200.47,225.26,200.9,227.08,199.58,228.37Z" fill="#8078b1"/>
    <path d="M204.32,215.44l.22-1.44c.39-.12.63,0,.7.42,1.7,5.11,3.17,10.32,6.12,14.92l5,10.89c-3.3-2.54-4.24-5.43-5.94-7.72-.85-1.14-.56-3.55-3.06-3.09C207.89,224.43,203.65,220.47,204.32,215.44Z" fill="#827ab2"/>
    <path d="M205.3,190.26l-1.07-.88c.6-4.24,2.42-8,4.1-11.91,2.89-3,3.84-7.28,7.94-10.85Z" fill="#7e76b0"/>
    <path d="M202.45,189.38l-1.51.05L192,168.82c4,3.24,4.52,7.62,7.27,10.39A41.4,41.4,0,0,1,202.45,189.38Z" fill="#756daa"/>
    <path d="M191.36,204.37l-4-.24v-1.5c1.66.1,3.32.17,5,.34.5.05,1,.49.44,1C192.45,204.25,191.84,204.24,191.36,204.37Z" fill="#62589f"/>
    <path d="M205.24,214.42c-.24-.13-.47-.27-.7-.42-1.28-2.86-2-.21-2.92.3l-1.4-.11c2.05-5,2.2-5.08,5.15-2.4C205.33,212.67,205.29,213.54,205.24,214.42Z" fill="#b3aed0"/>
  </g>
</svg>
