<svg xmlns="http://www.w3.org/2000/svg" viewBox="0 0 1870.96 1870.77">
  <rect x="0.1" width="1870.77" height="1870.77" fill="none"/>
  <path d="M1871,368.77c-14.34,13.94-28.44,28.14-43.08,41.77q-40.56,37.79-81.65,75c-10.11,9.2-18.15,19.51-23.8,32.2-13.63,30.64-28.09,60.91-42.33,91.28-10.27,21.91-20.8,43.71-35,63.44a142.9,142.9,0,0,1-15.63,18.39,51.08,51.08,0,0,1-14,9.69c-10.92,5.12-22.23,1.87-28.63-8.33a57.93,57.93,0,0,1-7.78-17.73c-3.31-14.92-6.43-30-8.06-45.16-3.25-30.14-5.27-60.42-8.11-90.61-2.78-29.65-5.47-59.34-9.07-88.9C1547.66,399,1538.75,348.73,1522.6,300c-11.34-34.21-27.45-66.17-46-96.95-25.47-42.17-55.48-81-88.3-117.56-24.3-27.09-49.84-53-77.39-76.9a35.55,35.55,0,0,1-3.3-3.31A12.15,12.15,0,0,1,1306.38,3c3.4-2.45,7.21-3,11-2.85,18.19.56,36.47.25,54.53,2.12,47.74,5,94.2,16,139.85,30.88,44.26,14.43,82.91,38,118.46,67.63,63.56,52.91,122.06,111,177.43,172.25,18.31,20.26,35.4,41.61,52.9,62.59,3.79,4.54,6.93,9.63,10.37,14.46ZM1354.13,777.91c-.56-9-1.28-18.12-2.59-27.08-4.36-29.64-16.64-56.15-33.15-80.81-25.25-37.72-54.52-72-88.69-102a443.05,443.05,0,0,0-96.1-64.66,399.26,399.26,0,0,0-57.81-23.19c-2.76-.87-5.17-1.55-6.48-4.79-7-17.39-20-29.56-35.63-39-32.86-19.93-68.7-25.61-106.42-20.91-24.59,3.07-47.54,11-68.1,25.07-11.7,8-22.08,17.55-28.44,30.45-2.33,4.73-5.52,6.95-10.22,8.37a404.45,404.45,0,0,0-74.59,31.25,442.1,442.1,0,0,0-101.14,74.9c-13.68,13.47-26.37,28-38.8,42.65A404.11,404.11,0,0,0,563,689.33c-17.24,30.16-23.62,63.06-24,97.22-.36,28.85.66,57.71.85,86.57a565.71,565.71,0,0,0,6.47,79.82c3.66,24.49,9.17,48.52,19.68,71.11,13.91,29.88,36.44,48.92,69.56,53.89,13.59,2,27.32,3.22,41,4.64,15.37,1.58,30,5.14,43.94,12.32,20.23,10.45,41.92,16.77,64.34,20.71,29.64,5.22,59.52,5.75,89.48,5.08l66.38-1.53c4.15,0,7.53,0,10.92,0,35.39.27,70.81,1.31,106.19.64,41.53-.79,81.63-9,119-28.15,10.61-5.44,22-7.75,33.67-9,17-1.78,34.22-2.62,51.19-5,23.27-3.22,41.82-14.72,55.35-34.22,9.16-13.19,15.38-27.66,20-42.91,11.73-39.09,14.88-79.42,16.63-119.87.86-20,.41-40.06.68-60.09.06-4.14,1-8.27.92-12.39C1355,798.13,1354.76,788,1354.13,777.91ZM905.81,434.21h74.32l.45,1.54c-11.94,4.67-23.84,9.43-35.84,13.93a8.15,8.15,0,0,1-5.29-.38c-11.32-4.4-22.56-9-33.83-13.52Zm139.87,334.43a310.35,310.35,0,0,0-63.06-30.07c-21-7.19-41.6-6.75-62.56-.17a285.88,285.88,0,0,0-80.47,40.16c-1.26.9-2.55,1.76-3.84,2.61a15.39,15.39,0,0,1-2.73.42c13.1-14,25.58-26.36,39.56-37.18A255.12,255.12,0,0,1,926.49,712c14.42-6.31,28.26-6.51,42.85-.4,19.84,8.32,37.57,19.86,54.39,33,10.17,8,19.65,16.64,27.67,27.18C1049.49,770.76,1047.53,769.79,1045.68,768.64ZM558.25.16c-13-.09-26.07-.52-39,.54A639.57,639.57,0,0,0,374.31,29.84c-35.78,11.57-70.42,25.55-100.42,49-13.54,10.57-27.28,20.9-40.37,32-63,53.45-121.07,112-176,173.74-15,16.9-29.17,34.62-43.39,52.23-4.71,5.83-8.43,12.48-12.55,18.79q-3.67,5.65,1,10.62c4.45,4.75,8.55,9.85,13.29,14.28,22.42,21,45.08,41.7,67.53,62.64q30,28,59.59,56.27a37,37,0,0,1,7.54,10.75c9.24,19.5,18.08,39.19,27.21,58.75,11.87,25.44,23.38,51.07,36.06,76.1,6.18,12.22,14.06,23.73,22.31,34.71a82.64,82.64,0,0,0,19.05,18.18c14,9.56,28.23,5.55,35.94-9.46a99.3,99.3,0,0,0,6.76-18.22c5.71-20.09,7.11-40.89,9.16-61.53,2.42-24.23,4.17-48.53,6.34-72.79q3-33.3,6.23-66.56A947.07,947.07,0,0,1,337.2,358c8.8-40.22,21.44-79.08,40.17-115.91,23.21-45.62,52.06-87.46,84.59-126.78,14.22-17.19,29.3-33.68,44.51-50,11.87-12.72,24.43-24.81,36.88-37C551.86,20,560.72,12,571.05,2.39,565.67,1.41,562,.19,558.25.16Zm112.35,434c-.69-7-1.05-14-2.12-20.87C658.67,350,600.64,299.46,528.72,306.45c-33.75,3.28-62.29,17.83-84.26,43.83-30.94,36.61-39.38,78.64-24.91,124,14.05,44,45,72,89.37,84.59A117,117,0,0,0,569,559.94a12.8,12.8,0,0,0,5.91-3,1019,1019,0,0,1,83.8-75.6,19.33,19.33,0,0,0,5.86-8.77C668.5,460.13,670.86,447.38,670.6,434.18ZM575,411.24c-18.16.29-33.7-15.95-33.58-34.06.13-19,15.34-33.77,34.62-33.59a33.5,33.5,0,0,1,33.06,33.47C609.28,394.39,596.3,410.91,575,411.24Zm871.82-61c-22-26-50.52-40.55-84.27-43.83-71.91-7-129.94,43.58-139.75,106.86-1.07,6.9-1.44,13.91-2.13,20.87-.25,13.2,2.11,25.95,6,38.39a19.23,19.23,0,0,0,5.85,8.77,1019.15,1019.15,0,0,1,83.81,75.6,12.77,12.77,0,0,0,5.9,3,117,117,0,0,0,60.12-1.11c44.37-12.59,75.32-40.59,89.37-84.59C1486.23,428.92,1477.78,386.89,1446.85,350.28Zm-130.57,61c-21.28-.33-34.25-16.85-34.1-34.18a33.5,33.5,0,0,1,33.06-33.47c19.27-.18,34.48,14.58,34.61,33.59C1350,395.29,1334.44,411.53,1316.28,411.24Z" fill="#e8c69e"/>
</svg>
