<svg xmlns="http://www.w3.org/2000/svg" viewBox="0 0 2671.54 2671.54">
  <rect width="2671.54" height="2671.54" fill="none"/>
  <path d="M2237.81,1474.86c-87.4.49-163.09,21.48-226.56,52.73-23.44-46.38-46.88-86.91-50.78-117.18-4.39-35.16-9.77-56.65-4.39-98.64s29.78-101.56,29.78-106.45c-.5-4.39-5.38-25.88-55.67-26.36s-93.75,9.76-98.63,23a561.14,561.14,0,0,0-21,74.7c-8.79,45.9-100.58,208.5-152.83,294-17.09-33.2-31.74-62.5-34.67-85.94-4.39-35.16-9.77-56.64-4.39-98.63s29.78-101.56,29.78-106.45c-.48-4.39-5.37-25.88-55.66-26.36s-93.75,9.76-98.63,22.94-10.25,44.44-21,74.71c-10.26,30.28-132.33,301.76-164.07,372.56-16.12,36.13-30.27,64.94-40.53,84.47s-.49,1.47-1.46,3.42c-8.79,16.6-13.68,25.88-13.68,25.88v.49c-6.83,12.21-14.16,23.92-17.58,23.92-2.44,0-7.32-32.71,1-77.63,18.06-94.24,62-241.21,61.53-246.58,0-2.44,8.29-28.33-28.33-41.5-35.64-13.19-48.33,8.79-51.27,8.79s-5.37,7.81-5.37,7.81,39.55-165.52-75.68-165.52c-72.27,0-171.88,78.61-221.19,150.39-31.25,17.09-97.66,53.21-168,91.79-26.86,14.65-54.69,30.28-81.06,44.44l-5.36-5.87c-139.65-148.93-397.95-254.4-387.21-454.59,3.9-72.76,29.3-264.65,496.1-497.07,382.32-190.43,688.47-138.19,741.69-22,75.69,166-163.57,474.61-561,519.05-151.37,17.09-231-41.51-251-63.48-21-22.95-23.92-23.93-31.73-19.53-12.7,6.84-4.89,27.34,0,39.55,11.72,30.76,60.54,85.45,143.55,112.79,72.75,23.93,250.49,37.11,465.33-45.9,240.73-93.26,428.71-352,373.54-568.35C1595.24,408,1230,335.69,884.79,458.25,679.22,531.5,456.56,645.75,296.4,795.66c-190.43,177.73-220.7,333-208,397.46,44.43,230,361.32,379.88,488.28,490.72-6.35,3.41-12.21,6.83-17.58,9.77-63.48,31.24-305.18,157.71-365.72,291.49C125,2136.47,204.12,2245.36,256.85,2260c163.09,45.41,330.08-36.13,420.41-170.41,89.84-134.28,79.1-308.59,37.6-388.18l-1.47-2.93,49.8-29.3c32.24-19,64-36.62,91.8-51.76-15.62,42.48-26.85,92.77-32.71,166-6.83,86,28.32,197.27,74.71,241.21,20.51,19,44.92,19.54,60.06,19.54,53.71,0,78.12-44.44,105-97.66,33.2-64.94,62.5-140.14,62.5-140.14S1087.91,2010,1188,2010c36.63,0,73.25-47.37,89.85-71.78v.49s1-1.47,2.93-4.89c2-3,4-6.12,5.86-9.27v-1c14.65-25.4,47.36-83.5,96.19-179.69,63-124,123.53-279.3,123.53-279.3s5.86,38.09,23.93,100.59c10.74,37.11,34.17,77.63,52.24,117.18-14.65,20.51-23.44,32.24-23.44,32.24l.49.48c-11.71,15.63-24.9,32.24-38.57,48.83-49.8,59.57-109.37,127.45-117.19,147-9.27,22.94-7.32,40,10.75,53.71,13.18,9.77,36.62,11.72,61.52,9.77,44.92-2.94,76.17-14.16,91.8-21a318.17,318.17,0,0,0,79.1-41.51c48.83-36.13,78.61-87.4,75.68-155.75-1.46-37.6-13.67-74.71-28.81-109.87,4.4-6.35,8.8-12.7,13.19-19.53,77.15-112.8,136.72-236.82,136.72-236.82s5.86,38.09,23.92,100.59c9.27,31.74,27.83,66.41,44.44,100.59-72.27,59.08-117.68,127.44-133.3,172.36-28.81,83-6.35,120.61,36.13,129.4,19,3.91,46.38-4.88,66.89-13.67a303.23,303.23,0,0,0,84.48-43.46c48.82-36.13,95.7-86.43,93.26-154.3-1.47-31.25-9.77-62-21-91.31,61.52-25.39,141.11-40,242.19-27.83,217.28,25.39,260.25,161.14,252,217.78s-53.71,87.89-68.86,97.65c-15.13,9.28-20,12.7-18.55,19.53,2,10.26,8.79,9.77,22,7.82,18.07-2.93,114.26-46.39,118.17-150.87,5.86-134.3-121.59-280.78-347.66-279.32ZM562,2039.8c-71.78,78.61-172.85,108.39-215.82,83-46.39-26.85-28.33-142.57,60.06-226.07C460,1846,529.8,1799.07,575.7,1770.27c10.25-6.35,25.88-15.62,44.43-26.86a51.11,51.11,0,0,1,4.89-2.93c3.41-2,7.32-4.39,11.23-6.84C669,1852.78,637.71,1957.28,562,2039.8Zm524.9-356.94c-24.9,61-77.64,217.78-109.37,209-27.35-7.33-43.95-126-5.38-243.17,19.53-59.08,61-129.39,85.45-156.74,39.55-44,82.52-58.59,93.27-40.53C1163.59,1474.85,1102.56,1644.78,1086.93,1682.86Zm433.11,207c-10.75,5.38-20.51,9.28-24.91,6.36-3.41-2,4.39-9.28,4.39-9.28s54.2-58.11,75.69-85c12.2-15.62,26.85-33.69,42.48-54.2v5.86c0,70.31-67.38,117.18-97.65,136.22Zm334-76.17c-7.82-5.86-6.84-23.92,19.53-80.56,10.26-22.47,33.69-60.06,74.22-95.71,4.88,14.65,7.81,28.81,7.32,42C1954.61,1767.34,1892.11,1800.05,1854,1813.72Z" fill="#cf649a"/>
</svg>
