<svg xmlns="http://www.w3.org/2000/svg" viewBox="0 0 448 448">
  <path fill="#000" d="M448,115.24a183.87,183.87,0,0,1-52.87,14.21,91.61,91.61,0,0,0,40.38-50.61A181.17,181.17,0,0,1,377.25,101a91.87,91.87,0,0,0-158.88,62.84,105.52,105.52,0,0,0,2.27,21.06A260.94,260.94,0,0,1,31.33,88.8,92.1,92.1,0,0,0,59.76,211.68,92.68,92.68,0,0,1,18.25,200v1.13a91.83,91.83,0,0,0,73.6,90.14,97.12,97.12,0,0,1-24.17,3.12A121.82,121.82,0,0,1,50.34,293a92,92,0,0,0,85.82,63.7,184,184,0,0,1-114,39.26A188,188,0,0,1,0,394.81,260,260,0,0,0,141,436c168.84,0,261.23-139.89,261.23-261.32,0-4,0-8-.27-12A197.72,197.72,0,0,0,448,115.24Z"/>
</svg>
