<svg id="caroline-logo" xmlns="http://www.w3.org/2000/svg" viewBox="0 0 558.6 171.5">
  <defs>
    <radialGradient id="rainbow" r='65%' cx='60%' gradientUnits="userSpaceOnUse" gradientTransform="skewX(20) translate(-150, -30)">
    <!-- <radialGradient id="rainbow" x1="0" x2="0" y1="0" y2="100%" gradientTransform="rotate(10)" gradientUnits="userSpaceOnUse" > -->
      <stop id="rainbox-offset1" offset="0%" style="stop-color:#a18cd1;" />
      <stop id="rainbox-offset2" offset="32%" style="stop-color:#be9dd9;" />
      <stop id="rainbox-offset3" offset="74%" style="stop-color:#e4b4e4;" />
      <stop id="rainbox-offset4" offset="100%" style="stop-color: #fbc2eb;" />
    </radialGradient>
  </defs>
  <path fill="url(#rainbow)" class="compound" d="M159,132.8a10.1,10.1,0,0,0-10.2,3.2,11.8,11.8,0,0,1-3.2,3.1l-2.1,1.5c-.1-.9.2-7.5.4-9.4a48.6,48.6,0,0,1,1.1-5.5c1.2-4.9,2.5-9.8,3.7-14.7s2.6-9.7,4-14.7l1.2-6.1c.3-2.1.5-4.1.7-6.1a8.3,8.3,0,0,0-.7-5.6,7.8,7.8,0,0,0-7.1-4.3,6.1,6.1,0,0,0-1.9,0l-.8-.7c-5.3-5.8-11.2-8.6-17.9-8.6a22.2,22.2,0,0,0-5.1.6A27.3,27.3,0,0,0,112,69a40.6,40.6,0,0,0-11.7,11.3c0,.1-.1.1-.2.4-6.1,9-10.2,16.1-13.7,21.4a91.9,91.9,0,0,1-10.3,13c-2,2-13.5,13.1-23.1,14.9a29.9,29.9,0,0,1-4.3.4,18.9,18.9,0,0,1-19-15.2,37.3,37.3,0,0,1-.7-12.9c.6-7.7,2.6-13.5,6.5-18.8,1.4-1.8,2.5-2.5,4-2.5a8.9,8.9,0,0,1,3.2.8c4.1,1.8,6.4,4.3,7.5,7.9v.2c1.1,2.7,3.1,4.2,5.3,4.2a4.3,4.3,0,0,0,2.5-.7,4.6,4.6,0,0,0,2.6-2.7,5.8,5.8,0,0,0-.5-5,10.1,10.1,0,0,0-.7-1.5A48.4,48.4,0,0,0,55.8,77,28.3,28.3,0,0,0,32.6,64.1c-6.4,0-12.6,2.5-18,7.3a38.6,38.6,0,0,0-6.3,7.1A51.2,51.2,0,0,0,.1,110.1,39.7,39.7,0,0,0,11,135.4a48.6,48.6,0,0,0,6.6,5.4s9.4,5.9,20,5.6v-.2h6.6l3.3-.6a71.6,71.6,0,0,0,13.8-4.4,79.5,79.5,0,0,0,11.6-6,22,22,0,0,0,3,7.2c.8,1,5.1,6.8,12.6,7.7a18.7,18.7,0,0,0,11.8-2.8,18.2,18.2,0,0,0,3.8-2.9c13.3-12.7,19.6-20.9,19.6-20.9s2.3-3.1,3.5-4.7c-.8,4.3-1.4,8.7-1.8,13.1,0,2.2.1,4.4.2,6.5a19.9,19.9,0,0,0,2.6,7.9,14.7,14.7,0,0,0,4.7,5.5,15.7,15.7,0,0,0,6.5,2.5,15.5,15.5,0,0,0,7.1-.5,20.4,20.4,0,0,0,6.7-3.9,56.9,56.9,0,0,0,6-7C160.5,140.9,163.9,134.2,159,132.8Zm-40.3-29.5c-1.6,2.2-7.3,9.8-11.3,14.5s-12.8,14.1-13.8,13.7-2.8-2.9-.8-12.7a4.5,4.5,0,0,0,.3-1.6c6.4-8.3,10-16.1,22.2-26.6,3.7-3.2,8.7-7.2,14.7-6.9-1,1.3-2,2.9-2.4,3.3S120.3,101.1,118.7,103.3ZM220.4,77.2a15.7,15.7,0,0,1-6.5,1.3h-.6c-4.4,0-7.5,2.1-9.4,6.6S200.5,93.6,199,98a138.3,138.3,0,0,0-5.7,25.5V125c-.6,4.8-1.1,9.7-1.8,14.5s-2,5.9-5.3,6.8H186l-1.6.3H182c-2.7,0-4.8-1.5-6.4-4.4a34,34,0,0,1-3.1-10.7v-1c-.6-6-1.1-12-1.3-17.8,0-.2,0-.8.3-5.1.4-7.8,1.3-23.9,1.2-26.1a6.8,6.8,0,0,1,5.3-7.1,29.4,29.4,0,0,1,5.1-.5,12.3,12.3,0,0,1,8.1,2.4,9.1,9.1,0,0,1,1.7,1.7c2.2-2.8,3.8-4.6,4.1-5a13.6,13.6,0,0,1,11.6-6.1h2a17.9,17.9,0,0,0,4.6.4h3.5c3.1.3,4.8,1.8,5,4.4S223.8,75.7,220.4,77.2ZM552,96.2a3.9,3.9,0,0,0-2.3-2.4,5.4,5.4,0,0,0-2.2-.5l-1.2.2c-5.5,1.7-9.4,10.2-9.4,10.2-8,17.3-26.2,27-28.9,27.9a26.1,26.1,0,0,1-6.8,1.1c-5.6,0-10.8-6.6-12.6-15.5,13.9-10.8,25-22.3,26.1-28.7s-1.2-14.3-6.7-18.8c-1.5-1.2-6.8-5.2-12-3.9a18,18,0,0,0-7.6,1.4A32.1,32.1,0,0,0,473.7,80c-3.3,5.3-5.2,11-6.2,18.4-.2,2-.6,6.9-.6,6.9a48.7,48.7,0,0,0,1.6,13.2,244.9,244.9,0,0,1-22.8,11.2h-.3c-.6-1.1-1.3-2.3-1.8-3.4-3.3-7.1,0-24.1,0-31.7a69.2,69.2,0,0,0-3.2-23.5c-1.4-3.6-2.6-7-5.1-10.1h-.1a12.1,12.1,0,0,0-7.5-4.4h-1.5a11.4,11.4,0,0,0-4,.8h-.3a24.9,24.9,0,0,0-3,1.9l-1,.9-.3.3c0,.1-.1.1-.1.2s-.1.1-.2.2a102.5,102.5,0,0,0-6.8,9.1c-1.4,2.5-5.6,8.9-10.4,16.3a3.3,3.3,0,0,0,0-1.4c-.3-2-.5-3.8-.6-5.6h0a23.9,23.9,0,0,0-1.9-9.9,8.5,8.5,0,0,0-8.4-5.4h-.1c-4.3.2-6.2,3.1-7.3,5.6a19.3,19.3,0,0,0-1.3,4.7,83.7,83.7,0,0,0-.5,10h0c0,1.8-.8,6.9-1.3,13.5a.4.4,0,0,1-.1.3c-1.2,3.7-18.4,29.6-21.9,32.2l-3.2,2.4a14,14,0,0,1-2-4.6,86.8,86.8,0,0,1,.4-16.9c.3-2.7.6-5.5,1-8.3.5-4.5,1.1-9.3,1.4-14a52.5,52.5,0,0,0,.3-5.6,38.6,38.6,0,0,0-.2-7.6,16.4,16.4,0,0,0-1-3.8,8.6,8.6,0,0,0-3.4-5.1h0c3,.1,5.2-2,6.5-4a5.8,5.8,0,0,0,1.1-2.4c1.1-4.6-2.3-8.7-3.8-10.6a10,10,0,0,0-2.2-2,8.5,8.5,0,0,0-6.8-1.1,8.7,8.7,0,0,0-5.7,3.7,9.2,9.2,0,0,0-1.9,6.8,9.8,9.8,0,0,0,4,7.2l1.7,1c-2.4.4-4.5,2.1-6.3,4.9a20.4,20.4,0,0,0-2.2,5.8l-.3.8c-1,3.9-1.9,12.2-2.4,18.8l-.2.5a8.9,8.9,0,0,0-.8,1.7l-.6,1.3c-.5,1.2-1.1,2.5-1.7,3.7-1.7,4.1-3.6,8.2-5.5,12.2a60.3,60.3,0,0,1-6.8,11.8l-.3.5c-.8.6-2.1,1.8-4.2,3.8l-.8.7-.8.2c-.1,0-.3,0-.6-.8a13.1,13.1,0,0,1-.6-2.7c0-.4-.1-.8-.1-1.1a79.7,79.7,0,0,1-.4-18.9c.2-3.6.6-7.2.9-10.8v-1l.6-6.7.2-1.7c.7-7.4,1.4-14.4,2.3-22.1s1.8-15.6,2.5-23.5c1-10.1,2-20.4.6-30.7a19.6,19.6,0,0,0-1.8-6.8h-.1c-2-3.6-4.8-5.4-8.3-5.4s-6.4,1.8-8.4,5.4a19.6,19.6,0,0,0-1.3,4.1c-3.5,19.4-4.4,39.5-5.2,57.4-.3,6-.5,11.8-.9,17.2V99.5l-3.8,2.4c-3.6,2.4-7.6,5-11.1,5h-.8l-.4-.2a2.2,2.2,0,0,1-.1-1.4v-.5a6.9,6.9,0,0,0,.3-2c1.2-9.8.1-17.9-3.4-25.3a21.4,21.4,0,0,0-7.6-9.7,16.8,16.8,0,0,0-10.8-3.9c-5.4,0-10.4,2.8-13.9,7.7a22.6,22.6,0,0,0-3.5,8.3h0c-7.7.4-10.1,5.8-11.4,10.9a73.6,73.6,0,0,0-1.9,16.9c0,6.5.4,13.6,3.6,21,4.8,11.7,9.4,16.8,15.5,16.8s9.6-3.6,17.2-9.9c9.5-8,10.3-16,12.6-19.2l.4-.5a86.5,86.5,0,0,0,19.4-3.9,128.8,128.8,0,0,0,2.1,15,35,35,0,0,0,4.9,12.4c3,3.9,6.6,5.9,10.8,5.9a24.1,24.1,0,0,0,9.2-2.4,3.1,3.1,0,0,0,1.5-1.3h.6a33.1,33.1,0,0,0,6-6.9c2-2.8,4.8-8.6,7.3-14.1.8,7.1,2.7,12.5,5.5,16.9s7.1,7.6,11.7,8.2h1.2c.1,0,.2,0,.2.1H352c3.4,0,8-2.5,10.3-4.2a51.5,51.5,0,0,0,7.9-8.3l9-11.9a51.1,51.1,0,0,0,3.3,13.2h0c.5,1.3,1.1,2.6,1.7,3.9,2.2,4.5,5.4,5.5,7.6,5.5h1.3c3.6-.7,4.6-2.9,5.4-7.4s1.1-11.8,4-17.4c5.7-11.4,10.4-20.5,14.2-27.9.3,6.4.8,11.9,1.1,14.7a58.8,58.8,0,0,0,6.3,23.6,27.1,27.1,0,0,0,9.3,10,15.5,15.5,0,0,0,8.3,2.5h1l.7-.2a13.2,13.2,0,0,0,4.4-.8c7.2-2.3,16-6.9,24.8-12.6a63.7,63.7,0,0,0,3.5,5.5c5.3,6.7,12,10.5,19.9,11.1h2.9a40.4,40.4,0,0,0,16.7-4.2c20.3-9.7,33.6-35.8,34-36.6l1.6-3.3h.1C552.3,99.1,552.5,97.5,552,96.2ZM249.9,79.6c1-1.3,2-2,3-2a4.6,4.6,0,0,1,2.9,1.5,11.3,11.3,0,0,1,3.2,4.6c2.5,5.7,1.6,18.4,1.6,18.8s-.1.6-.2.6h-.5c-4.3-2.4-9.9-7.4-11.5-13.7a.4.4,0,0,0-.1-.3v-.2A14.3,14.3,0,0,1,248,86,10.3,10.3,0,0,1,249.9,79.6Zm-4,46.4a1.7,1.7,0,0,1-1.2.5c-.4,0-.6-.9-.7-1.3a6.6,6.6,0,0,0-.1-1.4,97.2,97.2,0,0,1-.2-18.6h0c2.4,3.1,8.7,7.2,11.5,8.7l.8.4C253.4,118.2,249.4,123.8,245.9,126ZM492.1,95.3c1.7-3.1,3.1-6,5.2-8.4a5.7,5.7,0,0,1,1.5-1.6l.2-.2h.3c.1,0,.1,0,.1.1,1.8,6.5-3.2,13.4-10.8,19.9A31.2,31.2,0,0,1,492.1,95.3Z" transform="translate(0 8)" />
  <g class="logo" id="clips">
    <clipPath id="c"><path d="M37.6,154.4c-10.6.3-20-5.6-20-5.6a42.1,42.1,0,0,1-6.6-5.4A39.2,39.2,0,0,1,.1,118.1,50.8,50.8,0,0,1,8.3,86.5a36,36,0,0,1,6.3-7.1c5.4-4.8,11.6-7.3,18-7.3A28.3,28.3,0,0,1,55.8,85a69,69,0,0,1,3.6,7.2,10.1,10.1,0,0,1,.7,1.5,6,6,0,0,1,.5,5,4.6,4.6,0,0,1-2.6,2.7,4.7,4.7,0,0,1-2.5.7c-2.2,0-4.2-1.5-5.3-4.2v-.2c-1.1-3.6-3.4-6.1-7.5-7.9a9.3,9.3,0,0,0-3.2-.8c-1.5,0-2.6.7-4,2.5-3.9,5.3-5.9,11.1-6.5,18.8a35.9,35.9,0,0,0,.7,12.9,18.9,18.9,0,0,0,19,15.2,27.2,27.2,0,0,0,4.3-.4c9.6-1.8,21.1-12.9,23.1-14.9a98,98,0,0,0,10.3-13c3.5-5.3,7.6-12.4,13.7-21.4.1-.3.2-.3.2-.4A39.6,39.6,0,0,1,112,77a27.5,27.5,0,0,1,9.1-3.5,23.5,23.5,0,0,1,5.1-.6c6.7,0,12.6,2.8,17.9,8.6a16.7,16.7,0,0,1,3.4,4.5l.2.5.9,1.3a1.3,1.3,0,0,1-.2,1.7c-2.1,2-4.3,4.2-6.9,7a1,1,0,0,1-.9.4h-.1a1.2,1.2,0,0,1-.9-.5h-.2a15.6,15.6,0,0,0-8.6-4.6c-6.3-.8-11.7,3.4-15.5,6.8C98,113.5,98,122.9,82.6,136a80.4,80.4,0,0,1-21.3,13.2,71.6,71.6,0,0,1-13.8,4.4l-3.3.6H37.6Z"/></clipPath>
    <clipPath id="a1"><path d="M138.8,108.8c1.4-2.9,2.8-5.9,2.8-9.6s.1-3.6-.6-5.5a6.6,6.6,0,0,0-5.9-4.4,6.7,6.7,0,0,0-3.7.8c-1,.7-3.3,4.2-3.8,4.9s-7.3,14.1-8.9,16.3-7.3,9.8-11.3,14.5-12.8,14.1-13.8,13.7-2.8-2.9-.8-12.7a5.3,5.3,0,0,0-.7-4.5c-2.2-2.9-11.4-.5-16.1,5s-4.8,16.4-.1,23.1c.8,1,5.1,6.8,12.6,7.7a19.2,19.2,0,0,0,11.8-2.8,19.4,19.4,0,0,0,3.8-2.9c13.3-12.7,19.6-20.9,19.6-20.9A216.6,216.6,0,0,0,138.8,108.8Z"/></clipPath>
    <clipPath id="a2"><path d="M159,140.8a10,10,0,0,0-10.2,3.2,13.5,13.5,0,0,1-3.2,3.1l-2.1,1.5c-.1-.9.2-7.5.4-9.4a35.7,35.7,0,0,1,1.1-5.5c1.2-4.9,2.5-9.8,3.7-14.7s2.6-9.7,4-14.7l1.2-6.1c.3-2.1.5-4.1.7-6.1a9,9,0,0,0-.7-5.6,7.9,7.9,0,0,0-7.1-4.3,7.4,7.4,0,0,0-4.4.8c-1.2.6-2.2,1.8-4.4,4.8s-8.6,28.7-10,34.8a126.7,126.7,0,0,0-2.6,17.3c0,2.2.1,4.4.2,6.5a18,18,0,0,0,2.6,7.9,14.5,14.5,0,0,0,4.7,5.5,14.7,14.7,0,0,0,6.5,2.5,15.5,15.5,0,0,0,7.1-.5,20.4,20.4,0,0,0,6.7-3.9,56.9,56.9,0,0,0,6-7c1.3-2,4.7-8.7-.2-10.1Z"/></clipPath>
    <clipPath id="r1"><path d="M182,154.6c-2.7,0-4.8-1.5-6.4-4.4s-2.6-7.2-3.1-10.7v-1c-.6-6-1.1-12-1.3-17.8,0-.2,0-.8.3-5.1.4-7.8,1.3-23.9,1.2-26.1a6.8,6.8,0,0,1,5.3-7.1,33.6,33.6,0,0,1,5.1-.5,12.6,12.6,0,0,1,8.1,2.4c3.9,3.1,4.4,8.5,5.2,16.6a32.7,32.7,0,0,1,.3,5.2c.1,9.7-3,19.1-5.7,25.5v1.5c-.5,4.8-1.1,9.7-1.8,14.5s-2,5.9-5.3,6.8h0Z"/></clipPath>
    <clipPath id="r2"><path d="M184.4,154.6c-2.7,0-4.9-1.5-6.4-4.4s-2.6-7.2-3.1-10.7l-.2-1c-.6-6-1-12-1.2-17.8v-.2c1.7-14,22.2-38,23.5-39.5a13.5,13.5,0,0,1,11.6-6.1h2a19.1,19.1,0,0,0,4.6.4h3.5c3.1.3,4.8,1.8,5,4.4s.1,4-3.3,5.5a16.4,16.4,0,0,1-6.5,1.3h-.6c-4.4,0-7.5,2.1-9.4,6.6s-3.4,8.5-4.9,12.9a131.5,131.5,0,0,0-5.7,25.5v1.5c-.6,4.8-1.1,9.7-1.8,14.5s-2,5.9-5.3,6.8H186Z"/></clipPath>
    <clipPath id="o1"><path d="M240.1,153.6c-6.1,0-10.7-5.1-15.5-16.8-3.2-7.4-3.6-14.5-3.6-21a71.2,71.2,0,0,1,1.9-16.9c1.3-5.1,3.7-10.5,11.4-10.9h.1a1.3,1.3,0,0,1,1.2.8c1.4,3.2,3.4,6.9,5.2,10.1,3.7,6.8,4.7,8.8,3.8,10.1s-2,10-.7,22.8a8.8,8.8,0,0,1,.1,1.4c.1.4.3,1.3.7,1.3a2.1,2.1,0,0,0,1.2-.5c4.7-3,10.3-12.1,12.2-15.1a7.2,7.2,0,0,1,.7-1.1,6.1,6.1,0,0,1,5.8-3.4,7,7,0,0,1,6.3,3.4c.6,1.1,1.3,3.5-1,6.7s-3.1,11.2-12.6,19.2c-7.6,6.3-12.5,9.9-17.2,9.9Z"/></clipPath>
    <clipPath id="o2"><path d="M266.7,124.1c-4.8,0-8.7-.7-11.5-2.2s-9.1-5.6-11.5-8.7c-3.9-5-9.8-20.7-9.8-22.5v-.2c.1-.8.2-1.6.4-2.6a20.1,20.1,0,0,1,3.5-8.3c3.5-4.9,8.5-7.7,13.9-7.7a17.3,17.3,0,0,1,10.8,3.9,21.8,21.8,0,0,1,7.6,9.7c3.5,7.4,4.6,15.5,3.4,25.3a8.1,8.1,0,0,1-.3,2v.5h0a1.7,1.7,0,0,0,.1,1.4l.4.2h.8c3.5,0,7.5-2.6,11.1-5s5.1-3.3,7.1-3.5a3.2,3.2,0,0,1,1.4-.3c1.6,0,2.7,1.2,3.1,3.1s-1.5,9-6.4,10.7h-.5C281.5,122.7,273.2,124.1,266.7,124.1Zm-6.8-13h.5c.1,0,.2-.2.2-.6s.9-13.1-1.6-18.8a12,12,0,0,0-3.2-4.6,4.8,4.8,0,0,0-2.9-1.5c-1,0-2,.7-3,2A9.8,9.8,0,0,0,248,94a15.9,15.9,0,0,0,.3,2.9v.2a.4.4,0,0,1,.1.3C250,103.7,255.6,108.7,259.9,111.1Z"/></clipPath>
    <clipPath id="l1"><path d="M307.5,153.4c-4.2,0-7.8-2-10.8-5.9a33.2,33.2,0,0,1-4.9-12.4,100.9,100.9,0,0,1-2.3-21.4c-.1-3-.1-6.1-.1-8.7V92.1h0c.4-5.4.6-11.2.9-17.2.8-17.9,1.7-38,5.2-57.4a15.2,15.2,0,0,1,1.3-4.1q3-5.4,8.4-5.4c3.5,0,6.3,1.8,8.3,5.4h.1a20.8,20.8,0,0,1,1.8,6.8c1.4,10.3.4,20.6-.6,30.7-.7,7.9-1.6,15.8-2.5,23.5s-1.6,14.7-2.3,22.1l-.2,1.7-.6,6.7v1c-.3,3.6-.7,7.2-.9,10.8a78.4,78.4,0,0,0,.4,18.9c0,.3.1.7.1,1.1a8.8,8.8,0,0,0,.6,2.7h0c.3.8.5.8.6.8a1.5,1.5,0,0,0,.8-.2l.8-.7c2.7-2.6,4.1-3.9,4.8-4.2a3.1,3.1,0,0,1,1.3-.3c.9,0,2.4.4,3,3.1s-.5,11.6-4,13.1A23.8,23.8,0,0,1,307.5,153.4Z"/></clipPath>
    <clipPath id="l2"><path d="M317.9,149.8h-.5c-2.9-1.3-1.8-13.5-1.8-13.6a1.7,1.7,0,0,1,.5-1.2,66.9,66.9,0,0,0,6.8-11.8c1.9-4,3.8-8.1,5.5-12.2.6-1.2,1.2-2.5,1.7-3.7l.6-1.3a5.3,5.3,0,0,1,.8-1.7,1.8,1.8,0,0,1,.4-.9c.5-.9,5.2-8.9,9.4-9.8h.5c1.9,0,3.6,2.3,4.9,6.9s-1.4,5.9-4.4,9.6a46.5,46.5,0,0,0-5.5,7.6h-.1c-2.4,5.9-8.5,20.1-11.9,25a35,35,0,0,1-6,6.9Z"/></clipPath>
    <clipPath id="i1"><path d="M350.7,153.7h-1.4c-4.6-.6-8.6-3.4-11.7-8.2s-5.1-10.9-5.8-19.1h-.1c-.4-3.4-.5-6.8-.6-10,0-1.2-.1-2.3-.1-3.4h0c.1-2.2,1.3-21.5,3.1-28l.3-.8a17.5,17.5,0,0,1,2.2-5.8c2.1-3.4,4.7-5.1,7.7-5.1h1.4a8.8,8.8,0,0,1,7.7,6.7,25.8,25.8,0,0,1,1,3.8,39.7,39.7,0,0,1,.2,7.6,52.5,52.5,0,0,1-.3,5.6c-.3,4.7-.9,9.5-1.4,14-.4,2.8-.7,5.6-1,8.3a85.7,85.7,0,0,0-.4,16.9c.2,2.2,2.2,5,3.5,6.9l1.4,2a7.6,7.6,0,0,1-.5,6.3,5.7,5.7,0,0,1-5.2,2.5Z"/></clipPath>
    <clipPath id="i2"><path d="M352,153.9a3.9,3.9,0,0,1-2.9-1c-1.8-1.6-1.9-4.9-.2-7.5s6.1-5.8,7.8-7c3.5-2.6,20.7-28.5,21.9-32.2s1.4-8.9,1.4-13.8a67,67,0,0,1,.5-10,17.1,17.1,0,0,1,1.3-4.7c1.1-2.5,3-5.4,7.3-5.6h.1a8.6,8.6,0,0,1,8.4,5.4,25.7,25.7,0,0,1,1.9,9.9c.1,1.8.3,3.6.6,5.6.6,5.7-10.3,22.4-17.3,31.6l-12.6,16.8a52.5,52.5,0,0,1-7.9,8.3c-2.3,1.7-6.9,4.2-10.3,4.2Z"/></clipPath>
    <clipPath id="n1"><path d="M399.5,87.4a25.7,25.7,0,0,0-1.9-9.9,8.6,8.6,0,0,0-8.4-5.4h-.1c-4.3.2-6.2,3.1-7.3,5.6a17.1,17.1,0,0,0-1.3,4.7,67,67,0,0,0-.5,10c0,4.9-6,34.2,4.2,54.1,2.2,4.5,5.4,5.5,7.6,5.5h1.3c3.6-.7,4.6-2.9,5.4-7.4S399.6,89.2,399.5,87.4Z"/></clipPath>
    <clipPath id="n2"><path d="M443.6,134.4c-3.3-7.1,0-24.1,0-31.7a70,70,0,0,0-3.2-23.5c-1.4-3.6-2.6-7-5.1-10.1h-.1a12.3,12.3,0,0,0-7.5-4.4h-1.5a11,11,0,0,0-4,.8h-.3a16.6,16.6,0,0,0-3,1.9l-1,.9-.3.3a.3.3,0,0,0-.1.2c-.1,0-.1.1-.2.2a79.6,79.6,0,0,0-6.8,9.1c-4.2,7.2-31.6,48.2-31.6,49.3a53.4,53.4,0,0,0,5.3,19.2c2.2,4.5,5.4,5.5,7.6,5.5h1.3c3.6-.7,4.6-2.9,5.4-7.4s1.1-11.8,4-17.4c5.7-11.4,10.4-20.5,14.2-27.9.3,6.4.8,11.9,1.1,14.7a57.5,57.5,0,0,0,6.3,23.6,26.3,26.3,0,0,0,9.3,10,15.4,15.4,0,0,0,8.3,2.5h1C452,147.4,446.1,139.9,443.6,134.4Z"/></clipPath>
    <clipPath id="e1"><path d="M443.1,150c-1.1,0-3.4,0-4-1.1-4-7,5.1-10.6,6.6-11.2s59-24.7,53.7-44.5c0-.1,0-.1-.1-.1h-.5c-.2.1-3.2,2.2-5.2,1.6-5.6-1.9-7.7-6.9-5.2-13,5.9-14.3,17.3-5.9,19.6-4,5.5,4.5,7.8,11,6.7,18.8-2.2,12.6-43.2,45-66.9,52.7A13.1,13.1,0,0,1,443.1,150Z"/></clipPath>
    <clipPath id="e2"><path d="M498.9,153.2H496c-7.9-.6-14.6-4.4-19.9-11.1a46.3,46.3,0,0,1-9.2-28.8s.4-4.9.6-6.9c1-7.4,2.9-13.1,6.2-18.4a32.1,32.1,0,0,1,14.7-12.8,18.8,18.8,0,0,1,13-.5c7.2,3.3-2.3,18.4-2.6,18.6a5.9,5.9,0,0,0-1.5,1.6h0c-2.1,2.4-3.5,5.3-5.2,8.4-9.5,16.8-.8,37.4,9.1,37.4h0a25,25,0,0,0,6.8-1.1c2.7-.9,20.9-10.6,28.9-27.9,0,0,3.9-8.5,9.4-10.2a4.3,4.3,0,0,1,1.2-.2,6.3,6.3,0,0,1,2.2.5,4.1,4.1,0,0,1,2.3,2.4c.5,1.3.3,2.9-.7,4.9h-.1l-1.6,3.3c-.4.8-13.7,26.9-34,36.6A41.2,41.2,0,0,1,498.9,153.2Z"/></clipPath>
  </g>
  <g id="strokes" fill="none" stroke="#55325D" stroke-linecap="round" stroke-linejoin="round" stroke-width="31">
    <path clip-path="url(#c)" class="cPath path" d="M53.9,94s-.5-9.8-10.6-12a21.4,21.4,0,0,0-14.5,2.2c-6.4,3.5-9.2,9.2-10.7,12.5C12.5,108.3,12.6,125,22,136a25.9,25.9,0,0,0,9.3,7.1c10.1,4.3,20.3-.2,26.7-2.9C72.4,134,81.8,123.1,88,116l9.1-10.8,9.5-11.3c5.8-5.9,14.5-14.9,24.5-13.8a18.7,18.7,0,0,1,8.6,3.2"/>
    <path clip-path="url(#a1)" class="a1Path path" d="M84.3,120c-.4,1.1-5.3,14.7,2,23.3.8,1,5.1,6,10.7,5.7a11.2,11.2,0,0,0,6.1-2.4c11-8.3,19.4-25.4,28.1-39.4,1.8-2.8,5.9-9.4,5.6-17.8a4.6,4.6,0,0,1-.1-1"/>
    <path clip-path="url(#a2)" class="a2Path path" d="M144.7,80.9s-11.5,51.4-11.3,55.1-2.5,20.4,3.3,20,17.4-11.5,18.6-16"/>
    <path clip-path="url(#r1)" class="r1Path path" d="M182,85.4a85.7,85.7,0,0,1,2.4,34.9c-.6,4-1.5,8.1-1.7,12.2a36.3,36.3,0,0,0,1.5,12.7"/>
    <path clip-path="url(#r2)" class="r2Path path" d="M188.5,150.3c-2-5.3-6.9-19.5-3.4-33.9a55.7,55.7,0,0,1,3.1-9,44.2,44.2,0,0,1,11.6-15.8,40.9,40.9,0,0,1,14.8-8.1"/>
    <path clip-path="url(#o1)" class="o1Path path" d="M234.1,97.9c-1.1,19.7.2,34.5,3.4,38.7a8.7,8.7,0,0,0,5,3.5,7.2,7.2,0,0,0,5.2-1.3c6.1-3.5,8.7-12.2,9.4-14.4"/>
    <path clip-path="url(#o2)" class="o2Path path" d="M265.3,117.5A98.2,98.2,0,0,0,261.6,83a7.7,7.7,0,0,0-1.2-2.6c-1.2-1.3-3.2-1.5-5-1.6s-6.2-.2-8.8,1.4-4.7,6.1-5.7,9.9a88.5,88.5,0,0,0-2.7,12.4,8.8,8.8,0,0,0,.2,3.6c.8,3,3.9,4.6,6.8,5.7a66,66,0,0,0,47.9-.3"/>
    <path clip-path="url(#l1)" class="l1Path path" d="M307.3,14c-.9,45.4-14.2,90.6-7.6,135.5.3,2.4.9,5,2.9,6.3s5.5.4,7.3-1.6a16.8,16.8,0,0,0,3.2-7.5"/>
    <path clip-path="url(#l2)" class="l2Path path" d="M310.5,157.5A254.1,254.1,0,0,1,325.6,130c4.6-7.6,9.2-15.2,12.7-23.4a94.5,94.5,0,0,0,5-15.6"/>
    <path clip-path="url(#i1)" class="i1Path path" d="M346.1,77.4c-2.8,8.5-3.8,17.4-4.7,26.2l-2.8,25.3c-.4,3.8-.8,7.6.4,11.2s3.1,5.5,6,5.5a4.5,4.5,0,0,0,2.8-.7"/>
    <path clip-path="url(#i2)" class="i2Path path" d="M355.9,145.4c7.9-3.5,14.3-9.6,19.7-16.4a94.8,94.8,0,0,0,20.1-52.5"/>
    <path clip-path="url(#n1)" class="n1Path path" d="M387.1,77.9c1,23.1-2.8,47.3,6.3,68.5"/>
    <path clip-path="url(#n2)" class="n2Path path" d="M394.5,139.2a75.2,75.2,0,0,1,16.6-49.4c4.7-5.8,11-11.2,18.4-11.7-1.7,6-1.3,12.5-1,18.8.5,10.4,1.1,21,3.6,31.2a22.1,22.1,0,0,0,3.3,7.9,9.5,9.5,0,0,0,7.2,4.3"/>
    <path clip-path="url(#e1)" class="e1Path path" d="M433.9,138.3a63,63,0,0,0,22.6-1.7c8.5-2.2,26.7-8.8,37.4-27.2a56.5,56.5,0,0,0,7.5-23.9"/>
    <path clip-path="url(#e2)" class="e2Path path" d="M505.5,77.8c-3.5-.4-6.8,1.2-9.9,2.7s-9,4.6-11.9,8.6a20.1,20.1,0,0,0-2.5,5.1,42.6,42.6,0,0,0,4,38,21.8,21.8,0,0,0,5.8,6.3c5.6,3.6,11.7,3,15.1,2.6,10.7-1.1,17.9-7.1,21.7-10.3A51.1,51.1,0,0,0,544.6,104"/>
  </g>
  <g id="strokes2" fill="none" stroke="#bb9cd8" stroke-linecap="round" stroke-linejoin="round" stroke-width="31">
    <path clip-path="url(#c)" class="cPath path" d="M53.9,94s-.5-9.8-10.6-12a21.4,21.4,0,0,0-14.5,2.2c-6.4,3.5-9.2,9.2-10.7,12.5C12.5,108.3,12.6,125,22,136a25.9,25.9,0,0,0,9.3,7.1c10.1,4.3,20.3-.2,26.7-2.9C72.4,134,81.8,123.1,88,116l9.1-10.8,9.5-11.3c5.8-5.9,14.5-14.9,24.5-13.8a18.7,18.7,0,0,1,8.6,3.2"/>
    <path clip-path="url(#a1)" class="a1Path path" d="M84.3,120c-.4,1.1-5.3,14.7,2,23.3.8,1,5.1,6,10.7,5.7a11.2,11.2,0,0,0,6.1-2.4c11-8.3,19.4-25.4,28.1-39.4,1.8-2.8,5.9-9.4,5.6-17.8a4.6,4.6,0,0,1-.1-1"/>
    <path clip-path="url(#a2)" class="a2Path path" d="M144.7,80.9s-11.5,51.4-11.3,55.1-2.5,20.4,3.3,20,17.4-11.5,18.6-16"/>
    <path clip-path="url(#r1)" class="r1Path path" d="M182,85.4a85.7,85.7,0,0,1,2.4,34.9c-.6,4-1.5,8.1-1.7,12.2a36.3,36.3,0,0,0,1.5,12.7"/>
    <path clip-path="url(#r2)" class="r2Path path" d="M188.5,150.3c-2-5.3-6.9-19.5-3.4-33.9a55.7,55.7,0,0,1,3.1-9,44.2,44.2,0,0,1,11.6-15.8,40.9,40.9,0,0,1,14.8-8.1"/>
    <path clip-path="url(#o1)" class="o1Path path" d="M234.1,97.9c-1.1,19.7.2,34.5,3.4,38.7a8.7,8.7,0,0,0,5,3.5,7.2,7.2,0,0,0,5.2-1.3c6.1-3.5,8.7-12.2,9.4-14.4"/>
    <path clip-path="url(#o2)" class="o2Path path" d="M265.3,117.5A98.2,98.2,0,0,0,261.6,83a7.7,7.7,0,0,0-1.2-2.6c-1.2-1.3-3.2-1.5-5-1.6s-6.2-.2-8.8,1.4-4.7,6.1-5.7,9.9a88.5,88.5,0,0,0-2.7,12.4,8.8,8.8,0,0,0,.2,3.6c.8,3,3.9,4.6,6.8,5.7a66,66,0,0,0,47.9-.3"/>
    <path clip-path="url(#l1)" class="l1Path path" d="M307.3,14c-.9,45.4-14.2,90.6-7.6,135.5.3,2.4.9,5,2.9,6.3s5.5.4,7.3-1.6a16.8,16.8,0,0,0,3.2-7.5"/>
    <path clip-path="url(#l2)" class="l2Path path" d="M310.5,157.5A254.1,254.1,0,0,1,325.6,130c4.6-7.6,9.2-15.2,12.7-23.4a94.5,94.5,0,0,0,5-15.6"/>
    <path clip-path="url(#i1)" class="i1Path path" d="M346.1,77.4c-2.8,8.5-3.8,17.4-4.7,26.2l-2.8,25.3c-.4,3.8-.8,7.6.4,11.2s3.1,5.5,6,5.5a4.5,4.5,0,0,0,2.8-.7"/>
    <path clip-path="url(#i2)" class="i2Path path" d="M355.9,145.4c7.9-3.5,14.3-9.6,19.7-16.4a94.8,94.8,0,0,0,20.1-52.5"/>
    <path clip-path="url(#n1)" class="n1Path path" d="M387.1,77.9c1,23.1-2.8,47.3,6.3,68.5"/>
    <path clip-path="url(#n2)" class="n2Path path" d="M394.5,139.2a75.2,75.2,0,0,1,16.6-49.4c4.7-5.8,11-11.2,18.4-11.7-1.7,6-1.3,12.5-1,18.8.5,10.4,1.1,21,3.6,31.2a22.1,22.1,0,0,0,3.3,7.9,9.5,9.5,0,0,0,7.2,4.3"/>
    <path clip-path="url(#e1)" class="e1Path path" d="M433.9,138.3a63,63,0,0,0,22.6-1.7c8.5-2.2,26.7-8.8,37.4-27.2a56.5,56.5,0,0,0,7.5-23.9"/>
    <path clip-path="url(#e2)" class="e2Path path" d="M505.5,77.8c-3.5-.4-6.8,1.2-9.9,2.7s-9,4.6-11.9,8.6a20.1,20.1,0,0,0-2.5,5.1,42.6,42.6,0,0,0,4,38,21.8,21.8,0,0,0,5.8,6.3c5.6,3.6,11.7,3,15.1,2.6,10.7-1.1,17.9-7.1,21.7-10.3A51.1,51.1,0,0,0,544.6,104"/>
  </g>
  <g class="dot-group">
    <path id="dot" fill="#bb9cd8" d="M350,74.9c-3.6,0.1-6.4-0.7-8.8-2.4c-2.3-1.7-3.7-4.1-4-7.2c-0.3-2.5,0.4-4.8,1.9-6.8
		c1.5-2,3.3-3.3,5.7-3.7c2.5-0.5,4.8-0.3,6.8,1.1c0.3,0.2,1.2,0.8,2.2,2c1.5,1.9,4.9,6,3.8,10.6c-0.1,0.4-0.3,1.4-1.1,2.4
		C355.2,72.9,353,75,350,74.9z"/>
  </g>
</svg>
