<svg id="hand" xmlns="http://www.w3.org/2000/svg" viewBox="0 0 125 123">
  <g fill="none" fill-rule="evenodd">
    <rect width="125" height="123" fill="none"/>
    <path fill="#080D33" fill-rule="nonzero" d="M38.1668145,78.5706085 C38.2484935,78.4889295 40.275163,80.398233 42.1844665,78.4889295 C44.0937695,76.5796265 42.101874,74.635549 42.101874,74.635549 L14.0708381,46.439328 C11.8464621,44.214952 11.8265436,40.6284445 14.0609013,38.394087 C16.2797893,36.175199 19.9096424,36.207524 22.1061424,38.404024 L50.219771,66.517652 C50.242701,66.4947215 52.3584745,68.324261 54.1880135,66.4947215 C56.017553,64.6651825 54.1880135,62.549409 54.1880135,62.549409 L18.0884903,26.3510674 C15.8641143,24.1266914 15.8441957,20.5401839 18.0785534,18.3058262 C20.2974414,16.0869382 23.9272946,16.119263 26.1237946,18.315763 L62.2727275,54.4646955 C62.2800125,54.4574105 64.569454,56.124546 66.4499345,54.4574105 C67.679577,53.3672735 67.3010975,51.9198265 66.891818,51.0484825 L38.1483235,22.3049874 C35.9396475,20.0963117 35.9324565,16.5225317 38.1668145,14.288174 C40.3857025,12.069286 44.0151675,12.1012229 46.1836275,14.2696831 L78.361827,46.4478825 C78.459148,46.5452035 78.552195,46.645175 78.640964,46.747566 L83.357934,51.4645355 C84.190316,52.277963 90.338472,57.84989 97.3744035,51.4645355 C97.5932735,51.2723405 97.8127875,51.099956 98.0326705,50.9462935 C94.3627255,37.0689765 90.992734,24.1790017 90.992734,24.1790017 C90.2118755,21.1975989 92.1246675,18.0985486 95.1956995,17.2756681 L100.555294,15.8395689 L115.150557,70.30983 C115.197119,70.44104 115.234307,70.5782485 115.260922,70.721718 C117.128665,80.7898795 114.59802,91.326823 109.339192,97.915039 C104.080365,104.503255 99.759847,107.355626 99.759847,107.355626 C86.3559305,118.970508 64.8553795,118.590603 51.81435,106.57831 L30.8580219,87.2751145 C30.5895474,87.044308 30.3464848,86.820888 30.1315099,86.605913 L10.0693465,66.5437495 C7.8360453,64.3104485 7.8088914,60.7167055 10.0432491,58.482348 C12.2621371,56.26346 15.8919902,56.2957845 18.0884903,58.4922845 L38.1668145,78.5706085 Z"/>
  </g>
</svg>