<svg xmlns="http://www.w3.org/2000/svg">
<defs>
<font id="GTAmericaMono-UltraLightItalic" horiz-adv-x="620" >
  <font-face 
    font-family="GT America Mono Ultra Light"
    font-weight="250"
    font-style="italic"
    font-stretch="normal"
    units-per-em="1000"
    panose-1="0 0 3 0 0 0 0 0 0 0"
    ascent="800"
    descent="-200"
    x-height="500"
    cap-height="710"
    bbox="-425 -230 1301 915"
    underline-thickness="50"
    underline-position="-200"
    slope="-10"
    unicode-range="U+000D-FB02"
  />
<missing-glyph horiz-adv-x="1240" 
d="M1293 663h-774l-8 -47h774l-9 -48h-774l-8 -47h774l-9 -48h-774l-8 -47h774l-8 -47h-774l-9 -48h774l-8 -47h-1200l75 426h1200zM141 667l14 9h-16l-2 15l-7 -15h-16l12 -9l-8 -15l14 9l11 -9zM217 676h-16l12 -9l-8 -15l14 10l11 -10l-2 15l13 9h-15l-2 15zM304 676h-16
l12 -9l-8 -15l14 10l11 -10l-2 15l13 9h-15l-2 15zM390 676h-15l12 -9l-8 -15l14 10l11 -10l-2 15l13 9h-15l-2 15zM489 667l13 9h-15l-2 15l-8 -15h-15l11 -9l-7 -15l14 10l11 -10zM165 632h-15l11 -9l-7 -14l14 9l10 -9l-1 14l13 9h-15l-2 15zM437 623l14 9h-16l-1 15
l-8 -15h-15l11 -9l-8 -14l15 9l10 -9zM293 364l17 93h94l14 80h-94l16 94h-80l-16 -94h-93l-14 -80h93l-17 -93h80zM125 580l15 9h-16l-3 14l-6 -14h-16l11 -9l-7 -15l13 9l12 -9zM202 589h-16l11 -9l-7 -15l13 9l12 -9l-3 15l14 9h-15l-3 14zM375 589h-15l11 -9l-7 -15
l13 9l12 -9l-3 15l14 9h-15l-3 14zM473 580l14 9h-15l-3 14l-7 -14h-15l10 -9l-6 -15l13 9l12 -9zM110 492l15 10h-16l-3 14l-6 -14h-16l11 -10l-8 -14l14 9l11 -9zM458 492l14 10h-15l-3 14l-7 -14h-15l10 -10l-7 -14l14 9l11 -9zM94 405l15 9h-16l-2 15l-7 -15h-16l11 -9
l-7 -14l14 9l11 -9zM181 405l14 9h-15l-2 15l-7 -15h-16l11 -9l-7 -14l14 9l11 -9zM355 405l14 9h-15l-2 15l-8 -15h-15l11 -9l-7 -14l14 9l11 -9zM442 405l14 9h-15l-2 15l-8 -15h-15l10 -9l-6 -14l14 9l11 -9zM132 347l-1 15l13 9h-15l-2 14l-8 -14h-15l11 -9l-7 -15l14 9

<glyph glyph-name="fi" unicode="fi" horiz-adv-x="1240" 
d="M543 500l-4 -26h-203l-83 -474h-30l83 474h-165l5 26h165l13 77q26 151 191 151q38 0 68 -6l-5 -26q-25 4 -67 4q-71 0 -108 -29.5t-49 -95.5l-13 -75h202zM1048 725l-22 -124h-52l21 124h53zM712 0l4 27h175l79 446h-164l5 27h194l-84 -473h184l-4 -27h-389z" />
    <glyph glyph-name="fl" unicode="fl" horiz-adv-x="1240" 
d="M543 500l-4 -26h-203l-83 -474h-30l83 474h-165l5 26h165l13 77q26 151 191 151q38 0 68 -6l-5 -26q-25 4 -67 4q-71 0 -108 -29.5t-49 -95.5l-13 -75h202zM708 0l4 27h181l119 671h-161l5 27h191l-124 -698h178l-4 -27h-389z" />
    <glyph glyph-name=".notdef" horiz-adv-x="1240" 
d="M1293 663h-774l-8 -47h774l-9 -48h-774l-8 -47h774l-9 -48h-774l-8 -47h774l-8 -47h-774l-9 -48h774l-8 -47h-1200l75 426h1200zM141 667l14 9h-16l-2 15l-7 -15h-16l12 -9l-8 -15l14 9l11 -9zM217 676h-16l12 -9l-8 -15l14 10l11 -10l-2 15l13 9h-15l-2 15zM304 676h-16
l12 -9l-8 -15l14 10l11 -10l-2 15l13 9h-15l-2 15zM390 676h-15l12 -9l-8 -15l14 10l11 -10l-2 15l13 9h-15l-2 15zM489 667l13 9h-15l-2 15l-8 -15h-15l11 -9l-7 -15l14 10l11 -10zM165 632h-15l11 -9l-7 -14l14 9l10 -9l-1 14l13 9h-15l-2 15zM437 623l14 9h-16l-1 15
l-8 -15h-15l11 -9l-8 -14l15 9l10 -9zM293 364l17 93h94l14 80h-94l16 94h-80l-16 -94h-93l-14 -80h93l-17 -93h80zM125 580l15 9h-16l-3 14l-6 -14h-16l11 -9l-7 -15l13 9l12 -9zM202 589h-16l11 -9l-7 -15l13 9l12 -9l-3 15l14 9h-15l-3 14zM375 589h-15l11 -9l-7 -15
l13 9l12 -9l-3 15l14 9h-15l-3 14zM473 580l14 9h-15l-3 14l-7 -14h-15l10 -9l-6 -15l13 9l12 -9zM110 492l15 10h-16l-3 14l-6 -14h-16l11 -10l-8 -14l14 9l11 -9zM458 492l14 10h-15l-3 14l-7 -14h-15l10 -10l-7 -14l14 9l11 -9zM94 405l15 9h-16l-2 15l-7 -15h-16l11 -9
l-7 -14l14 9l11 -9zM181 405l14 9h-15l-2 15l-7 -15h-16l11 -9l-7 -14l14 9l11 -9zM355 405l14 9h-15l-2 15l-8 -15h-15l11 -9l-7 -14l14 9l11 -9zM442 405l14 9h-15l-2 15l-8 -15h-15l10 -9l-6 -14l14 9l11 -9zM132 347l-1 15l13 9h-15l-2 14l-8 -14h-15l11 -9l-7 -15l14 9
zM393 347l-2 15l14 9h-16l-1 14l-8 -14h-15l11 -9l-8 -15l15 9zM81 303l-2 15l15 9h-16l-3 15l-6 -15h-16l11 -9l-8 -15l14 9zM168 303l-2 15l14 9h-15l-3 15l-6 -15h-16l11 -9l-8 -15l14 9zM255 303l-2 15l14 9h-15l-3 15l-6 -15h-16l11 -9l-8 -15l14 9zM342 303l-2 15
l14 9h-15l-3 15l-7 -15h-15l11 -9l-8 -15l14 9zM429 303l-2 15l14 9h-15l-3 15l-7 -15h-15l10 -9l-7 -15l14 9zM9 189l9 48h1199l-9 -48h-1199zM-7 95l8 47h1200l-8 -47h-1200zM-24 0l8 47h1200l-8 -47h-1200z" />
    <glyph glyph-name=".null" horiz-adv-x="0" 
 />
    <glyph glyph-name=".null" horiz-adv-x="0" 
 />
    <glyph glyph-name="nonmarkingreturn" horiz-adv-x="333" 
 />
    <glyph glyph-name="CR" unicode="&#xd;" horiz-adv-x="0" 
 />
    <glyph glyph-name="space" unicode=" " 
 />
    <glyph glyph-name="exclam" unicode="!" 
d="M283 173l90 537h34l-99 -537h-25zM324 106l-19 -106h-79l19 106h79z" />
    <glyph glyph-name="quotedbl" unicode="&#x22;" 
d="M286 485l23 225h60l-55 -225h-28zM389 485l23 225h60l-55 -225h-28z" />
    <glyph glyph-name="numbersign" unicode="#" 
d="M600 445h-129l-71 -194h132l-4 -24h-137l-82 -227h-28l82 227h-161l-82 -227h-28l82 227h-124l5 24h128l71 194h-126l5 24h129l81 222h28l-81 -222h161l81 222h28l-81 -222h126zM372 251l71 194h-161l-71 -194h161z" />
    <glyph glyph-name="dollar" unicode="$" 
d="M536 496q-5 159 -138 183l-55 -309l52 -22q63 -27 95.5 -67t32.5 -105q0 -88 -56 -138.5t-160 -50.5q-11 0 -31 2l-17 -94h-24l17 97q-84 15 -131 75.5t-47 146.5l31 2q1 -73 40.5 -127t111.5 -70l58 330l-42 18q-122 51 -122 157q0 84 55.5 135t151.5 51q14 0 21 -1
l16 91h24l-16 -93q78 -13 120 -67t43 -140zM321 380l53 302h-16q-81 0 -127 -43t-46 -113q0 -47 25.5 -78.5t81.5 -55.5zM369 327l-31 13l-58 -324q20 -2 29 -2q97 0 139 45t42 116q0 57 -29 91t-92 61z" />
    <glyph glyph-name="percent" unicode="%" 
d="M58 -14l509 744h27l-508 -744h-28zM208 381q-54 0 -86.5 39t-32.5 100q0 88 38 139.5t106 51.5q53 0 84 -38.5t31 -99.5q0 -89 -38 -140.5t-102 -51.5zM210 404q54 0 83 44.5t29 123.5q0 52 -23.5 83t-68.5 31q-54 0 -84.5 -44t-30.5 -121q0 -54 26.5 -85.5t68.5 -31.5z
M429 0q-53 0 -86 39t-33 100q0 88 38 139.5t106 51.5q53 0 84 -38.5t31 -99.5q0 -89 -38 -140.5t-102 -51.5zM431 23q53 0 82.5 45t29.5 123q0 53 -23.5 84t-68.5 31q-54 0 -84.5 -44.5t-30.5 -121.5q0 -54 26.5 -85.5t68.5 -31.5z" />
    <glyph glyph-name="ampersand" unicode="&#x26;" 
d="M532 23q19 0 31 6l-4 -29q-19 -6 -36 -6q-46 0 -97 81q-86 -92 -205 -92q-88 0 -138 48.5t-51 120.5q0 34 5.5 61.5t21.5 50.5t28 38t42 34.5t44 27.5t53 29q-23 36 -34.5 56t-24.5 56t-13 69q0 70 44.5 111.5t116.5 41.5q61 0 99.5 -37t38.5 -90q0 -68 -40 -112
t-115 -86l-33 -18q1 -1 1 -2l164 -260q71 95 92 255l30 -1q-25 -174 -107 -278q50 -75 87 -75zM314 701q-59 0 -93.5 -33t-34.5 -93q0 -40 16 -77.5t49 -91.5l46 25q69 38 97.5 77t28.5 90q0 44 -30 73.5t-79 29.5zM223 10q111 0 188 89l-171 272q-51 -28 -77.5 -45.5
t-52 -43.5t-35.5 -56.5t-10 -72.5q0 -67 46.5 -105t111.5 -38z" />
    <glyph glyph-name="quotesingle" unicode="'" 
d="M338 485l23 225h60l-55 -225h-28z" />
    <glyph glyph-name="parenleft" unicode="(" 
d="M417 -123q-71 71 -110 176t-39 211q0 308 297 500l28 -10q-161 -115 -227.5 -231.5t-66.5 -272.5q0 -203 145 -365z" />
    <glyph glyph-name="parenright" unicode=")" 
d="M228 764q71 -71 110 -176t39 -211q0 -308 -297 -500l-28 10q161 115 227.5 231.5t66.5 272.5q0 203 -145 365z" />
    <glyph glyph-name="asterisk" unicode="*" 
d="M351 487l-137 -160l-24 19l144 153l-172 53l17 33l167 -66l26 191h35l-40 -191l191 66l6 -33l-193 -54l89 -152l-29 -19z" />
    <glyph glyph-name="plus" unicode="+" 
d="M561 342l-4 -26h-221l-40 -225h-30l40 225h-219l4 26h219l38 214h30l-38 -214h221z" />
    <glyph glyph-name="comma" unicode="," 
d="M214 -112l-6 21q69 28 80 91h-71l19 106h97l-19 -106q-15 -84 -100 -112z" />
    <glyph glyph-name="hyphen" unicode="-" 
d="M173 293h289l-5 -28h-289z" />
    <glyph glyph-name="period" unicode="." 
d="M333 106l-19 -106h-97l19 106h97z" />
    <glyph glyph-name="slash" unicode="/" 
d="M120 -117h-32l437 877h32z" />
    <glyph glyph-name="zero" unicode="0" 
d="M371 710q88 0 144 -64.5t56 -214.5q0 -75 -15.5 -149t-47 -143t-89.5 -111.5t-135 -42.5q-88 0 -144.5 65t-56.5 214q0 59 9 118t30.5 119t53.5 105.5t82.5 74.5t112.5 29zM368 683q-67 0 -118 -40t-79.5 -104.5t-42.5 -134.5t-14 -140q0 -71 14 -121l391 430
q-41 110 -151 110zM286 12q67 0 118 40t79.5 104.5t42.5 134.5t14 140q0 66 -13 116l-390 -429q41 -106 149 -106z" />
    <glyph glyph-name="one" unicode="1" 
d="M302 27h191l-5 -27h-424l5 27h203l105 595q-32 -38 -87.5 -62t-109.5 -24h-21l5 28h14q72 0 132.5 36t85.5 95h24z" />
    <glyph glyph-name="two" unicode="2" 
d="M39 0l5 28q200 125 327 236q77 69 116 129t39 133q0 85 -48.5 120.5t-118.5 35.5q-88 0 -136.5 -49.5t-48.5 -129.5q0 -28 4 -48l-30 1q-5 15 -5 43q0 95 56.5 153t162.5 58q53 0 94.5 -15t71.5 -57t30 -109q0 -74 -39 -139t-125 -142q-131 -116 -307 -220h404l-5 -28
h-447z" />
    <glyph glyph-name="three" unicode="3" 
d="M301 -15q-39 0 -73.5 8.5t-69 30t-55.5 65.5t-22 107l30 2q6 -186 190 -186q99 0 144 51t45 130q0 77 -45.5 116.5t-119.5 39.5h-51l4 27h50q92 0 144.5 46t52.5 121q0 74 -46 107t-113 33q-90 0 -139.5 -50t-54.5 -135l-29 3q7 94 63.5 151.5t160.5 57.5q80 0 135 -39.5
t55 -124.5q0 -70 -43 -121t-133 -63q59 -6 100 -49.5t41 -119.5q0 -89 -54.5 -148.5t-166.5 -59.5z" />
    <glyph glyph-name="four" unicode="4" 
d="M368 0l35 197h-354l4 24l437 474h30l-83 -472h131l-5 -26h-130l-35 -197h-30zM83 223h324l64 361q4 23 14 73h-1q-32 -40 -71 -82l-258 -278q-47 -51 -72 -74z" />
    <glyph glyph-name="five" unicode="5" 
d="M281 -15q-88 0 -143 45.5t-62 132.5l32 1q9 -78 55.5 -115t118.5 -37q60 0 104 23.5t67.5 62.5t34 80.5t10.5 84.5q0 91 -44.5 133.5t-118.5 42.5t-120 -38t-75 -112l-31 4l111 402h351l-5 -27h-328l-94 -336q24 63 75.5 98.5t124.5 35.5q81 0 133 -49t52 -152
q0 -52 -14 -99.5t-42 -89t-77.5 -66.5t-114.5 -25z" />
    <glyph glyph-name="six" unicode="6" 
d="M380 683q-86 0 -145 -52.5t-85.5 -136t-29.5 -193.5q29 80 84.5 121.5t130.5 41.5q85 0 145 -54t60 -165q0 -48 -12.5 -92.5t-38.5 -83t-71.5 -61.5t-105.5 -23q-96 0 -159 69.5t-63 224.5q0 88 16.5 163.5t50 136.5t90.5 96t133 35q32 0 61 -7.5t58.5 -26t49.5 -55.5
t24 -90l-29 -4q-19 156 -164 156zM330 437q-77 0 -130.5 -47.5t-79.5 -132.5q3 -124 55 -184.5t137 -60.5q98 0 147.5 67t49.5 163q0 102 -52.5 148.5t-126.5 46.5z" />
    <glyph glyph-name="seven" unicode="7" 
d="M190 0l2 23q17 176 117 345.5t269 298.5h-410l5 28h443l-5 -28q-163 -126 -265.5 -292.5t-120.5 -342.5l-3 -32h-32z" />
    <glyph glyph-name="eight" unicode="8" 
d="M369 366q153 -49 153 -185q0 -83 -57 -139.5t-172 -56.5q-39 0 -74 7.5t-70.5 25.5t-57 54t-21.5 87q0 73 48.5 130.5t159.5 76.5q-122 42 -122 165q0 79 51 129t154 50q86 0 144 -38t58 -120q0 -65 -44 -116t-150 -70zM187 533q0 -112 115 -147l37 -11q192 39 192 173
q0 75 -49.5 106t-119.5 31q-95 0 -135 -45t-40 -107zM295 11q99 0 147.5 49t48.5 121q0 39 -13.5 68.5t-37 48t-44 28.5t-46.5 18l-36 11q-63 -11 -107 -33t-65 -50.5t-30 -54.5t-9 -55q0 -44 18 -75.5t49 -47t61 -22t64 -6.5z" />
    <glyph glyph-name="nine" unicode="9" 
d="M346 710q47 0 84 -13t69 -44.5t49 -92.5t17 -149q0 -47 -4.5 -94t-22 -110t-46 -109.5t-82 -79.5t-124.5 -33q-26 0 -51.5 4t-54.5 16.5t-50.5 31.5t-36 52.5t-14.5 76.5l29 4q1 -45 18.5 -77.5t45 -49t56.5 -24t61 -7.5q52 0 93.5 19.5t67 54t43.5 73.5t26.5 86.5t12 84
t3.5 73.5v13v8q-26 -76 -82 -120.5t-132 -44.5q-82 0 -144 54t-62 161q0 42 11 80.5t35.5 75t72 58.5t112.5 22zM326 286q75 0 130 51.5t77 131.5q-9 115 -58 164.5t-132 49.5q-56 0 -96.5 -19.5t-61 -52t-29.5 -66.5t-9 -71q0 -53 17 -92t45 -58.5t57 -28.5t60 -9z" />
    <glyph glyph-name="colon" unicode=":" 
d="M403 501l-19 -106h-97l19 106h97zM333 106l-19 -106h-97l19 106h97z" />
    <glyph glyph-name="semicolon" unicode=";" 
d="M403 501l-19 -106h-97l19 106h97zM214 -112l-6 21q69 28 80 91h-71l19 106h97l-19 -106q-15 -84 -100 -112z" />
    <glyph glyph-name="less" unicode="&#x3c;" 
d="M513 85l-425 230l5 22l505 230l-5 -31l-468 -211l394 -212z" />
    <glyph glyph-name="equal" unicode="=" 
d="M102 401l4 26h470l-4 -26h-470zM72 231l5 26h470l-5 -26h-470z" />
    <glyph glyph-name="greater" unicode="&#x3e;" 
d="M133 567l425 -230l-5 -22l-505 -230l5 31l468 211l-394 212z" />
    <glyph glyph-name="question" unicode="?" 
d="M163 515v3q4 100 64 154.5t158 54.5q85 0 129.5 -45.5t44.5 -114.5q0 -65 -29 -105.5t-91 -89.5l-55 -43q-65 -51 -81 -148l-4 -25h-31l6 31q18 110 92 164l57 43q53 40 77.5 77t24.5 94q0 58 -36.5 96.5t-103.5 38.5q-84 0 -135 -45.5t-56 -139.5v-1zM316 106l-19 -106
h-80l19 106h80z" />
    <glyph glyph-name="at" unicode="@" 
d="M291 -92q-108 0 -172.5 57.5t-64.5 156.5q0 30 6 64l36 212q24 135 90.5 198.5t176.5 63.5q100 0 158 -53.5t58 -150.5q0 -23 -5 -60l-26 -156q-11 -66 -34.5 -94t-62.5 -28q-65 0 -63 74q-14 -37 -44 -58.5t-68 -21.5q-41 0 -67.5 23t-26.5 61q0 93 131 108l89 11l2 15
q3 20 3 33q0 76 -72 76q-76 0 -87 -79h-27q5 49 34.5 76t78.5 27q101 0 101 -97q0 -19 -9 -68l-12 -74q-4 -19 -4 -33q0 -50 42 -50q30 0 46 25t24 75l26 151q5 33 5 59q0 89 -50.5 137.5t-138.5 48.5q-201 0 -242 -237l-37 -214q-5 -38 -5 -63q0 -88 56 -139.5t156 -51.5
q77 0 152 46v-26q-72 -44 -153 -44zM280 137q41 0 71.5 30.5t39.5 83.5l8 42l-82 -11q-54 -7 -80.5 -26.5t-26.5 -57.5q0 -27 19 -44t51 -17z" />
    <glyph glyph-name="A" unicode="A" 
d="M488 0l-36 231h-289l-116 -231h-34l358 710h34l115 -710h-32zM177 259h270l-13 83q-35 216 -50 333h-2q-101 -211 -162 -330z" />
    <glyph glyph-name="B" unicode="B" 
d="M392 710q89 0 138 -41.5t49 -116.5t-49 -126t-132 -60q64 -9 100.5 -50.5t36.5 -108.5q0 -94 -64.5 -150.5t-187.5 -56.5h-225l125 710h209zM210 682l-53 -302h179q98 0 153.5 46.5t55.5 124.5q0 62 -41 96.5t-117 34.5h-177zM152 352l-57 -324h188q105 0 162.5 46.5
t57.5 126.5q0 74 -44 112.5t-122 38.5h-185z" />
    <glyph glyph-name="C" unicode="C" 
d="M275 -17q-118 0 -164.5 87t-21.5 231l23 139q25 149 91.5 218t176.5 69q105 0 156 -66t42 -186l-32 -3q8 110 -35 168.5t-133 58.5q-94 0 -152 -60t-81 -197l-23 -138q-24 -136 16 -214.5t138 -78.5q91 0 149 49t81 171l32 -3q-26 -129 -90 -187t-173 -58z" />
    <glyph glyph-name="D" unicode="D" 
d="M56 0l125 710h130q122 0 193.5 -71t71.5 -220q0 -114 -43.5 -208.5t-127.5 -152.5t-194 -58h-155zM93 28h123q146 0 237 114t91 274q0 137 -62 201.5t-169 64.5h-105z" />
    <glyph glyph-name="E" unicode="E" 
d="M594 710l-5 -28h-358l-53 -304h340l-4 -28h-341l-57 -322h364l-4 -28h-397l125 710h390z" />
    <glyph glyph-name="F" unicode="F" 
d="M610 710l-5 -28h-357l-53 -304h338l-4 -28h-339l-62 -350h-32l125 710h389z" />
    <glyph glyph-name="G" unicode="G" 
d="M272 -17q-118 0 -163 88.5t-20 236.5l23 134q48 285 270 285q109 0 155.5 -63t34.5 -159l-32 -2q10 87 -30 141.5t-132 54.5q-94 0 -153 -62t-82 -203l-22 -130q-48 -292 160 -292q170 0 226 280l8 39h-201l5 28h232l-64 -359h-25l24 161q-27 -86 -83.5 -132t-130.5 -46z
" />
    <glyph glyph-name="H" unicode="H" 
d="M600 710l-125 -710h-32l62 350h-355l-62 -350h-32l125 710h32l-58 -332h355l58 332h32z" />
    <glyph glyph-name="I" unicode="I" 
d="M595 683h-193l-115 -656h192l-5 -27h-416l5 27h192l115 656h-192l5 27h416z" />
    <glyph glyph-name="J" unicode="J" 
d="M584 710l-86 -497q-22 -127 -81 -178.5t-146 -51.5q-117 0 -160.5 63t-31.5 192l33 5q-11 -123 25.5 -177t135.5 -54q158 0 193 206l86 492h32z" />
    <glyph glyph-name="K" unicode="K" 
d="M607 710l-276 -271l164 -439h-37l-153 416l-172 -169l-44 -247h-32l125 710h32l-73 -417l427 417h39z" />
    <glyph glyph-name="L" unicode="L" 
d="M223 710h32l-120 -682h374l-5 -28h-406z" />
    <glyph glyph-name="M" unicode="M" 
d="M530 602l-217 -415h-29l-71 415q-2 14 -5 70h-3q-1 -10 -6 -37.5t-6 -36.5l-105 -598h-32l125 710h48l57 -368q18 -107 19 -115h2q23 49 55 110l189 373h49l-125 -710h-31l105 598l14 74h-3q-21 -52 -30 -70z" />
    <glyph glyph-name="N" unicode="N" 
d="M437 96q5 -16 13 -49h3l9 63l106 600h32l-126 -710h-39l-214 622q-11 35 -14 53h-1q-3 -28 -9 -60l-109 -615h-32l126 710h43z" />
    <glyph glyph-name="O" unicode="O" 
d="M281 -17q-124 0 -172 88.5t-20 240.5l21 118q27 148 92 222.5t174 74.5q123 0 171.5 -88.5t21.5 -240.5l-22 -118q-27 -148 -92 -222.5t-174 -74.5zM282 11q183 0 233 270l22 119q25 139 -16 219t-146 80q-182 0 -233 -270l-22 -118q-25 -139 16 -219.5t146 -80.5z" />
    <glyph glyph-name="P" unicode="P" 
d="M162 315l-55 -315h-32l125 710h204q54 0 93 -15.5t59.5 -41.5t30 -54t9.5 -59q0 -44 -13 -82.5t-40 -71.5t-76.5 -52t-116.5 -19h-188zM168 343h190q104 0 154 55.5t50 139.5q0 36 -13 66.5t-50 54t-94 23.5h-178z" />
    <glyph glyph-name="Q" unicode="Q" 
d="M376 727q123 0 171.5 -88.5t21.5 -240.5l-22 -118q-43 -235 -182 -284q19 -46 40.5 -64.5t63.5 -18.5q27 0 53 10l-5 -30q-27 -11 -56 -11q-93 0 -123 107q-27 -6 -57 -6q-124 0 -172 88.5t-20 240.5l21 118q27 148 92 222.5t174 74.5zM537 400q25 139 -16 219t-146 80
q-182 0 -233 -270l-22 -118q-25 -139 16 -219.5t146 -80.5q183 0 233 270z" />
    <glyph glyph-name="R" unicode="R" 
d="M581 538q0 -87 -56.5 -145t-154.5 -67l129 -326h-37l-128 325h-184l-58 -325h-32l125 710h205q89 0 140 -45t51 -127zM341 352q94 0 150 51t56 132q0 69 -42.5 108t-116.5 39h-175l-59 -330h187z" />
    <glyph glyph-name="S" unicode="S" 
d="M309 -17q-112 0 -174.5 65t-63.5 168l31 3q2 -88 56.5 -148t152.5 -60t141 46t43 119q0 59 -29 93.5t-94 62.5l-98 41q-125 52 -125 163q0 88 55 139.5t153 51.5q101 0 157.5 -58t58.5 -158l-31 -4q-4 92 -52.5 142t-133.5 50q-82 0 -127.5 -44.5t-45.5 -116.5
q0 -48 26 -80.5t84 -57.5l104 -45q65 -27 98 -68t33 -109q0 -91 -57 -143t-162 -52z" />
    <glyph glyph-name="T" unicode="T" 
d="M137 710h507l-4 -28h-239l-120 -682h-31l120 682h-238z" />
    <glyph glyph-name="U" unicode="U" 
d="M176 710h31l-85 -487q-17 -97 27 -154.5t134 -57.5q169 0 199 171l92 528h33l-93 -529q-16 -93 -74 -145.5t-158 -52.5q-108 0 -160 65t-32 174z" />
    <glyph glyph-name="V" unicode="V" 
d="M267 83q0 -2 4 -43h2q2 5 10 20t11 23l312 627h34l-355 -710h-37l-107 710h33z" />
    <glyph glyph-name="W" unicode="W" 
d="M100 0l28 710h30l-25 -590q-2 -47 -6 -90h3q13 39 37 96l181 422h30l34 -423q5 -70 5 -94h2q7 32 26 96l177 583h32l-219 -710h-40l-32 421q-3 38 -3 94h-3q-12 -40 -32 -86l-183 -429h-42z" />
    <glyph glyph-name="X" unicode="X" 
d="M21 0l290 370l-144 340h35l106 -255q17 -38 25 -64h2q31 43 47 62l195 257h39l-265 -343l159 -367h-36l-122 287q-18 47 -23 60h-2q-14 -22 -44 -59l-224 -288h-38z" />
    <glyph glyph-name="Y" unicode="Y" 
d="M335 291l-52 -291h-32l52 291l-166 419h35l150 -387l285 387h38z" />
    <glyph glyph-name="Z" unicode="Z" 
d="M43 29l512 653h-378l5 28h414l-5 -31l-512 -651h411l-5 -28h-447z" />
    <glyph glyph-name="bracketleft" unicode="[" 
d="M208 -114l153 871h224l-3 -25h-196l-145 -821h196l-5 -25h-224z" />
    <glyph glyph-name="backslash" unicode="\" 
d="M525 -117l-437 877h32l437 -877h-32z" />
    <glyph glyph-name="bracketright" unicode="]" 
d="M438 757l-153 -871h-224l3 25h196l145 821h-196l5 25h224z" />
    <glyph glyph-name="asciicircum" unicode="^" 
d="M381 709h20l102 -262h-29l-88 228l-168 -228h-31z" />
    <glyph glyph-name="underscore" unicode="_" 
d="M-65 -118h620l-5 -26h-620z" />
    <glyph glyph-name="grave" unicode="`" 
d="M469 580h-31l-147 140h38z" />
    <glyph glyph-name="a" unicode="a" 
d="M465 189q-20 -126 -23 -189h-32q12 104 15 125q-66 -137 -205 -137q-69 0 -108.5 35t-39.5 97q0 64 44 102q46 46 156 55l181 15l2 12q5 26 5 56q0 126 -130 126q-145 0 -171 -138h-30q12 80 64 122t138 42q158 0 158 -151q0 -29 -6 -62zM449 268l-177 -14
q-168 -14 -168 -131q0 -51 32.5 -80t89.5 -29q81 0 139 55.5t75 148.5z" />
    <glyph glyph-name="b" unicode="b" 
d="M235 725l-65 -363q27 73 79.5 111.5t120.5 38.5q86 0 131.5 -57.5t45.5 -148.5q0 -136 -68.5 -227t-178.5 -91q-64 0 -113 41t-56 110l-30 -139h-24l128 725h30zM148 239q-17 -98 26 -161t127 -63q96 0 155 83.5t59 206.5q0 81 -39.5 130.5t-114.5 49.5q-86 0 -139.5 -64
t-70.5 -162z" />
    <glyph glyph-name="c" unicode="c" 
d="M281 -12q-84 0 -139 52.5t-55 163.5q0 42 8 83t27 82t47 72.5t72 51t98 19.5q83 0 133 -46t46 -132l-28 -1q1 78 -41 115.5t-110 37.5q-60 0 -105.5 -27.5t-69 -71.5t-34.5 -90t-11 -92q0 -99 46.5 -144.5t117.5 -45.5q138 0 178 151l30 -2q-44 -176 -210 -176z" />
    <glyph glyph-name="d" unicode="d" 
d="M425 0l25 138q-26 -72 -78.5 -111.5t-116.5 -39.5q-87 0 -134.5 57.5t-47.5 148.5q0 136 68.5 227t179.5 91q64 0 112 -38.5t55 -107.5l64 360h30l-128 -725h-29zM472 260q18 98 -25 161.5t-127 63.5q-97 0 -156 -83.5t-59 -206.5q0 -81 40.5 -131t116.5 -50q81 0 135 63
t71 159z" />
    <glyph glyph-name="e" unicode="e" 
d="M514 252h-386q-4 -25 -4 -58q0 -84 43 -131.5t120 -47.5q130 0 179 140l26 -7q-54 -160 -208 -160q-90 0 -140 55t-50 159q0 82 28.5 151.5t87.5 114t136 44.5q79 0 128 -45t49 -131q0 -34 -9 -84zM347 487q-83 0 -139.5 -57.5t-75.5 -151.5h357q6 25 6 54q0 81 -42 118
t-106 37z" />
    <glyph glyph-name="f" unicode="f" 
d="M543 500l-4 -26h-203l-83 -474h-30l83 474h-165l5 26h165l13 77q26 151 191 151q38 0 68 -6l-5 -26q-25 4 -67 4q-71 0 -108 -29.5t-49 -95.5l-13 -75h202z" />
    <glyph glyph-name="g" unicode="g" 
d="M576 566h19l-5 -28q-5 1 -18 1q-79 0 -110 -70q45 -42 45 -113q0 -77 -51.5 -125.5t-134.5 -48.5q-61 0 -103 28q-34 -4 -57.5 -26t-23.5 -53q0 -27 19 -46t57 -19h137q68 0 106 -33t38 -87q0 -68 -59 -110.5t-175 -42.5q-105 0 -159.5 35t-54.5 95q0 50 33.5 81.5
t81.5 42.5q-54 20 -54 78q0 36 26.5 61.5t69.5 34.5q-49 43 -49 117q0 77 51.5 125.5t134.5 48.5q63 0 106 -30q19 40 55 62t75 22zM478 355q0 61 -38.5 96.5t-101.5 35.5q-69 0 -112 -40.5t-43 -107.5q0 -61 38.5 -96.5t101.5 -35.5q69 0 112 40.5t43 107.5zM346 39h-137
q-10 0 -26 2q-105 -27 -105 -109q0 -52 46 -82.5t141 -30.5q101 0 150 34t49 90q0 47 -32.5 71.5t-85.5 24.5z" />
    <glyph glyph-name="h" unicode="h" 
d="M166 363q29 73 81.5 111t122.5 38q79 0 118 -45q46 -51 26 -167l-53 -300h-30l54 303q17 99 -19.5 140.5t-103.5 41.5q-86 0 -141.5 -62t-72.5 -158l-46 -265h-30l128 725h30z" />
    <glyph glyph-name="i" unicode="i" 
d="M428 725l-22 -124h-52l21 124h53zM92 0l4 27h175l79 446h-164l5 27h194l-84 -473h184l-4 -27h-389z" />
    <glyph glyph-name="j" unicode="j" 
d="M466 725l-22 -124h-52l21 124h53zM38 -177l5 27q53 -24 114 -24q58 0 92 25.5t45 89.5l94 532h-190l4 27h220l-99 -563q-26 -139 -166 -139q-73 0 -119 25z" />
    <glyph glyph-name="k" unicode="k" 
d="M554 500l-224 -181l152 -319h-35l-142 299l-164 -133l-29 -166h-30l128 725h30l-92 -519l363 294h43z" />
    <glyph glyph-name="l" unicode="l" 
d="M88 0l4 27h181l119 671h-161l5 27h191l-124 -698h178l-4 -27h-389z" />
    <glyph glyph-name="m" unicode="m" 
d="M116 381q45 131 138 131q47 0 72 -30.5t20 -81.5q38 112 135 112q46 0 72 -27.5t26 -79.5q0 -21 -8 -69l-59 -336h-30l58 327q7 41 7 69q0 44 -20 66.5t-56 22.5q-49 0 -84 -38.5t-45 -99.5l-62 -347h-29l59 328q7 36 7 64q0 93 -70 93q-55 0 -92.5 -50.5t-52.5 -137.5
l-52 -297h-30l88 500h29z" />
    <glyph glyph-name="n" unicode="n" 
d="M165 363q29 72 82 110.5t123 38.5q79 0 118 -45q33 -36 33 -100q0 -25 -7 -67l-53 -300h-30l54 303q4 29 4 54q0 128 -127 128q-81 0 -138.5 -59t-75.5 -161l-46 -265h-30l88 500h29z" />
    <glyph glyph-name="o" unicode="o" 
d="M282 -12q-93 0 -145 54.5t-52 150.5q0 141 69 230t183 89q94 0 146.5 -54t52.5 -150q0 -141 -69 -230.5t-185 -89.5zM282 15q102 0 162 81t60 212q0 83 -44 130.5t-123 47.5q-100 0 -160.5 -81.5t-60.5 -211.5q0 -84 43.5 -131t122.5 -47z" />
    <glyph glyph-name="p" unicode="p" 
d="M195 500l-25 -143q27 75 79.5 115t122.5 40q86 0 131 -58t45 -156q0 -127 -68.5 -218.5t-176.5 -91.5q-69 0 -116.5 39.5t-54.5 107.5l-59 -330h-31l124 695h29zM148 239q-4 -23 -4 -49q0 -80 42 -127.5t114 -47.5q96 0 156 83t60 198q0 89 -39 139t-114 50
q-87 0 -141 -63.5t-70 -162.5z" />
    <glyph glyph-name="q" unicode="q" 
d="M392 -195l59 332q-27 -73 -79 -111.5t-116 -38.5q-87 0 -134 59t-47 156q0 128 68 218.5t176 90.5q67 0 113.5 -38t58.5 -106l28 133h25l-122 -695h-30zM474 260q5 30 5 53q0 76 -43 124t-114 48q-96 0 -155.5 -83.5t-59.5 -198.5q0 -88 39.5 -138.5t113.5 -50.5
q84 0 138.5 63t71.5 159z" />
    <glyph glyph-name="r" unicode="r" 
d="M208 305q24 60 57 102.5t69 63.5t68 30t64 9q59 0 88 -18l-5 -27q-31 18 -92 18q-95 0 -170.5 -82t-99.5 -219l-33 -182h-30l88 500h30z" />
    <glyph glyph-name="s" unicode="s" 
d="M297 -12q-90 0 -144 40.5t-58 114.5l30 3q5 -63 49 -97t124 -34q71 0 109.5 32.5t38.5 88.5q0 41 -21.5 65t-70.5 34l-90 19q-109 22 -109 116q0 69 50.5 105.5t123.5 36.5q85 0 132.5 -37.5t50.5 -103.5l-30 -3q-8 118 -153 118q-64 0 -104 -29.5t-40 -85.5
q0 -36 20.5 -58.5t73.5 -33.5l89 -18q109 -22 109 -123q0 -69 -48.5 -109.5t-131.5 -40.5z" />
    <glyph glyph-name="t" unicode="t" 
d="M135 474l5 26h149l24 136l33 14l-27 -150h204l-5 -26h-202l-58 -325q-12 -66 17 -97.5t88 -31.5q41 0 76 13l-4 -27q-30 -14 -81 -14q-70 0 -105 39t-22 114l58 329h-150z" />
    <glyph glyph-name="u" unicode="u" 
d="M441 127q-25 -61 -77 -100t-119 -39q-79 0 -120 48q-44 54 -26 162l54 302h30l-54 -304q-7 -53 -1.5 -88t26.5 -55.5t46 -29t57 -8.5q79 0 132 61t68 143l49 281h30l-88 -500h-29z" />
    <glyph glyph-name="v" unicode="v" 
d="M249 0l-126 500h31l101 -402q9 -40 16 -67h2q4 7 16 29t22 38l241 402h32l-300 -500h-35z" />
    <glyph glyph-name="w" unicode="w" 
d="M83 500h30l23 -398l3 -61h4q13 42 24 63l171 396h27l33 -396q2 -38 2 -63h4q6 23 23 61l168 398h29l-213 -500h-31l-32 403q0 9 -0.5 28t-1.5 27h-2q-13 -35 -22 -55l-174 -403h-32z" />
    <glyph glyph-name="x" unicode="x" 
d="M311 241l-220 -241h-37l241 263l-140 237h34l126 -217l200 217h37l-223 -240l147 -260h-33z" />
    <glyph glyph-name="y" unicode="y" 
d="M177 500l102 -468l254 468h31l-300 -552q-49 -89 -85 -119t-96 -30q-33 0 -49 6l5 27q12 -5 52 -5q28 0 49.5 9.5t40 31.5t30 40.5t29.5 52.5l19 37l-114 502h32z" />
    <glyph glyph-name="z" unicode="z" 
d="M77 26l401 448h-307l4 26h344l-4 -24l-401 -450h332l-5 -26h-368z" />
    <glyph glyph-name="braceleft" unicode="{" 
d="M394 -114q-71 0 -118 34t-35 107l36 203q8 41 -3 58.5t-60 17.5l5 32q50 1 66 16.5t24 57.5l36 204q24 141 172 141h78l-4 -25h-77q-56 0 -92.5 -27t-49.5 -98l-36 -202q-6 -34 -20.5 -55t-47.5 -29q29 -10 37 -31t2 -55l-35 -199q-12 -69 27.5 -97t99.5 -28h48l-5 -25
h-48z" />
    <glyph glyph-name="bar" unicode="|" 
d="M231 -117l155 877h28l-155 -877h-28z" />
    <glyph glyph-name="braceright" unicode="}" 
d="M230 757q71 0 118 -34t35 -107l-36 -203q-8 -41 3 -58.5t60 -17.5l-5 -32q-50 -1 -66 -16.5t-24 -57.5l-36 -204q-24 -141 -172 -141h-78l4 25h77q56 0 92.5 27t49.5 98l36 202q6 34 20.5 55t47.5 29q-29 10 -37 31t-2 55l35 199q12 69 -27.5 97t-99.5 28h-48l5 25h48z
" />
    <glyph glyph-name="asciitilde" unicode="~" 
d="M225 352q36 0 68.5 -23.5t61.5 -47t58 -23.5t54 23t38 68l26 -2q-17 -58 -49 -87t-70 -29q-36 0 -67 23.5t-60 47t-60 23.5q-72 0 -95 -87l-27 1q14 56 47.5 84.5t74.5 28.5z" />
    <glyph glyph-name="uni00A0" unicode="&#xa0;" 
 />
    <glyph glyph-name="exclamdown" unicode="&#xa1;" 
d="M298 409l19 106h79l-19 -106h-79zM339 342l-90 -537h-34l99 537h25z" />
    <glyph glyph-name="cent" unicode="&#xa2;" 
d="M502 333q-5 142 -127 152l-84 -470h3q139 0 179 150l30 -2q-50 -175 -212 -175h-4l-14 -77h-23l14 78q-81 9 -122.5 66.5t-41.5 147.5q0 131 67.5 218.5t188.5 90.5l15 82h23l-15 -83q76 -4 115 -50.5t38 -126.5zM132 207q0 -81 34.5 -131.5t102.5 -59.5l83 470
q-69 -1 -120 -40.5t-75.5 -101t-24.5 -137.5z" />
    <glyph glyph-name="sterling" unicode="&#xa3;" 
d="M565 531l-31 -4q5 81 -35.5 119.5t-100.5 38.5q-75 0 -116 -54.5t-41 -185.5q0 -11 0.5 -34t0.5 -35h176l-5 -25h-170q1 -17 1 -49q0 -66 -13.5 -115.5t-38 -79.5t-48.5 -46.5t-56 -29.5q52 13 114 13q42 0 100 -16t92 -16q50 0 81 32.5t37 100.5l27 -2
q-16 -158 -152 -158q-31 0 -93.5 17t-109.5 17q-60 0 -162 -25l-4 24q26 7 46 14.5t50 28.5t50 48.5t35 76.5t15 110q0 9 -0.5 27t-0.5 28h-114l5 25h107q-2 48 -2 69q0 265 190 265q77 0 124.5 -46t41.5 -133z" />
    <glyph glyph-name="currency" unicode="&#xa4;" 
d="M534 334q0 -131 -75 -201l40 -46l-19 -18l-40 49q-56 -41 -139 -41q-89 0 -145 59l-59 -50l-14 17l59 50q-35 51 -35 117q0 133 73 201l-40 48l18 17l41 -49q58 42 141 42q90 0 145 -60l59 50l15 -17l-59 -51q34 -48 34 -117zM136 274q0 -75 47.5 -122.5t120.5 -47.5
q94 0 147.5 59.5t53.5 167.5q0 77 -47.5 124t-120.5 47q-95 0 -148 -59t-53 -169z" />
    <glyph glyph-name="yen" unicode="&#xa5;" 
d="M628 694l-291 -388h193l-5 -25h-196l-19 -106h197l-5 -25h-196l-27 -150h-31l27 150h-200l4 25h200l19 106h-200l4 25h197l-152 389h34l139 -363l271 362h37z" />
    <glyph glyph-name="brokenbar" unicode="&#xa6;" 
d="M413 760l-67 -378h-27l67 378h27zM325 261l-67 -378h-27l67 378h27z" />
    <glyph glyph-name="section" unicode="&#xa7;" 
d="M387 720q-65 0 -100.5 -32.5t-35.5 -85.5q0 -73 75 -111l79 -40q53 -27 78.5 -54t25.5 -77q0 -47 -25 -83t-77 -52q41 -43 41 -109q0 -64 -46 -107t-124 -43q-87 0 -134 49.5t-47 131.5l31 2q1 -68 39.5 -111t112.5 -43q70 0 103.5 35.5t33.5 84.5q0 47 -22.5 75.5
t-72.5 53.5l-73 35q-92 43 -92 131q0 47 28.5 81.5t72.5 50.5q-39 39 -39 99q0 67 45 107t124 40q77 0 119.5 -44.5t43.5 -121.5l-30 -4q-3 68 -38 105t-96 37zM382 429l-73 36q-17 7 -30 18q-39 -12 -64.5 -39.5t-25.5 -66.5q0 -76 77 -112l77 -38q23 -10 43 -24
q49 9 70.5 41.5t21.5 73.5t-21.5 63t-74.5 48z" />
    <glyph glyph-name="dieresis" unicode="&#xa8;" 
d="M345 720l-19 -108h-52l19 108h52zM492 720l-19 -108h-53l20 108h52z" />
    <glyph glyph-name="copyright" unicode="&#xa9;" 
d="M278 -17q-117 0 -168 76t-26 213l34 191q24 134 88 199t173 65q116 0 167 -76t27 -213l-35 -191q-46 -264 -260 -264zM279 5q99 0 156.5 59.5t79.5 182.5l33 191q23 126 -22 197t-148 70q-99 0 -157 -59.5t-80 -182.5l-33 -191q-23 -126 22.5 -197t148.5 -70zM303 142
q-55 0 -81 38.5t-11 119.5l20 113q14 83 46.5 119t84.5 36q53 0 74 -38t13 -90h-27q6 42 -10 72.5t-55 30.5q-38 0 -61 -29.5t-37 -103.5l-20 -112q-24 -131 65 -131q39 0 61.5 30.5t28.5 71.5l26 -2q-5 -48 -35 -86.5t-82 -38.5z" />
    <glyph glyph-name="ordfeminine" unicode="&#xaa;" 
d="M488 446q-15 -91 -16 -136h-28q4 54 10 89q-47 -98 -154 -98q-53 0 -83 26t-30 72q0 103 150 114l137 11l4 27q6 52 -16.5 82t-78.5 30q-109 0 -126 -100h-28q9 59 48.5 90t105.5 31q123 0 123 -112q0 -23 -4 -44zM472 505l-132 -10q-124 -11 -124 -94q0 -37 24.5 -58
t67.5 -21q59 0 102 40t55 105z" />
    <glyph glyph-name="guillemotleft" unicode="&#xab;" 
d="M271 67l-132 208l210 207h35l-212 -208l130 -207h-31zM444 67l-132 208l210 207h35l-212 -208l130 -207h-31z" />
    <glyph glyph-name="logicalnot" unicode="&#xac;" 
d="M107 348h440l-38 -217h-30l34 189h-410z" />
    <glyph glyph-name="registered" unicode="&#xae;" 
d="M378 727q116 0 167 -76t27 -213l-35 -191q-46 -264 -260 -264q-117 0 -168 76t-26 213l34 191q24 134 88 199t173 65zM547 438q23 126 -22 197t-148 70q-99 0 -157 -59.5t-80 -182.5l-33 -191q-23 -126 22.5 -197t148.5 -70q99 0 156.5 59.5t79.5 182.5zM361 562
q49 0 76.5 -26t27.5 -72q0 -51 -30 -83.5t-81 -39.5l64 -185h-31l-62 184h-63l-31 -184h-27l71 406h86zM318 363q118 0 118 103q0 33 -20.5 52.5t-57.5 19.5h-60l-31 -175h51z" />
    <glyph glyph-name="macron" unicode="&#xaf;" 
d="M228 608l5 26h288l-5 -26h-288z" />
    <glyph glyph-name="degree" unicode="&#xb0;" 
d="M521 573q0 -77 -45.5 -125.5t-123.5 -48.5q-64 0 -105 43t-41 102q0 79 46 126t123 47q64 0 105 -42.5t41 -101.5zM234 546q0 -50 33.5 -86t86.5 -36q66 0 103 40t37 107q0 50 -34 85.5t-87 35.5q-65 0 -102 -39.5t-37 -106.5z" />
    <glyph glyph-name="plusminus" unicode="&#xb1;" 
d="M342 350h221l-5 -25h-221l-34 -194h-29l34 194h-220l5 25h220l35 201h29zM31 0l5 27h470l-5 -27h-470z" />
    <glyph glyph-name="acute" unicode="&#xb4;" 
d="M291 580l140 140h38l-147 -140h-31z" />
    <glyph glyph-name="uni00B5" unicode="&#xb5;" 
d="M506 500h30l-88 -500h-29l22 127q-25 -61 -77 -100t-119 -39q-79 0 -120 48q-11 12 -19 32l-46 -263h-29l64 367q0 4 1.5 12.5t2.5 13.5l54 302h30l-54 -304q-7 -53 -1.5 -88t26.5 -55.5t46 -29t57 -8.5q79 0 132 61t68 143z" />
    <glyph glyph-name="paragraph" unicode="&#xb6;" 
d="M306 361q-85 0 -144.5 45t-59.5 125q0 55 20.5 93.5t58 58.5t80.5 28.5t98 8.5h295l-4 -22h-104l-141 -798h-26l141 798h-129l-141 -798h-26z" />
    <glyph glyph-name="periodcentered" unicode="&#xb7;" 
d="M386 407l-19 -106h-97l19 106h97z" />
    <glyph glyph-name="cedilla" unicode="&#xb8;" 
d="M252 1h24l-59 -78q17 16 45 16q24 0 40 -18t16 -45q0 -36 -23.5 -57t-57.5 -21q-28 0 -49 15t-24 44l27 3q4 -41 44 -41q22 0 39 13.5t17 40.5q0 21 -12.5 34t-30.5 13q-23 0 -45 -18l-18 7z" />
    <glyph glyph-name="ordmasculine" unicode="&#xba;" 
d="M332 301q-71 0 -111 40t-40 112q0 103 52 167t139 64q72 0 112.5 -40t40.5 -112q0 -102 -52.5 -166.5t-140.5 -64.5zM333 324q74 0 118.5 57.5t44.5 150.5q0 61 -33 95t-92 34q-74 0 -118.5 -57.5t-44.5 -150.5q0 -61 33 -95t92 -34z" />
    <glyph glyph-name="guillemotright" unicode="&#xbb;" 
d="M178 482l132 -208l-210 -207h-35l212 209l-130 206h31zM351 482l132 -208l-210 -207h-35l212 209l-131 206h32z" />
    <glyph glyph-name="onequarter" unicode="&#xbc;" horiz-adv-x="1240" 
d="M958 727h29l-642 -744h-30zM426 340h-252l3 20h118l54 311q-15 -16 -48 -29t-57 -13h-14l4 22h9q32 0 68.5 18t48.5 41h21l-61 -350h109zM985 122h74l-3 -20h-74l-17 -102h-26l19 102h-205l3 19l248 249h26zM961 122l40 220l-219 -220h179z" />
    <glyph glyph-name="onehalf" unicode="&#xbd;" horiz-adv-x="1240" 
d="M943 727h29l-642 -744h-30zM421 340h-252l3 20h118l54 311q-15 -16 -48 -29t-57 -13h-14l4 22h9q32 0 68.5 18t48.5 41h21l-61 -350h109zM1079 271q0 -32 -21.5 -66t-62 -66.5t-81.5 -59.5t-96 -58h229l-4 -21h-263l3 21q133 78 201.5 135.5t68.5 112.5q0 88 -94 88
q-47 0 -75 -23.5t-28 -61.5q0 -18 3 -29l-25 1q-3 17 -3 30q0 47 34 75.5t92 28.5q122 0 122 -107z" />
    <glyph glyph-name="threequarters" unicode="&#xbe;" horiz-adv-x="1240" 
d="M967 727h29l-642 -744h-30zM336 542h29q47 0 75.5 21.5t28.5 58.5q0 41 -26 58.5t-62 17.5q-55 0 -80.5 -27.5t-24.5 -71.5l-26 3q0 51 33 83.5t98 32.5q47 0 81 -22.5t34 -70.5q0 -38 -27 -64t-67 -30q35 -5 55.5 -29t20.5 -60q0 -48 -33.5 -79t-99.5 -31
q-54 0 -90 27.5t-37 86.5l26 2q2 -50 31 -72.5t70 -22.5q55 0 80.5 25t25.5 63t-23 60t-64 22h-30zM1030 102h-74l-17 -102h-26l19 102h-205l3 19l248 249h26l-45 -248h74zM935 122l40 220l-219 -220h179z" />
    <glyph glyph-name="questiondown" unicode="&#xbf;" 
d="M306 409l19 106h80l-19 -106h-80zM459 0v-3q-4 -100 -64 -154.5t-158 -54.5q-85 0 -129.5 45.5t-44.5 114.5q0 65 29 105.5t91 89.5l55 43q65 51 81 148l4 25h31l-6 -31q-18 -110 -92 -164l-57 -43q-53 -40 -77.5 -77t-24.5 -94q0 -58 36.5 -96.5t103.5 -38.5
q84 0 135 45.5t56 139.5v1z" />
    <glyph glyph-name="Agrave" unicode="&#xc0;" 
d="M409 776h-33l-114 108h40zM488 0l-36 231h-289l-116 -231h-34l358 710h34l115 -710h-32zM177 259h270l-13 83q-35 216 -50 333h-2q-101 -211 -162 -330z" />
    <glyph glyph-name="Aacute" unicode="&#xc1;" 
d="M528 884l-114 -108h-33l107 108h40zM371 710h34l115 -710h-32l-36 231h-289l-116 -231h-34zM447 259l-13 83q-35 216 -50 333h-2q-101 -211 -162 -330l-43 -86h270z" />
    <glyph glyph-name="Acircumflex" unicode="&#xc2;" 
d="M411 861l-103 -85h-36l128 108h28l90 -108h-35zM488 0l-36 231h-289l-116 -231h-34l358 710h34l115 -710h-32zM177 259h270l-13 83q-35 216 -50 333h-2q-101 -211 -162 -330z" />
    <glyph glyph-name="Atilde" unicode="&#xc3;" 
d="M557 881l25 -2q-10 -54 -37 -77t-60 -23q-32 0 -58 19t-50 38t-52 19q-59 0 -73 -72l-24 2q10 49 37 72t59 23q41 0 86 -38t75 -38q59 0 72 77zM371 710h34l115 -710h-32l-36 231h-289l-116 -231h-34zM447 259l-13 83q-35 216 -50 333h-2q-101 -211 -162 -330l-43 -86
h270z" />
    <glyph glyph-name="Adieresis" unicode="&#xc4;" 
d="M339 884l-19 -108h-50l19 108h50zM490 884h51l-20 -108h-50zM371 710h34l115 -710h-32l-36 231h-289l-116 -231h-34zM447 259l-13 83q-35 216 -50 333h-2q-101 -211 -162 -330l-43 -86h270z" />
    <glyph glyph-name="Aring" unicode="&#xc5;" 
d="M394 733q-36 0 -60 22.5t-24 55.5q0 48 28.5 76t75.5 28q36 0 60.5 -22.5t24.5 -55.5q0 -48 -28.5 -76t-76.5 -28zM412 893q-38 0 -57.5 -21.5t-19.5 -57.5q0 -25 16.5 -42t45.5 -17q38 0 57 21t19 58q0 25 -16.5 42t-44.5 17zM488 0l-36 231h-289l-116 -231h-34l358 710
h34l115 -710h-32zM177 259h270l-13 83q-35 216 -50 333h-2q-101 -211 -162 -330z" />
    <glyph glyph-name="AE" unicode="&#xc6;" 
d="M670 682h-229l-54 -304h213l-5 -28h-213l-57 -322h237l-5 -28h-268l33 182h-178l-97 -182h-33l384 710h277zM326 209l84 470l-251 -470h167z" />
    <glyph glyph-name="Ccedilla" unicode="&#xc7;" 
d="M380 727q105 0 156 -66t42 -186l-32 -3q8 110 -35 168.5t-133 58.5q-94 0 -152 -60t-81 -197l-23 -138q-24 -136 16 -214.5t138 -78.5q91 0 149 49t81 171l32 -3q-24 -121 -82.5 -179.5t-155.5 -64.5l-46 -61q17 16 45 16q24 0 40 -18t16 -45q0 -36 -23.5 -57t-57.5 -21
q-28 0 -49 15t-24 44l27 3q4 -41 44 -41q22 0 39 13.5t17 40.5q0 21 -13 34t-30 13q-23 0 -45 -18l-18 7l54 74h-1q-118 0 -164.5 87t-21.5 231l23 139q25 149 91.5 218t176.5 69z" />
    <glyph glyph-name="Egrave" unicode="&#xc8;" 
d="M422 776h-33l-114 108h40zM594 710l-5 -28h-358l-53 -304h340l-4 -28h-341l-57 -322h364l-4 -28h-397l125 710h390z" />
    <glyph glyph-name="Eacute" unicode="&#xc9;" 
d="M394 776l107 108h40l-114 -108h-33zM594 710l-5 -28h-358l-53 -304h340l-4 -28h-341l-57 -322h364l-4 -28h-397l125 710h390z" />
    <glyph glyph-name="Ecircumflex" unicode="&#xca;" 
d="M531 776h-35l-72 85l-103 -85h-36l128 108h28zM594 710l-5 -28h-358l-53 -304h340l-4 -28h-341l-57 -322h364l-4 -28h-397l125 710h390z" />
    <glyph glyph-name="Edieresis" unicode="&#xcb;" 
d="M352 884l-19 -108h-50l19 108h50zM554 884l-20 -108h-50l19 108h51zM594 710l-5 -28h-358l-53 -304h340l-4 -28h-341l-57 -322h364l-4 -28h-397l125 710h390z" />
    <glyph glyph-name="Igrave" unicode="&#xcc;" 
d="M412 776h-33l-114 108h40zM595 683h-193l-115 -656h192l-5 -27h-416l5 27h192l115 656h-192l5 27h416z" />
    <glyph glyph-name="Iacute" unicode="&#xcd;" 
d="M531 884l-114 -108h-33l107 108h40zM595 683h-193l-115 -656h192l-5 -27h-416l5 27h192l115 656h-192l5 27h416z" />
    <glyph glyph-name="Icircumflex" unicode="&#xce;" 
d="M414 861l-103 -85h-36l128 108h28l90 -108h-35zM595 683h-193l-115 -656h192l-5 -27h-416l5 27h192l115 656h-192l5 27h416z" />
    <glyph glyph-name="Idieresis" unicode="&#xcf;" 
d="M342 884l-19 -108h-50l19 108h50zM544 884l-20 -108h-50l19 108h51zM595 683h-193l-115 -656h192l-5 -27h-416l5 27h192l115 656h-192l5 27h416z" />
    <glyph glyph-name="Eth" unicode="&#xd0;" 
d="M311 710q122 0 193.5 -71t71.5 -220q0 -114 -43.5 -208.5t-127.5 -152.5t-194 -58h-155l63 357h-100l5 27h100l57 326h130zM216 28q146 0 237 114t91 274q0 137 -62 201.5t-169 64.5h-105l-52 -298h180l-5 -27h-180l-58 -329h123z" />
    <glyph glyph-name="Ntilde" unicode="&#xd1;" 
d="M274 880q41 0 86 -38t75 -38q59 0 72 77l25 -2q-10 -54 -37 -77t-60 -23q-32 0 -58 19t-50 38t-52 19q-59 0 -73 -72l-24 2q10 49 37 72t59 23zM437 96q5 -16 13 -49h3l9 63l106 600h32l-126 -710h-39l-214 622q-11 35 -14 53h-1q-3 -28 -9 -60l-109 -615h-32l126 710h43
z" />
    <glyph glyph-name="Ograve" unicode="&#xd2;" 
d="M400 776h-33l-114 108h40zM281 -17q-124 0 -172 88.5t-20 240.5l21 118q27 148 92 222.5t174 74.5q123 0 171.5 -88.5t21.5 -240.5l-22 -118q-27 -148 -92 -222.5t-174 -74.5zM282 11q183 0 233 270l22 119q25 139 -16 219t-146 80q-182 0 -233 -270l-22 -118
q-25 -139 16 -219.5t146 -80.5z" />
    <glyph glyph-name="Oacute" unicode="&#xd3;" 
d="M372 776l107 108h40l-114 -108h-33zM281 -17q-124 0 -172 88.5t-20 240.5l21 118q27 148 92 222.5t174 74.5q123 0 171.5 -88.5t21.5 -240.5l-22 -118q-27 -148 -92 -222.5t-174 -74.5zM282 11q183 0 233 270l22 119q25 139 -16 219t-146 80q-182 0 -233 -270l-22 -118
q-25 -139 16 -219.5t146 -80.5z" />
    <glyph glyph-name="Ocircumflex" unicode="&#xd4;" 
d="M509 776h-35l-72 85l-103 -85h-36l128 108h28zM281 -17q-124 0 -172 88.5t-20 240.5l21 118q27 148 92 222.5t174 74.5q123 0 171.5 -88.5t21.5 -240.5l-22 -118q-27 -148 -92 -222.5t-174 -74.5zM282 11q183 0 233 270l22 119q25 139 -16 219t-146 80q-182 0 -233 -270
l-22 -118q-25 -139 16 -219.5t146 -80.5z" />
    <glyph glyph-name="Otilde" unicode="&#xd5;" 
d="M315 880q41 0 86 -38t75 -38q59 0 72 77l25 -2q-10 -54 -37 -77t-60 -23q-32 0 -58 19t-50 38t-52 19q-59 0 -73 -72l-24 2q10 49 37 72t59 23zM281 -17q-124 0 -172 88.5t-20 240.5l21 118q27 148 92 222.5t174 74.5q123 0 171.5 -88.5t21.5 -240.5l-22 -118
q-27 -148 -92 -222.5t-174 -74.5zM282 11q183 0 233 270l22 119q25 139 -16 219t-146 80q-182 0 -233 -270l-22 -118q-25 -139 16 -219.5t146 -80.5z" />
    <glyph glyph-name="Odieresis" unicode="&#xd6;" 
d="M330 884l-19 -108h-50l19 108h50zM532 884l-20 -108h-50l19 108h51zM281 -17q-124 0 -172 88.5t-20 240.5l21 118q27 148 92 222.5t174 74.5q123 0 171.5 -88.5t21.5 -240.5l-22 -118q-27 -148 -92 -222.5t-174 -74.5zM282 11q183 0 233 270l22 119q25 139 -16 219
t-146 80q-182 0 -233 -270l-22 -118q-25 -139 16 -219.5t146 -80.5z" />
    <glyph glyph-name="multiply" unicode="&#xd7;" 
d="M584 531l-241 -205l168 -204l-20 -20l-170 206l-241 -206l-18 22l241 206l-166 201l20 19l167 -202l241 205z" />
    <glyph glyph-name="Oslash" unicode="&#xd8;" 
d="M672 700l-102 -116q20 -77 0 -186l-22 -118q-27 -148 -92 -222.5t-174 -74.5q-117 0 -169 83l-64 -73l-18 13l71 81q-38 86 -12 225l21 118q27 148 92 222.5t174 74.5q142 0 185 -117l92 104zM121 311q-21 -120 6 -196l410 466q-33 118 -161 118q-182 0 -233 -270z
M538 400q16 85 5 154l-406 -462q41 -81 146 -81q183 0 233 270z" />
    <glyph glyph-name="Ugrave" unicode="&#xd9;" 
d="M412 776h-33l-114 108h40zM176 710h31l-85 -487q-17 -97 27 -154.5t134 -57.5q169 0 199 171l92 528h33l-93 -529q-16 -93 -74 -145.5t-158 -52.5q-108 0 -160 65t-32 174z" />
    <glyph glyph-name="Uacute" unicode="&#xda;" 
d="M384 776l107 108h40l-114 -108h-33zM176 710h31l-85 -487q-17 -97 27 -154.5t134 -57.5q169 0 199 171l92 528h33l-93 -529q-16 -93 -74 -145.5t-158 -52.5q-108 0 -160 65t-32 174z" />
    <glyph glyph-name="Ucircumflex" unicode="&#xdb;" 
d="M521 776h-35l-72 85l-103 -85h-36l128 108h28zM176 710h31l-85 -487q-17 -97 27 -154.5t134 -57.5q169 0 199 171l92 528h33l-93 -529q-16 -93 -74 -145.5t-158 -52.5q-108 0 -160 65t-32 174z" />
    <glyph glyph-name="Udieresis" unicode="&#xdc;" 
d="M342 884l-19 -108h-50l19 108h50zM544 884l-20 -108h-50l19 108h51zM176 710h31l-85 -487q-17 -97 27 -154.5t134 -57.5q169 0 199 171l92 528h33l-93 -529q-16 -93 -74 -145.5t-158 -52.5q-108 0 -160 65t-32 174z" />
    <glyph glyph-name="Yacute" unicode="&#xdd;" 
d="M384 776l107 108h40l-114 -108h-33zM335 291l-52 -291h-32l52 291l-166 419h35l150 -387l285 387h38z" />
    <glyph glyph-name="Thorn" unicode="&#xde;" 
d="M110 0l125 710h32l-21 -122h173q53 0 92 -15.5t59.5 -41t29.5 -53.5t9 -59q0 -41 -12.5 -77t-39 -67.5t-75.5 -49.5t-114 -18h-190l-36 -207h-32zM183 235h192q102 0 151.5 52t49.5 128q0 58 -37 101.5t-120 43.5h-178z" />
    <glyph glyph-name="germandbls" unicode="&#xdf;" 
d="M213 -5l5 26h49q233 0 233 204q0 75 -48.5 119t-131.5 45h-28l4 27h28q55 0 96 17t61.5 43.5t30 52.5t9.5 52q0 63 -36.5 96t-95.5 33q-80 0 -119.5 -47t-56.5 -142l-92 -521h-30l92 525q18 101 65.5 155.5t142.5 54.5q72 0 116.5 -40t44.5 -113t-49 -122.5t-126 -57.5
q70 -6 112.5 -57t42.5 -120q0 -115 -70.5 -172.5t-199.5 -57.5h-49z" />
    <glyph glyph-name="agrave" unicode="&#xe0;" 
d="M361 580h-31l-147 140h38zM465 189q-20 -126 -23 -189h-32q12 104 15 125q-66 -137 -205 -137q-69 0 -108.5 35t-39.5 97q0 64 44 102q46 46 156 55l181 15l2 12q5 26 5 56q0 126 -130 126q-145 0 -171 -138h-30q12 80 64 122t138 42q158 0 158 -151q0 -29 -6 -62z
M449 268l-177 -14q-168 -14 -168 -131q0 -51 32.5 -80t89.5 -29q81 0 139 55.5t75 148.5z" />
    <glyph glyph-name="aacute" unicode="&#xe1;" 
d="M345 580l140 140h38l-147 -140h-31zM465 189q-20 -126 -23 -189h-32q12 104 15 125q-66 -137 -205 -137q-69 0 -108.5 35t-39.5 97q0 64 44 102q46 46 156 55l181 15l2 12q5 26 5 56q0 126 -130 126q-145 0 -171 -138h-30q12 80 64 122t138 42q158 0 158 -151
q0 -29 -6 -62zM449 268l-177 -14q-168 -14 -168 -131q0 -51 32.5 -80t89.5 -29q81 0 139 55.5t75 148.5z" />
    <glyph glyph-name="acircumflex" unicode="&#xe2;" 
d="M479 580h-29l-75 116l-116 -116h-34l139 140h26zM465 189q-20 -126 -23 -189h-32q12 104 15 125q-66 -137 -205 -137q-69 0 -108.5 35t-39.5 97q0 64 44 102q46 46 156 55l181 15l2 12q5 26 5 56q0 126 -130 126q-145 0 -171 -138h-30q12 80 64 122t138 42
q158 0 158 -151q0 -29 -6 -62zM449 268l-177 -14q-168 -14 -168 -131q0 -51 32.5 -80t89.5 -29q81 0 139 55.5t75 148.5z" />
    <glyph glyph-name="atilde" unicode="&#xe3;" 
d="M279 699q34 0 61.5 -19t52 -38t50.5 -19q62 0 75 77l25 -1q-10 -55 -37.5 -78.5t-62.5 -23.5q-39 0 -84.5 38t-78.5 38q-61 0 -75 -72l-24 2q10 50 37.5 73t60.5 23zM465 189q-20 -126 -23 -189h-32q12 104 15 125q-66 -137 -205 -137q-69 0 -108.5 35t-39.5 97
q0 64 44 102q46 46 156 55l181 15l2 12q5 26 5 56q0 126 -130 126q-145 0 -171 -138h-30q12 80 64 122t138 42q158 0 158 -151q0 -29 -6 -62zM449 268l-177 -14q-168 -14 -168 -131q0 -51 32.5 -80t89.5 -29q81 0 139 55.5t75 148.5z" />
    <glyph glyph-name="adieresis" unicode="&#xe4;" 
d="M329 720l-19 -108h-52l19 108h52zM476 720l-19 -108h-53l20 108h52zM465 189q-20 -126 -23 -189h-32q12 104 15 125q-66 -137 -205 -137q-69 0 -108.5 35t-39.5 97q0 64 44 102q46 46 156 55l181 15l2 12q5 26 5 56q0 126 -130 126q-145 0 -171 -138h-30q12 80 64 122
t138 42q158 0 158 -151q0 -29 -6 -62zM449 268l-177 -14q-168 -14 -168 -131q0 -51 32.5 -80t89.5 -29q81 0 139 55.5t75 148.5z" />
    <glyph glyph-name="aring" unicode="&#xe5;" 
d="M458 670q0 -49 -28.5 -77.5t-77.5 -28.5q-37 0 -61 23t-24 57q0 47 29 76.5t76 29.5q37 0 61.5 -23.5t24.5 -56.5zM293 647q0 -26 16.5 -43t45.5 -17q38 0 58 21.5t20 58.5q0 25 -17 43t-46 18q-37 0 -57 -22t-20 -59zM465 189q-20 -126 -23 -189h-32q12 104 15 125
q-66 -137 -205 -137q-69 0 -108.5 35t-39.5 97q0 64 44 102q46 46 156 55l181 15l2 12q5 26 5 56q0 126 -130 126q-145 0 -171 -138h-30q12 80 64 122t138 42q158 0 158 -151q0 -29 -6 -62zM449 268l-177 -14q-168 -14 -168 -131q0 -51 32.5 -80t89.5 -29q81 0 139 55.5
t75 148.5z" />
    <glyph glyph-name="ae" unicode="&#xe6;" 
d="M475 510q56 0 84.5 -33t28.5 -94q0 -29 -6 -63l-9 -56h-246l-19 -112q-3 -15 -3 -30q0 -48 27.5 -76.5t71.5 -28.5q92 0 121 140l1 7l28 -3l-1 -5q-32 -166 -153 -166q-51 0 -82 28.5t-37 77.5q-43 -105 -137 -105q-53 0 -85 30t-32 92q0 61 40 105.5t126 55.5l110 13
l10 52q4 34 4 51q0 95 -92 95q-59 0 -87.5 -38.5t-29.5 -94.5v-3h-29v3q1 71 41 114.5t107 43.5q96 0 115 -85q42 85 133 85zM551 322q6 36 6 58q0 105 -83 105q-46 0 -81 -32.5t-51 -101.5q0 -3 -2 -11l-7 -41l-2 -12h215zM149 15q107 0 137 176l13 72l-104 -13
q-69 -9 -102.5 -46t-33.5 -91q0 -51 25 -74.5t65 -23.5z" />
    <glyph glyph-name="ccedilla" unicode="&#xe7;" 
d="M518 334l-28 -1q1 78 -41 115.5t-110 37.5q-60 0 -105.5 -27.5t-69 -71.5t-34.5 -90t-11 -92q0 -99 46.5 -144.5t117.5 -45.5q138 0 178 151l30 -2q-42 -170 -199 -176l-49 -65q17 16 45 16q24 0 40 -18t16 -45q0 -36 -23.5 -57t-57.5 -21q-28 0 -49 15t-24 44l27 3
q4 -41 44 -41q22 0 39 13.5t17 40.5q0 21 -12.5 34t-30.5 13q-23 0 -45 -18l-18 7l58 79q-80 4 -131 56.5t-51 159.5q0 42 8 83t27 82t47 72.5t72 51t98 19.5q83 0 133 -46t46 -132z" />
    <glyph glyph-name="egrave" unicode="&#xe8;" 
d="M379 580h-31l-147 140h38zM514 252h-386q-4 -25 -4 -58q0 -84 43 -131.5t120 -47.5q130 0 179 140l26 -7q-54 -160 -208 -160q-90 0 -140 55t-50 159q0 82 28.5 151.5t87.5 114t136 44.5q79 0 128 -45t49 -131q0 -34 -9 -84zM347 487q-83 0 -139.5 -57.5t-75.5 -151.5
h357q6 25 6 54q0 81 -42 118t-106 37z" />
    <glyph glyph-name="eacute" unicode="&#xe9;" 
d="M541 720l-147 -140h-31l140 140h38zM346 512q79 0 128 -45t49 -131q0 -34 -9 -84h-386q-4 -25 -4 -58q0 -84 43 -131.5t120 -47.5q130 0 179 140l26 -7q-54 -160 -208 -160q-90 0 -140 55t-50 159q0 82 28.5 151.5t87.5 114t136 44.5zM489 278q6 25 6 54q0 81 -42 118
t-106 37q-83 0 -139.5 -57.5t-75.5 -151.5h357z" />
    <glyph glyph-name="ecircumflex" unicode="&#xea;" 
d="M393 696l-116 -116h-34l139 140h26l89 -140h-29zM514 252h-386q-4 -25 -4 -58q0 -84 43 -131.5t120 -47.5q130 0 179 140l26 -7q-54 -160 -208 -160q-90 0 -140 55t-50 159q0 82 28.5 151.5t87.5 114t136 44.5q79 0 128 -45t49 -131q0 -34 -9 -84zM347 487
q-83 0 -139.5 -57.5t-75.5 -151.5h357q6 25 6 54q0 81 -42 118t-106 37z" />
    <glyph glyph-name="edieresis" unicode="&#xeb;" 
d="M347 720l-19 -108h-52l19 108h52zM494 720l-19 -108h-53l20 108h52zM514 252h-386q-4 -25 -4 -58q0 -84 43 -131.5t120 -47.5q130 0 179 140l26 -7q-54 -160 -208 -160q-90 0 -140 55t-50 159q0 82 28.5 151.5t87.5 114t136 44.5q79 0 128 -45t49 -131q0 -34 -9 -84z
M347 487q-83 0 -139.5 -57.5t-75.5 -151.5h357q6 25 6 54q0 81 -42 118t-106 37z" />
    <glyph glyph-name="igrave" unicode="&#xec;" 
d="M388 580h-31l-147 140h38zM92 0l4 27h175l79 446h-164l5 27h194l-84 -473h184l-4 -27h-389z" />
    <glyph glyph-name="iacute" unicode="&#xed;" 
d="M372 580l140 140h38l-147 -140h-31zM92 0l4 27h175l79 446h-164l5 27h194l-84 -473h184l-4 -27h-389z" />
    <glyph glyph-name="icircumflex" unicode="&#xee;" 
d="M506 580h-29l-75 116l-116 -116h-34l139 140h26zM92 0l4 27h175l79 446h-164l5 27h194l-84 -473h184l-4 -27h-389z" />
    <glyph glyph-name="idieresis" unicode="&#xef;" 
d="M356 720l-19 -108h-52l19 108h52zM503 720l-19 -108h-53l20 108h52zM92 0l4 27h175l79 446h-164l5 27h194l-84 -473h184l-4 -27h-389z" />
    <glyph glyph-name="eth" unicode="&#xf0;" 
d="M548 636l-78 -23q66 -98 66 -276q0 -172 -65 -262t-181 -90q-95 0 -149.5 56t-54.5 171q0 128 64.5 213.5t174.5 85.5q76 0 121.5 -40.5t56.5 -91.5q-4 146 -60 226l-218 -64l-3 23l206 61q-53 61 -142 71l13 23q98 -14 157 -86l89 26zM289 12q101 0 157 80t56 185
q0 92 -45.5 150t-128.5 58q-53 0 -95 -25t-66 -66t-36.5 -87.5t-12.5 -94.5q0 -94 45.5 -147t125.5 -53z" />
    <glyph glyph-name="ntilde" unicode="&#xf1;" 
d="M305 699q34 0 61.5 -19t52 -38t50.5 -19q62 0 75 77l25 -1q-10 -55 -37.5 -78.5t-62.5 -23.5q-39 0 -84.5 38t-78.5 38q-61 0 -75 -72l-24 2q10 50 37.5 73t60.5 23zM165 363q29 72 82 110.5t123 38.5q79 0 118 -45q33 -36 33 -100q0 -25 -7 -67l-53 -300h-30l54 303
q4 29 4 54q0 128 -127 128q-81 0 -138.5 -59t-75.5 -161l-46 -265h-30l88 500h29z" />
    <glyph glyph-name="ograve" unicode="&#xf2;" 
d="M362 580h-31l-147 140h38zM282 -12q-93 0 -145 54.5t-52 150.5q0 141 69 230t183 89q94 0 146.5 -54t52.5 -150q0 -141 -69 -230.5t-185 -89.5zM282 15q102 0 162 81t60 212q0 83 -44 130.5t-123 47.5q-100 0 -160.5 -81.5t-60.5 -211.5q0 -84 43.5 -131t122.5 -47z" />
    <glyph glyph-name="oacute" unicode="&#xf3;" 
d="M346 580l140 140h38l-147 -140h-31zM282 -12q-93 0 -145 54.5t-52 150.5q0 141 69 230t183 89q94 0 146.5 -54t52.5 -150q0 -141 -69 -230.5t-185 -89.5zM282 15q102 0 162 81t60 212q0 83 -44 130.5t-123 47.5q-100 0 -160.5 -81.5t-60.5 -211.5q0 -84 43.5 -131
t122.5 -47z" />
    <glyph glyph-name="ocircumflex" unicode="&#xf4;" 
d="M480 580h-29l-75 116l-116 -116h-34l139 140h26zM282 -12q-93 0 -145 54.5t-52 150.5q0 141 69 230t183 89q94 0 146.5 -54t52.5 -150q0 -141 -69 -230.5t-185 -89.5zM282 15q102 0 162 81t60 212q0 83 -44 130.5t-123 47.5q-100 0 -160.5 -81.5t-60.5 -211.5
q0 -84 43.5 -131t122.5 -47z" />
    <glyph glyph-name="otilde" unicode="&#xf5;" 
d="M280 699q34 0 61.5 -19t52 -38t50.5 -19q62 0 75 77l25 -1q-10 -55 -37.5 -78.5t-62.5 -23.5q-39 0 -84.5 38t-78.5 38q-61 0 -75 -72l-24 2q10 50 37.5 73t60.5 23zM282 -12q-93 0 -145 54.5t-52 150.5q0 141 69 230t183 89q94 0 146.5 -54t52.5 -150q0 -141 -69 -230.5
t-185 -89.5zM282 15q102 0 162 81t60 212q0 83 -44 130.5t-123 47.5q-100 0 -160.5 -81.5t-60.5 -211.5q0 -84 43.5 -131t122.5 -47z" />
    <glyph glyph-name="odieresis" unicode="&#xf6;" 
d="M330 720l-19 -108h-52l19 108h52zM477 720l-19 -108h-53l20 108h52zM282 -12q-93 0 -145 54.5t-52 150.5q0 141 69 230t183 89q94 0 146.5 -54t52.5 -150q0 -141 -69 -230.5t-185 -89.5zM282 15q102 0 162 81t60 212q0 83 -44 130.5t-123 47.5q-100 0 -160.5 -81.5
t-60.5 -211.5q0 -84 43.5 -131t122.5 -47z" />
    <glyph glyph-name="divide" unicode="&#xf7;" 
d="M355 487q-15 0 -24.5 9t-9.5 24t9.5 24t24.5 9t24.5 -9t9.5 -24t-9.5 -24t-24.5 -9zM86 316l5 26h470l-5 -26h-470zM288 104q-15 0 -24.5 9t-9.5 24t9.5 24t24.5 9t24.5 -9t9.5 -24t-9.5 -24t-24.5 -9z" />
    <glyph glyph-name="oslash" unicode="&#xf8;" 
d="M560 492l-57 -59q32 -50 32 -125q0 -141 -69 -230.5t-185 -89.5q-99 0 -151 61l-55 -56l-16 16l57 59q-32 50 -32 125q0 141 69 230t183 89q101 0 153 -61l54 56zM115 193q0 -60 23 -103l329 339q-43 57 -131 57q-100 0 -160.5 -81.5t-60.5 -211.5zM503 308q0 59 -23 102
l-329 -339q44 -56 130 -56q102 0 162 81t60 212z" />
    <glyph glyph-name="ugrave" unicode="&#xf9;" 
d="M364 580h-31l-147 140h38zM441 127q-25 -61 -77 -100t-119 -39q-79 0 -120 48q-44 54 -26 162l54 302h30l-54 -304q-7 -53 -1.5 -88t26.5 -55.5t46 -29t57 -8.5q79 0 132 61t68 143l49 281h30l-88 -500h-29z" />
    <glyph glyph-name="uacute" unicode="&#xfa;" 
d="M348 580l140 140h38l-147 -140h-31zM441 127q-25 -61 -77 -100t-119 -39q-79 0 -120 48q-44 54 -26 162l54 302h30l-54 -304q-7 -53 -1.5 -88t26.5 -55.5t46 -29t57 -8.5q79 0 132 61t68 143l49 281h30l-88 -500h-29z" />
    <glyph glyph-name="ucircumflex" unicode="&#xfb;" 
d="M482 580h-29l-75 116l-116 -116h-34l139 140h26zM441 127q-25 -61 -77 -100t-119 -39q-79 0 -120 48q-44 54 -26 162l54 302h30l-54 -304q-7 -53 -1.5 -88t26.5 -55.5t46 -29t57 -8.5q79 0 132 61t68 143l49 281h30l-88 -500h-29z" />
    <glyph glyph-name="udieresis" unicode="&#xfc;" 
d="M332 720l-19 -108h-52l19 108h52zM479 720l-19 -108h-53l20 108h52zM441 127q-25 -61 -77 -100t-119 -39q-79 0 -120 48q-44 54 -26 162l54 302h30l-54 -304q-7 -53 -1.5 -88t26.5 -55.5t46 -29t57 -8.5q79 0 132 61t68 143l49 281h30l-88 -500h-29z" />
    <glyph glyph-name="yacute" unicode="&#xfd;" 
d="M357 580l140 140h38l-147 -140h-31zM177 500l102 -468l254 468h31l-300 -552q-49 -89 -85 -119t-96 -30q-33 0 -49 6l5 27q12 -5 52 -5q28 0 49.5 9.5t40 31.5t30 40.5t29.5 52.5l19 37l-114 502h32z" />
    <glyph glyph-name="thorn" unicode="&#xfe;" 
d="M236 725l-65 -364q27 73 80 112t120 39q86 0 131.5 -58t45.5 -150q0 -135 -68.5 -225.5t-178.5 -90.5q-64 0 -112.5 40.5t-56.5 109.5l-59 -333h-30l163 920h30zM149 239q-17 -98 26 -161t127 -63q96 0 155 82.5t59 205.5q0 81 -39 131.5t-114 50.5q-86 0 -140 -64
t-71 -162z" />
    <glyph glyph-name="ydieresis" unicode="&#xff;" 
d="M341 720l-19 -108h-52l19 108h52zM488 720l-19 -108h-53l20 108h52zM177 500l102 -468l254 468h31l-300 -552q-49 -89 -85 -119t-96 -30q-33 0 -49 6l5 27q12 -5 52 -5q28 0 49.5 9.5t40 31.5t30 40.5t29.5 52.5l19 37l-114 502h32z" />
    <glyph glyph-name="Amacron" unicode="&#x100;" 
d="M262 823h285l-5 -27h-285zM371 710h34l115 -710h-32l-36 231h-289l-116 -231h-34zM447 259l-13 83q-35 216 -50 333h-2q-101 -211 -162 -330l-43 -86h270z" />
    <glyph glyph-name="amacron" unicode="&#x101;" 
d="M211 608l5 26h288l-5 -26h-288zM465 189q-20 -126 -23 -189h-32q12 104 15 125q-66 -137 -205 -137q-69 0 -108.5 35t-39.5 97q0 64 44 102q46 46 156 55l181 15l2 12q5 26 5 56q0 126 -130 126q-145 0 -171 -138h-30q12 80 64 122t138 42q158 0 158 -151q0 -29 -6 -62z
M449 268l-177 -14q-168 -14 -168 -131q0 -51 32.5 -80t89.5 -29q81 0 139 55.5t75 148.5z" />
    <glyph glyph-name="Abreve" unicode="&#x102;" 
d="M394 771q-54 0 -90.5 28t-32.5 85h29q-4 -41 24 -65.5t74 -24.5q44 0 79.5 24.5t48.5 65.5h30q-37 -113 -162 -113zM371 710h34l115 -710h-32l-36 231h-289l-116 -231h-34zM447 259l-13 83q-35 216 -50 333h-2q-101 -211 -162 -330l-43 -86h270z" />
    <glyph glyph-name="abreve" unicode="&#x103;" 
d="M247 720q-1 -63 25 -93t83 -30q48 0 84 34.5t43 88.5h26q-13 -74 -56 -109.5t-98 -35.5q-138 0 -133 145h26zM465 189q-20 -126 -23 -189h-32q12 104 15 125q-66 -137 -205 -137q-69 0 -108.5 35t-39.5 97q0 64 44 102q46 46 156 55l181 15l2 12q5 26 5 56
q0 126 -130 126q-145 0 -171 -138h-30q12 80 64 122t138 42q158 0 158 -151q0 -29 -6 -62zM449 268l-177 -14q-168 -14 -168 -131q0 -51 32.5 -80t89.5 -29q81 0 139 55.5t75 148.5z" />
    <glyph glyph-name="Aogonek" unicode="&#x104;" 
d="M426 -180q26 0 45 18.5t23 50.5l24 -4q-8 -44 -34.5 -66t-61.5 -22q-32 0 -54 18t-22 55q0 42 33.5 78.5t107.5 55.5l-35 227h-289l-116 -231h-34l358 710h34l115 -710q-146 -36 -146 -125q0 -28 14.5 -41.5t37.5 -13.5zM177 259h270l-13 83q-35 216 -50 333h-2
q-101 -211 -162 -330z" />
    <glyph glyph-name="aogonek" unicode="&#x105;" 
d="M331 512q158 0 158 -151q0 -29 -6 -62l-18 -110q-20 -126 -23 -189q-146 -36 -146 -125q0 -28 14.5 -41.5t37.5 -13.5q26 0 45 18.5t23 50.5l24 -4q-8 -44 -34.5 -66t-61.5 -22q-32 0 -54 18t-22 55q0 42 33.5 78.5t109.5 56.5q7 76 14 120q-66 -137 -205 -137
q-69 0 -108.5 35t-39.5 97q0 64 44 102q46 46 156 55l181 15l2 12q5 26 5 56q0 126 -130 126q-145 0 -171 -138h-30q12 80 64 122t138 42zM440 218l9 50l-177 -14q-168 -14 -168 -131q0 -51 32.5 -80t89.5 -29q81 0 139 55.5t75 148.5z" />
    <glyph glyph-name="Cacute" unicode="&#x106;" 
d="M375 776l107 108h40l-114 -108h-33zM275 -17q-118 0 -164.5 87t-21.5 231l23 139q25 149 91.5 218t176.5 69q105 0 156 -66t42 -186l-32 -3q8 110 -35 168.5t-133 58.5q-94 0 -152 -60t-81 -197l-23 -138q-24 -136 16 -214.5t138 -78.5q91 0 149 49t81 171l32 -3
q-26 -129 -90 -187t-173 -58z" />
    <glyph glyph-name="cacute" unicode="&#x107;" 
d="M347 580l140 140h38l-147 -140h-31zM281 -12q-84 0 -139 52.5t-55 163.5q0 42 8 83t27 82t47 72.5t72 51t98 19.5q83 0 133 -46t46 -132l-28 -1q1 78 -41 115.5t-110 37.5q-60 0 -105.5 -27.5t-69 -71.5t-34.5 -90t-11 -92q0 -99 46.5 -144.5t117.5 -45.5q138 0 178 151
l30 -2q-44 -176 -210 -176z" />
    <glyph glyph-name="Ccircumflex" unicode="&#x108;" 
d="M512 776h-35l-72 85l-103 -85h-36l128 108h28zM275 -17q-118 0 -164.5 87t-21.5 231l23 139q25 149 91.5 218t176.5 69q105 0 156 -66t42 -186l-32 -3q8 110 -35 168.5t-133 58.5q-94 0 -152 -60t-81 -197l-23 -138q-24 -136 16 -214.5t138 -78.5q91 0 149 49t81 171
l32 -3q-26 -129 -90 -187t-173 -58z" />
    <glyph glyph-name="ccircumflex" unicode="&#x109;" 
d="M481 580h-29l-75 116l-116 -116h-34l139 140h26zM281 -12q-84 0 -139 52.5t-55 163.5q0 42 8 83t27 82t47 72.5t72 51t98 19.5q83 0 133 -46t46 -132l-28 -1q1 78 -41 115.5t-110 37.5q-60 0 -105.5 -27.5t-69 -71.5t-34.5 -90t-11 -92q0 -99 46.5 -144.5t117.5 -45.5
q138 0 178 151l30 -2q-44 -176 -210 -176z" />
    <glyph glyph-name="Cdotaccent" unicode="&#x10a;" 
d="M435 884l-19 -108h-54l19 108h54zM275 -17q-118 0 -164.5 87t-21.5 231l23 139q25 149 91.5 218t176.5 69q105 0 156 -66t42 -186l-32 -3q8 110 -35 168.5t-133 58.5q-94 0 -152 -60t-81 -197l-23 -138q-24 -136 16 -214.5t138 -78.5q91 0 149 49t81 171l32 -3
q-26 -129 -90 -187t-173 -58z" />
    <glyph glyph-name="cdotaccent" unicode="&#x10b;" 
d="M403 725l-22 -124h-52l21 124h53zM281 -12q-84 0 -139 52.5t-55 163.5q0 42 8 83t27 82t47 72.5t72 51t98 19.5q83 0 133 -46t46 -132l-28 -1q1 78 -41 115.5t-110 37.5q-60 0 -105.5 -27.5t-69 -71.5t-34.5 -90t-11 -92q0 -99 46.5 -144.5t117.5 -45.5q138 0 178 151
l30 -2q-44 -176 -210 -176z" />
    <glyph glyph-name="Ccaron" unicode="&#x10c;" 
d="M286 884h35l72 -85l103 85h36l-128 -108h-28zM275 -17q-118 0 -164.5 87t-21.5 231l23 139q25 149 91.5 218t176.5 69q105 0 156 -66t42 -186l-32 -3q8 110 -35 168.5t-133 58.5q-94 0 -152 -60t-81 -197l-23 -138q-24 -136 16 -214.5t138 -78.5q91 0 149 49t81 171
l32 -3q-26 -129 -90 -187t-173 -58z" />
    <glyph glyph-name="ccaron" unicode="&#x10d;" 
d="M283 720h29l75 -116l116 116h34l-139 -140h-26zM281 -12q-84 0 -139 52.5t-55 163.5q0 42 8 83t27 82t47 72.5t72 51t98 19.5q83 0 133 -46t46 -132l-28 -1q1 78 -41 115.5t-110 37.5q-60 0 -105.5 -27.5t-69 -71.5t-34.5 -90t-11 -92q0 -99 46.5 -144.5t117.5 -45.5
q138 0 178 151l30 -2q-44 -176 -210 -176z" />
    <glyph glyph-name="Dcaron" unicode="&#x10e;" 
d="M242 884h35l72 -85l103 85h36l-128 -108h-28zM56 0l125 710h130q122 0 193.5 -71t71.5 -220q0 -114 -43.5 -208.5t-127.5 -152.5t-194 -58h-155zM93 28h123q146 0 237 114t91 274q0 137 -62 201.5t-169 64.5h-105z" />
    <glyph glyph-name="dcaron" unicode="&#x10f;" 
d="M255 -13q-84 0 -130.5 57.5t-46.5 148.5q0 136 67 227t175 91q62 0 108 -38.5t53 -107.5l64 360h30l-128 -725h-29l25 138q-24 -72 -76 -111.5t-112 -39.5zM641 576l-10 15q25 25 36 85h-18l9 49h36l-9 -52q-13 -68 -44 -97zM261 14q79 0 131 63t69 159l4 24
q16 98 -25.5 161.5t-121.5 63.5q-93 0 -150.5 -83.5t-57.5 -206.5q0 -80 39.5 -130.5t111.5 -50.5z" />
    <glyph glyph-name="Dcroat" unicode="&#x110;" 
d="M311 710q122 0 193.5 -71t71.5 -220q0 -114 -43.5 -208.5t-127.5 -152.5t-194 -58h-155l63 357h-100l5 27h100l57 326h130zM216 28q146 0 237 114t91 274q0 137 -62 201.5t-169 64.5h-105l-52 -298h180l-5 -27h-180l-58 -329h123z" />
    <glyph glyph-name="dcroat" unicode="&#x111;" 
d="M663 609l-4 -22h-101l-104 -587h-29l25 138q-26 -72 -78.5 -111.5t-116.5 -39.5q-87 0 -134.5 57.5t-47.5 148.5q0 136 68.5 227t179.5 91q64 0 112 -38.5t55 -107.5l39 222h-281l4 22h281l21 116h30l-20 -116h101zM472 260q18 98 -25 161.5t-127 63.5q-97 0 -156 -83.5
t-59 -206.5q0 -81 40.5 -131t116.5 -50q81 0 135 63t71 159z" />
    <glyph glyph-name="Emacron" unicode="&#x112;" 
d="M270 796l5 27h285l-5 -27h-285zM594 710l-5 -28h-358l-53 -304h340l-4 -28h-341l-57 -322h364l-4 -28h-397l125 710h390z" />
    <glyph glyph-name="emacron" unicode="&#x113;" 
d="M522 634l-5 -26h-288l5 26h288zM514 252h-386q-4 -25 -4 -58q0 -84 43 -131.5t120 -47.5q130 0 179 140l26 -7q-54 -160 -208 -160q-90 0 -140 55t-50 159q0 82 28.5 151.5t87.5 114t136 44.5q79 0 128 -45t49 -131q0 -34 -9 -84zM347 487q-83 0 -139.5 -57.5
t-75.5 -151.5h357q6 25 6 54q0 81 -42 118t-106 37z" />
    <glyph glyph-name="Ebreve" unicode="&#x114;" 
d="M313 884q-4 -41 24 -65.5t74 -24.5q44 0 79.5 24.5t48.5 65.5h30q-37 -113 -162 -113q-54 0 -90.5 28t-32.5 85h29zM594 710l-5 -28h-358l-53 -304h340l-4 -28h-341l-57 -322h364l-4 -28h-397l125 710h390z" />
    <glyph glyph-name="ebreve" unicode="&#x115;" 
d="M372 575q-138 0 -133 145h26q-1 -63 25 -93t83 -30q48 0 84 34.5t43 88.5h26q-13 -74 -56 -109.5t-98 -35.5zM346 512q79 0 128 -45t49 -131q0 -34 -9 -84h-386q-4 -25 -4 -58q0 -84 43 -131.5t120 -47.5q130 0 179 140l26 -7q-54 -160 -208 -160q-90 0 -140 55t-50 159
q0 82 28.5 151.5t87.5 114t136 44.5zM489 278q6 25 6 54q0 81 -42 118t-106 37q-83 0 -139.5 -57.5t-75.5 -151.5h357z" />
    <glyph glyph-name="Edotaccent" unicode="&#x116;" 
d="M454 884l-19 -108h-54l19 108h54zM594 710l-5 -28h-358l-53 -304h340l-4 -28h-341l-57 -322h364l-4 -28h-397l125 710h390z" />
    <glyph glyph-name="edotaccent" unicode="&#x117;" 
d="M419 725l-22 -124h-52l21 124h53zM514 252h-386q-4 -25 -4 -58q0 -84 43 -131.5t120 -47.5q130 0 179 140l26 -7q-54 -160 -208 -160q-90 0 -140 55t-50 159q0 82 28.5 151.5t87.5 114t136 44.5q79 0 128 -45t49 -131q0 -34 -9 -84zM347 487q-83 0 -139.5 -57.5
t-75.5 -151.5h357q6 25 6 54q0 81 -42 118t-106 37z" />
    <glyph glyph-name="Eogonek" unicode="&#x118;" 
d="M589 682h-358l-53 -304h340l-4 -28h-341l-57 -322h364l-4 -28q-146 -36 -146 -125q0 -28 14.5 -41.5t37.5 -13.5q26 0 45 18.5t23 50.5l24 -4q-8 -44 -34.5 -66t-61.5 -22q-32 0 -54 18t-22 55q0 91 126 130h-349l125 710h390z" />
    <glyph glyph-name="eogonek" unicode="&#x119;" 
d="M514 252h-386q-4 -25 -4 -58q0 -84 43 -131.5t120 -47.5q130 0 179 140l26 -7q-38 -115 -131 -148h2q-146 -36 -146 -125q0 -28 14.5 -41.5t37.5 -13.5q26 0 45 18.5t23 50.5l24 -4q-8 -44 -34.5 -66t-61.5 -22q-32 0 -54 18t-22 55q0 77 94 118q-90 1 -139.5 55.5
t-49.5 158.5q0 82 28.5 151.5t87.5 114t136 44.5q79 0 128 -45t49 -131q0 -34 -9 -84zM347 487q-83 0 -139.5 -57.5t-75.5 -151.5h357q6 25 6 54q0 81 -42 118t-106 37z" />
    <glyph glyph-name="Ecaron" unicode="&#x11a;" 
d="M305 884h35l72 -85l103 85h36l-128 -108h-28zM594 710l-5 -28h-358l-53 -304h340l-4 -28h-341l-57 -322h364l-4 -28h-397l125 710h390z" />
    <glyph glyph-name="ecaron" unicode="&#x11b;" 
d="M414 580h-26l-89 140h29l75 -116l116 116h34zM346 512q79 0 128 -45t49 -131q0 -34 -9 -84h-386q-4 -25 -4 -58q0 -84 43 -131.5t120 -47.5q130 0 179 140l26 -7q-54 -160 -208 -160q-90 0 -140 55t-50 159q0 82 28.5 151.5t87.5 114t136 44.5zM489 278q6 25 6 54
q0 81 -42 118t-106 37q-83 0 -139.5 -57.5t-75.5 -151.5h357z" />
    <glyph glyph-name="Gcircumflex" unicode="&#x11c;" 
d="M518 776h-35l-72 85l-103 -85h-36l128 108h28zM272 -17q-118 0 -163 88.5t-20 236.5l23 134q48 285 270 285q109 0 155.5 -63t34.5 -159l-32 -2q10 87 -30 141.5t-132 54.5q-94 0 -153 -62t-82 -203l-22 -130q-48 -292 160 -292q170 0 226 280l8 39h-201l5 28h232
l-64 -359h-25l24 161q-27 -86 -83.5 -132t-130.5 -46z" />
    <glyph glyph-name="gcircumflex" unicode="&#x11d;" 
d="M411 697l-116 -107h-33l139 130h25l89 -130h-28zM576 566h19l-5 -28q-5 1 -18 1q-79 0 -110 -70q45 -42 45 -113q0 -77 -51.5 -125.5t-134.5 -48.5q-61 0 -103 28q-34 -4 -57.5 -26t-23.5 -53q0 -27 19 -46t57 -19h137q68 0 106 -33t38 -87q0 -68 -59 -110.5t-175 -42.5
q-105 0 -159.5 35t-54.5 95q0 50 33.5 81.5t81.5 42.5q-54 20 -54 78q0 36 26.5 61.5t69.5 34.5q-49 43 -49 117q0 77 51.5 125.5t134.5 48.5q63 0 106 -30q19 40 55 62t75 22zM478 355q0 61 -38.5 96.5t-101.5 35.5q-69 0 -112 -40.5t-43 -107.5q0 -61 38.5 -96.5
t101.5 -35.5q69 0 112 40.5t43 107.5zM346 39h-137q-10 0 -26 2q-105 -27 -105 -109q0 -52 46 -82.5t141 -30.5q101 0 150 34t49 90q0 47 -32.5 71.5t-85.5 24.5z" />
    <glyph glyph-name="Gbreve" unicode="&#x11e;" 
d="M300 884q-4 -41 24 -65.5t74 -24.5q44 0 79.5 24.5t48.5 65.5h30q-37 -113 -162 -113q-54 0 -90.5 28t-32.5 85h29zM272 -17q-118 0 -163 88.5t-20 236.5l23 134q48 285 270 285q109 0 155.5 -63t34.5 -159l-32 -2q10 87 -30 141.5t-132 54.5q-94 0 -153 -62t-82 -203
l-22 -130q-48 -292 160 -292q170 0 226 280l8 39h-201l5 28h232l-64 -359h-25l24 161q-27 -86 -83.5 -132t-130.5 -46z" />
    <glyph glyph-name="gbreve" unicode="&#x11f;" 
d="M380 575q-138 0 -133 145h26q-1 -63 25 -93t83 -30q48 0 84 34.5t43 88.5h26q-13 -74 -56 -109.5t-98 -35.5zM576 566h19l-5 -28q-5 1 -18 1q-79 0 -110 -70q45 -42 45 -113q0 -77 -51.5 -125.5t-134.5 -48.5q-61 0 -103 28q-34 -4 -57.5 -26t-23.5 -53q0 -27 19 -46
t57 -19h137q68 0 106 -33t38 -87q0 -68 -59 -110.5t-175 -42.5q-105 0 -159.5 35t-54.5 95q0 50 33.5 81.5t81.5 42.5q-54 20 -54 78q0 36 26.5 61.5t69.5 34.5q-49 43 -49 117q0 77 51.5 125.5t134.5 48.5q63 0 106 -30q19 40 55 62t75 22zM478 355q0 61 -38.5 96.5
t-101.5 35.5q-69 0 -112 -40.5t-43 -107.5q0 -61 38.5 -96.5t101.5 -35.5q69 0 112 40.5t43 107.5zM346 39h-137q-10 0 -26 2q-105 -27 -105 -109q0 -52 46 -82.5t141 -30.5q101 0 150 34t49 90q0 47 -32.5 71.5t-85.5 24.5z" />
    <glyph glyph-name="Gdotaccent" unicode="&#x120;" 
d="M441 884l-19 -108h-54l19 108h54zM272 -17q-118 0 -163 88.5t-20 236.5l23 134q48 285 270 285q109 0 155.5 -63t34.5 -159l-32 -2q10 87 -30 141.5t-132 54.5q-94 0 -153 -62t-82 -203l-22 -130q-48 -292 160 -292q170 0 226 280l8 39h-201l5 28h232l-64 -359h-25
l24 161q-27 -86 -83.5 -132t-130.5 -46z" />
    <glyph glyph-name="gdotaccent" unicode="&#x121;" 
d="M427 725l-22 -124h-52l21 124h53zM576 566h19l-5 -28q-5 1 -18 1q-79 0 -110 -70q45 -42 45 -113q0 -77 -51.5 -125.5t-134.5 -48.5q-61 0 -103 28q-34 -4 -57.5 -26t-23.5 -53q0 -27 19 -46t57 -19h137q68 0 106 -33t38 -87q0 -68 -59 -110.5t-175 -42.5
q-105 0 -159.5 35t-54.5 95q0 50 33.5 81.5t81.5 42.5q-54 20 -54 78q0 36 26.5 61.5t69.5 34.5q-49 43 -49 117q0 77 51.5 125.5t134.5 48.5q63 0 106 -30q19 40 55 62t75 22zM478 355q0 61 -38.5 96.5t-101.5 35.5q-69 0 -112 -40.5t-43 -107.5q0 -61 38.5 -96.5
t101.5 -35.5q69 0 112 40.5t43 107.5zM346 39h-137q-10 0 -26 2q-105 -27 -105 -109q0 -52 46 -82.5t141 -30.5q101 0 150 34t49 90q0 47 -32.5 71.5t-85.5 24.5z" />
    <glyph glyph-name="Gcommaaccent" unicode="&#x122;" 
d="M272 -17q-118 0 -163 88.5t-20 236.5l23 134q48 285 270 285q109 0 155.5 -63t34.5 -159l-32 -2q10 87 -30 141.5t-132 54.5q-94 0 -153 -62t-82 -203l-22 -130q-48 -292 160 -292q170 0 226 280l8 39h-201l5 28h232l-64 -359h-25l24 161q-27 -86 -83.5 -132t-130.5 -46z
M243 -205l-12 12q27 17 33 54h-32l15 81h52l-9 -53q-13 -69 -47 -94z" />
    <glyph glyph-name="gcommaaccent" unicode="&#x123;" 
d="M425 684l-15 -81h-52l9 53q13 69 47 94l12 -12q-27 -17 -33 -54h32zM576 566h19l-5 -28q-5 1 -18 1q-79 0 -110 -70q45 -42 45 -113q0 -77 -51.5 -125.5t-134.5 -48.5q-61 0 -103 28q-34 -4 -57.5 -26t-23.5 -53q0 -27 19 -46t57 -19h137q68 0 106 -33t38 -87
q0 -68 -59 -110.5t-175 -42.5q-105 0 -159.5 35t-54.5 95q0 50 33.5 81.5t81.5 42.5q-54 20 -54 78q0 36 26.5 61.5t69.5 34.5q-49 43 -49 117q0 77 51.5 125.5t134.5 48.5q63 0 106 -30q19 40 55 62t75 22zM478 355q0 61 -38.5 96.5t-101.5 35.5q-69 0 -112 -40.5
t-43 -107.5q0 -61 38.5 -96.5t101.5 -35.5q69 0 112 40.5t43 107.5zM346 39h-137q-10 0 -26 2q-105 -27 -105 -109q0 -52 46 -82.5t141 -30.5q101 0 150 34t49 90q0 47 -32.5 71.5t-85.5 24.5z" />
    <glyph glyph-name="Hcircumflex" unicode="&#x124;" 
d="M521 776h-35l-72 85l-103 -85h-36l128 108h28zM600 710l-125 -710h-32l62 350h-355l-62 -350h-32l125 710h32l-58 -332h355l58 332h32z" />
    <glyph glyph-name="hcircumflex" unicode="&#x125;" 
d="M342 776h-35l-72 85l-103 -85h-36l128 108h28zM166 363q29 73 81.5 111t122.5 38q79 0 118 -45q46 -51 26 -167l-53 -300h-30l54 303q17 99 -19.5 140.5t-103.5 41.5q-86 0 -141.5 -62t-72.5 -158l-46 -265h-30l128 725h30z" />
    <glyph glyph-name="Hbar" unicode="&#x126;" 
d="M651 565l-4 -25h-77l-95 -540h-32l62 350h-355l-62 -350h-32l95 540h-80l5 25h79l26 145h32l-25 -145h355l25 145h32l-26 -145h77zM510 378l28 162h-355l-28 -162h355z" />
    <glyph glyph-name="hbar" unicode="&#x127;" 
d="M488 467q46 -51 26 -167l-53 -300h-30l54 303q17 99 -19.5 140.5t-103.5 41.5q-86 0 -141.5 -62t-72.5 -158l-46 -265h-30l104 587h-116l4 22h116l20 116h30l-21 -116h214l-4 -22h-213l-40 -224q29 73 81.5 111t122.5 38q79 0 118 -45z" />
    <glyph glyph-name="Itilde" unicode="&#x128;" 
d="M369 857q-60 0 -74 -71l-25 2q10 49 37.5 71.5t60.5 22.5q26 0 49.5 -11.5t37.5 -26t34 -26t41 -11.5q61 0 74 77l25 -2q-19 -100 -99 -100q-39 0 -83.5 37.5t-77.5 37.5zM599 710l-4 -27h-193l-115 -656h192l-5 -27h-416l5 27h192l115 656h-192l5 27h416z" />
    <glyph glyph-name="itilde" unicode="&#x129;" 
d="M306 699q34 0 61.5 -19t52 -38t50.5 -19q62 0 75 77l25 -1q-10 -55 -37.5 -78.5t-62.5 -23.5q-39 0 -84.5 38t-78.5 38q-61 0 -75 -72l-24 2q10 50 37.5 73t60.5 23zM92 0l4 27h175l79 446h-164l5 27h194l-84 -473h184l-4 -27h-389z" />
    <glyph glyph-name="Imacron" unicode="&#x12a;" 
d="M550 823l-5 -27h-285l5 27h285zM595 683h-193l-115 -656h192l-5 -27h-416l5 27h192l115 656h-192l5 27h416z" />
    <glyph glyph-name="imacron" unicode="&#x12b;" 
d="M238 608l5 26h288l-5 -26h-288zM92 0l4 27h175l79 446h-164l5 27h194l-84 -473h184l-4 -27h-389z" />
    <glyph glyph-name="Ibreve" unicode="&#x12c;" 
d="M397 771q-54 0 -90.5 28t-32.5 85h29q-4 -41 24 -65.5t74 -24.5q44 0 79.5 24.5t48.5 65.5h30q-37 -113 -162 -113zM595 683h-193l-115 -656h192l-5 -27h-416l5 27h192l115 656h-192l5 27h416z" />
    <glyph glyph-name="ibreve" unicode="&#x12d;" 
d="M274 720q-1 -63 25 -93t83 -30q48 0 84 34.5t43 88.5h26q-13 -74 -56 -109.5t-98 -35.5q-138 0 -133 145h26zM92 0l4 27h175l79 446h-164l5 27h194l-84 -473h184l-4 -27h-389z" />
    <glyph glyph-name="Iogonek" unicode="&#x12e;" 
d="M595 683h-193l-115 -656h192l-5 -27q-146 -36 -146 -125q0 -28 14.5 -41.5t37.5 -13.5q26 0 45 18.5t23 50.5l24 -4q-8 -44 -34.5 -66t-61.5 -22q-32 0 -54 18t-22 55q0 91 126 130h-368l5 27h192l115 656h-192l5 27h416z" />
    <glyph glyph-name="iogonek" unicode="&#x12f;" 
d="M428 725l-22 -124h-52l21 124h53zM481 0q-146 -36 -146 -125q0 -28 14.5 -41.5t37.5 -13.5q26 0 45 18.5t23 50.5l24 -4q-8 -44 -34.5 -66t-61.5 -22q-32 0 -54 18t-22 55q0 91 126 130h-341l4 27h175l79 446h-164l5 27h194l-84 -473h184z" />
    <glyph glyph-name="Idotaccent" unicode="&#x130;" 
d="M444 884l-19 -108h-54l19 108h54zM595 683h-193l-115 -656h192l-5 -27h-416l5 27h192l115 656h-192l5 27h416z" />
    <glyph glyph-name="dotlessi" unicode="&#x131;" 
d="M92 0l4 27h175l79 446h-164l5 27h194l-84 -473h184l-4 -27h-389z" />
    <glyph glyph-name="IJ" unicode="&#x132;" 
d="M273 710l-125 -710h-32l125 710h32zM231 5l6 30q31 -12 89 -12q77 0 122 28.5t61 116.5l96 542h32l-96 -542q-17 -98 -71 -136.5t-146 -38.5q-61 0 -93 12z" />
    <glyph glyph-name="ij" unicode="&#x133;" 
d="M196 601l22 124h52l-22 -124h-52zM496 601l22 124h52l-22 -124h-52zM101 0l88 500h30l-88 -500h-30zM261 -202q-46 0 -85 15l5 27q61 -14 79 -14q110 0 131 113l99 561h29l-99 -565q-13 -68 -56.5 -102.5t-102.5 -34.5z" />
    <glyph glyph-name="Jcircumflex" unicode="&#x134;" 
d="M698 776h-35l-72 85l-103 -85h-36l128 108h28zM584 710l-86 -497q-22 -127 -81 -178.5t-146 -51.5q-117 0 -160.5 63t-31.5 192l33 5q-11 -123 25.5 -177t135.5 -54q158 0 193 206l86 492h32z" />
    <glyph glyph-name="jcircumflex" unicode="&#x135;" 
d="M542 580h-29l-75 116l-116 -116h-34l139 140h26zM38 -177l5 27q53 -24 114 -24q58 0 92 25.5t45 89.5l94 532h-190l4 27h220l-99 -563q-26 -139 -166 -139q-73 0 -119 25z" />
    <glyph glyph-name="Kcommaaccent" unicode="&#x136;" 
d="M607 710l-276 -271l164 -439h-37l-153 416l-172 -169l-44 -247h-32l125 710h32l-73 -417l427 417h39zM192 -139l15 81h52l-9 -53q-13 -69 -47 -94l-12 12q27 17 33 54h-32z" />
    <glyph glyph-name="kcommaaccent" unicode="&#x137;" 
d="M554 500l-224 -181l152 -319h-35l-142 299l-164 -133l-29 -166h-30l128 725h30l-92 -519l363 294h43zM217 -139l15 81h52l-9 -53q-13 -69 -47 -94l-12 12q27 17 33 54h-32z" />
    <glyph glyph-name="kgreenlandic" unicode="&#x138;" 
d="M554 500l-225 -180l153 -320h-36l-142 300l-162 -130l-30 -170h-30l88 500h30l-51 -290l362 290h43z" />
    <glyph glyph-name="Lacute" unicode="&#x139;" 
d="M232 776l107 108h40l-114 -108h-33zM223 710h32l-120 -682h374l-5 -28h-406z" />
    <glyph glyph-name="lacute" unicode="&#x13a;" 
d="M400 776l107 108h40l-114 -108h-33zM88 0l4 27h181l119 671h-161l5 27h191l-124 -698h178l-4 -27h-389z" />
    <glyph glyph-name="Lcommaaccent" unicode="&#x13b;" 
d="M386 576l-10 15q25 25 36 85h-18l9 49h36l-9 -52q-13 -68 -44 -97zM223 710h32l-120 -682h374l-5 -28h-406z" />
    <glyph glyph-name="lcommaaccent" unicode="&#x13c;" 
d="M88 0l4 27h181l119 671h-161l5 27h191l-124 -698h178l-4 -27h-389zM248 -205l-12 12q27 17 33 54h-32l15 81h52l-9 -53q-13 -69 -47 -94z" />
    <glyph glyph-name="Lcaron" unicode="&#x13d;" 
d="M223 710h32l-120 -682h374l-5 -28h-406zM208 -205l-12 12q27 17 33 54h-32l15 81h52l-9 -53q-13 -69 -47 -94z" />
    <glyph glyph-name="lcaron" unicode="&#x13e;" 
d="M88 0l4 27h181l119 671h-161l5 27h191l-124 -698h178l-4 -27h-389zM507 576l-10 15q25 25 36 85h-18l9 49h36l-9 -52q-13 -68 -44 -97z" />
    <glyph glyph-name="Ldot" unicode="&#x13f;" 
d="M223 710h32l-120 -682h374l-5 -28h-406zM475 500l-19 -106h-97l19 106h97z" />
    <glyph glyph-name="ldot" unicode="&#x140;" 
d="M88 0l4 27h181l119 671h-161l5 27h191l-124 -698h178l-4 -27h-389zM554 407l-19 -106h-49l19 106h49z" />
    <glyph glyph-name="Lslash" unicode="&#x141;" 
d="M135 28h374l-5 -28h-406l56 317l-100 -56l6 32l99 56l64 361h32l-60 -341l234 132l-6 -32l-234 -132z" />
    <glyph glyph-name="lslash" unicode="&#x142;" 
d="M516 455l-153 -92l-60 -336h178l-4 -27h-389l4 27h181l56 316l-122 -73l5 32l123 73l57 323h-161l5 27h191l-59 -330l154 92z" />
    <glyph glyph-name="Nacute" unicode="&#x143;" 
d="M331 776l107 108h40l-114 -108h-33zM437 96q5 -16 13 -49h3l9 63l106 600h32l-126 -710h-39l-214 622q-11 35 -14 53h-1q-3 -28 -9 -60l-109 -615h-32l126 710h43z" />
    <glyph glyph-name="nacute" unicode="&#x144;" 
d="M371 580l140 140h38l-147 -140h-31zM165 363q29 72 82 110.5t123 38.5q79 0 118 -45q33 -36 33 -100q0 -25 -7 -67l-53 -300h-30l54 303q4 29 4 54q0 128 -127 128q-81 0 -138.5 -59t-75.5 -161l-46 -265h-30l88 500h29z" />
    <glyph glyph-name="Ncommaaccent" unicode="&#x145;" 
d="M437 96q5 -16 13 -49h3l9 63l106 600h32l-126 -710h-39l-214 622q-11 35 -14 53h-1q-3 -28 -9 -60l-109 -615h-32l126 710h43zM203 -205l-12 12q27 17 33 54h-32l15 81h52l-9 -53q-13 -69 -47 -94z" />
    <glyph glyph-name="ncommaaccent" unicode="&#x146;" 
d="M165 363q29 72 82 110.5t123 38.5q79 0 118 -45q33 -36 33 -100q0 -25 -7 -67l-53 -300h-30l54 303q4 29 4 54q0 128 -127 128q-81 0 -138.5 -59t-75.5 -161l-46 -265h-30l88 500h29zM203 -205l-12 12q27 17 33 54h-32l15 81h52l-9 -53q-13 -69 -47 -94z" />
    <glyph glyph-name="Ncaron" unicode="&#x147;" 
d="M242 884h35l72 -85l103 85h36l-128 -108h-28zM437 96q5 -16 13 -49h3l9 63l106 600h32l-126 -710h-39l-214 622q-11 35 -14 53h-1q-3 -28 -9 -60l-109 -615h-32l126 710h43z" />
    <glyph glyph-name="ncaron" unicode="&#x148;" 
d="M307 720h29l75 -116l116 116h34l-139 -140h-26zM165 363q29 72 82 110.5t123 38.5q79 0 118 -45q33 -36 33 -100q0 -25 -7 -67l-53 -300h-30l54 303q4 29 4 54q0 128 -127 128q-81 0 -138.5 -59t-75.5 -161l-46 -265h-30l88 500h29z" />
    <glyph glyph-name="napostrophe" unicode="&#x149;" 
d="M165 363q29 72 82 110.5t123 38.5q79 0 118 -45q33 -36 33 -100q0 -25 -7 -67l-53 -300h-30l54 303q4 29 4 54q0 128 -127 128q-81 0 -138.5 -59t-75.5 -161l-46 -265h-30l88 500h29zM203 -205l-12 12q27 17 33 54h-32l15 81h52l-9 -53q-13 -69 -47 -94z" />
    <glyph glyph-name="Eng" unicode="&#x14a;" 
d="M219 -195l5 30q35 -8 75 -8q49 0 81.5 31.5t48.5 126.5v3l-199 634q-9 28 -13 53h-1q-3 -28 -9 -60l-109 -615h-32l126 710h44l193 -614q9 -29 12 -54h2q2 11 5 35t5 33l106 600h32l-130 -730q-18 -104 -61.5 -143t-109.5 -39q-41 0 -71 7z" />
    <glyph glyph-name="eng" unicode="&#x14b;" 
d="M488 467q33 -36 33 -100q0 -25 -7 -67l-53 -300l-14 -81q-10 -58 -45.5 -89.5t-86.5 -31.5q-34 0 -48 6l4 26q23 -5 41 -5q88 0 105 93l14 82l54 303q4 29 4 54q0 128 -127 128q-81 0 -138.5 -59t-75.5 -161l-46 -265h-30l88 500h29l-24 -137q29 72 82 110.5t123 38.5
q79 0 118 -45z" />
    <glyph glyph-name="Omacron" unicode="&#x14c;" 
d="M248 796l5 27h285l-5 -27h-285zM281 -17q-124 0 -172 88.5t-20 240.5l21 118q27 148 92 222.5t174 74.5q123 0 171.5 -88.5t21.5 -240.5l-22 -118q-27 -148 -92 -222.5t-174 -74.5zM282 11q183 0 233 270l22 119q25 139 -16 219t-146 80q-182 0 -233 -270l-22 -118
q-25 -139 16 -219.5t146 -80.5z" />
    <glyph glyph-name="omacron" unicode="&#x14d;" 
d="M212 608l5 26h288l-5 -26h-288zM282 -12q-93 0 -145 54.5t-52 150.5q0 141 69 230t183 89q94 0 146.5 -54t52.5 -150q0 -141 -69 -230.5t-185 -89.5zM282 15q102 0 162 81t60 212q0 83 -44 130.5t-123 47.5q-100 0 -160.5 -81.5t-60.5 -211.5q0 -84 43.5 -131t122.5 -47z
" />
    <glyph glyph-name="Obreve" unicode="&#x14e;" 
d="M291 884q-4 -41 24 -65.5t74 -24.5q44 0 79.5 24.5t48.5 65.5h30q-37 -113 -162 -113q-54 0 -90.5 28t-32.5 85h29zM281 -17q-124 0 -172 88.5t-20 240.5l21 118q27 148 92 222.5t174 74.5q123 0 171.5 -88.5t21.5 -240.5l-22 -118q-27 -148 -92 -222.5t-174 -74.5z
M282 11q183 0 233 270l22 119q25 139 -16 219t-146 80q-182 0 -233 -270l-22 -118q-25 -139 16 -219.5t146 -80.5z" />
    <glyph glyph-name="obreve" unicode="&#x14f;" 
d="M248 720q-1 -63 25 -93t83 -30q48 0 84 34.5t43 88.5h26q-13 -74 -56 -109.5t-98 -35.5q-138 0 -133 145h26zM282 -12q-93 0 -145 54.5t-52 150.5q0 141 69 230t183 89q94 0 146.5 -54t52.5 -150q0 -141 -69 -230.5t-185 -89.5zM282 15q102 0 162 81t60 212
q0 83 -44 130.5t-123 47.5q-100 0 -160.5 -81.5t-60.5 -211.5q0 -84 43.5 -131t122.5 -47z" />
    <glyph glyph-name="Ohungarumlaut" unicode="&#x150;" 
d="M312 776l72 108h34l-75 -108h-31zM432 776l73 108h33l-75 -108h-31zM281 -17q-124 0 -172 88.5t-20 240.5l21 118q27 148 92 222.5t174 74.5q123 0 171.5 -88.5t21.5 -240.5l-22 -118q-27 -148 -92 -222.5t-174 -74.5zM282 11q183 0 233 270l22 119q25 139 -16 219
t-146 80q-182 0 -233 -270l-22 -118q-25 -139 16 -219.5t146 -80.5z" />
    <glyph glyph-name="ohungarumlaut" unicode="&#x151;" 
d="M275 580l107 140h32l-109 -140h-30zM390 580l107 140h33l-110 -140h-30zM282 -12q-93 0 -145 54.5t-52 150.5q0 141 69 230t183 89q94 0 146.5 -54t52.5 -150q0 -141 -69 -230.5t-185 -89.5zM282 15q102 0 162 81t60 212q0 83 -44 130.5t-123 47.5q-100 0 -160.5 -81.5
t-60.5 -211.5q0 -84 43.5 -131t122.5 -47z" />
    <glyph glyph-name="OE" unicode="&#x152;" 
d="M670 682h-229l-54 -304h213l-5 -28h-212l-58 -322h237l-5 -28h-305q-98 0 -147 81q-45 74 -19 217l24 135q28 165 101 231q53 46 159 46h305zM294 28l115 654h-50q-94 0 -141 -51q-51 -56 -77 -198l-23 -135q-24 -132 14 -197q40 -73 120 -73h42z" />
    <glyph glyph-name="oe" unicode="&#x153;" 
d="M468 512q117 0 117 -134q0 -30 -6 -64l-9 -50h-244l-19 -109q-3 -16 -3 -31q0 -49 28 -79.5t72 -30.5q97 0 119 143l1 7l29 -3l-2 -7q-22 -166 -151 -166q-47 0 -77.5 26.5t-39.5 71.5q-41 -98 -131 -98q-54 0 -86.5 32t-32.5 99q0 26 6 59l28 160q31 174 161 174
q97 0 108 -101q41 101 132 101zM550 319q6 30 6 56q0 111 -93 111q-46 0 -79 -39t-47 -120l-7 -40h214zM155 14q49 0 80 37.5t47 126.5l25 142q5 37 5 60q0 105 -88 105q-101 0 -127 -146l-28 -160q-6 -31 -6 -57q0 -108 92 -108z" />
    <glyph glyph-name="Racute" unicode="&#x154;" 
d="M478 884l-114 -108h-33l107 108h40zM581 538q0 -87 -56.5 -145t-154.5 -67l129 -326h-37l-128 325h-184l-58 -325h-32l125 710h205q89 0 140 -45t51 -127zM341 352q94 0 150 51t56 132q0 69 -42.5 108t-116.5 39h-175l-59 -330h187z" />
    <glyph glyph-name="racute" unicode="&#x155;" 
d="M356 580l140 140h38l-147 -140h-31zM208 305q24 60 57 102.5t69 63.5t68 30t64 9q59 0 88 -18l-5 -27q-31 18 -92 18q-95 0 -170.5 -82t-99.5 -219l-33 -182h-30l88 500h30z" />
    <glyph glyph-name="Rcommaaccent" unicode="&#x156;" 
d="M581 538q0 -87 -56.5 -145t-154.5 -67l129 -326h-37l-128 325h-184l-58 -325h-32l125 710h205q89 0 140 -45t51 -127zM341 352q94 0 150 51t56 132q0 69 -42.5 108t-116.5 39h-175l-59 -330h187zM192 -139l15 81h52l-9 -53q-13 -69 -47 -94l-12 12q27 17 33 54h-32z" />
    <glyph glyph-name="rcommaaccent" unicode="&#x157;" 
d="M208 305q24 60 57 102.5t69 63.5t68 30t64 9q59 0 88 -18l-5 -27q-31 18 -92 18q-95 0 -170.5 -82t-99.5 -219l-33 -182h-30l88 500h30zM105 -205l-12 12q27 17 33 54h-32l15 81h52l-9 -53q-13 -69 -47 -94z" />
    <glyph glyph-name="Rcaron" unicode="&#x158;" 
d="M360 776h-28l-90 108h35l72 -85l103 85h36zM581 538q0 -87 -56.5 -145t-154.5 -67l129 -326h-37l-128 325h-184l-58 -325h-32l125 710h205q89 0 140 -45t51 -127zM341 352q94 0 150 51t56 132q0 69 -42.5 108t-116.5 39h-175l-59 -330h187z" />
    <glyph glyph-name="rcaron" unicode="&#x159;" 
d="M292 720h29l75 -116l116 116h34l-139 -140h-26zM208 305q24 60 57 102.5t69 63.5t68 30t64 9q59 0 88 -18l-5 -27q-31 18 -92 18q-95 0 -170.5 -82t-99.5 -219l-33 -182h-30l88 500h30z" />
    <glyph glyph-name="Sacute" unicode="&#x15a;" 
d="M331 776l107 108h40l-114 -108h-33zM309 -17q-112 0 -174.5 65t-63.5 168l31 3q2 -88 56.5 -148t152.5 -60t141 46t43 119q0 59 -29 93.5t-94 62.5l-98 41q-125 52 -125 163q0 88 55 139.5t153 51.5q101 0 157.5 -58t58.5 -158l-31 -4q-4 92 -52.5 142t-133.5 50
q-82 0 -127.5 -44.5t-45.5 -116.5q0 -48 26 -80.5t84 -57.5l104 -45q65 -27 98 -68t33 -109q0 -91 -57 -143t-162 -52z" />
    <glyph glyph-name="sacute" unicode="&#x15b;" 
d="M343 580l140 140h38l-147 -140h-31zM297 -12q-90 0 -144 40.5t-58 114.5l30 3q5 -63 49 -97t124 -34q71 0 109.5 32.5t38.5 88.5q0 41 -21.5 65t-70.5 34l-90 19q-109 22 -109 116q0 69 50.5 105.5t123.5 36.5q85 0 132.5 -37.5t50.5 -103.5l-30 -3q-8 118 -153 118
q-64 0 -104 -29.5t-40 -85.5q0 -36 20.5 -58.5t73.5 -33.5l89 -18q109 -22 109 -123q0 -69 -48.5 -109.5t-131.5 -40.5z" />
    <glyph glyph-name="Scircumflex" unicode="&#x15c;" 
d="M468 776h-35l-72 85l-103 -85h-36l128 108h28zM309 -17q-112 0 -174.5 65t-63.5 168l31 3q2 -88 56.5 -148t152.5 -60t141 46t43 119q0 59 -29 93.5t-94 62.5l-98 41q-125 52 -125 163q0 88 55 139.5t153 51.5q101 0 157.5 -58t58.5 -158l-31 -4q-4 92 -52.5 142
t-133.5 50q-82 0 -127.5 -44.5t-45.5 -116.5q0 -48 26 -80.5t84 -57.5l104 -45q65 -27 98 -68t33 -109q0 -91 -57 -143t-162 -52z" />
    <glyph glyph-name="scircumflex" unicode="&#x15d;" 
d="M477 580h-29l-75 116l-116 -116h-34l139 140h26zM297 -12q-90 0 -144 40.5t-58 114.5l30 3q5 -63 49 -97t124 -34q71 0 109.5 32.5t38.5 88.5q0 41 -21.5 65t-70.5 34l-90 19q-109 22 -109 116q0 69 50.5 105.5t123.5 36.5q85 0 132.5 -37.5t50.5 -103.5l-30 -3
q-8 118 -153 118q-64 0 -104 -29.5t-40 -85.5q0 -36 20.5 -58.5t73.5 -33.5l89 -18q109 -22 109 -123q0 -69 -48.5 -109.5t-131.5 -40.5z" />
    <glyph glyph-name="Scedilla" unicode="&#x15e;" 
d="M356 699q-82 0 -127.5 -44.5t-45.5 -116.5q0 -48 26 -80.5t84 -57.5l104 -45q65 -27 98 -68t33 -109q0 -84 -49 -135.5t-141 -58.5l-46 -61q17 16 45 16q24 0 40 -18t16 -45q0 -36 -23.5 -57t-57.5 -21q-28 0 -49 15t-24 44l27 3q4 -41 44 -41q22 0 39 13.5t17 40.5
q0 21 -13 34t-30 13q-23 0 -45 -18l-18 7l54 74h-5q-112 0 -174.5 65t-63.5 168l31 3q2 -88 56.5 -148t152.5 -60t141 46t43 119q0 59 -29 93.5t-94 62.5l-98 41q-125 52 -125 163q0 88 55 139.5t153 51.5q101 0 157.5 -58t58.5 -158l-31 -4q-4 92 -52.5 142t-133.5 50z" />
    <glyph glyph-name="scedilla" unicode="&#x15f;" 
d="M329 486q-64 0 -104 -29.5t-40 -85.5q0 -36 20.5 -58.5t73.5 -33.5l89 -18q109 -22 109 -123q0 -68 -47 -108.5t-128 -41.5l-45 -60q17 16 45 16q24 0 40 -18t16 -45q0 -36 -23.5 -57t-57.5 -21q-28 0 -49 15t-24 44l27 3q4 -41 44 -41q22 0 39 13.5t17 40.5
q0 22 -12.5 34.5t-30.5 12.5q-23 0 -45 -18l-18 7l54 74q-82 5 -131 44.5t-53 110.5l30 3q5 -63 49 -97t124 -34q71 0 109.5 32.5t38.5 88.5q0 41 -21.5 65t-70.5 34l-90 19q-109 22 -109 116q0 69 50.5 105.5t123.5 36.5q85 0 132.5 -37.5t50.5 -103.5l-30 -3
q-8 118 -153 118z" />
    <glyph glyph-name="Scaron" unicode="&#x160;" 
d="M242 884h35l72 -85l103 85h36l-128 -108h-28zM309 -17q-112 0 -174.5 65t-63.5 168l31 3q2 -88 56.5 -148t152.5 -60t141 46t43 119q0 59 -29 93.5t-94 62.5l-98 41q-125 52 -125 163q0 88 55 139.5t153 51.5q101 0 157.5 -58t58.5 -158l-31 -4q-4 92 -52.5 142
t-133.5 50q-82 0 -127.5 -44.5t-45.5 -116.5q0 -48 26 -80.5t84 -57.5l104 -45q65 -27 98 -68t33 -109q0 -91 -57 -143t-162 -52z" />
    <glyph glyph-name="scaron" unicode="&#x161;" 
d="M279 720h29l75 -116l116 116h34l-139 -140h-26zM297 -12q-90 0 -144 40.5t-58 114.5l30 3q5 -63 49 -97t124 -34q71 0 109.5 32.5t38.5 88.5q0 41 -21.5 65t-70.5 34l-90 19q-109 22 -109 116q0 69 50.5 105.5t123.5 36.5q85 0 132.5 -37.5t50.5 -103.5l-30 -3
q-8 118 -153 118q-64 0 -104 -29.5t-40 -85.5q0 -36 20.5 -58.5t73.5 -33.5l89 -18q109 -22 109 -123q0 -69 -48.5 -109.5t-131.5 -40.5z" />
    <glyph glyph-name="uni0162" unicode="&#x162;" 
d="M137 710h507l-4 -28h-239l-120 -682h-3l-58 -77q17 16 45 16q24 0 40 -18t16 -45q0 -36 -23.5 -57t-57.5 -21q-28 0 -49 15t-24 44l27 3q4 -41 44 -41q22 0 39 13.5t17 40.5q0 21 -13 34t-30 13q-23 0 -45 -18l-18 7l66 91h-4l120 682h-238z" />
    <glyph glyph-name="uni0163" unicode="&#x163;" 
d="M316 474l-58 -325q-12 -66 17 -97.5t88 -31.5q41 0 76 13l-4 -27q-30 -14 -81 -14h-14l-53 -69q17 16 45 16q24 0 40 -18t16 -45q0 -36 -23.5 -57t-57.5 -21q-28 0 -49 15t-24 44l27 3q4 -41 44 -41q22 0 39 13.5t17 40.5q0 21 -12.5 34t-30.5 13q-23 0 -45 -18l-18 7
l63 86q-53 9 -77.5 47t-13.5 103l58 329h-150l5 26h149l24 136l33 14l-27 -150h204l-5 -26h-202z" />
    <glyph glyph-name="Tcaron" unicode="&#x164;" 
d="M295 884h35l72 -85l103 85h36l-128 -108h-28zM137 710h507l-4 -28h-239l-120 -682h-31l120 682h-238z" />
    <glyph glyph-name="tcaron" unicode="&#x165;" 
d="M466 576l-10 15q25 25 36 85h-18l9 49h36l-9 -52q-13 -68 -44 -97zM135 474l5 26h149l24 136l33 14l-27 -150h204l-5 -26h-202l-58 -325q-12 -66 17 -97.5t88 -31.5q41 0 76 13l-4 -27q-30 -14 -81 -14q-70 0 -105 39t-22 114l58 329h-150z" />
    <glyph glyph-name="Tbar" unicode="&#x166;" 
d="M640 682h-239l-43 -242h203l-4 -25h-203l-73 -415h-31l73 415h-189l4 25h189l43 242h-238l5 28h507z" />
    <glyph glyph-name="tbar" unicode="&#x167;" 
d="M518 474h-202l-33 -184h215l-5 -26h-214l-21 -115q-12 -66 17 -97.5t88 -31.5q41 0 76 13l-4 -27q-30 -14 -81 -14q-70 0 -105 39t-22 114l21 119h-138l5 26h138l32 184h-150l5 26h149l24 136l33 14l-27 -150h204z" />
    <glyph glyph-name="Utilde" unicode="&#x168;" 
d="M327 880q41 0 86 -38t75 -38q59 0 72 77l25 -2q-10 -54 -37 -77t-60 -23q-32 0 -58 19t-50 38t-52 19q-59 0 -73 -72l-24 2q10 49 37 72t59 23zM176 710h31l-85 -487q-17 -97 27 -154.5t134 -57.5q169 0 199 171l92 528h33l-93 -529q-16 -93 -74 -145.5t-158 -52.5
q-108 0 -160 65t-32 174z" />
    <glyph glyph-name="utilde" unicode="&#x169;" 
d="M282 699q34 0 61.5 -19t52 -38t50.5 -19q62 0 75 77l25 -1q-10 -55 -37.5 -78.5t-62.5 -23.5q-39 0 -84.5 38t-78.5 38q-61 0 -75 -72l-24 2q10 50 37.5 73t60.5 23zM441 127q-25 -61 -77 -100t-119 -39q-79 0 -120 48q-44 54 -26 162l54 302h30l-54 -304
q-7 -53 -1.5 -88t26.5 -55.5t46 -29t57 -8.5q79 0 132 61t68 143l49 281h30l-88 -500h-29z" />
    <glyph glyph-name="Umacron" unicode="&#x16a;" 
d="M260 796l5 27h285l-5 -27h-285zM176 710h31l-85 -487q-17 -97 27 -154.5t134 -57.5q169 0 199 171l92 528h33l-93 -529q-16 -93 -74 -145.5t-158 -52.5q-108 0 -160 65t-32 174z" />
    <glyph glyph-name="umacron" unicode="&#x16b;" 
d="M214 608l5 26h288l-5 -26h-288zM441 127q-25 -61 -77 -100t-119 -39q-79 0 -120 48q-44 54 -26 162l54 302h30l-54 -304q-7 -53 -1.5 -88t26.5 -55.5t46 -29t57 -8.5q79 0 132 61t68 143l49 281h30l-88 -500h-29z" />
    <glyph glyph-name="Ubreve" unicode="&#x16c;" 
d="M303 884q-4 -41 24 -65.5t74 -24.5q44 0 79.5 24.5t48.5 65.5h30q-37 -113 -162 -113q-54 0 -90.5 28t-32.5 85h29zM176 710h31l-85 -487q-17 -97 27 -154.5t134 -57.5q169 0 199 171l92 528h33l-93 -529q-16 -93 -74 -145.5t-158 -52.5q-108 0 -160 65t-32 174z" />
    <glyph glyph-name="ubreve" unicode="&#x16d;" 
d="M250 720q-1 -63 25 -93t83 -30q48 0 84 34.5t43 88.5h26q-13 -74 -56 -109.5t-98 -35.5q-138 0 -133 145h26zM441 127q-25 -61 -77 -100t-119 -39q-79 0 -120 48q-44 54 -26 162l54 302h30l-54 -304q-7 -53 -1.5 -88t26.5 -55.5t46 -29t57 -8.5q79 0 132 61t68 143
l49 281h30l-88 -500h-29z" />
    <glyph glyph-name="Uring" unicode="&#x16e;" 
d="M397 733q-36 0 -60 22.5t-24 55.5q0 48 28.5 76t75.5 28q36 0 60.5 -22.5t24.5 -55.5q0 -48 -28.5 -76t-76.5 -28zM400 755q38 0 57 21t19 58q0 25 -16.5 42t-44.5 17q-38 0 -57.5 -21.5t-19.5 -57.5q0 -25 16.5 -42t45.5 -17zM176 710h31l-85 -487q-17 -97 27 -154.5
t134 -57.5q169 0 199 171l92 528h33l-93 -529q-16 -93 -74 -145.5t-158 -52.5q-108 0 -160 65t-32 174z" />
    <glyph glyph-name="uring" unicode="&#x16f;" 
d="M461 670q0 -49 -28.5 -77.5t-77.5 -28.5q-37 0 -61 23t-24 57q0 47 29 76.5t76 29.5q37 0 61.5 -23.5t24.5 -56.5zM296 647q0 -26 16.5 -43t45.5 -17q38 0 58 21.5t20 58.5q0 25 -17 43t-46 18q-37 0 -57 -22t-20 -59zM441 127q-25 -61 -77 -100t-119 -39q-79 0 -120 48
q-44 54 -26 162l54 302h30l-54 -304q-7 -53 -1.5 -88t26.5 -55.5t46 -29t57 -8.5q79 0 132 61t68 143l49 281h30l-88 -500h-29z" />
    <glyph glyph-name="Uhungarumlaut" unicode="&#x170;" 
d="M324 776l72 108h34l-75 -108h-31zM444 776l73 108h33l-75 -108h-31zM176 710h31l-85 -487q-17 -97 27 -154.5t134 -57.5q169 0 199 171l92 528h33l-93 -529q-16 -93 -74 -145.5t-158 -52.5q-108 0 -160 65t-32 174z" />
    <glyph glyph-name="uhungarumlaut" unicode="&#x171;" 
d="M277 580l107 140h32l-109 -140h-30zM392 580l107 140h33l-110 -140h-30zM441 127q-25 -61 -77 -100t-119 -39q-79 0 -120 48q-44 54 -26 162l54 302h30l-54 -304q-7 -53 -1.5 -88t26.5 -55.5t46 -29t57 -8.5q79 0 132 61t68 143l49 281h30l-88 -500h-29z" />
    <glyph glyph-name="Uogonek" unicode="&#x172;" 
d="M574 710h33l-93 -529q-29 -165 -173 -192q-107 -38 -107 -114q0 -28 14.5 -41.5t37.5 -13.5q26 0 45 18.5t23 50.5l24 -4q-8 -44 -34.5 -66t-61.5 -22q-32 0 -54 18t-22 55q0 73 83 113h-7q-108 0 -160 65t-32 174l86 488h31l-85 -487q-17 -97 27 -154.5t134 -57.5
q169 0 199 171z" />
    <glyph glyph-name="uogonek" unicode="&#x173;" 
d="M448 0q-146 -36 -146 -125q0 -28 14.5 -41.5t37.5 -13.5q26 0 45 18.5t23 50.5l24 -4q-8 -44 -34.5 -66t-61.5 -22q-32 0 -54 18t-22 55q0 43 34.5 79t111.5 56l21 122q-25 -61 -77 -100t-119 -39q-79 0 -120 48q-44 54 -26 162l54 302h30l-54 -304q-7 -53 -1.5 -88
t26.5 -55.5t46 -29t57 -8.5q79 0 132 61t68 143l49 281h30z" />
    <glyph glyph-name="Wcircumflex" unicode="&#x174;" 
d="M521 776h-35l-72 85l-103 -85h-36l128 108h28zM100 0l28 710h30l-25 -590q-2 -47 -6 -90h3q13 39 37 96l181 422h30l34 -423q5 -70 5 -94h2q7 32 26 96l177 583h32l-219 -710h-40l-32 421q-3 38 -3 94h-3q-12 -40 -32 -86l-183 -429h-42z" />
    <glyph glyph-name="wcircumflex" unicode="&#x175;" 
d="M492 580h-29l-75 116l-116 -116h-34l139 140h26zM83 500h30l23 -398l3 -61h4q13 42 24 63l171 396h27l33 -396q2 -38 2 -63h4q6 23 23 61l168 398h29l-213 -500h-31l-32 403q0 9 -0.5 28t-1.5 27h-2q-13 -35 -22 -55l-174 -403h-32z" />
    <glyph glyph-name="Ycircumflex" unicode="&#x176;" 
d="M521 776h-35l-72 85l-103 -85h-36l128 108h28zM335 291l-52 -291h-32l52 291l-166 419h35l150 -387l285 387h38z" />
    <glyph glyph-name="ycircumflex" unicode="&#x177;" 
d="M491 580h-29l-75 116l-116 -116h-34l139 140h26zM177 500l102 -468l254 468h31l-300 -552q-49 -89 -85 -119t-96 -30q-33 0 -49 6l5 27q12 -5 52 -5q28 0 49.5 9.5t40 31.5t30 40.5t29.5 52.5l19 37l-114 502h32z" />
    <glyph glyph-name="Ydieresis" unicode="&#x178;" 
d="M342 884l-19 -108h-50l19 108h50zM544 884l-20 -108h-50l19 108h51zM335 291l-52 -291h-32l52 291l-166 419h35l150 -387l285 387h38z" />
    <glyph glyph-name="Zacute" unicode="&#x179;" 
d="M360 776l107 108h40l-114 -108h-33zM43 29l512 653h-378l5 28h414l-5 -31l-512 -651h411l-5 -28h-447z" />
    <glyph glyph-name="zacute" unicode="&#x17a;" 
d="M349 580l140 140h38l-147 -140h-31zM77 26l401 448h-307l4 26h344l-4 -24l-401 -450h332l-5 -26h-368z" />
    <glyph glyph-name="Zdotaccent" unicode="&#x17b;" 
d="M420 884l-19 -108h-54l19 108h54zM43 29l512 653h-378l5 28h414l-5 -31l-512 -651h411l-5 -28h-447z" />
    <glyph glyph-name="zdotaccent" unicode="&#x17c;" 
d="M405 725l-22 -124h-52l21 124h53zM77 26l401 448h-307l4 26h344l-4 -24l-401 -450h332l-5 -26h-368z" />
    <glyph glyph-name="Zcaron" unicode="&#x17d;" 
d="M271 884h35l72 -85l103 85h36l-128 -108h-28zM43 29l512 653h-378l5 28h414l-5 -31l-512 -651h411l-5 -28h-447z" />
    <glyph glyph-name="zcaron" unicode="&#x17e;" 
d="M285 720h29l75 -116l116 116h34l-139 -140h-26zM77 26l401 448h-307l4 26h344l-4 -24l-401 -450h332l-5 -26h-368z" />
    <glyph glyph-name="florin" unicode="&#x192;" 
d="M501 714q25 0 48 -7l-5 -26q-14 6 -48 6q-30 0 -51 -9t-35.5 -30.5t-23 -41t-19.5 -55.5l-44 -144h148l-4 -25h-151l-162 -532h-30l162 532h-112l5 25h115l37 123q11 35 15.5 49t15.5 42t21.5 39.5t27.5 27t39.5 21t50.5 5.5z" />
    <glyph glyph-name="AEacute" unicode="&#x1fc;" 
d="M662 884l-114 -108h-33l107 108h40zM670 682h-229l-54 -304h213l-5 -28h-213l-57 -322h237l-5 -28h-268l33 182h-178l-97 -182h-33l384 710h277zM326 209l84 470l-251 -470h167z" />
    <glyph glyph-name="aeacute" unicode="&#x1fd;" 
d="M536 720l-147 -140h-31l140 140h38zM475 510q56 0 84.5 -33t28.5 -94q0 -29 -6 -63l-9 -56h-246l-19 -112q-3 -15 -3 -30q0 -48 27.5 -76.5t71.5 -28.5q92 0 121 140l1 7l28 -3l-1 -5q-32 -166 -153 -166q-51 0 -82 28.5t-37 77.5q-43 -105 -137 -105q-53 0 -85 30
t-32 92q0 61 40 105.5t126 55.5l110 13l10 52q4 34 4 51q0 95 -92 95q-59 0 -87.5 -38.5t-29.5 -94.5v-3h-29v3q1 71 41 114.5t107 43.5q96 0 115 -85q42 85 133 85zM551 322q6 36 6 58q0 105 -83 105q-46 0 -81 -32.5t-51 -101.5q0 -3 -2 -11l-7 -41l-2 -12h215zM149 15
q107 0 137 176l13 72l-104 -13q-69 -9 -102.5 -46t-33.5 -91q0 -51 25 -74.5t65 -23.5z" />
    <glyph glyph-name="Oslashacute" unicode="&#x1fe;" 
d="M515 884l-114 -108h-33l107 108h40zM672 700l-102 -116q20 -77 0 -186l-22 -118q-27 -148 -92 -222.5t-174 -74.5q-117 0 -169 83l-64 -73l-18 13l71 81q-38 86 -12 225l21 118q27 148 92 222.5t174 74.5q142 0 185 -117l92 104zM121 311q-21 -120 6 -196l410 466
q-33 118 -161 118q-182 0 -233 -270zM538 400q16 85 5 154l-406 -462q41 -81 146 -81q183 0 233 270z" />
    <glyph glyph-name="oslashacute" unicode="&#x1ff;" 
d="M536 720l-147 -140h-31l140 140h38zM560 492l-57 -59q32 -50 32 -125q0 -141 -69 -230.5t-185 -89.5q-99 0 -151 61l-55 -56l-16 16l57 59q-32 50 -32 125q0 141 69 230t183 89q101 0 153 -61l54 56zM115 193q0 -60 23 -103l329 339q-43 57 -131 57q-100 0 -160.5 -81.5
t-60.5 -211.5zM503 308q0 59 -23 102l-329 -339q44 -56 130 -56q102 0 162 81t60 212z" />
    <glyph glyph-name="Scommaaccent" unicode="&#x218;" 
d="M309 -17q-112 0 -174.5 65t-63.5 168l31 3q2 -88 56.5 -148t152.5 -60t141 46t43 119q0 59 -29 93.5t-94 62.5l-98 41q-125 52 -125 163q0 88 55 139.5t153 51.5q101 0 157.5 -58t58.5 -158l-31 -4q-4 92 -52.5 142t-133.5 50q-82 0 -127.5 -44.5t-45.5 -116.5
q0 -48 26 -80.5t84 -57.5l104 -45q65 -27 98 -68t33 -109q0 -91 -57 -143t-162 -52zM303 -205l-12 12q27 17 33 54h-32l15 81h52l-9 -53q-13 -69 -47 -94z" />
    <glyph glyph-name="scommaaccent" unicode="&#x219;" 
d="M297 -12q-90 0 -144 40.5t-58 114.5l30 3q5 -63 49 -97t124 -34q71 0 109.5 32.5t38.5 88.5q0 41 -21.5 65t-70.5 34l-90 19q-109 22 -109 116q0 69 50.5 105.5t123.5 36.5q85 0 132.5 -37.5t50.5 -103.5l-30 -3q-8 118 -153 118q-64 0 -104 -29.5t-40 -85.5
q0 -36 20.5 -58.5t73.5 -33.5l89 -18q109 -22 109 -123q0 -69 -48.5 -109.5t-131.5 -40.5zM268 -200l-12 12q27 17 33 54h-32l15 81h52l-9 -53q-13 -69 -47 -94z" />
    <glyph glyph-name="uni021A" unicode="&#x21a;" 
d="M137 710h507l-4 -28h-239l-120 -682h-31l120 682h-238zM231 -205l-12 12q27 17 33 54h-32l15 81h52l-9 -53q-13 -69 -47 -94z" />
    <glyph glyph-name="uni021B" unicode="&#x21b;" 
d="M135 474l5 26h149l24 136l33 14l-27 -150h204l-5 -26h-202l-58 -325q-12 -66 17 -97.5t88 -31.5q41 0 76 13l-4 -27q-30 -14 -81 -14q-70 0 -105 39t-22 114l58 329h-150zM298 -205l-12 12q27 17 33 54h-32l15 81h52l-9 -53q-13 -69 -47 -94z" />
    <glyph glyph-name="uni0237" unicode="&#x237;" 
d="M38 -177l5 27q53 -24 114 -24q58 0 92 25.5t45 89.5l94 532h-190l4 27h220l-99 -563q-26 -139 -166 -139q-73 0 -119 25z" />
    <glyph glyph-name="uni0243" unicode="&#x243;" 
d="M383 355q64 -6 100 -48.5t36 -97.5q0 -23 -3.5 -45t-16 -50t-32.5 -49.5t-56.5 -39t-84.5 -22.5l-19 -110h-25l19 108q-7 -1 -23 -1h-76l-19 -107h-24l19 107h-132l122 695h132l16 90h24l-15 -90h53q24 0 44 -3l17 93h25l-17 -97q61 -15 88 -55.5t27 -90.5
q0 -67 -42.5 -121t-136.5 -66zM195 668l-52 -298h179q54 0 94.5 13.5t61.5 32t33.5 44t15.5 43t3 35.5q0 55 -35.5 92.5t-121.5 37.5h-178zM278 28q210 0 210 179q0 56 -40.5 96t-125.5 40h-184l-56 -315h196z" />
    <glyph glyph-name="circumflex" unicode="&#x2c6;" 
d="M495 580h-29l-75 116l-116 -116h-34l139 140h26z" />
    <glyph glyph-name="caron" unicode="&#x2c7;" 
d="M266 720h29l75 -116l116 116h34l-139 -140h-26z" />
    <glyph glyph-name="breve" unicode="&#x2d8;" 
d="M275 720q-1 -63 25 -93t83 -30q48 0 84 34.5t43 88.5h26q-13 -74 -56 -109.5t-98 -35.5q-138 0 -133 145h26z" />
    <glyph glyph-name="dotaccent" unicode="&#x2d9;" 
d="M420 725l-22 -124h-52l21 124h53z" />
    <glyph glyph-name="ring" unicode="&#x2da;" 
d="M477 670q0 -49 -28.5 -77.5t-77.5 -28.5q-37 0 -61 23t-24 57q0 47 29 76.5t76 29.5q37 0 61.5 -23.5t24.5 -56.5zM312 647q0 -26 16.5 -43t45.5 -17q38 0 58 21.5t20 58.5q0 25 -17 43t-46 18q-37 0 -57 -22t-20 -59z" />
    <glyph glyph-name="ogonek" unicode="&#x2db;" 
d="M331 -115q-8 -44 -34.5 -66t-61.5 -22q-32 0 -54 18t-22 55q0 43 34.5 80t113.5 56l26 -6q-146 -36 -146 -125q0 -28 14.5 -41.5t37.5 -13.5q26 0 45 18.5t23 50.5z" />
    <glyph glyph-name="tilde" unicode="&#x2dc;" 
d="M298 699q34 0 61.5 -19t52 -38t50.5 -19q62 0 75 77l25 -1q-10 -55 -37.5 -78.5t-62.5 -23.5q-39 0 -84.5 38t-78.5 38q-61 0 -75 -72l-24 2q10 50 37.5 73t60.5 23z" />
    <glyph glyph-name="hungarumlaut" unicode="&#x2dd;" 
d="M253 580l107 140h32l-109 -140h-30zM368 580l107 140h33l-110 -140h-30z" />
    <glyph glyph-name="gravecomb" unicode="&#x300;" horiz-adv-x="0" 
d="M-165 580h-31l-147 140h38z" />
    <glyph glyph-name="acutecomb" unicode="&#x301;" horiz-adv-x="0" 
d="M-292 580l140 140h38l-147 -140h-31z" />
    <glyph glyph-name="uni0302" unicode="&#x302;" horiz-adv-x="0" 
d="M-125 580h-29l-75 116l-116 -116h-34l139 140h26z" />
    <glyph glyph-name="tildecomb" unicode="&#x303;" horiz-adv-x="0" 
d="M-285 699q34 0 61.5 -19t52 -38t50.5 -19q62 0 75 77l25 -1q-10 -55 -37.5 -78.5t-62.5 -23.5q-39 0 -84.5 38t-78.5 38q-61 0 -75 -72l-24 2q10 50 37.5 73t60.5 23z" />
    <glyph glyph-name="uni0304" unicode="&#x304;" horiz-adv-x="0" 
d="M-354 608l5 26h288l-5 -26h-288z" />
    <glyph glyph-name="uni0306" unicode="&#x306;" horiz-adv-x="0" 
d="M-308 720q-1 -63 25 -93t83 -30q48 0 84 34.5t43 88.5h26q-13 -74 -56 -109.5t-98 -35.5q-138 0 -133 145h26z" />
    <glyph glyph-name="uni0307" unicode="&#x307;" horiz-adv-x="0" 
d="M-200 725l-22 -124h-52l21 124h53z" />
    <glyph glyph-name="uni0308" unicode="&#x308;" horiz-adv-x="0" 
d="M-238 720l-19 -108h-52l19 108h52zM-91 720l-19 -108h-53l20 108h52z" />
    <glyph glyph-name="uni030A" unicode="&#x30a;" horiz-adv-x="0" 
d="M-143 670q0 -49 -28.5 -77.5t-77.5 -28.5q-37 0 -61 23t-24 57q0 47 29 76.5t76 29.5q37 0 61.5 -23.5t24.5 -56.5zM-308 647q0 -26 16.5 -43t45.5 -17q38 0 58 21.5t20 58.5q0 25 -17 43t-46 18q-37 0 -57 -22t-20 -59z" />
    <glyph glyph-name="uni030B" unicode="&#x30b;" horiz-adv-x="0" 
d="M-300 580l107 140h32l-109 -140h-30zM-185 580l107 140h33l-110 -140h-30z" />
    <glyph glyph-name="uni030C" unicode="&#x30c;" horiz-adv-x="0" 
d="M-317 720h29l75 -116l116 116h34l-139 -140h-26z" />
    <glyph glyph-name="uni0312" unicode="&#x312;" horiz-adv-x="0" 
d="M-233 750l12 -12q-27 -17 -33 -54h32l-15 -81h-52l9 53q13 69 47 94z" />
    <glyph glyph-name="uni0326" unicode="&#x326;" horiz-adv-x="0" 
d="M-355 -205l-12 12q27 17 33 54h-32l15 81h52l-9 -53q-13 -69 -47 -94z" />
    <glyph glyph-name="uni0327" unicode="&#x327;" horiz-adv-x="0" 
d="M-330 1h24l-59 -78q17 16 45 16q24 0 40 -18t16 -45q0 -36 -23.5 -57t-57.5 -21q-28 0 -49 15t-24 44l27 3q4 -41 44 -41q22 0 39 13.5t17 40.5q0 21 -12.5 34t-30.5 13q-23 0 -45 -18l-18 7z" />
    <glyph glyph-name="uni0328" unicode="&#x328;" horiz-adv-x="0" 
d="M-253 -115q-8 -44 -34.5 -66t-61.5 -22q-32 0 -54 18t-22 55q0 43 34.5 80t113.5 56l26 -6q-146 -36 -146 -125q0 -28 14.5 -41.5t37.5 -13.5q26 0 45 18.5t23 50.5z" />
    <glyph glyph-name="uni0394" unicode="&#x394;" 
d="M37 0l336 710h38l84 -710h-458zM386 676l-304 -648h375z" />
    <glyph glyph-name="uni03A9" unicode="&#x3a9;" 
d="M485 0h-170l28 199q107 19 159.5 98.5t52.5 185.5q0 95 -46.5 155.5t-136.5 60.5q-114 0 -174.5 -81.5t-60.5 -193.5q0 -85 32 -145t92 -80l-42 -199h-169l5 29h140l31 153q-52 22 -87 88.5t-35 150.5q0 131 73 218.5t199 87.5q100 0 155.5 -65.5t55.5 -174.5
q0 -70 -21 -131t-71.5 -110.5t-125.5 -66.5l-19 -150h140z" />
    <glyph glyph-name="uni03BC" unicode="&#x3bc;" 
d="M506 500h30l-88 -500h-29l22 127q-25 -61 -77 -100t-119 -39q-79 0 -120 48q-11 12 -19 32l-46 -263h-29l64 367q0 4 1.5 12.5t2.5 13.5l54 302h30l-54 -304q-7 -53 -1.5 -88t26.5 -55.5t46 -29t57 -8.5q79 0 132 61t68 143z" />
    <glyph glyph-name="pi" unicode="&#x3c0;" 
d="M510 -1l-2 -1q-3 0 -7 -1t-9 -2t-11 -1.5t-11 -0.5q-82 0 -63 109l66 373h-245l-84 -475h-29l83 475h-93l4 25h490l-4 -25h-93l-67 -378q-13 -78 44 -78q5 0 10.5 0.5t9.5 1.5t7.5 1.5t5.5 1.5h2z" />
    <glyph glyph-name="uni0E3F" unicode="&#xe3f;" 
d="M383 356q64 -7 100 -49.5t36 -97.5q0 -21 -3.5 -41t-12 -45t-26 -46t-42.5 -39t-65.5 -28t-91.5 -10h-27l-19 -107h-25l19 107h-180l122 695h181l16 91h25l-16 -91h4q52 0 90 -13.5t57.5 -36.5t28 -48.5t8.5 -54.5q0 -30 -9 -58.5t-28.5 -56t-56 -46.5t-85.5 -25z
M195 668l-52 -298h148l53 298h-149zM373 668h-4l-53 -298h6q54 0 94.5 13.5t61.5 32t33.5 44t15.5 43t3 35.5q0 55 -35.5 92.5t-121.5 37.5zM82 28h149l56 315h-149zM278 28q210 0 210 179q0 56 -40.5 96t-125.5 40h-10l-56 -315h22z" />
    <glyph glyph-name="Wgrave" unicode="&#x1e80;" 
d="M412 776h-33l-114 108h40zM100 0l28 710h30l-25 -590q-2 -47 -6 -90h3q13 39 37 96l181 422h30l34 -423q5 -70 5 -94h2q7 32 26 96l177 583h32l-219 -710h-40l-32 421q-3 38 -3 94h-3q-12 -40 -32 -86l-183 -429h-42z" />
    <glyph glyph-name="wgrave" unicode="&#x1e81;" 
d="M374 580h-31l-147 140h38zM83 500h30l23 -398l3 -61h4q13 42 24 63l171 396h27l33 -396q2 -38 2 -63h4q6 23 23 61l168 398h29l-213 -500h-31l-32 403q0 9 -0.5 28t-1.5 27h-2q-13 -35 -22 -55l-174 -403h-32z" />
    <glyph glyph-name="Wacute" unicode="&#x1e82;" 
d="M384 776l107 108h40l-114 -108h-33zM100 0l28 710h30l-25 -590q-2 -47 -6 -90h3q13 39 37 96l181 422h30l34 -423q5 -70 5 -94h2q7 32 26 96l177 583h32l-219 -710h-40l-32 421q-3 38 -3 94h-3q-12 -40 -32 -86l-183 -429h-42z" />
    <glyph glyph-name="wacute" unicode="&#x1e83;" 
d="M358 580l140 140h38l-147 -140h-31zM83 500h30l23 -398l3 -61h4q13 42 24 63l171 396h27l33 -396q2 -38 2 -63h4q6 23 23 61l168 398h29l-213 -500h-31l-32 403q0 9 -0.5 28t-1.5 27h-2q-13 -35 -22 -55l-174 -403h-32z" />
    <glyph glyph-name="Wdieresis" unicode="&#x1e84;" 
d="M342 884l-19 -108h-50l19 108h50zM544 884l-20 -108h-50l19 108h51zM100 0l28 710h30l-25 -590q-2 -47 -6 -90h3q13 39 37 96l181 422h30l34 -423q5 -70 5 -94h2q7 32 26 96l177 583h32l-219 -710h-40l-32 421q-3 38 -3 94h-3q-12 -40 -32 -86l-183 -429h-42z" />
    <glyph glyph-name="wdieresis" unicode="&#x1e85;" 
d="M342 720l-19 -108h-52l19 108h52zM489 720l-19 -108h-53l20 108h52zM83 500h30l23 -398l3 -61h4q13 42 24 63l171 396h27l33 -396q2 -38 2 -63h4q6 23 23 61l168 398h29l-213 -500h-31l-32 403q0 9 -0.5 28t-1.5 27h-2q-13 -35 -22 -55l-174 -403h-32z" />
    <glyph glyph-name="Ygrave" unicode="&#x1ef2;" 
d="M412 776h-33l-114 108h40zM335 291l-52 -291h-32l52 291l-166 419h35l150 -387l285 387h38z" />
    <glyph glyph-name="ygrave" unicode="&#x1ef3;" 
d="M373 580h-31l-147 140h38zM177 500l102 -468l254 468h31l-300 -552q-49 -89 -85 -119t-96 -30q-33 0 -49 6l5 27q12 -5 52 -5q28 0 49.5 9.5t40 31.5t30 40.5t29.5 52.5l19 37l-114 502h32z" />
    <glyph glyph-name="uni2002" unicode="&#x2002;" horiz-adv-x="500" 
 />
    <glyph glyph-name="uni2003" unicode="&#x2003;" horiz-adv-x="1000" 
 />
    <glyph glyph-name="uni2004" unicode="&#x2004;" horiz-adv-x="0" 
 />
    <glyph glyph-name="uni2005" unicode="&#x2005;" horiz-adv-x="250" 
 />
    <glyph glyph-name="uni2009" unicode="&#x2009;" horiz-adv-x="135" 
 />
    <glyph glyph-name="uni200A" unicode="&#x200a;" horiz-adv-x="75" 
 />
    <glyph glyph-name="endash" unicode="&#x2013;" 
d="M112 291h412l-5 -24h-412z" />
    <glyph glyph-name="emdash" unicode="&#x2014;" 
d="M41 291h552l-4 -24h-552z" />
    <glyph glyph-name="quoteleft" unicode="&#x2018;" 
d="M435 720l6 -21q-69 -28 -80 -91h71l-19 -106h-97l19 106q15 84 100 112z" />
    <glyph glyph-name="quoteright" unicode="&#x2019;" 
d="M301 493l-6 21q69 28 80 91h-71l19 106h97l-19 -106q-15 -84 -100 -112z" />
    <glyph glyph-name="quotesinglbase" unicode="&#x201a;" 
d="M202 -112l-6 21q69 28 80 91h-71l19 106h97l-19 -106q-15 -84 -100 -112z" />
    <glyph glyph-name="quotedblleft" unicode="&#x201c;" 
d="M350 720l7 -21q-34 -14 -54 -34.5t-26 -56.5h70l-19 -105h-96l19 105q8 43 35 71.5t64 40.5zM498 720l6 -21q-69 -28 -80 -91h71l-19 -105h-97l19 105q15 84 100 112z" />
    <glyph glyph-name="quotedblright" unicode="&#x201d;" 
d="M247 492l-6 21q69 29 80 92h-71l19 105h96l-18 -105q-15 -83 -100 -113zM394 492l-6 21q69 29 80 92h-70l18 105h97l-19 -105q-15 -83 -100 -113z" />
    <glyph glyph-name="quotedblbase" unicode="&#x201e;" 
d="M141 -112l-7 21q34 14 54 34.5t26 56.5h-70l19 106h96l-19 -106q-7 -43 -34.5 -71.5t-64.5 -40.5zM288 -112l-6 21q69 28 80 91h-71l19 106h96l-18 -106q-8 -43 -35.5 -71.5t-64.5 -40.5z" />
    <glyph glyph-name="dagger" unicode="&#x2020;" 
d="M364 474l-101 -574h-30l101 574h-148l5 26h148l39 220h30l-39 -220h148l-4 -26h-149z" />
    <glyph glyph-name="daggerdbl" unicode="&#x2021;" 
d="M515 474h-149l-55 -313h143l-4 -26h-144l-41 -235h-30l41 235h-152l4 26h153l55 313h-148l5 26h148l39 220h30l-39 -220h148z" />
    <glyph glyph-name="bullet" unicode="&#x2022;" 
d="M327 296q-24 0 -38 13t-14 37t14 37.5t38 13.5t38 -13.5t14 -37.5t-14 -37t-38 -13z" />
    <glyph glyph-name="ellipsis" unicode="&#x2026;" 
d="M130 105l-19 -105h-96l18 105h97zM332 105l-18 -105h-97l19 105h96zM535 105l-18 -105h-97l19 105h96z" />
    <glyph glyph-name="perthousand" unicode="&#x2030;" 
d="M199 434q-45 0 -73.5 32t-28.5 91q0 66 33.5 109t89.5 43q47 0 73.5 -32t26.5 -89q0 -68 -33.5 -111t-87.5 -43zM219 687q-45 0 -71 -37.5t-26 -93.5q0 -50 21.5 -75t57.5 -25q44 0 68.5 36t24.5 94q0 101 -75 101zM40 260l540 328l-5 -30l-541 -326zM469 275
q47 0 72.5 -32.5t25.5 -89.5q0 -67 -33 -110t-85 -43q-69 0 -93 68q-32 -68 -100 -68q-44 0 -72.5 30.5t-28.5 90.5q0 67 33 110.5t88 43.5q70 0 90 -67q34 67 103 67zM258 22q39 0 62.5 30.5t27.5 80.5q0 1 0.5 3.5t0.5 4.5v11q0 101 -73 101q-45 0 -70.5 -37.5
t-25.5 -93.5q0 -50 21 -75t57 -25zM451 22q43 0 67.5 36t24.5 94q0 101 -74 101q-44 0 -70 -37.5t-26 -93.5q0 -50 21.5 -75t56.5 -25z" />
    <glyph glyph-name="guilsinglleft" unicode="&#x2039;" 
d="M352 67l-132 208l210 207h35l-212 -208l131 -207h-32z" />
    <glyph glyph-name="guilsinglright" unicode="&#x203a;" 
d="M270 482l132 -208l-210 -207h-35l212 208l-131 207h32z" />
    <glyph glyph-name="fraction" unicode="&#x2044;" horiz-adv-x="155" 
d="M403 727h29l-642 -744h-30z" />
    <glyph glyph-name="uni20A9" unicode="&#x20a9;" 
d="M641 695l-81 -257h53l-4 -24h-57l-33 -107h71l-4 -24h-75l-89 -283h-43l1 283h-127l-99 -283h-44l11 283h-75l4 24h71l4 107h-56l4 24h53l10 257h30l-11 -257h125l91 257h36v-257h123l80 257h31zM361 594l-54 -156h73l1 156v55h-2q-5 -18 -18 -55zM154 414l-4 -107h84
l38 107h-118zM261 307h119v107h-82zM489 307l34 107h-116l-1 -107h83zM168 120l58 163h-77l-7 -163q-2 -52 -4 -80h2zM431 120l51 163h-76v-163q0 -13 -0.5 -39.5t-0.5 -40.5h3q4 16 12 42t11 38z" />
    <glyph glyph-name="Euro" unicode="&#x20ac;" 
d="M434 684q-94 0 -160 -66.5t-94 -181.5h289l-4 -24h-290q-12 -56 -13 -110h284l-4 -24h-281v-9q0 -124 41 -190.5t138 -66.5q61 0 115 38.5t81 119.5l27 -5q-29 -89 -89.5 -134.5t-137.5 -45.5q-206 0 -206 283v10h-83l4 24h80q1 52 13 110h-75l5 24h76
q31 125 105.5 199.5t180.5 74.5q76 0 127.5 -41.5t59.5 -125.5l-27 -6q-8 73 -51 110t-111 37z" />
    <glyph glyph-name="uni20B9" unicode="&#x20b9;" 
d="M642 695l-6 -26h-275q82 -43 82 -147v-8h166l-4 -25h-164q-11 -76 -68.5 -128.5t-167.5 -52.5h-93l226 -308h-41l-227 317l1 18h136q91 0 141 44t61 110h-310l4 25h308v7q0 62 -36.5 105t-120.5 43h-124l6 26h506z" />
    <glyph glyph-name="uni20BA" unicode="&#x20ba;" 
d="M513 230l30 -4q-32 -111 -102 -168.5t-201 -57.5h-115l53 297l-102 -29l5 27l101 29l21 118l-101 -29l5 27l101 29l40 226h32l-39 -216l264 76l-5 -27l-263 -76l-21 -118l264 76l-6 -27l-263 -76l-50 -279h82q115 0 177.5 49.5t92.5 152.5z" />
    <glyph glyph-name="uni20BD" unicode="&#x20bd;" 
d="M411 695q52 0 90 -14.5t58 -39t29 -51.5t9 -56q0 -43 -12.5 -81t-39 -71t-74 -52.5t-111.5 -19.5h-178l-23 -132h193l-5 -25h-192l-27 -153h-32l27 153h-71l5 25h71l23 132h-71l5 26h70l64 359h192zM364 336q100 0 150 55.5t50 136.5q0 56 -36.5 97.5t-116.5 41.5h-166
l-58 -331h177z" />
    <glyph glyph-name="uni2105" unicode="&#x2105;" 
d="M34 -14l553 742h27l-552 -742h-28zM199 398q-51 0 -83 39t-32 99q0 89 39.5 140.5t111.5 51.5q55 0 83 -33.5t27 -87.5l-27 -2q0 100 -87 100q-59 0 -90 -44t-31 -123q0 -52 26 -84.5t67 -32.5q81 0 104 96l25 -2q-14 -54 -47.5 -85.5t-85.5 -31.5zM429 -14
q-53 0 -85.5 39t-32.5 100q0 88 38.5 140t105.5 52q54 0 86 -39.5t32 -100.5q0 -87 -39.5 -139t-104.5 -52zM432 10q54 0 84 44t30 122q0 52 -25 85t-68 33q-55 0 -85.5 -44.5t-30.5 -123.5q0 -51 26.5 -83.5t68.5 -32.5z" />
    <glyph glyph-name="uni2113" unicode="&#x2113;" 
d="M266 235l-21 -119q-16 -97 73 -97q32 0 66 8l-5 -27q-33 -9 -72 -9q-62 0 -81.5 35t-7.5 101l16 93q-44 -20 -95 -40l-7 22q78 32 107 47l60 341q14 77 52 109t86 32q98 0 98 -132q0 -226 -269 -364zM328 592l-57 -327q110 58 172.5 137t62.5 196q0 108 -74 108
q-38 0 -66 -29t-38 -85z" />
    <glyph glyph-name="uni2116" unicode="&#x2116;" 
d="M235 162q8 -49 16 -113h2q17 125 22 152l90 509h26l-125 -710h-32l-99 568q-3 21 -8 55.5t-7 51.5h-1q-12 -100 -23 -162l-90 -513h-27l125 710h36zM428 456l14 79q12 71 41.5 101t76.5 30q51 0 74 -35t11 -103l-15 -84q-21 -129 -120 -129q-50 0 -72 36t-10 105z
M603 443l16 90q9 56 -9 82.5t-52 26.5q-35 0 -57 -23t-32 -82l-15 -85q-10 -56 8 -84.5t52 -28.5t56 23t33 81z" />
    <glyph glyph-name="trademark" unicode="&#x2122;" 
d="M151 307l66 380h-97l4 23h221l-4 -23h-98l-66 -380h-26zM317 307l70 403h41l25 -309q2 -40 2 -68h2q2 4 27 68l134 309h39l-70 -403h-25l59 338q0 3 7 36h-1q-1 -3 -14 -33l-147 -341h-27l-25 307l-6 67h-1l-7 -36l-58 -338h-25z" />
    <glyph glyph-name="uni2126" unicode="&#x2126;" 
d="M485 0h-170l28 199q107 19 159.5 98.5t52.5 185.5q0 95 -46.5 155.5t-136.5 60.5q-114 0 -174.5 -81.5t-60.5 -193.5q0 -85 32 -145t92 -80l-42 -199h-169l5 29h140l31 153q-52 22 -87 88.5t-35 150.5q0 131 73 218.5t199 87.5q100 0 155.5 -65.5t55.5 -174.5
q0 -70 -21 -131t-71.5 -110.5t-125.5 -66.5l-19 -150h140z" />
    <glyph glyph-name="estimated" unicode="&#x212e;" 
d="M571 369h-372l-50 -284q44 -79 130 -79q62 0 121.5 36.5t96.5 110.5l21 -9q-39 -79 -104 -120t-141 -41q-95 0 -142.5 75t-47.5 198q0 129 37 232.5t112 166.5t176 63q114 0 154.5 -83t8.5 -266zM526 640q-37 55 -122 55q-90 0 -158 -57l-43 -246h280z" />
    <glyph glyph-name="uni2153" unicode="&#x2153;" horiz-adv-x="1240" 
d="M965 727h29l-642 -744h-30zM437 340h-252l3 20h118l54 311q-15 -16 -48 -29t-57 -13h-14l4 22h9q32 0 68.5 18t48.5 41h21l-61 -350h109zM968 191q35 -5 55.5 -29t20.5 -60q0 -48 -33.5 -79t-99.5 -31q-54 0 -90 27.5t-37 86.5l26 2q2 -50 31 -72.5t70 -22.5
q55 0 80.5 25t25.5 63t-23 60t-64 22h-30l2 19h29q47 0 75.5 21.5t28.5 58.5q0 41 -26 58.5t-62 17.5q-55 0 -80.5 -27.5t-24.5 -71.5l-26 3q0 51 33 83.5t98 32.5q47 0 81 -22.5t34 -70.5q0 -38 -27 -64t-67 -30z" />
    <glyph glyph-name="uni2154" unicode="&#x2154;" horiz-adv-x="1240" 
d="M959 727h29l-642 -744h-30zM184 361q133 78 201.5 135.5t68.5 112.5q0 88 -94 88q-47 0 -75 -23.5t-28 -61.5q0 -18 3 -29l-25 1q-3 16 -3 30q0 47 34 75.5t92 28.5q122 0 122 -107q0 -32 -21.5 -66t-62 -66.5t-81.5 -59.5t-96 -58h229l-4 -21h-263zM906 202h29
q47 0 75.5 21.5t28.5 58.5q0 41 -26 58.5t-62 17.5q-55 0 -80.5 -27.5t-24.5 -71.5l-26 3q0 51 33 83.5t98 32.5q47 0 81 -22.5t34 -70.5q0 -38 -27 -64t-67 -30q35 -5 55.5 -29t20.5 -60q0 -48 -33.5 -79t-99.5 -31q-54 0 -90 27.5t-37 86.5l26 2q2 -50 31 -72.5t70 -22.5
q55 0 80.5 25t25.5 63t-23 60t-64 22h-30z" />
    <glyph glyph-name="oneeighth" unicode="&#x215b;" horiz-adv-x="1240" 
d="M941 727h29l-642 -744h-30zM183 340l3 20h118l54 311q-15 -16 -48 -29t-57 -13h-14l4 22h9q32 0 68.5 18t48.5 41h21l-61 -350h109l-3 -20h-252zM957 196q88 -25 88 -98q0 -45 -33.5 -75.5t-102.5 -30.5q-32 0 -60 7t-51 29t-23 57q0 89 115 109q-69 23 -69 87
q0 43 30 70t91 27q52 0 87.5 -20t35.5 -64q0 -34 -24.5 -61t-83.5 -37zM846 282q0 -57 67 -75l22 -6q103 20 103 89t-95 69q-53 0 -75 -22.5t-22 -54.5zM911 12q55 0 81 25t26 61q0 61 -82 83l-21 6q-112 -19 -112 -99q0 -42 32.5 -59t75.5 -17z" />
    <glyph glyph-name="threeeighths" unicode="&#x215c;" horiz-adv-x="1240" 
d="M971 727h29l-642 -744h-30zM476 442q0 -48 -33.5 -79t-99.5 -31q-54 0 -90 27.5t-37 86.5l26 2q2 -50 31 -72.5t70 -22.5q55 0 80.5 25t25.5 63t-23 60t-64 22h-30l2 19h29q47 0 75.5 21.5t28.5 58.5q0 41 -26 58.5t-62 17.5q-55 0 -80.5 -27.5t-24.5 -71.5l-26 3
q0 51 33 83.5t98 32.5q47 0 81 -22.5t34 -70.5q0 -38 -27 -64t-67 -30q35 -5 55.5 -29t20.5 -60zM944 196q88 -25 88 -98q0 -45 -33.5 -75.5t-102.5 -30.5q-32 0 -60 7t-51 29t-23 57q0 89 115 109q-69 23 -69 87q0 43 30 70t91 27q52 0 87.5 -20t35.5 -64q0 -34 -24.5 -61
t-83.5 -37zM833 282q0 -57 67 -75l22 -6q103 20 103 89t-95 69q-53 0 -75 -22.5t-22 -54.5zM898 12q55 0 81 25t26 61q0 61 -82 83l-21 6q-112 -19 -112 -99q0 -42 32.5 -59t75.5 -17z" />
    <glyph glyph-name="fiveeighths" unicode="&#x215d;" horiz-adv-x="1240" 
d="M947 727h29l-642 -744h-30zM489 476q0 -65 -40.5 -104.5t-107.5 -39.5q-56 0 -90 27t-34 70l25 2q1 -35 29 -56.5t72 -21.5q54 0 87 32.5t33 86.5q0 95 -96 95q-78 0 -108 -71l-23 2l60 212h215l-4 -21h-195l-48 -163q33 62 111 62q55 0 84.5 -28.5t29.5 -83.5zM940 196
q88 -25 88 -98q0 -45 -33.5 -75.5t-102.5 -30.5q-32 0 -60 7t-51 29t-23 57q0 89 115 109q-69 23 -69 87q0 43 30 70t91 27q52 0 87.5 -20t35.5 -64q0 -34 -24.5 -61t-83.5 -37zM829 282q0 -57 67 -75l22 -6q103 20 103 89t-95 69q-53 0 -75 -22.5t-22 -54.5zM894 12
q55 0 81 25t26 61q0 61 -82 83l-21 6q-112 -19 -112 -99q0 -42 32.5 -59t75.5 -17z" />
    <glyph glyph-name="seveneighths" unicode="&#x215e;" horiz-adv-x="1240" 
d="M906 727h29l-642 -744h-30zM276 341q34 203 205 348h-226l3 21h252l-3 -21q-77 -65 -132.5 -155.5t-71.5 -193.5h-27v1zM947 196q88 -25 88 -98q0 -45 -33.5 -75.5t-102.5 -30.5q-32 0 -60 7t-51 29t-23 57q0 89 115 109q-69 23 -69 87q0 43 30 70t91 27q52 0 87.5 -20
t35.5 -64q0 -34 -24.5 -61t-83.5 -37zM836 282q0 -57 67 -75l22 -6q103 20 103 89t-95 69q-53 0 -75 -22.5t-22 -54.5zM901 12q55 0 81 25t26 61q0 61 -82 83l-21 6q-112 -19 -112 -99q0 -42 32.5 -59t75.5 -17z" />
    <glyph glyph-name="arrowleft" unicode="&#x2190;" 
d="M567 319h-375l-14 -74l-99 85l130 86l-13 -75h375z" />
    <glyph glyph-name="arrowup" unicode="&#x2191;" 
d="M249 -35l118 670h-74l105 115l66 -115h-73l-119 -670h-23z" />
    <glyph glyph-name="arrowright" unicode="&#x2192;" 
d="M112 341h375l14 74l99 -85l-130 -86l13 75h-375z" />
    <glyph glyph-name="arrowdown" unicode="&#x2193;" 
d="M408 745l-118 -670h74l-105 -115l-66 115h73l119 670h23z" />
    <glyph glyph-name="arrowboth" unicode="&#x2194;" 
d="M458 319h-271l-14 -74l-99 85l130 86l-13 -75h271l13 75l99 -86l-130 -85z" />
    <glyph glyph-name="arrowupdn" unicode="&#x2195;" 
d="M259 -40l-66 115h74l99 560h-73l105 115l66 -115h-73l-100 -560h73z" />
    <glyph glyph-name="uni2196" unicode="&#x2196;" 
d="M214 630l-70 -60l24 140h141l-74 -62l303 -368l-20 -17z" />
    <glyph glyph-name="uni2197" unicode="&#x2197;" 
d="M468 631l-304 -367l-20 17l303 368l-74 62h141l24 -140z" />
    <glyph glyph-name="uni2198" unicode="&#x2198;" 
d="M444 91l70 60l-24 -140h-141l74 62l-303 368l20 17z" />
    <glyph glyph-name="uni2199" unicode="&#x2199;" 
d="M191 91l304 367l20 -17l-303 -368l74 -62h-141l-24 140z" />
    <glyph glyph-name="uni21A9" unicode="&#x21a9;" 
d="M181 245l-99 85l130 86l-13 -75h157q212 0 212 179q0 60 -41 93t-123 33h-81l5 22h86q88 0 134 -40t46 -110q0 -93 -57 -146t-175 -53h-167z" />
    <glyph glyph-name="uni21AA" unicode="&#x21aa;" 
d="M477 319h-215q-88 0 -134 40.5t-46 109.5q0 93 57.5 146t175.5 53h86l-4 -22h-76q-213 0 -213 -179q0 -60 41 -93t124 -33h208l14 75l99 -86l-130 -85z" />
    <glyph glyph-name="uni21B0" unicode="&#x21b0;" 
d="M441 0l104 589h-312l-13 -74l-99 85l130 86l-14 -75h336l-108 -611h-24z" />
    <glyph glyph-name="uni21B1" unicode="&#x21b1;" 
d="M167 589l-103 -589h-24l108 611h338l13 75l99 -86l-130 -85l14 74h-315z" />
    <glyph glyph-name="uni21B2" unicode="&#x21b2;" 
d="M490 124l104 588h24l-108 -611h-338l-13 -74l-100 85l130 86l-13 -74h314z" />
    <glyph glyph-name="uni21B3" unicode="&#x21b3;" 
d="M216 710l-104 -589h312l13 74l99 -85l-130 -86l14 75h-336l108 611h24z" />
    <glyph glyph-name="uni21B4" unicode="&#x21b4;" 
d="M355 102h73l103 585h-386l4 23h410l-107 -608h74l-105 -115z" />
    <glyph glyph-name="uni21B5" unicode="&#x21b5;" 
d="M544 352h71l-105 -115l-66 115h74l12 66q25 145 -17.5 212t-132.5 67q-126 0 -184 -123l-20 10q63 136 207 136q101 0 150.5 -73t22.5 -229zM277 11q125 0 183 122l20 -9q-63 -136 -207 -136q-101 0 -150.5 72.5t-21.5 228.5l11 66h-71l105 115l66 -115h-74l-12 -65
q-25 -145 18 -212t133 -67z" />
    <glyph glyph-name="uni21C4" unicode="&#x21c4;" 
d="M496 435h-290l-13 -74l-99 85l129 86l-13 -75h290zM153 225h289l13 75l100 -86l-130 -85l13 74h-290z" />
    <glyph glyph-name="uni21C5" unicode="&#x21c5;" 
d="M580 635h-73l-93 -524h-24l93 524h-74l105 115zM77 75h74l95 540h24l-96 -540h74l-105 -115z" />
    <glyph glyph-name="partialdiff" unicode="&#x2202;" 
d="M357 721q104 0 159 -81.5t55 -220.5q0 -219 -83 -327.5t-219 -108.5q-94 0 -150.5 63.5t-56.5 154.5q0 119 67.5 187.5t189.5 68.5q70 0 129 -38t91 -97q5 48 5 95q0 129 -49 203t-139 74q-55 0 -108 -19l-4 24q56 22 113 22zM275 10q40 0 77.5 13.5t74.5 43t65.5 85.5
t41.5 133q-30 64 -86 104.5t-132 40.5q-107 0 -165 -60.5t-58 -164.5q0 -81 49.5 -138t132.5 -57z" />
    <glyph glyph-name="emptyset" unicode="&#x2205;" 
d="M541 511l-54 -54q54 -62 54 -154q0 -100 -63 -163t-159 -63q-90 0 -151 55l-54 -54l-17 17l54 55q-54 60 -54 153q0 101 63 163.5t159 62.5q89 0 152 -55l53 54zM126 303q0 -78 45 -133l280 283q-54 49 -132 49q-83 0 -138 -55t-55 -144zM512 303q0 78 -45 133l-280 -283
q54 -49 132 -49q83 0 138 55t55 144z" />
    <glyph glyph-name="uni2206" unicode="&#x2206;" 
d="M37 0l336 710h38l84 -710h-458zM386 676l-304 -648h375z" />
    <glyph glyph-name="product" unicode="&#x220f;" 
d="M426 -88l136 766h-353l-135 -766h-30l140 793h412l-140 -793h-30z" />
    <glyph glyph-name="summation" unicode="&#x2211;" 
d="M10 -88l5 24l377 391l-233 355l4 23h454l-5 -27h-417l232 -353l-374 -386h441l-5 -27h-479z" />
    <glyph glyph-name="minus" unicode="&#x2212;" 
d="M87 316l4 26h470l-4 -26h-470z" />
    <glyph glyph-name="radical" unicode="&#x221a;" 
d="M40 280h127l62 -334l411 788h31l-434 -828h-29l-68 349h-104z" />
    <glyph glyph-name="infinity" unicode="&#x221e;" 
d="M468 449q48 0 76 -29.5t28 -80.5q0 -53 -35 -91t-85 -38q-49 0 -83 30.5t-49 67.5q-65 -98 -140 -98q-46 0 -75 31t-29 82q0 57 33.5 90.5t87.5 33.5q95 0 130 -87q61 89 141 89zM454 236q38 0 64.5 27t26.5 73q0 42 -23.5 64t-63.5 22q-64 0 -122 -88q39 -98 118 -98z
M187 237q38 0 67 26t57 71q-8 18 -15.5 30t-20.5 26.5t-32.5 22t-43.5 7.5q-96 0 -96 -94q0 -41 24 -65t60 -24z" />
    <glyph glyph-name="integral" unicode="&#x222b;" 
d="M75 -115l4 26q11 -1 22 -1q74 0 110.5 36.5t51.5 122.5l82 465q15 86 59 131.5t131 45.5q14 0 27 -1l-5 -26q-11 1 -26 1q-72 0 -107 -37.5t-50 -121.5l-82 -465q-15 -87 -60 -132t-133 -45q-13 0 -24 1z" />
    <glyph glyph-name="approxequal" unicode="&#x2248;" 
d="M446 381q-39 0 -104.5 25t-106.5 25q-78 0 -135 -40l5 28q23 17 60.5 28.5t71.5 11.5q46 0 109.5 -25t101.5 -25q34 0 71.5 11.5t60.5 28.5l-5 -28q-21 -17 -57.5 -28.5t-71.5 -11.5zM416 209q-39 0 -105 25t-107 25q-35 0 -73 -11.5t-61 -28.5l5 28q23 17 60 28.5
t71 11.5q46 0 110 -25t101 -25q79 0 133 40l-5 -28q-22 -17 -58.5 -28.5t-70.5 -11.5z" />
    <glyph glyph-name="notequal" unicode="&#x2260;" 
d="M572 401h-196l-76 -144h247l-5 -26h-256l-72 -135h-24l72 135h-190l5 26h198l77 144h-250l4 26h260l69 131h25l-70 -131h186z" />
    <glyph glyph-name="lessequal" unicode="&#x2264;" 
d="M513 139l-425 230l5 22l505 230l-5 -31l-468 -211l394 -212zM52 26h460l-4 -26h-460z" />
    <glyph glyph-name="greaterequal" unicode="&#x2265;" 
d="M531 382l-468 -211l-5 -32l506 230l4 22l-425 230l-6 -28zM498 0l5 26h-460l-5 -26h460z" />
    <glyph glyph-name="uni2460" unicode="&#x2460;" 
d="M294 -13q-59 0 -108 17.5t-89.5 55.5t-56 108t0.5 164l17 104q7 42 19 79t36 76.5t56 67.5t82 46t111 18q45 0 84.5 -10t78 -33.5t61.5 -63t34 -98.5t-5 -139l-17 -105q-9 -55 -27.5 -101t-52.5 -90.5t-91 -70t-133 -25.5zM298 12q67 0 118.5 24.5t82 65.5t47.5 83.5
t25 90.5l18 104q14 73 5 127t-29 90.5t-54.5 59t-71 32t-78.5 9.5q-54 0 -98.5 -16.5t-73.5 -42.5t-50.5 -62t-33 -70t-18.5 -72l-18 -104q-15 -75 -5.5 -129.5t30 -91t56 -58.5t71.5 -31t77 -9zM211 184h185l4 25h-77l57 318h-24q-23 -51 -71 -51h-5l-5 -26h6q43 0 62 29
l-48 -270h-80z" />
    <glyph glyph-name="uni2461" unicode="&#x2461;" 
d="M294 -13q-59 0 -108 17.5t-89.5 55.5t-56 108t0.5 164l17 104q7 42 19 79t36 76.5t56 67.5t82 46t111 18q45 0 84.5 -10t78 -33.5t61.5 -63t34 -98.5t-5 -139l-17 -105q-9 -55 -27.5 -101t-52.5 -90.5t-91 -70t-133 -25.5zM298 12q67 0 118.5 24.5t82 65.5t47.5 83.5
t25 90.5l18 104q14 73 5 127t-29 90.5t-54.5 59t-71 32t-78.5 9.5q-54 0 -98.5 -16.5t-73.5 -42.5t-50.5 -62t-33 -70t-18.5 -72l-18 -104q-15 -75 -5.5 -129.5t30 -91t56 -58.5t71.5 -31t77 -9zM213 180l2 19q184 168 184 255q0 52 -49 52q-60 0 -58 -84l-28 3q-2 47 20 76
t66 29q79 0 79 -73q0 -51 -43 -111t-127 -142h126l-5 -24h-167z" />
    <glyph glyph-name="uni2462" unicode="&#x2462;" 
d="M294 -13q-59 0 -108 17.5t-89.5 55.5t-56 108t0.5 164l17 104q7 42 19 79t36 76.5t56 67.5t82 46t111 18q45 0 84.5 -10t78 -33.5t61.5 -63t34 -98.5t-5 -139l-17 -105q-9 -55 -27.5 -101t-52.5 -90.5t-91 -70t-133 -25.5zM298 12q67 0 118.5 24.5t82 65.5t47.5 83.5
t25 90.5l18 104q14 73 5 127t-29 90.5t-54.5 59t-71 32t-78.5 9.5q-54 0 -98.5 -16.5t-73.5 -42.5t-50.5 -62t-33 -70t-18.5 -72l-18 -104q-15 -75 -5.5 -129.5t30 -91t56 -58.5t71.5 -31t77 -9zM305 177q-43 0 -62.5 25.5t-7.5 77.5l29 2q-18 -82 41 -82q37 0 53 27.5
t16 66.5q0 57 -42 57h-21l3 23h20q34 0 50 26.5t16 57.5q0 54 -49 54q-53 0 -59 -73l-28 2q6 94 87 94q78 0 78 -75q0 -34 -17 -62t-54 -36q43 -6 43 -71q0 -114 -96 -114z" />
    <glyph glyph-name="uni2463" unicode="&#x2463;" 
d="M294 -13q-59 0 -108 17.5t-89.5 55.5t-56 108t0.5 164l17 104q7 42 19 79t36 76.5t56 67.5t82 46t111 18q45 0 84.5 -10t78 -33.5t61.5 -63t34 -98.5t-5 -139l-17 -105q-9 -55 -27.5 -101t-52.5 -90.5t-91 -70t-133 -25.5zM298 12q67 0 118.5 24.5t82 65.5t47.5 83.5
t25 90.5l18 104q14 73 5 127t-29 90.5t-54.5 59t-71 32t-78.5 9.5q-54 0 -98.5 -16.5t-73.5 -42.5t-50.5 -62t-33 -70t-18.5 -72l-18 -104q-15 -75 -5.5 -129.5t30 -91t56 -58.5t71.5 -31t77 -9zM397 270h-42l-15 -86h-27l15 86h-123l3 19l161 239h31l-41 -238h41zM372 497
l-138 -207h98z" />
    <glyph glyph-name="uni2464" unicode="&#x2464;" 
d="M294 -13q-59 0 -108 17.5t-89.5 55.5t-56 108t0.5 164l17 104q7 42 19 79t36 76.5t56 67.5t82 46t111 18q45 0 84.5 -10t78 -33.5t61.5 -63t34 -98.5t-5 -139l-17 -105q-9 -55 -27.5 -101t-52.5 -90.5t-91 -70t-133 -25.5zM298 12q67 0 118.5 24.5t82 65.5t47.5 83.5
t25 90.5l18 104q14 73 5 127t-29 90.5t-54.5 59t-71 32t-78.5 9.5q-54 0 -98.5 -16.5t-73.5 -42.5t-50.5 -62t-33 -70t-18.5 -72l-18 -104q-15 -75 -5.5 -129.5t30 -91t56 -58.5t71.5 -31t77 -9zM304 180q-89 0 -73 92l28 2q-13 -71 47 -71q25 0 41.5 22.5t22 49t5.5 53.5
q0 67 -43 67q-21 0 -37 -14t-22 -40l-28 1l42 189h143l-4 -24h-119l-30 -130q17 38 64 38q62 0 62 -86q0 -27 -4.5 -51t-15.5 -47t-31 -37t-48 -14z" />
    <glyph glyph-name="uni2465" unicode="&#x2465;" 
d="M362 723q45 0 84.5 -10t78 -33.5t61.5 -63t34 -98.5t-5 -139l-17 -105q-9 -55 -27.5 -101t-52.5 -90.5t-91 -70t-133 -25.5q-59 0 -108 17.5t-89.5 55.5t-56 108t0.5 164l17 104q7 42 19 79t36 76.5t56 67.5t82 46t111 18zM589 380q14 73 5 127t-29 90.5t-54.5 59t-71 32
t-78.5 9.5q-54 0 -98.5 -16.5t-73.5 -42.5t-50.5 -62t-33 -70t-18.5 -72l-18 -104q-15 -75 -5.5 -129.5t30 -91t56 -58.5t71.5 -31t77 -9q67 0 118.5 24.5t82 65.5t47.5 83.5t25 90.5zM347 535q84 0 69 -89l-28 -3q12 69 -39 69q-59 0 -82 -136q26 36 63 36q73 0 73 -92
q0 -21 -3.5 -42t-12.5 -46t-30 -40t-51 -15q-77 0 -77 95q0 30 4 66.5t15 85t36.5 80t62.5 31.5zM325 391q-19 0 -33 -11t-30 -35q-5 -41 -5 -74q0 -71 50 -71q20 0 34.5 13t20.5 33.5t8.5 38t2.5 34.5q0 72 -48 72z" />
    <glyph glyph-name="uni2466" unicode="&#x2466;" 
d="M294 -13q-59 0 -108 17.5t-89.5 55.5t-56 108t0.5 164l17 104q7 42 19 79t36 76.5t56 67.5t82 46t111 18q45 0 84.5 -10t78 -33.5t61.5 -63t34 -98.5t-5 -139l-17 -105q-9 -55 -27.5 -101t-52.5 -90.5t-91 -70t-133 -25.5zM298 12q67 0 118.5 24.5t82 65.5t47.5 83.5
t25 90.5l18 104q14 73 5 127t-29 90.5t-54.5 59t-71 32t-78.5 9.5q-54 0 -98.5 -16.5t-73.5 -42.5t-50.5 -62t-33 -70t-18.5 -72l-18 -104q-15 -75 -5.5 -129.5t30 -91t56 -58.5t71.5 -31t77 -9zM273 184l2 12q15 97 44.5 163.5t96.5 145.5h-138l3 23h168l-4 -20
q-66 -76 -97.5 -148t-41.5 -158l-2 -18h-31z" />
    <glyph glyph-name="uni2467" unicode="&#x2467;" 
d="M362 723q45 0 84.5 -10t78 -33.5t61.5 -63t34 -98.5t-5 -139l-17 -105q-9 -55 -27.5 -101t-52.5 -90.5t-91 -70t-133 -25.5q-59 0 -108 17.5t-89.5 55.5t-56 108t0.5 164l17 104q7 42 19 79t36 76.5t56 67.5t82 46t111 18zM589 380q14 73 5 127t-29 90.5t-54.5 59t-71 32
t-78.5 9.5q-54 0 -98.5 -16.5t-73.5 -42.5t-50.5 -62t-33 -70t-18.5 -72l-18 -104q-15 -75 -5.5 -129.5t30 -91t56 -58.5t71.5 -31t77 -9q67 0 118.5 24.5t82 65.5t47.5 83.5t25 90.5zM428 460q0 -71 -71 -94q47 -27 47 -82q0 -45 -21.5 -76t-72.5 -31q-82 0 -82 82
q0 39 20 67.5t62 37.5q-44 23 -44 74q0 42 21.5 69.5t65.5 27.5q31 0 53 -17t22 -58zM339 374q61 22 61 85q0 55 -48 55q-32 0 -45.5 -25t-13.5 -55q0 -38 38 -56zM311 200q35 0 49 26t14 58q0 48 -37 67l-10 5q-69 -17 -69 -94q0 -62 53 -62z" />
    <glyph glyph-name="uni2468" unicode="&#x2468;" 
d="M362 723q45 0 84.5 -10t78 -33.5t61.5 -63t34 -98.5t-5 -139l-17 -105q-9 -55 -27.5 -101t-52.5 -90.5t-91 -70t-133 -25.5q-59 0 -108 17.5t-89.5 55.5t-56 108t0.5 164l17 104q7 42 19 79t36 76.5t56 67.5t82 46t111 18zM589 380q14 73 5 127t-29 90.5t-54.5 59t-71 32
t-78.5 9.5q-54 0 -98.5 -16.5t-73.5 -42.5t-50.5 -62t-33 -70t-18.5 -72l-18 -104q-15 -75 -5.5 -129.5t30 -91t56 -58.5t71.5 -31t77 -9q67 0 118.5 24.5t82 65.5t47.5 83.5t25 90.5zM350 535q77 0 77 -105q0 -28 -3.5 -62t-14 -81.5t-36 -78.5t-62.5 -31q-86 0 -72 91
l28 3q-12 -71 44 -71q63 0 83 155q-27 -43 -69 -43q-69 0 -69 82q0 32 7 61.5t29.5 54.5t57.5 25zM332 332q40 0 65 56q2 19 2 43q0 80 -49 80q-35 0 -50 -36.5t-15 -79.5q0 -63 47 -63z" />
    <glyph glyph-name="uni24EA" unicode="&#x24ea;" 
d="M294 -13q-59 0 -108 17.5t-89.5 55.5t-56 108t0.5 164l17 104q7 42 19 79t36 76.5t56 67.5t82 46t111 18q45 0 84.5 -10t78 -33.5t61.5 -63t34 -98.5t-5 -139l-17 -105q-9 -55 -27.5 -101t-52.5 -90.5t-91 -70t-133 -25.5zM298 12q67 0 118.5 24.5t82 65.5t47.5 83.5
t25 90.5l18 104q14 73 5 127t-29 90.5t-54.5 59t-71 32t-78.5 9.5q-54 0 -98.5 -16.5t-73.5 -42.5t-50.5 -62t-33 -70t-18.5 -72l-18 -104q-15 -75 -5.5 -129.5t30 -91t56 -58.5t71.5 -31t77 -9zM304 177q-76 0 -76 105q0 35 5.5 73.5t17.5 81.5t38.5 70.5t62.5 27.5
q76 0 76 -108q0 -36 -5.5 -74.5t-18 -80.5t-38.5 -68.5t-62 -26.5zM305 201q25 0 44.5 24.5t29.5 62t15 73t5 65.5q0 85 -48 85q-26 0 -46 -26t-29.5 -65t-14 -74t-4.5 -63q0 -82 48 -82z" />
    <glyph glyph-name="uni24FF" unicode="&#x24ff;" 
d="M293 -12q-47 0 -88 11t-78 35.5t-59.5 65t-32 98.5t5.5 136l17 102q7 42 19.5 79.5t36.5 76.5t56 67t82 45.5t111 17.5q57 0 106 -17t89.5 -54t56.5 -108t0 -167l-17 -102q-10 -56 -29 -102.5t-53 -90t-91 -68.5t-132 -25zM304 177q35 0 61 26.5t38.5 68.5t18 80.5
t5.5 74.5q0 108 -76 108q-36 0 -62 -27.5t-38 -70.5t-17.5 -81.5t-5.5 -73.5q0 -105 76 -105zM305 201q-48 0 -48 82q0 28 4.5 63t14 74t29.5 65t46 26q48 0 48 -85q0 -30 -5 -65.5t-15 -73t-29.5 -62t-44.5 -24.5z" />
    <glyph glyph-name="lozenge" unicode="&#x25ca;" 
d="M277 -17h-26l-138 372l267 372h26l139 -372zM388 695l-244 -340l125 -340l245 340z" />
    <glyph glyph-name="circle" unicode="&#x25cb;" 
d="M274 -17q-117 0 -168 76t-26 213l34 191q24 134 88 199t173 65q116 0 167 -76t27 -213l-35 -191q-46 -264 -260 -264zM275 5q99 0 156.5 59.5t79.5 182.5l33 191q23 126 -22 197t-148 70q-99 0 -157 -59.5t-80 -182.5l-33 -191q-23 -126 22.5 -197t148.5 -70z" />
    <glyph glyph-name="uni2776" unicode="&#x2776;" 
d="M293 -12q-47 0 -88 11t-78 35.5t-59.5 65t-32 98.5t5.5 136l17 102q7 42 19.5 79.5t36.5 76.5t56 67t82 45.5t111 17.5q57 0 106 -17t89.5 -54t56.5 -108t0 -167l-17 -102q-10 -56 -29 -102.5t-53 -90t-91 -68.5t-132 -25zM211 184h185l4 25h-77l57 318h-24
q-23 -51 -71 -51h-5l-5 -26h6q43 0 62 29l-48 -270h-80z" />
    <glyph glyph-name="uni2777" unicode="&#x2777;" 
d="M293 -12q-47 0 -88 11t-78 35.5t-59.5 65t-32 98.5t5.5 136l17 102q7 42 19.5 79.5t36.5 76.5t56 67t82 45.5t111 17.5q57 0 106 -17t89.5 -54t56.5 -108t0 -167l-17 -102q-10 -56 -29 -102.5t-53 -90t-91 -68.5t-132 -25zM213 180h167l5 24h-126q84 82 127 142t43 111
q0 73 -79 73q-44 0 -66 -29t-20 -76l28 -3q-2 84 58 84q49 0 49 -52q0 -87 -184 -255z" />
    <glyph glyph-name="uni2778" unicode="&#x2778;" 
d="M293 -12q-47 0 -87.5 11t-78 35.5t-59.5 65t-32 98.5t5 136l17 102q7 42 19.5 79.5t36.5 76.5t56 67t82 45.5t111 17.5q45 0 84.5 -10t78 -34t61 -63.5t33 -98.5t-4.5 -140l-17 -102q-7 -43 -20 -81.5t-37 -77t-56.5 -66t-81.5 -44.5t-110 -17zM305 177q96 0 96 114
q0 65 -43 71q37 8 54 36t17 62q0 75 -78 75q-81 0 -87 -94l28 -2q6 73 59 73q49 0 49 -54q0 -31 -16 -57.5t-50 -26.5h-20l-3 -23h21q42 0 42 -57q0 -39 -16 -66.5t-53 -27.5q-59 0 -41 82l-29 -2q-12 -52 7.5 -77.5t62.5 -25.5z" />
    <glyph glyph-name="uni2779" unicode="&#x2779;" 
d="M293 -12q-47 0 -88 11t-78 35.5t-59.5 65t-32 98.5t5.5 136l17 102q7 42 19.5 79.5t36.5 76.5t56 67t82 45.5t111 17.5q57 0 106 -17t89.5 -54t56.5 -108t0 -167l-17 -102q-10 -56 -29 -102.5t-53 -90t-91 -68.5t-132 -25zM313 184h27l15 86h42l3 20h-41l41 238h-31
l-161 -239l-3 -19h123zM234 290l138 207l-40 -207h-98z" />
    <glyph glyph-name="uni277A" unicode="&#x277a;" 
d="M293 -12q-47 0 -88 11t-78 35.5t-59.5 65t-32 98.5t5.5 136l17 102q7 42 19.5 79.5t36.5 76.5t56 67t82 45.5t111 17.5q57 0 106 -17t89.5 -54t56.5 -108t0 -167l-17 -102q-10 -56 -29 -102.5t-53 -90t-91 -68.5t-132 -25zM304 180q28 0 48 14t31 37t15.5 47t4.5 51
q0 86 -62 86q-47 0 -64 -38l30 130h119l4 24h-143l-42 -189l28 -1q6 26 22 40t37 14q43 0 43 -67q0 -27 -5.5 -53.5t-22 -49t-41.5 -22.5q-60 0 -47 71l-28 -2q-16 -92 73 -92z" />
    <glyph glyph-name="uni277B" unicode="&#x277b;" 
d="M293 -12q-47 0 -88 11t-78 35.5t-59.5 65t-32 98.5t5.5 136l17 102q7 42 19.5 79.5t36.5 76.5t56 67t82 45.5t111 17.5q57 0 106 -17t89.5 -54t56.5 -108t0 -167l-17 -102q-10 -56 -29 -102.5t-53 -90t-91 -68.5t-132 -25zM310 177q30 0 51 15t30 40t12.5 46t3.5 42
q0 92 -73 92q-37 0 -63 -37q23 137 82 137q51 0 39 -69l28 3q8 42 -9 65.5t-59 23.5q-37 0 -62.5 -31.5t-36.5 -80t-15 -85t-4 -66.5q0 -95 76 -95zM311 200q-38 0 -47 42.5t2 100.5q16 25 30 36.5t33 11.5q49 0 49 -72q0 -24 -4 -47.5t-20 -47.5t-43 -24z" />
    <glyph glyph-name="uni277C" unicode="&#x277c;" 
d="M293 -12q-47 0 -88 11t-78 35.5t-59.5 65t-32 98.5t5.5 136l17 102q7 42 19.5 79.5t36.5 76.5t56 67t82 45.5t111 17.5q57 0 106 -17t89.5 -54t56.5 -108t0 -167l-17 -102q-10 -56 -29 -102.5t-53 -90t-91 -68.5t-132 -25zM270 184h31l2 18q10 86 41.5 158t97.5 148l4 20
h-168l-3 -23h138q-67 -79 -96.5 -145.5t-44.5 -163.5z" />
    <glyph glyph-name="uni277D" unicode="&#x277d;" 
d="M293 -12q-47 0 -88 11t-78 35.5t-59.5 65t-32 98.5t5.5 136l17 102q7 42 19.5 79.5t36.5 76.5t56 67t82 45.5t111 17.5q57 0 106 -17t89.5 -54t56.5 -108t0 -167l-17 -102q-10 -56 -29 -102.5t-53 -90t-91 -68.5t-132 -25zM310 177q50 0 71.5 31.5t21.5 75.5q0 57 -46 81
q71 24 71 95q0 41 -22 58t-54 17q-44 0 -65.5 -27.5t-21.5 -69.5q0 -50 44 -73q-81 -20 -81 -106q0 -82 82 -82zM339 374l-8 4q-38 18 -38 56q0 30 13.5 55t45.5 25q19 0 33.5 -12t14.5 -43q0 -62 -61 -85zM310 200q-52 0 -52 62q0 78 69 94l10 -5q36 -18 36 -67
q0 -33 -14 -58.5t-49 -25.5z" />
    <glyph glyph-name="uni277E" unicode="&#x277e;" 
d="M293 -12q-47 0 -88 11t-78 35.5t-59.5 65t-32 98.5t5.5 136l17 102q7 42 19.5 79.5t36.5 76.5t56 67t82 45.5t111 17.5q57 0 106 -17t89.5 -54t56.5 -108t0 -167l-17 -102q-10 -56 -29 -102.5t-53 -90t-91 -68.5t-132 -25zM309 177q37 0 62.5 31t36 78.5t14 81.5t3.5 62
q0 105 -78 105q-34 0 -56.5 -25t-29.5 -54.5t-7 -61.5q0 -82 69 -82q41 0 68 42q-18 -154 -83 -154q-55 0 -43 71l-28 -3q-14 -91 72 -91zM329 332q-46 0 -46 63q0 25 4.5 49t20 45.5t39.5 21.5q35 0 44 -33t4 -92q-27 -54 -66 -54z" />
    <glyph glyph-name="uniE000" unicode="&#xe000;" 
d="M38 102h74l107 608h413l-4 -23h-389l-103 -585h73l-105 -115z" />
    <glyph glyph-name="g.ss01" 
d="M233 -207q-165 0 -190 133h31q25 -107 156 -107q53 0 90 14t58.5 43t33 59.5t20.5 76.5l23 120q-60 -144 -196 -144q-76 0 -131.5 54t-55.5 166q0 41 8 82t26.5 81.5t45.5 71.5t69 50t93 19q74 0 122.5 -40t59.5 -111l29 139h24l-87 -491q-18 -107 -70.5 -161.5
t-158.5 -54.5zM264 15q85 0 137.5 59.5t69.5 146.5l4 18q21 108 -22 177t-135 69q-72 0 -122.5 -44t-71.5 -104t-21 -127q0 -103 48.5 -149t112.5 -46z" />
    <glyph glyph-name="gbreve.ss01" 
d="M260 720q-1 -63 25 -93t83 -30q48 0 84 34.5t43 88.5h26q-13 -74 -56 -109.5t-98 -35.5q-138 0 -133 145h26zM233 -207q-165 0 -190 133h31q25 -107 156 -107q53 0 90 14t58.5 43t33 59.5t20.5 76.5l23 120q-60 -144 -196 -144q-76 0 -131.5 54t-55.5 166q0 41 8 82
t26.5 81.5t45.5 71.5t69 50t93 19q74 0 122.5 -40t59.5 -111l29 139h24l-87 -491q-18 -107 -70.5 -161.5t-158.5 -54.5zM264 15q85 0 137.5 59.5t69.5 146.5l4 18q21 108 -22 177t-135 69q-72 0 -122.5 -44t-71.5 -104t-21 -127q0 -103 48.5 -149t112.5 -46z" />
    <glyph glyph-name="gcircumflex.ss01" 
d="M492 580h-29l-75 116l-116 -116h-34l139 140h26zM233 -207q-165 0 -190 133h31q25 -107 156 -107q53 0 90 14t58.5 43t33 59.5t20.5 76.5l23 120q-60 -144 -196 -144q-76 0 -131.5 54t-55.5 166q0 41 8 82t26.5 81.5t45.5 71.5t69 50t93 19q74 0 122.5 -40t59.5 -111
l29 139h24l-87 -491q-18 -107 -70.5 -161.5t-158.5 -54.5zM264 15q85 0 137.5 59.5t69.5 146.5l4 18q21 108 -22 177t-135 69q-72 0 -122.5 -44t-71.5 -104t-21 -127q0 -103 48.5 -149t112.5 -46z" />
    <glyph glyph-name="gcommaaccent.ss01" 
d="M401 750l12 -12q-27 -17 -33 -54h32l-15 -81h-52l9 53q13 69 47 94zM233 -207q-165 0 -190 133h31q25 -107 156 -107q53 0 90 14t58.5 43t33 59.5t20.5 76.5l23 120q-60 -144 -196 -144q-76 0 -131.5 54t-55.5 166q0 41 8 82t26.5 81.5t45.5 71.5t69 50t93 19
q74 0 122.5 -40t59.5 -111l29 139h24l-87 -491q-18 -107 -70.5 -161.5t-158.5 -54.5zM264 15q85 0 137.5 59.5t69.5 146.5l4 18q21 108 -22 177t-135 69q-72 0 -122.5 -44t-71.5 -104t-21 -127q0 -103 48.5 -149t112.5 -46z" />
    <glyph glyph-name="gdotaccent.ss01" 
d="M414 725l-22 -124h-52l21 124h53zM233 -207q-165 0 -190 133h31q25 -107 156 -107q53 0 90 14t58.5 43t33 59.5t20.5 76.5l23 120q-60 -144 -196 -144q-76 0 -131.5 54t-55.5 166q0 41 8 82t26.5 81.5t45.5 71.5t69 50t93 19q74 0 122.5 -40t59.5 -111l29 139h24
l-87 -491q-18 -107 -70.5 -161.5t-158.5 -54.5zM264 15q85 0 137.5 59.5t69.5 146.5l4 18q21 108 -22 177t-135 69q-72 0 -122.5 -44t-71.5 -104t-21 -127q0 -103 48.5 -149t112.5 -46z" />
    <glyph glyph-name="g.sups.ss01" 
d="M312 159q-128 0 -146 98h27q18 -77 118 -77q74 0 104.5 34.5t44.5 103.5l17 87q-46 -103 -148 -103q-58 0 -100.5 39.5t-42.5 120.5q0 52 16.5 100t59.5 85t106 37q57 0 94 -29.5t45 -80.5l21 101h22l-63 -358q-14 -79 -53.5 -118.5t-121.5 -39.5zM335 324q63 0 101 42
t53 105l3 15q16 76 -17 126t-101 50q-79 0 -119.5 -60.5t-40.5 -137.5q0 -74 36.5 -107t84.5 -33z" />
    <glyph glyph-name="a.sups" 
d="M488 446q-15 -91 -16 -136h-28q4 54 10 89q-47 -98 -154 -98q-53 0 -83 26t-30 72q0 103 150 114l137 11l4 27q6 52 -16.5 82t-78.5 30q-109 0 -126 -100h-28q9 59 48.5 90t105.5 31q123 0 123 -112q0 -23 -4 -44zM472 505l-132 -10q-124 -11 -124 -94q0 -37 24.5 -58
t67.5 -21q59 0 102 40t55 105z" />
    <glyph glyph-name="b.sups" 
d="M279 839l-47 -261q19 51 58.5 78.5t90.5 27.5q66 0 101 -42.5t35 -109.5q0 -99 -51.5 -165t-134.5 -66q-49 0 -86 29.5t-43 79.5l-21 -100h-22l93 529h27zM215 485q-12 -71 20.5 -116t94.5 -45q71 0 114.5 59t43.5 148q0 59 -29.5 95t-85.5 36q-64 0 -104 -46t-52 -116z
" />
    <glyph glyph-name="c.sups" 
d="M342 301q-64 0 -107 39t-43 121q0 39 10.5 76t31.5 71t59.5 55t89.5 21q64 0 103 -33.5t36 -96.5l-26 -2q1 56 -30.5 82.5t-82.5 26.5q-44 0 -77.5 -19t-51 -50.5t-25.5 -64t-8 -65.5q0 -71 34.5 -104.5t87.5 -33.5q104 0 132 109l27 -3q-32 -129 -160 -129z" />
    <glyph glyph-name="d.sups" 
d="M456 310l19 99q-20 -52 -59.5 -80t-87.5 -28q-67 0 -103 42.5t-36 109.5q0 99 51 164.5t135 65.5q49 0 85.5 -28t42.5 -78l46 262h27l-93 -529h-27zM491 500q13 70 -20 116t-95 46q-71 0 -114.5 -59.5t-43.5 -148.5q0 -59 30.5 -95t86.5 -36q61 0 100.5 45t51.5 113z" />
    <glyph glyph-name="e.sups" 
d="M222 494q-3 -20 -3 -39l-1 -3q0 -60 32.5 -94t90.5 -34q97 0 132 100l23 -6q-38 -117 -158 -117q-69 0 -107.5 40.5t-38.5 118.5q0 92 51 158t139 66q61 0 99 -33.5t38 -97.5q0 -24 -7 -59h-290zM383 663q-62 0 -103.5 -41t-54.5 -109h265q3 19 3 38q0 58 -31.5 85
t-78.5 27z" />
    <glyph glyph-name="f.sups" 
d="M537 675l-4 -21h-153l-60 -344h-27l60 344h-124l3 21h125l10 55q20 111 146 111q32 0 53 -4l-4 -22q-14 3 -51 3q-53 0 -81 -21.5t-36 -68.5l-9 -53h152z" />
    <glyph glyph-name="g.sups" 
d="M543 724h14l-4 -24q-4 2 -14 2q-59 0 -82 -49q36 -31 36 -84q0 -55 -40 -90.5t-103 -35.5q-48 0 -80 20q-25 -3 -42 -18.5t-17 -37.5q0 -19 14.5 -32.5t43.5 -13.5h106q51 -1 80 -25.5t29 -64.5q0 -50 -45.5 -81t-134.5 -31q-80 0 -121.5 25.5t-41.5 68.5q0 36 25 58.5
t61 31.5q-42 14 -42 58q0 26 20.5 44.5t53.5 25.5q-39 31 -39 87q0 55 39 90.5t103 35.5q48 0 82 -21q14 29 41.5 45t57.5 16zM466 569q0 44 -29 69.5t-76 25.5q-51 0 -83 -29t-32 -76q0 -45 29 -70.5t76 -25.5q52 0 83.5 29t31.5 77zM369 337h-106q-12 0 -18 1
q-77 -19 -77 -77q0 -38 34.5 -60t106.5 -22q76 0 112 24.5t36 64.5q0 34 -24.5 51.5t-63.5 17.5z" />
    <glyph glyph-name="h.sups" 
d="M246 577q44 107 153 107q58 0 89 -32q36 -39 20 -123l-39 -219h-28l40 221q24 130 -91 130q-63 0 -104 -44.5t-53 -111.5l-34 -195h-28l93 529h28z" />
    <glyph glyph-name="i.sups" 
d="M425 839l-16 -93h-43l17 93h42zM172 310l3 23h132l57 320h-123l3 22h151l-60 -342h138l-3 -23h-298z" />
    <glyph glyph-name="j.sups" 
d="M518 839l-16 -93h-44l17 93h43zM194 181l4 23q38 -17 86 -17q44 0 69.5 18.5t33.5 63.5l69 384h-146l4 22h172l-72 -409q-20 -103 -130 -103q-56 0 -90 18z" />
    <glyph glyph-name="k.sups" 
d="M526 675l-167 -133l116 -232h-31l-108 216l-120 -94l-21 -122h-27l93 529h27l-66 -375l269 211h35z" />
    <glyph glyph-name="l.sups" 
d="M172 310l3 23h137l86 484h-122l4 22h149l-90 -506h134l-3 -23h-298z" />
    <glyph glyph-name="m.sups" 
d="M134 310l64 365h24l-15 -85q33 94 103 94q36 0 55 -22t15 -58q29 80 102 80q35 0 54.5 -20.5t19.5 -59.5q0 -18 -5 -47l-43 -247h-25l42 242q20 110 -53 110q-35 0 -60.5 -27.5t-33.5 -70.5l-45 -254h-25l43 241q21 111 -48 111q-39 0 -66.5 -36.5t-38.5 -97.5l-38 -218
h-26z" />
    <glyph glyph-name="n.sups" 
d="M245 577q45 107 154 107q55 0 85 -28t30 -79q0 -20 -6 -47l-38 -220h-28l40 221q11 61 -12 95.5t-80 34.5q-59 0 -101.5 -42t-55.5 -114l-34 -195h-27l64 365h26z" />
    <glyph glyph-name="o.sups" 
d="M332 301q-71 0 -111 40t-40 112q0 103 52 167t139 64q72 0 112.5 -40t40.5 -112q0 -102 -52.5 -166.5t-140.5 -64.5zM333 324q74 0 118.5 57.5t44.5 150.5q0 61 -33 95t-92 34q-74 0 -118.5 -57.5t-44.5 -150.5q0 -61 33 -95t92 -34z" />
    <glyph glyph-name="p.sups" 
d="M249 675l-17 -102q19 53 59 82t92 29q66 0 100 -43t34 -115q0 -93 -51 -159t-133 -66q-52 0 -87.5 28.5t-41.5 77.5l-43 -239h-27l90 507h25zM216 485q-3 -20 -3 -35q0 -58 32 -92t85 -34q71 0 115 58.5t44 141.5q0 65 -29.5 101.5t-85.5 36.5q-64 0 -104.5 -46
t-51.5 -116z" />
    <glyph glyph-name="q.sups" 
d="M430 168l44 240q-20 -52 -59 -79.5t-88 -27.5q-67 0 -102.5 43t-35.5 116q0 92 51 157.5t132 65.5q52 0 87.5 -28t44.5 -77l19 97h24l-90 -507h-27zM491 500q3 19 3 37q0 55 -32 90t-85 35q-71 0 -115 -59.5t-44 -142.5q0 -64 29.5 -100.5t84.5 -36.5q63 0 103.5 45
t51.5 113z" />
    <glyph glyph-name="r.sups" 
d="M254 532q34 83 87 116.5t108 33.5q44 0 67 -13l-5 -24q-22 14 -70 14q-72 0 -128 -59t-74 -158l-23 -132h-27l64 365h26z" />
    <glyph glyph-name="s.sups" 
d="M346 301q-67 0 -109.5 28.5t-46.5 81.5l25 7q5 -45 38.5 -70t93.5 -25q53 0 82 23t29 63q0 57 -70 72l-68 13q-84 16 -84 86q0 50 38.5 77t95.5 27q63 0 100 -27t40 -73l-23 -6q-9 85 -118 85q-47 0 -76.5 -21t-29.5 -61q0 -25 15.5 -41.5t54.5 -24.5l68 -13
q84 -16 84 -90q0 -51 -37 -81t-102 -30z" />
    <glyph glyph-name="t.sups" 
d="M235 654l3 21h114l16 99l30 11l-20 -110h153l-3 -21h-154l-41 -233q-9 -48 14 -71t68 -23q30 0 56 9l-4 -22q-25 -10 -61 -10q-54 0 -81.5 29t-17.5 87l40 234h-112z" />
    <glyph glyph-name="u.sups" 
d="M457 400q-19 -43 -57.5 -71t-88.5 -28q-61 0 -92 35q-35 40 -21 117l40 222h27l-39 -221q-12 -70 16 -100t80 -30q58 0 97 43.5t50 100.5l36 207h27l-64 -365h-27z" />
    <glyph glyph-name="v.sups" 
d="M306 310l-98 365h29l76 -290q3 -12 6.5 -29t4.5 -20h2q3 5 12 20.5t16 27.5l178 291h29l-223 -365h-32z" />
    <glyph glyph-name="w.sups" 
d="M179 675h25l18 -288q1 -6 1.5 -13.5t1 -17t0.5 -14.5h2q7 21 17 46l127 287h23l26 -287q2 -28 2 -46h3q1 3 17 45l123 288h26l-159 -365h-27l-25 292q-1 15 -1 40h-2q-2 -5 -7.5 -18.5t-8.5 -21.5l-128 -292h-27z" />
    <glyph glyph-name="x.sups" 
d="M354 483l-163 -173h-32l181 193l-107 172h30l95 -156l148 156h32l-168 -174l113 -191h-29z" />
    <glyph glyph-name="y.sups" 
d="M253 675l77 -339l187 339h28l-223 -402q-36 -65 -64.5 -87.5t-75.5 -22.5q-28 0 -39 5l4 23q10 -5 41 -5q20 0 36.5 7t30 22.5t22 28.5t21.5 38l14 25l-88 368h29z" />
    <glyph glyph-name="z.sups" 
d="M183 331l298 322h-230l3 22h264l-3 -19l-298 -324h249l-4 -22h-282z" />
    <glyph glyph-name="nine.001" horiz-adv-x="290" 
d="M175 412q48 0 75 -38t27 -137q0 -34 -6 -71t-20 -79t-45 -69t-73 -27q-39 0 -69 24t-29 82l29 4q-1 -45 20.5 -64.5t50.5 -19.5q92 0 112 207q-30 -74 -94 -74q-39 0 -66.5 31t-27.5 93q0 53 28 95.5t88 42.5zM159 174q29 0 53 24t37 63q4 126 -75 126q-44 0 -65 -34.5
t-21 -78.5q0 -53 21 -76.5t50 -23.5z" />
    <glyph glyph-name="zero.case" 
d="M357 727q217 0 217 -264q0 -220 -69 -349t-205 -129q-217 0 -217 262q0 221 69 350.5t205 129.5zM357 699q-121 0 -182 -122.5t-61 -329.5q0 -57 12 -102l397 446q-41 108 -166 108zM300 13q121 0 182 122t61 328q0 55 -11 102l-398 -445q40 -107 166 -107z" />
    <glyph glyph-name="one.case" 
d="M302 27h192l-5 -27h-425l5 27h203l107 621q-25 -31 -83 -57t-100 -26h-26l5 28h17q54 0 119 36t85 81h24z" />
    <glyph glyph-name="two.case" 
d="M44 29q241 182 334 272q79 71 112.5 123t33.5 120q0 70 -46.5 113t-123.5 43q-46 0 -86 -15t-70.5 -57.5t-30.5 -106.5q0 -34 5 -56l-31 2q-6 16 -6 49q0 57 19 99.5t51.5 66t70 34.5t81.5 11q86 0 141.5 -49t55.5 -131q0 -67 -31.5 -120.5t-118.5 -137.5
q-48 -48 -152 -131t-169 -130h408l-5 -28h-447z" />
    <glyph glyph-name="three.case" 
d="M287 384h50q77 0 133 41.5t56 128.5q0 68 -43 107t-112 39q-93 0 -143 -52.5t-56 -148.5l-29 3q8 107 66 166t165 59q80 0 131.5 -45.5t51.5 -120.5q0 -79 -45 -131.5t-118 -60.5q57 -9 92.5 -55t35.5 -108q0 -100 -60.5 -160.5t-166.5 -60.5q-102 0 -157 55.5t-56 161.5
l31 2q3 -95 50.5 -143.5t133.5 -48.5q89 0 141 49t52 144q0 57 -36.5 104t-116.5 47h-54z" />
    <glyph glyph-name="four.case" 
d="M564 201h-130l-35 -201h-30l35 201h-354l4 25l438 484h30l-84 -482h131zM408 228l76 438q-30 -35 -69 -78l-252 -278q-47 -53 -75 -82h320z" />
    <glyph glyph-name="five.case" 
d="M585 710l-4 -28h-342l-90 -330q62 122 196 122q87 0 141 -51.5t54 -148.5q0 -129 -67.5 -209t-190.5 -80q-88 0 -146.5 49.5t-57.5 133.5l31 2q1 -70 49.5 -114t126.5 -44q104 0 163.5 67.5t59.5 191.5q0 82 -45.5 128.5t-128.5 46.5q-77 0 -123.5 -42.5t-68.5 -103.5
l-30 4l108 406h365z" />
    <glyph glyph-name="six.case" 
d="M383 700q-85 0 -144.5 -56.5t-87 -142.5t-30.5 -194q30 82 86 125t130 43q85 0 145 -55t60 -169q0 -50 -13 -95.5t-39 -84.5t-72 -62.5t-106 -23.5q-96 0 -158.5 71t-62.5 230q0 84 17 160t50.5 140.5t91.5 102.5t133 38q32 0 61 -8t58.5 -26.5t49 -57t23.5 -92.5l-28 -3
q-10 88 -56 124t-108 36zM332 448q-77 0 -130.5 -49t-80.5 -136q4 -128 56 -189.5t135 -61.5q98 0 148 68.5t50 167.5q0 105 -52 152.5t-126 47.5z" />
    <glyph glyph-name="seven.case" 
d="M171 682l5 28h428l-5 -29q-138 -127 -237 -303t-130 -378h-33q34 198 130.5 374t237.5 308h-396z" />
    <glyph glyph-name="eight.case" 
d="M370 374q153 -48 153 -189q0 -84 -57 -142t-173 -58q-30 0 -58 4t-59 16.5t-53.5 31.5t-37 51.5t-14.5 74.5q0 74 48.5 133t159.5 79q-121 42 -121 169q0 81 51.5 132t154.5 51q86 0 143.5 -39t57.5 -123q0 -66 -44.5 -119t-150.5 -72zM189 546q0 -116 115 -151l35 -11
q194 40 194 177q0 77 -49 109t-119 32q-95 0 -135.5 -46t-40.5 -110zM295 11q99 0 148 50t49 124q0 40 -13.5 70.5t-37 49t-43.5 29t-46 18.5l-37 12q-118 -22 -164.5 -77t-46.5 -121q0 -45 18 -77.5t48.5 -48.5t60.5 -22.5t64 -6.5z" />
    <glyph glyph-name="nine.case" 
d="M346 727q49 0 86 -13.5t69 -45.5t49 -94.5t17 -152.5q0 -48 -5 -96.5t-22.5 -112.5t-46 -112t-82.5 -81.5t-125 -33.5q-26 0 -51.5 4t-54.5 16.5t-50.5 32t-35.5 54t-14 78.5l29 4q1 -46 18 -79t44.5 -50.5t56 -25t60.5 -7.5q53 0 95 21t68 57t44 77.5t26.5 91t12 87.5
t3.5 76v12q-27 -77 -83.5 -123t-131.5 -46q-52 0 -96.5 21t-76.5 72.5t-32 126.5q0 34 6 65.5t22.5 64.5t41.5 57t66 39.5t93 15.5zM327 293q76 0 131 53.5t77 133.5q-9 119 -57.5 169.5t-131.5 50.5q-56 0 -96.5 -20t-61.5 -53.5t-30 -68.5t-9 -73q0 -54 17 -93.5t45 -60
t56.5 -29.5t59.5 -9z" />
    <glyph glyph-name="zero.osf" 
d="M344 550q44 0 81 -11.5t69.5 -36.5t51 -72.5t18.5 -112.5q0 -45 -8.5 -89.5t-29.5 -89t-52.5 -78t-81 -54.5t-110.5 -21q-44 0 -81 11.5t-69 37t-50.5 72.5t-18.5 112q0 58 14.5 113t45.5 106t88 82t133 31zM341 524q-54 0 -98 -20t-71.5 -51t-45.5 -72t-25.5 -81
t-7.5 -80q0 -71 24 -117l384 344q-49 77 -160 77zM285 11q54 0 98 20t71.5 51t45.5 72t25.5 81t7.5 80q0 65 -21 112l-382 -345q50 -71 155 -71z" />
    <glyph glyph-name="one.osf" 
d="M315 26h192l-5 -26h-424l5 26h202l78 444q-64 -81 -194 -81h-16l5 28h13q76 0 134 35t75 83h24z" />
    <glyph glyph-name="two.osf" 
d="M47 0l4 25q207 105 301 166q141 95 141 204q0 71 -46.5 99.5t-112.5 28.5q-93 0 -134.5 -47t-41.5 -113q0 -17 2 -33l-29 2q-3 14 -3 31q0 25 6 49.5t20.5 50t37.5 44.5t59.5 31t83.5 12q35 0 65.5 -6.5t60 -22.5t47 -48t17.5 -77q0 -116 -142 -214q-73 -51 -281 -155
h389l-4 -27h-440z" />
    <glyph glyph-name="three.osf" 
d="M280 -165q-41 0 -76.5 8.5t-71 29t-57 64t-21.5 104.5l30 1q1 -45 14.5 -79t33.5 -53t47.5 -30t51 -14.5t49.5 -3.5q104 0 151.5 51t47.5 129q0 73 -45.5 110t-120.5 37h-52l5 27h49q91 0 142 46t51 121q0 74 -47 107t-116 33q-89 0 -137.5 -45.5t-53.5 -123.5l-29 3
q6 88 62 140.5t159 52.5q82 0 138.5 -39.5t56.5 -124.5q0 -70 -42.5 -121t-130.5 -63q60 -6 101.5 -46.5t41.5 -113.5q0 -88 -57 -147.5t-174 -59.5z" />
    <glyph glyph-name="four.osf" 
d="M344 -150l35 202h-355l4 24l435 459h31l-80 -457h130l-4 -26h-131l-35 -202h-30zM61 78h323l47 267l27 152h-2q-35 -41 -128 -141l-142 -150q-21 -22 -62 -64.5t-63 -63.5z" />
    <glyph glyph-name="five.osf" 
d="M263 -165q-92 0 -149 45.5t-64 130.5l31 2q9 -78 58 -114.5t124 -36.5q59 0 102.5 22.5t66.5 59.5t33.5 76t10.5 80q0 92 -44 135.5t-117 43.5q-75 0 -123 -38t-78 -111l-30 4l109 401h369l-4 -27h-346l-93 -336q24 63 77 98.5t127 35.5q81 0 132.5 -49.5t51.5 -154.5
q0 -49 -13.5 -94.5t-41 -85t-76.5 -63.5t-113 -24z" />
    <glyph glyph-name="six.osf" 
d="M380 683q-86 0 -145 -52.5t-85.5 -136t-29.5 -193.5q29 80 84.5 121.5t130.5 41.5q85 0 145 -54t60 -165q0 -48 -12.5 -92.5t-38.5 -83t-71.5 -61.5t-105.5 -23q-96 0 -159 69.5t-63 224.5q0 88 16.5 163.5t50 136.5t90.5 96t133 35q32 0 61 -7.5t58.5 -26t49.5 -55.5
t24 -90l-29 -4q-19 156 -164 156zM330 437q-77 0 -130.5 -47.5t-79.5 -132.5q3 -124 55 -184.5t137 -60.5q98 0 147.5 67t49.5 163q0 102 -52.5 148.5t-126.5 46.5z" />
    <glyph glyph-name="seven.osf" 
d="M163 -150l2 12q33 208 128 361t249 284h-402l5 28h435l-6 -28q-150 -126 -244.5 -275t-131.5 -360l-3 -22h-32z" />
    <glyph glyph-name="eight.osf" 
d="M369 366q153 -49 153 -185q0 -83 -57 -139.5t-172 -56.5q-39 0 -74 7.5t-70.5 25.5t-57 54t-21.5 87q0 73 48.5 130.5t159.5 76.5q-122 42 -122 165q0 79 51 129t154 50q86 0 144 -38t58 -120q0 -65 -44 -116t-150 -70zM187 533q0 -112 115 -147l37 -11q192 39 192 173
q0 75 -49.5 106t-119.5 31q-95 0 -135 -45t-40 -107zM295 11q99 0 147.5 49t48.5 121q0 39 -13.5 68.5t-37 48t-44 28.5t-46.5 18l-36 11q-63 -11 -107 -33t-65 -50.5t-30 -54.5t-9 -55q0 -44 18 -75.5t49 -47t61 -22t64 -6.5z" />
    <glyph glyph-name="nine.osf" 
d="M325 550q48 0 86 -13t71.5 -44.5t52 -92.5t18.5 -149q0 -44 -6 -92t-25.5 -108t-49.5 -106t-84.5 -78t-125.5 -32q-33 0 -64.5 7.5t-65 25.5t-53 56t-17.5 91l28 3q-2 -44 14.5 -76.5t44.5 -48.5t57 -23.5t59 -7.5q52 0 94 19.5t69 52.5t46.5 72t29.5 83.5t14.5 81.5
t4.5 72l1 13v11q-27 -77 -84.5 -122.5t-136.5 -45.5q-87 0 -152 54t-65 161q0 41 12 80t38 75.5t74.5 58.5t114.5 22zM308 126q79 0 135 52.5t79 132.5q-11 114 -62.5 163t-136.5 49q-56 0 -98 -19.5t-64 -51.5t-32.5 -66.5t-10.5 -71.5q0 -43 12.5 -76.5t32 -54t45.5 -34
t50.5 -18.5t49.5 -5z" />
    <glyph glyph-name="zero.subs" 
d="M306 378q168 0 168 -193q0 -155 -52 -245.5t-155 -90.5q-168 0 -168 193q0 155 52 245.5t155 90.5zM306 356q-90 0 -135 -85t-45 -229q0 -49 11 -81l295 315q-31 80 -126 80zM267 -128q89 0 134 84.5t45 228.5q0 39 -8 73l-295 -314q33 -72 124 -72z" />
    <glyph glyph-name="one.subs" 
d="M263 -118h145l-4 -22h-325l4 22h153l77 438q-19 -22 -62.5 -40.5t-75.5 -18.5h-19l4 24h13q41 0 90 25.5t64 56.5h21z" />
    <glyph glyph-name="two.subs" 
d="M74 -116q136 95 253 193q58 50 82.5 88t24.5 79q0 53 -33.5 82.5t-92.5 29.5q-64 0 -102.5 -33.5t-38.5 -89.5q0 -23 5 -41l-26 2q-5 17 -5 40q0 66 44 105t121 39q73 0 114 -35.5t41 -97.5q0 -43 -24.5 -82t-83.5 -93q-33 -30 -107.5 -87.5t-137.5 -98.5h308l-3 -24
h-342z" />
    <glyph glyph-name="three.subs" 
d="M252 135h37q64 0 103 31t39 83q0 58 -35.5 82.5t-84.5 24.5q-74 0 -109 -39.5t-34 -99.5l-27 2q1 69 43.5 114t127.5 45q60 0 103 -30.5t43 -96.5q0 -51 -35 -87t-88 -41q45 -7 71.5 -40t26.5 -82q0 -65 -43.5 -108.5t-130.5 -43.5q-70 0 -116 38t-46 119l28 1
q1 -71 40.5 -103.5t95.5 -32.5q75 0 109.5 36t34.5 92q0 53 -30.5 83.5t-84.5 30.5h-41z" />
    <glyph glyph-name="four.subs" 
d="M463 2h-98l-25 -142h-27l26 142h-269l4 21l329 344h27l-61 -343h98zM342 24l55 309q-13 -15 -47 -51l-202 -211l-46 -47h240z" />
    <glyph glyph-name="five.subs" 
d="M475 367l-4 -22h-259l-66 -232q47 86 148 86q72 0 110.5 -39t38.5 -114q0 -88 -53 -142.5t-140 -54.5q-72 0 -116 37t-44 96l27 1q1 -50 38 -81t97 -31q74 0 118.5 47.5t44.5 124.5q0 65 -32.5 99t-94.5 34q-106 0 -147 -102l-25 4l80 289h279z" />
    <glyph glyph-name="six.subs" 
d="M293 199q65 0 111 -39t46 -121q0 -78 -43 -134t-130 -56q-74 0 -122.5 51t-48.5 164q0 88 20.5 156t71.5 113t127 45q55 0 98.5 -29.5t50.5 -102.5l-26 -2q-14 112 -124 112q-94 0 -142 -77t-50 -200q44 120 161 120zM277 -129q72 0 108.5 48t36.5 118q0 74 -39 107
t-95 33q-58 0 -97.5 -34t-58.5 -95q4 -89 43 -133t102 -44z" />
    <glyph glyph-name="seven.subs" 
d="M163 344l5 23h326l-5 -24q-102 -90 -176 -214.5t-97 -268.5h-28v1q23 140 96 264.5t179 218.5h-300z" />
    <glyph glyph-name="eight.subs" 
d="M320 128q116 -38 116 -135q0 -62 -42.5 -103t-131.5 -41q-30 0 -57.5 5.5t-54.5 18.5t-43.5 39.5t-16.5 63.5q0 53 35.5 94.5t119.5 55.5q-92 31 -92 121q0 58 39 94.5t117 36.5q67 0 111.5 -28t44.5 -87q0 -111 -145 -135zM180 248q0 -78 88 -106l27 -8q143 28 143 126
q0 37 -21 60t-47 30t-59 7q-71 0 -101 -32t-30 -77zM263 -129q74 0 109.5 35t35.5 88q0 86 -107 116l-29 8q-153 -28 -153 -139q0 -60 43.5 -84t100.5 -24z" />
    <glyph glyph-name="nine.subs" 
d="M298 378q77 0 123 -47t46 -170q0 -28 -2.5 -56t-9.5 -66t-22 -69.5t-37 -60t-58 -44.5t-81 -16q-26 0 -50.5 5.5t-50.5 19t-42 41t-17 66.5l25 3q3 -60 43.5 -86.5t92.5 -26.5q46 0 80.5 21t53.5 51t30 71.5t14.5 72.5t3.5 65l1 11v6q-19 -55 -61 -87.5t-99 -32.5
q-62 0 -110 39t-48 118q0 30 8 58t26.5 55t54.5 43t86 16zM285 70q57 0 97.5 37t57.5 94q-12 155 -143 155q-42 0 -72 -14t-45.5 -37.5t-22 -48t-6.5 -51.5q0 -71 41.5 -103t92.5 -32z" />
    <glyph glyph-name="zero.dnom" 
d="M313 378q130 0 130 -144q0 -112 -39.5 -177t-118.5 -65q-131 0 -131 145q0 113 40 177t119 64zM313 358q-66 0 -99.5 -59.5t-33.5 -161.5q0 -33 8 -60l218 225q-23 56 -93 56zM285 12q65 0 98.5 60t33.5 162q0 29 -6 53l-218 -223q23 -52 92 -52z" />
    <glyph glyph-name="one.dnom" 
d="M286 20h109l-3 -20h-252l3 20h118l54 311q-15 -16 -48 -29t-57 -13h-14l4 22h9q32 0 68.5 18t48.5 41h21z" />
    <glyph glyph-name="two.dnom" 
d="M138 21q133 78 201.5 135.5t68.5 112.5q0 88 -94 88q-47 0 -75 -23.5t-28 -61.5q0 -18 3 -29l-25 1q-3 17 -3 30q0 47 34 75.5t92 28.5q122 0 122 -107q0 -32 -21.5 -66t-62 -66.5t-81.5 -59.5t-96 -58h229l-4 -21h-263z" />
    <glyph glyph-name="three.dnom" 
d="M271 202h29q47 0 75.5 21.5t28.5 58.5q0 41 -26 58.5t-62 17.5q-55 0 -80.5 -27.5t-24.5 -71.5l-26 3q0 51 33 83.5t98 32.5q47 0 81 -22.5t34 -70.5q0 -38 -27 -64t-67 -30q35 -5 55.5 -29t20.5 -60q0 -48 -33.5 -79t-99.5 -31q-54 0 -90 27.5t-37 86.5l26 2
q2 -50 31 -72.5t70 -22.5q55 0 80.5 25t25.5 63t-23 60t-64 22h-30z" />
    <glyph glyph-name="four.dnom" 
d="M435 102h-74l-17 -102h-26l19 102h-205l3 19l248 249h26l-45 -248h74zM340 122l40 220l-219 -220h179z" />
    <glyph glyph-name="five.dnom" 
d="M442 370l-4 -21h-195l-48 -163q33 62 111 62q55 0 84.5 -28.5t29.5 -83.5q0 -65 -40.5 -104.5t-107.5 -39.5q-56 0 -90 27t-34 70l25 2q1 -35 29 -56.5t72 -21.5q54 0 87 32.5t33 86.5q0 95 -96 95q-78 0 -108 -71l-23 2l60 212h215z" />
    <glyph glyph-name="six.dnom" 
d="M305 248q49 0 85 -28.5t36 -88.5q0 -57 -33 -98t-100 -41q-57 0 -95.5 37t-38.5 120q0 101 40.5 165t126.5 64q43 0 77 -21.5t40 -74.5l-25 -3q-11 79 -93 79q-69 0 -103.5 -53.5t-36.5 -139.5q34 83 120 83zM293 13q54 0 80.5 33t26.5 83q0 51 -30 75t-71 24
q-83 0 -114 -87q1 -65 30.5 -96.5t77.5 -31.5z" />
    <glyph glyph-name="seven.dnom" 
d="M201 349l3 21h252l-3 -21q-77 -65 -132.5 -155.5t-71.5 -193.5h-27v1q34 203 205 348h-226z" />
    <glyph glyph-name="eight.dnom" 
d="M329 196q88 -25 88 -98q0 -45 -33.5 -75.5t-102.5 -30.5q-32 0 -60 7t-51 29t-23 57q0 89 115 109q-69 23 -69 87q0 43 30 70t91 27q52 0 87.5 -20t35.5 -64q0 -34 -24.5 -61t-83.5 -37zM218 282q0 -57 67 -75l22 -6q103 20 103 89t-95 69q-53 0 -75 -22.5t-22 -54.5z
M283 12q55 0 81 25t26 61q0 61 -82 83l-21 6q-112 -19 -112 -99q0 -42 32.5 -59t75.5 -17z" />
    <glyph glyph-name="nine.dnom" 
d="M306 378q132 0 132 -159q0 -34 -5 -66t-19.5 -72t-49.5 -64.5t-87 -24.5q-28 0 -52.5 6.5t-47.5 30t-24 60.5l25 3q1 -42 31.5 -60.5t69.5 -18.5q130 0 133 197v9q-15 -38 -46 -60t-72 -22q-48 0 -85.5 28.5t-37.5 86.5q0 22 6 42.5t20 40.5t42 31.5t67 11.5zM298 157
q41 0 71 25.5t42 63.5q-7 112 -105 112q-59 0 -83.5 -31.5t-24.5 -74.5q0 -51 30.5 -73t69.5 -22z" />
    <glyph glyph-name="zero.numr" 
d="M373 718q130 0 130 -144q0 -112 -39.5 -177t-118.5 -65q-131 0 -131 145q0 113 40 177t119 64zM373 698q-66 0 -99.5 -59.5t-33.5 -161.5q0 -33 8 -60l218 225q-23 56 -93 56zM345 352q65 0 98.5 60t33.5 162q0 29 -6 53l-218 -223q23 -52 92 -52z" />
    <glyph glyph-name="one.numr" 
d="M346 360h109l-3 -20h-252l3 20h118l54 311q-15 -16 -48 -29t-57 -13h-14l4 22h9q32 0 68.5 18t48.5 41h21z" />
    <glyph glyph-name="two.numr" 
d="M198 361q133 78 201.5 135.5t68.5 112.5q0 88 -94 88q-47 0 -75 -23.5t-28 -61.5q0 -18 3 -29l-25 1q-3 16 -3 30q0 47 34 75.5t92 28.5q122 0 122 -107q0 -32 -21.5 -66t-62 -66.5t-81.5 -59.5t-96 -58h229l-4 -21h-263z" />
    <glyph glyph-name="three.numr" 
d="M331 542h29q47 0 75.5 21.5t28.5 58.5q0 41 -26 58.5t-62 17.5q-55 0 -80.5 -27.5t-24.5 -71.5l-26 3q0 51 33 83.5t98 32.5q47 0 81 -22.5t34 -70.5q0 -38 -27 -64t-67 -30q35 -5 55.5 -29t20.5 -60q0 -48 -33.5 -79t-99.5 -31q-54 0 -90 27.5t-37 86.5l26 2
q2 -50 31 -72.5t70 -22.5q55 0 80.5 25t25.5 63t-23 60t-64 22h-30z" />
    <glyph glyph-name="four.numr" 
d="M495 442h-74l-17 -102h-26l19 102h-205l3 19l248 249h26l-45 -248h74zM400 462l40 220l-219 -220h179z" />
    <glyph glyph-name="five.numr" 
d="M502 710l-4 -21h-195l-48 -163q33 62 111 62q55 0 84.5 -28.5t29.5 -83.5q0 -65 -40.5 -104.5t-107.5 -39.5q-56 0 -90 27t-34 70l25 2q1 -35 29 -56.5t72 -21.5q54 0 87 32.5t33 86.5q0 95 -96 95q-78 0 -108 -71l-23 2l60 212h215z" />
    <glyph glyph-name="six.numr" 
d="M365 588q49 0 85 -28.5t36 -88.5q0 -57 -33 -98t-100 -41q-57 0 -95.5 37t-38.5 120q0 101 40.5 165t126.5 64q43 0 77 -21.5t40 -74.5l-25 -3q-11 79 -93 79q-69 0 -103.5 -53.5t-36.5 -139.5q34 83 120 83zM353 353q54 0 80.5 33t26.5 83q0 51 -30 75t-71 24
q-83 0 -114 -87q1 -65 30.5 -96.5t77.5 -31.5z" />
    <glyph glyph-name="seven.numr" 
d="M261 689l3 21h252l-3 -21q-77 -65 -132.5 -155.5t-71.5 -193.5h-27v1q34 203 205 348h-226z" />
    <glyph glyph-name="eight.numr" 
d="M389 536q88 -25 88 -98q0 -45 -33.5 -75.5t-102.5 -30.5q-32 0 -60 7t-51 29t-23 57q0 89 115 109q-69 23 -69 87q0 43 30 70t91 27q52 0 87.5 -20t35.5 -64q0 -34 -24.5 -61t-83.5 -37zM278 622q0 -57 67 -75l22 -6q103 20 103 89t-95 69q-53 0 -75 -22.5t-22 -54.5z
M343 352q55 0 81 25t26 61q0 61 -82 83l-21 6q-112 -19 -112 -99q0 -42 32.5 -59t75.5 -17z" />
    <glyph glyph-name="nine.numr" 
d="M366 718q132 0 132 -159q0 -34 -5 -66t-19.5 -72t-49.5 -64.5t-87 -24.5q-28 0 -52.5 6.5t-47.5 30t-24 60.5l25 3q1 -42 31.5 -60.5t69.5 -18.5q130 0 133 197v9q-15 -38 -46 -60t-72 -22q-48 0 -85.5 28.5t-37.5 86.5q0 22 6 42.5t20 40.5t42 31.5t67 11.5zM358 497
q41 0 71 25.5t42 63.5q-7 112 -105 112q-59 0 -83.5 -31.5t-24.5 -74.5q0 -51 30.5 -73t69.5 -22z" />
    <glyph glyph-name="zero.sups" 
d="M385 828q168 0 168 -193q0 -155 -52 -245.5t-155 -90.5q-168 0 -168 193q0 155 52 245.5t155 90.5zM385 806q-90 0 -135 -85t-45 -229q0 -49 11 -81l295 315q-31 80 -126 80zM346 322q89 0 134 84.5t45 228.5q0 39 -8 73l-295 -314q33 -72 124 -72z" />
    <glyph glyph-name="one.sups" 
d="M342 332h145l-4 -22h-325l4 22h153l77 438q-19 -22 -62.5 -40.5t-75.5 -18.5h-19l4 24h13q41 0 90 25.5t64 56.5h21z" />
    <glyph glyph-name="two.sups" 
d="M153 334q136 95 253 193q58 50 82.5 88t24.5 79q0 53 -33.5 82.5t-92.5 29.5q-64 0 -102.5 -33.5t-38.5 -89.5q0 -23 5 -41l-26 2q-5 18 -5 40q0 66 44 105t121 39q73 0 114 -35.5t41 -97.5q0 -43 -24.5 -82t-83.5 -93q-33 -30 -107.5 -87.5t-137.5 -98.5h308l-3 -24
h-342z" />
    <glyph glyph-name="three.sups" 
d="M331 585h37q64 0 103 31t39 83q0 58 -35.5 82.5t-84.5 24.5q-74 0 -109 -39.5t-34 -99.5l-27 2q1 69 43.5 114t127.5 45q60 0 103 -30.5t43 -96.5q0 -51 -35 -87t-88 -41q45 -7 71.5 -40t26.5 -82q0 -65 -43.5 -108.5t-130.5 -43.5q-70 0 -116 38t-46 119l28 1
q1 -71 40.5 -103.5t95.5 -32.5q75 0 109.5 36.5t34.5 91.5q0 53 -30.5 83.5t-84.5 30.5h-41z" />
    <glyph glyph-name="four.sups" 
d="M542 452h-98l-25 -142h-27l26 142h-269l4 21l329 344h27l-61 -343h98zM421 474l55 309q-13 -15 -47 -51l-202 -211l-46 -47h240z" />
    <glyph glyph-name="five.sups" 
d="M554 817l-4 -22h-259l-66 -232q47 86 148 86q72 0 110.5 -39t38.5 -114q0 -88 -53 -142.5t-140 -54.5q-72 0 -116 37t-44 96l27 1q1 -50 38 -81t97 -31q74 0 118.5 47.5t44.5 124.5q0 65 -32.5 99t-94.5 34q-106 0 -147 -102l-25 4l80 289h279z" />
    <glyph glyph-name="six.sups" 
d="M372 649q65 0 111 -39t46 -121q0 -78 -43 -134t-130 -56q-74 0 -122.5 51t-48.5 164q0 88 20.5 156t71.5 113t127 45q55 0 98.5 -29.5t50.5 -102.5l-26 -2q-14 112 -124 112q-94 0 -142 -77t-50 -200q43 120 161 120zM356 321q72 0 108.5 48t36.5 118q0 74 -39 107
t-95 33q-58 0 -97.5 -34t-58.5 -95q4 -89 43 -133t102 -44z" />
    <glyph glyph-name="seven.sups" 
d="M242 794l5 23h326l-5 -24q-102 -90 -176 -214.5t-97 -268.5h-28v1q23 140 96 264.5t179 218.5h-300z" />
    <glyph glyph-name="eight.sups" 
d="M399 578q116 -38 116 -135q0 -62 -42.5 -103t-131.5 -41q-30 0 -57.5 5.5t-54.5 18.5t-43.5 39.5t-16.5 63.5q0 53 35.5 94.5t119.5 55.5q-92 31 -92 121q0 58 39 94.5t117 36.5q67 0 111.5 -28t44.5 -87q0 -111 -145 -135zM259 698q0 -78 88 -106l27 -8q143 28 143 126
q0 37 -21 60t-47 30t-59 7q-71 0 -101 -32t-30 -77zM342 321q74 0 109.5 35t35.5 88q0 86 -107 116l-29 8q-153 -28 -153 -139q0 -60 43.5 -84t100.5 -24z" />
    <glyph glyph-name="nine.sups" 
d="M377 828q77 0 123 -47t46 -170q0 -28 -2.5 -56t-9.5 -66t-22 -69.5t-37 -60t-58 -44.5t-81 -16q-26 0 -50.5 5.5t-50.5 19t-42 41t-17 66.5l25 3q3 -60 43.5 -86.5t92.5 -26.5q46 0 80.5 21t53.5 51t30 71.5t14.5 72.5t3.5 65l1 11v6q-19 -55 -61 -87.5t-99 -32.5
q-62 0 -110 39t-48 118q0 30 8 58t26.5 55t54.5 43t86 16zM364 520q57 0 97.5 37t57.5 94q-12 155 -143 155q-42 0 -72 -14t-45.5 -37.5t-22 -48t-6.5 -51.5q0 -71 41.5 -103t92.5 -32z" />
    <glyph glyph-name="backslash.case" 
d="M503 -25l-378 760h29l378 -760h-29z" />
    <glyph glyph-name="bullet.case" 
d="M329 306q-24 0 -38 13t-14 37t14 37.5t38 13.5t38 -13.5t14 -37.5t-14 -37t-38 -13z" />
    <glyph glyph-name="colon.case" 
d="M411 542l-19 -106h-97l19 106h97zM333 106l-19 -106h-97l19 106h97z" />
    <glyph glyph-name="exclamdown.case" 
d="M332 604l19 106h79l-19 -106h-79zM373 537l-90 -537h-34l99 537h25z" />
    <glyph glyph-name="questiondown.case" 
d="M340 604l19 106h80l-19 -106h-80zM493 195v-3q-4 -100 -64 -154.5t-158 -54.5q-85 0 -129.5 45.5t-44.5 114.5q0 65 29 105.5t91 89.5l55 43q65 51 81 148l4 25h31l-6 -31q-18 -110 -92 -164l-57 -43q-53 -40 -77.5 -77t-24.5 -94q0 -58 36.5 -96.5t103.5 -38.5
q84 0 135 45.5t56 139.5v1z" />
    <glyph glyph-name="semicolon.case" 
d="M412 542l-19 -106h-97l19 106h97zM213 -112l-6 21q69 28 80 91h-71l19 106h97l-19 -106q-15 -84 -100 -112z" />
    <glyph glyph-name="slash.case" 
d="M154 -25h-29l378 760h29z" />
    <glyph glyph-name="underscore.case" 
d="M-47 -18h620l-5 -26h-620z" />
    <glyph glyph-name="asterisk.ss04" 
d="M391 710l-47 -93h-97l69 -57l-47 -93l89 57l69 -57l-14 93l89 57h-97z" />
    <glyph glyph-name="braceleft.case" 
d="M392 -56q-70 0 -111.5 33.5t-28.5 107.5l30 174q8 41 -3 58.5t-60 17.5l5 32q50 0 66 16.5t24 58.5l31 174q9 51 40 84t68.5 45t81.5 12h60l-4 -25h-61q-135 0 -158 -125l-30 -171q-7 -35 -21.5 -55.5t-47.5 -28.5q30 -10 37.5 -31t1.5 -56l-30 -171q-22 -125 115 -125
h60l-4 -25h-61z" />
    <glyph glyph-name="braceright.case" 
d="M234 757q70 0 111.5 -33.5t28.5 -107.5l-30 -174q-8 -41 3 -58.5t60 -17.5l-5 -32q-50 0 -66 -16.5t-24 -58.5l-31 -174q-9 -51 -40 -84t-68.5 -45t-81.5 -12h-60l4 25h61q135 0 158 125l30 171q7 35 21.5 55.5t47.5 28.5q-30 10 -37.5 31t-1.5 56l30 171
q22 125 -115 125h-60l4 25h61z" />
    <glyph glyph-name="bracketleft.case" 
d="M218 -56l144 813h224l-4 -25h-197l-134 -763h196l-4 -25h-225z" />
    <glyph glyph-name="bracketright.case" 
d="M408 757l-144 -813h-224l4 25h197l134 763h-196l4 25h225z" />
    <glyph glyph-name="parenleft.case" 
d="M412 -56q-69 64 -106.5 159.5t-37.5 191.5q0 274 288 452l24 -9q-156 -107 -218.5 -211.5t-62.5 -241.5q0 -186 140 -333z" />
    <glyph glyph-name="parenright.case" 
d="M214 748q69 -64 106.5 -159.5t37.5 -191.5q0 -274 -288 -452l-24 9q156 107 218.5 211.5t62.5 241.5q0 186 -140 333z" />
    <glyph glyph-name="parenleft.subs" 
d="M391 -230q-55 52 -85 129.5t-30 155.5q0 224 223 363l24 -10q-120 -82 -169.5 -166t-49.5 -195q0 -150 111 -270z" />
    <glyph glyph-name="parenright.subs" 
d="M173 418q55 -52 85 -129.5t30 -155.5q0 -224 -222 -363l-24 9q120 82 169.5 166.5t49.5 195.5q0 150 -111 270z" />
    <glyph glyph-name="parenleft.sups" 
d="M470 220q-55 52 -85 129.5t-30 155.5q0 224 222 363l24 -9q-120 -82 -169.5 -166.5t-49.5 -195.5q0 -150 111 -270z" />
    <glyph glyph-name="parenright.sups" 
d="M252 868q55 -52 85 -129.5t30 -155.5q0 -224 -222 -363l-24 9q120 82 169.5 166.5t49.5 195.5q0 150 -111 270z" />
    <glyph glyph-name="emdash.case" 
d="M55 373h552l-4 -24h-552z" />
    <glyph glyph-name="endash.case" 
d="M126 373h412l-5 -24h-412z" />
    <glyph glyph-name="hyphen.case" 
d="M187 375h289l-5 -28h-289z" />
    <glyph glyph-name="guillemotleft.case" 
d="M284 136l-132 208l210 207h35l-212 -208l130 -207h-31zM457 136l-132 208l210 207h35l-212 -208l130 -207h-31z" />
    <glyph glyph-name="guillemotright.case" 
d="M197 551l132 -208l-210 -207h-35l212 208l-130 207h31zM370 551l132 -208l-210 -207h-35l212 208l-130 207h31z" />
    <glyph glyph-name="guilsinglleft.case" 
d="M365 136l-132 208l210 207h35l-212 -208l131 -207h-32z" />
    <glyph glyph-name="guilsinglright.case" 
d="M289 551l132 -208l-210 -207h-35l212 208l-131 207h32z" />
    <glyph glyph-name="currency.case" 
d="M542 384q0 -131 -74 -200l39 -47l-19 -18l-40 48q-57 -40 -138 -40q-91 0 -145 59l-60 -50l-14 17l59 50q-35 51 -35 117q0 131 73 201l-40 48l18 17l41 -49q59 42 142 42q90 0 144 -59l59 49l15 -17l-59 -51q34 -48 34 -117zM144 324q0 -75 47.5 -122.5t120.5 -47.5
q94 0 147.5 59.5t53.5 167.5q0 77 -47.5 124t-120.5 47q-95 0 -148 -59t-53 -169z" />
    <glyph glyph-name="dollar.case" 
d="M536 506q-2 80 -38 128.5t-100 59.5l-55 -316l52 -22q63 -27 95.5 -68t32.5 -108q0 -90 -56 -141.5t-159 -51.5q-12 0 -32 2l-17 -96h-24l17 99q-85 16 -131.5 77t-45.5 149l30 3q1 -75 40.5 -130t111.5 -71l58 337l-42 18q-122 51 -122 160q0 86 56 138t152 52
q13 0 20 -1l16 93h24l-16 -95q78 -13 120.5 -68.5t42.5 -142.5zM321 388l53 308q-5 1 -16 1q-81 0 -127 -44.5t-46 -115.5q0 -48 25.5 -80t81.5 -57zM370 334l-32 14l-58 -331q20 -2 29 -2q97 0 139 45.5t42 118.5q0 57 -28.5 92.5t-91.5 62.5z" />
    <glyph glyph-name="Euro.case" 
d="M436 698q-94 0 -159 -67.5t-94 -184.5h290l-5 -25h-290q-12 -58 -13 -113h284l-4 -24h-281v-9q0 -127 41 -195t136 -68q63 0 117 39t82 123l25 -8q-30 -91 -90 -136t-138 -45q-205 0 -203 289v10h-86l4 24h83q1 53 13 113h-77l4 25h79q31 127 105 203t180 76
q75 0 127.5 -42t61.5 -126l-27 -9q-9 75 -52.5 112.5t-112.5 37.5z" />
    <glyph glyph-name="florin.case" 
d="M503 729q25 0 48 -7l-5 -26q-18 6 -48 6t-51 -9.5t-35.5 -31.5t-23 -42t-19.5 -57l-44 -147h148l-4 -25h-151l-162 -543h-30l162 543h-112l5 25h115l37 125q11 36 15.5 50.5t15.5 43t21.5 40.5t27.5 27.5t39.5 21.5t50.5 6z" />
    <glyph glyph-name="sterling.case" 
d="M566 542l-31 -4q5 83 -35.5 122.5t-100.5 39.5q-75 0 -116 -56t-41 -190q0 -11 0.5 -34.5t0.5 -35.5h176l-5 -26h-170q1 -17 1 -50q0 -67 -13.5 -117.5t-38 -81.5t-48.5 -48t-56 -30q48 15 114 15q42 0 100 -16.5t92 -16.5q50 0 81 33t37 102l27 -2q-16 -161 -152 -161
q-31 0 -93.5 17t-109.5 17q-60 0 -162 -25l-4 25q26 7 46 14.5t50 28.5t50 49.5t35 78t15 112.5q0 9 -0.5 27.5t-0.5 28.5h-114l5 26h107q-2 48 -2 70q0 271 190 271q77 0 124.5 -47t41.5 -136z" />
    <glyph glyph-name="yen.case" 
d="M631 709l-292 -397h194l-5 -25h-196l-19 -108h197l-5 -26h-196l-27 -153h-31l27 153h-200l4 26h200l19 108h-200l4 25h197l-152 398h34l139 -371l271 370h37z" />
    <glyph glyph-name="plus.case" 
d="M568 385l-4 -26h-221l-40 -225h-30l40 225h-219l4 26h219l38 214h30l-38 -214h221z" />
    <glyph glyph-name="minus.case" 
d="M94 361l4 26h470l-4 -26h-470z" />
    <glyph glyph-name="multiply.case" 
d="M592 574l-241 -205l168 -204l-20 -20l-170 206l-241 -206l-18 22l241 206l-166 201l20 19l167 -202l241 205z" />
    <glyph glyph-name="divide.case" 
d="M364 534q-15 0 -24.5 9t-9.5 24t9.5 24t24.5 9t24.5 -9t9.5 -24t-9.5 -24t-24.5 -9zM95 363l5 26h470l-5 -26h-470zM297 151q-15 0 -24.5 9t-9.5 24t9.5 24t24.5 9t24.5 -9t9.5 -24t-9.5 -24t-24.5 -9z" />
    <glyph glyph-name="equal.case" 
d="M109 445l4 26h470l-4 -26h-470zM79 275l5 26h470l-5 -26h-470z" />
    <glyph glyph-name="notequal.case" 
d="M579 445h-196l-76 -144h247l-5 -26h-256l-72 -135h-24l72 135h-190l5 26h198l77 144h-250l4 26h260l69 131h25l-70 -131h186z" />
    <glyph glyph-name="greater.case" 
d="M144 614l425 -230l-5 -22l-505 -230l5 31l468 211l-394 212z" />
    <glyph glyph-name="less.case" 
d="M521 132l-425 230l5 22l505 230l-5 -31l-468 -211l394 -212z" />
    <glyph glyph-name="plusminus.case" 
d="M359 450h221l-5 -25h-221l-34 -194h-29l34 194h-220l5 25h220l35 201h29zM48 100l5 27h470l-5 -27h-470z" />
    <glyph glyph-name="approxequal.case" 
d="M454 431q-39 0 -104.5 25t-106.5 25q-78 0 -135 -40l5 28q23 17 60.5 28.5t71.5 11.5q46 0 109.5 -25t101.5 -25q34 0 71.5 11.5t60.5 28.5l-5 -28q-21 -17 -57.5 -28.5t-71.5 -11.5zM424 259q-39 0 -105 25t-107 25q-35 0 -73 -11.5t-61 -28.5l5 28q23 17 60 28.5
t71 11.5q46 0 109.5 -25t101.5 -25q79 0 133 40l-5 -28q-22 -17 -58.5 -28.5t-70.5 -11.5z" />
    <glyph glyph-name="logicalnot.case" 
d="M115 392h440l-38 -217h-30l34 189h-410z" />
    <glyph glyph-name="infinity.case" 
d="M475 491q48 0 76.5 -30t28.5 -80q0 -53 -35.5 -91t-85.5 -38q-49 0 -82.5 29.5t-49.5 67.5q-65 -98 -140 -98q-45 0 -74 31.5t-29 82.5q0 58 33.5 91t87.5 33q94 0 129 -88q63 90 141 90zM462 278q37 0 63.5 27t26.5 73q0 42 -23 64t-64 22q-65 0 -122 -89
q40 -97 119 -97zM194 278q38 0 66.5 26t57.5 72q-8 18 -15.5 30t-20.5 26.5t-32.5 22t-43.5 7.5q-40 0 -68 -21.5t-28 -72.5q0 -41 24 -65.5t60 -24.5z" />
    <glyph glyph-name="integral.case" 
d="M92 -17l4 27q11 -1 22 -1q74 0 111 36t52 122l67 381q15 86 59 132t131 46q4 0 7 -0.5t8.5 -1t10.5 -0.5l-5 -26q-11 1 -26 1q-72 0 -107 -37.5t-50 -121.5l-67 -381q-15 -86 -60 -131.5t-133 -45.5q-13 0 -24 1z" />
    <glyph glyph-name="plus.subs" 
d="M464 111l-4 -22h-166l-29 -163h-25l29 163h-165l3 22h166l27 155h25l-27 -155h166z" />
    <glyph glyph-name="minus.subs" 
d="M103 89l4 22h357l-4 -22h-357z" />
    <glyph glyph-name="multiply.subs" 
d="M482 247l-182 -149l128 -148l-17 -16l-129 149l-181 -149l-15 17l181 150l-127 146l18 16l127 -147l180 149z" />
    <glyph glyph-name="divide.subs" 
d="M306 213q-12 0 -19.5 7.5t-7.5 18.5q0 25 26 25q12 0 20 -6.5t8 -18.5t-7.5 -19t-19.5 -7zM103 89l4 22h357l-5 -22h-356zM257 -65q-11 0 -19 7.5t-8 18.5q0 25 27 25t27 -25q0 -12 -7.5 -19t-19.5 -7z" />
    <glyph glyph-name="plus.sups" 
d="M543 561l-4 -22h-167l-29 -163h-24l29 163h-165l3 22h166l27 155h24l-27 -155h167z" />
    <glyph glyph-name="minus.sups" 
d="M182 539l4 22h357l-4 -22h-357z" />
    <glyph glyph-name="multiply.sups" 
d="M560 698l-182 -150l129 -149l-17 -15l-129 150l-181 -150l-15 17l181 150l-127 147l17 15l128 -148l181 150z" />
    <glyph glyph-name="divide.sups" 
d="M386 664q-12 0 -19.5 7t-7.5 18q0 25 26 25q27 0 27 -25t-26 -25zM182 539l5 22h356l-4 -22h-357zM337 386q-11 0 -19 7t-8 18q0 25 27 25q26 0 26 -25t-26 -25z" />
    <glyph glyph-name="carriagereturn.alt" 
d="M483 352l11 61q50 283 -140 283q-191 0 -240 -280l-20 -109q-29 -162 10.5 -229t130.5 -67q125 0 190 122l20 -9q-70 -136 -213 -136q-220 0 -164 318l20 110q28 158 100 230.5t169 72.5q101 0 146 -73t17 -232l-11 -62h71l-105 -115l-66 115h74z" />
    <glyph glyph-name="arrowright.case" 
d="M86 370h375l14 75l99 -86l-130 -85l13 74h-375z" />
    <glyph glyph-name="arrowleft.case" 
d="M572 348h-375l-14 -74l-99 85l130 86l-13 -75h375z" />
    <glyph glyph-name="arrowright.ss03.case" 
d="M547 371l-213 256l23 19l237 -290l-339 -285l-16 20l302 254h-479l4 26h481z" />
    <glyph glyph-name="arrowleft.ss03.case" 
d="M112 346l213 -256l-23 -19l-237 291l339 284l16 -19l-302 -255h479l-4 -26h-481z" />
    <glyph glyph-name="arrowup.ss03" 
d="M375 699l-300 -257l-16 20l337 288l238 -288l-22 -20l-209 259l-129 -736h-28z" />
    <glyph glyph-name="uni2197.ss03" 
d="M503 666l-331 -402l-22 19l332 402h-362l-5 25h407l72 -407h-27z" />
    <glyph glyph-name="arrowright.ss03" 
d="M540 342l-213 256l23 19l237 -291l-339 -284l-16 19l302 255h-479l4 26h481z" />
    <glyph glyph-name="uni2198.ss03" 
d="M468 32l64 363h27l-72 -407h-407l5 25h362l-332 402l22 19z" />
    <glyph glyph-name="arrowdown.ss03" 
d="M281 11l300 257l16 -20l-337 -288l-238 288l22 20l209 -259l129 736h28z" />
    <glyph glyph-name="uni2199.ss03" 
d="M151 32l331 402l22 -19l-332 -402h362l5 -25h-407l-72 407h27z" />
    <glyph glyph-name="arrowleft.ss03" 
d="M107 317l213 -256l-23 -19l-237 291l339 284l16 -19l-302 -255h479l-4 -26h-481z" />
    <glyph glyph-name="uni2196.ss03" 
d="M186 666l-64 -363h-27l72 407h407l-5 -25h-362l332 -402l-22 -19z" />
    <glyph glyph-name="circle.invert" 
d="M84 271l34 190q47 266 263 266q114 0 165 -78t27 -213l-34 -190q-25 -136 -88.5 -199.5t-170.5 -63.5q-122 0 -171 76.5t-25 211.5z" />
    <glyph glyph-name="at.case" 
d="M305 -15q-108 0 -172.5 57.5t-64.5 156.5q0 29 6 64l36 212q24 135 90.5 198.5t176.5 63.5q100 0 158 -53.5t58 -150.5q0 -23 -5 -60l-26 -156q-11 -66 -34.5 -94t-62.5 -28q-65 0 -63 74q-14 -37 -44 -58.5t-68 -21.5q-41 0 -67.5 23t-26.5 61q0 93 131 108l89 11l2 15
q3 20 3 33q0 76 -72 76q-76 0 -87 -79h-27q5 49 34.5 76t78.5 27q101 0 101 -97q0 -19 -9 -68l-12 -74q-4 -19 -4 -33q0 -50 42 -50q30 0 46 25t24 75l26 151q5 33 5 59q0 89 -50.5 137.5t-138.5 48.5q-201 0 -242 -237l-37 -214q-5 -38 -5 -63q0 -88 56 -139.5t156 -51.5
q77 0 152 46v-26q-72 -44 -153 -44zM294 214q41 0 71.5 30.5t39.5 83.5l8 42l-82 -11q-54 -7 -80.5 -26.5t-26.5 -57.5q0 -27 19 -44t51 -17z" />
    <glyph glyph-name="section.case" 
d="M382 701q-64 0 -98 -29t-34 -76q0 -69 76 -103l81 -35q54 -24 79.5 -49t25.5 -72q0 -43 -24.5 -75t-75.5 -46q44 -39 44 -100q0 -57 -45.5 -95.5t-121.5 -38.5q-88 0 -135.5 44.5t-49.5 118.5l30 3q3 -62 42 -100.5t114 -38.5q69 0 102 31t33 75q0 43 -23 68t-75 48
l-63 27q-104 46 -104 127q0 42 27 72.5t71 44.5q-41 36 -41 93q0 60 43.5 96t120.5 36q78 0 122.5 -40.5t46.5 -110.5l-30 -4q-4 62 -39.5 95.5t-98.5 33.5zM384 437l-74 32q-19 9 -31 17q-38 -12 -62.5 -36.5t-24.5 -59.5q0 -37 20.5 -62t68.5 -45l67 -29q26 -12 42 -22
q48 8 70 37.5t22 64.5q0 39 -22 59.5t-76 43.5z" />
    <glyph glyph-name="bar.case" 
d="M408 725l-131 -743h-29l131 743h29z" />
    <glyph glyph-name="brokenbar.case" 
d="M408 725l-52 -293h-29l52 293h29zM335 311l-58 -329h-29l58 329h29z" />
    <glyph glyph-name="Baht.case" 
d="M384 363q64 -7 100 -50t36 -99q0 -26 -4.5 -51t-19.5 -56t-40 -53.5t-71 -38t-106 -15.5h-27l-19 -109h-25l19 109h-180l122 710h181l16 93h25l-16 -93h4q100 0 142 -46t42 -111q0 -68 -42.5 -123t-136.5 -67zM196 681l-52 -303h148l53 303h-149zM374 681h-4l-53 -303h6
q54 0 94.5 14t61.5 33t33.5 45t15.5 43.5t3 35.5q0 57 -35.5 94.5t-121.5 37.5zM83 28h149l56 322h-149zM279 28q210 0 210 183q0 57 -40.5 98t-125.5 41h-10l-56 -322h22z" />
    <glyph glyph-name="Bitcoin.case" 
d="M384 362q64 -6 100 -49t36 -99q0 -24 -3.5 -46.5t-16 -51t-32.5 -50.5t-56.5 -40t-84.5 -23l-19 -112h-25l19 110q-7 -1 -23 -1h-76l-19 -109h-24l19 109h-132l122 710h132l16 91h24l-15 -91h53q24 0 45 -3l16 94h25l-17 -99q61 -15 88 -56t27 -93q0 -42 -15 -79.5
t-57.5 -70.5t-106.5 -41zM196 681l-52 -303h179q54 0 94.5 14t61.5 33t33.5 45t15.5 43.5t3 35.5q0 57 -35.5 94.5t-121.5 37.5h-178zM279 28q210 0 210 183q0 57 -40.5 98t-125.5 41h-184l-56 -322h196z" />
    <glyph glyph-name="Lira.case" 
d="M515 235l29 -4q-32 -113 -102 -172t-201 -59h-115l53 304l-102 -30l5 28l101 30l21 120l-101 -30l5 28l101 30l40 230h32l-38 -220l263 77l-5 -28l-263 -77l-21 -120l264 77l-6 -28l-263 -77l-49 -285h82q115 0 177.5 50.5t92.5 155.5z" />
    <glyph glyph-name="Ruble.case" 
d="M412 710q52 0 90 -15t58 -40t29 -52.5t9 -57.5q0 -44 -12.5 -82.5t-39 -72.5t-74 -53.5t-111.5 -19.5h-178l-23 -135h193l-5 -26h-192l-27 -156h-32l27 156h-71l5 26h71l23 135h-71l5 26h70l64 367h192zM365 343q100 0 150 56.5t50 139.5q0 57 -36.5 99.5t-116.5 42.5
h-166l-58 -338h177z" />
    <glyph glyph-name="Rupee.case" 
d="M644 710l-5 -27h-275q82 -44 82 -150v-8h166l-5 -26h-163q-11 -76 -68 -129t-168 -54h-93l226 -316h-41l-228 324l2 18h136q91 0 141 45t60 112h-310l5 26h308v7q0 63 -37 107t-120 44h-124l5 27h506z" />
    <glyph glyph-name="Won.case" 
d="M643 710l-84 -271h54l-4 -24h-58l-33 -107h72l-4 -24h-76l-88 -284h-42l2 284h-129l-98 -284h-44l11 284h-76l4 24h73l4 107h-58l4 24h55l10 271h29l-11 -271h123l94 271h36l-1 -271h122l83 271h30zM365 609l-59 -170h77l1 170v25.5t1 28.5h-2zM155 415l-4 -107h82
l38 107h-116zM261 308h121l1 107h-85zM490 308l33 107h-115l-1 -107h83zM168 120l57 164h-75l-7 -164q0 -12 -1.5 -38.5t-2.5 -41.5h2zM432 120l50 164h-75l-1 -164v-80h2z" />
    <glyph glyph-name="carontopcomb" 
d="M641 576l-10 15q25 25 36 85h-18l9 49h36l-9 -52q-13 -68 -44 -97z" />
  </font>
</defs>
</svg>
