<svg xmlns="http://www.w3.org/2000/svg" xmlns:xlink="http://www.w3.org/1999/xlink" viewBox="0 0 265.88 365">
  <defs>
    <clipPath id="a" transform="translate(0.06 0)">
      <rect width="265.82" height="364.94" fill="none"/>
    </clipPath>
  </defs>
  <g clip-path="url(#a)">
    <path d="M-.06,294.61l2.21-3.09L106.68,93.19l.22-2.1L60.82,4.54a8.55,8.55,0,0,0-16,2.7L-.06,294.61" transform="translate(0.06 0)" fill="#fec24b"/>
    <path d="M140.49,156.55l34.3-35.13L140.48,55.9a8.84,8.84,0,0,0-15.58,0l-18.33,35v3l33.92,62.7" transform="translate(0.06 0)" fill="#f3bd63"/>
    <polyline points="0 294.62 1 293.61 4.64 292.13 138.39 158.88 140.09 154.26 106.72 90.68 0 294.62" fill="#f58220"/>
    <path d="M144.77,361.82l121-67.51L231.25,81.42a8.27,8.27,0,0,0-14-4.52L-.06,294.62l120.35,67.19a25.12,25.12,0,0,0,24.48,0" transform="translate(0.06 0)" fill="#fde068"/>
    <path d="M264.74,293.74,230.43,82.47c-1.07-6.61-7.87-9.35-12.6-4.61L1.28,294.2l119,66.53a24.93,24.93,0,0,0,24.3,0l120.13-67" transform="translate(0.06 0)" fill="#fcca3f"/>
    <path d="M144.77,359.83a25.12,25.12,0,0,1-24.48,0L.91,293.59l-1,1,120.35,67.19a25.12,25.12,0,0,0,24.48,0l121-67.51-.3-1.82L144.77,359.83" transform="translate(0.06 0)" fill="#eeab37"/>
  </g>
</svg>
