<svg xmlns="http://www.w3.org/2000/svg" viewBox="0 0 400 400">
  <path d="M0,0V400H400V0ZM228.6,217h-52V365H139.7V217h-52V200.7l.3.1V184.4l70-.3c38.5,0,70.2.1,70.2.4.4.2.4,7.5.4,16.5ZM364,334.6c-6.4,16.7-22,28-44.3,31.7-7,1.2-23,1-30.5-.3-16-3-31.3-11-40.7-21.3-3.7-4-10.8-14.7-10.4-15.4l3.8-2.4,15-8.7,11.3-6.6,2.6,3.5c3.3,5.2,10.7,12.2,15,14.6,13,6.7,30.4,5.8,39-2a15,15,0,0,0,5.3-12c0-4.6-.7-6.7-3-10.2-3.2-4.4-9.6-8-27.6-16-20.7-8.8-29.5-14.4-37.7-23a56.81,56.81,0,0,1-11-20c-1.5-5.8-2-20-.6-25.7,4.3-20,19.4-34,41-38,7-1.4,23.5-.8,30.4,1l-.2.2a48.42,48.42,0,0,1,25,14.3c3.7,4,9.2,11,9.6,12.8,0,.6-17.3,12.3-27.8,18.8-.4.3-2-1.4-3.6-4-5.2-7.4-10.5-10.6-18.8-11.2-12-.8-20,5.5-20,16a15.8,15.8,0,0,0,1.8,7.6c2.7,5.5,7.7,8.8,23.2,15.6,28.6,12.3,41,20.4,48.5,32C367.8,298.9,369.7,319.3,364,334.6Z" fill="#007acc"/>
</svg>
